<svg width="24" height="24" viewBox="0 0 24 24" fill="none" xmlns="http://www.w3.org/2000/svg">
<path fill-rule="evenodd" clip-rule="evenodd" d="M20.625 9.87501H20.611C20.25 5.32501 16.058 2.32501 12 2.32501C7.942 2.32501 3.75 5.32501 3.389 9.87501H3.375C1.92525 9.87501 0.75 11.0503 0.75 12.5C0.75 13.9498 1.92525 15.125 3.375 15.125H3.389C4.54135 18.9162 8.0376 21.5076 12 21.5076C15.9624 21.5076 19.4587 18.9162 20.611 15.125H20.625C22.0747 15.125 23.25 13.9498 23.25 12.5C23.25 11.0503 22.0747 9.87501 20.625 9.87501V9.87501Z" stroke="black" stroke-width="1.5" stroke-linecap="round" stroke-linejoin="round"/>
<path d="M12.0001 2.32501C13.1442 2.32536 14.1059 3.18429 14.235 4.32113C14.3641 5.45797 13.6195 6.51067 12.5046 6.76756C11.3896 7.02446 10.2594 6.40372 9.87805 5.32501" stroke="black" stroke-width="1.5" stroke-linecap="round" stroke-linejoin="round"/>
<path d="M13.984 17C12.8502 17.9996 11.1498 17.9996 10.016 17" stroke="black" stroke-width="1.5" stroke-linecap="round" stroke-linejoin="round"/>
<path d="M17.25 11C17.25 11.8284 16.5784 12.5 15.75 12.5C14.9216 12.5 14.25 11.8284 14.25 11" stroke="black" stroke-width="1.5" stroke-linecap="round" stroke-linejoin="round"/>
<path d="M9.75 11C9.75 11.8284 9.07843 12.5 8.25 12.5C7.42157 12.5 6.75 11.8284 6.75 11" stroke="black" stroke-width="1.5" stroke-linecap="round" stroke-linejoin="round"/>
</svg>
