<svg width="24" height="24" viewBox="0 0 24 24" fill="none" xmlns="http://www.w3.org/2000/svg">
<path d="M13.984 18.176C12.8502 19.1757 11.1498 19.1757 10.016 18.176" stroke="black" stroke-width="1.5" stroke-linecap="round" stroke-linejoin="round"/>
<path d="M17.25 12.175C17.25 13.0035 16.5784 13.675 15.75 13.675C14.9216 13.675 14.25 13.0035 14.25 12.175" stroke="black" stroke-width="1.5" stroke-linecap="round" stroke-linejoin="round"/>
<path d="M9.75 12.175C9.75 13.0035 9.07843 13.675 8.25 13.675C7.42157 13.675 6.75 13.0035 6.75 12.175" stroke="black" stroke-width="1.5" stroke-linecap="round" stroke-linejoin="round"/>
<path fill-rule="evenodd" clip-rule="evenodd" d="M12 6.92499C13.2426 6.92499 14.25 5.91763 14.25 4.67499C14.25 3.43235 13.2426 2.42499 12 2.42499C10.7574 2.42499 9.75 3.43235 9.75 4.67499C9.75 5.91763 10.7574 6.92499 12 6.92499Z" stroke="black" stroke-width="1.5" stroke-linecap="round" stroke-linejoin="round"/>
<path d="M13.955 3.56102L16.638 1.41402C16.8032 1.28087 17.017 1.22382 17.2266 1.25697C17.4361 1.29012 17.6219 1.41038 17.738 1.58802C19.0919 3.42333 19.0919 5.9267 17.738 7.76202C17.6215 7.93915 17.4358 8.05898 17.2264 8.0921C17.017 8.12522 16.8034 8.06856 16.638 7.93602L13.955 5.78902" stroke="black" stroke-width="1.5" stroke-linecap="round" stroke-linejoin="round"/>
<path d="M10.045 3.56102L7.36204 1.41402C7.19683 1.28087 6.98301 1.22382 6.77343 1.25697C6.56385 1.29012 6.37808 1.41038 6.26204 1.58802C4.9081 3.42333 4.9081 5.9267 6.26204 7.76202C6.37849 7.93915 6.56421 8.05898 6.77358 8.0921C6.98296 8.12522 7.1966 8.06856 7.36204 7.93602L10.045 5.78902" stroke="black" stroke-width="1.5" stroke-linecap="round" stroke-linejoin="round"/>
<path d="M5.87 7.086C4.70817 8.16564 3.85227 9.53314 3.389 11.05H3.375C1.92525 11.05 0.75 12.2253 0.75 13.675C0.75 15.1247 1.92525 16.3 3.375 16.3H3.389C4.54135 20.0911 8.0376 22.6826 12 22.6826C15.9624 22.6826 19.4587 20.0911 20.611 16.3H20.625C22.0747 16.3 23.25 15.1247 23.25 13.675C23.25 12.2253 22.0747 11.05 20.625 11.05H20.611C20.1477 9.53314 19.2918 8.16564 18.13 7.086" stroke="black" stroke-width="1.5" stroke-linecap="round" stroke-linejoin="round"/>
</svg>
