<svg width="24" height="24" viewBox="0 0 24 24" fill="none" xmlns="http://www.w3.org/2000/svg">
<path d="M19.112 9C19.112 4.44365 15.4183 0.75 10.862 0.75C6.30563 0.75 2.61198 4.44365 2.61198 9V11.076C2.61198 11.6856 2.48814 12.2888 2.24798 12.849L0.872979 16.059C0.548979 16.814 1.01098 17.486 1.63498 18.021C2.94298 19.141 5.45598 19.847 8.24998 20.121" stroke="black" stroke-width="1.5" stroke-linecap="round" stroke-linejoin="round"/>
<path d="M15 8.882C13.1412 8.36153 11.6191 7.02556 10.862 5.25C10.862 5.25 9.42895 8.85 5.83095 8.995C5.13444 11.3315 6.13589 13.8404 8.24995 15.055" stroke="black" stroke-width="1.5" stroke-linecap="round" stroke-linejoin="round"/>
<path fill-rule="evenodd" clip-rule="evenodd" d="M17.25 23.25C20.5637 23.25 23.25 20.5637 23.25 17.25C23.25 13.9363 20.5637 11.25 17.25 11.25C13.9363 11.25 11.25 13.9363 11.25 17.25C11.25 20.5637 13.9363 23.25 17.25 23.25Z" stroke="black" stroke-width="1.5" stroke-linecap="round" stroke-linejoin="round"/>
<path d="M18.75 19.848C17.8218 20.3839 16.6782 20.3839 15.75 19.848" stroke="black" stroke-width="1.5" stroke-linecap="round" stroke-linejoin="round"/>
<path d="M17.25 11.25C18.0784 11.25 18.75 11.9216 18.75 12.75C18.75 13.5784 18.0784 14.25 17.25 14.25" stroke="black" stroke-width="1.5" stroke-linecap="round" stroke-linejoin="round"/>
<path d="M19.875 15.75C20.0821 15.75 20.25 15.9179 20.25 16.125" stroke="black" stroke-width="1.5" stroke-linecap="round" stroke-linejoin="round"/>
<path d="M19.5 16.125C19.5 15.9179 19.6679 15.75 19.875 15.75" stroke="black" stroke-width="1.5" stroke-linecap="round" stroke-linejoin="round"/>
<path d="M19.875 16.5C19.6679 16.5 19.5 16.3321 19.5 16.125" stroke="black" stroke-width="1.5" stroke-linecap="round" stroke-linejoin="round"/>
<path d="M20.25 16.125C20.25 16.3321 20.0821 16.5 19.875 16.5" stroke="black" stroke-width="1.5" stroke-linecap="round" stroke-linejoin="round"/>
<path d="M14.625 15.75C14.8321 15.75 15 15.9179 15 16.125" stroke="black" stroke-width="1.5" stroke-linecap="round" stroke-linejoin="round"/>
<path d="M14.25 16.125C14.25 15.9179 14.4179 15.75 14.625 15.75" stroke="black" stroke-width="1.5" stroke-linecap="round" stroke-linejoin="round"/>
<path d="M14.625 16.5C14.4179 16.5 14.25 16.3321 14.25 16.125" stroke="black" stroke-width="1.5" stroke-linecap="round" stroke-linejoin="round"/>
<path d="M15 16.125C15 16.3321 14.8321 16.5 14.625 16.5" stroke="black" stroke-width="1.5" stroke-linecap="round" stroke-linejoin="round"/>
</svg>
