<svg width="24" height="24" viewBox="0 0 24 24" fill="none" xmlns="http://www.w3.org/2000/svg">
<path fill-rule="evenodd" clip-rule="evenodd" d="M14.822 14.428C17.7215 14.428 20.072 12.0775 20.072 9.17804C20.072 6.27854 17.7215 3.92804 14.822 3.92804C11.9225 3.92804 9.57202 6.27854 9.57202 9.17804C9.57202 12.0775 11.9225 14.428 14.822 14.428Z" stroke="black" stroke-width="1.5" stroke-linecap="round" stroke-linejoin="round"/>
<path d="M13.247 6.72003C13.6902 6.8955 14.024 7.27053 14.147 7.73103" stroke="black" stroke-width="1.5" stroke-linecap="round" stroke-linejoin="round"/>
<path d="M16.259 9.84698C16.723 9.967 17.1016 10.3014 17.278 10.747" stroke="black" stroke-width="1.5" stroke-linecap="round" stroke-linejoin="round"/>
<path fill-rule="evenodd" clip-rule="evenodd" d="M13.92 21.008C10.8767 23.8678 6.11229 23.7937 3.15932 20.8407C0.206348 17.8877 0.13227 13.1234 2.99201 10.08L9.16801 3.51801C12.2923 0.393736 17.3577 0.393736 20.482 3.51801C23.6063 6.64229 23.6063 11.7077 20.482 14.832L13.92 21.008Z" stroke="black" stroke-width="1.5" stroke-linecap="round" stroke-linejoin="round"/>
<path d="M5.617 7.29102L9.758 23.026" stroke="black" stroke-width="1.5" stroke-linecap="round" stroke-linejoin="round"/>
<path d="M7.98199 16.28L16.481 18.598" stroke="black" stroke-width="1.5" stroke-linecap="round" stroke-linejoin="round"/>
</svg>
