<svg width="24" height="24" viewBox="0 0 24 24" fill="none" xmlns="http://www.w3.org/2000/svg">
<path d="M8.625 12.5C8.83211 12.5 9 12.6679 9 12.875" stroke="black" stroke-width="1.5" stroke-linecap="round" stroke-linejoin="round"/>
<path d="M8.25 12.875C8.25 12.6679 8.41789 12.5 8.625 12.5" stroke="black" stroke-width="1.5" stroke-linecap="round" stroke-linejoin="round"/>
<path d="M8.625 13.25C8.41789 13.25 8.25 13.0821 8.25 12.875" stroke="black" stroke-width="1.5" stroke-linecap="round" stroke-linejoin="round"/>
<path d="M9 12.875C9 13.0821 8.83211 13.25 8.625 13.25" stroke="black" stroke-width="1.5" stroke-linecap="round" stroke-linejoin="round"/>
<path d="M15.375 12.5C15.5821 12.5 15.75 12.6679 15.75 12.875" stroke="black" stroke-width="1.5" stroke-linecap="round" stroke-linejoin="round"/>
<path d="M15 12.875C15 12.6679 15.1679 12.5 15.375 12.5" stroke="black" stroke-width="1.5" stroke-linecap="round" stroke-linejoin="round"/>
<path d="M15.375 13.25C15.1679 13.25 15 13.0821 15 12.875" stroke="black" stroke-width="1.5" stroke-linecap="round" stroke-linejoin="round"/>
<path d="M15.75 12.875C15.75 13.0821 15.5821 13.25 15.375 13.25" stroke="black" stroke-width="1.5" stroke-linecap="round" stroke-linejoin="round"/>
<path fill-rule="evenodd" clip-rule="evenodd" d="M20.625 11.375H20.611C19.4587 7.58385 15.9624 4.99237 12 4.99237C8.0376 4.99237 4.54135 7.58385 3.389 11.375H3.375C1.92525 11.375 0.75 12.5502 0.75 14C0.75 15.4497 1.92525 16.625 3.375 16.625H3.389C4.54135 20.4161 8.0376 23.0076 12 23.0076C15.9624 23.0076 19.4587 20.4161 20.611 16.625H20.625C22.0747 16.625 23.25 15.4497 23.25 14C23.25 12.5502 22.0747 11.375 20.625 11.375V11.375Z" stroke="black" stroke-width="1.5" stroke-linecap="round" stroke-linejoin="round"/>
<path d="M15.354 17.75C14.5003 18.7044 13.2805 19.2499 12 19.2499C10.7195 19.2499 9.49968 18.7044 8.646 17.75" stroke="black" stroke-width="1.5" stroke-linecap="round" stroke-linejoin="round"/>
<path d="M14.488 1.25C16.1601 2.36006 16.8949 4.44326 16.2894 6.35676C15.6838 8.27027 13.8843 9.55144 11.878 9.49744C9.8717 9.44343 8.1437 8.06731 7.64197 6.124" stroke="black" stroke-width="1.5" stroke-linecap="round" stroke-linejoin="round"/>
</svg>
