<svg width="24" height="24" viewBox="0 0 24 24" fill="none" xmlns="http://www.w3.org/2000/svg">
<path d="M7.5 3.875C7.70711 3.875 7.875 4.04289 7.875 4.25" stroke="black" stroke-width="1.5" stroke-linecap="round" stroke-linejoin="round"/>
<path d="M7.125 4.25C7.125 4.04289 7.29289 3.875 7.5 3.875" stroke="black" stroke-width="1.5" stroke-linecap="round" stroke-linejoin="round"/>
<path d="M7.5 4.625C7.29289 4.625 7.125 4.45711 7.125 4.25" stroke="black" stroke-width="1.5" stroke-linecap="round" stroke-linejoin="round"/>
<path d="M7.875 4.25C7.875 4.45711 7.70711 4.625 7.5 4.625" stroke="black" stroke-width="1.5" stroke-linecap="round" stroke-linejoin="round"/>
<path d="M11.938 6C15.6469 6.25102 19.3012 7.02847 22.791 8.309C23.1197 8.4477 23.3052 8.79875 23.2346 9.14846C23.164 9.49817 22.8568 9.74972 22.5 9.75H7.5" stroke="black" stroke-width="1.5" stroke-linecap="round" stroke-linejoin="round"/>
<path d="M19.777 9.75C21.3 12.442 23.25 16.233 23.25 18C23.25 20.8995 20.8995 23.25 18 23.25C15.1005 23.25 12.75 20.8995 12.75 18C12.75 16.233 14.7 12.442 16.223 9.75" stroke="black" stroke-width="1.5" stroke-linecap="round" stroke-linejoin="round"/>
<path d="M18 5.25L21 2.25" stroke="black" stroke-width="1.5" stroke-linecap="round" stroke-linejoin="round"/>
<path d="M18 5.25L15 2.25" stroke="black" stroke-width="1.5" stroke-linecap="round" stroke-linejoin="round"/>
<path d="M7.5 9.75C9.98528 9.75 12 7.73528 12 5.25C12 2.76472 9.98528 0.75 7.5 0.75C5.01472 0.75 3 2.76472 3 5.25V14.25C3 15.4926 1.99264 16.5 0.75 16.5" stroke="black" stroke-width="1.5" stroke-linecap="round" stroke-linejoin="round"/>
<path d="M7.5 9.75C7.5 9.75 9 16.265 9 18.75C9 21.2353 6.98528 23.25 4.5 23.25" stroke="black" stroke-width="1.5" stroke-linecap="round" stroke-linejoin="round"/>
</svg>
