<svg width="24" height="24" viewBox="0 0 24 24" fill="none" xmlns="http://www.w3.org/2000/svg">
<path d="M5.76199 12.75C4.17998 8.26515 6.36028 3.32353 10.7394 1.46878C15.1185 -0.385957 20.1848 1.48641 22.3053 5.74321C24.4257 10 22.8684 15.1719 18.75 17.55" stroke="black" stroke-width="1.5" stroke-linecap="round" stroke-linejoin="round"/>
<path d="M14.25 0.75C15.4926 0.75 16.5 1.75736 16.5 3C16.5 4.24264 15.4926 5.25 14.25 5.25" stroke="black" stroke-width="1.5" stroke-linecap="round" stroke-linejoin="round"/>
<path d="M17.625 8.25C17.8321 8.25 18 8.41789 18 8.625" stroke="black" stroke-width="1.5" stroke-linecap="round" stroke-linejoin="round"/>
<path d="M17.25 8.625C17.25 8.41789 17.4179 8.25 17.625 8.25" stroke="black" stroke-width="1.5" stroke-linecap="round" stroke-linejoin="round"/>
<path d="M17.625 9C17.4179 9 17.25 8.83211 17.25 8.625" stroke="black" stroke-width="1.5" stroke-linecap="round" stroke-linejoin="round"/>
<path d="M18 8.625C18 8.83211 17.8321 9 17.625 9" stroke="black" stroke-width="1.5" stroke-linecap="round" stroke-linejoin="round"/>
<path d="M10.875 8.25C11.0821 8.25 11.25 8.41789 11.25 8.625" stroke="black" stroke-width="1.5" stroke-linecap="round" stroke-linejoin="round"/>
<path d="M10.5 8.625C10.5 8.41789 10.6679 8.25 10.875 8.25" stroke="black" stroke-width="1.5" stroke-linecap="round" stroke-linejoin="round"/>
<path d="M10.875 9C10.6679 9 10.5 8.83211 10.5 8.625" stroke="black" stroke-width="1.5" stroke-linecap="round" stroke-linejoin="round"/>
<path d="M11.25 8.625C11.25 8.83211 11.0821 9 10.875 9" stroke="black" stroke-width="1.5" stroke-linecap="round" stroke-linejoin="round"/>
<path d="M0.75 14.25V23.25" stroke="black" stroke-width="1.5" stroke-linecap="round" stroke-linejoin="round"/>
<path d="M0.75 21.75H15.75C15.75 20.0931 14.4069 18.75 12.75 18.75H9C9 17.0931 7.65685 15.75 6 15.75H0.75" stroke="black" stroke-width="1.5" stroke-linecap="round" stroke-linejoin="round"/>
<path d="M6 18.75H9" stroke="black" stroke-width="1.5" stroke-linecap="round" stroke-linejoin="round"/>
<path d="M16.5 13.5C15.1667 14.5 13.3333 14.5 12 13.5" stroke="black" stroke-width="1.5" stroke-linecap="round" stroke-linejoin="round"/>
</svg>
