<svg width="24" height="24" viewBox="0 0 24 24" fill="none" xmlns="http://www.w3.org/2000/svg">
<path d="M9 10.5C8.6459 10.9721 8.09017 11.25 7.5 11.25C6.90983 11.25 6.3541 10.9721 6 10.5" stroke="black" stroke-width="1.5" stroke-linecap="round" stroke-linejoin="round"/>
<path d="M11.25 22.468C10.1644 22.9843 8.97713 23.2515 7.775 23.25C3.97639 23.2501 0.865126 20.2319 0.75 16.435V7.5" stroke="black" stroke-width="1.5" stroke-linecap="round" stroke-linejoin="round"/>
<path d="M0.75 15L8.114 19.295" stroke="black" stroke-width="1.5" stroke-linecap="round" stroke-linejoin="round"/>
<path fill-rule="evenodd" clip-rule="evenodd" d="M17.25 23.2499L12.136 17.9149C11.2149 16.9944 10.9868 15.5874 11.57 14.4229V14.4229C12.0049 13.5531 12.8314 12.9454 13.7913 12.7897C14.7512 12.634 15.7275 12.9492 16.415 13.6369L17.25 14.4719L18.085 13.6369C18.7728 12.9492 19.7491 12.634 20.7092 12.7897C21.6692 12.9454 22.4959 13.5531 22.931 14.4229V14.4229C23.5133 15.5877 23.2849 16.9943 22.364 17.9149L17.25 23.2499Z" stroke="black" stroke-width="1.5" stroke-linecap="round" stroke-linejoin="round"/>
<path d="M8.25004 14.209C8.00098 14.2363 7.7506 14.25 7.50004 14.25C4.56394 14.2469 1.9673 12.3443 1.0796 9.54565C0.1919 6.74696 1.21721 3.69555 3.61479 2.00076C6.01236 0.305957 9.23101 0.357389 11.5732 2.12793C13.9154 3.89846 14.8427 6.98107 13.866 9.74998" stroke="black" stroke-width="1.5" stroke-linecap="round" stroke-linejoin="round"/>
<path d="M8.65198 5.99996C8.91967 5.53492 9.41539 5.24829 9.95198 5.24829C10.4886 5.24829 10.9843 5.53492 11.252 5.99996" stroke="black" stroke-width="1.5" stroke-linecap="round" stroke-linejoin="round"/>
<path d="M3.75 5.99996C4.0177 5.53492 4.51341 5.24829 5.05 5.24829C5.58659 5.24829 6.0823 5.53492 6.35 5.99996" stroke="black" stroke-width="1.5" stroke-linecap="round" stroke-linejoin="round"/>
</svg>
