<svg width="24" height="24" viewBox="0 0 24 24" fill="none" xmlns="http://www.w3.org/2000/svg">
<path d="M19.624 17.658C20.0385 16.6568 20.2512 15.5836 20.25 14.5V9.25C20.25 4.69365 16.5564 1 12 1C7.44366 1 3.75001 4.69365 3.75001 9.25V14.5C3.74879 15.5836 3.96152 16.6568 4.37601 17.658" stroke="black" stroke-width="1.5" stroke-linecap="round" stroke-linejoin="round"/>
<path fill-rule="evenodd" clip-rule="evenodd" d="M3.75 14.5V10.75C2.09315 10.75 0.75 12.0931 0.75 13.75C0.75 15.4069 2.09315 16.75 3.75 16.75C3.85 16.75 3.956 16.75 4.057 16.735C3.85275 16.0076 3.74945 15.2555 3.75 14.5V14.5Z" stroke="black" stroke-width="1.5" stroke-linecap="round" stroke-linejoin="round"/>
<path fill-rule="evenodd" clip-rule="evenodd" d="M20.25 14.5V10.75C21.9068 10.75 23.25 12.0931 23.25 13.75C23.25 15.4069 21.9068 16.75 20.25 16.75C20.15 16.75 20.044 16.75 19.943 16.735C20.1472 16.0076 20.2505 15.2555 20.25 14.5Z" stroke="black" stroke-width="1.5" stroke-linecap="round" stroke-linejoin="round"/>
<path d="M7.125 12.25C7.33211 12.25 7.5 12.4179 7.5 12.625" stroke="black" stroke-width="1.5" stroke-linecap="round" stroke-linejoin="round"/>
<path d="M6.75 12.625C6.75 12.4179 6.91789 12.25 7.125 12.25" stroke="black" stroke-width="1.5" stroke-linecap="round" stroke-linejoin="round"/>
<path d="M7.125 13C6.91789 13 6.75 12.8321 6.75 12.625" stroke="black" stroke-width="1.5" stroke-linecap="round" stroke-linejoin="round"/>
<path d="M7.5 12.625C7.5 12.8321 7.33211 13 7.125 13" stroke="black" stroke-width="1.5" stroke-linecap="round" stroke-linejoin="round"/>
<path d="M16.875 12.25C17.0821 12.25 17.25 12.4179 17.25 12.625" stroke="black" stroke-width="1.5" stroke-linecap="round" stroke-linejoin="round"/>
<path d="M16.5 12.625C16.5 12.4179 16.6679 12.25 16.875 12.25" stroke="black" stroke-width="1.5" stroke-linecap="round" stroke-linejoin="round"/>
<path d="M16.875 13C16.6679 13 16.5 12.8321 16.5 12.625" stroke="black" stroke-width="1.5" stroke-linecap="round" stroke-linejoin="round"/>
<path d="M17.25 12.625C17.25 12.8321 17.0821 13 16.875 13" stroke="black" stroke-width="1.5" stroke-linecap="round" stroke-linejoin="round"/>
<path d="M12 4C13.1615 4.54323 13.8957 5.71792 13.875 7C13.875 8.24264 12.8676 9.25 11.625 9.25C11.1276 9.25027 10.6506 9.05281 10.2989 8.70112C9.94719 8.34943 9.74973 7.87236 9.75 7.375C9.75002 6.88849 9.98599 6.4322 10.383 6.151" stroke="black" stroke-width="1.5" stroke-linecap="round" stroke-linejoin="round"/>
<path fill-rule="evenodd" clip-rule="evenodd" d="M14.8889 17.014C14.3442 17.0128 13.809 17.1563 13.3379 17.43C12.5102 17.91 11.4887 17.91 10.6609 17.43C9.35338 16.6771 7.69405 16.971 6.72462 18.1272C5.7552 19.2834 5.7552 20.9686 6.72462 22.1248C7.69405 23.281 9.35338 23.5749 10.6609 22.822C11.489 22.343 12.5099 22.343 13.3379 22.822C13.809 23.0956 14.3442 23.2392 14.8889 23.238C16.6071 23.238 17.9999 21.8451 17.9999 20.127C17.9999 18.4088 16.6071 17.016 14.8889 17.016V17.014Z" stroke="black" stroke-width="1.5" stroke-linecap="round" stroke-linejoin="round"/>
<path d="M10.875 20.125H13.125" stroke="black" stroke-width="1.5" stroke-linecap="round" stroke-linejoin="round"/>
</svg>
