<svg width="24" height="25" viewBox="0 0 24 25" fill="none" xmlns="http://www.w3.org/2000/svg">
<path d="M1.47302 23.3199H22.473" stroke="#333333" stroke-width="1.5" stroke-linecap="round" stroke-linejoin="round"/>
<path fill-rule="evenodd" clip-rule="evenodd" d="M2.97302 11.86C2.97302 11.0316 3.6446 10.36 4.47302 10.36H19.473C20.3014 10.36 20.973 11.0316 20.973 11.86V18.94C20.973 19.7684 20.3014 20.44 19.473 20.44H4.47302C3.6446 20.44 2.97302 19.7684 2.97302 18.94V11.86Z" stroke="#333333" stroke-width="1.5" stroke-linecap="round" stroke-linejoin="round"/>
<path d="M11.973 8.19995V10.36" stroke="#333333" stroke-width="1.5" stroke-linecap="round" stroke-linejoin="round"/>
<path fill-rule="evenodd" clip-rule="evenodd" d="M13.473 3.87997C13.473 4.67526 12.8014 5.31997 11.973 5.31997C11.1446 5.31997 10.473 4.67526 10.473 3.87997C10.473 3.08509 11.973 1.71997 11.973 1.71997C11.973 1.71997 13.473 3.08509 13.473 3.87997Z" stroke="#333333" stroke-width="1.5" stroke-linecap="round" stroke-linejoin="round"/>
<path d="M17.973 8.19995V10.36" stroke="#333333" stroke-width="1.5" stroke-linecap="round" stroke-linejoin="round"/>
<path fill-rule="evenodd" clip-rule="evenodd" d="M19.473 3.87997C19.473 4.67526 18.8014 5.31997 17.973 5.31997C17.1446 5.31997 16.473 4.67526 16.473 3.87997C16.473 3.08509 17.973 1.71997 17.973 1.71997C17.973 1.71997 19.473 3.08509 19.473 3.87997Z" stroke="#333333" stroke-width="1.5" stroke-linecap="round" stroke-linejoin="round"/>
<path d="M5.97302 8.19995V10.36" stroke="#333333" stroke-width="1.5" stroke-linecap="round" stroke-linejoin="round"/>
<path fill-rule="evenodd" clip-rule="evenodd" d="M7.47302 3.87997C7.47302 4.67526 6.80145 5.31997 5.97302 5.31997C5.1446 5.31997 4.47302 4.67526 4.47302 3.87997C4.47302 3.08509 5.97302 1.71997 5.97302 1.71997C5.97302 1.71997 7.47302 3.08509 7.47302 3.87997Z" stroke="#333333" stroke-width="1.5" stroke-linecap="round" stroke-linejoin="round"/>
<path d="M2.97302 13.6C2.9717 14.6246 3.61746 15.5477 4.6059 15.9342C5.59435 16.3208 6.72821 16.0935 7.47302 15.3597C8.04112 15.9213 8.84997 16.1957 9.65949 16.1015C10.469 16.0073 11.1861 15.5553 11.598 14.8797C12.0649 15.6478 12.9216 16.1201 13.848 16.1201C14.7744 16.1201 15.6311 15.6478 16.098 14.8797C16.6971 15.8582 17.9051 16.3298 19.0455 16.0304C20.186 15.731 20.9759 14.735 20.973 13.6" stroke="#333333" stroke-width="1.5" stroke-linecap="round" stroke-linejoin="round"/>
</svg>
