<svg width="24" height="25" viewBox="0 0 24 25" fill="none" xmlns="http://www.w3.org/2000/svg">
<path fill-rule="evenodd" clip-rule="evenodd" d="M6.03801 6.25888C6.59401 9.33952 8.54801 11.4496 12 12.52C15.452 11.4496 17.406 9.33952 17.962 6.25888C18.0288 5.84223 17.902 5.41842 17.6151 5.09926C17.3283 4.78009 16.9101 4.59763 16.471 4.6H7.52901C7.0899 4.59763 6.67177 4.78009 6.3849 5.09926C6.09804 5.41842 5.97126 5.84223 6.03801 6.25888Z" stroke="black" stroke-width="1.5" stroke-linecap="round" stroke-linejoin="round"/>
<path d="M3.75 1.71997H20.25" stroke="black" stroke-width="1.5" stroke-linecap="round" stroke-linejoin="round"/>
<path fill-rule="evenodd" clip-rule="evenodd" d="M7.52898 20.44C7.09008 20.4423 6.67213 20.2599 6.3853 19.941C6.09848 19.6221 5.97155 19.1985 6.03798 18.782C6.59398 15.7014 8.54798 13.5913 12 12.52C15.452 13.5913 17.406 15.7014 17.962 18.782C18.0284 19.1985 17.9015 19.6221 17.6147 19.941C17.3278 20.2599 16.9099 20.4423 16.471 20.44H7.52898Z" stroke="black" stroke-width="1.5" stroke-linecap="round" stroke-linejoin="round"/>
<path d="M3.75 23.3199H20.25" stroke="black" stroke-width="1.5" stroke-linecap="round" stroke-linejoin="round"/>
</svg>
