<svg width="21" height="20" viewBox="0 0 21 20" fill="none" xmlns="http://www.w3.org/2000/svg">
<path fill-rule="evenodd" clip-rule="evenodd" d="M8.34082 0C3.92254 0 0.34082 3.58172 0.34082 8C0.34082 12.4183 3.92254 16 8.34082 16C10.1895 16 11.8918 15.3729 13.2465 14.3199L18.6337 19.7071C19.0242 20.0976 19.6574 20.0976 20.0479 19.7071C20.4385 19.3166 20.4385 18.6834 20.0479 18.2929L14.6607 12.9056C15.7137 11.551 16.3408 9.84871 16.3408 8C16.3408 3.58172 12.7591 0 8.34082 0ZM2.34082 8C2.34082 4.68629 5.02711 2 8.34082 2C11.6545 2 14.3408 4.68629 14.3408 8C14.3408 11.3137 11.6545 14 8.34082 14C5.02711 14 2.34082 11.3137 2.34082 8Z" fill="#939698"/>
</svg>
