<svg width="21" height="16" viewBox="0 0 21 16" fill="none" xmlns="http://www.w3.org/2000/svg">
<path fill-rule="evenodd" clip-rule="evenodd" d="M2.34082 0C1.23625 0 0.34082 0.895432 0.34082 2V14C0.34082 15.1046 1.23625 16 2.34082 16H18.3408C19.4454 16 20.3408 15.1046 20.3408 14V2.01311C20.341 2.00189 20.3409 1.99066 20.3407 1.97943C20.3297 0.884336 19.4385 0 18.3408 0H2.34082ZM17.7409 2L2.99886 2L10.5805 7.73301L17.7409 2ZM2.34082 4.00984V14H18.3408V4.08173L11.223 9.78061C10.8658 10.0667 10.3599 10.0737 9.99487 9.79763L2.34082 4.00984Z" fill="#939698"/>
</svg>
