<svg width="23" height="20" viewBox="0 0 23 20" fill="none" xmlns="http://www.w3.org/2000/svg">
<path d="M11.3408 4.49999C14.1008 4.49999 16.3408 6.73999 16.3408 9.49999C16.3408 10.01 16.2408 10.5 16.1008 10.96L19.1608 14.02C20.5508 12.79 21.6508 11.25 22.3408 9.48999C20.6108 5.10999 16.3408 1.99999 11.3408 1.99999C10.0708 1.99999 8.85082 2.19999 7.70082 2.56999L9.87082 4.73999C10.3408 4.59999 10.8308 4.49999 11.3408 4.49999ZM2.05082 1.15999C1.66082 1.54999 1.66082 2.17999 2.05082 2.56999L4.02082 4.53999C2.40082 5.82999 1.11082 7.52999 0.34082 9.49999C2.07082 13.89 6.34082 17 11.3408 17C12.8608 17 14.3108 16.7 15.6508 16.18L18.3708 18.9C18.7608 19.29 19.3908 19.29 19.7808 18.9C20.1708 18.51 20.1708 17.88 19.7808 17.49L3.47082 1.15999C3.08082 0.769993 2.44082 0.769993 2.05082 1.15999ZM11.3408 14.5C8.58082 14.5 6.34082 12.26 6.34082 9.49999C6.34082 8.72999 6.52082 7.99999 6.83082 7.35999L8.40082 8.92999C8.37082 9.10999 8.34082 9.29999 8.34082 9.49999C8.34082 11.16 9.68082 12.5 11.3408 12.5C11.5408 12.5 11.7208 12.47 11.9108 12.43L13.4808 14C12.8308 14.32 12.1108 14.5 11.3408 14.5ZM14.3108 9.16999C14.1608 7.76999 13.0608 6.67999 11.6708 6.52999L14.3108 9.16999Z" fill="#939698"/>
</svg>
