<svg width="23" height="15" viewBox="0 0 23 15" fill="none" xmlns="http://www.w3.org/2000/svg">
<path d="M11.3408 0C6.34082 0 2.07082 3.11 0.34082 7.5C2.07082 11.89 6.34082 15 11.3408 15C16.3408 15 20.6108 11.89 22.3408 7.5C20.6108 3.11 16.3408 0 11.3408 0ZM11.3408 12.5C8.58082 12.5 6.34082 10.26 6.34082 7.5C6.34082 4.74 8.58082 2.5 11.3408 2.5C14.1008 2.5 16.3408 4.74 16.3408 7.5C16.3408 10.26 14.1008 12.5 11.3408 12.5ZM11.3408 4.5C9.68082 4.5 8.34082 5.84 8.34082 7.5C8.34082 9.16 9.68082 10.5 11.3408 10.5C13.0008 10.5 14.3408 9.16 14.3408 7.5C14.3408 5.84 13.0008 4.5 11.3408 4.5Z" fill="#939698"/>
</svg>
