<svg width="94" height="31" viewBox="0 0 94 31" fill="none" xmlns="http://www.w3.org/2000/svg">
<path d="M31.5848 0C30.7572 0.0127307 29.9671 0.34762 29.3825 0.933531C28.7978 1.51944 28.4646 2.31021 28.4536 3.13787C28.4536 3.97008 28.7842 4.76821 29.3727 5.35667C29.9611 5.94514 30.7593 6.27573 31.5915 6.27573C32.4237 6.27573 33.2218 5.94514 33.8103 5.35667C34.3987 4.76821 34.7293 3.97008 34.7293 3.13787C34.7183 2.30794 34.3832 1.51522 33.7957 0.928943C33.2082 0.342668 32.4148 0.00929512 31.5848 0V0Z" fill="black"/>
<path d="M34.7225 10.3296H28.4468V30.2058H34.7225V10.3296Z" fill="black"/>
<path d="M68.4546 14.2708V10.3298H50.1964H50.1193C47.8071 10.3298 45.8473 11.0624 44.2052 13.2922L44.2465 10.3271H37.9614V30.206H44.2372V22.7363C44.2372 19.6357 46.669 15.8224 50.9237 15.8224H60.0169L51.792 26.2691V30.2087H68.888V24.7161H60.231L68.4546 14.2708Z" fill="black"/>
<path d="M18.7275 10.3322C16.1201 10.5383 14.8916 11.3228 13.2296 13.8278L12.7123 14.7745L12.2403 13.9009L12.1965 13.8278C10.468 11.2098 8.13585 10.6194 6.53367 10.4027L5.76915 10.3455L0 10.3296V30.2058H6.08959V16.487L6.14144 15.8488C8.07203 16.2344 10.686 18.282 11.4333 20.5822L11.6513 21.2563H13.7787L13.9967 20.5822C14.603 18.7141 17.1333 16.9417 19.1024 16.1759L19.1277 16.487V30.2058H25.2173V10.3296H18.8086L18.7275 10.3322Z" fill="black"/>
<path d="M86.8138 10.3299V12.3908L86.6077 12.1727C85.1092 10.5772 82.9725 9.77148 80.2575 9.77148C74.5176 9.77148 70.0195 14.3812 70.0195 20.2754C70.0195 26.1695 74.5163 30.7726 80.2575 30.7726C82.9739 30.7726 85.1092 29.9642 86.609 28.3713L86.8138 28.1519V30.2128H93.0908V10.3299H86.8138ZM81.5565 25.1962C78.4107 25.1962 76.2979 23.2151 76.2979 20.2687C76.2979 17.3223 78.4107 15.3399 81.5565 15.3399C84.7024 15.3399 86.8138 17.321 86.8138 20.2687C86.8138 23.2164 84.6957 25.1962 81.5565 25.1962Z" fill="black"/>
</svg>
