<svg width="24" height="24" viewBox="0 0 24 24" fill="none" xmlns="http://www.w3.org/2000/svg">
<path d="M0.75 22.949V11.7C0.75 11.2858 1.08579 10.95 1.5 10.95H14.25" stroke="black" stroke-width="1.5" stroke-linecap="round" stroke-linejoin="round"/>
<path fill-rule="evenodd" clip-rule="evenodd" d="M15 22.949C14.5858 22.949 14.25 22.6132 14.25 22.199V7.20001H23.25V22.2C23.25 22.6142 22.9142 22.95 22.5 22.95L15 22.949Z" stroke="black" stroke-width="1.5" stroke-linecap="round" stroke-linejoin="round"/>
<path d="M14.25 7.20001L18.126 1.38601C18.2651 1.1774 18.4993 1.05209 18.75 1.05209C19.0007 1.05209 19.2349 1.1774 19.374 1.38601L23.25 7.20001" stroke="black" stroke-width="1.5" stroke-linecap="round" stroke-linejoin="round"/>
<path d="M3.75 20.699H11.25" stroke="black" stroke-width="1.5" stroke-linecap="round" stroke-linejoin="round"/>
<path d="M9.75 10.949V20.699" stroke="black" stroke-width="1.5" stroke-linecap="round" stroke-linejoin="round"/>
<path d="M5.25 10.949V20.699" stroke="black" stroke-width="1.5" stroke-linecap="round" stroke-linejoin="round"/>
<path fill-rule="evenodd" clip-rule="evenodd" d="M18.75 13.949C19.5784 13.949 20.25 13.2774 20.25 12.449C20.25 11.6206 19.5784 10.949 18.75 10.949C17.9216 10.949 17.25 11.6206 17.25 12.449C17.25 13.2774 17.9216 13.949 18.75 13.949Z" stroke="black" stroke-width="1.5" stroke-linecap="round" stroke-linejoin="round"/>
</svg>
