<svg width="24" height="24" viewBox="0 0 24 24" fill="none" xmlns="http://www.w3.org/2000/svg">
<path fill-rule="evenodd" clip-rule="evenodd" d="M20.25 0.75C21.9048 0.754942 23.2451 2.0952 23.25 3.75V22.875C23.25 23.0821 23.0821 23.25 22.875 23.25H20.625C20.4179 23.25 20.25 23.0821 20.25 22.875V15.75C20.25 14.9216 19.5784 14.25 18.75 14.25H17.25C16.4216 14.25 15.75 14.9216 15.75 15.75V22.875C15.75 23.0821 15.5821 23.25 15.375 23.25H13.125C12.9179 23.25 12.75 23.0821 12.75 22.875V3.75C12.7549 2.0952 14.0952 0.754942 15.75 0.75L20.25 0.75Z" stroke="black" stroke-width="1.5" stroke-linecap="round" stroke-linejoin="round"/>
<path fill-rule="evenodd" clip-rule="evenodd" d="M15.75 5.625C15.75 5.41789 15.9179 5.25 16.125 5.25H19.875C20.0821 5.25 20.25 5.41789 20.25 5.625V7.875C20.25 8.08211 20.0821 8.25 19.875 8.25H16.125C15.9179 8.25 15.75 8.08211 15.75 7.875V5.625Z" stroke="black" stroke-width="1.5" stroke-linecap="round" stroke-linejoin="round"/>
<path d="M12.75 9.75L5 16.207C4.19176 16.8805 3.17309 17.2496 2.121 17.25C1.36382 17.25 0.75 17.8638 0.75 18.621V21.75C0.75 22.5784 1.42157 23.25 2.25 23.25H2.894C3.93257 23.2499 4.93915 22.8906 5.743 22.233L9.4 19.24" stroke="black" stroke-width="1.5" stroke-linecap="round" stroke-linejoin="round"/>
</svg>
