<svg width="24" height="24" viewBox="0 0 24 24" fill="none" xmlns="http://www.w3.org/2000/svg">
<path d="M0.75 19.408C7.41755 14.4106 16.5824 14.4106 23.25 19.408" stroke="black" stroke-width="1.5" stroke-linecap="round" stroke-linejoin="round"/>
<path d="M10.5 15.719V8.90997C10.5 8.08155 11.1716 7.40997 12 7.40997C12.8284 7.40997 13.5 8.08155 13.5 8.90997V15.719" stroke="black" stroke-width="1.5" stroke-linecap="round" stroke-linejoin="round"/>
<path d="M10.5 10.766L2.98398 12.807C2.19224 13.0029 1.38905 12.5303 1.17585 11.743C0.962652 10.9557 1.41758 10.1424 2.19998 9.912L3.64798 9.519C4.03202 9.41466 4.44178 9.46721 4.78706 9.66508C5.13234 9.86294 5.38484 10.1899 5.48898 10.574L5.88198 12.021" stroke="black" stroke-width="1.5" stroke-linecap="round" stroke-linejoin="round"/>
<path d="M18.183 8.68099L17.79 7.23299C17.6857 6.84895 17.7382 6.43919 17.9361 6.09391C18.1339 5.74863 18.4609 5.49613 18.845 5.39199L21.016 4.79999C21.8168 4.58349 22.6415 5.05717 22.858 5.85799C23.0745 6.6588 22.6008 7.48349 21.8 7.69999L13.5 9.95199" stroke="black" stroke-width="1.5" stroke-linecap="round" stroke-linejoin="round"/>
</svg>
