<svg width="94" height="31" viewBox="0 0 94 31" fill="none" xmlns="http://www.w3.org/2000/svg">
<path d="M31.5843 3.05176e-05C30.7567 0.0127612 29.9667 0.34765 29.382 0.933562C28.7973 1.51947 28.4641 2.31024 28.4531 3.1379C28.4531 3.97011 28.7837 4.76824 29.3722 5.3567C29.9606 5.94517 30.7588 6.27576 31.591 6.27576C32.4232 6.27576 33.2213 5.94517 33.8098 5.3567C34.3983 4.76824 34.7289 3.97011 34.7289 3.1379C34.7178 2.30797 34.3827 1.51525 33.7952 0.928974C33.2077 0.342698 32.4143 0.00932564 31.5843 3.05176e-05V3.05176e-05Z" fill="black"/>
<path d="M34.723 10.3297H28.4473V30.206H34.723V10.3297Z" fill="black"/>
<path d="M68.4541 14.2707V10.3297H50.196H50.1188C47.8067 10.3297 45.8468 11.0623 44.2048 13.2921L44.246 10.3271H37.9609V30.206H44.2367V22.7362C44.2367 19.6356 46.6685 15.8223 50.9232 15.8223H60.0164L51.7915 26.269V30.2086H68.8875V24.716H60.2305L68.4541 14.2707Z" fill="black"/>
<path d="M18.7275 10.3324C16.1201 10.5385 14.8916 11.3229 13.2296 13.8279L12.7123 14.7746L12.2403 13.901L12.1965 13.8279C10.468 11.2099 8.13585 10.6196 6.53367 10.4029L5.76915 10.3457L0 10.3297V30.206H6.08959V16.4871L6.14144 15.8489C8.07203 16.2345 10.686 18.2821 11.4333 20.5823L11.6513 21.2564H13.7787L13.9967 20.5823C14.603 18.7142 17.1333 16.9418 19.1024 16.176L19.1277 16.4871V30.206H25.2173V10.3297H18.8086L18.7275 10.3324Z" fill="black"/>
<path d="M86.8138 10.3297V12.3906L86.6077 12.1726C85.1092 10.577 82.9725 9.77129 80.2575 9.77129C74.5176 9.77129 70.0195 14.381 70.0195 20.2752C70.0195 26.1693 74.5163 30.7724 80.2575 30.7724C82.9739 30.7724 85.1092 29.964 86.609 28.3711L86.8138 28.1517V30.2126H93.0908V10.3297H86.8138ZM81.5565 25.196C78.4107 25.196 76.2979 23.2149 76.2979 20.2685C76.2979 17.3221 78.4107 15.3397 81.5565 15.3397C84.7024 15.3397 86.8138 17.3208 86.8138 20.2685C86.8138 23.2162 84.6957 25.196 81.5565 25.196Z" fill="black"/>
</svg>
