<svg width="24" height="24" viewBox="0 0 24 24" fill="none" xmlns="http://www.w3.org/2000/svg">
<path fill-rule="evenodd" clip-rule="evenodd" d="M12 23.25C18.2132 23.25 23.25 18.2132 23.25 12C23.25 5.7868 18.2132 0.75 12 0.75C5.7868 0.75 0.75 5.7868 0.75 12C0.75 18.2132 5.7868 23.25 12 23.25Z" stroke="black" stroke-width="1.5" stroke-linecap="round" stroke-linejoin="round"/>
<path fill-rule="evenodd" clip-rule="evenodd" d="M10.146 15.532C10.946 16.481 11.085 17.683 10.452 18.218C9.81905 18.753 8.65705 18.418 7.85205 17.468C7.04705 16.518 6.91305 15.316 7.54605 14.782C8.17905 14.248 9.34305 14.583 10.146 15.532Z" stroke="black" stroke-width="1.5" stroke-linecap="round" stroke-linejoin="round"/>
<path d="M7.54805 14.782C7.54805 14.782 3.34905 12.394 5.25005 9C7.15105 5.606 11.2501 8.25 13.5001 6" stroke="black" stroke-width="1.5" stroke-linecap="round" stroke-linejoin="round"/>
<path fill-rule="evenodd" clip-rule="evenodd" d="M15.75 15.75C16.5784 15.75 17.25 15.0784 17.25 14.25C17.25 13.4216 16.5784 12.75 15.75 12.75C14.9216 12.75 14.25 13.4216 14.25 14.25C14.25 15.0784 14.9216 15.75 15.75 15.75Z" stroke="black" stroke-width="1.5" stroke-linecap="round" stroke-linejoin="round"/>
<path d="M18 7.875C18.2071 7.875 18.375 8.04289 18.375 8.25" stroke="black" stroke-width="1.5" stroke-linecap="round" stroke-linejoin="round"/>
<path d="M17.625 8.25C17.625 8.04289 17.7929 7.875 18 7.875" stroke="black" stroke-width="1.5" stroke-linecap="round" stroke-linejoin="round"/>
<path d="M18 8.625C17.7929 8.625 17.625 8.45711 17.625 8.25" stroke="black" stroke-width="1.5" stroke-linecap="round" stroke-linejoin="round"/>
<path d="M18.375 8.25C18.375 8.45711 18.2071 8.625 18 8.625" stroke="black" stroke-width="1.5" stroke-linecap="round" stroke-linejoin="round"/>
</svg>
