<svg width="24" height="24" viewBox="0 0 24 24" fill="none" xmlns="http://www.w3.org/2000/svg">
<path d="M19.531 9.77199L14.016 15.288C13.4534 15.8507 12.6902 16.1669 11.8945 16.1669C11.0988 16.1669 10.3356 15.8507 9.77299 15.288L8.71199 14.227C8.14927 13.6644 7.83313 12.9012 7.83313 12.1055C7.83313 11.3098 8.14927 10.5466 8.71199 9.98399L14.228 4.46899" stroke="black" stroke-width="1.5" stroke-linecap="round" stroke-linejoin="round"/>
<path d="M6.73804 17.262L9.24304 14.757" stroke="black" stroke-width="1.5" stroke-linecap="round" stroke-linejoin="round"/>
<path d="M12.637 2.878L21.122 11.363" stroke="black" stroke-width="1.5" stroke-linecap="round" stroke-linejoin="round"/>
<path d="M21.6529 4.46899L17.9399 8.18099" stroke="black" stroke-width="1.5" stroke-linecap="round" stroke-linejoin="round"/>
<path d="M15.819 6.06L19.531 2.347" stroke="black" stroke-width="1.5" stroke-linecap="round" stroke-linejoin="round"/>
<path d="M17.9399 0.755997L23.2439 6.06" stroke="black" stroke-width="1.5" stroke-linecap="round" stroke-linejoin="round"/>
<path d="M14.228 10.833L16.349 12.954" stroke="black" stroke-width="1.5" stroke-linecap="round" stroke-linejoin="round"/>
<path d="M22.432 15C22.9465 15.6386 23.2342 16.4301 23.25 17.25C23.25 20.564 18.213 23.25 12 23.25C5.787 23.25 0.75 20.564 0.75 17.25C0.75 15.675 1.888 14.241 3.75 13.171" stroke="black" stroke-width="1.5" stroke-linecap="round" stroke-linejoin="round"/>
<path d="M10.5 19.125C10.7071 19.125 10.875 19.2929 10.875 19.5" stroke="black" stroke-width="1.5" stroke-linecap="round" stroke-linejoin="round"/>
<path d="M10.125 19.5C10.125 19.2929 10.2929 19.125 10.5 19.125" stroke="black" stroke-width="1.5" stroke-linecap="round" stroke-linejoin="round"/>
<path d="M10.5 19.875C10.2929 19.875 10.125 19.7071 10.125 19.5" stroke="black" stroke-width="1.5" stroke-linecap="round" stroke-linejoin="round"/>
<path d="M10.875 19.5C10.875 19.7071 10.7071 19.875 10.5 19.875" stroke="black" stroke-width="1.5" stroke-linecap="round" stroke-linejoin="round"/>
<path d="M15.75 19.5C16.428 17.085 18.526 18.207 19.5 16.5" stroke="black" stroke-width="1.5" stroke-linecap="round" stroke-linejoin="round"/>
</svg>
