<svg width="24" height="24" viewBox="0 0 24 24" fill="none" xmlns="http://www.w3.org/2000/svg">
<path fill-rule="evenodd" clip-rule="evenodd" d="M7.22701 15.527C8.0858 14.7146 8.65155 13.6407 8.83601 12.473C9.27201 10.392 8.78201 8.528 7.73601 8.31C6.69001 8.092 5.50001 9.6 5.06801 11.684C5.05501 11.743 5.04401 11.802 5.03301 11.86C5.00601 11.808 4.97701 11.76 4.94801 11.702C3.91601 9.843 2.32601 8.755 1.40001 9.271C0.474007 9.787 0.554007 11.712 1.58601 13.571C2.10772 14.6319 2.96606 15.4903 4.02701 16.012C3.16821 16.8244 2.60246 17.8983 2.41801 19.066C1.98201 21.147 2.47201 23.011 3.51301 23.229C4.55401 23.447 5.75001 21.936 6.18601 19.855C6.19901 19.796 6.21001 19.737 6.22101 19.679C6.24801 19.732 6.27701 19.784 6.30601 19.837C7.33801 21.696 8.92801 22.785 9.85801 22.269C10.788 21.753 10.704 19.827 9.67201 17.969C9.14944 16.907 8.2896 16.0483 7.22701 15.527Z" stroke="black" stroke-width="1.5" stroke-linecap="round" stroke-linejoin="round"/>
<path d="M5.03296 11.86L6.21696 19.679" stroke="black" stroke-width="1.5" stroke-linecap="round" stroke-linejoin="round"/>
<path d="M4.02295 16.012L7.22695 15.527" stroke="black" stroke-width="1.5" stroke-linecap="round" stroke-linejoin="round"/>
<path fill-rule="evenodd" clip-rule="evenodd" d="M22.931 2.257C22.264 1.669 20.77 2.274 19.595 3.607C19.56 3.648 19.525 3.688 19.495 3.729C19.485 3.676 19.474 3.629 19.463 3.572C19.081 1.835 18.071 0.58 17.2 0.769C16.329 0.958 15.934 2.519 16.312 4.257C16.4749 5.17742 16.9091 6.02816 17.559 6.7C17.0519 7.31316 16.6926 8.03477 16.509 8.809C16.062 10.53 16.397 12.109 17.257 12.33C18.117 12.551 19.178 11.339 19.624 9.618C19.8407 8.85213 19.878 8.04662 19.733 7.264C20.6274 6.99316 21.4204 6.46103 22.01 5.736C23.186 4.4 23.6 2.844 22.931 2.257Z" stroke="black" stroke-width="1.5" stroke-linecap="round" stroke-linejoin="round"/>
<path d="M19.733 7.264C18.613 6.973 19.491 3.729 19.491 3.729C19.491 3.729 18.673 7 17.559 6.7" stroke="black" stroke-width="1.5" stroke-linecap="round" stroke-linejoin="round"/>
<path d="M23.25 21.75L21.75 23.25" stroke="black" stroke-width="1.5" stroke-linecap="round" stroke-linejoin="round"/>
<path d="M14.25 15.75L15 17.25" stroke="black" stroke-width="1.5" stroke-linecap="round" stroke-linejoin="round"/>
<path d="M2.25 0.75L0.75 2.25" stroke="black" stroke-width="1.5" stroke-linecap="round" stroke-linejoin="round"/>
<path d="M9.75 3.375C9.95711 3.375 10.125 3.54289 10.125 3.75" stroke="black" stroke-width="1.5" stroke-linecap="round" stroke-linejoin="round"/>
<path d="M9.375 3.75C9.375 3.54289 9.54289 3.375 9.75 3.375" stroke="black" stroke-width="1.5" stroke-linecap="round" stroke-linejoin="round"/>
<path d="M9.75 4.125C9.54289 4.125 9.375 3.95711 9.375 3.75" stroke="black" stroke-width="1.5" stroke-linecap="round" stroke-linejoin="round"/>
<path d="M10.125 3.75C10.125 3.95711 9.95711 4.125 9.75 4.125" stroke="black" stroke-width="1.5" stroke-linecap="round" stroke-linejoin="round"/>
<path d="M21 16.875C21.2071 16.875 21.375 17.0429 21.375 17.25" stroke="black" stroke-width="1.5" stroke-linecap="round" stroke-linejoin="round"/>
<path d="M20.625 17.25C20.625 17.0429 20.7929 16.875 21 16.875" stroke="black" stroke-width="1.5" stroke-linecap="round" stroke-linejoin="round"/>
<path d="M21 17.625C20.7929 17.625 20.625 17.4571 20.625 17.25" stroke="black" stroke-width="1.5" stroke-linecap="round" stroke-linejoin="round"/>
<path d="M21.375 17.25C21.375 17.4571 21.2071 17.625 21 17.625" stroke="black" stroke-width="1.5" stroke-linecap="round" stroke-linejoin="round"/>
</svg>
