<svg width="25" height="24" viewBox="0 0 25 24" fill="none" xmlns="http://www.w3.org/2000/svg">
<path d="M24.25 12.75C17.6226 12.75 12.25 7.37742 12.25 0.75" stroke="black" stroke-width="1.5" stroke-linecap="round" stroke-linejoin="round"/>
<path d="M24.25 5.25C21.7647 5.25 19.75 3.23528 19.75 0.75" stroke="black" stroke-width="1.5" stroke-linecap="round" stroke-linejoin="round"/>
<path fill-rule="evenodd" clip-rule="evenodd" d="M11.3979 14.973C12.2766 14.0943 12.514 12.9071 11.9282 12.3213C11.3425 11.7355 10.1553 11.973 9.2766 12.8516C8.39792 13.7303 8.16048 14.9175 8.74627 15.5033C9.33205 16.0891 10.5192 15.8516 11.3979 14.973Z" stroke="black" stroke-width="1.5" stroke-linecap="round" stroke-linejoin="round"/>
<path d="M8.74701 15.5C7.18683 15.2505 5.62429 15.9329 4.74701 17.247C3.44001 19.208 5.49701 20.997 1.74701 23.247" stroke="black" stroke-width="1.5" stroke-linecap="round" stroke-linejoin="round"/>
<path fill-rule="evenodd" clip-rule="evenodd" d="M16.6479 20.9723C17.5265 20.0936 17.764 18.9064 17.1782 18.3207C16.5924 17.7349 15.4052 17.9723 14.5265 18.851C13.6479 19.7297 13.4104 20.9168 13.9962 21.5026C14.582 22.0884 15.7692 21.851 16.6479 20.9723Z" stroke="black" stroke-width="1.5" stroke-linecap="round" stroke-linejoin="round"/>
<path d="M14 21.5C12.4392 21.2511 10.8765 21.9348 10 23.25" stroke="black" stroke-width="1.5" stroke-linecap="round" stroke-linejoin="round"/>
</svg>
