<svg width="24" height="24" viewBox="0 0 24 24" fill="none" xmlns="http://www.w3.org/2000/svg">
<path fill-rule="evenodd" clip-rule="evenodd" d="M15.75 23.25C19.8921 23.25 23.25 20.8995 23.25 18C23.25 15.1005 19.8921 12.75 15.75 12.75C11.6079 12.75 8.25 15.1005 8.25 18C8.25 20.8995 11.6079 23.25 15.75 23.25Z" stroke="black" stroke-width="1.5" stroke-linecap="round" stroke-linejoin="round"/>
<path d="M19.5 17.25C19.5 18.907 17.821 20.25 15.75 20.25C13.679 20.25 12 18.907 12 17.25" stroke="black" stroke-width="1.5" stroke-linecap="round" stroke-linejoin="round"/>
<path fill-rule="evenodd" clip-rule="evenodd" d="M1.654 11.806C-0.200003 9.575 0.884997 5.622 4.073 2.976C7.261 0.329998 11.345 -1.66893e-06 13.2 2.226C15.055 4.452 13.969 8.411 10.782 11.056C7.595 13.701 3.506 14.037 1.654 11.806Z" stroke="black" stroke-width="1.5" stroke-linecap="round" stroke-linejoin="round"/>
<path d="M9.83199 4.044C10.89 5.319 10.456 7.425 8.86299 8.744C7.26999 10.063 5.11899 10.105 4.06299 8.83" stroke="black" stroke-width="1.5" stroke-linecap="round" stroke-linejoin="round"/>
</svg>
