<svg width="24" height="24" viewBox="0 0 24 24" fill="none" xmlns="http://www.w3.org/2000/svg">
<path fill-rule="evenodd" clip-rule="evenodd" d="M12 7C12 8.5 14.25 10.75 18 10.75C20.9 10.75 23.25 9.071 23.25 7C23.25 4.929 20.9 3.25 18 3.25C14.25 3.25 12 5.5 12 7Z" stroke="black" stroke-width="1.5" stroke-linecap="round" stroke-linejoin="round"/>
<path fill-rule="evenodd" clip-rule="evenodd" d="M9.75 17.5C9.75 18.4 11.1 19.75 13.35 19.75C15.09 19.75 16.5 18.743 16.5 17.5C16.5 16.257 15.09 15.25 13.35 15.25C11.1 15.25 9.75 16.6 9.75 17.5Z" stroke="black" stroke-width="1.5" stroke-linecap="round" stroke-linejoin="round"/>
<path d="M12 7C10.5 7 9.75 5.5 8.25 5.5C6.75 5.5 6 7.75 4.5 7.75C3 7.75 2.25 7 0.75 7" stroke="black" stroke-width="1.5" stroke-linecap="round" stroke-linejoin="round"/>
<path d="M9.75 17.5C8.55 17.5 7.95 16 6.75 16C5.55 16 4.95 18.25 3.75 18.25C2.55 18.25 1.95 17.5 0.75 17.5" stroke="black" stroke-width="1.5" stroke-linecap="round" stroke-linejoin="round"/>
</svg>
