<svg width="24" height="24" viewBox="0 0 24 24" fill="none" xmlns="http://www.w3.org/2000/svg">
<path d="M3.21802 15.9C3.5875 16.2242 3.97548 16.5267 4.38002 16.806" stroke="black" stroke-width="1.5" stroke-linecap="round" stroke-linejoin="round"/>
<path d="M8.35901 18.688C8.83237 18.8219 9.31364 18.9261 9.80001 19" stroke="black" stroke-width="1.5" stroke-linecap="round" stroke-linejoin="round"/>
<path d="M14.2 19C14.686 18.9261 15.167 18.8219 15.64 18.688" stroke="black" stroke-width="1.5" stroke-linecap="round" stroke-linejoin="round"/>
<path d="M19.62 16.81C20.0245 16.5307 20.4125 16.2282 20.782 15.904" stroke="black" stroke-width="1.5" stroke-linecap="round" stroke-linejoin="round"/>
<path d="M23.25 13.18L15 4.18C14.2918 5.12427 13.1803 5.68 12 5.68C10.8197 5.68 9.7082 5.12427 9 4.18L0.75 13.18" stroke="black" stroke-width="1.5" stroke-linecap="round" stroke-linejoin="round"/>
<path d="M23.25 13.18L15 4.18C14.2918 5.12427 13.1803 5.68 12 5.68C10.8197 5.68 9.7082 5.12427 9 4.18L0.75 13.18" stroke="black" stroke-width="1.5" stroke-linecap="round" stroke-linejoin="round"/>
<path d="M9 11.3C8.527 11.2 8.078 11.011 7.617 10.87" stroke="black" stroke-width="1.5" stroke-linecap="round" stroke-linejoin="round"/>
<path fill-rule="evenodd" clip-rule="evenodd" d="M15 15.43C16.6569 15.43 18 14.0869 18 12.43C18 10.7731 16.6569 9.43 15 9.43C13.3431 9.43 12 10.7731 12 12.43C12 14.0869 13.3431 15.43 15 15.43Z" stroke="black" stroke-width="1.5" stroke-linecap="round" stroke-linejoin="round"/>
</svg>
