<svg width="24" height="24" viewBox="0 0 24 24" fill="none" xmlns="http://www.w3.org/2000/svg">
<path fill-rule="evenodd" clip-rule="evenodd" d="M15.75 22.5H8.25L9 18H15L15.75 22.5V22.5Z" stroke="black" stroke-width="1.5" stroke-linecap="round" stroke-linejoin="round"/>
<path d="M6 22.5H18" stroke="black" stroke-width="1.5" stroke-linecap="round" stroke-linejoin="round"/>
<path d="M0.75 15H23.25" stroke="black" stroke-width="1.5" stroke-linecap="round" stroke-linejoin="round"/>
<path fill-rule="evenodd" clip-rule="evenodd" d="M0.75 4.5C0.75 2.84315 2.09315 1.5 3.75 1.5H20.25C21.9069 1.5 23.25 2.84315 23.25 4.5V15C23.25 16.6569 21.9069 18 20.25 18H3.75C2.09315 18 0.75 16.6569 0.75 15V4.5Z" stroke="black" stroke-width="1.5" stroke-linecap="round" stroke-linejoin="round"/>
<path fill-rule="evenodd" clip-rule="evenodd" d="M12.2 11.548C14.6066 11.5955 16.9322 10.678 18.658 9L14.658 5C13.8951 5.37291 13.0551 5.56066 12.206 5.548C11.3563 5.56098 10.5155 5.37322 9.75201 5L5.75201 9C7.47551 10.6753 9.79688 11.5926 12.2 11.548Z" stroke="black" stroke-width="1.5" stroke-linecap="round" stroke-linejoin="round"/>
</svg>
