<svg width="24" height="24" viewBox="0 0 24 24" fill="none" xmlns="http://www.w3.org/2000/svg">
<path fill-rule="evenodd" clip-rule="evenodd" d="M3 23.25C4.24264 23.25 5.25 22.2426 5.25 21C5.25 19.7574 4.24264 18.75 3 18.75C1.75736 18.75 0.75 19.7574 0.75 21C0.75 22.2426 1.75736 23.25 3 23.25Z" stroke="black" stroke-width="1.5" stroke-linecap="round" stroke-linejoin="round"/>
<path fill-rule="evenodd" clip-rule="evenodd" d="M18 23.25C19.2426 23.25 20.25 22.2426 20.25 21C20.25 19.7574 19.2426 18.75 18 18.75C16.7574 18.75 15.75 19.7574 15.75 21C15.75 22.2426 16.7574 23.25 18 23.25Z" stroke="black" stroke-width="1.5" stroke-linecap="round" stroke-linejoin="round"/>
<path d="M4.591 19.409L19.5 4.5H23.25" stroke="black" stroke-width="1.5" stroke-linecap="round" stroke-linejoin="round"/>
<path d="M18.651 5.35001C17.412 2.83945 14.9847 1.12828 12.2038 0.80504C9.42289 0.481797 6.66776 1.59057 4.88599 3.75001L12.75 11.25" stroke="black" stroke-width="1.5" stroke-linecap="round" stroke-linejoin="round"/>
<path d="M3 18.75V14.25C3 13.4216 3.67157 12.75 4.5 12.75H11.25" stroke="black" stroke-width="1.5" stroke-linecap="round" stroke-linejoin="round"/>
<path d="M5.25 18.75H10.694C11.5282 18.7514 12.3253 18.4054 12.894 17.795L19.133 11.095C19.4132 10.7584 19.5324 10.3162 19.4591 9.88436C19.3859 9.45256 19.1276 9.07434 18.752 8.849L16.5 7.5" stroke="black" stroke-width="1.5" stroke-linecap="round" stroke-linejoin="round"/>
<path d="M16.272 19.56L13.442 17.202" stroke="black" stroke-width="1.5" stroke-linecap="round" stroke-linejoin="round"/>
</svg>
