<svg width="24" height="24" viewBox="0 0 24 24" fill="none" xmlns="http://www.w3.org/2000/svg">
<path d="M4.5 8.20001V16.772C4.50077 17.0893 4.70091 17.372 5 17.478C7.05727 18.2124 8.37996 20.2199 8.243 22.4C8.22946 22.607 8.30216 22.8104 8.44383 22.9619C8.58551 23.1134 8.78356 23.1996 8.991 23.2H15.008C15.2155 23.1999 15.4138 23.1138 15.5555 22.9622C15.6972 22.8106 15.7698 22.6071 15.756 22.4C15.6155 20.2196 16.9403 18.2112 19 17.482C19.2994 17.3758 19.4997 17.0927 19.5 16.775V8.20001" stroke="black" stroke-width="1.5" stroke-linecap="round" stroke-linejoin="round"/>
<path d="M4.5 9.7H2.25C1.42157 9.7 0.75 9.02843 0.75 8.2V3.994C0.750052 3.36812 1.13871 2.80806 1.725 2.589C3.4 1.963 6.658 0.75 6.749 0.75V0.75C6.757 1.672 7.549 5.95 11.998 5.95C16.447 5.95 17.239 1.712 17.247 0.75V0.75C17.338 0.75 20.595 1.963 22.271 2.589C22.8573 2.80806 23.2459 3.36812 23.246 3.994V8.2C23.246 9.02843 22.5744 9.7 21.746 9.7H19.5" stroke="black" stroke-width="1.5" stroke-linecap="round" stroke-linejoin="round"/>
<path fill-rule="evenodd" clip-rule="evenodd" d="M15.93 10.293C15.5714 9.9167 15.0743 9.70374 14.5545 9.70374C14.0347 9.70374 13.5376 9.9167 13.179 10.293L12 11.512L10.821 10.293C10.4624 9.9167 9.96531 9.70374 9.4455 9.70374C8.9257 9.70374 8.42859 9.9167 8.07 10.293C7.31 11.0891 7.31 12.3419 8.07 13.138L11.581 16.275C11.6903 16.3896 11.8417 16.4544 12 16.4544C12.1583 16.4544 12.3097 16.3896 12.419 16.275L15.93 13.138C16.69 12.3419 16.69 11.0891 15.93 10.293Z" stroke="black" stroke-width="1.5" stroke-linecap="round" stroke-linejoin="round"/>
</svg>
