<svg width="24" height="24" viewBox="0 0 24 24" fill="none" xmlns="http://www.w3.org/2000/svg">
<path d="M7.30798 5.246C10.2282 9.86222 14.1378 13.7718 18.754 16.692" stroke="black" stroke-width="1.5" stroke-linecap="round" stroke-linejoin="round"/>
<path d="M14.374 13.441L16.657 11.158C17.4426 10.3709 18.453 9.84685 19.549 9.658C20.4523 9.50377 21.2854 9.07254 21.933 8.424C23.5727 6.6494 23.5183 3.89663 21.8098 2.18814C20.1013 0.479653 17.3486 0.425296 15.574 2.065C14.9251 2.71306 14.4938 3.54691 14.34 4.451C14.15 5.54659 13.6261 6.55669 12.84 7.343L10.559 9.626" stroke="black" stroke-width="1.5" stroke-linecap="round" stroke-linejoin="round"/>
<path fill-rule="evenodd" clip-rule="evenodd" d="M7.94398 19.653C9.93055 19.653 11.541 18.0426 11.541 16.056C11.541 14.0694 9.93055 12.459 7.94398 12.459C5.95742 12.459 4.34698 14.0694 4.34698 16.056C4.34698 18.0426 5.95742 19.653 7.94398 19.653Z" stroke="black" stroke-width="1.5" stroke-linecap="round" stroke-linejoin="round"/>
<path d="M14.8 13.8C15.8377 16.9667 14.5667 20.4316 11.7276 22.1763C8.8885 23.921 5.22312 23.4895 2.86679 21.1332C0.510467 18.7769 0.0789618 15.1115 1.82366 12.2724C3.56835 9.43326 7.03332 8.16234 10.2 9.20001" stroke="black" stroke-width="1.5" stroke-linecap="round" stroke-linejoin="round"/>
</svg>
