<svg width="24" height="24" viewBox="0 0 24 24" fill="none" xmlns="http://www.w3.org/2000/svg">
<path fill-rule="evenodd" clip-rule="evenodd" d="M23.25 11.75C23.25 17.9632 18.2132 23 12 23C5.7868 23 0.75 17.9632 0.75 11.75C0.75 4.723 6.921 1.25 8.25 1.25C9.07843 1.25 9.75 1.92157 9.75 2.75C9.75 4.785 6 4.239 6 8C6 10.49 8.265 12.5 12 12.5C15.735 12.5 18 10.49 18 8C18 4.406 14.25 4.479 14.25 2.75C14.25 1.92157 14.9216 1.25 15.75 1.25C17.3 1.25 23.25 4.908 23.25 11.75Z" stroke="black" stroke-width="1.5" stroke-linecap="round" stroke-linejoin="round"/>
<path fill-rule="evenodd" clip-rule="evenodd" d="M14.25 14.75C13.4216 14.75 12.75 15.4216 12.75 16.25C12.757 16.2996 12.767 16.3487 12.78 16.397C12.2785 16.201 11.7215 16.201 11.22 16.397C11.233 16.3487 11.243 16.2996 11.25 16.25C11.25 15.4216 10.5784 14.75 9.75 14.75C8.92157 14.75 8.25 15.4216 8.25 16.25C8.25 17.0784 8.92157 17.75 9.75 17.75C9.79948 17.7425 9.84854 17.7325 9.897 17.72C9.80162 17.9691 9.75183 18.2333 9.75 18.5C9.75 19.7426 10.7574 20.75 12 20.75C13.2426 20.75 14.25 19.7426 14.25 18.5C14.2482 18.2333 14.1984 17.9691 14.103 17.72C14.1515 17.7325 14.2005 17.7425 14.25 17.75C15.0784 17.75 15.75 17.0784 15.75 16.25C15.75 15.4216 15.0784 14.75 14.25 14.75V14.75Z" stroke="black" stroke-width="1.5" stroke-linecap="round" stroke-linejoin="round"/>
</svg>
