<svg width="25" height="24" viewBox="0 0 25 24" fill="none" xmlns="http://www.w3.org/2000/svg">
<path d="M1.71997 11.25V14.25" stroke="black" stroke-width="1.5" stroke-linecap="round" stroke-linejoin="round"/>
<path d="M23.3199 11.25V14.25" stroke="black" stroke-width="1.5" stroke-linecap="round" stroke-linejoin="round"/>
<path fill-rule="evenodd" clip-rule="evenodd" d="M23.32 21.75C23.32 22.5784 22.6753 23.25 21.88 23.25H3.15997C2.36468 23.25 1.71997 22.5784 1.71997 21.75V14.25H23.32V21.75Z" stroke="black" stroke-width="1.5" stroke-linecap="round" stroke-linejoin="round"/>
<path d="M6.03992 14.25V23.25" stroke="black" stroke-width="1.5" stroke-linecap="round" stroke-linejoin="round"/>
<path d="M10.36 14.25V23.25" stroke="black" stroke-width="1.5" stroke-linecap="round" stroke-linejoin="round"/>
<path d="M14.68 14.25V23.25" stroke="black" stroke-width="1.5" stroke-linecap="round" stroke-linejoin="round"/>
<path d="M19 14.25V23.25" stroke="black" stroke-width="1.5" stroke-linecap="round" stroke-linejoin="round"/>
<path d="M16.12 0.75V5.25" stroke="black" stroke-width="1.5" stroke-linecap="round" stroke-linejoin="round"/>
<path d="M11.7999 2.25V5.451" stroke="black" stroke-width="1.5" stroke-linecap="round" stroke-linejoin="round"/>
<path d="M20.4399 2.25V5.451" stroke="black" stroke-width="1.5" stroke-linecap="round" stroke-linejoin="round"/>
<path d="M10.36 2.25H21.88" stroke="black" stroke-width="1.5" stroke-linecap="round" stroke-linejoin="round"/>
<path fill-rule="evenodd" clip-rule="evenodd" d="M11.08 8.25C11.8753 8.25 12.52 7.57843 12.52 6.75C12.52 5.92157 11.8753 5.25 11.08 5.25C10.2847 5.25 9.64001 5.92157 9.64001 6.75C9.64001 7.57843 10.2847 8.25 11.08 8.25Z" stroke="black" stroke-width="1.5" stroke-linecap="round" stroke-linejoin="round"/>
<path fill-rule="evenodd" clip-rule="evenodd" d="M16.12 8.25C16.9153 8.25 17.56 7.57843 17.56 6.75C17.56 5.92157 16.9153 5.25 16.12 5.25C15.3247 5.25 14.68 5.92157 14.68 6.75C14.68 7.57843 15.3247 8.25 16.12 8.25Z" stroke="black" stroke-width="1.5" stroke-linecap="round" stroke-linejoin="round"/>
<path fill-rule="evenodd" clip-rule="evenodd" d="M21.16 8.25C21.9553 8.25 22.6 7.57843 22.6 6.75C22.6 5.92157 21.9553 5.25 21.16 5.25C20.3647 5.25 19.72 5.92157 19.72 6.75C19.72 7.57843 20.3647 8.25 21.16 8.25Z" stroke="black" stroke-width="1.5" stroke-linecap="round" stroke-linejoin="round"/>
</svg>
