<svg width="26" height="26" viewBox="0 0 26 26" fill="none" xmlns="http://www.w3.org/2000/svg">
<path fill-rule="evenodd" clip-rule="evenodd" d="M17.4161 2.188L23.8161 8.588C24.0965 8.86805 24.2541 9.24814 24.2541 9.6445C24.2541 10.0409 24.0965 10.4209 23.8161 10.701L15.1481 19.37L6.63806 10.86L15.3001 2.188C15.5802 1.9066 15.961 1.74841 16.3581 1.74841C16.7552 1.74841 17.1359 1.9066 17.4161 2.188Z" stroke="black" stroke-width="1.5" stroke-linecap="round" stroke-linejoin="round"/>
<path fill-rule="evenodd" clip-rule="evenodd" d="M4.20001 10.856C4.87155 10.1853 5.95948 10.1853 6.63101 10.856L15.141 19.366C15.8131 20.0367 15.8143 21.1254 15.1435 21.7975C14.4728 22.4696 13.3841 22.4707 12.712 21.8L4.20001 13.288C3.87734 12.9656 3.69604 12.5281 3.69604 12.072C3.69604 11.6158 3.87734 11.1784 4.20001 10.856Z" stroke="black" stroke-width="1.5" stroke-linecap="round" stroke-linejoin="round"/>
<path d="M11.4971 10.856L9.06506 8.42499" stroke="black" stroke-width="1.5" stroke-linecap="round" stroke-linejoin="round"/>
<path d="M13.9281 8.42499L11.4971 5.99399" stroke="black" stroke-width="1.5" stroke-linecap="round" stroke-linejoin="round"/>
<path d="M4.40506 13.49L3.99306 14.315C3.58837 15.1248 3.44844 16.0413 3.59306 16.935C3.78398 18.2743 3.33351 19.6253 2.37706 20.582C1.82532 21.1231 1.60657 21.9187 1.80414 22.6658C2.00172 23.4129 2.5852 23.9963 3.33228 24.1939C4.07936 24.3915 4.87499 24.1727 5.41606 23.621C6.37276 22.6645 7.72379 22.2141 9.06306 22.405C9.95673 22.5496 10.8732 22.4097 11.6831 22.005L12.5081 21.593" stroke="black" stroke-width="1.5" stroke-linecap="round" stroke-linejoin="round"/>
</svg>
