<svg width="24" height="24" viewBox="0 0 24 24" fill="none" xmlns="http://www.w3.org/2000/svg">
<path d="M0.75 14.251V23.251" stroke="black" stroke-width="1.5" stroke-linecap="round" stroke-linejoin="round"/>
<path d="M0.75 21.751H15.75C15.75 20.0942 14.4069 18.751 12.75 18.751H9C9 17.0942 7.65685 15.751 6 15.751H0.75" stroke="black" stroke-width="1.5" stroke-linecap="round" stroke-linejoin="round"/>
<path d="M6 18.751H9" stroke="black" stroke-width="1.5" stroke-linecap="round" stroke-linejoin="round"/>
<path fill-rule="evenodd" clip-rule="evenodd" d="M23.25 6C23.25 5.58579 22.9142 5.25 22.5 5.25H18.75V1.5C18.75 1.08579 18.4142 0.75 18 0.75H15C14.5858 0.75 14.25 1.08579 14.25 1.5V5.25H10.5C10.0858 5.25 9.75 5.58579 9.75 6V9C9.75 9.41421 10.0858 9.75 10.5 9.75H14.25V13.5C14.25 13.9142 14.5858 14.25 15 14.25H18C18.4142 14.25 18.75 13.9142 18.75 13.5V9.75H22.5C22.9142 9.75 23.25 9.41421 23.25 9V6Z" stroke="black" stroke-width="1.5" stroke-linecap="round" stroke-linejoin="round"/>
</svg>
