<svg width="24" height="24" viewBox="0 0 24 24" fill="none" xmlns="http://www.w3.org/2000/svg">
<path d="M4.60003 23.25V16.985C1.77228 14.3653 0.838544 10.2806 2.24725 6.69254C3.65596 3.10447 7.11932 0.746075 10.974 0.750005C18.113 0.750005 19.654 6.62801 22.199 13.23C22.2875 13.4607 22.2569 13.7202 22.1171 13.924C21.9772 14.1277 21.7461 14.2496 21.499 14.25H19.6V17.25C19.6 18.9069 18.2569 20.25 16.6 20.25H15.1V23.25" stroke="black" stroke-width="1.5" stroke-linecap="round" stroke-linejoin="round"/>
<path fill-rule="evenodd" clip-rule="evenodd" d="M16.6 9C16.6 8.58579 16.2643 8.25 15.85 8.25H13.6V6C13.6 5.58579 13.2643 5.25 12.85 5.25H9.85004C9.43582 5.25 9.10004 5.58579 9.10004 6V8.25H6.84904C6.43521 8.25055 6.10004 8.58618 6.10004 9V12C6.10004 12.4142 6.43582 12.75 6.85004 12.75H9.10004V15C9.10004 15.4142 9.43582 15.75 9.85004 15.75H12.85C13.2643 15.75 13.6 15.4142 13.6 15V12.75H15.85C16.2643 12.75 16.6 12.4142 16.6 12V9Z" stroke="black" stroke-width="1.5" stroke-linecap="round" stroke-linejoin="round"/>
</svg>
