<svg width="24" height="25" viewBox="0 0 24 25" fill="none" xmlns="http://www.w3.org/2000/svg">
<path fill-rule="evenodd" clip-rule="evenodd" d="M23.25 13.5C23.25 7.2868 18.2132 2.25 12 2.25C5.7868 2.25 0.75 7.2868 0.75 13.5L1.561 12.824C2.53262 12.0144 3.78918 11.6298 5.04749 11.757C6.30581 11.8842 7.46001 12.5123 8.25 13.5C9.24413 12.5046 10.5932 11.9453 12 11.9453C13.4068 11.9453 14.7559 12.5046 15.75 13.5C16.54 12.5123 17.6942 11.8842 18.9525 11.757C20.2108 11.6298 21.4674 12.0144 22.439 12.824L23.25 13.5Z" stroke="black" stroke-width="1.5" stroke-linecap="round" stroke-linejoin="round"/>
<path d="M12 11.947V21.747C12 22.5754 11.3284 23.247 10.5 23.247C9.67157 23.247 9 22.5754 9 21.747" stroke="black" stroke-width="1.5" stroke-linecap="round" stroke-linejoin="round"/>
<path d="M12 2.25V0.75" stroke="black" stroke-width="1.5" stroke-linecap="round" stroke-linejoin="round"/>
<path fill-rule="evenodd" clip-rule="evenodd" d="M22.68 16.6C22.3214 16.2237 21.8243 16.0107 21.3045 16.0107C20.7847 16.0107 20.2876 16.2237 19.929 16.6L18.75 17.814L17.571 16.6C17.2124 16.2237 16.7153 16.0107 16.1955 16.0107C15.6757 16.0107 15.1786 16.2237 14.82 16.6C14.06 17.3961 14.06 18.6489 14.82 19.445L18.331 23.076C18.4403 23.1906 18.5917 23.2554 18.75 23.2554C18.9083 23.2554 19.0597 23.1906 19.169 23.076L22.68 19.44C23.4368 18.6446 23.4368 17.3954 22.68 16.6Z" stroke="black" stroke-width="1.5" stroke-linecap="round" stroke-linejoin="round"/>
</svg>
