<svg width="24" height="24" viewBox="0 0 24 24" fill="none" xmlns="http://www.w3.org/2000/svg">
<path fill-rule="evenodd" clip-rule="evenodd" d="M18.75 6C18.75 5.58579 18.4142 5.25 18 5.25H14.25V1.5C14.25 1.08579 13.9142 0.75 13.5 0.75H10.5C10.0858 0.75 9.75 1.08579 9.75 1.5V5.25H6C5.58579 5.25 5.25 5.58579 5.25 6V9C5.25 9.41421 5.58579 9.75 6 9.75H9.75V13.5C9.75 13.9142 10.0858 14.25 10.5 14.25H13.5C13.9142 14.25 14.25 13.9142 14.25 13.5V9.75H18C18.4142 9.75 18.75 9.41421 18.75 9V6Z" stroke="black" stroke-width="1.5" stroke-linecap="round" stroke-linejoin="round"/>
<path d="M3.75 23.25L1.736 20.869C1.09773 20.0711 0.750003 19.0798 0.75 18.058V12.887C0.75 12.0586 1.42157 11.387 2.25 11.387V11.387C3.07843 11.387 3.75 12.0586 3.75 12.887V16.637" stroke="black" stroke-width="1.5" stroke-linecap="round" stroke-linejoin="round"/>
<path d="M8.25005 23.25V20.25C8.25045 19.3602 7.98701 18.4902 7.49305 17.75L6.35105 16.04C6.15331 15.7125 5.83014 15.4801 5.45669 15.397C5.08323 15.3139 4.69204 15.3873 4.37405 15.6V15.6C3.78928 15.9918 3.58635 16.7569 3.90005 17.387L5.25205 19.637" stroke="black" stroke-width="1.5" stroke-linecap="round" stroke-linejoin="round"/>
<path d="M20.25 23.25L22.264 20.869C22.9023 20.0711 23.25 19.0798 23.25 18.058V12.887C23.25 12.0586 22.5784 11.387 21.75 11.387V11.387C20.9216 11.387 20.25 12.0586 20.25 12.887V16.637" stroke="black" stroke-width="1.5" stroke-linecap="round" stroke-linejoin="round"/>
<path d="M15.75 23.25V20.25C15.7496 19.3602 16.013 18.4902 16.507 17.75L17.649 16.038C17.8461 15.7098 18.1689 15.4766 18.5424 15.3928C18.916 15.3089 19.3075 15.3816 19.626 15.594V15.594C20.2136 15.9855 20.4177 16.7534 20.102 17.385L18.75 19.635" stroke="black" stroke-width="1.5" stroke-linecap="round" stroke-linejoin="round"/>
</svg>
