<svg width="24" height="24" viewBox="0 0 24 24" fill="none" xmlns="http://www.w3.org/2000/svg">
<path fill-rule="evenodd" clip-rule="evenodd" d="M23.25 12C23.25 11.5858 22.9142 11.25 22.5 11.25H20.25V9C20.25 8.58579 19.9142 8.25 19.5 8.25H18C17.5858 8.25 17.25 8.58579 17.25 9V11.25H15C14.5858 11.25 14.25 11.5858 14.25 12V13.5C14.25 13.9142 14.5858 14.25 15 14.25H17.25V16.5C17.25 16.9142 17.5858 17.25 18 17.25H19.5C19.9142 17.25 20.25 16.9142 20.25 16.5V14.25H22.5C22.9142 14.25 23.25 13.9142 23.25 13.5V12Z" stroke="black" stroke-width="1.5" stroke-linecap="round" stroke-linejoin="round"/>
<path d="M23.25 21.75L0.75 15" stroke="black" stroke-width="1.5" stroke-linecap="round" stroke-linejoin="round"/>
<path d="M12 18.375L7.93298 23.25H15.433" stroke="black" stroke-width="1.5" stroke-linecap="round" stroke-linejoin="round"/>
<path d="M1.5 9C1.5 10.2426 2.50736 11.25 3.75 11.25C4.99264 11.25 6 10.2426 6 9C6 7.75736 4.99264 6.75 3.75 6.75C2.50736 6.75 1.5 5.74264 1.5 4.5C1.5 3.25736 2.50736 2.25 3.75 2.25C4.99264 2.25 6 3.25736 6 4.5" stroke="black" stroke-width="1.5" stroke-linecap="round" stroke-linejoin="round"/>
<path d="M3.75 0.75V2.25" stroke="black" stroke-width="1.5" stroke-linecap="round" stroke-linejoin="round"/>
<path d="M3.75 11.25V12.75" stroke="black" stroke-width="1.5" stroke-linecap="round" stroke-linejoin="round"/>
</svg>
