<svg width="24" height="24" viewBox="0 0 24 24" fill="none" xmlns="http://www.w3.org/2000/svg">
<path fill-rule="evenodd" clip-rule="evenodd" d="M16.5 21.75C16.5 22.5784 15.8284 23.25 15 23.25H4.5C3.67157 23.25 3 22.5784 3 21.75V8.25C3 7.42157 3.67157 6.75 4.5 6.75H12.129C12.5265 6.75008 12.9078 6.90798 13.189 7.189L16.061 10.061C16.342 10.3422 16.4999 10.7235 16.5 11.121V21.75Z" stroke="black" stroke-width="1.5" stroke-linecap="round" stroke-linejoin="round"/>
<path d="M7.5 6.75V2.25C7.5 1.42157 8.17157 0.75 9 0.75H16.629C17.0265 0.750085 17.4078 0.907982 17.689 1.189L20.561 4.061C20.842 4.3422 20.9999 4.72345 21 5.121V15.75C21 16.5784 20.3284 17.25 19.5 17.25H16.5" stroke="black" stroke-width="1.5" stroke-linecap="round" stroke-linejoin="round"/>
</svg>
