<svg width="24" height="24" viewBox="0 0 24 24" fill="none" xmlns="http://www.w3.org/2000/svg">
<path fill-rule="evenodd" clip-rule="evenodd" d="M23.2 2.05403C23.2135 1.84703 23.1408 1.64364 22.9991 1.49212C22.8575 1.34059 22.6594 1.25441 22.452 1.25403H1.49998C1.29244 1.25412 1.09421 1.34021 0.952471 1.4918C0.810729 1.6434 0.738139 1.84695 0.751975 2.05403C1.11341 7.08679 4.7804 11.2639 9.72398 12.274V22.149C9.72408 22.44 9.89243 22.7046 10.1559 22.828C10.4194 22.9513 10.7304 22.9112 10.954 22.725L13.954 20.225C14.1252 20.0828 14.2242 19.8716 14.224 19.649V12.274C19.1693 11.2657 22.8384 7.08813 23.2 2.05403Z" stroke="black" stroke-width="1.5" stroke-linecap="round" stroke-linejoin="round"/>
</svg>
