<svg width="24" height="24" viewBox="0 0 24 24" fill="none" xmlns="http://www.w3.org/2000/svg">
<path d="M9.36403 18.5L8.43203 19.432C6.67466 21.1894 3.8254 21.1894 2.06803 19.432C0.310657 17.6747 0.310657 14.8254 2.06803 13.068L6.84103 8.29405C8.50064 6.63068 11.1607 6.5242 12.9479 8.04959C14.7352 9.57498 15.048 12.2187 13.666 14.119" stroke="black" stroke-width="1.5" stroke-linecap="round" stroke-linejoin="round"/>
<path d="M14.818 5.56705L15.568 4.81705C17.3254 3.05968 20.1747 3.05968 21.932 4.81705C23.6894 6.57442 23.6894 9.42368 21.932 11.1811L17.159 15.9541C15.4991 17.6167 12.8394 17.7225 11.0526 16.197C9.26578 14.6716 8.95324 12.0282 10.335 10.1281" stroke="black" stroke-width="1.5" stroke-linecap="round" stroke-linejoin="round"/>
</svg>
