<svg width="24" height="24" viewBox="0 0 24 24" fill="none" xmlns="http://www.w3.org/2000/svg">
<path d="M1.52513 13.5998C1.2294 13.3098 0.754544 13.3144 0.464522 13.6101C0.1745 13.9059 0.179132 14.3807 0.474868 14.6707L1.52513 13.5998ZM8 21L7.47487 21.5355C7.62441 21.6821 7.82846 21.7596 8.03764 21.7491C8.24682 21.7385 8.44208 21.641 8.57617 21.4801L8 21ZM23.5762 3.48014C23.8413 3.16193 23.7983 2.68901 23.4801 2.42383C23.1619 2.15866 22.689 2.20165 22.4238 2.51986L23.5762 3.48014ZM0.474868 14.6707L7.47487 21.5355L8.52513 20.4645L1.52513 13.5998L0.474868 14.6707ZM8.57617 21.4801L23.5762 3.48014L22.4238 2.51986L7.42383 20.5199L8.57617 21.4801Z" fill="black"/>
</svg>
