<svg width="24" height="24" viewBox="0 0 24 24" fill="none" xmlns="http://www.w3.org/2000/svg">
<path fill-rule="evenodd" clip-rule="evenodd" d="M6.75 17.25C10.0637 17.25 12.75 15.9069 12.75 14.25C12.75 12.5931 10.0637 11.25 6.75 11.25C3.43629 11.25 0.75 12.5931 0.75 14.25C0.75 15.9069 3.43629 17.25 6.75 17.25Z" stroke="black" stroke-width="1.5" stroke-linecap="round" stroke-linejoin="round"/>
<path d="M0.75 14.25V20.25C0.75 21.907 3.436 23.25 6.75 23.25C10.064 23.25 12.75 21.907 12.75 20.25V14.25" stroke="black" stroke-width="1.5" stroke-linecap="round" stroke-linejoin="round"/>
<path d="M12.75 17.25C12.75 18.907 10.064 20.25 6.75 20.25C3.436 20.25 0.75 18.907 0.75 17.25" stroke="black" stroke-width="1.5" stroke-linecap="round" stroke-linejoin="round"/>
<path d="M15.75 15.75H21.75C22.5784 15.75 23.25 15.0784 23.25 14.25V2.25C23.25 1.42157 22.5784 0.75 21.75 0.75H2.25C1.42157 0.75 0.75 1.42157 0.75 2.25V9.757" stroke="black" stroke-width="1.5" stroke-linecap="round" stroke-linejoin="round"/>
<path d="M9 8.25002C9.00015 6.86803 9.94437 5.66495 11.2867 5.33637C12.6291 5.0078 14.0223 5.63876 14.6607 6.86444C15.2991 8.09013 15.0176 9.59337 13.979 10.505" stroke="black" stroke-width="1.5" stroke-linecap="round" stroke-linejoin="round"/>
<path d="M4.5 4.125C4.70711 4.125 4.875 4.29289 4.875 4.5C4.875 4.70711 4.70711 4.875 4.5 4.875C4.29289 4.875 4.125 4.70711 4.125 4.5C4.125 4.29289 4.29289 4.125 4.5 4.125" stroke="black" stroke-width="1.5" stroke-linecap="round" stroke-linejoin="round"/>
<path d="M19.5 11.625C19.7071 11.625 19.875 11.7929 19.875 12C19.875 12.2071 19.7071 12.375 19.5 12.375C19.2929 12.375 19.125 12.2071 19.125 12C19.125 11.7929 19.2929 11.625 19.5 11.625" stroke="black" stroke-width="1.5" stroke-linecap="round" stroke-linejoin="round"/>
</svg>
