<svg width="24" height="24" viewBox="0 0 24 24" fill="none" xmlns="http://www.w3.org/2000/svg">
<path d="M0.75 14.25V23.25" stroke="black" stroke-width="1.5" stroke-linecap="round" stroke-linejoin="round"/>
<path d="M0.75 21.75H17.25C17.25 20.0931 15.9069 18.75 14.25 18.75H10.5C10.5 17.0931 9.15685 15.75 7.5 15.75H0.75" stroke="black" stroke-width="1.5" stroke-linecap="round" stroke-linejoin="round"/>
<path d="M6.75 18.75H10.5" stroke="black" stroke-width="1.5" stroke-linecap="round" stroke-linejoin="round"/>
<path d="M18.75 3.75H16.717C16.0744 3.75045 15.5223 4.20639 15.4003 4.83734C15.2784 5.46828 15.6208 6.09712 16.217 6.337L18.281 7.163C18.8772 7.40288 19.2196 8.03172 19.0977 8.66266C18.9757 9.29361 18.4236 9.74955 17.781 9.75H15.75" stroke="black" stroke-width="1.5" stroke-linecap="round" stroke-linejoin="round"/>
<path d="M17.25 3.75V3" stroke="black" stroke-width="1.5" stroke-linecap="round" stroke-linejoin="round"/>
<path d="M17.25 10.5V9.75" stroke="black" stroke-width="1.5" stroke-linecap="round" stroke-linejoin="round"/>
<path fill-rule="evenodd" clip-rule="evenodd" d="M17.25 12.75C20.5637 12.75 23.25 10.0637 23.25 6.75C23.25 3.43629 20.5637 0.75 17.25 0.75C13.9363 0.75 11.25 3.43629 11.25 6.75C11.25 10.0637 13.9363 12.75 17.25 12.75Z" stroke="black" stroke-width="1.5" stroke-linecap="round" stroke-linejoin="round"/>
</svg>
