<svg width="24" height="24" viewBox="0 0 24 24" fill="none" xmlns="http://www.w3.org/2000/svg">
<path d="M0.75 14.25V23.25" stroke="black" stroke-width="1.5" stroke-linecap="round" stroke-linejoin="round"/>
<path d="M0.75 21.75H17.25C17.25 20.0931 15.9069 18.75 14.25 18.75H10.5C10.5 17.0931 9.15685 15.75 7.5 15.75H0.75" stroke="black" stroke-width="1.5" stroke-linecap="round" stroke-linejoin="round"/>
<path d="M6.75 18.75H10.5" stroke="black" stroke-width="1.5" stroke-linecap="round" stroke-linejoin="round"/>
<path fill-rule="evenodd" clip-rule="evenodd" d="M18.75 9.75C21.2353 9.75 23.25 7.73528 23.25 5.25C23.25 2.76472 21.2353 0.75 18.75 0.75C16.2647 0.75 14.25 2.76472 14.25 5.25C14.25 7.73528 16.2647 9.75 18.75 9.75Z" stroke="black" stroke-width="1.5" stroke-linecap="round" stroke-linejoin="round"/>
<path d="M18.75 12.75C18.7501 14.0846 17.8686 15.2588 16.587 15.6312C15.3054 16.0035 13.9319 15.4845 13.2169 14.3576C12.5019 13.2307 12.6172 11.7669 13.5 10.766" stroke="black" stroke-width="1.5" stroke-linecap="round" stroke-linejoin="round"/>
</svg>
