<svg width="24" height="24" viewBox="0 0 24 24" fill="none" xmlns="http://www.w3.org/2000/svg">
<path d="M0.75 14.25V23.25" stroke="black" stroke-width="1.5" stroke-linecap="round" stroke-linejoin="round"/>
<path d="M0.75 21.75H17.25C17.25 20.0931 15.9069 18.75 14.25 18.75H10.5C10.5 17.0931 9.15685 15.75 7.5 15.75H0.75" stroke="black" stroke-width="1.5" stroke-linecap="round" stroke-linejoin="round"/>
<path d="M6.75 18.75H10.5" stroke="black" stroke-width="1.5" stroke-linecap="round" stroke-linejoin="round"/>
<path fill-rule="evenodd" clip-rule="evenodd" d="M17.25 6.75C20.5637 6.75 23.25 5.40685 23.25 3.75C23.25 2.09315 20.5637 0.75 17.25 0.75C13.9363 0.75 11.25 2.09315 11.25 3.75C11.25 5.40685 13.9363 6.75 17.25 6.75Z" stroke="black" stroke-width="1.5" stroke-linecap="round" stroke-linejoin="round"/>
<path d="M11.25 3.75V11.25C11.25 12.907 13.936 14.25 17.25 14.25C20.564 14.25 23.25 12.907 23.25 11.25V3.75" stroke="black" stroke-width="1.5" stroke-linecap="round" stroke-linejoin="round"/>
<path d="M23.25 7.5C23.25 9.157 20.564 10.5 17.25 10.5C13.936 10.5 11.25 9.157 11.25 7.5" stroke="black" stroke-width="1.5" stroke-linecap="round" stroke-linejoin="round"/>
</svg>
