<svg width="24" height="24" viewBox="0 0 24 24" fill="none" xmlns="http://www.w3.org/2000/svg">
<path d="M15.75 18V18.75C15.75 19.9926 14.7427 21 13.5 21H3.75001C2.61351 21.0003 1.5744 20.3584 1.06601 19.342" stroke="black" stroke-width="1.5" stroke-linecap="round" stroke-linejoin="round"/>
<path d="M3.75 15H5.25C6.90685 15 8.25 13.6569 8.25 12H10.5C11.7426 12 12.75 10.9926 12.75 9.75C12.75 8.50736 11.7426 7.5 10.5 7.5H3.75C2.09315 7.5 0.75 8.84315 0.75 10.5" stroke="black" stroke-width="1.5" stroke-linecap="round" stroke-linejoin="round"/>
<path d="M5.25 7.5V4.5C5.25 3.67157 5.92157 3 6.75 3H21.75C22.5784 3 23.25 3.67157 23.25 4.5V13.5C23.25 14.3284 22.5784 15 21.75 15H9.75" stroke="black" stroke-width="1.5" stroke-linecap="round" stroke-linejoin="round"/>
<path d="M18.75 15C18.75 16.6569 17.4069 18 15.75 18H9.75" stroke="black" stroke-width="1.5" stroke-linecap="round" stroke-linejoin="round"/>
<path d="M15.75 7.5H23.25" stroke="black" stroke-width="1.5" stroke-linecap="round" stroke-linejoin="round"/>
<path d="M17.25 10.5H20.25" stroke="black" stroke-width="1.5" stroke-linecap="round" stroke-linejoin="round"/>
</svg>
