<svg width="24" height="24" viewBox="0 0 24 24" fill="none" xmlns="http://www.w3.org/2000/svg">
<path fill-rule="evenodd" clip-rule="evenodd" d="M2.26304 21.75C1.82801 21.7539 1.41272 21.5687 1.12489 21.2425C0.837049 20.9163 0.705021 20.4812 0.763044 20.05C1.66258 14.5454 6.41846 10.5037 11.996 10.5037C17.5736 10.5037 22.3295 14.5454 23.229 20.05C23.2871 20.4812 23.155 20.9163 22.8672 21.2425C22.5794 21.5687 22.1641 21.7539 21.729 21.75H2.26304Z" stroke="black" stroke-width="1.5" stroke-linecap="round" stroke-linejoin="round"/>
<path d="M18.7 8.2C14.4864 6.07404 9.51375 6.07404 5.30005 8.2" stroke="black" stroke-width="1.5" stroke-linecap="round" stroke-linejoin="round"/>
<path fill-rule="evenodd" clip-rule="evenodd" d="M9.75 6.75C10.9926 6.75 12 5.74264 12 4.5C12 3.25736 10.9926 2.25 9.75 2.25C8.50736 2.25 7.5 3.25736 7.5 4.5C7.5 5.74264 8.50736 6.75 9.75 6.75Z" stroke="black" stroke-width="1.5" stroke-linecap="round" stroke-linejoin="round"/>
<path fill-rule="evenodd" clip-rule="evenodd" d="M14.25 6.75C15.4926 6.75 16.5 5.74264 16.5 4.5C16.5 3.25736 15.4926 2.25 14.25 2.25C13.0074 2.25 12 3.25736 12 4.5C12 5.74264 13.0074 6.75 14.25 6.75Z" stroke="black" stroke-width="1.5" stroke-linecap="round" stroke-linejoin="round"/>
</svg>
