<svg width="24" height="24" viewBox="0 0 24 24" fill="none" xmlns="http://www.w3.org/2000/svg">
<path d="M23.25 13.5V2.25C23.25 1.42157 22.5784 0.75 21.75 0.75H5.25C4.42157 0.75 3.75 1.42157 3.75 2.25V6" stroke="black" stroke-width="1.5" stroke-linecap="round" stroke-linejoin="round"/>
<path d="M3.75 5.25H23.25" stroke="black" stroke-width="1.5" stroke-linecap="round" stroke-linejoin="round"/>
<path fill-rule="evenodd" clip-rule="evenodd" d="M0.75 10.5C0.75 9.67157 1.42157 9 2.25 9H18.75C19.5784 9 20.25 9.67157 20.25 10.5V21.75C20.25 22.5784 19.5784 23.25 18.75 23.25H2.25C1.42157 23.25 0.75 22.5784 0.75 21.75V10.5Z" stroke="black" stroke-width="1.5" stroke-linecap="round" stroke-linejoin="round"/>
<path d="M0.75 13.5H20.25" stroke="black" stroke-width="1.5" stroke-linecap="round" stroke-linejoin="round"/>
<path d="M3.75 18H6" stroke="black" stroke-width="1.5" stroke-linecap="round" stroke-linejoin="round"/>
<path fill-rule="evenodd" clip-rule="evenodd" d="M13.875 17.25C13.3908 16.6044 12.5477 16.341 11.7821 16.5962C11.0164 16.8514 10.5 17.5679 10.5 18.375C10.5 19.1821 11.0164 19.8986 11.7821 20.1538C12.5477 20.409 13.3908 20.1456 13.875 19.5C14.3592 20.1456 15.2023 20.409 15.9679 20.1538C16.7336 19.8986 17.25 19.1821 17.25 18.375C17.25 17.5679 16.7336 16.8514 15.9679 16.5962C15.2023 16.341 14.3592 16.6044 13.875 17.25V17.25Z" stroke="black" stroke-width="1.5" stroke-linecap="round" stroke-linejoin="round"/>
</svg>
