<svg width="24" height="24" viewBox="0 0 24 24" fill="none" xmlns="http://www.w3.org/2000/svg">
<path d="M22.5 18.75V23.25H18" stroke="black" stroke-width="1.5" stroke-linecap="round" stroke-linejoin="round"/>
<path d="M22.5 23.25L17.45 18.2C16.8648 17.615 16.0058 17.3981 15.213 17.635L9.5 19.161C8.72402 19.3689 7.8961 19.147 7.328 18.579L1.5 12.746" stroke="black" stroke-width="1.5" stroke-linecap="round" stroke-linejoin="round"/>
<path d="M3.14803 9.73903C2.41222 6.09782 4.45278 2.46661 7.94559 1.20167C11.4384 -0.0632632 15.3309 1.41926 17.0973 4.68723C18.8637 7.95521 17.9717 12.0238 15 14.253" stroke="black" stroke-width="1.5" stroke-linecap="round" stroke-linejoin="round"/>
<path d="M12 5.25403H9.96699C9.32437 5.25448 8.77225 5.71042 8.65031 6.34137C8.52836 6.97231 8.87081 7.60115 9.46699 7.84103L11.531 8.66603C12.1285 8.90507 12.4723 9.53468 12.3502 10.1666C12.2281 10.7985 11.6746 11.2548 11.031 11.254H8.99999" stroke="black" stroke-width="1.5" stroke-linecap="round" stroke-linejoin="round"/>
<path d="M10.5 5.25403V4.50403" stroke="black" stroke-width="1.5" stroke-linecap="round" stroke-linejoin="round"/>
<path d="M10.5 12.004V11.254" stroke="black" stroke-width="1.5" stroke-linecap="round" stroke-linejoin="round"/>
</svg>
