<svg width="24" height="25" viewBox="0 0 24 25" fill="none" xmlns="http://www.w3.org/2000/svg">
<path d="M22.5 17.248V12.748H18" stroke="black" stroke-width="1.5" stroke-linecap="round" stroke-linejoin="round"/>
<path d="M22.5 12.748L17.45 17.8C16.8648 18.385 16.0058 18.6019 15.213 18.365L9.5 16.837C8.72384 16.6298 7.8961 16.852 7.328 17.42L1.5 23.252" stroke="black" stroke-width="1.5" stroke-linecap="round" stroke-linejoin="round"/>
<path d="M12 5.25201H9.96699C9.32437 5.25246 8.77225 5.70841 8.65031 6.33935C8.52836 6.9703 8.87081 7.59914 9.46699 7.83901L11.531 8.66401C12.1285 8.90306 12.4723 9.53267 12.3502 10.1646C12.2281 10.7965 11.6746 11.2528 11.031 11.252H8.99999" stroke="black" stroke-width="1.5" stroke-linecap="round" stroke-linejoin="round"/>
<path d="M10.5 5.25201V4.50201" stroke="black" stroke-width="1.5" stroke-linecap="round" stroke-linejoin="round"/>
<path d="M10.5 12.002V11.252" stroke="black" stroke-width="1.5" stroke-linecap="round" stroke-linejoin="round"/>
<path d="M17.852 9.73701C18.5878 6.09581 16.5472 2.4646 13.0544 1.19966C9.56163 -0.0652774 5.66911 1.41724 3.90272 4.68522C2.13634 7.9532 3.02837 12.0218 6 14.251" stroke="black" stroke-width="1.5" stroke-linecap="round" stroke-linejoin="round"/>
</svg>
