<svg width="24" height="24" viewBox="0 0 24 24" fill="none" xmlns="http://www.w3.org/2000/svg">
<path d="M4.36298 8.192C5.85632 4.91839 9.15257 2.84561 12.75 2.918C13.4961 2.92593 14.2387 3.02057 14.963 3.2L16.946 0.926001C17.1567 0.749846 17.4469 0.703154 17.7023 0.804331C17.9576 0.905507 18.1371 1.13832 18.17 1.411L18.526 4.882C19.8788 5.90871 20.8824 7.32744 21.4 8.945H23.25V14.973H20.76C20.2456 15.8914 19.5639 16.7055 18.75 17.373C17.8852 18.0895 16.8928 18.6361 15.825 18.984" stroke="black" stroke-width="1.5" stroke-linecap="round" stroke-linejoin="round"/>
<path fill-rule="evenodd" clip-rule="evenodd" d="M6.75 17.25C10.0637 17.25 12.75 15.9069 12.75 14.25C12.75 12.5931 10.0637 11.25 6.75 11.25C3.43629 11.25 0.75 12.5931 0.75 14.25C0.75 15.9069 3.43629 17.25 6.75 17.25Z" stroke="black" stroke-width="1.5" stroke-linecap="round" stroke-linejoin="round"/>
<path d="M12.75 14.25V20.25C12.75 21.907 10.064 23.25 6.75 23.25C3.436 23.25 0.75 21.907 0.75 20.25V14.25" stroke="black" stroke-width="1.5" stroke-linecap="round" stroke-linejoin="round"/>
<path d="M0.75 17.25C0.75 18.907 3.436 20.25 6.75 20.25C10.064 20.25 12.75 18.907 12.75 17.25" stroke="black" stroke-width="1.5" stroke-linecap="round" stroke-linejoin="round"/>
<path d="M16.875 7.5C16.6679 7.5 16.5 7.66789 16.5 7.875C16.5 8.08211 16.6679 8.25 16.875 8.25C17.0821 8.25 17.25 8.08211 17.25 7.875C17.25 7.66789 17.0821 7.5 16.875 7.5" stroke="black" stroke-width="1.5" stroke-linecap="round" stroke-linejoin="round"/>
<path d="M17.957 17.956L18.75 21" stroke="black" stroke-width="1.5" stroke-linecap="round" stroke-linejoin="round"/>
</svg>
