<svg width="24" height="24" viewBox="0 0 24 24" fill="none" xmlns="http://www.w3.org/2000/svg">
<path d="M17.25 19.637C18.4626 18.6557 19.3712 17.35 19.87 15.872" stroke="black" stroke-width="1.5" stroke-linecap="round" stroke-linejoin="round"/>
<path d="M7.5 10.125C7.70711 10.125 7.875 10.2929 7.875 10.5C7.875 10.7071 7.70711 10.875 7.5 10.875C7.29289 10.875 7.125 10.7071 7.125 10.5C7.125 10.2929 7.29289 10.125 7.5 10.125" stroke="black" stroke-width="1.5" stroke-linecap="round" stroke-linejoin="round"/>
<path d="M18.75 3.75H16.717C16.0744 3.75045 15.5223 4.20639 15.4003 4.83734C15.2784 5.46828 15.6208 6.09712 16.217 6.337L18.281 7.163C18.8772 7.40288 19.2196 8.03172 19.0977 8.66266C18.9757 9.29361 18.4236 9.74955 17.781 9.75H15.75" stroke="black" stroke-width="1.5" stroke-linecap="round" stroke-linejoin="round"/>
<path d="M17.25 3.75V3" stroke="black" stroke-width="1.5" stroke-linecap="round" stroke-linejoin="round"/>
<path d="M17.25 10.5V9.75" stroke="black" stroke-width="1.5" stroke-linecap="round" stroke-linejoin="round"/>
<path fill-rule="evenodd" clip-rule="evenodd" d="M17.25 12.75C20.5637 12.75 23.25 10.0637 23.25 6.75C23.25 3.43629 20.5637 0.75 17.25 0.75C13.9363 0.75 11.25 3.43629 11.25 6.75C11.25 10.0637 13.9363 12.75 17.25 12.75Z" stroke="black" stroke-width="1.5" stroke-linecap="round" stroke-linejoin="round"/>
<path d="M9.037 5.53097L7.054 3.87797C6.84321 3.70257 6.55349 3.65619 6.29848 3.75703C6.04347 3.85786 5.86382 4.08984 5.83 4.36197L5.474 7.20597C4.12236 8.22579 3.11863 9.63814 2.6 11.25H0.75V17.25H3.24C4.90336 20.0845 7.96394 21.8039 11.25 21.75C15.1715 21.8533 18.6993 19.3798 19.939 15.658" stroke="black" stroke-width="1.5" stroke-linecap="round" stroke-linejoin="round"/>
<path d="M6.011 20.204L5.25 23.25" stroke="black" stroke-width="1.5" stroke-linecap="round" stroke-linejoin="round"/>
<path d="M16.49 20.209L17.25 23.25" stroke="black" stroke-width="1.5" stroke-linecap="round" stroke-linejoin="round"/>
</svg>
