<svg width="24" height="25" viewBox="0 0 24 25" fill="none" xmlns="http://www.w3.org/2000/svg">
<path d="M0.75 23.32H23.25" stroke="black" stroke-width="1.5" stroke-linecap="round" stroke-linejoin="round"/>
<path fill-rule="evenodd" clip-rule="evenodd" d="M15.75 19.78C15.75 18.9516 16.4216 18.28 17.25 18.28H20.25C21.0784 18.28 21.75 18.9516 21.75 19.78V21.82C21.75 22.6484 21.0784 23.32 20.25 23.32H17.25C16.4216 23.32 15.75 22.6484 15.75 21.82V19.78Z" stroke="black" stroke-width="1.5" stroke-linecap="round" stroke-linejoin="round"/>
<path fill-rule="evenodd" clip-rule="evenodd" d="M2.25 19.78C2.25 18.9516 2.92157 18.28 3.75 18.28H6.75C7.57843 18.28 8.25 18.9516 8.25 19.78V21.82C8.25 22.6484 7.57843 23.32 6.75 23.32H3.75C2.92157 23.32 2.25 22.6484 2.25 21.82V19.78Z" stroke="black" stroke-width="1.5" stroke-linecap="round" stroke-linejoin="round"/>
<path fill-rule="evenodd" clip-rule="evenodd" d="M2.25 14.74C2.25 13.9116 2.92157 13.24 3.75 13.24H6.75C7.57843 13.24 8.25 13.9116 8.25 14.74V16.78C8.25 17.6084 7.57843 18.28 6.75 18.28H3.75C2.92157 18.28 2.25 17.6084 2.25 16.78V14.74Z" stroke="black" stroke-width="1.5" stroke-linecap="round" stroke-linejoin="round"/>
<path d="M5.25 13.24V4.96C5.25 3.1706 6.76104 1.72 8.625 1.72C10.489 1.72 12 3.1706 12 4.96C12 6.35176 13.1753 7.48 14.625 7.48H15.375C17.239 7.48 18.75 8.9306 18.75 10.72V18.28" stroke="black" stroke-width="1.5" stroke-linecap="round" stroke-linejoin="round"/>
</svg>
