<svg width="24" height="24" viewBox="0 0 24 24" fill="none" xmlns="http://www.w3.org/2000/svg">
<path fill-rule="evenodd" clip-rule="evenodd" d="M0.75 2.25C0.75 1.42157 1.42157 0.75 2.25 0.75H21.75C22.5784 0.75 23.25 1.42157 23.25 2.25V21.75C23.25 22.5784 22.5784 23.25 21.75 23.25H2.25C1.42157 23.25 0.75 22.5784 0.75 21.75V2.25Z" stroke="black" stroke-width="1.5" stroke-linecap="round" stroke-linejoin="round"/>
<path fill-rule="evenodd" clip-rule="evenodd" d="M17.238 20.25C18.8948 20.25 20.238 18.9069 20.238 17.25C20.238 15.5931 18.8948 14.25 17.238 14.25C15.5811 14.25 14.238 15.5931 14.238 17.25C14.238 18.9069 15.5811 20.25 17.238 20.25Z" stroke="black" stroke-width="1.5" stroke-linecap="round" stroke-linejoin="round"/>
<path fill-rule="evenodd" clip-rule="evenodd" d="M3.75 20.25L6.75 14.25L9.75 20.25H3.75V20.25Z" stroke="black" stroke-width="1.5" stroke-linecap="round" stroke-linejoin="round"/>
<path fill-rule="evenodd" clip-rule="evenodd" d="M3.75 4.5H9.75V10.5H3.75V4.5Z" stroke="black" stroke-width="1.5" stroke-linecap="round" stroke-linejoin="round"/>
<path fill-rule="evenodd" clip-rule="evenodd" d="M17.267 3.99201L18.134 6.28101H19.821C19.9939 6.27589 20.1518 6.37879 20.2168 6.53905C20.2819 6.6993 20.2405 6.88313 20.113 7.00001L18.648 8.02401L19.46 9.88801C19.5328 10.0631 19.4858 10.2652 19.3432 10.3902C19.2005 10.5152 18.994 10.5352 18.83 10.44L16.869 9.34001L14.908 10.44C14.744 10.5352 14.5375 10.5152 14.3948 10.3902C14.2522 10.2652 14.2052 10.0631 14.278 9.88801L15.09 8.02401L13.625 7.00001C13.4942 6.88429 13.4503 6.69881 13.5154 6.53675C13.5805 6.37469 13.7405 6.27109 13.915 6.27801H15.6L16.468 3.98901C16.5449 3.83883 16.6997 3.74461 16.8684 3.74524C17.0372 3.74588 17.1912 3.84126 17.267 3.99201Z" stroke="black" stroke-width="1.5" stroke-linecap="round" stroke-linejoin="round"/>
</svg>
