<svg width="24" height="24" viewBox="0 0 24 24" fill="none" xmlns="http://www.w3.org/2000/svg">
<path d="M4.125 19.5C4.33211 19.5 4.5 19.6679 4.5 19.875" stroke="black" stroke-width="1.5" stroke-linecap="round" stroke-linejoin="round"/>
<path d="M3.75 19.875C3.75 19.6679 3.91789 19.5 4.125 19.5" stroke="black" stroke-width="1.5" stroke-linecap="round" stroke-linejoin="round"/>
<path d="M4.125 20.25C3.91789 20.25 3.75 20.0821 3.75 19.875" stroke="black" stroke-width="1.5" stroke-linecap="round" stroke-linejoin="round"/>
<path d="M4.5 19.875C4.5 20.0821 4.33211 20.25 4.125 20.25" stroke="black" stroke-width="1.5" stroke-linecap="round" stroke-linejoin="round"/>
<path d="M15.375 19.5C15.5821 19.5 15.75 19.6679 15.75 19.875" stroke="black" stroke-width="1.5" stroke-linecap="round" stroke-linejoin="round"/>
<path d="M15 19.875C15 19.6679 15.1679 19.5 15.375 19.5" stroke="black" stroke-width="1.5" stroke-linecap="round" stroke-linejoin="round"/>
<path d="M15.375 20.25C15.1679 20.25 15 20.0821 15 19.875" stroke="black" stroke-width="1.5" stroke-linecap="round" stroke-linejoin="round"/>
<path d="M15.75 19.875C15.75 20.0821 15.5821 20.25 15.375 20.25" stroke="black" stroke-width="1.5" stroke-linecap="round" stroke-linejoin="round"/>
<path d="M4.125 12.75C4.33211 12.75 4.5 12.9179 4.5 13.125" stroke="black" stroke-width="1.5" stroke-linecap="round" stroke-linejoin="round"/>
<path d="M3.75 13.125C3.75 12.9179 3.91789 12.75 4.125 12.75" stroke="black" stroke-width="1.5" stroke-linecap="round" stroke-linejoin="round"/>
<path d="M4.125 13.5C3.91789 13.5 3.75 13.3321 3.75 13.125" stroke="black" stroke-width="1.5" stroke-linecap="round" stroke-linejoin="round"/>
<path d="M4.5 13.125C4.5 13.3321 4.33211 13.5 4.125 13.5" stroke="black" stroke-width="1.5" stroke-linecap="round" stroke-linejoin="round"/>
<path d="M15.375 12.75C15.5821 12.75 15.75 12.9179 15.75 13.125" stroke="black" stroke-width="1.5" stroke-linecap="round" stroke-linejoin="round"/>
<path d="M15 13.125C15 12.9179 15.1679 12.75 15.375 12.75" stroke="black" stroke-width="1.5" stroke-linecap="round" stroke-linejoin="round"/>
<path d="M15.375 13.5C15.1679 13.5 15 13.3321 15 13.125" stroke="black" stroke-width="1.5" stroke-linecap="round" stroke-linejoin="round"/>
<path d="M15.75 13.125C15.75 13.3321 15.5821 13.5 15.375 13.5" stroke="black" stroke-width="1.5" stroke-linecap="round" stroke-linejoin="round"/>
<path d="M4.125 6C4.33211 6 4.5 6.16789 4.5 6.375" stroke="black" stroke-width="1.5" stroke-linecap="round" stroke-linejoin="round"/>
<path d="M3.75 6.375C3.75 6.16789 3.91789 6 4.125 6" stroke="black" stroke-width="1.5" stroke-linecap="round" stroke-linejoin="round"/>
<path d="M4.125 6.75C3.91789 6.75 3.75 6.58211 3.75 6.375" stroke="black" stroke-width="1.5" stroke-linecap="round" stroke-linejoin="round"/>
<path d="M4.5 6.375C4.5 6.58211 4.33211 6.75 4.125 6.75" stroke="black" stroke-width="1.5" stroke-linecap="round" stroke-linejoin="round"/>
<path d="M17.25 16.5C18.0784 16.5 18.75 17.1716 18.75 18V21.75C18.75 22.5784 18.0784 23.25 17.25 23.25H2.25C1.42157 23.25 0.75 22.5784 0.75 21.75V18C0.75 17.1716 1.42157 16.5 2.25 16.5H17.25" stroke="black" stroke-width="1.5" stroke-linecap="round" stroke-linejoin="round"/>
<path d="M2.25 16.5C1.42157 16.5 0.75 15.8284 0.75 15V11.25C0.75 10.4216 1.42157 9.75 2.25 9.75H15.75" stroke="black" stroke-width="1.5" stroke-linecap="round" stroke-linejoin="round"/>
<path d="M15.75 9.75H2.25C1.42157 9.75 0.75 9.07843 0.75 8.25V4.5C0.75 3.67157 1.42157 3 2.25 3H11.25" stroke="black" stroke-width="1.5" stroke-linecap="round" stroke-linejoin="round"/>
<path d="M23.25 23.25L18.142 6.77399" stroke="black" stroke-width="1.5" stroke-linecap="round" stroke-linejoin="round"/>
<path fill-rule="evenodd" clip-rule="evenodd" d="M17.254 6.90799C18.9109 6.90799 20.254 5.56484 20.254 3.90799C20.254 2.25114 18.9109 0.90799 17.254 0.90799C15.5972 0.90799 14.254 2.25114 14.254 3.90799C14.254 5.56484 15.5972 6.90799 17.254 6.90799Z" stroke="black" stroke-width="1.5" stroke-linecap="round" stroke-linejoin="round"/>
</svg>
