<svg width="24" height="24" viewBox="0 0 24 24" fill="none" xmlns="http://www.w3.org/2000/svg">
<g clip-path="url(#clip0_2_3089)">
<path d="M0 0.75C0 1.15 0.35 1.5 0.75 1.5C1.35 1.5 1.5 2.25 1.5 5.25C1.5 8.25 1.65 9 2.25 9C2.85 9 3 8.25 3 5.25V1.5H4.45C5.9 1.5 5.9 1.5 6.1 5C6.25 8.15 6.45 8.65 7.9 10.15C9.3 11.5 9.85 11.75 12 11.75C14.15 11.75 14.7 11.5 16.1 10.15C17.55 8.65 17.75 8.15 17.9 5L18.1 1.5H21.05C23.35 1.5 24 1.35 24 0.75C24 0.0999994 22.35 0 12 0C1.65 0 0 0.0999994 0 0.75ZM16.5 3V4.5H12H7.5V3V1.5H12H16.5V3ZM16.5 6.8C16.5 7.2 15.85 8.25 15.05 9.05C13.05 11 10.95 11 8.95 9.05C6.4 6.5 6.85 6 12 6C15.75 6 16.5 6.15 16.5 6.8Z" fill="black"/>
<path d="M6.94998 14.15C4.34998 15.55 2.04998 18.9 1.64998 21.95C1.39998 23.6 1.49998 24 2.19998 24C2.69998 24 2.99998 23.55 2.99998 22.75C2.99998 20.9 4.14998 18.45 5.64998 17.05L6.94998 15.9L9.44998 17.75L12 19.6L14.55 17.75L17.05 15.9L18.35 17.05C19.85 18.45 21 20.9 21 22.75C21 23.55 21.3 24 21.8 24C23.05 24 22.4 20.4 20.65 17.6C17.9 13.15 11.8 11.6 6.94998 14.15ZM15.2 14.9C15.3 15.1 14.65 15.8 13.7 16.45L12 17.65L10.3 16.45C9.34998 15.8 8.69998 15.1 8.79998 14.9C9.14998 14.4 14.85 14.4 15.2 14.9Z" fill="black"/>
</g>
<defs>
<clipPath id="clip0_2_3089">
<rect width="24" height="24" fill="white"/>
</clipPath>
</defs>
</svg>
