<svg width="24" height="24" viewBox="0 0 24 24" fill="none" xmlns="http://www.w3.org/2000/svg">
<path fill-rule="evenodd" clip-rule="evenodd" d="M3.99402 19.125C3.99402 18.2966 4.66559 17.625 5.49402 17.625H11.494C12.3224 17.625 12.994 18.2966 12.994 19.125V21.375C12.994 22.2034 12.3224 22.875 11.494 22.875H5.49402C4.66559 22.875 3.99402 22.2034 3.99402 21.375V19.125Z" stroke="black" stroke-width="1.5" stroke-linecap="round" stroke-linejoin="round"/>
<path fill-rule="evenodd" clip-rule="evenodd" d="M3.99402 13.875C3.99402 13.0466 4.66559 12.375 5.49402 12.375H11.494C12.3224 12.375 12.994 13.0466 12.994 13.875V16.125C12.994 16.9534 12.3224 17.625 11.494 17.625H5.49402C4.66559 17.625 3.99402 16.9534 3.99402 16.125V13.875Z" stroke="black" stroke-width="1.5" stroke-linecap="round" stroke-linejoin="round"/>
<path fill-rule="evenodd" clip-rule="evenodd" d="M0.994019 8.625C0.994019 7.79657 1.66559 7.125 2.49402 7.125H8.49402C9.32245 7.125 9.99402 7.79657 9.99402 8.625V10.875C9.99402 11.7034 9.32245 12.375 8.49402 12.375H2.49402C1.66559 12.375 0.994019 11.7034 0.994019 10.875V8.625Z" stroke="black" stroke-width="1.5" stroke-linecap="round" stroke-linejoin="round"/>
<path fill-rule="evenodd" clip-rule="evenodd" d="M3.99402 3.375C3.99402 2.54657 4.66559 1.875 5.49402 1.875H11.494C12.3224 1.875 12.994 2.54657 12.994 3.375V5.625C12.994 6.45343 12.3224 7.125 11.494 7.125H5.49402C4.66559 7.125 3.99402 6.45343 3.99402 5.625V3.375Z" stroke="black" stroke-width="1.5" stroke-linecap="round" stroke-linejoin="round"/>
<path d="M19.478 11.727L20.988 22.875" stroke="black" stroke-width="1.5" stroke-linecap="round" stroke-linejoin="round"/>
<path fill-rule="evenodd" clip-rule="evenodd" d="M15.2583 8.5147C15.147 7.69378 15.7223 6.9381 16.5432 6.82684L21.0025 6.2225C21.8234 6.11125 22.5791 6.68655 22.6903 7.50747L22.9925 9.73709C23.1038 10.558 22.5285 11.3137 21.7075 11.4249L17.2483 12.0293C16.4274 12.1405 15.6717 11.5652 15.5604 10.7443L15.2583 8.5147Z" stroke="black" stroke-width="1.5" stroke-linecap="round" stroke-linejoin="round"/>
<path d="M16.744 3.375V1.125" stroke="black" stroke-width="1.5" stroke-linecap="round" stroke-linejoin="round"/>
<path d="M19.744 4.125L21.244 2.625" stroke="black" stroke-width="1.5" stroke-linecap="round" stroke-linejoin="round"/>
</svg>
