<svg width="24" height="24" viewBox="0 0 24 24" fill="none" xmlns="http://www.w3.org/2000/svg">
<path d="M5.625 6.75C5.83211 6.75 6 6.91789 6 7.125" stroke="black" stroke-width="1.5" stroke-linecap="round" stroke-linejoin="round"/>
<path d="M5.25 7.125C5.25 6.91789 5.41789 6.75 5.625 6.75" stroke="black" stroke-width="1.5" stroke-linecap="round" stroke-linejoin="round"/>
<path d="M5.625 7.5C5.41789 7.5 5.25 7.33211 5.25 7.125" stroke="black" stroke-width="1.5" stroke-linecap="round" stroke-linejoin="round"/>
<path d="M6 7.125C6 7.33211 5.83211 7.5 5.625 7.5" stroke="black" stroke-width="1.5" stroke-linecap="round" stroke-linejoin="round"/>
<path d="M9.375 6.75C9.58211 6.75 9.75 6.91789 9.75 7.125" stroke="black" stroke-width="1.5" stroke-linecap="round" stroke-linejoin="round"/>
<path d="M9 7.125C9 6.91789 9.16789 6.75 9.375 6.75" stroke="black" stroke-width="1.5" stroke-linecap="round" stroke-linejoin="round"/>
<path d="M9.375 7.5C9.16789 7.5 9 7.33211 9 7.125" stroke="black" stroke-width="1.5" stroke-linecap="round" stroke-linejoin="round"/>
<path d="M9.75 7.125C9.75 7.33211 9.58211 7.5 9.375 7.5" stroke="black" stroke-width="1.5" stroke-linecap="round" stroke-linejoin="round"/>
<path d="M6.63801 13.43C4.24608 13.0331 2.43673 11.0504 2.25973 8.63223C2.08274 6.21406 3.58411 3.98902 5.89276 3.24808C8.2014 2.50713 10.7172 3.44287 11.9805 5.5124C13.2438 7.58192 12.9262 10.2473 11.212 11.962" stroke="black" stroke-width="1.5" stroke-linecap="round" stroke-linejoin="round"/>
<path d="M10.026 3.647L12 0.75" stroke="black" stroke-width="1.5" stroke-linecap="round" stroke-linejoin="round"/>
<path d="M4.974 3.647L3 0.75" stroke="black" stroke-width="1.5" stroke-linecap="round" stroke-linejoin="round"/>
<path d="M17.234 17.66C18.3519 17.0061 19.7631 17.1434 20.734 18.0004C21.7049 18.8574 22.0163 20.2407 21.5062 21.4311C20.9962 22.6215 19.7798 23.3502 18.4896 23.2383C17.1994 23.1265 16.1266 22.1994 15.829 20.939" stroke="black" stroke-width="1.5" stroke-linecap="round" stroke-linejoin="round"/>
<path d="M12.023 10.917C13.6954 12.4345 13.984 14.9565 12.6978 16.8126C11.4115 18.6688 8.94877 19.2841 6.94064 18.2511C4.9325 17.2181 4.00097 14.8568 4.76302 12.731" stroke="black" stroke-width="1.5" stroke-linecap="round" stroke-linejoin="round"/>
<path d="M13.5 14.25C15.4829 14.2503 17.1229 15.7943 17.2425 17.7736C17.3622 19.7529 15.9203 21.4833 13.9519 21.7226C11.9835 21.9619 10.169 20.6273 9.811 18.677" stroke="black" stroke-width="1.5" stroke-linecap="round" stroke-linejoin="round"/>
</svg>
