<svg width="24" height="24" viewBox="0 0 24 24" fill="none" xmlns="http://www.w3.org/2000/svg">
<path fill-rule="evenodd" clip-rule="evenodd" d="M12 23.25C18.2132 23.25 23.25 18.2132 23.25 12C23.25 5.7868 18.2132 0.75 12 0.75C5.7868 0.75 0.75 5.7868 0.75 12C0.75 18.2132 5.7868 23.25 12 23.25Z" stroke="black" stroke-width="1.5" stroke-linecap="round" stroke-linejoin="round"/>
<path d="M19.251 7.84299C18.5358 10.5935 17.136 13.1182 15.182 15.182C10.789 19.575 4.04504 19.955 4.04504 19.955C4.04504 19.955 4.42504 13.211 8.81804 8.81799C10.8818 6.86407 13.4065 5.46428 16.157 4.74899" stroke="black" stroke-width="1.5" stroke-linecap="round" stroke-linejoin="round"/>
<path d="M22.36 7.60701C20.6496 8.39209 18.6314 8.02998 17.3007 6.69927C15.97 5.36857 15.6079 3.35034 16.393 1.64001" stroke="black" stroke-width="1.5" stroke-linecap="round" stroke-linejoin="round"/>
</svg>
