<svg width="24" height="25" viewBox="0 0 24 25" fill="none" xmlns="http://www.w3.org/2000/svg">
<path d="M9 5.25C9.20711 5.25 9.375 5.41789 9.375 5.625" stroke="black" stroke-width="1.5" stroke-linecap="round" stroke-linejoin="round"/>
<path d="M8.625 5.625C8.625 5.41789 8.79289 5.25 9 5.25" stroke="black" stroke-width="1.5" stroke-linecap="round" stroke-linejoin="round"/>
<path d="M9 6C8.79289 6 8.625 5.83211 8.625 5.625" stroke="black" stroke-width="1.5" stroke-linecap="round" stroke-linejoin="round"/>
<path d="M9.375 5.625C9.375 5.83211 9.20711 6 9 6" stroke="black" stroke-width="1.5" stroke-linecap="round" stroke-linejoin="round"/>
<path d="M14.25 5.25C14.4571 5.25 14.625 5.41789 14.625 5.625" stroke="black" stroke-width="1.5" stroke-linecap="round" stroke-linejoin="round"/>
<path d="M13.875 5.625C13.875 5.41789 14.0429 5.25 14.25 5.25" stroke="black" stroke-width="1.5" stroke-linecap="round" stroke-linejoin="round"/>
<path d="M14.25 6C14.0429 6 13.875 5.83211 13.875 5.625" stroke="black" stroke-width="1.5" stroke-linecap="round" stroke-linejoin="round"/>
<path d="M14.625 5.625C14.625 5.83211 14.4571 6 14.25 6" stroke="black" stroke-width="1.5" stroke-linecap="round" stroke-linejoin="round"/>
<path fill-rule="evenodd" clip-rule="evenodd" d="M11.625 15.75C15.3529 15.75 18.375 12.3921 18.375 8.25C18.375 4.10786 15.3529 0.75 11.625 0.75C7.89708 0.75 4.875 4.10786 4.875 8.25C4.875 12.3921 7.89708 15.75 11.625 15.75Z" stroke="black" stroke-width="1.5" stroke-linecap="round" stroke-linejoin="round"/>
<path d="M14.223 10.5C13.6876 11.4301 12.6962 12.0033 11.623 12.0033C10.5498 12.0033 9.5584 11.4301 9.02301 10.5" stroke="black" stroke-width="1.5" stroke-linecap="round" stroke-linejoin="round"/>
<path d="M11.625 15.75V17.35C11.6467 18.1842 12.0148 18.9717 12.641 19.5233C13.2671 20.0749 14.0947 20.3407 14.925 20.257C16.0955 20.1902 17.2218 20.7139 17.925 21.652L19.125 23.252" stroke="black" stroke-width="1.5" stroke-linecap="round" stroke-linejoin="round"/>
</svg>
