<svg width="24" height="25" viewBox="0 0 24 25" fill="none" xmlns="http://www.w3.org/2000/svg">
<path d="M13.238 14.5V16.75L17.412 17.678C18.8848 18.0052 19.8855 19.3754 19.749 20.878L19.443 24.25" stroke="black" stroke-width="1.5" stroke-linecap="round" stroke-linejoin="round"/>
<path d="M8.55098 24.25L6.38898 21.367C5.99963 20.848 5.97999 20.1398 6.33998 19.6V19.6C6.57351 19.2496 6.94098 19.0107 7.35602 18.9396C7.77107 18.8685 8.19709 18.9713 8.53398 19.224L10.234 20.502V14.502" stroke="black" stroke-width="1.5" stroke-linecap="round" stroke-linejoin="round"/>
<path fill-rule="evenodd" clip-rule="evenodd" d="M14.738 13.75C14.738 14.1642 14.4022 14.5 13.988 14.5H9.48798C9.07376 14.5 8.73798 14.1642 8.73798 13.75V10C8.73798 8.34315 10.0811 7 11.738 7C13.3948 7 14.738 8.34315 14.738 10V13.75Z" stroke="black" stroke-width="1.5" stroke-linecap="round" stroke-linejoin="round"/>
<path d="M13.374 7.48499C13.833 5.94599 14.709 3.19699 15.285 2.52999C16.1027 1.61376 17.5041 1.52252 18.4338 2.32499C19.3635 3.12746 19.4779 4.52716 18.691 5.46999C18.113 6.13999 15.506 7.41399 14.053 8.09199" stroke="black" stroke-width="1.5" stroke-linecap="round" stroke-linejoin="round"/>
<path d="M10.1 7.485C9.64297 5.946 8.76797 3.2 8.19097 2.53C7.67018 1.90604 6.85338 1.61144 6.05421 1.75932C5.25504 1.9072 4.59773 2.47458 4.3347 3.24357C4.07166 4.01257 4.24379 4.86365 4.78497 5.47C5.36297 6.14 7.97097 7.414 9.42397 8.092" stroke="black" stroke-width="1.5" stroke-linecap="round" stroke-linejoin="round"/>
</svg>
