<svg width="24" height="24" viewBox="0 0 24 24" fill="none" xmlns="http://www.w3.org/2000/svg">
<path fill-rule="evenodd" clip-rule="evenodd" d="M5.25 23.25C6.07843 23.25 6.75 22.5784 6.75 21.75C6.75 20.9216 6.07843 20.25 5.25 20.25C4.42157 20.25 3.75 20.9216 3.75 21.75C3.75 22.5784 4.42157 23.25 5.25 23.25Z" stroke="black" stroke-width="1.5" stroke-linecap="round" stroke-linejoin="round"/>
<path fill-rule="evenodd" clip-rule="evenodd" d="M14.25 23.25C15.0784 23.25 15.75 22.5784 15.75 21.75C15.75 20.9216 15.0784 20.25 14.25 20.25C13.4216 20.25 12.75 20.9216 12.75 21.75C12.75 22.5784 13.4216 23.25 14.25 23.25Z" stroke="black" stroke-width="1.5" stroke-linecap="round" stroke-linejoin="round"/>
<path d="M6.75 21.75H12.75" stroke="black" stroke-width="1.5" stroke-linecap="round" stroke-linejoin="round"/>
<path d="M3.75 21.75H2.25C1.42157 21.75 0.75 21.0784 0.75 20.25V19.5C0.75 17.8431 2.09315 16.5 3.75 16.5H16.15C17.6431 16.4999 18.909 17.5979 19.12 19.076L19.257 20.038C19.3185 20.4688 19.1899 20.9051 18.9045 21.2336C18.6192 21.5622 18.2052 21.7506 17.77 21.75H15.75" stroke="black" stroke-width="1.5" stroke-linecap="round" stroke-linejoin="round"/>
<path d="M11.25 16.5V10.5" stroke="black" stroke-width="1.5" stroke-linecap="round" stroke-linejoin="round"/>
<path d="M5.25 16.5C5.25 13.1863 7.93629 10.5 11.25 10.5C14.5637 10.5 17.25 13.1863 17.25 16.5V16.71" stroke="black" stroke-width="1.5" stroke-linecap="round" stroke-linejoin="round"/>
<path d="M14.25 8.25V5.25C14.25 4.42157 14.9216 3.75 15.75 3.75H21.75C22.5784 3.75 23.25 4.42157 23.25 5.25V17.25C23.25 18.0784 22.5784 18.75 21.75 18.75" stroke="black" stroke-width="1.5" stroke-linecap="round" stroke-linejoin="round"/>
<path d="M18.75 0.75V3.75" stroke="black" stroke-width="1.5" stroke-linecap="round" stroke-linejoin="round"/>
<path fill-rule="evenodd" clip-rule="evenodd" d="M18.75 9.75C19.5784 9.75 20.25 9.07843 20.25 8.25C20.25 7.42157 19.5784 6.75 18.75 6.75C17.9216 6.75 17.25 7.42157 17.25 8.25C17.25 9.07843 17.9216 9.75 18.75 9.75Z" stroke="black" stroke-width="1.5" stroke-linecap="round" stroke-linejoin="round"/>
</svg>
