<svg width="25" height="25" viewBox="0 0 25 25" fill="none" xmlns="http://www.w3.org/2000/svg">
<path d="M18.8839 11.0022C20.2479 12.1984 22.3929 13.6845 24.2499 13.239" stroke="black" stroke-width="1.5" stroke-linecap="round" stroke-linejoin="round"/>
<path fill-rule="evenodd" clip-rule="evenodd" d="M22.238 17.559C21.7012 16.1039 20.7691 14.8129 19.538 13.8198C19.1975 13.5467 19.0005 13.1428 19 12.7168V11.799C19 10.2085 17.6568 8.91904 16 8.91904H12.106C11.5004 8.91866 10.9545 8.56877 10.722 8.032L8.55796 3.04768C8.23946 2.31533 7.36377 1.96842 6.59996 2.272L3.13496 3.65728C1.98786 4.11617 1.44546 5.38087 1.92346 6.48208C2.40146 7.5833 3.71886 8.10401 4.86596 7.64512C5.24731 7.49161 5.68615 7.66338 5.84696 8.02912C6.32596 9.13408 7.28896 11.3536 7.84696 12.6285C8.0852 13.1775 7.94734 13.8107 7.49996 14.2221C6.49464 15.1525 5.72847 16.2946 5.26196 17.5581L8.13696 18.9981C9.38995 17.199 11.4956 16.1189 13.75 16.1189C16.0043 16.1189 18.11 17.199 19.363 18.9981L22.238 17.559Z" stroke="black" stroke-width="1.5" stroke-linecap="round" stroke-linejoin="round"/>
<path d="M7.04297 2.16639C9.07397 1.25247 10.919 1.82079 11.5 3.15903L14.5 8.91903" stroke="black" stroke-width="1.5" stroke-linecap="round" stroke-linejoin="round"/>
<path d="M6.25 4.71902C6.34946 4.71902 6.44484 4.75695 6.51517 4.82447C6.58549 4.89198 6.625 4.98355 6.625 5.07902" stroke="black" stroke-width="1.5" stroke-linecap="round" stroke-linejoin="round"/>
<path d="M5.875 5.07902C5.875 4.8802 6.04289 4.71902 6.25 4.71902" stroke="black" stroke-width="1.5" stroke-linecap="round" stroke-linejoin="round"/>
<path d="M6.25 5.43904C6.04289 5.43904 5.875 5.27786 5.875 5.07904" stroke="black" stroke-width="1.5" stroke-linecap="round" stroke-linejoin="round"/>
<path d="M6.625 5.07904C6.625 5.27786 6.45711 5.43904 6.25 5.43904" stroke="black" stroke-width="1.5" stroke-linecap="round" stroke-linejoin="round"/>
<path d="M16.75 9.00928V11.799C16.75 12.5943 16.0784 13.239 15.25 13.239H13.75C12.9216 13.239 12.25 12.5943 12.25 11.799V8.91904" stroke="black" stroke-width="1.5" stroke-linecap="round" stroke-linejoin="round"/>
<path d="M11.5 20.4381H16" stroke="black" stroke-width="1.5" stroke-linecap="round" stroke-linejoin="round"/>
<path d="M11.5 23.3181H16" stroke="black" stroke-width="1.5" stroke-linecap="round" stroke-linejoin="round"/>
</svg>
