<svg width="24" height="24" viewBox="0 0 24 24" fill="none" xmlns="http://www.w3.org/2000/svg">
<path fill-rule="evenodd" clip-rule="evenodd" d="M2.366 22.5C1.92791 22.5005 1.51151 22.3094 1.22619 21.977C0.940859 21.6445 0.815122 21.204 0.882005 20.771C1.73535 15.2912 6.45417 11.2504 12 11.2504C17.5458 11.2504 22.2647 15.2912 23.118 20.771C23.1849 21.204 23.0592 21.6445 22.7738 21.977C22.4885 22.3094 22.0721 22.5005 21.634 22.5H2.366Z" stroke="black" stroke-width="1.5" stroke-linecap="round" stroke-linejoin="round"/>
<path d="M12 11.25V1.5" stroke="black" stroke-width="1.5" stroke-linecap="round" stroke-linejoin="round"/>
<path fill-rule="evenodd" clip-rule="evenodd" d="M23.25 3.75C23.25 4.993 21.907 6 20.25 6C18.593 6 12 3.75 12 3.75C12 3.75 18.593 1.5 20.25 1.5C21.907 1.5 23.25 2.507 23.25 3.75Z" stroke="black" stroke-width="1.5" stroke-linecap="round" stroke-linejoin="round"/>
<path fill-rule="evenodd" clip-rule="evenodd" d="M0.75 3.75C0.75 4.993 2.093 6 3.75 6C5.407 6 12 3.75 12 3.75C12 3.75 5.407 1.5 3.75 1.5C2.093 1.5 0.75 2.507 0.75 3.75Z" stroke="black" stroke-width="1.5" stroke-linecap="round" stroke-linejoin="round"/>
<path d="M22.845 19.5H1.155" stroke="black" stroke-width="1.5" stroke-linecap="round" stroke-linejoin="round"/>
</svg>
