<svg width="25" height="24" viewBox="0 0 25 24" fill="none" xmlns="http://www.w3.org/2000/svg">
<path d="M24.024 18.635C21.0703 21.5887 17.0642 23.2481 12.887 23.2481C8.70981 23.2481 4.7037 21.5887 1.75 18.635" stroke="black" stroke-width="1.5" stroke-linecap="round" stroke-linejoin="round"/>
<path d="M18.884 10.419C20.248 11.665 22.393 13.213 24.25 12.749" stroke="black" stroke-width="1.5" stroke-linecap="round" stroke-linejoin="round"/>
<path d="M7.01099 22.116C7.2114 18.6958 9.94192 15.968 13.3623 15.7711C16.7827 15.5741 19.8083 17.9704 20.4 21.345" stroke="black" stroke-width="1.5" stroke-linecap="round" stroke-linejoin="round"/>
<path d="M4.78101 21.007C4.55019 18.309 5.54926 15.651 7.50001 13.773C7.94471 13.344 8.08087 12.6863 7.84301 12.116L5.84301 7.32501C5.6822 6.94403 5.24337 6.7651 4.86201 6.92501C3.71409 7.40191 2.39691 6.85794 1.92001 5.71001C1.44311 4.56209 1.98709 3.24491 3.13501 2.76801L6.60001 1.32501C7.36465 1.00678 8.24251 1.36849 8.56101 2.13301L10.722 7.32501C10.9545 7.88414 11.5005 8.24861 12.106 8.24901H16C17.6569 8.24901 19 9.59216 19 11.249V12.205C19.0001 12.6484 19.1963 13.0691 19.536 13.354C21.4518 14.9601 22.6115 17.2921 22.736 19.789" stroke="black" stroke-width="1.5" stroke-linecap="round" stroke-linejoin="round"/>
<path d="M7.04303 1.21501C9.07403 0.263013 10.919 0.855013 11.5 2.24901L14.5 8.24901" stroke="black" stroke-width="1.5" stroke-linecap="round" stroke-linejoin="round"/>
<path d="M6.25 3.87402C6.34954 3.87376 6.44508 3.91318 6.51546 3.98357C6.58584 4.05395 6.62527 4.14949 6.625 4.24902" stroke="black" stroke-width="1.5" stroke-linecap="round" stroke-linejoin="round"/>
<path d="M5.875 4.24902C5.87473 4.14949 5.91416 4.05395 5.98454 3.98357C6.05493 3.91318 6.15046 3.87376 6.25 3.87402" stroke="black" stroke-width="1.5" stroke-linecap="round" stroke-linejoin="round"/>
<path d="M6.25 4.62402C6.04289 4.62402 5.875 4.45613 5.875 4.24902" stroke="black" stroke-width="1.5" stroke-linecap="round" stroke-linejoin="round"/>
<path d="M6.625 4.24902C6.625 4.45613 6.45711 4.62402 6.25 4.62402" stroke="black" stroke-width="1.5" stroke-linecap="round" stroke-linejoin="round"/>
<path d="M16.75 8.34302V11.249C16.75 12.0775 16.0784 12.749 15.25 12.749H13.75C12.9216 12.749 12.25 12.0775 12.25 11.249V8.24902" stroke="black" stroke-width="1.5" stroke-linecap="round" stroke-linejoin="round"/>
</svg>
