<svg width="24" height="24" viewBox="0 0 24 24" fill="none" xmlns="http://www.w3.org/2000/svg">
<path fill-rule="evenodd" clip-rule="evenodd" d="M4.5 8.25L5.658 4.776C5.86205 4.16336 6.43527 3.75006 7.081 3.75H12.75V8.25H21.75V14.25H19.5C19.5 13.0074 18.4926 12 17.25 12C16.0074 12 15 13.0074 15 14.25H7.5C7.5 13.0074 6.49264 12 5.25 12C4.00736 12 3 13.0074 3 14.25H0.75V9.75C0.75 8.92157 1.42157 8.25 2.25 8.25H4.5Z" stroke="black" stroke-width="1.5" stroke-linecap="round" stroke-linejoin="round"/>
<path fill-rule="evenodd" clip-rule="evenodd" d="M3.75 23.25C5.40685 23.25 6.75 21.9069 6.75 20.25C6.75 18.5931 5.40685 17.25 3.75 17.25C2.09315 17.25 0.75 18.5931 0.75 20.25C0.75 21.9069 2.09315 23.25 3.75 23.25Z" stroke="black" stroke-width="1.5" stroke-linecap="round" stroke-linejoin="round"/>
<path fill-rule="evenodd" clip-rule="evenodd" d="M18.75 23.25C20.4069 23.25 21.75 21.9069 21.75 20.25C21.75 18.5931 20.4069 17.25 18.75 17.25C17.0931 17.25 15.75 18.5931 15.75 20.25C15.75 21.9069 17.0931 23.25 18.75 23.25Z" stroke="black" stroke-width="1.5" stroke-linecap="round" stroke-linejoin="round"/>
<path d="M17.314 8.25001C17.5671 6.11784 18.6823 4.18232 20.4 2.89401" stroke="black" stroke-width="1.5" stroke-linecap="round" stroke-linejoin="round"/>
<path fill-rule="evenodd" clip-rule="evenodd" d="M21.75 3.75C22.5784 3.75 23.25 3.07843 23.25 2.25C23.25 1.42157 22.5784 0.75 21.75 0.75C20.9216 0.75 20.25 1.42157 20.25 2.25C20.25 3.07843 20.9216 3.75 21.75 3.75Z" stroke="black" stroke-width="1.5" stroke-linecap="round" stroke-linejoin="round"/>
<path d="M9.75 3.75V6.75C9.75 7.57843 9.07843 8.25 8.25 8.25H4.5" stroke="black" stroke-width="1.5" stroke-linecap="round" stroke-linejoin="round"/>
<path d="M5.57898 17.872L7.49898 14.19" stroke="black" stroke-width="1.5" stroke-linecap="round" stroke-linejoin="round"/>
<path d="M16.985 17.824L15.002 14.146" stroke="black" stroke-width="1.5" stroke-linecap="round" stroke-linejoin="round"/>
<path d="M6.75 20.25H15.75" stroke="black" stroke-width="1.5" stroke-linecap="round" stroke-linejoin="round"/>
<path d="M18.75 19.875C18.9571 19.875 19.125 20.0429 19.125 20.25C19.125 20.4571 18.9571 20.625 18.75 20.625C18.5429 20.625 18.375 20.4571 18.375 20.25C18.375 20.0429 18.5429 19.875 18.75 19.875" stroke="black" stroke-width="1.5" stroke-linecap="round" stroke-linejoin="round"/>
<path d="M3.75 19.875C3.95711 19.875 4.125 20.0429 4.125 20.25C4.125 20.4571 3.95711 20.625 3.75 20.625C3.54289 20.625 3.375 20.4571 3.375 20.25C3.375 20.0429 3.54289 19.875 3.75 19.875" stroke="black" stroke-width="1.5" stroke-linecap="round" stroke-linejoin="round"/>
</svg>
