<svg width="24" height="24" viewBox="0 0 24 24" fill="none" xmlns="http://www.w3.org/2000/svg">
<path fill-rule="evenodd" clip-rule="evenodd" d="M17.25 22.5C17.25 22.9142 16.9142 23.25 16.5 23.25H7.5C7.08579 23.25 6.75 22.9142 6.75 22.5V16.5H17.25V22.5Z" stroke="black" stroke-width="1.5" stroke-linecap="round" stroke-linejoin="round"/>
<path fill-rule="evenodd" clip-rule="evenodd" d="M12 11.25C14.8995 11.25 17.25 8.89949 17.25 6C17.25 3.10051 14.8995 0.75 12 0.75C9.10051 0.75 6.75 3.10051 6.75 6C6.75 8.89949 9.10051 11.25 12 11.25Z" stroke="black" stroke-width="1.5" stroke-linecap="round" stroke-linejoin="round"/>
<path fill-rule="evenodd" clip-rule="evenodd" d="M12 9C12.8284 9 13.5 8.32843 13.5 7.5C13.5 6.67157 12.8284 6 12 6C11.1716 6 10.5 6.67157 10.5 7.5C10.5 8.32843 11.1716 9 12 9Z" stroke="black" stroke-width="1.5" stroke-linecap="round" stroke-linejoin="round"/>
<path d="M16.535 8.646C16.7398 9.79373 17.7875 10.5949 18.9488 10.4919C20.1101 10.3889 21.0004 9.41587 21 8.25C21 8.208 21 8.165 21 8.123C21.9014 7.80657 22.5048 6.95537 22.5048 6C22.5048 5.04463 21.9014 4.19343 21 3.877C21 3.835 21 3.792 21 3.75C21.0024 2.58335 20.1128 1.60836 18.9508 1.50426C17.7888 1.40017 16.74 2.2015 16.535 3.35" stroke="black" stroke-width="1.5" stroke-linecap="round" stroke-linejoin="round"/>
<path d="M7.46501 8.646C7.26017 9.79373 6.21255 10.5949 5.05124 10.4919C3.88992 10.3889 2.99965 9.41587 3.00001 8.25C3.00001 8.208 3.00001 8.165 3.00001 8.123C2.09856 7.80657 1.49524 6.95537 1.49524 6C1.49524 5.04463 2.09856 4.19343 3.00001 3.877C3.00001 3.835 3.00001 3.792 3.00001 3.75C2.99756 2.58335 3.88724 1.60836 5.04924 1.50426C6.21123 1.40017 7.26005 2.2015 7.46501 3.35" stroke="black" stroke-width="1.5" stroke-linecap="round" stroke-linejoin="round"/>
<path d="M9.75 10.744V16.5" stroke="black" stroke-width="1.5" stroke-linecap="round" stroke-linejoin="round"/>
<path d="M14.25 10.744V16.5" stroke="black" stroke-width="1.5" stroke-linecap="round" stroke-linejoin="round"/>
<path d="M17.25 16.5L23.25 21" stroke="black" stroke-width="1.5" stroke-linecap="round" stroke-linejoin="round"/>
<path d="M6.75 16.5L0.75 21" stroke="black" stroke-width="1.5" stroke-linecap="round" stroke-linejoin="round"/>
</svg>
