<svg width="24" height="24" viewBox="0 0 24 24" fill="none" xmlns="http://www.w3.org/2000/svg">
<path d="M8.25 7.875V14.625" stroke="black" stroke-width="1.5" stroke-linecap="round" stroke-linejoin="round"/>
<path fill-rule="evenodd" clip-rule="evenodd" d="M0.75 4.125C0.75 3.29657 1.42157 2.625 2.25 2.625H8.25C9.07843 2.625 9.75 3.29657 9.75 4.125V6.375C9.75 7.20343 9.07843 7.875 8.25 7.875H2.25C1.42157 7.875 0.75 7.20343 0.75 6.375V4.125Z" stroke="black" stroke-width="1.5" stroke-linecap="round" stroke-linejoin="round"/>
<path d="M15.75 14.625V7.875" stroke="black" stroke-width="1.5" stroke-linecap="round" stroke-linejoin="round"/>
<path fill-rule="evenodd" clip-rule="evenodd" d="M14.25 4.125C14.25 3.29657 14.9216 2.625 15.75 2.625H21.75C22.5784 2.625 23.25 3.29657 23.25 4.125V6.375C23.25 7.20343 22.5784 7.875 21.75 7.875H15.75C14.9216 7.875 14.25 7.20343 14.25 6.375V4.125Z" stroke="black" stroke-width="1.5" stroke-linecap="round" stroke-linejoin="round"/>
<path d="M8.25 11.625H15.75" stroke="black" stroke-width="1.5" stroke-linecap="round" stroke-linejoin="round"/>
<path d="M21.75 7.875V20.625C21.75 21.0392 21.4142 21.375 21 21.375H3C2.58579 21.375 2.25 21.0392 2.25 20.625V7.875" stroke="black" stroke-width="1.5" stroke-linecap="round" stroke-linejoin="round"/>
<path d="M5.25 2.625V4.875" stroke="black" stroke-width="1.5" stroke-linecap="round" stroke-linejoin="round"/>
<path d="M18.75 2.625V4.875" stroke="black" stroke-width="1.5" stroke-linecap="round" stroke-linejoin="round"/>
<path d="M9.75 21.375V18.375C9.75 17.1324 10.7574 16.125 12 16.125C13.2426 16.125 14.25 17.1324 14.25 18.375V21.375" stroke="black" stroke-width="1.5" stroke-linecap="round" stroke-linejoin="round"/>
</svg>
