<svg width="437" height="209" viewBox="0 0 437 209" fill="none" xmlns="http://www.w3.org/2000/svg">
<g clip-path="url(#clip0_2_948)">
<path d="M94.3609 24.9681C94.0133 24.9681 93.8047 25.2347 93.8047 25.5014V29.4347H104.652L99.7148 24.9681H94.3609Z" fill="#126BC5"/>
<path d="M104.999 30.6347C104.999 30.3014 104.721 30.1014 104.443 30.1014H100.341V40.5014L104.999 35.768V30.6347Z" fill="#126BC5"/>
<path d="M99.0895 40.8347C99.4371 40.8347 99.6457 40.5681 99.6457 40.3014V36.3681H88.7988L93.7356 40.8347H99.0895Z" fill="#126BC5"/>
<path d="M88.4512 35.1681C88.4512 35.5014 88.7293 35.7014 89.0074 35.7014H93.1098V25.3681L88.4512 30.1014V35.1681Z" fill="#126BC5"/>
<path d="M38.8762 26.8348V31.6348H31.923V26.8348H29.4199V38.9681H31.923V33.7681H38.8762V38.9681H41.4488V26.8348H38.8762Z" fill="black"/>
<path d="M72.5986 26.8348V38.9014H83.7236L82.333 36.8348H75.1713V33.7681H82.0549V31.7014H75.1713V28.9681H82.2635L83.6541 26.8348H72.5986Z" fill="black"/>
<path d="M19.9633 26.8348C17.3211 26.8348 16 28.3681 16 30.6348V35.1681C16 37.7681 17.7383 38.9681 19.9633 38.9681H27.8898L26.4297 36.7014H20.45C19.1984 36.7014 18.6422 36.2348 18.6422 34.9014V30.8348C18.6422 29.5014 19.1289 28.9681 20.5195 28.9681H26.4992L27.8898 26.8348H19.9633Z" fill="black"/>
<path d="M61.4738 26.8348C59.9441 26.8348 58.4145 27.7014 58.4145 29.9681V30.5681C58.4145 32.9014 59.9441 33.8348 61.4043 33.8348H66.6887C67.2449 33.8348 67.6621 33.9014 67.6621 34.8348V35.8348C67.6621 36.6348 67.2449 36.8348 66.6191 36.8348H59.666L58.2754 38.9681H66.8277C68.9137 38.9681 70.3043 37.9681 70.3043 35.7014V34.9014C70.3043 32.7014 68.9832 31.7014 66.9668 31.7014H61.891C61.3348 31.7014 60.9176 31.5681 60.9176 30.7681V29.8348C60.9176 29.1681 61.1957 28.9014 61.8215 28.9014H68.427L69.8176 26.8348H61.4738Z" fill="black"/>
<path d="M48.8186 26.8348L42.8389 38.9014H45.6897L46.8717 36.4348H53.3381L54.5201 38.9014H57.3709L51.3217 26.8348H48.8186ZM50.0006 29.3681L52.2951 34.3681H47.7061L50.0006 29.3681Z" fill="black"/>
</g>
<rect x="0.5" y="1.4014" width="120" height="63" rx="7.5" stroke="#E5E7EB"/>
<g clip-path="url(#clip1_2_948)">
<path fill-rule="evenodd" clip-rule="evenodd" d="M177.198 35.0335C178.223 35.453 179.248 35.9027 180.244 36.4118C177.053 37.7593 173.968 39.3725 171.02 41.236C170.024 40.6963 168.999 40.1575 167.974 39.6776C170.935 37.8802 174.01 36.3223 177.198 35.0335ZM173.383 33.6255C170.083 34.7356 166.89 36.1701 163.846 37.9099C164.814 38.2997 165.781 38.6891 166.721 39.1087C169.658 37.2783 172.756 35.7531 175.974 34.5546C175.119 34.2246 174.266 33.8951 173.383 33.6255Z" fill="#2267AD"/>
<path fill-rule="evenodd" clip-rule="evenodd" d="M197.382 40.2173C197.439 40.3969 197.581 40.4568 197.723 40.4568C197.809 40.4568 197.894 40.4568 197.951 40.3969C197.987 40.3559 198.007 40.3026 198.008 40.247C198.008 40.1273 197.923 40.0674 197.809 40.0674L197.61 40.0076C197.553 39.9774 197.467 39.9774 197.41 39.9175C197.353 39.8577 197.325 39.7681 197.325 39.678C197.325 39.4386 197.525 39.349 197.723 39.349C197.894 39.349 198.065 39.4386 198.122 39.6483L197.98 39.678C197.98 39.5579 197.837 39.4683 197.695 39.4683C197.61 39.4683 197.467 39.5282 197.467 39.6479C197.467 39.7978 197.553 39.8275 197.667 39.8577L197.837 39.8874C197.923 39.9171 198.008 39.9472 198.065 39.9769C198.122 40.067 198.15 40.1273 198.15 40.247C198.15 40.3366 198.122 40.4568 198.036 40.5167C197.951 40.577 197.837 40.6067 197.723 40.6067C197.495 40.6067 197.353 40.4865 197.268 40.247L197.382 40.2173ZM198.492 40.577H198.379V39.3787H198.577L198.948 40.3371L199.261 39.3787H199.489V40.577H199.347V39.5282L198.976 40.577H198.862L198.492 39.5282V40.577ZM184.116 34.884C181.501 33.5692 178.799 32.4575 176.03 31.5579C175.034 31.8573 174.066 32.1868 173.126 32.5167C175.976 33.4179 178.756 34.5498 181.44 35.9022C182.322 35.5426 183.204 35.2135 184.116 34.884ZM188.358 33.5655C185.71 32.3371 182.948 31.3184 180.129 30.5095C179.218 30.6891 178.336 30.8989 177.454 31.1384C180.244 32.0076 182.976 33.0861 185.596 34.4046C186.507 34.1048 187.446 33.8055 188.358 33.5655ZM195.19 35.9626C188.499 38.3299 182.236 41.7154 176.571 45.9404C177.994 46.8691 179.361 47.8279 180.699 48.8763C186.089 44.3809 192.037 40.6813 198.378 37.8797C197.338 37.2005 196.274 36.561 195.19 35.9626ZM190.578 33.6853C183.631 35.6029 177.112 38.7192 171.219 42.8538C172.528 43.543 173.838 44.2623 175.119 45.0411C180.898 40.8462 187.304 37.5502 194.136 35.3927C192.97 34.794 191.802 34.1948 190.578 33.6853Z" fill="#CD2E29"/>
<path fill-rule="evenodd" clip-rule="evenodd" d="M171.475 19.393C173.154 19.393 174.008 20.7115 174.008 22.4792C174.008 24.3072 173.182 25.5955 171.475 25.5955C169.738 25.5955 168.941 24.3072 168.941 22.4792C168.941 20.7115 169.795 19.393 171.475 19.393ZM171.475 24.3968C171.93 24.3968 172.129 23.9772 172.129 22.4792C172.129 21.1008 171.987 20.5917 171.475 20.5917C170.962 20.5917 170.82 21.1008 170.82 22.4792C170.82 23.9772 171.019 24.3968 171.475 24.3968ZM175.176 20.8911H174.436V19.5726H175.176V18.9136C175.176 17.4452 175.859 16.9059 177.055 16.9059C177.397 16.9059 177.681 16.9658 177.966 16.996V18.4643C177.855 18.4276 177.74 18.4074 177.625 18.4045C177.141 18.4045 176.97 18.6142 176.97 18.9735V19.573H177.966V20.8915H176.97V25.4758H175.176V20.8911ZM154.023 21.2206C154.023 20.8609 153.881 20.6214 153.568 20.6214C153.112 20.6214 152.97 21.041 152.97 21.4002L151.376 21.0405C151.574 19.9021 152.6 19.4227 153.624 19.4227C154.706 19.4227 155.845 19.9017 155.845 21.2201V24.5161C155.845 25.1751 155.931 25.3848 156.016 25.4749H154.137C154.109 25.2953 154.08 25.0252 154.08 24.9356C153.767 25.2651 153.226 25.5951 152.713 25.5951C151.802 25.5951 151.119 24.9356 151.148 23.8571C151.176 22.3288 152.827 21.8494 154.023 21.7V21.2206ZM154.023 22.6286C153.397 22.6885 152.913 22.9581 152.913 23.7072C152.913 24.1267 153.112 24.3365 153.454 24.3365C153.653 24.3365 153.881 24.1866 154.023 23.9768V22.6286ZM158.721 21.2503V25.4753H156.899V19.5726H158.664L158.692 20.1722C159.091 19.7527 159.575 19.4231 160.286 19.4231C161.084 19.4231 161.539 19.9921 161.539 20.8015V25.4758H159.717V21.4006C159.717 21.0711 159.603 20.8915 159.29 20.8915C159.091 20.8911 158.891 21.0108 158.721 21.2503ZM162.649 17.0855H164.471V21.3403H164.5L165.838 19.5726H167.631L166.123 21.3705L167.631 25.4753H165.752L164.87 22.8983H164.841L164.471 23.3479V25.4753H162.649V17.0855ZM149.212 21.1008C150.066 21.4006 150.692 22.1497 150.692 23.2287C150.692 24.6664 149.61 25.4758 148.073 25.4758H145.026V17.0855H148.158C149.581 17.0855 150.492 17.9845 150.492 19.1229C150.492 20.2316 149.781 20.801 149.211 21.0405V21.1008H149.212ZM146.963 23.9174H147.703C148.158 23.9174 148.728 23.7076 148.728 22.8685C148.728 22.2397 148.358 21.8202 147.703 21.8202H146.963V23.9174ZM146.963 20.4112H147.646C148.358 20.4112 148.643 19.9917 148.643 19.5123C148.643 18.7034 148.13 18.5836 147.675 18.5836H146.963V20.4112ZM214.72 21.2206C214.72 20.8609 214.548 20.6214 214.236 20.6214C213.808 20.6214 213.666 21.041 213.638 21.4002L212.072 21.0405C212.271 19.9021 213.296 19.4227 214.321 19.4227C215.403 19.4227 216.542 19.9017 216.542 21.2201V24.5161C216.542 25.1751 216.627 25.3848 216.684 25.4749H214.833C214.805 25.2953 214.776 25.0252 214.776 24.9356C214.463 25.2651 213.923 25.5951 213.381 25.5951C212.499 25.5951 211.787 24.9356 211.816 23.8571C211.873 22.3288 213.524 21.8494 214.72 21.7V21.2206ZM214.72 22.6286C214.093 22.6885 213.609 22.9581 213.609 23.7072C213.609 24.1267 213.808 24.3365 214.121 24.3365C214.349 24.3365 214.548 24.1866 214.719 23.9768V22.6286H214.72ZM196.073 22.9284C196.043 23.4375 196.186 24.3365 196.926 24.3365C197.353 24.3365 197.723 23.9768 197.808 23.5276L199.033 23.9773C198.948 24.2469 198.406 25.5955 196.783 25.5955C195.046 25.5955 194.249 24.1271 194.249 22.4792C194.249 20.801 195.104 19.393 196.754 19.393C198.491 19.393 199.117 20.9811 199.117 22.539V22.9284H196.073ZM197.438 21.7896C197.438 21.2503 197.381 20.5913 196.755 20.5913C196.243 20.5913 196.043 21.2503 196.072 21.7896H197.438ZM203.987 19.5726H205.809V25.4753H203.987V19.5726ZM203.987 17.0855H205.809V18.7938H203.987V17.0855ZM209.822 21.7598C209.822 21.5204 209.822 21.2206 209.737 21.0108C209.652 20.7709 209.509 20.5913 209.225 20.5913C208.627 20.5913 208.542 21.37 208.542 22.5687C208.542 23.8872 208.741 24.3365 209.225 24.3365C209.851 24.3365 209.908 23.6473 209.908 23.1981L211.331 23.4078C211.189 24.846 210.392 25.5951 209.082 25.5951C207.46 25.5951 206.606 24.097 206.606 22.6286C206.606 21.0108 207.46 19.393 209.168 19.393C211.075 19.393 211.389 21.1607 211.389 21.7598H209.822ZM181.126 17.0855H183.774L185.454 25.4753H183.517L183.204 23.7675H181.354L180.984 25.4753H179.247L181.126 17.0855ZM181.61 22.2991H182.919L182.35 18.8834H182.292L181.61 22.2991ZM199.858 19.5726H201.623V20.3518H201.652C202.021 19.7225 202.705 19.4231 203.417 19.4231V21.3408C203.189 21.2507 202.99 21.1909 202.677 21.1909C202.193 21.1909 201.88 21.3705 201.68 21.6406V25.4758H199.858V19.5726ZM190.663 21.2503V25.4753H188.869V21.4303C188.869 21.1008 188.784 20.8911 188.442 20.8911C188.271 20.8911 187.987 21.041 187.844 21.2503V25.4753H186.051V19.5726H187.816L187.844 20.1722C188.243 19.7828 188.813 19.4231 189.468 19.4231C190.036 19.4231 190.406 19.7527 190.578 20.2019H190.606C190.919 19.8422 191.46 19.4231 192.201 19.4231C192.97 19.4231 193.482 19.9323 193.482 20.7713V25.4758H191.688V21.4308C191.688 21.1013 191.603 20.8915 191.261 20.8915C191.033 20.8911 190.777 21.1008 190.663 21.2503ZM217.424 24.7862C217.424 24.3365 217.765 23.9773 218.221 23.9773C218.322 23.9768 218.422 23.9975 218.516 24.038C218.609 24.0785 218.694 24.138 218.765 24.2132C218.837 24.2884 218.893 24.3778 218.932 24.4761C218.97 24.5744 218.99 24.6798 218.99 24.7862C218.99 24.8925 218.97 24.9979 218.932 25.0962C218.893 25.1945 218.837 25.2839 218.765 25.3591C218.694 25.4343 218.609 25.4938 218.516 25.5343C218.422 25.5748 218.322 25.5955 218.221 25.5951C217.765 25.5955 217.424 25.2354 217.424 24.7862ZM217.566 24.7862C217.566 25.1454 217.851 25.415 218.221 25.415C218.563 25.415 218.848 25.1454 218.848 24.7862C218.848 24.4265 218.563 24.1267 218.221 24.1267C217.851 24.1267 217.566 24.4265 217.566 24.7862Z" fill="#2267AD"/>
<path fill-rule="evenodd" clip-rule="evenodd" d="M218.592 25.2357H218.45L218.193 24.8161H218.05V25.2357H217.908V24.3367H218.307C218.364 24.3367 218.45 24.3367 218.507 24.3664C218.592 24.4263 218.62 24.4862 218.62 24.5762C218.62 24.7558 218.478 24.8161 218.335 24.8161L218.592 25.2357ZM218.193 24.6964C218.307 24.6964 218.478 24.7261 218.478 24.5762C218.478 24.4565 218.392 24.4263 218.279 24.4263H218.051V24.6959H218.193V24.6964Z" fill="#2267AD"/>
</g>
<rect x="129.5" y="1.4014" width="105" height="63" rx="7.5" stroke="#E5E7EB"/>
<g clip-path="url(#clip2_2_948)">
<path fill-rule="evenodd" clip-rule="evenodd" d="M271.359 33.9984H269.504C269.582 33.8126 269.543 33.5525 269.389 33.2547L268.345 31.5812L266.606 28.6423C266.606 28.6423 265.949 27.452 264.983 26.7455C265.601 26.9687 273.408 31.3576 273.408 31.3576C274.683 32.1016 275.804 33.9612 271.359 33.9984ZM265.485 38.7226C264.21 39.4291 261.93 39.4291 264.133 35.7099C264.519 35.0771 265.06 34.1476 265.06 34.1476C265.215 34.3334 265.447 34.4449 265.794 34.4449H271.359C271.359 34.4449 272.751 34.482 273.872 34.0362C273.369 34.4077 265.485 38.7226 265.485 38.7226ZM262.819 28.4562C262.819 27.043 263.978 25.1457 266.22 28.8283C266.606 29.498 267.147 30.3907 267.147 30.3907C266.915 30.4275 266.722 30.5768 266.529 30.8743L265.524 32.5853L263.746 35.4864C263.746 35.4864 263.012 36.6394 262.857 37.8303C262.78 37.1602 262.819 28.4562 262.819 28.4562ZM267.263 24.9599C262.703 24.9599 259.031 28.4936 259.031 32.8828C259.031 37.2717 262.703 40.8429 267.263 40.8429C271.823 40.8429 275.533 37.2717 275.533 32.8828C275.533 28.4936 271.823 24.9599 267.263 24.9599Z" fill="#FF5400"/>
<path fill-rule="evenodd" clip-rule="evenodd" d="M281.638 39.2434H283.725V33.664H284.845C287.782 33.664 291.686 33.4404 291.686 30.2046C291.686 26.9313 288.015 26.6709 285.077 26.6709H279.203V27.0056C281.29 27.2288 281.638 27.5267 281.638 28.6794V39.2434V39.2434ZM283.725 28.6794C283.725 27.5636 283.841 27.4149 285.812 27.4149C287.976 27.4149 289.29 28.3447 289.29 30.2046C289.29 32.6224 287.048 32.9571 284.768 32.9571H283.725V28.6794V28.6794ZM293.928 28.9027C293.928 27.3777 293.58 27.2663 291.493 27.0056V26.6709H296.362L303.975 36.9001H304.014V26.6709H305.289V39.2434H303.434L295.241 28.3079H295.203V39.2434H293.928V28.9027ZM318.97 38.9084C317.811 39.2062 316.69 39.4292 314.41 39.4292C309.849 39.4292 307.376 36.3422 307.376 32.5478C307.376 29.1631 308.845 26.4851 313.83 26.4851C317.501 26.4851 318.815 27.9726 318.97 29.2374H316.613C316.497 28.6423 316.071 27.3403 313.675 27.3403C311.086 27.3403 309.734 29.2005 309.734 32.0645C309.734 34.7055 310.429 38.6111 315.762 38.6111C317.192 38.6111 318.699 38.2018 318.97 38.1275V38.9084V38.9084Z" fill="#002FCD"/>
<path d="M273.916 39.9502H274.057C274.205 39.9502 274.299 39.8723 274.299 39.7541C274.299 39.621 274.199 39.5626 274.053 39.5607C273.986 39.5607 273.938 39.5671 273.916 39.5732V39.9502ZM273.777 39.48C273.847 39.466 273.948 39.4581 274.043 39.4581C274.191 39.4581 274.286 39.4843 274.354 39.5428C274.408 39.5885 274.438 39.6591 274.438 39.7386C274.438 39.8753 274.349 39.9658 274.236 40.0026V40.0072C274.318 40.0346 274.368 40.1083 274.393 40.2155C274.428 40.3596 274.454 40.4592 274.476 40.4991H274.333C274.315 40.4686 274.292 40.3809 274.261 40.2524C274.229 40.1095 274.172 40.0562 274.046 40.0514H273.916V40.4991H273.777V39.48Z" fill="#FF5400"/>
<path d="M273.335 39.9844C273.336 40.3876 273.675 40.7132 274.093 40.7138C274.512 40.7132 274.849 40.3876 274.851 39.9843C274.849 39.5817 274.512 39.2565 274.093 39.2556C273.675 39.2565 273.336 39.5818 273.335 39.9844ZM273.202 39.9844C273.202 39.5111 273.601 39.1273 274.093 39.1273C274.585 39.1273 274.985 39.5111 274.985 39.9843C274.985 40.4586 274.585 40.8429 274.093 40.8429C273.601 40.8429 273.202 40.4586 273.202 39.9843V39.9844Z" fill="#FF5400"/>
</g>
<rect x="243.5" y="1.4014" width="91" height="63" rx="7.5" stroke="#E5E7EB"/>
<path d="M418.164 42.309C418.164 39.1645 416.901 37.3348 414.567 37.3348C412.232 37.3348 410.969 39.1645 410.969 42.309C410.969 45.4723 412.215 47.2846 414.567 47.2846C416.918 47.2846 418.164 45.472 418.164 42.309ZM421 42.309C421 46.1822 418.32 48.9014 414.567 48.9014C410.831 48.9014 408.134 46.1822 408.134 42.309C408.134 38.4543 410.848 35.718 414.567 35.718C418.301 35.718 421 38.4543 421 42.309ZM401.561 42.878C401.561 43.2327 401.613 43.464 401.751 43.7485H403.809V46.8931C403.162 47.1666 402.469 47.3055 401.769 47.3017C399.28 47.3017 397.982 45.4723 397.982 42.309C397.982 39.1461 399.279 37.3164 401.631 37.3164C403.204 37.3164 404.121 38.1163 404.656 39.5021L404.846 39.9995H406.093V36.8194C404.535 36.056 403.134 35.718 401.51 35.718C397.705 35.718 395.145 38.3291 395.145 42.3274C395.145 46.3428 397.636 48.9014 401.51 48.9014C403.048 48.9014 404.64 48.4563 406.352 47.5861V42.043H401.751C401.613 42.3274 401.561 42.54 401.561 42.8783V42.878ZM391.047 39.6444C391.047 38.3475 390.268 37.6544 388.711 37.6544H386.671V41.6514H388.711C390.25 41.6514 391.047 40.9235 391.047 39.6444ZM377.505 43.2682L375.81 38.5613L374.115 43.2682H377.505ZM394.4 47.1414C394.505 47.3372 394.557 47.5681 394.557 47.8706C394.557 48.1722 394.505 48.4031 394.4 48.5989C393.953 48.6585 393.503 48.6882 393.052 48.6876C391.374 48.6876 390.562 47.9764 390.372 46.3244L390.302 45.7033C390.095 43.9088 389.525 43.216 387.622 43.216H386.671V46.9992H388.313V48.5453H377.435V46.9992H378.853L378.058 44.7792H373.562L372.767 46.9992H374.219V48.5453H369.636V46.9992H370.847L375.084 36.1082H377.384L381.707 46.9992H384.094V37.6544H382.624V36.1082H389.577C392.049 36.1082 393.657 37.3699 393.657 39.3954C393.657 41.4034 392.049 42.4684 390.493 42.54V42.5935C392.067 42.7186 392.707 43.6243 392.862 45.0273L392.931 45.6852C393.034 46.7157 393.243 47.1778 394.038 47.1778C394.159 47.1765 394.28 47.1644 394.4 47.1414ZM368.045 37.6544C369.203 37.6544 369.601 38.1698 369.982 39.6627L370.102 40.1417H371.347V36.1082H360.919V37.6544H362.39V46.9992H360.919V48.5453H366.696V46.9992H364.966V43.3753H368.529C368.668 43.0737 368.719 42.8415 368.719 42.4868C368.719 42.1497 368.668 41.9359 368.529 41.6343H364.966V37.6544H368.045ZM420.585 26.2287C420.585 24.2752 419.426 22.9248 417.247 22.4094L415.051 21.8937C413.772 21.5925 413.235 21.0768 413.235 20.2066C413.235 19.1574 414.048 18.5011 415.639 18.5011C417.23 18.5011 418.164 19.0868 418.527 20.4727L418.682 21.0768H419.928V18.0025C418.527 17.2746 417.04 16.9014 415.535 16.9014C412.577 16.9014 410.676 18.3589 410.676 20.7039C410.676 22.5152 411.783 23.8485 413.909 24.3275L416.106 24.8261C417.506 25.1454 418.025 25.7133 418.025 26.6554C418.025 27.8101 417.177 28.4496 415.482 28.4496C413.563 28.4496 412.578 27.6682 412.145 26.1752L411.921 25.4118H410.676V28.895C412.25 29.6936 413.754 30.0497 415.777 30.0497C418.682 30.0497 420.585 28.557 420.585 26.2291V26.2287ZM409.516 25.4476H408.271L408.133 26.0701C407.787 27.6504 407.303 28.1487 406.161 28.1487H403.757V18.8023H405.4V17.2575H399.711V18.8023H401.181V28.1484H399.711V29.6933H409.515L409.516 25.4476ZM398.62 25.4476H397.376L397.237 26.0701C396.892 27.6504 396.408 28.1487 395.266 28.1487H392.862V18.8023H394.505V17.2575H388.815V18.8023H390.286V28.1484H388.815V29.6933H398.62V25.4476ZM363.428 29.6933L360.384 18.8023H359V17.2575H364.638V18.8023H363.013L365.036 26.3007L367.457 17.2571H369.946L372.42 26.3174L374.408 18.8027H372.713V17.2575H387.38V21.2896H386.135L386.013 20.8094C385.633 19.3181 385.236 18.8023 384.076 18.8023H381.206V22.5513H384.682C384.82 22.8529 384.871 23.0671 384.871 23.4038C384.871 23.7585 384.821 23.9898 384.682 24.2923H381.206V28.1484H384.198C385.321 28.1484 385.823 27.6498 386.168 26.0694L386.308 25.4469H387.553V29.6933H377.159V28.1484H378.63V18.8023H376.241L373.215 29.6933H370.811L368.356 20.6685L365.831 29.6933H363.428Z" fill="#DD1E25"/>
<rect x="343.5" y="1.4014" width="93" height="63" rx="7.5" stroke="#E5E7EB"/>
<g clip-path="url(#clip3_2_948)">
<path d="M28.9156 113.303L28.8394 113.378C27.643 114.63 26.2585 115.291 24.8324 115.291C21.8539 115.291 19.6933 112.997 19.6933 109.834C19.6933 106.675 21.8539 104.378 24.8324 104.378C26.2585 104.378 27.643 105.043 28.8394 106.299L28.9156 106.374L30.831 103.996L30.7798 103.932C29.187 102.001 27.2751 101.061 24.9252 101.061C22.5693 101.061 20.4123 101.876 18.8599 103.343C17.1695 104.934 16.2803 107.177 16.2803 109.834C16.2803 112.49 17.1695 114.738 18.8599 116.329C20.4123 117.805 22.5693 118.614 24.9252 118.614C27.2751 118.614 29.187 117.673 30.7798 115.74L30.831 115.682L28.9156 113.303Z" fill="#004685"/>
<path d="M32.7656 118.29H36.1488V101.335H32.7656V118.29Z" fill="#004685"/>
<path d="M49.4036 114.604C48.5 115.168 47.6608 115.453 46.9061 115.453C45.812 115.453 45.3168 114.859 45.3168 113.54V104.543H48.7655V101.352H45.3168V96.0759L42.0015 97.8989V101.352H39.1396V104.543H42.0015V114.113C42.0015 116.719 43.5062 118.503 45.7537 118.549C47.2787 118.58 48.1977 118.113 48.7548 117.771L48.7905 117.748L49.6036 114.478L49.4036 114.604Z" fill="#004685"/>
<path d="M52.2041 118.29H55.5921V101.335H52.2041V118.29Z" fill="#004685"/>
<path d="M57.5655 98.3635C54.4739 93.8695 49.3407 91.1888 44.1183 91.1888C38.8971 91.1888 33.7627 93.8695 30.6771 98.3635L30.5176 98.5944H34.4103L34.4532 98.5467C37.1019 95.7389 40.5613 94.2556 44.1183 94.2556C47.6753 94.2556 51.1324 95.7389 53.787 98.5467L53.8299 98.5944H57.7202L57.5655 98.3635Z" fill="#EE1C25"/>
</g>
<rect x="0.5" y="73.4014" width="73" height="63" rx="7.5" stroke="#E5E7EB"/>
<g clip-path="url(#clip4_2_948)">
<path fill-rule="evenodd" clip-rule="evenodd" d="M98 92.9024L98.0158 111.53L113.3 116.897L128.585 111.53V92.9024H98Z" fill="#D62A43"/>
<path fill-rule="evenodd" clip-rule="evenodd" d="M124.018 102.988C122.402 102.433 120.567 102.333 119.76 101.978C119.491 101.851 119.197 101.674 119.197 101.297C119.197 100.438 119.98 100.286 120.665 100.286C121.057 100.286 121.448 100.412 121.742 100.665C122.06 100.893 122.28 101.22 122.305 101.65H126.708C126.585 98.2915 123.283 97.5084 120.543 97.5084C117.999 97.5084 114.549 98.3674 114.549 101.674C114.549 103.924 116.042 105.135 119.735 105.792C121.986 106.196 122.402 106.423 122.402 107.181C122.402 107.938 121.399 108.191 120.763 108.191C120.175 108.191 119.711 108.039 119.466 107.812C119.1 107.483 118.903 107.105 118.879 106.65H114.255C114.329 110.034 117.607 111.272 120.592 111.272C123.674 111.272 127.05 110.287 127.05 106.65C127.05 104.503 125.631 103.518 124.018 102.988ZM108.432 104.756C108.432 106.852 107.332 107.281 106.499 107.281C105.08 107.281 104.909 106.221 104.909 104.705V97.8373H100.064V106.826C100.064 109.833 102.144 111.272 104.419 111.272C106.352 111.272 107.648 110.59 108.554 109.276H108.602V110.943H113.275V97.8373H108.432V104.756Z" fill="white"/>
<path fill-rule="evenodd" clip-rule="evenodd" d="M190.008 109.796C189.964 109.814 189.896 109.824 189.807 109.824H189.616V109.374H189.797C189.913 109.374 189.999 109.389 190.053 109.419C190.105 109.45 190.132 109.511 190.132 109.602C190.132 109.697 190.091 109.762 190.008 109.796ZM190.324 110.386C190.322 110.354 190.321 110.323 190.321 110.294V110.203C190.321 110.14 190.298 110.076 190.255 110.01C190.211 109.945 190.141 109.904 190.047 109.889C190.122 109.876 190.181 109.856 190.223 109.828C190.301 109.776 190.34 109.694 190.34 109.584C190.34 109.427 190.277 109.321 190.153 109.268C190.085 109.239 189.975 109.224 189.825 109.224H189.404V110.467H189.616V109.976H189.783C189.894 109.976 189.975 109.99 190.019 110.016C190.095 110.063 190.132 110.158 190.132 110.301V110.4L190.137 110.44C190.138 110.446 190.139 110.45 190.14 110.454C190.14 110.458 190.141 110.463 190.143 110.467H190.342L190.334 110.452C190.33 110.442 190.326 110.42 190.324 110.386ZM190.513 110.543C190.33 110.733 190.107 110.829 189.845 110.829C189.583 110.829 189.361 110.733 189.178 110.543C188.996 110.351 188.905 110.119 188.905 109.849C188.905 109.579 188.996 109.349 189.179 109.159C189.363 108.967 189.586 108.872 189.845 108.872C190.107 108.872 190.33 108.967 190.513 109.159C190.697 109.349 190.788 109.579 190.788 109.849C190.788 110.119 190.697 110.351 190.513 110.543ZM190.622 109.049C190.408 108.83 190.15 108.72 189.845 108.72C189.544 108.72 189.286 108.83 189.073 109.049C188.859 109.27 188.752 109.536 188.752 109.849C188.752 110.162 188.858 110.431 189.071 110.651C189.283 110.874 189.543 110.985 189.845 110.985C190.15 110.985 190.408 110.874 190.622 110.651C190.837 110.43 190.944 110.162 190.944 109.849C190.944 109.536 190.837 109.27 190.622 109.049ZM187.652 97.8372H182.171L179.088 101.625V92.9125H174.245V110.943H179.088V107.154L179.945 106.196L182.538 110.943H188.362L183.126 102.786L187.652 97.8372ZM168.175 97.5083C166.243 97.5083 164.947 98.1904 164.041 99.5028H163.994V97.8372H159.321V110.943H164.163V104.023C164.163 101.929 165.265 101.498 166.098 101.498C167.516 101.498 167.687 102.558 167.687 104.075V110.943H172.531V101.954C172.531 98.9469 170.451 97.5083 168.175 97.5083ZM152.937 106.272C152.864 107.635 152.008 108.317 150.906 108.317C150.025 108.317 149.39 107.711 149.39 107.105C149.39 106.221 149.952 105.943 151.029 105.691C151.689 105.54 152.349 105.363 152.937 105.059V106.272ZM157.585 102.635C157.585 100.11 157.634 97.5076 151.567 97.5076C148.558 97.5076 145.182 98.1144 145.035 101.801H149.536C149.561 101.245 149.854 100.464 151.347 100.464C152.129 100.464 152.937 100.79 152.937 101.674C152.937 102.509 152.277 102.71 151.616 102.836C149.144 103.316 144.448 103.165 144.448 107.306C144.448 110.059 146.478 111.272 148.924 111.272C150.491 111.272 151.982 110.918 153.011 109.706H153.059C153.036 110.059 153.108 110.59 153.23 110.943H158.173C157.634 110.111 157.585 108.999 157.585 108.014V102.635ZM137.107 107.635C135.37 107.635 134.979 105.944 134.979 104.377C134.979 102.836 135.37 101.146 137.107 101.146C138.844 101.146 139.236 102.836 139.236 104.377C139.236 105.944 138.844 107.635 137.107 107.635ZM138.672 97.5083C137.229 97.5083 135.934 98.1646 135.199 99.2757H135.15V92.9125H130.306V110.943H134.979V109.504H135.028C135.64 110.337 136.373 111.271 138.746 111.271C142.342 111.271 144.079 107.609 144.079 104.326C144.079 101.245 142.929 97.5083 138.672 97.5083Z" fill="#001A71"/>
</g>
<rect x="82.5" y="73.4014" width="124" height="63" rx="7.5" stroke="#E5E7EB"/>
<g clip-path="url(#clip5_2_948)">
<path d="M277.703 110.261H277.686C274.756 112.277 271.299 114.389 267.562 116.613L267.414 116.693C267.398 116.7 267.383 116.71 267.372 116.722C267.36 116.735 267.352 116.75 267.347 116.766C267.342 116.783 267.341 116.8 267.344 116.817C267.347 116.833 267.354 116.849 267.365 116.863C267.375 116.877 267.388 116.888 267.404 116.896C267.419 116.904 267.436 116.908 267.454 116.909C267.471 116.91 267.488 116.906 267.504 116.899C267.52 116.893 267.534 116.882 267.546 116.869L267.661 116.805C270.838 115.205 274.476 113.301 278.131 111.333L278.197 111.301C277.981 110.98 277.815 110.63 277.703 110.261ZM296.93 95.1254C292.321 90.1814 262.591 94.6294 249.964 97.3174L249.668 97.3814C249.639 97.3887 249.614 97.4053 249.596 97.4286C249.578 97.4518 249.568 97.4803 249.569 97.5094C249.571 97.5239 249.576 97.5378 249.584 97.5501C249.592 97.5624 249.603 97.5728 249.615 97.5805C249.628 97.5882 249.642 97.593 249.657 97.5945C249.672 97.5961 249.687 97.5943 249.701 97.5894L249.997 97.5414C260.467 95.7334 282.246 93.2214 286.921 97.7334C288.354 99.1094 288.024 100.885 286.362 102.981C287.279 103.564 287.929 104.471 288.172 105.509C294.642 101.333 298.988 97.3334 296.93 95.1254Z" fill="#CC2427"/>
<path d="M279.579 108.965C279.628 110.709 280.764 112.133 282.246 112.133C285.11 112.133 286.328 108.709 286.246 106.421C286.18 104.677 285.028 103.253 283.546 103.253C281.077 103.253 279.48 106.661 279.579 108.965ZM278.065 108.869C277.949 105.893 280.353 102.853 283.826 102.853C286.164 102.853 287.678 104.373 287.761 106.677C287.876 109.813 285.637 112.693 281.999 112.693C279.661 112.693 278.147 111.189 278.065 108.869Z" fill="#013D5B"/>
<path d="M245.075 108.085C244.922 108.146 244.761 108.189 244.598 108.213L243.511 108.405C243.245 108.424 242.986 108.5 242.754 108.629C242.687 108.669 242.631 108.723 242.588 108.786C242.545 108.85 242.518 108.922 242.507 108.997C242.49 109.068 242.497 109.142 242.527 109.208C242.556 109.274 242.607 109.329 242.672 109.365C242.882 109.48 243.123 109.53 243.363 109.509C243.609 109.505 243.852 109.467 244.087 109.397C244.304 109.336 244.506 109.232 244.68 109.093C244.795 108.995 244.881 108.868 244.927 108.725C245.007 108.52 245.057 108.304 245.075 108.085ZM248.104 106.261C248.088 106.533 248.038 106.773 247.972 107.189L247.462 109.973C247.435 110.086 247.448 110.204 247.499 110.309C247.55 110.413 247.635 110.498 247.742 110.549V110.661H244.795V109.957C244.348 110.202 243.873 110.395 243.38 110.533C242.923 110.653 242.453 110.712 241.98 110.709C241.026 110.709 240.482 110.613 240.12 110.293C239.758 109.973 239.544 109.749 239.56 109.285C239.596 108.985 239.722 108.701 239.923 108.469C240.137 108.236 240.401 108.05 240.696 107.925C241.075 107.769 241.474 107.662 241.882 107.605C242.392 107.525 243.116 107.445 244.087 107.365C244.416 107.356 244.741 107.285 245.042 107.157C245.256 107.077 245.322 106.997 245.355 106.837C245.388 106.677 245.322 106.389 244.927 106.309C243.873 106.117 241.898 106.437 240.877 106.693L241.421 105.237C242.722 105.037 244.037 104.93 245.355 104.917C247.446 104.917 248.121 105.509 248.104 106.261Z" fill="#013D5B"/>
<path d="M256.599 110.661L257.619 105.077H260.434L259.414 110.661H256.599ZM257.784 103.797C257.866 103.333 258.607 102.965 259.447 102.965C260.286 102.965 260.879 103.333 260.796 103.797C260.714 104.261 259.973 104.629 259.134 104.629C258.294 104.629 257.702 104.245 257.784 103.797Z" fill="#013D5B"/>
<path d="M270.393 108.101L269.915 108.229L268.812 108.421C268.551 108.442 268.299 108.519 268.072 108.645C268.005 108.682 267.949 108.732 267.906 108.793C267.863 108.854 267.835 108.924 267.825 108.997C267.805 109.068 267.809 109.144 267.835 109.213C267.862 109.281 267.91 109.34 267.973 109.381C268.121 109.477 268.351 109.509 268.681 109.509C268.926 109.51 269.169 109.478 269.405 109.413C269.622 109.352 269.823 109.248 269.998 109.109C270.113 109.011 270.198 108.884 270.245 108.741C270.314 108.533 270.364 108.319 270.393 108.101ZM273.422 106.261C273.405 106.533 273.356 106.789 273.29 107.189L272.78 109.989C272.753 110.102 272.765 110.22 272.816 110.325C272.867 110.429 272.953 110.514 273.06 110.565V110.661H270.113V109.941C269.669 110.198 269.194 110.397 268.697 110.533C268.235 110.648 267.759 110.702 267.281 110.693C266.343 110.693 265.8 110.597 265.421 110.277C265.043 109.957 264.862 109.733 264.878 109.285C264.909 108.979 265.035 108.689 265.24 108.453C265.455 108.225 265.719 108.045 266.014 107.925C266.385 107.764 266.779 107.656 267.183 107.605C267.709 107.525 268.434 107.445 269.405 107.365C269.731 107.335 270.052 107.265 270.36 107.157C270.557 107.077 270.64 106.997 270.673 106.837C270.705 106.677 270.64 106.389 270.245 106.309C269.191 106.101 267.216 106.437 266.195 106.677L266.738 105.237C268.04 105.036 269.355 104.929 270.673 104.917C272.763 104.933 273.438 105.525 273.422 106.261Z" fill="#013D5B"/>
<path d="M239.165 108.661C238.398 108.828 237.614 108.909 236.828 108.901C235.494 108.901 234.424 108.261 234.49 107.061C234.523 106.277 235.494 104.613 237.931 104.613C238.702 104.596 239.463 104.796 240.12 105.189L240.466 103.253C239.587 102.914 238.644 102.762 237.7 102.805C234.49 102.837 231.412 104.245 231.033 107.125C230.654 110.005 234.325 110.789 235.955 110.789C236.893 110.789 237.881 110.741 238.787 110.661L239.165 108.661Z" fill="#013D5B"/>
<path d="M261.981 105.045L262.179 103.909L265.109 103.301L264.796 105.045H266.245L265.965 106.181H264.566L263.726 110.661H260.878L261.734 106.181H260.664L260.878 105.061H261.981V105.045Z" fill="#013D5B"/>
<path d="M276.27 110.661H273.405L274.854 102.885L277.636 102.949L276.27 110.661Z" fill="#013D5B"/>
<path d="M252.894 106.389C252.533 106.39 252.182 106.502 251.89 106.709C251.591 106.952 251.397 107.294 251.347 107.669C251.248 108.165 251.297 108.501 251.495 108.725C251.61 108.834 251.747 108.919 251.897 108.974C252.047 109.029 252.207 109.053 252.367 109.045C252.617 109.05 252.864 109.001 253.092 108.901C253.311 108.803 253.499 108.648 253.635 108.453C253.789 108.231 253.895 107.981 253.948 107.717C254.03 107.269 253.964 106.949 253.75 106.725C253.641 106.613 253.508 106.524 253.36 106.466C253.212 106.408 253.053 106.382 252.894 106.389ZM247.774 112.597L249.141 105.109H251.61L251.412 106.069C251.683 105.741 252.042 105.491 252.45 105.349C252.957 105.148 253.498 105.039 254.046 105.029C254.688 105.029 255.083 105.061 255.561 105.301C256.013 105.522 256.366 105.898 256.549 106.357C256.743 106.841 256.788 107.369 256.68 107.877C256.612 108.314 256.454 108.733 256.217 109.109C255.979 109.486 255.667 109.812 255.297 110.069C254.54 110.597 253.865 110.741 252.894 110.741C252.6 110.747 252.307 110.714 252.022 110.645C251.825 110.604 251.637 110.534 251.462 110.437C251.291 110.318 251.136 110.178 251.001 110.021L250.54 112.597H247.774Z" fill="#013D5B"/>
<path d="M298.74 107.077C298.724 106.629 298.493 106.325 298.016 106.325C296.864 106.325 295.645 108.517 295.431 109.397C297.308 109.397 298.79 108.309 298.74 107.077ZM298.987 110.517L299.201 110.661C298.641 111.765 297.506 112.661 296.156 112.661C295.053 112.661 294.164 111.957 294.114 110.629C294.016 108.229 296.337 106.005 298.213 106.005C299.02 106.005 299.777 106.357 299.81 107.205C299.876 109.109 297.127 109.685 295.316 109.717C295.257 109.947 295.235 110.185 295.25 110.421C295.283 111.221 295.777 111.877 296.781 111.877C297.785 111.877 298.543 111.189 298.987 110.517Z" fill="#013D5B"/>
<path d="M287.728 107.013L288.37 106.949C288.584 106.949 288.765 106.997 288.782 107.189C288.798 107.381 288.568 108.149 288.518 108.357L288.074 110.229C287.909 110.997 287.711 111.797 287.547 112.437H288.666L289.292 109.461C291.234 107.509 291.975 106.869 292.42 106.869C292.468 106.864 292.518 106.87 292.564 106.886C292.61 106.902 292.652 106.928 292.687 106.961C292.722 106.995 292.748 107.036 292.765 107.081C292.781 107.126 292.787 107.174 292.782 107.221C292.798 107.557 292.568 108.341 292.502 108.565L291.843 110.725C291.712 111.221 291.596 111.653 291.613 111.973C291.629 112.293 291.926 112.661 292.354 112.661C293.177 112.661 293.786 111.829 294.296 111.013L294.148 110.741C293.934 111.061 293.457 111.781 293.062 111.781C292.946 111.781 292.831 111.701 292.831 111.509C292.844 111.21 292.9 110.914 292.996 110.629L293.72 108.085C293.901 107.381 294 106.933 294 106.693C294 106.453 293.687 106.005 293.259 106.005C292.518 106.005 291.531 106.533 289.456 108.853H289.424L289.687 107.717C289.835 107.093 289.967 106.453 290.098 106.005C289.318 106.275 288.521 106.494 287.711 106.661L287.728 107.013Z" fill="#013D5B"/>
</g>
<rect x="215.5" y="73.4014" width="102" height="63" rx="7.5" stroke="#E5E7EB"/>
<g clip-path="url(#clip6_2_948)">
<path d="M395.729 112.048C394.749 112.048 393.956 112.776 393.956 113.677C393.956 114.575 394.749 115.303 395.729 115.303C396.706 115.303 397.499 114.575 397.499 113.677C397.499 112.776 396.706 112.048 395.729 112.048ZM395.729 115.012C394.925 115.012 394.275 114.414 394.275 113.677C394.275 112.939 394.925 112.341 395.729 112.341C396.532 112.341 397.18 112.939 397.18 113.677C397.18 114.414 396.532 115.012 395.729 115.012ZM365.595 112.259V117.492C365.595 120.416 367.428 120.901 368.964 120.901C371.236 120.901 372.288 119.439 372.288 117.463V112.257H370.786V117.64C370.786 118.32 370.557 119.588 368.964 119.563C367.514 119.538 367.25 118.242 367.25 117.409V112.259H365.595ZM378.571 112.601C378.571 112.601 377.611 112.139 376.52 112.139C375.162 112.139 373.454 112.817 373.454 114.672C373.454 115.958 374.427 116.566 375.09 116.879C375.442 117.046 375.869 117.232 376.222 117.417C376.404 117.514 377.127 117.751 377.127 118.51C377.127 119.326 376.21 119.602 375.799 119.602C374.333 119.602 373.334 118.953 373.334 118.953L373.489 120.585C373.489 120.585 374.089 120.882 375.881 120.886C377.591 120.88 378.823 119.81 378.823 118.337C378.823 117.205 378.03 116.533 377.35 116.212C376.817 115.96 376.508 115.82 376.044 115.606C375.579 115.393 375.099 115.025 375.099 114.456C375.099 113.846 375.675 113.407 376.52 113.407C377.765 113.407 378.265 113.955 378.571 114.126V112.601ZM390.804 112.246H389.002L389.288 112.955L386.486 120.229L383.597 112.246H381.795L382.081 112.955L379.096 120.711H380.725L381.246 119.235H384.334L384.853 120.711H387.934L388.457 119.235H391.542L392.064 120.711H393.87L390.804 112.246ZM381.652 118.087L382.851 114.773L383.92 118.087H381.652ZM388.861 118.087L390.056 114.773L391.127 118.087H388.861Z" fill="#1A3258"/>
<path d="M396.08 113.726C396.08 113.726 396.432 113.607 396.432 113.291C396.432 112.972 396.109 112.794 395.713 112.794C395.318 112.794 395.077 112.883 395.077 112.883V114.441H395.547V113.872H395.688L396.185 114.435H396.783L396.08 113.726ZM395.766 113.607H395.547V113.089C395.547 113.089 395.937 113.056 395.937 113.31C395.937 113.571 395.764 113.607 395.764 113.607H395.766ZM365.501 102.738L365.579 105.383C365.579 105.383 366.245 104.903 366.992 104.903C367.74 104.903 368.582 105.428 368.582 105.428L375.268 109.229L375.834 106.84L368.582 102.714C368.582 102.714 367.74 102.196 366.992 102.196C366.241 102.196 365.503 102.739 365.503 102.739" fill="#1A3258"/>
<path d="M365.501 99.2799L365.579 101.926C365.579 101.926 366.245 101.446 366.992 101.446C367.74 101.446 368.582 101.968 368.582 101.968L375.989 106.181L376.553 103.792L368.58 99.2566C368.58 99.2566 367.742 98.736 366.992 98.736C366.241 98.736 365.503 99.2799 365.503 99.2799" fill="#1A3258"/>
<path d="M365.501 95.8224L365.579 98.468C365.579 98.468 366.245 97.9863 366.992 97.9863C367.74 97.9863 368.582 98.5107 368.582 98.5107L376.712 103.134L377.276 100.745L368.582 95.7991C368.582 95.7991 367.74 95.2804 366.992 95.2804C366.241 95.2804 365.503 95.8224 365.503 95.8224" fill="#1A3258"/>
<path d="M379.436 91.6131L380.18 94.7346L390.362 100.523C390.362 100.523 391.162 101.044 391.949 101.044C392.737 101.044 393.44 100.5 393.44 100.5L393.362 97.8542C393.362 97.8542 392.725 98.334 391.949 98.334C391.171 98.334 390.362 97.8114 390.362 97.8114L382.486 93.3321L381.941 91.3256C381.941 91.2401 382.019 91.2013 382.049 91.1954L383.381 90.7875C383.561 90.7875 383.665 90.939 383.665 91.0653L383.735 91.209C383.784 91.2343 383.984 91.1391 383.998 91.1313V90.3388C383.998 90.2076 383.972 90.0776 383.921 89.9565C383.87 89.8355 383.795 89.7256 383.701 89.6335C383.606 89.5413 383.495 89.4686 383.372 89.4196C383.249 89.3707 383.118 89.3464 382.985 89.3482H381.653C381.653 89.3482 381.457 88.9014 380.891 88.9014H378.36C377.694 88.9014 377.532 89.5152 377.532 89.5152L375.774 96.4342L368.583 92.3434C368.583 92.3434 367.804 91.819 366.993 91.819C366.182 91.819 365.504 92.3629 365.504 92.3629L365.58 95.0104C365.58 95.0104 366.18 94.5306 366.991 94.5306C367.802 94.5306 368.583 95.0551 368.583 95.0551L377.432 100.084L379.436 91.6131Z" fill="#1A3258"/>
<path d="M380.379 95.5912L381.123 98.7263L390.361 103.979C390.361 103.979 391.188 104.503 391.948 104.503C392.708 104.503 393.439 103.957 393.439 103.957L393.363 101.312C393.363 101.312 392.771 101.792 391.948 101.792C391.125 101.792 390.361 101.271 390.361 101.271L380.379 95.5912Z" fill="#1A3258"/>
<path d="M381.325 99.5869L382.07 102.724L390.362 107.436C390.362 107.436 391.188 107.959 391.948 107.959C392.708 107.959 393.439 107.415 393.439 107.415L393.361 104.769C393.361 104.769 392.773 105.249 391.948 105.249C391.126 105.249 390.362 104.729 390.362 104.729L381.325 99.5869Z" fill="#1A3258"/>
<path d="M382.275 103.586L383.016 106.718L390.362 110.894C390.362 110.894 391.188 111.418 391.948 111.418C392.707 111.418 393.439 110.873 393.439 110.873L393.361 108.229C393.361 108.229 392.773 108.707 391.948 108.707C391.124 108.707 390.362 108.184 390.362 108.184L382.275 103.586Z" fill="#1A3258"/>
</g>
<rect x="326.5" y="73.4014" width="110" height="63" rx="7.5" stroke="#E5E7EB"/>
<g clip-path="url(#clip7_2_948)">
<path d="M43.1341 165.244H16.3398V188.593H43.1341V165.244Z" fill="white"/>
<path d="M54.6622 176.008H55.7302C56.473 176.008 57.2139 176.177 57.2139 177.104C57.2139 177.936 56.4275 178.215 55.7009 178.215H54.6622V176.008ZM50.9229 180.439H56.9316C59.0833 180.439 61.19 180.159 61.19 177.443C61.19 176.364 60.3002 175.192 58.8608 174.991V174.959C60.2398 174.59 60.9969 173.801 60.9969 172.322C60.9969 170.269 59.2322 169.669 57.4376 169.669H50.9229V180.439ZM54.6622 171.706H55.7433C56.4556 171.706 57.1092 171.952 57.1092 172.755C57.1092 173.571 56.3521 173.787 55.6548 173.787H54.6616V171.706H54.6622Z" fill="#003F2D"/>
<path d="M67.2293 177.149C67.2293 177.844 66.8417 178.585 66.0715 178.585C65.4914 178.585 65.196 178.368 65.196 177.813C65.196 176.982 66.0865 176.903 66.8573 176.903H67.2299V177.149H67.2293ZM62.673 174.928C63.4158 174.543 64.3635 174.25 65.2546 174.25C66.1912 174.25 67.2143 174.373 67.2293 175.408C66.8878 175.375 66.2946 175.299 65.7737 175.299C63.918 175.299 61.7832 175.794 61.7832 178.261C61.7832 179.944 63.179 180.624 64.6159 180.624C65.6709 180.624 66.6224 180.191 67.1396 179.28H67.1701V180.439H70.6403V175.547C70.6403 172.615 68.0443 172.213 65.9077 172.213C64.4552 172.213 63.7859 172.352 62.6736 172.676V174.928H62.673Z" fill="#003F2D"/>
<path d="M71.6943 172.399H75.2274V173.787H75.2574C75.7016 172.661 76.7248 172.213 77.7797 172.213C79.7663 172.213 80.4928 173.294 80.4928 174.85V180.438H76.7547V175.808C76.7547 175.345 76.7547 174.712 76.1029 174.712C75.4337 174.712 75.4337 175.345 75.4337 175.808V180.438H71.695V172.399H71.6943Z" fill="#003F2D"/>
<path d="M85.4924 175.591H85.5254L87.6608 172.398H91.8869L89.2766 175.946L91.9928 180.439H87.6315L85.5254 176.534H85.4924V180.439H81.7549V168.865H85.4924V175.591Z" fill="#003F2D"/>
<path d="M16 188.917H43.4174V164.919H16V188.917ZM33.9977 183.725H27.6106V172.463H30.8191V181.733H33.9036C36.0334 181.733 36.9288 180.284 36.9288 176.569C36.9288 172.825 35.91 171.738 33.7503 171.738H26.7158V183.725H23.5373V171.738H18.8782V169.744H34.7367C38.5633 169.744 40.3834 171.676 40.3834 176.539C40.3834 182.94 37.6678 183.725 33.9977 183.725Z" fill="#54B848"/>
</g>
<rect x="0.5" y="145.401" width="107" height="63" rx="7.5" stroke="#E5E7EB"/>
<g clip-path="url(#clip8_2_948)">
<path d="M174.722 189.787C174.722 190.841 174.593 192.59 172.099 192.59C171.573 192.59 170.456 192.587 169.787 191.916C169.361 191.491 169.164 190.81 169.164 189.784V186.082C169.164 185.737 168.945 185.641 168.407 185.641V185.168H171.697V185.641C171.163 185.641 170.944 185.737 170.944 186.082V190.024C170.944 190.916 171.013 191.921 172.37 191.958C173.891 192.008 174.008 190.763 174.008 189.905V186.106C174.008 185.76 173.949 185.638 173.412 185.638H173.224V185.168H175.492V185.641H175.31C174.786 185.641 174.721 185.761 174.721 186.108V189.787H174.722Z" fill="#00447C"/>
<path d="M186.293 192.392H182.643V191.929H182.881C183.437 191.929 183.577 191.705 183.577 191.362V185.795H182.863C182.484 185.795 182.336 185.88 182.212 186.06C182.075 186.254 182.075 186.753 182.067 187.099H181.434V185.168H187.512V187.1H186.875C186.867 186.755 186.867 186.255 186.728 186.061C186.605 185.881 186.454 185.796 186.081 185.796H185.358V191.363C185.358 191.706 185.498 191.93 186.053 191.93H186.294V192.392H186.293Z" fill="#00447C"/>
<path d="M181.302 190.377C181.195 191.563 180.258 192.59 178.363 192.59C177.318 192.59 176.212 192.258 175.788 191.957V190.173H176.443C176.451 190.377 176.451 190.556 176.492 190.803C176.529 190.995 176.584 191.168 176.721 191.327C176.979 191.63 177.468 191.965 178.375 191.98C179.525 192 180.053 191.372 180.045 190.796C180.031 189.97 179.588 189.832 177.993 189.472C176.405 189.105 175.763 188.513 175.771 187.227C175.777 186.026 176.677 184.936 178.595 184.954C179.738 184.967 180.337 185.155 180.871 185.407V187.1H180.227C180.219 186.929 180.207 186.712 180.185 186.498C180.171 186.298 180.108 186.11 179.938 185.969C179.446 185.564 178.802 185.544 178.362 185.562C177.766 185.584 176.979 185.898 176.979 186.572C176.973 187.223 177.241 187.445 178.61 187.724C179.848 187.971 180.36 188.137 180.776 188.556C181.212 189.008 181.373 189.639 181.302 190.377Z" fill="#00447C"/>
<path d="M139.679 189.862C139.524 191.289 138.406 192.587 135.907 192.587C134.539 192.587 133.121 192.16 132.567 191.752V189.355H133.329C133.343 189.628 133.352 189.864 133.395 190.124C133.435 190.368 133.519 190.632 133.678 190.843C134.118 191.39 134.778 191.787 135.901 191.803C137.572 191.823 138.126 190.866 138.117 190.054C138.104 189.044 137.399 188.767 135.504 188.299C133.69 187.851 132.499 187.183 132.489 185.428C132.482 183.761 133.692 182.44 136.155 182.44C137.634 182.44 138.424 182.731 139.08 183.044V185.167H138.366C138.355 184.949 138.346 184.649 138.292 184.399C138.23 184.097 138.061 183.834 137.876 183.707C137.262 183.289 136.685 183.186 135.945 183.218C134.91 183.258 134.071 183.769 134.057 184.626C134.041 185.486 134.378 185.885 136.196 186.277C137.715 186.61 138.525 186.911 139.021 187.394C139.684 188.06 139.787 188.876 139.679 189.862Z" fill="#00447C"/>
<path d="M147.362 185.641C147.898 185.641 147.939 185.737 147.939 186.082V191.457C147.939 191.796 147.877 191.929 147.339 191.929H147.149V192.392H149.434V191.929H149.246C148.71 191.929 148.646 191.796 148.646 191.457V186.934L151.72 192.392H153.448V186.129C153.448 185.786 153.516 185.641 154.055 185.641H154.57V184.838C154.57 184.152 154.627 183.348 155.649 183.348H156.794V191.086C156.794 191.737 156.64 191.93 155.887 191.93H155.633V192.393H159.999V191.93H159.753C158.994 191.93 158.822 191.737 158.822 191.086V183.348H159.959C160.966 183.348 161.025 184.153 161.025 184.838V185.641H161.734C162.28 185.641 162.32 185.761 162.32 186.108V191.467C162.32 191.81 162.089 191.93 161.535 191.93V192.393H164.909V191.93C164.361 191.93 164.123 191.811 164.123 191.467V185.731H165.018C165.719 185.731 166.239 185.984 166.239 187.046C166.239 187.714 165.967 188.474 164.996 188.474H164.462C164.462 188.474 165.797 191.148 166.04 191.641C166.352 192.259 166.746 192.392 167.514 192.392H168.837V191.929C168.651 191.929 168.286 191.903 168.081 191.581L166.503 188.857C167.388 188.673 168.026 187.998 168.026 187.034C168.026 185.261 166.234 185.167 165.067 185.167H161.743V182.617H153.847V185.167H151.95V185.64H152.142C152.678 185.64 152.738 185.78 152.738 186.128V190.596L149.685 185.166H144.88V185.638H145.068C145.608 185.638 145.67 185.734 145.67 186.08V189.904C145.67 190.762 145.55 192.006 144.029 191.957C142.672 191.92 142.601 190.914 142.601 190.022V186.081C142.601 185.736 142.82 185.64 143.357 185.64V185.168H140.062V185.641C140.598 185.641 140.814 185.737 140.814 186.082V189.784C140.814 190.81 141.018 191.491 141.424 191.916C142.108 192.587 143.232 192.59 143.752 192.59C146.231 192.59 146.362 190.841 146.362 189.343V185.631C146.362 185.738 146.404 185.642 146.938 185.642H147.362V185.641Z" fill="#00447C"/>
<path d="M139.342 173.148L139.185 173.58C139.05 173.941 139.032 174.588 139.132 174.932L139.939 179.062C140.002 179.421 140.116 179.57 140.237 179.549C140.368 179.516 140.354 179.244 140.278 178.621L139.669 173.147C139.626 172.802 139.473 172.796 139.342 173.148Z" fill="url(#paint0_linear_2_948)"/>
<path d="M141.051 177.487C141.066 177.843 141.105 178.27 140.982 178.301C140.868 178.324 140.798 178.186 140.739 177.726L140.477 175.288C140.431 174.938 140.491 174.197 140.623 173.938C140.756 173.679 140.879 173.745 140.893 174.093L141.051 177.487Z" fill="url(#paint1_linear_2_948)"/>
<path d="M142.148 169.281L141.834 176.386C141.828 176.709 141.807 177.121 141.685 177.093C141.617 177.077 141.535 176.89 141.529 176.565L141.391 170.733C141.382 170.443 141.494 169.964 141.652 169.674L141.868 169.27C142.025 168.988 142.173 168.992 142.148 169.281Z" fill="url(#paint2_linear_2_948)"/>
<path d="M143.225 170.734L142.737 176.153C142.688 176.536 142.63 176.929 142.516 176.924C142.439 176.922 142.371 176.683 142.41 176.324L142.612 171.673C142.647 171.337 142.875 170.832 143.02 170.574C143.168 170.322 143.279 170.437 143.225 170.734Z" fill="url(#paint3_linear_2_948)"/>
<path d="M143.41 175.769C143.316 175.757 143.312 175.373 143.338 175.112L144.105 167.612C144.147 167.334 144.35 166.908 144.553 166.661L144.626 166.572C144.836 166.321 144.99 166.345 144.933 166.614L143.64 175.12C143.574 175.487 143.525 175.769 143.41 175.769Z" fill="url(#paint4_linear_2_948)"/>
<path d="M145.696 167.856C145.865 167.666 146.145 167.774 146.084 168.043L144.408 175.619C144.347 175.89 144.228 176.308 144.103 176.294C144 176.287 144.007 175.889 144.081 175.567L145.288 168.716C145.347 168.44 145.523 168.042 145.696 167.856Z" fill="url(#paint5_linear_2_948)"/>
<path d="M145.866 175.532C145.745 175.793 145.595 176.169 145.425 176.097C145.302 176.049 145.549 175.457 145.549 175.457L149.707 165.412C149.84 165.12 150.138 164.746 150.462 164.902C150.751 165.041 150.44 165.606 150.326 165.861C147.805 171.475 147.087 172.925 145.866 175.532Z" fill="url(#paint6_linear_2_948)"/>
<path d="M146.802 175.037C146.901 175.112 147.134 174.836 147.316 174.524L154.928 161.966C155.063 161.74 155.14 161.376 154.867 161.241C154.653 161.135 154.285 161.341 154.111 161.647L147.036 174.297C146.829 174.677 146.706 174.961 146.802 175.037Z" fill="url(#paint7_linear_2_948)"/>
<path d="M146.976 176.39C146.877 176.293 147.046 175.983 147.25 175.67L155.379 163.985C155.598 163.654 156.083 163.289 156.38 163.459C156.649 163.614 156.654 163.947 156.426 164.259L147.554 175.892C147.334 176.206 147.08 176.494 146.976 176.39Z" fill="url(#paint8_linear_2_948)"/>
<path d="M149.382 175.036C149.382 175.036 148.844 175.593 148.732 175.468C148.616 175.347 148.835 175.114 149.072 174.814L149.338 174.496L160.697 161.591C160.88 161.37 161.13 161.359 161.37 161.535L161.714 161.954C161.901 162.165 161.888 162.531 161.681 162.736L149.382 175.036Z" fill="url(#paint9_linear_2_948)"/>
<path d="M148.46 177.105C148.372 177.018 148.569 176.757 148.93 176.443L160.99 165.466C161.207 165.245 161.509 165.252 161.704 165.438C161.957 165.677 162.044 165.899 162.085 166.11C162.152 166.457 161.957 166.61 161.71 166.83L149.149 176.736C148.838 177.007 148.563 177.199 148.46 177.105Z" fill="url(#paint10_linear_2_948)"/>
<path d="M150.96 176.123L164.993 166.19C165.261 165.981 165.505 166.029 165.573 166.291L165.898 167.404C165.973 167.679 165.777 168.047 165.49 168.246L151.201 176.447C150.85 176.669 150.485 176.864 150.395 176.741C150.284 176.589 150.637 176.383 150.96 176.123Z" fill="url(#paint11_linear_2_948)"/>
<path d="M149.467 178.208C149.425 178.046 149.796 177.894 150.188 177.695L162.745 171.424C163.085 171.24 163.353 171.333 163.351 171.625L163.408 173.006C163.403 173.308 163.082 173.679 162.692 173.834L150.315 178.099C149.881 178.266 149.504 178.363 149.467 178.208Z" fill="url(#paint12_linear_2_948)"/>
<path d="M164.182 177.019L152.057 178.737C151.582 178.81 151.233 178.885 151.196 178.748C151.155 178.581 151.56 178.48 152.004 178.332L164.583 174.548C164.988 174.415 165.306 174.561 165.268 174.872L165.09 176.298C165.051 176.626 164.647 176.953 164.182 177.019Z" fill="url(#paint13_linear_2_948)"/>
<path d="M150.386 179.903C150.353 179.726 150.956 179.626 151.422 179.578L162.146 178.332C162.625 178.284 163.018 178.537 162.862 178.948L162.645 179.508C162.517 179.867 162.122 180.116 161.625 180.083L151.346 180.088C150.895 180.094 150.421 180.08 150.386 179.903Z" fill="url(#paint14_linear_2_948)"/>
<path d="M148.902 164.152C148.902 164.152 145.797 173.603 145.618 174.112C145.427 174.657 145.242 175.142 145.079 175.101C144.975 175.07 145.057 174.723 145.173 174.305L148.113 164.05C148.253 163.636 148.69 163.279 148.861 163.313C149.171 163.372 148.993 163.89 148.902 164.152Z" fill="url(#paint15_linear_2_948)"/>
</g>
<rect x="116.5" y="145.401" width="87" height="63" rx="7.5" stroke="#E5E7EB"/>
<g clip-path="url(#clip9_2_948)">
<path d="M237.984 172.56L234.857 176.448L239.718 184.391L237.984 172.56Z" fill="#6EC72E"/>
<path d="M246.844 176.783L246.775 176.698L243.003 184.401H252.973L246.844 176.783Z" fill="#6EC72E"/>
<path d="M240.7 184.401L243.139 172.177L240.715 169.166L238.252 172.228L240.677 184.401H240.7Z" fill="#6EC72E"/>
<path d="M234.588 176.783L228.46 184.401H238.321L234.66 176.692L234.588 176.783Z" fill="#6EC72E"/>
<path d="M241.919 184.401L246.529 176.393L243.418 172.524L241.863 184.401H241.919Z" fill="#6EC72E"/>
<path d="M262.55 174.105H261.654V178.599H262.445C263.379 178.599 264.08 178.57 264.552 178.156C265.024 177.74 265.259 177.143 265.259 176.363C265.259 175.879 265.157 175.469 264.954 175.136C264.752 174.8 264.448 174.545 264.043 174.369C263.639 174.193 263.142 174.105 262.55 174.105ZM262.284 179.215H261.654V182.936C261.654 183.358 261.721 183.673 261.857 183.88C261.992 184.088 262.159 184.222 262.354 184.279C262.549 184.337 262.808 184.371 263.136 184.38V184.583H257.502V184.366C258.131 184.366 258.535 184.235 258.714 183.975C258.894 183.712 258.983 183.367 258.983 182.935V175.161C258.983 174.629 258.868 174.254 258.633 174.035C258.399 173.816 258.022 173.707 257.502 173.707V173.49H263.97C264.79 173.49 265.509 173.608 266.127 173.845C266.748 174.082 267.22 174.416 267.546 174.848C267.872 175.281 268.033 175.776 268.033 176.333C268.033 176.786 267.931 177.187 267.723 177.54C267.517 177.891 267.239 178.181 266.888 178.407C266.538 178.634 266.148 178.807 265.717 178.927C266.277 179.253 266.82 179.829 267.347 180.658L268.779 182.907C269.022 183.292 269.249 183.594 269.455 183.805C269.662 184.018 269.843 184.159 270 184.228C270.158 184.294 270.329 184.341 270.513 184.366V184.583H266.792C266.416 183.956 266.127 183.459 265.926 183.087C265.287 181.928 264.821 181.124 264.528 180.671C264.234 180.219 263.932 179.893 263.62 179.693C263.307 179.492 262.766 179.215 262.284 179.215Z" fill="#409629"/>
<path d="M279.234 176.114L279.228 177.967L278.926 177.948C278.835 177.628 278.748 177.42 278.636 177.213C278.525 177.004 278.369 176.845 278.164 176.736C277.962 176.624 277.682 176.569 277.33 176.569H275.175L275.193 180.049L276.838 180.048C277.317 180.048 277.667 179.957 277.886 179.776C278.106 179.594 278.463 179.432 278.499 179.076L278.78 179.079L278.795 181.621H278.461C278.395 181.242 277.982 180.844 277.72 180.716C277.458 180.588 277.145 180.525 276.784 180.525H275.193L275.175 183.088C275.188 184.082 275.756 184.228 276.616 184.228H277.227C277.639 184.228 277.963 184.107 278.222 184.015C278.484 183.922 278.698 183.762 278.868 183.535C279.038 183.31 279.058 182.99 279.195 182.575H279.467L279.461 184.63L271.841 184.628V184.461C272.367 184.461 272.707 184.359 272.859 184.157C273.013 183.954 273.091 183.688 273.091 183.361V177.38C273.091 177.068 273.02 176.803 272.879 176.587C272.739 176.371 272.417 176.263 271.909 176.263H271.841V176.095L279.234 176.114L279.234 176.114Z" fill="#409629"/>
<path d="M290.103 178.763H289.919C289.672 178.163 289.058 177.229 288.484 176.854C287.908 176.479 287.235 176.291 286.47 176.291C285.875 176.291 285.381 176.41 284.986 176.645C284.591 176.88 284.286 177.194 284.067 177.585C283.848 177.976 283.696 178.4 283.611 178.855C283.526 179.311 283.483 179.793 283.483 180.3C283.483 181.557 283.754 182.523 284.295 183.196C284.836 183.871 285.565 184.206 286.48 184.206C287.139 184.206 287.55 184.116 287.714 183.936C287.881 183.755 287.964 183.488 287.964 183.134V182.133C287.964 181.931 287.948 181.755 287.913 181.602C287.88 181.45 287.812 181.434 287.671 181.306C287.527 181.178 287.032 181.107 286.742 181.091V180.907H291.21V181.091C290.636 181.162 290.052 181.36 290.052 181.938V184.053C289.05 184.477 287.918 184.689 286.653 184.689C286.143 184.689 285.682 184.655 285.268 184.592C284.854 184.527 284.487 184.436 284.163 184.321C283.841 184.205 283.569 184.08 283.349 183.944C283.129 183.809 282.918 183.656 282.726 183.488C282.456 183.251 282.216 182.979 282.005 182.674C281.794 182.369 281.622 182.011 281.488 181.604C281.354 181.197 281.287 180.751 281.287 180.264C281.287 179.607 281.413 179.008 281.667 178.466C281.919 177.924 282.276 177.454 282.74 177.054C283.203 176.655 283.733 176.353 284.328 176.144C284.925 175.935 285.556 175.831 286.218 175.831C286.591 175.831 286.943 175.889 287.214 175.946C287.466 175.999 287.913 176.232 288.561 176.412C288.766 176.469 288.984 176.505 289.222 176.505C289.472 176.505 289.837 176.202 289.919 175.901H290.103V178.763Z" fill="#409629"/>
<path d="M293.005 176.067V175.904H297.576V176.079C297.069 176.079 296.741 176.185 296.595 176.399C296.446 176.614 296.372 176.639 296.372 176.989V183.308C296.372 183.51 296.393 183.688 296.432 183.847C296.471 184.006 296.577 184.15 296.746 184.278C296.914 184.406 297.175 184.469 297.522 184.469H297.576V184.643H293.005V184.469C293.507 184.469 293.833 184.364 293.984 184.152C294.133 183.94 294.207 183.659 294.207 183.308V176.989C294.207 176.574 294.11 176.529 293.915 176.344C293.717 176.158 293.414 176.067 293.005 176.067Z" fill="#409629"/>
<path d="M302.09 179.983C302.09 180.586 302.138 181.18 302.237 181.765C302.337 182.35 302.595 182.898 303.01 183.406C303.424 183.915 304.05 184.17 304.884 184.17C306.055 184.17 306.805 183.74 307.133 182.881C307.462 182.022 307.628 181.147 307.628 180.254C307.628 179.559 307.56 178.908 307.428 178.299C307.296 177.692 307.025 177.173 306.616 176.739C306.208 176.307 305.632 176.091 304.884 176.091C304.046 176.091 303.419 176.337 303.006 176.831C302.593 177.322 302.337 177.846 302.237 178.402C302.138 178.956 302.09 179.484 302.09 179.983ZM299.784 180.097C299.784 179.494 299.897 178.917 300.127 178.366C300.353 177.815 300.687 177.332 301.127 176.915C301.568 176.499 302.1 176.175 302.728 175.945C303.355 175.714 304.066 175.597 304.859 175.597C305.66 175.597 306.374 175.715 307.001 175.949C307.628 176.185 308.162 176.512 308.6 176.93C309.038 177.349 309.37 177.832 309.593 178.381C309.818 178.928 309.931 179.514 309.931 180.134C309.931 180.748 309.821 181.329 309.604 181.871C309.385 182.413 309.064 182.894 308.643 183.313C308.22 183.731 307.687 184.06 307.047 184.301C306.407 184.542 305.682 184.663 304.872 184.663C303.999 184.663 303.238 184.527 302.59 184.256C301.94 183.985 301.408 183.626 300.998 183.179C300.586 182.733 300.28 182.241 300.082 181.702C299.884 181.162 299.784 180.628 299.784 180.097Z" fill="#409629"/>
<path d="M314.552 175.893L320.19 181.341V177.385C320.19 176.865 320.002 176.516 319.774 176.325C319.547 176.135 319.368 176.109 318.9 176.046V175.877H322.006V176.046C321.649 176.084 321.492 176.069 321.247 176.214C321.052 176.33 320.964 176.418 320.825 176.633C320.717 176.803 320.695 177.111 320.695 177.369V184.584H320.476L313.543 177.678V182.703C313.543 183.111 313.564 183.568 313.752 183.855C313.941 184.142 314.542 184.194 315.048 184.231V184.401H311.725V184.231C312.659 184.159 312.853 183.736 312.846 182.956V177.122C312.457 176.633 312.323 176.103 311.713 176.074L311.7 175.893H314.552H314.552Z" fill="#409629"/>
<path d="M329.404 177.93H329.146C328.97 177.383 328.691 176.952 328.307 176.638C327.922 176.321 327.164 176.165 326.617 176.165C326.348 176.165 326.102 176.213 325.879 176.31C325.656 176.407 325.48 176.546 325.349 176.726C325.218 176.907 325.154 177.113 325.154 177.348C325.154 177.483 325.179 177.615 325.23 177.746C325.28 177.876 325.402 178.036 325.596 178.227C325.79 178.415 326.085 178.626 326.482 178.856C326.925 179.107 327.194 179.264 327.292 179.331C327.849 179.645 328.467 179.953 328.919 180.283C329.321 180.579 329.479 180.766 329.664 181.081C329.85 181.394 329.943 181.749 329.943 182.144C329.943 182.51 329.864 182.842 329.707 183.141C329.549 183.441 329.417 183.701 329.128 183.921C328.838 184.141 328.493 184.311 328.095 184.433C327.695 184.554 327.262 184.613 326.793 184.613C326.312 184.613 325.754 184.531 325.124 184.366C325.053 184.35 324.964 184.332 324.854 184.313C324.747 184.292 324.652 184.281 324.566 184.281C324.361 184.281 324.21 184.383 324.117 184.581H323.885L323.89 181.959H324.06C324.143 182.428 324.37 183.115 324.664 183.413C324.985 183.739 325.321 183.872 325.671 184.013C326.021 184.152 326.369 184.205 326.703 184.205C327.194 184.205 327.602 184.037 327.923 183.793C328.244 183.547 328.403 183.247 328.403 182.895C328.403 182.658 328.337 182.452 328.201 182.276C328.068 182.098 327.866 181.924 327.598 181.752C327.33 181.58 326.823 181.28 326.08 180.852C325.686 180.623 325.352 180.4 325.077 180.186C324.8 179.972 324.584 179.766 324.43 179.572C324.275 179.375 324.186 179.275 324.053 179.01C323.958 178.826 323.909 178.612 323.884 178.391C323.829 177.912 323.941 177.441 324.186 177.024C324.432 176.61 324.779 176.27 325.23 176.006C325.681 175.743 326.382 175.679 326.961 175.679C327.231 175.679 327.489 175.704 327.735 175.758C327.803 175.765 327.889 175.781 328.001 175.806C328.112 175.829 328.204 175.847 328.278 175.863C328.473 175.894 328.619 175.91 328.717 175.91C328.867 175.91 328.971 175.888 329.031 175.844C329.092 175.801 329.146 175.738 329.201 175.654H329.404V177.93Z" fill="#409629"/>
</g>
<rect x="212.5" y="145.401" width="133" height="63" rx="7.5" stroke="#E5E7EB"/>
<g clip-path="url(#clip10_2_948)">
<path d="M380.55 184.647H381.303V185.414H381.318C381.407 184.993 381.894 184.542 382.38 184.542C382.558 184.542 382.617 184.557 382.676 184.572V185.414C382.573 185.399 382.455 185.369 382.336 185.369C381.79 185.369 381.347 185.85 381.347 186.722V188.603H380.55V184.647ZM379.147 184.873C378.999 184.256 378.63 183.79 377.907 183.79C376.829 183.79 376.371 184.828 376.371 185.88C376.371 186.918 376.829 187.956 377.907 187.956C378.689 187.956 379.118 187.324 379.177 186.527H380.034C379.974 187.835 379.118 188.738 377.907 188.738C376.401 188.738 375.5 187.43 375.5 185.88C375.5 184.316 376.401 183.008 377.907 183.008C379.029 183.023 379.93 183.7 380.034 184.873H379.147Z" fill="#003767"/>
<path d="M375.618 173.007H379.855V174.256H377.272V175.774H379.664V177.023H377.272V179.489H375.618V173.007ZM410.051 184.647H410.805V185.233L410.819 185.249C411.055 184.813 411.469 184.542 411.956 184.542C412.739 184.542 413.24 185.008 413.24 185.895V188.603H412.444V186.12C412.429 185.504 412.207 185.233 411.734 185.233C411.188 185.233 410.849 185.685 410.849 186.272V188.603H410.051V184.647ZM405.961 186.632C405.961 185.414 406.625 184.542 407.793 184.542C408.958 184.542 409.623 185.414 409.623 186.632C409.623 187.835 408.958 188.708 407.793 188.708C406.625 188.708 405.961 187.835 405.961 186.632ZM408.826 186.632C408.826 185.941 408.516 185.233 407.793 185.233C407.069 185.233 406.758 185.941 406.758 186.632C406.758 187.308 407.069 188.031 407.793 188.031C408.516 188.031 408.826 187.308 408.826 186.632ZM404.706 183.143H405.504V183.97H404.706V183.143ZM404.706 184.647H405.504V188.603H404.706V184.647ZM400.823 184.647H401.576V185.233L401.59 185.249C401.827 184.813 402.24 184.542 402.728 184.542C403.51 184.542 404.012 185.008 404.012 185.895V188.603H403.215V186.12C403.2 185.504 402.964 185.233 402.506 185.233C401.959 185.233 401.621 185.685 401.621 186.272V188.603H400.823V184.647ZM396.039 183.143H396.925V186.332C396.925 187.068 396.969 187.91 398.106 187.91C399.243 187.91 399.288 187.068 399.288 186.332V183.143H400.159V186.647C400.159 188.046 399.346 188.738 398.106 188.738C396.866 188.738 396.039 188.046 396.039 186.647V183.143ZM391.86 184.647H392.465V183.459H393.263V184.647H393.986V185.294H393.263V187.415C393.263 187.775 393.292 187.956 393.647 187.956C393.765 187.956 393.868 187.956 393.986 187.925V188.603C393.809 188.618 393.647 188.648 393.469 188.648C392.628 188.648 392.48 188.287 392.465 187.64V185.294H391.86V184.647ZM390.723 183.143H391.521V183.97H390.723V183.143ZM390.723 184.647H391.521V188.603H390.723V184.647ZM390.014 188.603H389.247V188.076H389.232C389.025 188.527 388.568 188.708 388.11 188.708C386.958 188.708 386.412 187.79 386.412 186.602C386.412 185.173 387.194 184.542 387.977 184.542C388.435 184.542 388.951 184.722 389.187 185.158H389.203V183.143H390.014V188.603ZM388.213 188.031C388.937 188.031 389.232 187.308 389.232 186.632C389.232 185.745 388.848 185.233 388.228 185.233C387.475 185.233 387.209 185.956 387.209 186.677C387.209 187.354 387.519 188.031 388.213 188.031ZM383.473 186.858C383.473 187.475 383.783 188.031 384.448 188.031C384.92 188.031 385.2 187.806 385.334 187.369H386.102C385.924 188.226 385.245 188.708 384.448 188.708C383.311 188.708 382.676 187.85 382.676 186.632C382.676 185.504 383.355 184.542 384.433 184.542C385.585 184.542 386.279 185.67 386.146 186.858H383.473ZM385.348 186.287C385.319 185.73 384.979 185.233 384.433 185.233C383.872 185.233 383.503 185.685 383.473 186.287H385.348Z" fill="#003767"/>
<path d="M375.618 165.788H377.907L379.93 170.646L379.9 165.788H381.347V172.301H379.118L377.065 167.248L377.08 172.301H375.618V165.788ZM408.87 172.992H410.553V178.211H413.226V179.489H408.87V172.992ZM404.323 172.992H406.345L408.693 179.489H406.833L406.419 178.181H404.027L403.614 179.489H401.959L404.323 172.992ZM406.035 176.993L405.267 174.256H405.238L404.411 176.993H406.035ZM396.645 172.992H399.42C400.483 172.992 400.897 173.052 401.251 173.459C401.428 173.654 401.665 174.015 401.665 174.722C401.665 175.428 401.399 175.729 401.118 175.925C400.734 176.181 400.38 176.225 400.203 176.255V176.3C401.369 176.331 401.428 176.887 401.561 177.895C401.621 178.331 401.709 179.038 401.842 179.489H400.055C399.951 179.098 399.907 178.602 399.849 178.03C399.775 177.233 399.76 176.948 399.007 176.948H398.312V179.489H396.645V172.992ZM398.312 175.774H398.933C399.302 175.774 399.479 175.774 399.627 175.729C399.982 175.594 400.055 175.188 400.055 174.993C400.055 174.18 399.42 174.18 398.933 174.18H398.312V175.774ZM391.668 173.007H396.142V174.256H393.292V175.594H395.979V176.842H393.292V178.226H396.216V179.489H391.668V173.007ZM385.319 172.992H387.844C388.553 172.992 389.497 173.068 390.118 173.533C391.003 174.18 391.24 175.264 391.24 176.225C391.24 177.67 390.826 178.722 389.616 179.233C389.01 179.489 388.272 179.489 387.858 179.489H385.319V172.992ZM387.017 178.241H387.726C388.833 178.226 389.542 177.714 389.542 176.21C389.542 174.225 388.183 174.225 387.666 174.225H387.017V178.241ZM380.269 173.007H384.758V174.256H381.908V175.594H384.596V176.842H381.908V178.226H384.831V179.489H380.269V173.007Z" fill="#003767"/>
<path d="M384.152 165.788H386.175L388.538 172.301H386.662L386.249 170.992H383.857L383.458 172.301H381.805L384.152 165.788ZM385.865 169.789L385.098 167.067H385.068L384.241 169.789H385.865Z" fill="#003767"/>
<path d="M387.298 165.788H389.129L390.487 170.511L391.92 165.788H393.559L391.388 172.301H389.41L387.298 165.788Z" fill="#003767"/>
<path d="M375.618 181.955H413.226V180.241H375.618V181.955ZM395.419 165.788L396.718 168.526L398.076 165.788H399.775L397.441 170V172.301H395.773V169.925L393.499 165.788H395.419Z" fill="#003767"/>
<path d="M414.555 180.09C415.057 180.09 415.441 180.497 415.441 181.007C415.441 181.52 415.057 181.925 414.555 181.925C414.067 181.925 413.669 181.52 413.669 181.007C413.669 180.497 414.067 180.09 414.555 180.09ZM414.555 180.226C414.156 180.226 413.831 180.572 413.831 181.007C413.831 181.444 414.156 181.79 414.555 181.79C414.954 181.79 415.279 181.444 415.279 181.007C415.279 180.572 414.954 180.226 414.555 180.226ZM414.392 181.535H414.231V180.512C414.319 180.512 414.392 180.497 414.511 180.497C414.658 180.497 414.762 180.527 414.821 180.572C414.879 180.617 414.91 180.677 414.91 180.782C414.91 180.918 414.835 180.993 414.717 181.023V181.038C414.806 181.053 414.866 181.128 414.894 181.278C414.91 181.444 414.938 181.504 414.954 181.535H414.791C414.762 181.504 414.732 181.414 414.717 181.278C414.688 181.143 414.629 181.098 414.496 181.098H414.392V181.535ZM414.392 180.978H414.511C414.644 180.978 414.746 180.918 414.746 180.797C414.746 180.707 414.688 180.617 414.511 180.617C414.451 180.617 414.422 180.617 414.392 180.632V180.978ZM409.742 168.707C409.742 166.721 408.25 165.097 406.345 164.931C406.242 164.916 406.124 164.901 406.02 164.901C405.917 164.901 405.814 164.916 405.71 164.931C404.662 165.022 403.702 165.548 403.052 166.405L402.994 166.495L402.92 166.601C402.52 167.218 402.3 167.939 402.3 168.707C402.3 170.676 403.791 172.301 405.681 172.481C405.799 172.496 405.902 172.496 406.02 172.496C406.124 172.496 406.242 172.496 406.345 172.481C408.25 172.301 409.742 170.676 409.742 168.707ZM407.718 171.503H407.202C407.349 171.203 407.468 170.842 407.571 170.451H408.427C408.25 170.856 408.014 171.218 407.718 171.503ZM403.599 170.451H404.47C404.558 170.842 404.677 171.203 404.825 171.503H404.308C404.027 171.218 403.776 170.856 403.599 170.451ZM402.536 168.827H403.008C403.023 169.308 403.111 169.774 403.259 170.21H402.861C402.669 169.789 402.55 169.308 402.536 168.827ZM403.643 166.872C403.821 166.495 404.042 166.165 404.308 165.909H404.839C404.721 166.134 404.618 166.405 404.529 166.691L404.47 166.932C404.47 166.932 404.47 166.947 404.47 166.962H403.599C403.614 166.932 403.628 166.902 403.643 166.872ZM408.427 166.962H407.571C407.468 166.556 407.349 166.21 407.202 165.909H407.718C408.014 166.195 408.25 166.556 408.427 166.962ZM409.505 168.586H409.018C409.003 168.09 408.929 167.623 408.781 167.203H409.166C409.372 167.623 409.476 168.09 409.505 168.586ZM408.781 168.586H407.748C407.748 168.09 407.704 167.623 407.615 167.203H408.53C408.678 167.623 408.766 168.09 408.781 168.586ZM404.736 166.872C404.825 166.495 404.957 166.165 405.105 165.909H405.902V166.962H404.706C404.721 166.932 404.721 166.902 404.736 166.872ZM404.957 165.669H404.588C404.795 165.503 405.016 165.383 405.238 165.293C405.149 165.398 405.047 165.518 404.957 165.669ZM405.902 165.157V165.669H405.238C405.444 165.383 405.666 165.202 405.902 165.157ZM406.138 165.669V165.157C406.375 165.202 406.596 165.383 406.788 165.669H406.138ZM406.935 165.909C407.083 166.195 407.216 166.556 407.319 166.962H406.138V165.909H406.935ZM405.902 167.203V168.586H404.514C404.514 168.105 404.573 167.639 404.662 167.203H405.902ZM405.902 168.827V170.21H404.662C404.573 169.789 404.514 169.308 404.514 168.827H405.902ZM405.902 170.451V171.503H405.105C404.942 171.218 404.81 170.856 404.706 170.451H405.902ZM405.902 171.744V172.241C405.666 172.195 405.444 172.03 405.253 171.744H405.902ZM406.138 171.744H406.788C406.596 172.03 406.375 172.195 406.138 172.241V171.744ZM406.138 171.503V170.451H407.319C407.216 170.856 407.083 171.218 406.935 171.503H406.138ZM406.138 170.21V168.827H407.512C407.512 169.308 407.468 169.789 407.379 170.21H406.138ZM406.138 168.586V167.203H407.379C407.468 167.623 407.512 168.09 407.512 168.586H406.138ZM407.069 165.669C406.98 165.518 406.892 165.398 406.788 165.293C407.024 165.368 407.246 165.503 407.452 165.669H407.069ZM404.412 167.203C404.337 167.639 404.292 168.105 404.278 168.586H403.244C403.259 168.105 403.348 167.623 403.51 167.203H404.412ZM403.008 168.586H402.536C402.55 168.105 402.654 167.623 402.861 167.203H403.259C403.111 167.639 403.023 168.105 403.008 168.586ZM403.244 168.827H404.278C404.278 169.308 404.337 169.789 404.412 170.21H403.51C403.348 169.789 403.259 169.308 403.244 168.827ZM404.957 171.744C405.047 171.88 405.149 172.015 405.253 172.12C405.002 172.03 404.78 171.91 404.573 171.744H404.957ZM407.069 171.744H407.452C407.246 171.91 407.024 172.03 406.788 172.12C406.892 172.015 406.98 171.88 407.069 171.744ZM407.615 170.21C407.704 169.789 407.748 169.308 407.748 168.827H408.781C408.766 169.308 408.678 169.789 408.53 170.21H407.615ZM409.018 168.827H409.505C409.476 169.308 409.372 169.789 409.166 170.21H408.781C408.929 169.774 409.003 169.308 409.018 168.827ZM409.047 166.962H408.678C408.516 166.556 408.309 166.21 408.043 165.909H408.162C408.516 166.195 408.826 166.556 409.047 166.962ZM403.879 165.909H403.983C403.791 166.119 403.628 166.375 403.481 166.661L403.421 166.766L403.377 166.887C403.363 166.902 403.363 166.932 403.348 166.962H402.979C403.038 166.857 403.111 166.736 403.185 166.646C403.377 166.36 403.614 166.104 403.879 165.909ZM402.979 170.451H403.348C403.51 170.842 403.732 171.203 403.983 171.503H403.879C403.51 171.218 403.215 170.856 402.979 170.451ZM408.162 171.503H408.043C408.309 171.203 408.516 170.842 408.678 170.451H409.047C408.826 170.856 408.516 171.218 408.162 171.503Z" fill="#003767"/>
</g>
<rect x="354.5" y="145.401" width="82" height="63" rx="7.5" stroke="#E5E7EB"/>
<defs>
<linearGradient id="paint0_linear_2_948" x1="138.843" y1="177.439" x2="152.707" y2="160.758" gradientUnits="userSpaceOnUse">
<stop offset="0.3427" stop-color="#FDB913"/>
<stop offset="0.3656" stop-color="#FBB415"/>
<stop offset="0.5519" stop-color="#EF941B"/>
<stop offset="0.7247" stop-color="#E8801D"/>
<stop offset="0.8776" stop-color="#E4741E"/>
<stop offset="0.9944" stop-color="#E36F1E"/>
</linearGradient>
<linearGradient id="paint1_linear_2_948" x1="139.313" y1="177.874" x2="153.125" y2="161.255" gradientUnits="userSpaceOnUse">
<stop offset="0.3427" stop-color="#FDB913"/>
<stop offset="0.3656" stop-color="#FBB415"/>
<stop offset="0.5519" stop-color="#EF941B"/>
<stop offset="0.7247" stop-color="#E8801D"/>
<stop offset="0.8776" stop-color="#E4741E"/>
<stop offset="0.9944" stop-color="#E36F1E"/>
</linearGradient>
<linearGradient id="paint2_linear_2_948" x1="138.415" y1="177.159" x2="152.176" y2="160.6" gradientUnits="userSpaceOnUse">
<stop offset="0.3427" stop-color="#FDB913"/>
<stop offset="0.3656" stop-color="#FBB415"/>
<stop offset="0.5519" stop-color="#EF941B"/>
<stop offset="0.7247" stop-color="#E8801D"/>
<stop offset="0.8776" stop-color="#E4741E"/>
<stop offset="0.9944" stop-color="#E36F1E"/>
</linearGradient>
<linearGradient id="paint3_linear_2_948" x1="139.264" y1="177.896" x2="152.992" y2="161.378" gradientUnits="userSpaceOnUse">
<stop offset="0.3427" stop-color="#FDB913"/>
<stop offset="0.3656" stop-color="#FBB415"/>
<stop offset="0.5519" stop-color="#EF941B"/>
<stop offset="0.7247" stop-color="#E8801D"/>
<stop offset="0.8776" stop-color="#E4741E"/>
<stop offset="0.9944" stop-color="#E36F1E"/>
</linearGradient>
<linearGradient id="paint4_linear_2_948" x1="138.709" y1="177.459" x2="152.407" y2="160.977" gradientUnits="userSpaceOnUse">
<stop offset="0.3427" stop-color="#FDB913"/>
<stop offset="0.3656" stop-color="#FBB415"/>
<stop offset="0.5519" stop-color="#EF941B"/>
<stop offset="0.7247" stop-color="#E8801D"/>
<stop offset="0.8776" stop-color="#E4741E"/>
<stop offset="0.9944" stop-color="#E36F1E"/>
</linearGradient>
<linearGradient id="paint5_linear_2_948" x1="139.667" y1="178.276" x2="153.33" y2="161.837" gradientUnits="userSpaceOnUse">
<stop offset="0.3427" stop-color="#FDB913"/>
<stop offset="0.3656" stop-color="#FBB415"/>
<stop offset="0.5519" stop-color="#EF941B"/>
<stop offset="0.7247" stop-color="#E8801D"/>
<stop offset="0.8776" stop-color="#E4741E"/>
<stop offset="0.9944" stop-color="#E36F1E"/>
</linearGradient>
<linearGradient id="paint6_linear_2_948" x1="140.574" y1="179.036" x2="154.141" y2="162.713" gradientUnits="userSpaceOnUse">
<stop offset="0.3427" stop-color="#FDB913"/>
<stop offset="0.3656" stop-color="#FBB415"/>
<stop offset="0.5519" stop-color="#EF941B"/>
<stop offset="0.7247" stop-color="#E8801D"/>
<stop offset="0.8776" stop-color="#E4741E"/>
<stop offset="0.9944" stop-color="#E36F1E"/>
</linearGradient>
<linearGradient id="paint7_linear_2_948" x1="141.09" y1="179.467" x2="154.611" y2="163.198" gradientUnits="userSpaceOnUse">
<stop offset="0.3427" stop-color="#FDB913"/>
<stop offset="0.3656" stop-color="#FBB415"/>
<stop offset="0.5519" stop-color="#EF941B"/>
<stop offset="0.7247" stop-color="#E8801D"/>
<stop offset="0.8776" stop-color="#E4741E"/>
<stop offset="0.9944" stop-color="#E36F1E"/>
</linearGradient>
<linearGradient id="paint8_linear_2_948" x1="142.44" y1="180.599" x2="155.921" y2="164.38" gradientUnits="userSpaceOnUse">
<stop offset="0.3427" stop-color="#FDB913"/>
<stop offset="0.3656" stop-color="#FBB415"/>
<stop offset="0.5519" stop-color="#EF941B"/>
<stop offset="0.7247" stop-color="#E8801D"/>
<stop offset="0.8776" stop-color="#E4741E"/>
<stop offset="0.9944" stop-color="#E36F1E"/>
</linearGradient>
<linearGradient id="paint9_linear_2_948" x1="144.152" y1="182.024" x2="157.591" y2="165.855" gradientUnits="userSpaceOnUse">
<stop offset="0.3427" stop-color="#FDB913"/>
<stop offset="0.3656" stop-color="#FBB415"/>
<stop offset="0.5519" stop-color="#EF941B"/>
<stop offset="0.7247" stop-color="#E8801D"/>
<stop offset="0.8776" stop-color="#E4741E"/>
<stop offset="0.9944" stop-color="#E36F1E"/>
</linearGradient>
<linearGradient id="paint10_linear_2_948" x1="145.536" y1="183.181" x2="158.93" y2="167.065" gradientUnits="userSpaceOnUse">
<stop offset="0.3427" stop-color="#FDB913"/>
<stop offset="0.3656" stop-color="#FBB415"/>
<stop offset="0.5519" stop-color="#EF941B"/>
<stop offset="0.7247" stop-color="#E8801D"/>
<stop offset="0.8776" stop-color="#E4741E"/>
<stop offset="0.9944" stop-color="#E36F1E"/>
</linearGradient>
<linearGradient id="paint11_linear_2_948" x1="147.48" y1="184.801" x2="160.829" y2="168.74" gradientUnits="userSpaceOnUse">
<stop offset="0.3427" stop-color="#FDB913"/>
<stop offset="0.3656" stop-color="#FBB415"/>
<stop offset="0.5519" stop-color="#EF941B"/>
<stop offset="0.7247" stop-color="#E8801D"/>
<stop offset="0.8776" stop-color="#E4741E"/>
<stop offset="0.9944" stop-color="#E36F1E"/>
</linearGradient>
<linearGradient id="paint12_linear_2_948" x1="148.209" y1="185.391" x2="161.489" y2="169.412" gradientUnits="userSpaceOnUse">
<stop offset="0.3427" stop-color="#FDB913"/>
<stop offset="0.3656" stop-color="#FBB415"/>
<stop offset="0.5519" stop-color="#EF941B"/>
<stop offset="0.7247" stop-color="#E8801D"/>
<stop offset="0.8776" stop-color="#E4741E"/>
<stop offset="0.9944" stop-color="#E36F1E"/>
</linearGradient>
<linearGradient id="paint13_linear_2_948" x1="150.149" y1="186.998" x2="163.344" y2="171.122" gradientUnits="userSpaceOnUse">
<stop offset="0.3427" stop-color="#FDB913"/>
<stop offset="0.3656" stop-color="#FBB415"/>
<stop offset="0.5519" stop-color="#EF941B"/>
<stop offset="0.7247" stop-color="#E8801D"/>
<stop offset="0.8776" stop-color="#E4741E"/>
<stop offset="0.9944" stop-color="#E36F1E"/>
</linearGradient>
<linearGradient id="paint14_linear_2_948" x1="150.278" y1="187.087" x2="163.364" y2="171.341" gradientUnits="userSpaceOnUse">
<stop offset="0.3427" stop-color="#FDB913"/>
<stop offset="0.3656" stop-color="#FBB415"/>
<stop offset="0.5519" stop-color="#EF941B"/>
<stop offset="0.7247" stop-color="#E8801D"/>
<stop offset="0.8776" stop-color="#E4741E"/>
<stop offset="0.9944" stop-color="#E36F1E"/>
</linearGradient>
<linearGradient id="paint15_linear_2_948" x1="139.397" y1="178.056" x2="153.012" y2="161.673" gradientUnits="userSpaceOnUse">
<stop offset="0.3427" stop-color="#FDB913"/>
<stop offset="0.3656" stop-color="#FBB415"/>
<stop offset="0.5519" stop-color="#EF941B"/>
<stop offset="0.7247" stop-color="#E8801D"/>
<stop offset="0.8776" stop-color="#E4741E"/>
<stop offset="0.9944" stop-color="#E36F1E"/>
</linearGradient>
<clipPath id="clip0_2_948">
<rect width="89" height="16" fill="white" transform="translate(16 24.9014)"/>
</clipPath>
<clipPath id="clip1_2_948">
<rect width="74" height="32" fill="white" transform="translate(145 16.9014)"/>
</clipPath>
<clipPath id="clip2_2_948">
<rect width="60" height="16" fill="white" transform="translate(259 24.9014)"/>
</clipPath>
<clipPath id="clip3_2_948">
<rect width="42" height="28" fill="white" transform="translate(16 90.9014)"/>
</clipPath>
<clipPath id="clip4_2_948">
<rect width="93" height="24" fill="white" transform="translate(98 92.9014)"/>
</clipPath>
<clipPath id="clip5_2_948">
<rect width="71" height="24" fill="white" transform="translate(231 92.9014)"/>
</clipPath>
<clipPath id="clip6_2_948">
<rect width="32" height="32" fill="white" transform="translate(365.5 88.9014)"/>
</clipPath>
<clipPath id="clip7_2_948">
<rect width="76" height="24" fill="white" transform="translate(16 164.901)"/>
</clipPath>
<clipPath id="clip8_2_948">
<rect width="56" height="32" fill="white" transform="translate(132 160.901)"/>
</clipPath>
<clipPath id="clip9_2_948">
<rect width="102" height="16" fill="white" transform="translate(228 168.901)"/>
</clipPath>
<clipPath id="clip10_2_948">
<rect width="40" height="24" fill="white" transform="translate(375.5 164.901)"/>
</clipPath>
</defs>
</svg>
