<svg width="24" height="25" viewBox="0 0 24 25" fill="none" xmlns="http://www.w3.org/2000/svg">
<path fill-rule="evenodd" clip-rule="evenodd" d="M15.75 24.229C13.316 24.229 11.25 22.913 11.25 20.479V16.729H20.25V20.479C20.25 21.267 19.643 24.229 15.75 24.229Z" stroke="black" stroke-width="1.5" stroke-linecap="round" stroke-linejoin="round"/>
<path d="M8.25 13.729L6.75 16.729" stroke="black" stroke-width="1.5" stroke-linecap="round" stroke-linejoin="round"/>
<path d="M11.25 13.729H2.25C1.42157 13.729 0.75 13.0574 0.75 12.229V3.229C0.75 2.40058 1.42157 1.729 2.25 1.729H18C18.8284 1.729 19.5 2.40058 19.5 3.229V7.729" stroke="black" stroke-width="1.5" stroke-linecap="round" stroke-linejoin="round"/>
<path d="M5.25 16.729H8.25" stroke="black" stroke-width="1.5" stroke-linecap="round" stroke-linejoin="round"/>
<path d="M3.75 10.729H11.25" stroke="black" stroke-width="1.5" stroke-linecap="round" stroke-linejoin="round"/>
<path d="M5.25 10.729V8.479" stroke="black" stroke-width="1.5" stroke-linecap="round" stroke-linejoin="round"/>
<path d="M8.25 10.729V6.979" stroke="black" stroke-width="1.5" stroke-linecap="round" stroke-linejoin="round"/>
<path d="M11.25 10.729V4.729" stroke="black" stroke-width="1.5" stroke-linecap="round" stroke-linejoin="round"/>
<path d="M14.277 11.184C13.177 12.284 15.366 12.655 14.292 13.729" stroke="black" stroke-width="1.5" stroke-linecap="round" stroke-linejoin="round"/>
<path d="M17.441 9.26898C15.529 11.18 19.341 11.83 17.467 13.701" stroke="black" stroke-width="1.5" stroke-linecap="round" stroke-linejoin="round"/>
<path d="M20.25 17.479H21C22.2426 17.479 23.25 18.4864 23.25 19.729C23.25 20.9716 22.2426 21.979 21 21.979H19.867" stroke="black" stroke-width="1.5" stroke-linecap="round" stroke-linejoin="round"/>
</svg>
