<svg width="24" height="25" viewBox="0 0 24 25" fill="none" xmlns="http://www.w3.org/2000/svg">
<path fill-rule="evenodd" clip-rule="evenodd" d="M17.931 23.32H6.06896L4.52696 16.6297C4.45839 16.3367 4.51842 16.0294 4.69296 15.7801C4.85202 15.5457 5.12157 15.4019 5.41296 15.3961H18.587C18.8784 15.4019 19.1479 15.5457 19.307 15.7801C19.4815 16.0294 19.5415 16.3367 19.473 16.6297L17.931 23.32Z" stroke="black" stroke-width="1.5" stroke-linecap="round" stroke-linejoin="round"/>
<path d="M0.75 23.3199H23.25" stroke="black" stroke-width="1.5" stroke-linecap="round" stroke-linejoin="round"/>
<path fill-rule="evenodd" clip-rule="evenodd" d="M12 20.44C12.8284 20.44 13.5 19.7953 13.5 19C13.5 18.2047 12.8284 17.56 12 17.56C11.1716 17.56 10.5 18.2047 10.5 19C10.5 19.7953 11.1716 20.44 12 20.44Z" stroke="black" stroke-width="1.5" stroke-linecap="round" stroke-linejoin="round"/>
<path d="M8.44495 3.66974C9.73583 4.95459 11.5155 5.68025 13.3749 5.67998C14.3078 5.68061 15.231 5.49832 16.0879 5.1443" stroke="black" stroke-width="1.5" stroke-linecap="round" stroke-linejoin="round"/>
<path fill-rule="evenodd" clip-rule="evenodd" d="M12 9.63997C14.2782 9.63997 16.125 7.86702 16.125 5.67997C16.125 3.49292 14.2782 1.71997 12 1.71997C9.72183 1.71997 7.875 3.49292 7.875 5.67997C7.875 7.86702 9.72183 9.63997 12 9.63997Z" stroke="black" stroke-width="1.5" stroke-linecap="round" stroke-linejoin="round"/>
<path d="M17 13.24C15.7328 11.865 13.9123 11.0778 12 11.0778C10.0877 11.0778 8.26716 11.865 7 13.24" stroke="black" stroke-width="1.5" stroke-linecap="round" stroke-linejoin="round"/>
</svg>
