<svg width="24" height="24" viewBox="0 0 24 24" fill="none" xmlns="http://www.w3.org/2000/svg">
<path d="M7.59802 22.32V18.5635" stroke="black" stroke-width="1.5" stroke-linecap="round" stroke-linejoin="round"/>
<path d="M13.467 22.32V18.5635" stroke="black" stroke-width="1.5" stroke-linecap="round" stroke-linejoin="round"/>
<path d="M5.64099 18.5635H15.424" stroke="black" stroke-width="1.5" stroke-linecap="round" stroke-linejoin="round"/>
<path d="M0.75 22.32V6.67966C0.776455 6.14782 1.2459 5.73664 1.8 5.75998H10.2C10.7541 5.73664 11.2235 6.14782 11.25 6.67966V15.12" stroke="black" stroke-width="1.5" stroke-linecap="round" stroke-linejoin="round"/>
<path fill-rule="evenodd" clip-rule="evenodd" d="M8.25 3.35998C8.23176 3.07896 7.98085 2.86467 7.688 2.87998H4.313C4.01977 2.86412 3.76824 3.07857 3.75 3.35998V5.75998H8.25V3.35998Z" stroke="black" stroke-width="1.5" stroke-linecap="round" stroke-linejoin="round"/>
<path d="M5.97705 2.59774L6.00005 0.876465" stroke="black" stroke-width="1.5" stroke-linecap="round" stroke-linejoin="round"/>
<path d="M3.75 9.35999H8.25" stroke="black" stroke-width="1.5" stroke-linecap="round" stroke-linejoin="round"/>
<path d="M3.75 13.68H8.25" stroke="black" stroke-width="1.5" stroke-linecap="round" stroke-linejoin="round"/>
<path d="M0.75 22.32H23.25" stroke="black" stroke-width="1.5" stroke-linecap="round" stroke-linejoin="round"/>
<path fill-rule="evenodd" clip-rule="evenodd" d="M19.5 15.84C21.5711 15.84 23.25 14.2282 23.25 12.24C23.25 10.2518 21.5711 8.64001 19.5 8.64001C17.4289 8.64001 15.75 10.2518 15.75 12.24C15.75 14.2282 17.4289 15.84 19.5 15.84Z" stroke="black" stroke-width="1.5" stroke-linecap="round" stroke-linejoin="round"/>
<path d="M19.5 22.32V12.96" stroke="black" stroke-width="1.5" stroke-linecap="round" stroke-linejoin="round"/>
</svg>
