<svg width="24" height="25" viewBox="0 0 24 25" fill="none" xmlns="http://www.w3.org/2000/svg">
<path d="M0.75 24.238V15.238" stroke="black" stroke-width="1.5" stroke-linecap="round" stroke-linejoin="round"/>
<path fill-rule="evenodd" clip-rule="evenodd" d="M14.25 15.238H23.25V23.738C23.25 24.0141 23.0261 24.238 22.75 24.238H14.75C14.4739 24.238 14.25 24.0141 14.25 23.738V15.238Z" stroke="black" stroke-width="1.5" stroke-linecap="round" stroke-linejoin="round"/>
<path fill-rule="evenodd" clip-rule="evenodd" d="M1.25 12.238H22.75C23.0261 12.238 23.25 12.4618 23.25 12.738V15.238H0.75V12.738C0.75 12.4618 0.973858 12.238 1.25 12.238Z" stroke="black" stroke-width="1.5" stroke-linecap="round" stroke-linejoin="round"/>
<path d="M14.25 19.738H23.25" stroke="black" stroke-width="1.5" stroke-linecap="round" stroke-linejoin="round"/>
<path fill-rule="evenodd" clip-rule="evenodd" d="M3.75 3.23798C3.75 2.40955 4.42157 1.73798 5.25 1.73798H14.25C15.0784 1.73798 15.75 2.40955 15.75 3.23798V7.73798C15.75 8.5664 15.0784 9.23798 14.25 9.23798H5.25C4.42157 9.23798 3.75 8.5664 3.75 7.73798V3.23798Z" stroke="black" stroke-width="1.5" stroke-linecap="round" stroke-linejoin="round"/>
<path d="M9.75 9.23798V12.238" stroke="black" stroke-width="1.5" stroke-linecap="round" stroke-linejoin="round"/>
</svg>
