<svg width="24" height="24" viewBox="0 0 24 24" fill="none" xmlns="http://www.w3.org/2000/svg">
<path fill-rule="evenodd" clip-rule="evenodd" d="M18 14.25C18 15.0784 17.3284 15.75 16.5 15.75H7.5C6.67157 15.75 6 15.0784 6 14.25C6 13.4216 6.67157 12.75 7.5 12.75H16.5C17.3284 12.75 18 13.4216 18 14.25Z" stroke="black" stroke-width="1.5" stroke-linecap="round" stroke-linejoin="round"/>
<path d="M12 15.75V23.25" stroke="black" stroke-width="1.5" stroke-linecap="round" stroke-linejoin="round"/>
<path d="M5.46301 23.25C6.41226 20.4733 9.06744 18.6455 12 18.75C14.9324 18.6462 17.5872 20.4737 18.537 23.25" stroke="black" stroke-width="1.5" stroke-linecap="round" stroke-linejoin="round"/>
<path d="M3 9.75V12.75C3 14.4069 4.34315 15.75 6 15.75H7.5" stroke="black" stroke-width="1.5" stroke-linecap="round" stroke-linejoin="round"/>
<path d="M1.5 9.75H4.5" stroke="black" stroke-width="1.5" stroke-linecap="round" stroke-linejoin="round"/>
<path d="M21 9.75V12.75C21 14.4069 19.6569 15.75 18 15.75H16.5" stroke="black" stroke-width="1.5" stroke-linecap="round" stroke-linejoin="round"/>
<path d="M22.5 9.75H19.5" stroke="black" stroke-width="1.5" stroke-linecap="round" stroke-linejoin="round"/>
<path fill-rule="evenodd" clip-rule="evenodd" d="M16.5 5.25C16.5 2.76472 14.4853 0.75 12 0.75C9.51472 0.75 7.5 2.76472 7.5 5.25V12.75H16.5V5.25Z" stroke="black" stroke-width="1.5" stroke-linecap="round" stroke-linejoin="round"/>
</svg>
