<svg width="24" height="24" viewBox="0 0 24 24" fill="none" xmlns="http://www.w3.org/2000/svg">
<path d="M11.016 11.859L15.183 7.69202" stroke="black" stroke-width="1.5" stroke-linecap="round" stroke-linejoin="round"/>
<path fill-rule="evenodd" clip-rule="evenodd" d="M15.183 7.692L15.751 3.942L18.999 0.75L19.501 3.374L22.125 3.876L18.933 7.124L15.183 7.692V7.692Z" stroke="black" stroke-width="1.5" stroke-linecap="round" stroke-linejoin="round"/>
<path d="M21.055 9.51302C22.1428 13.6365 20.4245 17.9884 16.8132 20.2566C13.2019 22.5247 8.53558 22.1827 5.29352 19.4123C2.05145 16.6419 0.986028 12.086 2.66332 8.16519C4.34061 4.24437 8.37137 1.86854 12.614 2.30002" stroke="black" stroke-width="1.5" stroke-linecap="round" stroke-linejoin="round"/>
<path d="M16.722 10.737C17.2613 12.9114 16.3617 15.1884 14.4819 16.4071C12.6021 17.6257 10.1562 17.5176 8.39133 16.1379C6.62641 14.7581 5.9312 12.4106 6.66018 10.2923C7.38916 8.174 9.38176 6.75145 11.622 6.75" stroke="black" stroke-width="1.5" stroke-linecap="round" stroke-linejoin="round"/>
<path d="M6.51599 20.25L5.76599 23.25" stroke="black" stroke-width="1.5" stroke-linecap="round" stroke-linejoin="round"/>
<path d="M17.016 20.25L17.766 23.25" stroke="black" stroke-width="1.5" stroke-linecap="round" stroke-linejoin="round"/>
</svg>
