<svg width="24" height="25" viewBox="0 0 24 25" fill="none" xmlns="http://www.w3.org/2000/svg">
<path d="M15 24.25L11.748 19.372C10.9698 18.1989 9.65573 17.4936 8.248 17.4936C6.84027 17.4936 5.52615 18.1989 4.748 19.372L1.5 24.25" stroke="black" stroke-width="1.5" stroke-linecap="round" stroke-linejoin="round"/>
<path d="M7.5 13.375C7.70711 13.375 7.875 13.5429 7.875 13.75" stroke="black" stroke-width="1.5" stroke-linecap="round" stroke-linejoin="round"/>
<path d="M7.125 13.75C7.125 13.5429 7.29289 13.375 7.5 13.375" stroke="black" stroke-width="1.5" stroke-linecap="round" stroke-linejoin="round"/>
<path d="M7.5 14.125C7.29289 14.125 7.125 13.9571 7.125 13.75" stroke="black" stroke-width="1.5" stroke-linecap="round" stroke-linejoin="round"/>
<path d="M7.875 13.75C7.875 13.9571 7.70711 14.125 7.5 14.125" stroke="black" stroke-width="1.5" stroke-linecap="round" stroke-linejoin="round"/>
<path d="M12 14.125C12.2071 14.125 12.375 14.2929 12.375 14.5" stroke="black" stroke-width="1.5" stroke-linecap="round" stroke-linejoin="round"/>
<path d="M11.625 14.5C11.625 14.2929 11.7929 14.125 12 14.125" stroke="black" stroke-width="1.5" stroke-linecap="round" stroke-linejoin="round"/>
<path d="M12 14.875C11.7929 14.875 11.625 14.7071 11.625 14.5" stroke="black" stroke-width="1.5" stroke-linecap="round" stroke-linejoin="round"/>
<path d="M12.375 14.5C12.375 14.7071 12.2071 14.875 12 14.875" stroke="black" stroke-width="1.5" stroke-linecap="round" stroke-linejoin="round"/>
<path d="M9.75 10.375C9.95711 10.375 10.125 10.5429 10.125 10.75" stroke="black" stroke-width="1.5" stroke-linecap="round" stroke-linejoin="round"/>
<path d="M9.375 10.75C9.375 10.5429 9.54289 10.375 9.75 10.375" stroke="black" stroke-width="1.5" stroke-linecap="round" stroke-linejoin="round"/>
<path d="M9.75 11.125C9.54289 11.125 9.375 10.9571 9.375 10.75" stroke="black" stroke-width="1.5" stroke-linecap="round" stroke-linejoin="round"/>
<path d="M10.125 10.75C10.125 10.9571 9.95711 11.125 9.75 11.125" stroke="black" stroke-width="1.5" stroke-linecap="round" stroke-linejoin="round"/>
<path fill-rule="evenodd" clip-rule="evenodd" d="M21.3999 8.152C22.4032 7.21715 22.8162 5.80922 22.4769 4.48056C22.1376 3.15189 21.1001 2.11439 19.7714 1.77507C18.4427 1.43575 17.0348 1.84873 16.0999 2.852L11.8559 7.091C11.7152 7.23167 11.6361 7.4225 11.6361 7.6215C11.6361 7.8205 11.7152 8.01133 11.8559 8.152L16.0999 12.394C16.2406 12.5348 16.4315 12.6138 16.6304 12.6138C16.8294 12.6138 17.0203 12.5348 17.1609 12.394L21.3999 8.152Z" stroke="black" stroke-width="1.5" stroke-linecap="round" stroke-linejoin="round"/>
</svg>
