<svg width="24" height="24" viewBox="0 0 24 24" fill="none" xmlns="http://www.w3.org/2000/svg">
<path fill-rule="evenodd" clip-rule="evenodd" d="M15.791 9C15.791 8.58579 15.4552 8.25 15.041 8.25H13.541V6.75C13.541 6.33579 13.2052 6 12.791 6H11.291C10.8768 6 10.541 6.33579 10.541 6.75V8.25H9.04102C8.6268 8.25 8.29102 8.58579 8.29102 9V10.5C8.29102 10.9142 8.6268 11.25 9.04102 11.25H10.541V12.75C10.541 13.1642 10.8768 13.5 11.291 13.5H12.791C13.2052 13.5 13.541 13.1642 13.541 12.75V11.25H15.041C15.4552 11.25 15.791 10.9142 15.791 10.5V9Z" stroke="black" stroke-width="1.5" stroke-linecap="round" stroke-linejoin="round"/>
<path fill-rule="evenodd" clip-rule="evenodd" d="M17.291 18.75H6.79102L4.37302 4.243C4.22809 3.37303 4.47331 2.48336 5.0435 1.8105C5.61368 1.13764 6.45106 0.749769 7.33302 0.75H16.75C17.6318 0.750063 18.4689 1.13806 19.0389 1.81088C19.6088 2.4837 19.8539 3.3732 19.709 4.243L17.291 18.75Z" stroke="black" stroke-width="1.5" stroke-linecap="round" stroke-linejoin="round"/>
<path fill-rule="evenodd" clip-rule="evenodd" d="M17.291 21.75C17.291 22.5784 16.6194 23.25 15.791 23.25H8.29102C7.46259 23.25 6.79102 22.5784 6.79102 21.75V18.75H17.291V21.75Z" stroke="black" stroke-width="1.5" stroke-linecap="round" stroke-linejoin="round"/>
</svg>
