<svg width="24" height="24" viewBox="0 0 24 24" fill="none" xmlns="http://www.w3.org/2000/svg">
<path fill-rule="evenodd" clip-rule="evenodd" d="M1.15819 14.9571C0.613802 14.4127 0.613801 13.5301 1.15819 12.9857L12.9853 1.15864C13.5296 0.614249 14.4123 0.614247 14.9567 1.15864L22.8416 9.04359C23.386 9.58798 23.386 10.4706 22.8416 11.015L11.0146 22.8421C10.4702 23.3865 9.58753 23.3865 9.04314 22.8421L1.15819 14.9571Z" stroke="black" stroke-width="1.5" stroke-linecap="round" stroke-linejoin="round"/>
<path fill-rule="evenodd" clip-rule="evenodd" d="M12.986 5.1C13.5334 4.57458 14.4005 4.58347 14.937 5.11999C15.4736 5.65651 15.4824 6.5236 14.957 7.071L12.986 9.043C12.4417 9.58755 11.5591 9.58778 11.0145 9.0435C10.47 8.49922 10.4697 7.61655 11.014 7.072L12.986 5.1Z" stroke="black" stroke-width="1.5" stroke-linecap="round" stroke-linejoin="round"/>
<path fill-rule="evenodd" clip-rule="evenodd" d="M16.928 9.043C17.2801 8.69074 17.7934 8.55307 18.2745 8.68185C18.7556 8.81063 19.1314 9.1863 19.2605 9.66735C19.3895 10.1484 19.2521 10.6617 18.9 11.014L16.929 12.986C16.3844 13.5303 15.5018 13.5301 14.9575 12.9855C14.4132 12.4409 14.4134 11.5583 14.958 11.014L16.928 9.043Z" stroke="black" stroke-width="1.5" stroke-linecap="round" stroke-linejoin="round"/>
<path fill-rule="evenodd" clip-rule="evenodd" d="M7.07202 11.014C7.42428 10.6619 7.93762 10.5245 8.41867 10.6535C8.89971 10.7826 9.27538 11.1584 9.40417 11.6395C9.53295 12.1206 9.39528 12.6339 9.04302 12.986L7.07202 14.957C6.52774 15.5016 5.64507 15.5018 5.10052 14.9575C4.55596 14.4132 4.55574 13.5306 5.10002 12.986L7.07202 11.014Z" stroke="black" stroke-width="1.5" stroke-linecap="round" stroke-linejoin="round"/>
<path fill-rule="evenodd" clip-rule="evenodd" d="M11.014 14.957C11.3661 14.6047 11.8793 14.4671 12.3604 14.5959C12.8416 14.7246 13.2174 15.1003 13.3464 15.5814C13.4755 16.0624 13.3381 16.5757 12.986 16.928L11.014 18.9C10.4666 19.4254 9.59948 19.4165 9.06296 18.88C8.52644 18.3435 8.51755 17.4764 9.04297 16.929L11.014 14.957Z" stroke="black" stroke-width="1.5" stroke-linecap="round" stroke-linejoin="round"/>
</svg>
