<svg width="24" height="24" viewBox="0 0 24 24" fill="none" xmlns="http://www.w3.org/2000/svg">
<path d="M0.75 11H23.25" stroke="black" stroke-width="1.5" stroke-linecap="round" stroke-linejoin="round"/>
<path fill-rule="evenodd" clip-rule="evenodd" d="M21.75 11H2.25C2.24953 14.6417 4.28048 17.9796 7.515 19.653C7.70105 19.7499 7.83817 19.9201 7.89324 20.1225C7.94831 20.325 7.91632 20.5412 7.805 20.719C7.56174 21.1116 7.34525 21.5202 7.157 21.942C7.05246 22.1741 7.07279 22.4434 7.211 22.6572C7.34921 22.871 7.58643 23.0001 7.841 23H16.159C16.4134 22.9995 16.6502 22.8703 16.7883 22.6567C16.9264 22.4431 16.947 22.1741 16.843 21.942C16.6547 21.5202 16.4383 21.1116 16.195 20.719C16.084 20.5411 16.0522 20.325 16.1072 20.1227C16.1623 19.9203 16.2992 19.7501 16.485 19.653C19.7195 17.9796 21.7505 14.6417 21.75 11Z" stroke="black" stroke-width="1.5" stroke-linecap="round" stroke-linejoin="round"/>
<path d="M14.25 8L18.207 1.405C18.5245 0.87606 19.1668 0.638672 19.752 0.833999V0.833999C20.0834 0.94442 20.3573 1.18205 20.5133 1.49454C20.6694 1.80703 20.6948 2.16875 20.584 2.5L18.75 8" stroke="black" stroke-width="1.5" stroke-linecap="round" stroke-linejoin="round"/>
</svg>
