<svg width="25" height="24" viewBox="0 0 25 24" fill="none" xmlns="http://www.w3.org/2000/svg">
<path fill-rule="evenodd" clip-rule="evenodd" d="M15.788 22.152C14.3105 23.5288 12.008 23.4882 10.5799 22.0601C9.15186 20.632 9.11123 18.3295 10.488 16.852L16.852 10.488C17.7869 9.48473 19.1948 9.07175 20.5235 9.41107C21.8521 9.75039 22.8896 10.7879 23.229 12.1166C23.5683 13.4452 23.1553 14.8531 22.152 15.788L15.788 22.152Z" stroke="black" stroke-width="1.5" stroke-linecap="round" stroke-linejoin="round"/>
<path d="M13.666 13.666L18.97 18.97" stroke="black" stroke-width="1.5" stroke-linecap="round" stroke-linejoin="round"/>
<path fill-rule="evenodd" clip-rule="evenodd" d="M6.75 12.75C10.0637 12.75 12.75 10.0637 12.75 6.75C12.75 3.43629 10.0637 0.75 6.75 0.75C3.43629 0.75 0.75 3.43629 0.75 6.75C0.75 10.0637 3.43629 12.75 6.75 12.75Z" stroke="black" stroke-width="1.5" stroke-linecap="round" stroke-linejoin="round"/>
<path d="M9.402 6.75H6.75V4.098" stroke="black" stroke-width="1.5" stroke-linecap="round" stroke-linejoin="round"/>
</svg>
