<svg width="24" height="25" viewBox="0 0 24 25" fill="none" xmlns="http://www.w3.org/2000/svg">
<path d="M9.72898 17.214H2.24798C1.758 17.212 1.2999 16.9707 1.02098 16.5679C0.74205 16.165 0.677464 15.6514 0.847983 15.192L1.96898 12.2C2.18838 11.6166 2.74569 11.2297 3.36898 11.228H16.169" stroke="black" stroke-width="1.5" stroke-linecap="round" stroke-linejoin="round"/>
<path d="M8.23199 14.221H11.225" stroke="black" stroke-width="1.5" stroke-linecap="round" stroke-linejoin="round"/>
<path fill-rule="evenodd" clip-rule="evenodd" d="M2.24597 1.753C2.24597 1.20072 2.69369 0.753 3.24597 0.753H16.211C16.7633 0.753 17.211 1.20072 17.211 1.753V10.228C17.211 10.7803 16.7633 11.228 16.211 11.228H3.24597C2.69369 11.228 2.24597 10.7803 2.24597 10.228V1.753Z" stroke="black" stroke-width="1.5" stroke-linecap="round" stroke-linejoin="round"/>
<path fill-rule="evenodd" clip-rule="evenodd" d="M18.088 12.853C19.2604 11.7056 21.1381 11.7158 22.298 12.876C23.4579 14.0361 23.4677 15.9138 22.32 17.086L17.029 22.377C16.2804 23.169 15.1605 23.4916 14.1054 23.2191C13.0502 22.9466 12.2266 22.1222 11.9551 21.0668C11.6836 20.0114 12.0072 18.8918 12.8 18.144L18.088 12.853Z" stroke="black" stroke-width="1.5" stroke-linecap="round" stroke-linejoin="round"/>
<path d="M15.442 15.499L19.675 19.731" stroke="black" stroke-width="1.5" stroke-linecap="round" stroke-linejoin="round"/>
</svg>
