<svg width="24" height="24" viewBox="0 0 24 24" fill="none" xmlns="http://www.w3.org/2000/svg">
<path d="M3.75 12.75V21.75C3.75 22.5784 4.42157 23.25 5.25 23.25H18.75C19.5784 23.25 20.25 22.5784 20.25 21.75V12.75" stroke="black" stroke-width="1.5" stroke-linecap="round" stroke-linejoin="round"/>
<path d="M23.25 11.25L12 0.75L0.75 11.25" stroke="black" stroke-width="1.5" stroke-linecap="round" stroke-linejoin="round"/>
<path fill-rule="evenodd" clip-rule="evenodd" d="M16.5 13.5C16.5 13.0858 16.1642 12.75 15.75 12.75H13.5V10.5C13.5 10.0858 13.1642 9.75 12.75 9.75H11.25C10.8358 9.75 10.5 10.0858 10.5 10.5V12.75H8.25C7.83579 12.75 7.5 13.0858 7.5 13.5V15C7.5 15.4142 7.83579 15.75 8.25 15.75H10.5V18C10.5 18.4142 10.8358 18.75 11.25 18.75H12.75C13.1642 18.75 13.5 18.4142 13.5 18V15.75H15.75C16.1642 15.75 16.5 15.4142 16.5 15V13.5Z" stroke="black" stroke-width="1.5" stroke-linecap="round" stroke-linejoin="round"/>
</svg>
