<svg width="24" height="24" viewBox="0 0 24 24" fill="none" xmlns="http://www.w3.org/2000/svg">
<path fill-rule="evenodd" clip-rule="evenodd" d="M7.5 18.75C8.74264 18.75 9.75 17.7426 9.75 16.5C9.75 15.2574 8.74264 14.25 7.5 14.25C6.25736 14.25 5.25 15.2574 5.25 16.5C5.25 17.7426 6.25736 18.75 7.5 18.75Z" stroke="black" stroke-width="1.5" stroke-linecap="round" stroke-linejoin="round"/>
<path fill-rule="evenodd" clip-rule="evenodd" d="M12 14.25H20.5C21.6046 14.25 22.5 15.1454 22.5 16.25V18.75H12V14.25Z" stroke="black" stroke-width="1.5" stroke-linecap="round" stroke-linejoin="round"/>
<path fill-rule="evenodd" clip-rule="evenodd" d="M1.5 18.75H22.5V21.75H1.5V18.75Z" stroke="black" stroke-width="1.5" stroke-linecap="round" stroke-linejoin="round"/>
<path d="M1.5 23.25V14.25" stroke="black" stroke-width="1.5" stroke-linecap="round" stroke-linejoin="round"/>
<path d="M22.5 23.25V21.75" stroke="black" stroke-width="1.5" stroke-linecap="round" stroke-linejoin="round"/>
<path fill-rule="evenodd" clip-rule="evenodd" d="M17.25 3.75H15V1.5C15 1.08579 14.6642 0.75 14.25 0.75H11.25C10.8358 0.75 10.5 1.08579 10.5 1.5V3.75H8.25C7.83579 3.75 7.5 4.08579 7.5 4.5V7.5C7.5 7.91421 7.83579 8.25 8.25 8.25H10.5V10.5C10.5 10.9142 10.8358 11.25 11.25 11.25H14.25C14.6642 11.25 15 10.9142 15 10.5V8.25H17.25C17.6642 8.25 18 7.91421 18 7.5V4.5C18 4.08579 17.6642 3.75 17.25 3.75Z" stroke="black" stroke-width="1.5" stroke-linecap="round" stroke-linejoin="round"/>
</svg>
