<svg width="24" height="24" viewBox="0 0 24 24" fill="none" xmlns="http://www.w3.org/2000/svg">
<path fill-rule="evenodd" clip-rule="evenodd" d="M0.75 3.75C0.75 2.09315 2.09315 0.75 3.75 0.75H20.25C21.9069 0.75 23.25 2.09315 23.25 3.75V20.25C23.25 21.9069 21.9069 23.25 20.25 23.25H3.75C2.09315 23.25 0.75 21.9069 0.75 20.25V3.75Z" stroke="black" stroke-width="1.5" stroke-linecap="round" stroke-linejoin="round"/>
<path fill-rule="evenodd" clip-rule="evenodd" d="M14.25 6V9.75H9.75V6C9.75 5.58579 9.41421 5.25 9 5.25H6C5.58579 5.25 5.25 5.58579 5.25 6V18C5.25 18.4142 5.58579 18.75 6 18.75H9C9.41421 18.75 9.75 18.4142 9.75 18V14.25H14.25V18C14.25 18.4142 14.5858 18.75 15 18.75H18C18.4142 18.75 18.75 18.4142 18.75 18V6C18.75 5.58579 18.4142 5.25 18 5.25H15C14.5858 5.25 14.25 5.58579 14.25 6Z" stroke="black" stroke-width="1.5" stroke-linecap="round" stroke-linejoin="round"/>
</svg>
