<svg width="24" height="24" viewBox="0 0 24 24" fill="none" xmlns="http://www.w3.org/2000/svg">
<path fill-rule="evenodd" clip-rule="evenodd" d="M17.25 9C17.25 8.58579 16.9142 8.25 16.5 8.25H14.25V6C14.25 5.58579 13.9142 5.25 13.5 5.25H10.5C10.0858 5.25 9.75 5.58579 9.75 6V8.25H7.5C7.08579 8.25 6.75 8.58579 6.75 9V12C6.75 12.4142 7.08579 12.75 7.5 12.75H9.75V15C9.75 15.4142 10.0858 15.75 10.5 15.75H13.5C13.9142 15.75 14.25 15.4142 14.25 15V12.75H16.5C16.9142 12.75 17.25 12.4142 17.25 12V9Z" stroke="black" stroke-width="1.5" stroke-linecap="round" stroke-linejoin="round"/>
<path fill-rule="evenodd" clip-rule="evenodd" d="M2.24998 3.923V11.537C2.25002 16.4635 5.28396 20.8812 9.88198 22.65L10.923 23.05C11.6162 23.3167 12.3837 23.3167 13.077 23.05L14.118 22.65C18.716 20.8812 21.7499 16.4635 21.75 11.537V3.923C21.7541 3.33767 21.4143 2.80442 20.882 2.561C18.0818 1.33879 15.0551 0.721663 12 0.750003C8.94483 0.721663 5.91814 1.33879 3.11798 2.561C2.58565 2.80442 2.24581 3.33767 2.24998 3.923Z" stroke="black" stroke-width="1.5" stroke-linecap="round" stroke-linejoin="round"/>
</svg>
