<svg width="24" height="24" viewBox="0 0 24 24" fill="none" xmlns="http://www.w3.org/2000/svg">
<path fill-rule="evenodd" clip-rule="evenodd" d="M12 23.25C18.2132 23.25 23.25 18.2132 23.25 12C23.25 5.7868 18.2132 0.75 12 0.75C5.7868 0.75 0.75 5.7868 0.75 12C0.75 18.2132 5.7868 23.25 12 23.25Z" stroke="black" stroke-width="1.5" stroke-linecap="round" stroke-linejoin="round"/>
<path fill-rule="evenodd" clip-rule="evenodd" d="M18 9.75H14.25V6C14.25 5.58579 13.9142 5.25 13.5 5.25H10.5C10.0858 5.25 9.75 5.58579 9.75 6V9.75H6C5.58579 9.75 5.25 10.0858 5.25 10.5V13.5C5.25 13.9142 5.58579 14.25 6 14.25H9.75V18C9.75 18.4142 10.0858 18.75 10.5 18.75H13.5C13.9142 18.75 14.25 18.4142 14.25 18V14.25H18C18.4142 14.25 18.75 13.9142 18.75 13.5V10.5C18.75 10.0858 18.4142 9.75 18 9.75Z" stroke="black" stroke-width="1.5" stroke-linecap="round" stroke-linejoin="round"/>
</svg>
