<svg width="24" height="24" viewBox="0 0 24 24" fill="none" xmlns="http://www.w3.org/2000/svg">
<path d="M15.692 14.25L14.019 13C13.674 12.7412 13.2377 12.6359 12.8126 12.7087C12.3876 12.7816 12.0112 13.0261 11.772 13.385V13.385C11.421 13.9119 11.421 14.5981 11.772 15.125L13.417 17.592C13.922 18.3494 14.6448 18.9359 15.49 19.274L17.942 20.255V22.5" stroke="black" stroke-width="1.5" stroke-linecap="round" stroke-linejoin="round"/>
<path d="M14.942 9C20.05 11.189 22.442 11.058 22.442 22.5" stroke="black" stroke-width="1.5" stroke-linecap="round" stroke-linejoin="round"/>
<path d="M11.942 21H4.5C2.84315 21 1.5 19.6569 1.5 18V4.5C1.5 2.84315 2.84315 1.5 4.5 1.5H11.942C13.5989 1.5 14.942 2.84315 14.942 4.5V10.5" stroke="black" stroke-width="1.5" stroke-linecap="round" stroke-linejoin="round"/>
<path d="M8.25 6.019V12.019" stroke="black" stroke-width="1.5" stroke-linecap="round" stroke-linejoin="round"/>
<path d="M5.25 9.019H11.25" stroke="black" stroke-width="1.5" stroke-linecap="round" stroke-linejoin="round"/>
</svg>
