<svg width="24" height="24" viewBox="0 0 24 24" fill="none" xmlns="http://www.w3.org/2000/svg">
<path fill-rule="evenodd" clip-rule="evenodd" d="M9.26701 19.069C8.78964 20.1846 9.0313 21.4779 9.8793 22.3458C10.7273 23.2137 12.0146 23.4853 13.141 23.034C14.2673 22.5826 15.0109 21.4972 15.0249 20.2839C15.0389 19.0705 14.3206 17.9682 13.205 17.491C11.6818 16.8394 9.91878 17.5459 9.26701 19.069Z" stroke="black" stroke-width="1.5" stroke-linecap="round" stroke-linejoin="round"/>
<path d="M9.267 19.069L11.023 14.969C11.6532 13.496 12.5712 12.1636 13.723 11.05C16.108 8.75 19.533 6.95 22.281 6.856" stroke="black" stroke-width="1.5" stroke-linecap="round" stroke-linejoin="round"/>
<path fill-rule="evenodd" clip-rule="evenodd" d="M6.509 17.889C5.85694 19.412 4.09376 20.1181 2.57068 19.4662C1.0476 18.8143 0.341282 17.0512 0.993017 15.5281C1.64475 14.0049 3.40778 13.2984 4.931 13.95C5.66269 14.263 6.24003 14.8539 6.53598 15.5926C6.83193 16.3314 6.82222 17.1574 6.509 17.889V17.889Z" stroke="black" stroke-width="1.5" stroke-linecap="round" stroke-linejoin="round"/>
<path d="M22.8 6.506C22.7083 6.46685 22.6047 6.46595 22.5124 6.50351C22.42 6.54106 22.3464 6.61396 22.308 6.706" stroke="black" stroke-width="1.5" stroke-linecap="round" stroke-linejoin="round"/>
<path d="M23 7C23.0391 6.90828 23.04 6.80472 23.0025 6.71234C22.9649 6.61995 22.892 6.54639 22.8 6.508" stroke="black" stroke-width="1.5" stroke-linecap="round" stroke-linejoin="round"/>
<path d="M22.506 7.2C22.598 7.2395 22.7019 7.24059 22.7947 7.20303C22.8875 7.16546 22.9614 7.09236 23 7" stroke="black" stroke-width="1.5" stroke-linecap="round" stroke-linejoin="round"/>
<path d="M22.309 6.7C22.2701 6.79175 22.2694 6.8952 22.3069 6.98751C22.3444 7.07982 22.4171 7.1534 22.509 7.192" stroke="black" stroke-width="1.5" stroke-linecap="round" stroke-linejoin="round"/>
<path d="M6.509 17.889L7.825 14.813C8.28385 13.7461 9.31728 13.0399 10.478 13L12.132 12.942C11.318 10.0599 12.2308 6.96651 14.479 4.98801C16.958 2.88801 18.124 2.26701 18.639 2.08801" stroke="black" stroke-width="1.5" stroke-linecap="round" stroke-linejoin="round"/>
<path d="M19.155 1.682C19.0632 1.64313 18.9598 1.64237 18.8675 1.6799C18.7752 1.71742 18.7016 1.79014 18.663 1.882" stroke="black" stroke-width="1.5" stroke-linecap="round" stroke-linejoin="round"/>
<path d="M19.352 2.174C19.4324 1.98291 19.3429 1.76282 19.152 1.682" stroke="black" stroke-width="1.5" stroke-linecap="round" stroke-linejoin="round"/>
<path d="M18.86 2.371C18.9517 2.41015 19.0553 2.41105 19.1476 2.37349C19.24 2.33594 19.3136 2.26304 19.352 2.171" stroke="black" stroke-width="1.5" stroke-linecap="round" stroke-linejoin="round"/>
<path d="M18.663 1.879C18.6236 1.97069 18.6225 2.07436 18.6601 2.16682C18.6977 2.25928 18.7708 2.33282 18.863 2.371" stroke="black" stroke-width="1.5" stroke-linecap="round" stroke-linejoin="round"/>
</svg>
