<svg width="24" height="24" viewBox="0 0 24 24" fill="none" xmlns="http://www.w3.org/2000/svg">
<path fill-rule="evenodd" clip-rule="evenodd" d="M11.25 15.25C11.25 14.6977 11.6977 14.25 12.25 14.25H22.25C22.8023 14.25 23.25 14.6977 23.25 15.25V22.25C23.25 22.8023 22.8023 23.25 22.25 23.25H12.25C11.6977 23.25 11.25 22.8023 11.25 22.25V15.25Z" stroke="black" stroke-width="1.5" stroke-linecap="round" stroke-linejoin="round"/>
<path fill-rule="evenodd" clip-rule="evenodd" d="M16 11.25H18.5C19.0523 11.25 19.5 11.6977 19.5 12.25V14.25H15V12.25C15 11.6977 15.4477 11.25 16 11.25Z" stroke="black" stroke-width="1.5" stroke-linecap="round" stroke-linejoin="round"/>
<path d="M17.25 17.25V20.25" stroke="black" stroke-width="1.5" stroke-linecap="round" stroke-linejoin="round"/>
<path d="M15.75 18.75H18.75" stroke="black" stroke-width="1.5" stroke-linecap="round" stroke-linejoin="round"/>
<path d="M0.75 17.25C0.751544 14.9834 1.89011 12.8687 3.78149 11.6196C5.67287 10.3705 8.06476 10.1535 10.15 11.042" stroke="black" stroke-width="1.5" stroke-linecap="round" stroke-linejoin="round"/>
<path d="M3.94501 2.78101C5.23589 4.11939 7.01553 4.87529 8.87501 4.87501C9.80759 4.87575 10.7305 4.68586 11.587 4.31701" stroke="black" stroke-width="1.5" stroke-linecap="round" stroke-linejoin="round"/>
<path fill-rule="evenodd" clip-rule="evenodd" d="M7.5 9C9.77817 9 11.625 7.15317 11.625 4.875C11.625 2.59683 9.77817 0.75 7.5 0.75C5.22183 0.75 3.375 2.59683 3.375 4.875C3.375 7.15317 5.22183 9 7.5 9Z" stroke="black" stroke-width="1.5" stroke-linecap="round" stroke-linejoin="round"/>
<path d="M7.5 10.5V17.25" stroke="black" stroke-width="1.5" stroke-linecap="round" stroke-linejoin="round"/>
</svg>
