<svg width="24" height="24" viewBox="0 0 24 24" fill="none" xmlns="http://www.w3.org/2000/svg">
<path fill-rule="evenodd" clip-rule="evenodd" d="M7.89402 19.038L4.71202 15.856C4.43051 15.5747 4.27234 15.193 4.27234 14.795C4.27234 14.397 4.43051 14.0153 4.71202 13.734L13.728 4.71899L19.028 10.019L10.013 19.035C9.42833 19.6201 8.48037 19.6214 7.89402 19.038Z" stroke="black" stroke-width="1.5" stroke-linecap="round" stroke-linejoin="round"/>
<path fill-rule="evenodd" clip-rule="evenodd" d="M2.59131 19.0384L5.24296 16.3868L7.36428 18.5081L4.71263 21.1597L2.59131 19.0384Z" stroke="black" stroke-width="1.5" stroke-linecap="round" stroke-linejoin="round"/>
<path d="M1 22.75L3.652 20.098" stroke="black" stroke-width="1.5" stroke-linecap="round" stroke-linejoin="round"/>
<path d="M12.137 3.128L20.622 11.613" stroke="black" stroke-width="1.5" stroke-linecap="round" stroke-linejoin="round"/>
<path fill-rule="evenodd" clip-rule="evenodd" d="M15.319 6.30968L19.0313 2.59737L21.1526 4.71869L17.4403 8.431L15.319 6.30968Z" stroke="black" stroke-width="1.5" stroke-linecap="round" stroke-linejoin="round"/>
<path d="M17.44 1.006L22.744 6.31" stroke="black" stroke-width="1.5" stroke-linecap="round" stroke-linejoin="round"/>
<path d="M13.728 11.083L15.849 13.204" stroke="black" stroke-width="1.5" stroke-linecap="round" stroke-linejoin="round"/>
<path d="M10.546 14.265L12.667 16.386" stroke="black" stroke-width="1.5" stroke-linecap="round" stroke-linejoin="round"/>
</svg>
