<svg width="24" height="24" viewBox="0 0 24 24" fill="none" xmlns="http://www.w3.org/2000/svg">
<path fill-rule="evenodd" clip-rule="evenodd" d="M9 3.75H6.75V1.5C6.75 1.08579 6.41421 0.75 6 0.75H4.5C4.08579 0.75 3.75 1.08579 3.75 1.5V3.75H1.5C1.08579 3.75 0.75 4.08579 0.75 4.5V6C0.75 6.41421 1.08579 6.75 1.5 6.75H3.75V9C3.75 9.41421 4.08579 9.75 4.5 9.75H6C6.41421 9.75 6.75 9.41421 6.75 9V6.75H9C9.41421 6.75 9.75 6.41421 9.75 6V4.5C9.75 4.08579 9.41421 3.75 9 3.75Z" stroke="black" stroke-width="1.5" stroke-linecap="round" stroke-linejoin="round"/>
<path fill-rule="evenodd" clip-rule="evenodd" d="M14.25 9.75C15.6997 9.75 16.875 8.57475 16.875 7.125C16.875 5.67525 15.6997 4.5 14.25 4.5C12.8003 4.5 11.625 5.67525 11.625 7.125C11.625 8.57475 12.8003 9.75 14.25 9.75Z" stroke="black" stroke-width="1.5" stroke-linecap="round" stroke-linejoin="round"/>
<path d="M9.36499 12.785C10.2186 11.8084 11.4529 11.2487 12.75 11.25H15.75C17.0471 11.2487 18.2813 11.8084 19.135 12.785" stroke="black" stroke-width="1.5" stroke-linecap="round" stroke-linejoin="round"/>
<path d="M6.75 17.25V12L14.25 14.25V23.25L6.75 21V20.25" stroke="black" stroke-width="1.5" stroke-linecap="round" stroke-linejoin="round"/>
<path d="M21.75 17.25V12L14.25 14.25V23.25L21.75 21V20.25" stroke="black" stroke-width="1.5" stroke-linecap="round" stroke-linejoin="round"/>
<path fill-rule="evenodd" clip-rule="evenodd" d="M6.75 20.25C5.92157 20.25 5.25 19.5784 5.25 18.75C5.25 17.9216 5.92157 17.25 6.75 17.25H7.5C7.91421 17.25 8.25 17.5858 8.25 18V19.5C8.25 19.9142 7.91421 20.25 7.5 20.25H6.75Z" stroke="black" stroke-width="1.5" stroke-linecap="round" stroke-linejoin="round"/>
<path fill-rule="evenodd" clip-rule="evenodd" d="M21.75 20.25C22.5784 20.25 23.25 19.5784 23.25 18.75C23.25 17.9216 22.5784 17.25 21.75 17.25H21C20.5858 17.25 20.25 17.5858 20.25 18V19.5C20.25 19.9142 20.5858 20.25 21 20.25H21.75Z" stroke="black" stroke-width="1.5" stroke-linecap="round" stroke-linejoin="round"/>
</svg>
