<svg width="24" height="24" viewBox="0 0 24 24" fill="none" xmlns="http://www.w3.org/2000/svg">
<path fill-rule="evenodd" clip-rule="evenodd" d="M4.259 14.545C5.91586 14.545 7.259 13.2019 7.259 11.545C7.259 9.88814 5.91586 8.545 4.259 8.545C2.60215 8.545 1.259 9.88814 1.259 11.545C1.259 13.2019 2.60215 14.545 4.259 14.545Z" stroke="black" stroke-width="1.5" stroke-linecap="round" stroke-linejoin="round"/>
<path fill-rule="evenodd" clip-rule="evenodd" d="M12.214 22.5C13.8708 22.5 15.214 21.1569 15.214 19.5C15.214 17.8431 13.8708 16.5 12.214 16.5C10.5571 16.5 9.21399 17.8431 9.21399 19.5C9.21399 21.1569 10.5571 22.5 12.214 22.5Z" stroke="black" stroke-width="1.5" stroke-linecap="round" stroke-linejoin="round"/>
<path d="M6.38101 13.666L21.569 1.516C21.8705 1.27519 22.3055 1.30246 22.5746 1.57903C22.8437 1.85561 22.859 2.29122 22.61 2.586L10.093 17.379" stroke="black" stroke-width="1.5" stroke-linecap="round" stroke-linejoin="round"/>
<path d="M11.684 9.424L14.468 12.208" stroke="black" stroke-width="1.5" stroke-linecap="round" stroke-linejoin="round"/>
</svg>
