<svg width="24" height="24" viewBox="0 0 24 24" fill="none" xmlns="http://www.w3.org/2000/svg">
<path fill-rule="evenodd" clip-rule="evenodd" d="M15.943 10.178L19.219 11.816C19.7966 12.105 20.4944 11.9918 20.951 11.535L21.932 10.553C23.1372 9.34774 23.558 7.56499 23.019 5.948L22.752 5.148C22.7002 4.99554 22.557 4.893 22.396 4.893C22.235 4.893 22.0918 4.99554 22.04 5.148C21.657 6.24941 21.0221 7.2462 20.186 8.059C19.0848 9.26899 17.5718 10.0246 15.943 10.178H15.943Z" stroke="black" stroke-width="1.5" stroke-linecap="round" stroke-linejoin="round"/>
<path d="M15.943 10.178C14.4746 11.6459 12.4619 12.4371 10.387 12.362C8.187 12.282 7.1 11.597 4.807 13.89C1.094 17.6 0.75 20.25 0.75 20.25" stroke="black" stroke-width="1.5" stroke-linecap="round" stroke-linejoin="round"/>
<path fill-rule="evenodd" clip-rule="evenodd" d="M13.822 8.057L12.184 4.781C11.895 4.20338 12.0082 3.50563 12.465 3.049L13.447 2.068C14.6523 0.862791 16.435 0.441977 18.052 0.981001L18.852 1.248C19.0045 1.29982 19.107 1.44297 19.107 1.604C19.107 1.76503 19.0045 1.90818 18.852 1.96C17.7506 2.343 16.7538 2.97785 15.941 3.814C14.731 4.91517 13.9754 6.42817 13.822 8.057V8.057Z" stroke="black" stroke-width="1.5" stroke-linecap="round" stroke-linejoin="round"/>
<path d="M13.822 8.057C12.3541 9.52537 11.5629 11.5381 11.638 13.613C11.718 15.813 12.403 16.9 10.11 19.193C6.4 22.906 3.75 23.25 3.75 23.25" stroke="black" stroke-width="1.5" stroke-linecap="round" stroke-linejoin="round"/>
</svg>
