<svg width="24" height="24" viewBox="0 0 24 24" fill="none" xmlns="http://www.w3.org/2000/svg">
<path fill-rule="evenodd" clip-rule="evenodd" d="M17.25 13.5C18.9069 13.5 20.25 12.1569 20.25 10.5C20.25 8.84315 18.9069 7.5 17.25 7.5C15.5931 7.5 14.25 8.84315 14.25 10.5C14.25 12.1569 15.5931 13.5 17.25 13.5Z" stroke="black" stroke-width="1.5" stroke-linecap="round" stroke-linejoin="round"/>
<path d="M23.25 19.5C23.25 17.0147 21.2353 15 18.75 15H15.75C13.2647 15 11.25 17.0147 11.25 19.5" stroke="black" stroke-width="1.5" stroke-linecap="round" stroke-linejoin="round"/>
<path d="M0.75 22.5H23.25" stroke="black" stroke-width="1.5" stroke-linecap="round" stroke-linejoin="round"/>
<path d="M14.789 8.784L12.689 6.044C15.3839 3.98172 19.1277 3.98582 21.818 6.054L19.716 8.792" stroke="black" stroke-width="1.5" stroke-linecap="round" stroke-linejoin="round"/>
<path fill-rule="evenodd" clip-rule="evenodd" d="M9 4.5H6.75V2.25C6.75 1.83579 6.41421 1.5 6 1.5H4.5C4.08579 1.5 3.75 1.83579 3.75 2.25V4.5H1.5C1.08579 4.5 0.75 4.83579 0.75 5.25V6.75C0.75 7.16421 1.08579 7.5 1.5 7.5H3.75V9.75C3.75 10.1642 4.08579 10.5 4.5 10.5H6C6.41421 10.5 6.75 10.1642 6.75 9.75V7.5H9C9.41421 7.5 9.75 7.16421 9.75 6.75V5.25C9.75 4.83579 9.41421 4.5 9 4.5Z" stroke="black" stroke-width="1.5" stroke-linecap="round" stroke-linejoin="round"/>
</svg>
