<svg width="24" height="24" viewBox="0 0 24 24" fill="none" xmlns="http://www.w3.org/2000/svg">
<path d="M13.5 17.25V20.517C13.5003 21.2419 13.2124 21.9372 12.6998 22.4498C12.1872 22.9624 11.4919 23.2503 10.767 23.25H4.233C3.50808 23.2503 2.81278 22.9624 2.30018 22.4498C1.78759 21.9372 1.49973 21.2419 1.5 20.517V4.983C1.49973 4.25808 1.78759 3.56278 2.30018 3.05018C2.81278 2.53759 3.50808 2.24973 4.233 2.25H9" stroke="black" stroke-width="1.5" stroke-linecap="round" stroke-linejoin="round"/>
<path d="M1.5 18.769H13.5" stroke="black" stroke-width="1.5" stroke-linecap="round" stroke-linejoin="round"/>
<path fill-rule="evenodd" clip-rule="evenodd" d="M22.5 6C22.5 5.58579 22.1642 5.25 21.75 5.25H18V1.5C18 1.08579 17.6642 0.75 17.25 0.75H14.25C13.8358 0.75 13.5 1.08579 13.5 1.5V5.25H9.75C9.33579 5.25 9 5.58579 9 6V9C9 9.41421 9.33579 9.75 9.75 9.75H13.5V13.5C13.5 13.9142 13.8358 14.25 14.25 14.25H17.25C17.6642 14.25 18 13.9142 18 13.5V9.75H21.75C22.1642 9.75 22.5 9.41421 22.5 9V6Z" stroke="black" stroke-width="1.5" stroke-linecap="round" stroke-linejoin="round"/>
</svg>
