<svg width="24" height="24" viewBox="0 0 24 24" fill="none" xmlns="http://www.w3.org/2000/svg">
<path fill-rule="evenodd" clip-rule="evenodd" d="M22.591 4.724C23.4696 3.84532 23.4696 2.42069 22.591 1.542C21.7123 0.663317 20.2876 0.663317 19.409 1.542L8.79995 12.149C8.65926 12.2895 8.5802 12.4802 8.5802 12.679C8.5802 12.8778 8.65926 13.0685 8.79995 13.209L10.922 15.331C11.215 15.6229 11.6889 15.6229 11.982 15.331L22.591 4.724Z" stroke="black" stroke-width="1.5" stroke-linecap="round" stroke-linejoin="round"/>
<path fill-rule="evenodd" clip-rule="evenodd" d="M6.68098 16.391C8.14079 18.0038 8.02233 20.4932 6.41598 21.96C4.94888 23.5658 2.45994 23.6843 0.846985 22.225L6.68098 16.391Z" stroke="black" stroke-width="1.5" stroke-linecap="round" stroke-linejoin="round"/>
<path d="M6.68097 16.391L9.33297 13.74" stroke="black" stroke-width="1.5" stroke-linecap="round" stroke-linejoin="round"/>
</svg>
