<svg width="24" height="24" viewBox="0 0 24 24" fill="none" xmlns="http://www.w3.org/2000/svg">
<path fill-rule="evenodd" clip-rule="evenodd" d="M5.25 3C5.25 1.75736 6.25736 0.75 7.5 0.75H16.5C17.7426 0.75 18.75 1.75736 18.75 3V21C18.75 22.2426 17.7426 23.25 16.5 23.25H7.5C6.25736 23.25 5.25 22.2426 5.25 21V3Z" stroke="black" stroke-width="1.5" stroke-linecap="round" stroke-linejoin="round"/>
<path d="M5.25 18.75H18.75" stroke="black" stroke-width="1.5" stroke-linecap="round" stroke-linejoin="round"/>
<path fill-rule="evenodd" clip-rule="evenodd" d="M15.75 9C15.75 8.58579 15.4142 8.25 15 8.25H13.5V6.75C13.5 6.33579 13.1642 6 12.75 6H11.25C10.8358 6 10.5 6.33579 10.5 6.75V8.25H9C8.58579 8.25 8.25 8.58579 8.25 9V10.5C8.25 10.9142 8.58579 11.25 9 11.25H10.5V12.75C10.5 13.1642 10.8358 13.5 11.25 13.5H12.75C13.1642 13.5 13.5 13.1642 13.5 12.75V11.25H15C15.4142 11.25 15.75 10.9142 15.75 10.5V9Z" stroke="black" stroke-width="1.5" stroke-linecap="round" stroke-linejoin="round"/>
</svg>
