<svg width="24" height="24" viewBox="0 0 24 24" fill="none" xmlns="http://www.w3.org/2000/svg">
<path fill-rule="evenodd" clip-rule="evenodd" d="M16.5 12.75L8.62503 20.625C7.17528 22.0747 4.82478 22.0747 3.37503 20.625C1.92528 19.1753 1.92528 16.8247 3.37503 15.375L11.25 7.5L16.5 12.75Z" stroke="black" stroke-width="1.5" stroke-linecap="round" stroke-linejoin="round"/>
<path d="M0.75 23.25L3.375 20.625" stroke="black" stroke-width="1.5" stroke-linecap="round" stroke-linejoin="round"/>
<path d="M7.5 11.25L12.75 16.5" stroke="black" stroke-width="1.5" stroke-linecap="round" stroke-linejoin="round"/>
<path d="M3.75 15L6 17.25" stroke="black" stroke-width="1.5" stroke-linecap="round" stroke-linejoin="round"/>
<path fill-rule="evenodd" clip-rule="evenodd" d="M20.25 6.75C21.9069 6.75 23.25 5.40685 23.25 3.75C23.25 2.09315 21.9069 0.75 20.25 0.75C18.5931 0.75 17.25 2.09315 17.25 3.75C17.25 5.40685 18.5931 6.75 20.25 6.75Z" stroke="black" stroke-width="1.5" stroke-linecap="round" stroke-linejoin="round"/>
<path d="M13.875 10.125L18.13 5.87" stroke="black" stroke-width="1.5" stroke-linecap="round" stroke-linejoin="round"/>
<path d="M7.00698 7.5C5.83555 6.32838 5.83566 4.42897 7.00722 3.25748C8.17878 2.08599 10.0782 2.08599 11.2497 3.25748C12.4213 4.42897 12.4214 6.32838 11.25 7.5" stroke="black" stroke-width="1.5" stroke-linecap="round" stroke-linejoin="round"/>
<path d="M16.5 12.75C17.6716 11.5786 19.571 11.5787 20.7425 12.7502C21.914 13.9218 21.914 15.8212 20.7425 16.9928C19.571 18.1643 17.6716 18.1644 16.5 16.993" stroke="black" stroke-width="1.5" stroke-linecap="round" stroke-linejoin="round"/>
</svg>
