<svg width="24" height="24" viewBox="0 0 24 24" fill="none" xmlns="http://www.w3.org/2000/svg">
<path d="M2.25 16.5V4.5C2.25 3.67157 2.92157 3 3.75 3H20.25C21.0784 3 21.75 3.67157 21.75 4.5V16.5" stroke="black" stroke-width="1.5" stroke-linecap="round" stroke-linejoin="round"/>
<path fill-rule="evenodd" clip-rule="evenodd" d="M14.986 16.5C14.75 16.5003 14.5278 16.6114 14.386 16.8C13.8257 17.555 12.9411 18.0001 12.001 18.0001C11.0609 18.0001 10.1763 17.555 9.616 16.8C9.47415 16.6114 9.25199 16.5003 9.016 16.5H0.75V18C0.75 19.6569 2.09315 21 3.75 21H20.25C21.9069 21 23.25 19.6569 23.25 18V16.5H14.986Z" stroke="black" stroke-width="1.5" stroke-linecap="round" stroke-linejoin="round"/>
<path fill-rule="evenodd" clip-rule="evenodd" d="M15.75 9C15.75 8.58579 15.4142 8.25 15 8.25H13.5V6.75C13.5 6.33579 13.1642 6 12.75 6H11.25C10.8358 6 10.5 6.33579 10.5 6.75V8.25H9C8.58579 8.25 8.25 8.58579 8.25 9V10.5C8.25 10.9142 8.58579 11.25 9 11.25H10.5V12.75C10.5 13.1642 10.8358 13.5 11.25 13.5H12.75C13.1642 13.5 13.5 13.1642 13.5 12.75V11.25H15C15.4142 11.25 15.75 10.9142 15.75 10.5V9Z" stroke="black" stroke-width="1.5" stroke-linecap="round" stroke-linejoin="round"/>
</svg>
