<svg width="24" height="24" viewBox="0 0 24 24" fill="none" xmlns="http://www.w3.org/2000/svg">
<path fill-rule="evenodd" clip-rule="evenodd" d="M21 19.5C22.2426 19.5 23.25 18.4926 23.25 17.25C23.25 16.0074 22.2426 15 21 15C19.7574 15 18.75 16.0074 18.75 17.25C18.75 18.4926 19.7574 19.5 21 19.5Z" stroke="black" stroke-width="1.5" stroke-linecap="round" stroke-linejoin="round"/>
<path d="M0.75 6.75V11.25C0.75 15.3921 4.10786 18.75 8.25 18.75C12.3921 18.75 15.75 15.3921 15.75 11.25V6.75" stroke="black" stroke-width="1.5" stroke-linecap="round" stroke-linejoin="round"/>
<path d="M18.75 17.25C17.0931 17.25 15.75 18.5931 15.75 20.25C15.75 21.9069 14.4069 23.25 12.75 23.25H11.25C9.59315 23.25 8.25 21.9069 8.25 20.25V18.75" stroke="black" stroke-width="1.5" stroke-linecap="round" stroke-linejoin="round"/>
<path fill-rule="evenodd" clip-rule="evenodd" d="M3.75 2.25C3.75 1.42157 4.42157 0.75 5.25 0.75H11.25C12.0784 0.75 12.75 1.42157 12.75 2.25V12.75C12.75 13.5784 12.0784 14.25 11.25 14.25H5.25C4.42157 14.25 3.75 13.5784 3.75 12.75V2.25Z" stroke="black" stroke-width="1.5" stroke-linecap="round" stroke-linejoin="round"/>
<path d="M8.25 10.875C8.45711 10.875 8.625 11.0429 8.625 11.25" stroke="black" stroke-width="1.5" stroke-linecap="round" stroke-linejoin="round"/>
<path d="M7.875 11.25C7.875 11.0429 8.04289 10.875 8.25 10.875" stroke="black" stroke-width="1.5" stroke-linecap="round" stroke-linejoin="round"/>
<path d="M8.25 11.625C8.04289 11.625 7.875 11.4571 7.875 11.25" stroke="black" stroke-width="1.5" stroke-linecap="round" stroke-linejoin="round"/>
<path d="M8.625 11.25C8.625 11.4571 8.45711 11.625 8.25 11.625" stroke="black" stroke-width="1.5" stroke-linecap="round" stroke-linejoin="round"/>
</svg>
