<svg width="25" height="24" viewBox="0 0 25 24" fill="none" xmlns="http://www.w3.org/2000/svg">
<path fill-rule="evenodd" clip-rule="evenodd" d="M15.405 3.305C14.8857 2.71074 14.9157 1.81572 15.4736 1.25753C16.0315 0.699354 16.9265 0.668957 17.521 1.188L22.812 6.479C23.2346 6.84655 23.4172 7.41889 23.2856 7.96326C23.154 8.50763 22.7301 8.93334 22.1863 9.06726C21.6425 9.20118 21.0694 9.021 20.7 8.6L15.405 3.305Z" stroke="black" stroke-width="1.5" stroke-linecap="round" stroke-linejoin="round"/>
<path fill-rule="evenodd" clip-rule="evenodd" d="M14.876 14.415C13.415 15.876 10.114 16.002 9.056 14.944C7.998 13.886 8.124 10.585 9.585 9.124L15.405 3.305L20.7 8.6L14.876 14.415Z" stroke="black" stroke-width="1.5" stroke-linecap="round" stroke-linejoin="round"/>
<path d="M9.05599 14.944L1.78799 22.212" stroke="black" stroke-width="1.5" stroke-linecap="round" stroke-linejoin="round"/>
<path d="M0.75 21.174L2.826 23.25" stroke="black" stroke-width="1.5" stroke-linecap="round" stroke-linejoin="round"/>
<path d="M11.172 7.537L16.463 12.828" stroke="black" stroke-width="1.5" stroke-linecap="round" stroke-linejoin="round"/>
</svg>
