<svg width="25" height="24" viewBox="0 0 25 24" fill="none" xmlns="http://www.w3.org/2000/svg">
<path fill-rule="evenodd" clip-rule="evenodd" d="M22.1 4.964C23.1844 4.35648 23.571 2.98491 22.9635 1.9005C22.356 0.816087 20.9844 0.429485 19.9 1.037L3.53802 10.191L4.29202 11.539C4.93268 12.684 6.24304 13.2798 7.52702 13.01L16.673 11.087C16.9064 11.0378 17.1025 10.8806 17.2012 10.6635C17.2999 10.4463 17.2895 10.1952 17.173 9.987L16.206 8.259L22.1 4.964Z" stroke="black" stroke-width="1.5" stroke-linecap="round" stroke-linejoin="round"/>
<path d="M15.319 3.6L21.444 5.33" stroke="black" stroke-width="1.5" stroke-linecap="round" stroke-linejoin="round"/>
<path d="M0.75 19.5H23.25" stroke="black" stroke-width="1.5" stroke-linecap="round" stroke-linejoin="round"/>
<path d="M2.25 22.125C2.45711 22.125 2.625 22.2929 2.625 22.5" stroke="black" stroke-width="1.5" stroke-linecap="round" stroke-linejoin="round"/>
<path d="M1.875 22.5C1.875 22.2929 2.04289 22.125 2.25 22.125" stroke="black" stroke-width="1.5" stroke-linecap="round" stroke-linejoin="round"/>
<path d="M2.25 22.875C2.04289 22.875 1.875 22.7071 1.875 22.5" stroke="black" stroke-width="1.5" stroke-linecap="round" stroke-linejoin="round"/>
<path d="M2.625 22.5C2.625 22.7071 2.45711 22.875 2.25 22.875" stroke="black" stroke-width="1.5" stroke-linecap="round" stroke-linejoin="round"/>
<path d="M21.75 22.125C21.9571 22.125 22.125 22.2929 22.125 22.5" stroke="black" stroke-width="1.5" stroke-linecap="round" stroke-linejoin="round"/>
<path d="M21.375 22.5C21.375 22.2929 21.5429 22.125 21.75 22.125" stroke="black" stroke-width="1.5" stroke-linecap="round" stroke-linejoin="round"/>
<path d="M21.75 22.875C21.5429 22.875 21.375 22.7071 21.375 22.5" stroke="black" stroke-width="1.5" stroke-linecap="round" stroke-linejoin="round"/>
<path d="M22.125 22.5C22.125 22.7071 21.9571 22.875 21.75 22.875" stroke="black" stroke-width="1.5" stroke-linecap="round" stroke-linejoin="round"/>
<path d="M15 22.125C15.2071 22.125 15.375 22.2929 15.375 22.5" stroke="black" stroke-width="1.5" stroke-linecap="round" stroke-linejoin="round"/>
<path d="M14.625 22.5C14.625 22.2929 14.7929 22.125 15 22.125" stroke="black" stroke-width="1.5" stroke-linecap="round" stroke-linejoin="round"/>
<path d="M15 22.875C14.7929 22.875 14.625 22.7071 14.625 22.5" stroke="black" stroke-width="1.5" stroke-linecap="round" stroke-linejoin="round"/>
<path d="M15.375 22.5C15.375 22.7071 15.2071 22.875 15 22.875" stroke="black" stroke-width="1.5" stroke-linecap="round" stroke-linejoin="round"/>
<path d="M8.25 22.125C8.45711 22.125 8.625 22.2929 8.625 22.5" stroke="black" stroke-width="1.5" stroke-linecap="round" stroke-linejoin="round"/>
<path d="M7.875 22.5C7.875 22.2929 8.04289 22.125 8.25 22.125" stroke="black" stroke-width="1.5" stroke-linecap="round" stroke-linejoin="round"/>
<path d="M8.25 22.875C8.04289 22.875 7.875 22.7071 7.875 22.5" stroke="black" stroke-width="1.5" stroke-linecap="round" stroke-linejoin="round"/>
<path d="M8.625 22.5C8.625 22.7071 8.45711 22.875 8.25 22.875" stroke="black" stroke-width="1.5" stroke-linecap="round" stroke-linejoin="round"/>
<path d="M2.25 16.875C2.45711 16.875 2.625 16.7071 2.625 16.5" stroke="black" stroke-width="1.5" stroke-linecap="round" stroke-linejoin="round"/>
<path d="M1.875 16.5C1.875 16.7071 2.04289 16.875 2.25 16.875" stroke="black" stroke-width="1.5" stroke-linecap="round" stroke-linejoin="round"/>
<path d="M2.25 16.125C2.04289 16.125 1.875 16.2929 1.875 16.5" stroke="black" stroke-width="1.5" stroke-linecap="round" stroke-linejoin="round"/>
<path d="M2.625 16.5C2.625 16.2929 2.45711 16.125 2.25 16.125" stroke="black" stroke-width="1.5" stroke-linecap="round" stroke-linejoin="round"/>
<path d="M21.75 16.875C21.9571 16.875 22.125 16.7071 22.125 16.5" stroke="black" stroke-width="1.5" stroke-linecap="round" stroke-linejoin="round"/>
<path d="M21.375 16.5C21.375 16.7071 21.5429 16.875 21.75 16.875" stroke="black" stroke-width="1.5" stroke-linecap="round" stroke-linejoin="round"/>
<path d="M21.75 16.125C21.5429 16.125 21.375 16.2929 21.375 16.5" stroke="black" stroke-width="1.5" stroke-linecap="round" stroke-linejoin="round"/>
<path d="M22.125 16.5C22.125 16.2929 21.9571 16.125 21.75 16.125" stroke="black" stroke-width="1.5" stroke-linecap="round" stroke-linejoin="round"/>
<path d="M15 16.875C15.2071 16.875 15.375 16.7071 15.375 16.5" stroke="black" stroke-width="1.5" stroke-linecap="round" stroke-linejoin="round"/>
<path d="M14.625 16.5C14.625 16.7071 14.7929 16.875 15 16.875" stroke="black" stroke-width="1.5" stroke-linecap="round" stroke-linejoin="round"/>
<path d="M15 16.125C14.7929 16.125 14.625 16.2929 14.625 16.5" stroke="black" stroke-width="1.5" stroke-linecap="round" stroke-linejoin="round"/>
<path d="M15.375 16.5C15.375 16.2929 15.2071 16.125 15 16.125" stroke="black" stroke-width="1.5" stroke-linecap="round" stroke-linejoin="round"/>
<path d="M8.25 16.875C8.45711 16.875 8.625 16.7071 8.625 16.5" stroke="black" stroke-width="1.5" stroke-linecap="round" stroke-linejoin="round"/>
<path d="M7.875 16.5C7.875 16.7071 8.04289 16.875 8.25 16.875" stroke="black" stroke-width="1.5" stroke-linecap="round" stroke-linejoin="round"/>
<path d="M8.25 16.125C8.04289 16.125 7.875 16.2929 7.875 16.5" stroke="black" stroke-width="1.5" stroke-linecap="round" stroke-linejoin="round"/>
<path d="M8.625 16.5C8.625 16.2929 8.45711 16.125 8.25 16.125" stroke="black" stroke-width="1.5" stroke-linecap="round" stroke-linejoin="round"/>
</svg>
