<svg width="24" height="24" viewBox="0 0 24 24" fill="none" xmlns="http://www.w3.org/2000/svg">
<path d="M15.75 23.25L12.821 20.906C12.3209 20.506 12.0998 19.8513 12.255 19.23V19.23C12.3754 18.7481 12.7081 18.3469 13.1594 18.1395C13.6107 17.932 14.1318 17.9406 14.576 18.163L15.75 18.75V13.5C15.75 12.6716 16.4216 12 17.25 12V12C18.0784 12 18.75 12.6716 18.75 13.5V16.5L20.743 16.832C22.1896 17.073 23.2499 18.3245 23.25 19.791V23.25" stroke="black" stroke-width="1.5" stroke-linecap="round" stroke-linejoin="round"/>
<path d="M11.25 23.25H3C1.75736 23.25 0.75 22.2426 0.75 21V3C0.75 1.75736 1.75736 0.75 3 0.75H12C13.2426 0.75 14.25 1.75736 14.25 3V9.75" stroke="black" stroke-width="1.5" stroke-linecap="round" stroke-linejoin="round"/>
<path d="M0.75 18.75H9.75" stroke="black" stroke-width="1.5" stroke-linecap="round" stroke-linejoin="round"/>
<path fill-rule="evenodd" clip-rule="evenodd" d="M11.25 9C11.25 8.58579 10.9142 8.25 10.5 8.25H9V6.75C9 6.33579 8.66421 6 8.25 6H6.75C6.33579 6 6 6.33579 6 6.75V8.25H4.5C4.08579 8.25 3.75 8.58579 3.75 9V10.5C3.75 10.9142 4.08579 11.25 4.5 11.25H6V12.75C6 13.1642 6.33579 13.5 6.75 13.5H8.25C8.66421 13.5 9 13.1642 9 12.75V11.25H10.5C10.9142 11.25 11.25 10.9142 11.25 10.5V9Z" stroke="black" stroke-width="1.5" stroke-linecap="round" stroke-linejoin="round"/>
</svg>
