<svg width="25" height="24" viewBox="0 0 25 24" fill="none" xmlns="http://www.w3.org/2000/svg">
<path fill-rule="evenodd" clip-rule="evenodd" d="M6.04 9.75C8.42587 9.75 10.36 7.73528 10.36 5.25C10.36 2.76472 8.42587 0.75 6.04 0.75C3.65413 0.75 1.72 2.76472 1.72 5.25C1.72 7.73528 3.65413 9.75 6.04 9.75Z" stroke="black" stroke-width="1.5" stroke-linecap="round" stroke-linejoin="round"/>
<path d="M6.04001 3V5.25H7.48001" stroke="black" stroke-width="1.5" stroke-linecap="round" stroke-linejoin="round"/>
<path d="M23.32 23.25V20.25" stroke="black" stroke-width="1.5" stroke-linecap="round" stroke-linejoin="round"/>
<path d="M1.72 23.25V20.25H7.48" stroke="black" stroke-width="1.5" stroke-linecap="round" stroke-linejoin="round"/>
<path d="M8.92 20.25H7.48C7.0599 20.2497 6.66087 20.0583 6.38752 19.726L2.06752 14.476C1.5811 13.8448 1.6632 12.9254 2.25304 12.3984C2.84288 11.8715 3.72769 11.927 4.25248 12.524L8.1424 17.25H8.92" stroke="black" stroke-width="1.5" stroke-linecap="round" stroke-linejoin="round"/>
<path fill-rule="evenodd" clip-rule="evenodd" d="M16.84 7.5C18.2318 7.5 19.36 6.32475 19.36 4.875C19.36 3.42525 18.2318 2.25 16.84 2.25C15.4482 2.25 14.32 3.42525 14.32 4.875C14.32 6.32475 15.4482 7.5 16.84 7.5Z" stroke="black" stroke-width="1.5" stroke-linecap="round" stroke-linejoin="round"/>
<path d="M14.68 18.75H11.8L13.24 14.25V12C13.24 10.3431 14.5294 9 16.12 9H17.56C19.1506 9 20.44 10.3431 20.44 12V14.25L21.88 18.75H19V21.75C19 22.5784 18.3553 23.25 17.56 23.25H16.12C15.3247 23.25 14.68 22.5784 14.68 21.75V18.75" stroke="black" stroke-width="1.5" stroke-linecap="round" stroke-linejoin="round"/>
</svg>
