<svg width="24" height="25" viewBox="0 0 24 25" fill="none" xmlns="http://www.w3.org/2000/svg">
<path fill-rule="evenodd" clip-rule="evenodd" d="M12.48 6.56L7.19201 22.7C6.80541 23.8783 5.53681 24.5201 4.35851 24.1335C3.18021 23.7469 2.53841 22.4783 2.92501 21.3C2.9534 21.2141 2.98679 21.13 3.02501 21.048L10.353 5.376C10.4377 5.16464 10.5801 4.98134 10.764 4.847L14.722 1.978C15.0664 1.69304 15.5407 1.62313 15.9527 1.7966C16.3647 1.97008 16.6461 2.35817 16.6829 2.80367C16.7197 3.24916 16.5059 3.67821 16.128 3.917L12.48 6.56Z" stroke="black" stroke-width="1.5" stroke-linecap="round" stroke-linejoin="round"/>
<path d="M9.89999 14.437L16.236 8.553C16.3943 8.38921 16.5952 8.27285 16.816 8.217L21.562 7.046C22.1843 6.93517 22.7859 7.3261 22.9374 7.93979C23.0889 8.55348 22.7384 9.17947 22.136 9.371L17.763 10.45L6.79999 23.424" stroke="black" stroke-width="1.5" stroke-linecap="round" stroke-linejoin="round"/>
</svg>
