<svg width="24" height="24" viewBox="0 0 24 24" fill="none" xmlns="http://www.w3.org/2000/svg">
<path fill-rule="evenodd" clip-rule="evenodd" d="M21 12.747H5.99999C5.01261 12.7465 4.14081 12.1026 3.84999 11.159L0.849993 3.659C0.511014 2.48048 1.1782 1.24755 2.35021 0.886678C3.52222 0.525809 4.76736 1.16992 5.14999 2.335L7.66099 8.247H21C22.2426 8.247 23.25 9.25436 23.25 10.497C23.25 11.7396 22.2426 12.747 21 12.747Z" stroke="black" stroke-width="1.5" stroke-linecap="round" stroke-linejoin="round"/>
<path fill-rule="evenodd" clip-rule="evenodd" d="M6 23.25C7.24264 23.25 8.25 22.2426 8.25 21C8.25 19.7574 7.24264 18.75 6 18.75C4.75736 18.75 3.75 19.7574 3.75 21C3.75 22.2426 4.75736 23.25 6 23.25Z" stroke="black" stroke-width="1.5" stroke-linecap="round" stroke-linejoin="round"/>
<path fill-rule="evenodd" clip-rule="evenodd" d="M21 23.25C22.2426 23.25 23.25 22.2426 23.25 21C23.25 19.7574 22.2426 18.75 21 18.75C19.7574 18.75 18.75 19.7574 18.75 21C18.75 22.2426 19.7574 23.25 21 23.25Z" stroke="black" stroke-width="1.5" stroke-linecap="round" stroke-linejoin="round"/>
<path d="M8.25 21H18.75" stroke="black" stroke-width="1.5" stroke-linecap="round" stroke-linejoin="round"/>
<path d="M7.94702 19.872L20.255 12.747" stroke="black" stroke-width="1.5" stroke-linecap="round" stroke-linejoin="round"/>
<path d="M19.053 19.872L6.745 12.747" stroke="black" stroke-width="1.5" stroke-linecap="round" stroke-linejoin="round"/>
<path d="M8.25 1.5L9.75 5.25" stroke="black" stroke-width="1.5" stroke-linecap="round" stroke-linejoin="round"/>
</svg>
