<svg width="24" height="24" viewBox="0 0 24 24" fill="none" xmlns="http://www.w3.org/2000/svg">
<path d="M18.894 18.144L23.25 22.5" stroke="black" stroke-width="1.5" stroke-linecap="round" stroke-linejoin="round"/>
<path d="M0.75 12H7.268C7.41012 12 7.54012 11.92 7.604 11.793L9.377 8.247C9.4431 8.11525 9.58026 8.03444 9.72754 8.04048C9.87482 8.04652 10.0049 8.13828 10.06 8.275L12.46 14.275C12.5136 14.4082 12.6385 14.4992 12.7818 14.5092C12.925 14.5192 13.0614 14.4465 13.133 14.322L15.447 10.273C15.5114 10.16 15.6298 10.0884 15.7599 10.0839C15.8899 10.0795 16.0129 10.1427 16.085 10.251L17.25 12" stroke="black" stroke-width="1.5" stroke-linecap="round" stroke-linejoin="round"/>
<path d="M2.71997 8.25C4.14836 3.82954 8.49688 1.03054 13.112 1.56099C17.7271 2.09144 21.3272 5.80402 21.7155 10.4333C22.1037 15.0625 19.1723 19.3229 14.71 20.6147C10.2477 21.9064 5.49369 19.8708 3.34897 15.75" stroke="black" stroke-width="1.5" stroke-linecap="round" stroke-linejoin="round"/>
</svg>
