<svg width="24" height="24" viewBox="0 0 24 24" fill="none" xmlns="http://www.w3.org/2000/svg">
<path d="M17.0329 16.583L12.5409 21.269C12.3997 21.4166 12.2042 21.5 11.9999 21.5C11.7957 21.5 11.6002 21.4166 11.4589 21.269L6.96594 16.582" stroke="black" stroke-width="1.5" stroke-linecap="round" stroke-linejoin="round"/>
<path d="M1.47101 10.587C0.556951 8.94906 0.511286 6.96527 1.34901 5.287V5.287C2.16464 3.65621 3.71442 2.51687 5.51426 2.22485C7.31411 1.93284 9.14462 2.52374 10.434 3.813L12 5.374L13.566 3.808C14.8554 2.51874 16.6859 1.92784 18.4858 2.21985C20.2856 2.51187 21.8354 3.65121 22.651 5.282V5.282C23.4888 6.95997 23.4442 8.94333 22.532 10.582" stroke="black" stroke-width="1.5" stroke-linecap="round" stroke-linejoin="round"/>
<path d="M0.75 13.583H7.268C7.41012 13.5831 7.54012 13.503 7.604 13.376L9.327 9.92901C9.39484 9.78861 9.5423 9.70465 9.69766 9.71796C9.85302 9.73128 9.98404 9.83911 10.027 9.98901L11.708 15.589C11.7558 15.7367 11.8894 15.8398 12.0443 15.8487C12.1993 15.8575 12.3437 15.7703 12.408 15.629L13.978 11.965C14.0325 11.8388 14.1515 11.7524 14.2884 11.7397C14.4253 11.727 14.5582 11.79 14.635 11.904L15.751 13.578H23.251" stroke="black" stroke-width="1.5" stroke-linecap="round" stroke-linejoin="round"/>
</svg>
