<svg width="24" height="24" viewBox="0 0 24 24" fill="none" xmlns="http://www.w3.org/2000/svg">
<path fill-rule="evenodd" clip-rule="evenodd" d="M15.75 21.75H8.25L9 17.25H15L15.75 21.75V21.75Z" stroke="black" stroke-width="1.5" stroke-linecap="round" stroke-linejoin="round"/>
<path d="M6 21.75H18" stroke="black" stroke-width="1.5" stroke-linecap="round" stroke-linejoin="round"/>
<path fill-rule="evenodd" clip-rule="evenodd" d="M0.75 4.5C0.75 3.25736 1.75736 2.25 3 2.25H21C22.2426 2.25 23.25 3.25736 23.25 4.5V15C23.25 16.2426 22.2426 17.25 21 17.25H3C1.75736 17.25 0.75 16.2426 0.75 15V4.5Z" stroke="black" stroke-width="1.5" stroke-linecap="round" stroke-linejoin="round"/>
<path d="M19.933 9.75H17.451C17.3256 9.75017 17.2084 9.68746 17.139 9.583L14.608 5.788C14.5338 5.67696 14.4062 5.61372 14.273 5.62196C14.1397 5.6302 14.0209 5.70868 13.961 5.828L10.039 13.672C9.97908 13.7913 9.86025 13.8698 9.72698 13.878C9.59372 13.8863 9.46613 13.823 9.39198 13.712L6.86098 9.917C6.79156 9.81254 6.67441 9.74983 6.54898 9.75H3.43298" stroke="black" stroke-width="1.5" stroke-linecap="round" stroke-linejoin="round"/>
</svg>
