<svg width="24" height="24" viewBox="0 0 24 24" fill="none" xmlns="http://www.w3.org/2000/svg">
<path d="M23.25 18V11.25H16.5" stroke="black" stroke-width="1.5" stroke-linecap="round" stroke-linejoin="round"/>
<path d="M23.25 11.25L15.311 19.189C15.0297 19.4705 14.648 19.6287 14.25 19.6287C13.852 19.6287 13.4703 19.4705 13.189 19.189L10.061 16.061C9.77967 15.7795 9.39799 15.6213 9 15.6213C8.60201 15.6213 8.22033 15.7795 7.939 16.061L0.75 23.25" stroke="black" stroke-width="1.5" stroke-linecap="round" stroke-linejoin="round"/>
<path fill-rule="evenodd" clip-rule="evenodd" d="M6.75003 11.25L1.63603 5.915C0.714892 4.99443 0.486836 3.58741 1.07003 2.423V2.423C1.50489 1.55318 2.33141 0.945464 3.29132 0.789738C4.25124 0.634012 5.22749 0.949269 5.91503 1.637L6.75003 2.472L7.58503 1.637C8.27276 0.949278 9.24914 0.634041 10.2092 0.789756C11.1692 0.945472 11.9959 1.55316 12.431 2.423V2.423C13.0133 3.58771 12.7849 4.99436 11.864 5.915L6.75003 11.25Z" stroke="black" stroke-width="1.5" stroke-linecap="round" stroke-linejoin="round"/>
</svg>
