<svg width="49" height="50" viewBox="0 0 49 50" fill="none" stroke="#FF9362" xmlns="http://www.w3.org/2000/svg">
<path fill-rule="evenodd" clip-rule="evenodd" d="M13.7305 39.8125C13.7305 39.3983 14.0663 39.0625 14.4805 39.0625H37.9805C38.3947 39.0625 38.7305 39.3983 38.7305 39.8125V47.6875C38.7305 48.1017 38.3947 48.4375 37.9805 48.4375H14.4805C14.0663 48.4375 13.7305 48.1017 13.7305 47.6875V39.8125Z" stroke="inherit" stroke-width="1.5" stroke-linecap="round" stroke-linejoin="round"/>
<path fill-rule="evenodd" clip-rule="evenodd" d="M16.8555 30.4375C16.8555 30.0233 17.1913 29.6875 17.6055 29.6875H41.1055C41.5197 29.6875 41.8555 30.0233 41.8555 30.4375V38.3125C41.8555 38.7267 41.5197 39.0625 41.1055 39.0625H17.6055C17.1913 39.0625 16.8555 38.7267 16.8555 38.3125V30.4375Z" stroke="inherit" stroke-width="1.5" stroke-linecap="round" stroke-linejoin="round"/>
<path fill-rule="evenodd" clip-rule="evenodd" d="M7.48047 21.0625C7.48047 20.6483 7.81626 20.3125 8.23047 20.3125H31.7305C32.1447 20.3125 32.4805 20.6483 32.4805 21.0625V28.9375C32.4805 29.3517 32.1447 29.6875 31.7305 29.6875H8.23047C7.81625 29.6875 7.48047 29.3517 7.48047 28.9375V21.0625Z" stroke="inherit" stroke-width="1.5" stroke-linecap="round" stroke-linejoin="round"/>
<path fill-rule="evenodd" clip-rule="evenodd" d="M10.6055 11.6875C10.6055 11.2733 10.9413 10.9375 11.3555 10.9375H34.8555C35.2697 10.9375 35.6055 11.2733 35.6055 11.6875V19.5625C35.6055 19.9767 35.2697 20.3125 34.8555 20.3125H11.3555C10.9413 20.3125 10.6055 19.9767 10.6055 19.5625V11.6875Z" stroke="inherit" stroke-width="1.5" stroke-linecap="round" stroke-linejoin="round"/>
<path d="M44.9805 15.625V21.875" stroke="inherit" stroke-width="1.5" stroke-linecap="round" stroke-linejoin="round"/>
<path d="M41.8555 18.75H48.1055" stroke="inherit" stroke-width="1.5" stroke-linecap="round" stroke-linejoin="round"/>
<path d="M4.35547 1.5625V7.8125" stroke="inherit" stroke-width="1.5" stroke-linecap="round" stroke-linejoin="round"/>
<path d="M1.23047 4.6875H7.48047" stroke="inherit" stroke-width="1.5" stroke-linecap="round" stroke-linejoin="round"/>
</svg>
