<svg width="49" height="50" stroke="#582EFF" viewBox="0 0 49 50" fill="none" xmlns="http://www.w3.org/2000/svg">
<path fill-rule="evenodd" clip-rule="evenodd" d="M13.3965 14.0625C20.3 14.0625 25.8965 11.2643 25.8965 7.8125C25.8965 4.36072 20.3 1.5625 13.3965 1.5625C6.49292 1.5625 0.896484 4.36072 0.896484 7.8125C0.896484 11.2643 6.49292 14.0625 13.3965 14.0625Z" stroke="inherit" stroke-width="1.5" stroke-linecap="round" stroke-linejoin="round"/>
<path d="M25.8965 14.0625C25.8965 17.5146 20.3007 20.3125 13.3965 20.3125C6.49232 20.3125 0.896484 17.5146 0.896484 14.0625" stroke="inherit" stroke-width="1.5" stroke-linecap="round" stroke-linejoin="round"/>
<path d="M25.8965 20.3125V7.8125" stroke="inherit" stroke-width="1.5" stroke-linecap="round" stroke-linejoin="round"/>
<path d="M0.896484 7.8125V39.0625C0.896484 42.5146 6.49232 45.3125 13.3965 45.3125C14.9706 45.315 16.541 45.1593 18.084 44.8479" stroke="inherit" stroke-width="1.5" stroke-linecap="round" stroke-linejoin="round"/>
<path d="M0.896484 32.8125C0.896484 36.2646 6.49232 39.0625 13.3965 39.0625C14.9706 39.065 16.541 38.9093 18.084 38.5979" stroke="inherit" stroke-width="1.5" stroke-linecap="round" stroke-linejoin="round"/>
<path d="M0.896484 26.5625C0.896484 30.0146 6.49232 32.8125 13.3965 32.8125C14.9706 32.815 16.541 32.6593 18.084 32.3479" stroke="inherit" stroke-width="1.5" stroke-linecap="round" stroke-linejoin="round"/>
<path d="M0.896484 20.3125C0.896484 23.7646 6.49232 26.5625 13.3965 26.5625C14.9706 26.565 16.541 26.4093 18.084 26.0979" stroke="inherit" stroke-width="1.5" stroke-linecap="round" stroke-linejoin="round"/>
<path fill-rule="evenodd" clip-rule="evenodd" d="M35.2715 35.9375C42.175 35.9375 47.7715 33.1393 47.7715 29.6875C47.7715 26.2357 42.175 23.4375 35.2715 23.4375C28.3679 23.4375 22.7715 26.2357 22.7715 29.6875C22.7715 33.1393 28.3679 35.9375 35.2715 35.9375Z" stroke="inherit" stroke-width="1.5" stroke-linecap="round" stroke-linejoin="round"/>
<path d="M22.7715 29.6875V42.1875C22.7715 45.6396 28.3673 48.4375 35.2715 48.4375C42.1757 48.4375 47.7715 45.6396 47.7715 42.1875V29.6875" stroke="inherit" stroke-width="1.5" stroke-linecap="round" stroke-linejoin="round"/>
<path d="M47.7715 35.9375C47.7715 39.3896 42.1757 42.1875 35.2715 42.1875C28.3673 42.1875 22.7715 39.3896 22.7715 35.9375" stroke="inherit" stroke-width="1.5" stroke-linecap="round" stroke-linejoin="round"/>
</svg>
