<svg width="519" height="286" viewBox="0 0 519 286" fill="none" xmlns="http://www.w3.org/2000/svg">
<path d="M149.455 0.516235C223.892 -3.6781 301.938 18.1713 290.465 49.8446C283.828 68.1686 305.399 61.5249 330.387 54.8808C348.589 50.0409 368.606 45.201 380.851 50.0138C401.536 58.144 393.267 82.8932 403.276 92.866C415.4 104.953 427.677 102.605 440.867 100.257C452.627 98.1637 465.12 96.0699 478.886 104.214C508.087 121.49 495.943 283.052 484.053 283.028L33.7346 282.227L28.3464 282.398C28.3464 282.398 -4.67938 235.988 25.2174 208.888C55.1142 181.788 34.5868 169.397 30.9535 158.923C26.7819 146.897 17.0478 125.894 59.4597 110.481C101.872 95.0678 90.9209 61.5314 89.8783 54.5869C88.8353 47.6424 75.0177 4.71088 149.455 0.516235Z" fill="#F9F7FF"/>
<path d="M392.119 72.7012H377.825C374.572 60.3185 375.949 42.9916 359.861 36.2902C359.232 36.0279 358.581 35.7923 357.91 35.5835V9.68539H392.119V72.7012Z" fill="#D5CAFF"/>
<path d="M357.909 283.11V35.586C358.581 35.7955 359.232 36.0308 359.86 36.2946C375.949 42.9956 374.572 60.322 377.825 72.7047H357.909V283.11Z" fill="#CEC2FE"/>
<path d="M310.139 283.11V93.0885H344.344V136.882H310.139V283.11Z" fill="#CEC2FE"/>
<path d="M406.371 91.6523V68.9276H440.58V87.8527C439.222 87.7292 437.879 87.6737 436.547 87.6737C430.863 87.6737 425.379 88.6799 420.045 89.686C415.384 90.5653 410.836 91.4444 406.371 91.6523Z" fill="#D5CAFF"/>
<path d="M406.371 283.11V91.6521C410.836 91.4441 415.384 90.5651 420.045 89.6857C425.379 88.6796 430.863 87.6734 436.547 87.6734C437.879 87.6734 439.222 87.7289 440.58 87.8525V118.29H406.371V283.11Z" fill="#CEC2FE"/>
<path d="M262.364 283.11V60.5049H296.573V111.809H262.364V283.11Z" fill="#CEC2FE"/>
<path d="M214.592 283.11V126.505H248.801V162.598H214.592V283.11Z" fill="#CEC2FE"/>
<path d="M392.119 89.1216C388.842 87.587 385.589 85.2533 382.349 81.83C380.096 79.4522 378.766 76.2845 377.825 72.7026H392.119V89.1216Z" fill="#B7A7F7"/>
<path d="M392.119 283.11H357.91V72.7045H377.825C378.766 76.2864 380.096 79.4541 382.349 81.8319C385.589 85.2553 388.842 87.5889 392.119 89.1235V283.11Z" fill="#B2A1F4"/>
<path d="M344.344 283.11H310.139V136.882H344.344V283.11Z" fill="#B2A1F4"/>
<path d="M440.58 283.11H406.371V118.29H440.58V283.11Z" fill="#B2A1F4"/>
<path d="M296.573 283.11H262.364V111.809H296.573V283.11Z" fill="#B2A1F4"/>
<path d="M248.801 283.11H214.592V162.598H248.801V283.11Z" fill="#B2A1F4"/>
<path d="M457.205 11.7812L429.947 33.0691L440.345 33.754L375.277 152.011L339.248 96.2337L288.285 218.993L255.503 170.911L214.644 230.553L217.215 241.228L255.484 185.635L290.137 236.46L340.914 114.151L375.873 168.27L447.908 37.3451L454.597 44.7723L457.205 11.7812Z" fill="#634DBA"/>
<path d="M183.48 204.051C144.363 171.884 111.497 130.28 86.6118 81.4294C68.6781 96.3069 50.7444 111.183 32.8109 126.06C61.5836 182.542 99.5844 230.645 144.811 267.835C157.7 246.573 170.59 225.313 183.48 204.051Z" fill="#21836A"/>
<path d="M78.1879 93.09C67.0479 102.48 55.908 111.868 44.768 121.257C47.4209 126.363 46.4583 133.254 42.506 136.75C67.7997 182.933 99.4991 223.06 136.412 255.622C139.43 250.943 145.118 250.035 149.206 253.46C157.334 240.259 165.462 227.056 173.589 213.855C169.827 210.703 169.291 204.261 172.307 199.586C139.891 170.993 112.055 135.755 89.8429 95.1983C85.8935 98.692 80.6296 97.7913 78.1879 93.09Z" fill="#88D3C0"/>
<path d="M123.208 198.67C131.559 187.54 131.479 171.12 123.601 161.296C115.702 151.499 102.205 151.039 92.8683 160.944C83.5465 170.827 82.6556 188.397 91.5362 199.428C100.407 210.471 114.873 209.782 123.208 198.67Z" fill="#31C5A1"/>
<path d="M122.655 167.086C121.605 168.29 120.556 169.492 119.506 170.694C122.017 175.446 121.485 180.357 118.778 183.567C116.045 186.797 112.985 187.096 108.321 184.242C104.933 182.266 103.305 181.683 102.272 182.838C101.399 183.812 101.11 185.582 102.961 187.999C103.967 189.31 104.971 190.186 105.861 190.803C107.046 191.627 107.421 193.486 106.69 194.918C105.984 196.3 104.491 196.758 103.349 195.917C102.415 195.23 101.395 194.292 100.294 192.989C99.3861 194.026 98.4782 195.059 97.5699 196.093C96.6189 194.863 95.6734 193.624 94.734 192.381C95.7225 191.274 96.7109 190.169 97.6991 189.062C95.3011 184.279 95.7777 179.524 98.5611 176.508C101.633 173.176 105.186 174.2 109.258 176.837C112.082 178.656 113.719 178.944 114.889 177.6C116.122 176.181 115.721 174.019 114.167 171.974C113.101 170.569 111.864 169.499 110.644 168.706C109.446 167.925 109.12 166.019 109.926 164.595C109.955 164.542 109.984 164.489 110.014 164.438C110.745 163.144 112.142 162.707 113.207 163.425C114.484 164.285 115.858 165.515 117.072 166.975C118.057 165.866 119.043 164.755 120.029 163.645C120.898 164.798 121.774 165.945 122.655 167.086Z" fill="#21836A"/>
<path d="M154.025 227.314C145.111 219.431 136.521 211.08 128.276 202.282C126.863 204.178 125.45 206.077 124.037 207.974C132.398 216.895 141.108 225.365 150.147 233.357C151.439 231.342 152.731 229.327 154.025 227.314Z" fill="#31C5A1"/>
<path d="M175.505 191.081C126.372 184.646 78.1873 167.671 33.4879 141.05C24.9902 161.608 16.4925 182.169 7.99481 202.728C59.6775 233.509 115.39 253.137 172.198 260.576C173.299 237.412 174.402 214.246 175.505 191.081Z" fill="#21836A"/>
<path d="M31.7104 154.417C26.5016 167.306 21.2932 180.194 16.0844 193.083C20.8021 195.842 23.2306 201.779 21.4605 206.482C65.2513 230.788 111.725 247.16 159.134 254.983C159.535 249.797 164.035 246.302 169.201 247.025C169.993 232.579 170.785 218.135 171.577 203.691C166.824 203.025 163.308 198.176 163.709 192.993C122.076 186.124 81.2645 171.745 42.8094 150.402C41.0408 155.101 36.052 156.956 31.7104 154.417Z" fill="#88D3C0"/>
<path d="M120.722 216.228C122.689 203.319 114.844 190.326 103.365 186.376C91.8797 182.457 79.9644 188.678 76.5628 201.097C73.1649 213.49 80.7126 227.869 93.6324 232.288C106.549 236.723 118.76 229.115 120.722 216.228Z" fill="#31C5A1"/>
<path d="M105.286 191.436C104.946 192.905 104.606 194.371 104.266 195.838C108.692 198.383 110.557 202.54 109.731 206.409C108.892 210.306 106.382 212.037 100.988 212.05C97.1158 212.134 95.4283 212.466 95.0809 213.887C94.7854 215.087 95.3728 216.633 98.1214 217.646C99.6139 218.196 100.899 218.401 101.963 218.457C103.38 218.531 104.585 219.825 104.629 221.316C104.671 222.758 103.596 223.851 102.207 223.74C101.072 223.652 99.7441 223.405 98.1735 222.908C97.8768 224.174 97.5796 225.438 97.2824 226.702C95.875 226.189 94.4696 225.667 93.0663 225.14C93.3993 223.779 93.7319 222.418 94.0644 221.057C89.7212 218.433 87.883 214.428 88.8669 210.675C89.9515 206.531 93.5152 205.609 98.2938 205.714C101.603 205.78 103.157 205.209 103.535 203.571C103.931 201.844 102.559 200.322 100.245 199.459C98.6549 198.864 97.0764 198.618 95.6435 198.584C94.2359 198.551 93.0508 197.197 93.0743 195.672C93.0752 195.618 93.076 195.561 93.0767 195.506C93.0981 194.123 94.1009 193.093 95.3641 193.143C96.8787 193.203 98.6516 193.507 100.395 194.073C100.724 192.713 101.053 191.35 101.381 189.989C102.681 190.479 103.982 190.96 105.286 191.436Z" fill="#21836A"/>
<path d="M152.943 88.6919C151.751 88.2794 150.579 87.8141 149.445 87.2518C148.165 86.6154 146.506 85.8715 145.458 85.7058C143.251 85.3551 139.461 85.5877 137.367 87.9251C134.76 90.8372 130.126 88.4504 131.059 103.7C132.116 120.959 141.441 119.064 141.666 118.771C141.893 118.48 149.983 107.729 149.983 107.729C149.983 107.729 152.812 114.098 152.812 113.864C152.812 113.638 167.256 93.654 152.943 88.6919Z" fill="#0E2E35"/>
<path d="M162.772 202.473C124.115 218.244 81.4648 225.453 37.0659 223.722C40.0126 243.231 42.9592 262.741 45.9059 282.249C97.241 284.251 146.555 275.915 191.25 257.68C181.757 239.279 172.265 220.876 162.772 202.473Z" fill="#21836A"/>
<path d="M41.7126 234.824C43.646 247.004 45.5795 259.183 47.5129 271.364C52.1761 271.506 56.5843 275.078 57.3849 279.467C100.093 279.789 141.229 272.837 179.248 258.867C177.235 254.684 178.959 250.075 183.043 248.453C177.201 236.934 171.358 225.416 165.515 213.896C161.756 215.388 157.038 213.117 155.027 208.936C121.642 221.203 85.518 227.309 48.0143 227.025C48.8143 231.411 46.0037 234.954 41.7126 234.824Z" fill="#88D3C0"/>
<path d="M134.036 245.087C129.732 234.261 118.242 227.515 108.124 229.304C98.0135 231.121 92.0975 240.971 95.1385 252.024C98.1714 263.057 110.061 271.001 121.438 268.965C132.82 266.944 138.335 255.895 134.036 245.087Z" fill="#31C5A1"/>
<path d="M111.769 232.408C112.174 233.688 112.578 234.968 112.982 236.247C117.339 236.348 120.545 238.779 121.662 242.123C122.784 245.495 121.724 247.896 117.799 250.184C115.016 251.885 113.934 252.854 114.312 254.102C114.63 255.156 115.746 256.105 118.199 255.729C119.53 255.525 120.558 255.139 121.357 254.733C122.423 254.192 123.876 254.686 124.571 255.821C125.243 256.921 124.945 258.22 123.884 258.722C123.018 259.133 121.94 259.503 120.576 259.782C120.921 260.887 121.267 261.99 121.612 263.096C120.359 263.291 119.103 263.482 117.846 263.665C117.484 262.472 117.122 261.278 116.759 260.085C112.428 259.886 109.308 257.561 108.358 254.24C107.306 250.573 109.493 248.354 113.021 246.417C115.461 245.07 116.34 243.972 115.887 242.544C115.408 241.038 113.732 240.441 111.662 240.748C110.239 240.959 108.98 241.437 107.921 242.015C106.881 242.584 105.415 242.036 104.755 240.846C104.731 240.802 104.707 240.76 104.683 240.716C104.083 239.635 104.356 238.414 105.299 237.92C106.429 237.326 107.856 236.813 109.378 236.515C109.013 235.322 108.647 234.129 108.281 232.935C109.445 232.766 110.608 232.59 111.769 232.408Z" fill="#21836A"/>
<path d="M166.792 234.029C157.598 237.394 148.211 240.324 138.654 242.811C139.393 244.649 140.131 246.486 140.869 248.325C150.56 245.802 160.078 242.832 169.402 239.419C168.531 237.623 167.663 235.825 166.792 234.029Z" fill="#31C5A1"/>
<path d="M98.9934 266.813V281.105C98.9934 283.416 123.954 285.288 154.744 285.288C185.533 285.288 210.493 283.416 210.493 281.105V266.813H98.9934Z" fill="#E59F39"/>
<path d="M139.339 285.125V266.81H98.9934V281.102C98.9934 283.011 116.041 284.623 139.339 285.125Z" fill="#EAB054"/>
<path d="M141.216 285.165C145.546 285.246 150.079 285.288 154.744 285.288C161.695 285.288 168.349 285.193 174.485 285.018V266.813H141.216V285.165Z" fill="#EAB054"/>
<path d="M176.72 284.953C196.583 284.313 210.493 282.833 210.493 281.107V266.815H176.72V284.953Z" fill="#EAB054"/>
<path d="M210.493 266.66C210.493 268.971 185.533 270.845 154.744 270.845C123.954 270.845 98.9934 268.971 98.9934 266.66C98.9934 264.351 123.954 262.477 154.744 262.477C185.533 262.477 210.493 264.351 210.493 266.66Z" fill="#E59F39"/>
<path d="M200.652 266.66C200.652 268.262 180.098 269.561 154.744 269.561C129.389 269.561 108.834 268.262 108.834 266.66C108.834 265.059 129.389 263.76 154.744 263.76C180.098 263.76 200.652 265.059 200.652 266.66Z" fill="#F7CC7F"/>
<path d="M89.4551 251.691V265.983C89.4551 268.292 114.415 270.166 145.205 270.166C175.994 270.166 200.954 268.292 200.954 265.983V251.691H89.4551Z" fill="#E59F39"/>
<path d="M129.8 270.004V251.691H89.4551V265.983C89.4551 267.892 106.503 269.503 129.8 270.004Z" fill="#EAB054"/>
<path d="M131.678 270.043C136.009 270.122 140.54 270.166 145.205 270.166C152.156 270.166 158.81 270.071 164.947 269.896V251.691H131.678V270.043Z" fill="#EAB054"/>
<path d="M167.181 269.826C187.044 269.186 200.954 267.705 200.954 265.981V251.689H167.181V269.826Z" fill="#EAB054"/>
<path d="M200.954 251.537C200.954 253.848 175.994 255.72 145.205 255.72C114.415 255.72 89.4551 253.848 89.4551 251.537C89.4551 249.226 114.415 247.354 145.205 247.354C175.994 247.354 200.954 249.226 200.954 251.537Z" fill="#E59F39"/>
<path d="M191.113 251.539C191.113 253.142 170.559 254.439 145.205 254.439C119.85 254.439 99.2961 253.142 99.2961 251.539C99.2961 249.937 119.85 248.638 145.205 248.638C170.559 248.638 191.113 249.937 191.113 251.539Z" fill="#F7CC7F"/>
<path d="M95.8101 236.165V250.456C95.8101 252.767 120.77 254.639 151.56 254.639C182.35 254.639 207.31 252.767 207.31 250.456V236.165H95.8101Z" fill="#E59F39"/>
<path d="M136.155 254.479V236.166H95.8101V250.456C95.8101 252.365 112.858 253.977 136.155 254.479Z" fill="#EAB054"/>
<path d="M138.033 254.515C142.365 254.596 146.895 254.639 151.56 254.639C158.511 254.639 165.165 254.543 171.302 254.369V236.165H138.033V254.515Z" fill="#EAB054"/>
<path d="M173.536 254.301C193.399 253.661 207.309 252.18 207.309 250.454V236.164H173.536V254.301Z" fill="#EAB054"/>
<path d="M207.31 236.011C207.31 238.322 182.35 240.196 151.56 240.196C120.77 240.196 95.8101 238.322 95.8101 236.011C95.8101 233.702 120.77 231.828 151.56 231.828C182.35 231.828 207.31 233.702 207.31 236.011Z" fill="#E59F39"/>
<path d="M197.469 236.014C197.469 237.616 176.914 238.915 151.56 238.915C126.205 238.915 105.651 237.616 105.651 236.014C105.651 234.413 126.205 233.114 151.56 233.114C176.914 233.114 197.469 234.413 197.469 236.014Z" fill="#F7CC7F"/>
<path d="M89.4551 220.852V235.142C89.4551 237.453 114.415 239.327 145.205 239.327C175.994 239.327 200.954 237.453 200.954 235.142V220.852H89.4551Z" fill="#E59F39"/>
<path d="M129.8 239.165V220.851H89.4551V235.142C89.4551 237.053 106.503 238.662 129.8 239.165Z" fill="#EAB054"/>
<path d="M131.678 239.202C136.009 239.283 140.54 239.327 145.205 239.327C152.156 239.327 158.81 239.23 164.947 239.055V220.852H131.678V239.202Z" fill="#EAB054"/>
<path d="M167.181 238.99C187.044 238.35 200.954 236.869 200.954 235.143V220.853H167.181V238.99Z" fill="#EAB054"/>
<path d="M200.954 220.7C200.954 223.01 175.994 224.883 145.205 224.883C114.415 224.883 89.4551 223.01 89.4551 220.7C89.4551 218.389 114.415 216.516 145.205 216.516C175.994 216.516 200.954 218.389 200.954 220.7Z" fill="#E59F39"/>
<path d="M191.113 220.703C191.113 222.303 170.559 223.603 145.205 223.603C119.85 223.603 99.2961 222.303 99.2961 220.703C99.2961 219.101 119.85 217.801 145.205 217.801C170.559 217.801 191.113 219.101 191.113 220.703Z" fill="#F7CC7F"/>
<path d="M479.787 265.593V279.335C479.787 281.558 455.783 283.359 426.176 283.359C396.566 283.359 372.562 281.558 372.562 279.335V265.593H479.787Z" fill="#E59F39"/>
<path d="M440.987 283.203V265.593H479.787V279.336C479.787 281.172 463.392 282.722 440.987 283.203Z" fill="#EAB054"/>
<path d="M439.183 283.24C435.018 283.317 430.662 283.359 426.176 283.359C419.492 283.359 413.091 283.268 407.191 283.099V265.593H439.183V283.24Z" fill="#EAB054"/>
<path d="M405.04 283.038C385.939 282.421 372.561 280.997 372.561 279.338V265.596H405.04V283.038Z" fill="#EAB054"/>
<path d="M372.562 265.444C372.562 267.665 396.566 269.466 426.176 269.466C455.783 269.466 479.787 267.665 479.787 265.444C479.787 263.221 455.783 261.421 426.176 261.421C396.566 261.421 372.562 263.221 372.562 265.444Z" fill="#E59F39"/>
<path d="M382.027 265.446C382.027 266.986 401.792 268.234 426.177 268.234C450.556 268.234 470.324 266.986 470.324 265.446C470.324 263.905 450.556 262.657 426.177 262.657C401.792 262.657 382.027 263.905 382.027 265.446Z" fill="#F7CC7F"/>
<path d="M488.961 251.049V264.793C488.961 267.014 464.959 268.815 435.348 268.815C405.738 268.815 381.735 267.014 381.735 264.793V251.049H488.961Z" fill="#E59F39"/>
<path d="M450.161 268.658V251.047H488.961V264.791C488.961 266.627 472.568 268.175 450.161 268.658Z" fill="#EAB054"/>
<path d="M448.357 268.697C444.192 268.775 439.833 268.815 435.348 268.815C428.663 268.815 422.263 268.724 416.362 268.556V251.049H448.357V268.697Z" fill="#EAB054"/>
<path d="M414.214 268.489C395.112 267.874 381.735 266.45 381.735 264.791V251.047H414.214V268.489Z" fill="#EAB054"/>
<path d="M381.735 250.9C381.735 253.123 405.738 254.925 435.348 254.925C464.959 254.925 488.961 253.123 488.961 250.9C488.961 248.679 464.959 246.878 435.348 246.878C405.738 246.878 381.735 248.679 381.735 250.9Z" fill="#E59F39"/>
<path d="M391.198 250.903C391.198 252.444 410.965 253.694 435.346 253.694C459.731 253.694 479.495 252.444 479.495 250.903C479.495 249.363 459.731 248.115 435.346 248.115C410.965 248.115 391.198 249.363 391.198 250.903Z" fill="#F7CC7F"/>
<path d="M482.848 236.119V249.863C482.848 252.086 458.845 253.886 429.237 253.886C399.625 253.886 375.625 252.086 375.625 249.863V236.119H482.848Z" fill="#E59F39"/>
<path d="M444.049 253.729V236.117H482.848V249.861C482.848 251.698 466.455 253.248 444.049 253.729Z" fill="#EAB054"/>
<path d="M442.244 253.768C438.08 253.846 433.722 253.886 429.236 253.886C422.552 253.886 416.153 253.795 410.252 253.627V236.119H442.244V253.768Z" fill="#EAB054"/>
<path d="M408.104 253.561C389.003 252.946 375.624 251.522 375.624 249.863V236.119H408.104V253.561Z" fill="#EAB054"/>
<path d="M375.625 235.976C375.625 238.198 399.625 239.999 429.237 239.999C458.845 239.999 482.848 238.198 482.848 235.976C482.848 233.754 458.845 231.952 429.237 231.952C399.625 231.952 375.625 233.754 375.625 235.976Z" fill="#E59F39"/>
<path d="M385.088 235.972C385.088 237.511 404.854 238.761 429.237 238.761C453.62 238.761 473.385 237.511 473.385 235.972C473.385 234.432 453.62 233.182 429.237 233.182C404.854 233.182 385.088 234.432 385.088 235.972Z" fill="#F7CC7F"/>
<path d="M488.961 221.394V235.137C488.961 237.36 464.959 239.161 435.348 239.161C405.738 239.161 381.735 237.36 381.735 235.137V221.394H488.961Z" fill="#E59F39"/>
<path d="M450.161 238.998V221.388H488.961V235.131C488.961 236.967 472.568 238.517 450.161 238.998Z" fill="#EAB054"/>
<path d="M448.357 239.041C444.192 239.119 439.833 239.161 435.348 239.161C428.663 239.161 422.263 239.07 416.362 238.9V221.395H448.357V239.041Z" fill="#EAB054"/>
<path d="M414.214 238.836C395.112 238.219 381.735 236.795 381.735 235.136V221.394H414.214V238.836Z" fill="#EAB054"/>
<path d="M381.735 221.251C381.735 223.472 405.738 225.274 435.348 225.274C464.959 225.274 488.961 223.472 488.961 221.251C488.961 219.029 464.959 217.229 435.348 217.229C405.738 217.229 381.735 219.029 381.735 221.251Z" fill="#E59F39"/>
<path d="M391.198 221.245C391.198 222.786 410.965 224.034 435.346 224.034C459.731 224.034 479.495 222.786 479.495 221.245C479.495 219.704 459.731 218.455 435.346 218.455C410.965 218.455 391.198 219.704 391.198 221.245Z" fill="#F7CC7F"/>
<path d="M513.905 204.695L510.686 216.306C510.165 218.183 489.465 213.706 464.453 206.308C439.438 198.91 419.582 191.39 420.103 189.512L423.326 177.903L513.905 204.695Z" fill="#E59F39"/>
<path d="M477.003 209.877L481.13 195L513.906 204.695L510.687 216.306C510.256 217.858 496.044 215.069 477.003 209.877Z" fill="#EAB054"/>
<path d="M475.467 209.455C471.932 208.48 468.24 207.426 464.45 206.305C458.803 204.634 453.421 202.957 448.474 201.341L452.576 186.551L479.604 194.546L475.467 209.455Z" fill="#EAB054"/>
<path d="M446.676 200.748C430.682 195.454 419.712 190.908 420.102 189.507L423.326 177.898L450.761 186.013L446.676 200.748Z" fill="#EAB054"/>
<path d="M423.356 177.776C422.838 179.652 442.691 187.172 467.704 194.57C492.718 201.97 513.416 206.446 513.938 204.568C514.459 202.691 494.603 195.173 469.59 187.773C444.576 180.375 423.878 175.899 423.356 177.776Z" fill="#E59F39"/>
<path d="M431.352 180.141C430.99 181.442 447.394 187.436 467.993 193.529C488.593 199.622 505.583 203.505 505.945 202.205C506.304 200.902 489.9 194.909 469.301 188.817C448.701 182.723 431.714 178.84 431.352 180.141Z" fill="#F7CC7F"/>
<path d="M484.613 124.779L488.043 136.327C488.597 138.193 468.878 146.092 444.004 153.97C419.127 161.847 398.513 166.721 397.959 164.855L394.53 153.309L484.613 124.779Z" fill="#E59F39"/>
<path d="M456.41 149.904L452.017 135.108L484.612 124.786L488.041 136.333C488.499 137.875 475.113 143.539 456.41 149.904Z" fill="#EAB054"/>
<path d="M454.901 150.412C451.424 151.587 447.771 152.78 444.001 153.973C438.386 155.752 432.988 157.377 427.989 158.807L423.621 144.099L450.498 135.586L454.901 150.412Z" fill="#EAB054"/>
<path d="M426.167 159.32C409.966 163.886 398.369 166.248 397.958 164.855L394.529 153.309L421.814 144.666L426.167 159.32Z" fill="#EAB054"/>
<path d="M394.493 153.188C395.047 155.055 415.662 150.181 440.537 142.303C465.413 134.426 485.13 126.526 484.576 124.659C484.023 122.793 463.407 127.666 438.529 135.543C413.653 143.423 393.937 151.322 394.493 153.188Z" fill="#E59F39"/>
<path d="M402.443 150.675C402.826 151.968 419.745 147.759 440.228 141.271C460.711 134.784 477.008 128.476 476.625 127.181C476.239 125.887 459.323 130.097 438.836 136.583C418.35 143.072 402.057 149.379 402.443 150.675Z" fill="#F7CC7F"/>
<path d="M190.663 268.439L191.989 275.716C192.063 276.661 192.035 279.053 192.233 279.88C192.978 282.986 205.625 275.438 202.306 274.831C202.006 274.777 199.829 272.503 199.331 271.54C198.464 269.864 197.667 266.742 197.667 266.742L190.663 268.439Z" fill="#F8B698"/>
<path d="M201.678 274.381C201.678 274.381 198.414 275.216 196.752 275.387C195.091 275.558 192.959 272.893 191.767 273.397C190.455 273.953 189.741 282.408 189.741 282.408C189.741 282.408 210.602 283.39 215.532 281.984C217.487 281.427 208.17 276.949 201.678 274.381Z" fill="#F08351"/>
<path d="M219.75 268.111L221.077 275.388C221.152 276.334 221.123 278.724 221.321 279.551C222.065 282.657 234.48 275.606 231.162 275C230.861 274.945 228.919 272.174 228.42 271.212C227.553 269.535 226.756 266.413 226.756 266.413L219.75 268.111Z" fill="#F8B698"/>
<path d="M230.446 274.381C230.446 274.381 227.181 275.216 225.52 275.387C223.859 275.558 221.727 272.893 220.535 273.397C219.223 273.953 218.509 282.408 218.509 282.408C218.509 282.408 239.371 283.39 244.301 281.984C246.255 281.427 236.938 276.949 230.446 274.381Z" fill="#F08351"/>
<path d="M147.419 195.42L185.371 186.33C185.371 186.33 202.39 181.683 206.499 187.137C210.608 192.591 228.053 267.869 228.053 267.869C228.053 267.869 219.054 268.676 218.467 268.272L197.402 229.663C195.398 225.991 194.08 221.962 193.517 217.787L192.022 206.732L176.568 211.378C176.568 211.378 158.766 215.418 151.528 210.774C144.288 206.127 147.419 195.42 147.419 195.42Z" fill="#0E2E35"/>
<path d="M161.993 127.854C162.593 127.879 164.235 128.445 166.638 133.118C169.706 139.083 174.188 157.107 174.188 157.107L160.805 162.235L159.086 158.473L156.254 129.513C156.254 129.513 161.828 127.847 161.993 127.854Z" fill="#EAB054"/>
<path d="M144.304 125.258C148.131 125.263 157.598 126.412 161.994 127.858C161.994 127.858 165.221 156.414 159.086 178.113C157.714 182.971 160.223 198.249 160.223 198.249L120.569 197.711C120.569 197.711 125.266 160.775 123.497 154.808C121.727 148.843 121.685 128.05 121.685 128.05C121.685 128.05 121.957 128.006 130.594 126.469C134.623 125.753 140.218 125.252 144.304 125.258Z" fill="#F7CC7F"/>
<path d="M121.253 131.224C124.961 129.792 126.775 164.173 127.274 178.324C133.84 178.973 145.284 178.328 148.134 178.107C149.474 178.005 152.564 176.84 153.897 176.66C155.263 176.477 156.5 176.38 157.171 176.5C157.419 176.544 164.262 179.424 164.848 180.057C165.573 180.839 167.536 182.815 167.205 183.67C166.874 184.525 163.431 181.289 163.431 181.289L161.748 180.318C163.842 182.424 167.838 185.199 167.263 186.209C166.702 187.194 163.096 184.379 160.527 182.459C162.731 184.508 165.469 188.174 164.837 188.745C164.271 189.258 161.157 185.015 157.828 183.792C156.596 183.339 155.367 184.594 154.396 184.746C153.684 184.857 152.583 185.093 151.883 184.89L148.541 184.557C147.313 184.672 147.021 184.7 145.782 184.971C144.343 185.287 141.982 185.618 140.149 186.078C129.596 188.733 126.076 189.965 122.845 189.963C113.058 189.956 112.491 134.606 121.253 131.224Z" fill="#F8B698"/>
<path d="M114.217 163.498C113.523 149.003 113.624 131.138 121.52 128.09C124.635 126.886 130.127 134.118 129.139 163.792C124.924 164.15 118.736 164.439 114.217 163.498Z" fill="#EAB054"/>
<path d="M202.156 154.638L164.796 157.157C163.808 157.224 162.956 157.901 162.642 158.87L152.97 188.618L132.374 190.007C131.798 190.048 131.362 190.56 131.399 191.155C131.437 191.749 131.934 192.198 132.51 192.159L191.13 188.205C192.742 188.098 194.142 187.021 194.705 185.459L204.602 158.033C205.22 156.319 203.923 154.518 202.156 154.638Z" fill="#F08351"/>
<path d="M183.541 173.022C183.466 174.349 182.493 175.371 181.368 175.305C180.241 175.238 179.39 174.108 179.463 172.779C179.538 171.451 180.511 170.429 181.636 170.496C182.763 170.563 183.615 171.694 183.541 173.022Z" fill="white"/>
<path d="M120.592 196.776L161.949 189.403C161.949 189.403 179.83 186.589 183.939 192.043C188.046 197.497 199.98 268.202 199.98 268.202C199.98 268.202 190.98 269.011 190.395 268.606C189.939 268.294 179.045 244.723 174.151 234.102C172.598 230.73 171.507 227.155 170.904 223.475L169.332 213.852L164.127 215.701C154.983 218.953 145.238 220.081 135.639 218.849C131.62 218.334 127.87 217.448 125.543 215.955C118.305 211.308 120.592 196.776 120.592 196.776Z" fill="#261959"/>
<path d="M145.864 120.043L146.67 126.211C146.67 126.211 148.472 135.095 146.152 136.808C143.833 138.522 136.286 125.957 136.286 125.957L137.083 110.33L145.864 120.043Z" fill="#F8B698"/>
<path d="M136.826 115.398C138.742 120.729 143.307 124.006 146.547 125.275L145.864 120.047L137.083 110.334L136.826 115.398Z" fill="#F08351"/>
<path d="M145.388 93.3256C150.304 92.5094 154.711 96.5778 154.59 101.642C154.536 103.844 154.361 106.592 153.916 109.552C152.847 116.671 148.127 122.94 145.007 122.381C141.887 121.82 134.035 115.679 135.417 105.548C136.271 99.2942 140.229 94.1823 145.388 93.3256Z" fill="#F8B698"/>
<path d="M137.582 106.757C137.319 108.323 136.101 109.412 134.861 109.19C133.622 108.968 132.83 107.517 133.093 105.952C133.357 104.387 134.575 103.297 135.815 103.521C137.054 103.743 137.846 105.192 137.582 106.757Z" fill="#F8B698"/>
<path d="M135.815 103.524C135.815 103.524 139.588 104.488 140.989 101.99C142.389 99.4926 147.395 94.1039 153.761 96.3391C160.124 98.5725 148.158 90.9046 147.65 90.9046C147.141 90.9046 141.03 90.8605 141.03 90.8605C141.03 90.8605 136.321 94.8478 136.151 95.2867C135.981 95.7257 134.624 100.501 134.624 100.501L135.815 103.524Z" fill="#0E2E35"/>
<path d="M320.702 282.733H414.623V247.434H320.702V282.733Z" fill="#31C5A1"/>
<path d="M320.702 257.118H414.623V252.575H320.702V257.118Z" fill="#88D3C0"/>
<path d="M320.702 265.993H414.623V261.451H320.702V265.993Z" fill="#88D3C0"/>
<path d="M320.702 274.855H414.623V270.315H320.702V274.855Z" fill="#88D3C0"/>
<path d="M320.702 282.733H414.623V278.192H320.702V282.733Z" fill="#88D3C0"/>
<path d="M355.665 282.73H375.199V247.431H355.665V282.73Z" fill="#F7CC7F"/>
<path d="M413.484 282.73H427.667V247.431H413.484V282.73Z" fill="#21836A"/>
<path d="M519 282.231H0V285.288H519V282.231Z" fill="#0E2E35"/>
<path d="M220.452 32.9199H144.911C144.875 32.5362 144.856 32.1486 144.856 31.7571C144.856 25.1368 150.052 19.7703 156.462 19.7703C158.511 19.7703 160.434 20.3207 162.105 21.282C164.464 14.5725 170.693 9.77972 178.008 9.77972C184.155 9.77972 189.536 13.1655 192.497 18.2296C193.787 17.8148 195.158 17.592 196.581 17.592C202.082 17.592 206.826 20.937 209.013 25.7647C209.763 25.5612 210.552 25.4546 211.366 25.4546C215.794 25.4546 219.5 28.6446 220.452 32.9199Z" fill="#FBFEFE"/>
<path d="M254.494 64.7686H197.329C197.301 64.4798 197.285 64.1856 197.285 63.8896C197.285 58.8791 201.218 54.818 206.07 54.818C207.62 54.818 209.076 55.235 210.338 55.9623C212.126 50.8851 216.838 47.2572 222.374 47.2572C227.025 47.2572 231.097 49.8202 233.34 53.652C234.315 53.338 235.353 53.1701 236.428 53.1701C240.592 53.1701 244.184 55.7006 245.839 59.3538C246.407 59.2022 247.005 59.1191 247.618 59.1191C250.97 59.1191 253.774 61.5341 254.494 64.7686Z" fill="#FBFEFE"/>
<path d="M145.156 58.0801H95.3063C95.9339 55.2579 98.3791 53.1532 101.302 53.1532C101.839 53.1532 102.359 53.2237 102.855 53.3577C104.298 50.1724 107.428 47.9637 111.059 47.9637C111.997 47.9637 112.903 48.1118 113.754 48.3868C115.708 45.0446 119.259 42.8095 123.315 42.8095C128.141 42.8095 132.252 45.9718 133.809 50.3998C134.912 49.7652 136.181 49.4021 137.533 49.4021C141.762 49.4021 145.192 52.9435 145.192 57.3115C145.192 57.5707 145.18 57.8262 145.156 58.0801Z" fill="#FBFEFE"/>
<path d="M200.838 98.3458L201.504 106.71L206.209 101.238L221.423 88.3704L208.448 92.5922C208.448 92.5922 202.061 95.7969 201.767 96.2199C201.473 96.643 200.838 98.3458 200.838 98.3458Z" fill="#31C5A1"/>
<path d="M193.944 94.7518L221.423 88.3689L200.838 98.3442L193.944 94.7518Z" fill="#88D3C0"/>
<path d="M211.407 104.539L202.936 100.174L221.423 88.369L211.407 104.539Z" fill="#88D3C0"/>
<path d="M197.629 102.991C198.899 102.498 199.835 102.392 199.843 102.39L199.782 101.782C199.741 101.787 198.761 101.898 197.421 102.418L197.629 102.991Z" fill="#21836A"/>
<path d="M190.967 108.794C191.562 107.289 192.428 105.978 193.536 104.895L193.944 105.339C192.896 106.362 192.078 107.601 191.515 109.025L190.967 108.794ZM190.222 118.029C189.987 116.381 189.912 114.821 189.999 113.388L190.59 113.427C190.506 114.816 190.579 116.335 190.808 117.939L190.813 117.975L190.226 118.058L190.222 118.029ZM190.885 122.634L191.47 122.547C191.72 124.336 191.895 125.798 192.029 127.148L191.44 127.21C191.308 125.868 191.132 124.414 190.885 122.634ZM191.728 131.798L192.319 131.784C192.356 133.445 192.308 134.968 192.174 136.439L191.585 136.381C191.716 134.934 191.764 133.434 191.728 131.798ZM189.337 145.17C189.627 144.541 189.893 143.885 190.13 143.221C190.398 142.47 190.636 141.684 190.835 140.885L191.407 141.037C191.204 141.855 190.96 142.66 190.685 143.432C190.443 144.114 190.168 144.788 189.871 145.433L189.337 145.17ZM184.069 152.426C185.182 151.375 186.184 150.243 187.047 149.062L187.52 149.429C186.634 150.642 185.608 151.802 184.466 152.877L184.069 152.426Z" fill="#21836A"/>
</svg>
