<svg width="494" height="272" viewBox="0 0 494 272" fill="none" xmlns="http://www.w3.org/2000/svg">
<path d="M125.893 270.185C125.893 270.185 45.1523 197.179 90.6231 98.5C112.439 51.1557 170.535 40.0457 188.147 49.7359C211.367 62.5102 242.166 28.0002 308.737 4.30478C358.772 -13.5046 472.03 22.8074 435.147 134.499C412.774 202.25 498.899 184.427 485.54 271.014L125.893 270.185Z" fill="#E0F7F1"/>
<path d="M154.456 182.609V270.131H90.3601V182.609H154.456Z" fill="#BED2FA"/>
<path d="M204.247 182.608V270.135H154.457V182.608H204.247Z" fill="white"/>
<path d="M170.748 145.273L149.747 188.509H85.9471L119.208 145.431L170.748 145.273Z" fill="#582EFF"/>
<path d="M173.267 145.273L152.266 188.509H88.466L121.729 145.431L173.267 145.273Z" fill="#BED2FA"/>
<path d="M122.302 166.887H120.962C116.412 166.887 112.721 170.578 112.721 175.129V196.073H130.277V174.862C130.277 170.458 126.709 166.887 122.302 166.887Z" fill="#8571D3"/>
<path d="M211.182 190.905H153.27L119.04 145.27L138.309 145.272L175.954 145.279L211.182 190.905Z" fill="#582EFF"/>
<path d="M211.181 190.905H200.571L138.308 145.272L175.954 145.279L211.181 190.905Z" fill="#3A49CD"/>
<path d="M114.776 200.58L99.8242 231.362H54.4013L78.0819 200.691L114.776 200.58Z" fill="#582EFF"/>
<path d="M116.133 200.58L101.183 231.362H55.7593L79.4408 200.691L116.133 200.58Z" fill="#BED2FA"/>
<path d="M101.084 231.363V264.329H86.0459C85.5437 264.253 85.2882 264.204 85.2882 264.204C85.2882 264.204 77.6134 264.204 68.5341 261.089C64.3698 259.66 59.9122 257.578 55.7613 254.538V231.363H101.084Z" fill="#BED2FA"/>
<path d="M139.463 231.363V258.16C136.721 258.958 134.072 259.669 131.517 260.3C122.722 262.467 115.045 263.684 108.606 264.329H101.084V231.363H139.463Z" fill="white"/>
<path d="M143.679 233.187H102.45L78.0788 200.697L90.3599 200.699L118.602 200.706L143.679 233.187Z" fill="#582EFF"/>
<path d="M87.6292 238.196V264.329H86.0471C85.545 264.253 85.2894 264.204 85.2894 264.204C85.2894 264.204 77.6146 264.204 68.5353 261.089V238.511C68.5353 235.683 69.7454 233.134 71.6777 231.363C73.4042 229.774 75.7082 228.805 78.2412 228.805C80.7321 228.805 82.9985 229.779 84.6784 231.363C86.496 233.074 87.6292 235.503 87.6292 238.196Z" fill="#8571D3"/>
<path d="M75.9384 217.784C75.9384 216.6 76.8982 215.642 78.0804 215.642C79.2647 215.642 80.2246 216.6 80.2246 217.784C80.2246 218.966 79.2647 219.926 78.0804 219.926C76.8982 219.926 75.9384 218.966 75.9384 217.784Z" fill="#8571D3"/>
<path d="M143.679 233.187H135.856L90.3601 200.699L118.602 200.706L143.679 233.187Z" fill="#3A49CD"/>
<path d="M349.517 270.135C316.62 260.383 276.742 251.417 243.983 259.263C211.224 267.107 198.638 277.695 162.662 253.339C159.398 251.13 156.387 249.491 153.565 248.322C159.918 247.169 168.406 245.158 164.644 243.125C160.72 241.003 154.158 244.629 150.363 247.164C149.412 246.873 148.483 246.638 147.574 246.451C156.243 240.245 171.612 228.506 164.464 228.113C157.409 227.722 148.881 239.5 144.719 246.02C144.006 245.951 143.302 245.909 142.608 245.898C142.239 242.511 140.884 236.514 135.907 236.141C130.818 235.756 136.827 242.371 140.424 245.953C121.055 247.242 107.945 269.231 67.2753 255.354C61.0283 253.224 54.5778 253.352 48.4998 254.668C44.6752 246.218 33.319 223.24 23.9279 225.631C14.5471 228.019 37.7833 247.915 46.602 255.119C45.5521 255.39 44.5157 255.694 43.4958 256.028C38.1563 252.09 28.1431 245.727 22.4223 248.52C16.8306 251.25 30.8484 255.159 39.9731 257.299C27.8045 262.125 18.7362 270.111 18.7362 270.111L349.517 270.135Z" fill="#21836A"/>
<path d="M470.138 270.143H431.875C429.806 268.408 433.277 264.45 436.91 264.181C438.488 264.064 440.477 264.388 442.75 264.87C443.278 257.873 446.287 226.445 457.615 227.705C470.354 229.123 457.615 241.55 454.013 248.907C451.344 254.356 448.529 262.177 447.247 265.868C448.28 266.092 449.349 266.315 450.444 266.515C452.129 261.328 458.413 243.883 466.407 244.899C475.791 246.088 472.018 253.083 465.37 257.235C460.488 260.286 454.493 264.628 451.647 266.723C454.06 267.117 456.579 267.379 459.137 267.321C465.705 267.166 468.907 269.105 470.138 270.143Z" fill="#21836A"/>
<path d="M268.775 55.2038C268.775 55.2038 277.88 59.5123 279.949 58.9679C282.018 58.4258 289.879 57.037 290.981 57.5258C290.981 57.5258 292.235 59.5234 291.288 60.8366C290.344 62.1498 282.698 65.7028 279.936 65.8317C277.172 65.9606 266.686 64.0608 264.462 62.3231L268.775 55.2038Z" fill="#E7AC92"/>
<path d="M290.708 57.567C290.708 57.567 294.218 56.1094 295.369 57.7381C296.518 59.3668 297.169 61.0155 297.027 61.851C296.885 62.6865 294.514 63.0531 293.565 62.4043C292.616 61.7555 290.27 60.8489 290.27 60.8489L290.708 57.567Z" fill="#E7AC92"/>
<path d="M307.492 261.959C307.492 261.959 305.552 265.096 305.51 268.733C305.501 269.542 306.163 270.202 306.972 270.202H319.055C320.226 270.202 321.09 269.102 320.802 267.967C320.239 265.756 319.035 262.412 316.62 260.383C312.771 257.143 307.492 261.959 307.492 261.959Z" fill="#030231"/>
<path d="M288.373 258.75C288.373 258.75 287.678 269.953 285.511 270.113C285.222 270.135 274.517 270.135 274.517 270.135H260.707C260.707 270.135 260.938 266.762 264.933 266.067C268.928 265.371 275.614 262.563 278.034 257.283C280.581 251.728 288.373 258.75 288.373 258.75Z" fill="#030231"/>
<path d="M294.158 189.532C293.676 195.756 293.613 200.669 294.251 202.998C297.102 213.419 289.116 260.472 289.116 260.472C283.228 263.287 274.866 260.441 274.866 260.441C275.373 253.924 272.276 195.576 269.391 159.982C268.185 145.037 267.278 134.582 267.278 134.582L302.548 130.476C302.548 130.476 295.829 167.915 294.158 189.532Z" fill="#030231"/>
<path d="M302.548 130.477C302.548 130.477 295.829 167.916 294.158 189.534L269.391 159.983C268.185 145.038 267.278 134.584 267.278 134.584L302.548 130.477Z" fill="#030231"/>
<path d="M285.248 138.461C285.248 138.461 303.102 242.42 306.172 262.549C306.172 262.549 312.856 264.416 319.687 261.525C319.687 261.525 320.569 213.216 318.233 198.664C315.896 184.113 319.478 139.126 315.711 134.942C311.945 130.756 285.248 138.461 285.248 138.461Z" fill="#0B0754"/>
<path d="M287.087 49.813C287.087 49.813 285.716 59.0521 286.316 61.8119C286.916 64.5694 296.095 66.0692 299.935 63.7917C303.774 61.5119 302.619 60.6631 302.619 60.6631C302.619 60.6631 302.032 50.0863 301.495 49.3331C300.955 48.5776 287.087 49.813 287.087 49.813Z" fill="#FDA47B"/>
<path d="M316.622 106.19C317.837 94.5841 317.526 85.8494 316.382 79.279C313.029 59.9942 302.523 59.352 302.523 59.4765C302.523 62.0718 296.942 64.4671 292.438 64.1716C288.642 63.9227 286.18 61.0385 286.18 59.4765C286.18 59.4631 286.109 59.4654 285.98 59.4765C285.001 59.4854 280.497 59.5676 276.239 60.3053C273.153 60.8386 270.198 61.7162 268.811 63.1606C268.093 63.9049 265.54 65.9936 262.258 68.8311C253.904 76.0571 240.836 88.1537 241.414 95.3618C241.414 95.3618 257.565 107.223 267.8 99.7881C267.245 119.088 263.74 139.531 264.598 139.518C264.598 139.518 270.304 144.457 287.638 144.457C297.115 144.457 303.968 143.646 308.723 142.706C315.202 141.428 317.782 139.917 317.782 139.917C319.226 139.897 316.204 110.198 316.622 106.19Z" fill="#FA7269"/>
<path d="M317.782 139.918C317.782 139.918 315.202 141.429 308.723 142.707C299.768 138.74 281.992 128.488 281.296 111.272C280.377 88.3719 308.334 74.7376 308.334 74.7376C308.334 74.7376 312.085 76.8219 316.382 79.2794C317.526 85.8499 317.837 94.5846 316.622 106.19C316.204 110.199 319.226 139.898 317.782 139.918Z" fill="#F3A683"/>
<path d="M286.939 50.8518C286.939 50.8518 290.499 55.8713 294.263 55.9157C298.029 55.9602 301.871 50.9318 301.871 50.9318L286.939 50.8518Z" fill="#E68F67"/>
<path d="M286.595 50.6037C287.582 51.3792 289.784 52.4502 291.586 53.159C292.952 53.6968 294.463 53.7279 295.852 53.2479C297.929 52.5324 301.074 51.4125 301.871 50.9326C303.758 49.7882 303.636 47.4751 303.731 44.2599C303.849 40.4536 304.231 37.465 303.807 35.2697C303.302 32.6433 301.638 31.1501 296.976 30.7457C288.424 30.0035 284.86 32.1455 284.711 35.0119C284.671 35.783 284.635 36.5162 284.611 37.2117C284.269 46.1575 284.975 49.3283 286.595 50.6037Z" fill="#FDA47B"/>
<path d="M284.661 36.069C284.661 36.069 286.06 34.0025 288.693 34.8136C291.324 35.6224 291.595 37.8733 296.095 37.5133C300.595 37.1533 301.674 35.0247 302.483 36.089C303.294 37.1534 303.763 43.4438 303.763 43.4438C303.763 43.4438 312.809 22.817 294.473 22.817C294.473 22.817 275.577 21.6749 284.661 42.6417V36.069Z" fill="#030231"/>
<path d="M251.343 55.6027L251.37 55.6174C251.348 55.6297 251.343 55.6027 251.343 55.6027Z" fill="#FF9362"/>
<path d="M293.545 119.042C293.545 119.042 291.145 120.931 287.636 120.931C287.636 120.931 284.057 116.987 281.039 113.172C279.088 110.699 277.373 108.284 277.017 107.026C276.117 103.833 259.277 102.935 257.215 100.684C255.15 98.4356 265.583 92.7917 265.583 92.7917C265.583 92.7917 282.679 95.4048 285.248 98.7645C286.27 100.102 287.792 103.586 289.256 107.297C291.467 112.91 293.545 119.042 293.545 119.042Z" fill="#E68F67"/>
<path d="M269.616 72.1758C269.616 72.1758 272.858 65.8853 274.458 66.0675C276.057 66.2519 270.778 79.0884 270.298 85.3278C269.818 91.5672 269.616 72.1758 269.616 72.1758Z" fill="#F3A683"/>
<path d="M279.753 115.479C277.504 120.921 274.593 125.883 274.22 126.51C274.196 126.554 274.18 126.576 274.18 126.576C274.18 126.576 274.162 126.576 274.129 126.576C273.585 126.572 268.89 126.47 268.43 124.583C268.43 124.583 268.281 118.061 268.539 112.88C268.656 110.564 268.854 108.518 269.183 107.438C269.183 107.438 243.725 107.267 244.174 100.065C244.621 92.8639 257.928 89.0554 265.581 92.7906C265.581 92.7906 275.724 96.4747 281.066 101.345C283.688 103.736 282.075 109.864 279.753 115.479Z" fill="#FDA47B"/>
<path d="M244.931 89.9695C244.931 89.9695 241.541 94.9512 242.336 99.5997C243.131 104.246 252.802 106.73 259.568 107.028C259.568 107.028 278.924 102.591 275.924 94.8757C275.242 93.1248 244.931 89.9695 244.931 89.9695Z" fill="#0B0754"/>
<path d="M251.961 28.7481C251.961 28.7481 248.888 22.4554 241.462 26.3039C234.036 30.1502 241.266 44.6466 237.369 48.2707C233.471 51.8925 238.78 54.2656 237.989 56.8632C237.2 59.4607 239.458 62.416 244.655 62.0693C249.85 61.7205 255.323 62.0004 257.669 57.4564C260.018 52.9102 259.484 42.9068 258.578 41.5002C257.669 40.0959 251.961 28.7481 251.961 28.7481Z" fill="#0B0754"/>
<path d="M263.994 63.2363L251.368 55.6171C251.439 55.5904 251.693 55.2082 252.637 52.4774C253.039 51.313 253.253 50.3021 253.359 49.5021C253.368 49.4221 253.379 49.3444 253.386 49.2688C253.515 48.1023 253.422 47.4312 253.422 47.4312L256.188 48.4311L261.303 50.2843C261.243 51.5819 261.425 52.4952 261.701 53.1218C262.37 54.6416 263.614 54.6527 263.649 54.6527L263.994 63.2363Z" fill="#FDA47B"/>
<path d="M261.7 53.1231C256.756 53.5431 253.972 50.3189 253.359 49.5035C253.266 49.3857 253.221 49.319 253.221 49.319C253.221 49.319 253.281 49.3013 253.386 49.2702C253.788 49.1502 254.879 48.8213 256.188 48.4325L261.303 50.2856C261.243 51.5832 261.425 52.4965 261.7 53.1231Z" fill="#E68F67"/>
<path d="M261.948 51.3498C261.948 51.3498 250.962 52.5564 250.738 45.1282C250.513 37.7 248.889 34.3026 256.488 33.6404C264.09 32.9783 265.883 35.7158 266.332 38.2289C267.732 46.0792 265.041 51.0165 261.948 51.3498Z" fill="#FDA47B"/>
<path d="M257.027 37.323C253.118 36.3342 254.611 43.2579 253.625 42.7846C252.521 42.2536 250.621 42.2625 250.921 43.5957C251.221 44.9311 251.652 45.4066 251.878 46.2399C252.103 47.0731 251.876 48.7218 250.967 48.3908C250.059 48.0575 241.606 38.4073 247.574 30.888C253.543 23.371 271.339 28.0016 265.735 35.8653C264.748 37.2496 259.809 38.0273 257.027 37.323Z" fill="#0B0754"/>
<path d="M271.189 92.7855C271.189 92.7855 267.887 94.5364 262.692 94.4542C259.381 94.4053 252.351 92.9655 247.831 91.3345C245.256 90.4079 243.494 89.4147 243.707 88.5837C244.011 87.3838 246.218 78.178 248.255 69.6589C250.12 61.8685 251.844 54.6537 251.844 54.6537C251.844 54.6537 256.988 58.3089 259.985 57.0201C262.983 55.7291 262.598 54.2715 262.598 54.2715C262.598 54.2715 266.131 53.8382 267.089 53.9515C268.618 54.1315 274.022 56.1002 274.022 56.1002C274.022 56.1002 274.731 58.0956 272.848 61.2108C271.289 63.7906 269.771 64.2905 269.771 64.2905C269.771 64.2905 274.186 78.2069 271.189 92.7855Z" fill="#93B3F4"/>
<path d="M254.659 80.3584C254.659 80.3584 257.829 79.7651 259.071 80.5783C260.311 81.3894 260.68 82.6603 259.785 83.1803C256.985 84.8068 254.147 83.007 254.147 83.007L254.659 80.3584Z" fill="#FDA47B"/>
<path d="M247.831 91.335C245.256 90.4084 243.494 89.4152 243.707 88.5841C244.011 87.3842 246.218 78.1785 248.255 69.6593C248.858 68.555 249.24 67.895 249.24 67.895C249.24 67.895 253.108 85.5777 247.831 91.335Z" fill="#8571D3"/>
<path d="M251.97 55.6476C251.97 55.6476 242.2 57.7162 238.344 72.9059C237.969 74.3924 238.358 75.9789 239.387 77.1188C241.157 79.0808 245.064 81.9539 254.147 83.0093C255.138 83.1249 255.272 80.6096 255.272 80.6096C255.174 80.8095 249.101 76.6855 246.517 74.4702C246.05 74.0702 246.07 73.2281 246.406 72.7126C247.279 71.3816 248.746 69.0773 249.239 67.8952C249.957 66.1687 254.701 56.4297 251.97 55.6476Z" fill="#FDA47B"/>
<path d="M251.843 54.6513C251.843 54.6513 246.099 55.0601 241.415 61.3062C241.415 61.3062 242.999 67.05 250.441 68.5854C250.441 68.5854 255.027 58.2398 251.843 54.6513Z" fill="#93B3F4"/>
<path d="M279.754 115.479C277.505 120.921 274.595 125.883 274.221 126.51C274.19 126.532 274.161 126.554 274.13 126.576C273.586 126.572 268.891 126.47 268.431 124.583C268.431 124.583 268.282 118.061 268.54 112.88C269.286 113.597 272.17 115.735 279.754 115.479Z" fill="white"/>
<path d="M293.543 119.042C293.543 119.042 291.143 120.931 287.635 120.931C287.635 120.931 284.055 116.987 281.038 113.172C284.433 111.703 288.019 108.47 289.255 107.297C291.466 112.91 293.543 119.042 293.543 119.042Z" fill="white"/>
<path d="M281.426 133.62C281.322 134.215 280.735 134.597 280.144 134.477C278.738 134.191 276.196 133.646 275.14 133.262C273.645 132.72 270.774 131.024 269.279 130.48C268.765 130.293 267.53 129.793 266.73 129.469C266.305 129.296 266.081 128.831 266.208 128.391C266.474 127.48 266.988 125.927 267.719 124.627C267.852 124.387 268.07 124.205 268.341 124.074C269.119 124.696 270.343 125.381 271.978 125.387C273.32 125.394 274.434 125.065 275.258 124.696C275.36 124.905 277.4 129.02 278.846 129.547C280.146 130.018 281.848 131.26 281.426 133.62Z" fill="#954D28"/>
<path d="M302.783 119.091C303.067 119.622 302.845 120.284 302.305 120.557C301.023 121.202 298.69 122.351 297.623 122.702C296.113 123.202 292.811 123.648 291.3 124.148C290.78 124.319 289.5 124.693 288.671 124.933C288.231 125.059 287.767 124.835 287.596 124.41C287.238 123.53 286.68 121.993 286.449 120.52C286.405 120.246 286.462 119.971 286.596 119.698C287.591 119.706 288.975 119.486 290.264 118.478C291.322 117.653 291.993 116.704 292.413 115.905C292.622 116.005 296.772 117.971 298.232 117.489C299.546 117.056 301.65 116.976 302.783 119.091Z" fill="#954D28"/>
<path d="M282.184 110.862C282.184 110.862 281.453 115.109 278.691 117.064C278.691 117.064 267.481 115.522 257.044 112.88C249.371 110.94 242.114 108.409 240.039 105.458C235.137 98.5013 242.605 90.031 242.605 90.031C242.605 90.031 256.997 96.977 272.58 105.485C275.771 107.227 279.008 109.036 282.184 110.862Z" fill="#FA7269"/>
<path d="M265.318 117.064C265.318 117.064 261.989 117.333 260.729 118.592C259.47 119.852 257.561 123.516 258.921 124.97C260.278 126.423 266.758 123.239 266.938 122.714C267.118 122.192 265.318 117.064 265.318 117.064Z" fill="#FDA47B"/>
<path d="M282.185 110.862C282.185 110.862 281.454 115.109 278.692 117.064C278.692 117.064 267.482 115.522 257.045 112.88C261.951 108.616 268.362 106.492 272.581 105.485C275.772 107.227 279.009 109.036 282.185 110.862Z" fill="#F3A683"/>
<path d="M320.222 65.068C317.982 59.7463 303.241 59.5418 303.241 59.5418C295.742 79.2199 293.94 92.1253 291.958 100.42C291.638 100.389 291.336 100.389 291.06 100.422C291.06 100.422 280.528 104.533 264.869 115.903C264.869 115.903 263.232 120.394 266.171 124.069C266.171 124.069 293.151 118.114 300.688 113.697C300.695 113.699 300.699 113.699 300.699 113.699C300.775 113.652 300.848 113.603 300.923 113.554C301.039 113.483 301.148 113.414 301.252 113.343C325.759 97.4203 323.428 72.685 320.222 65.068Z" fill="#FA7269"/>
<path d="M260.276 167.167C259.336 167.274 257.245 167.616 257.245 167.616L256.187 157.982C256.187 157.982 259.723 164.774 260.276 167.167Z" fill="#030231"/>
<path d="M257.517 159.489C257.517 159.489 265.083 162.104 264.018 170.817C264.018 170.817 263.318 174.352 261.141 172.786C258.963 171.217 259.985 171.506 256.874 169.362C253.764 167.217 251.735 163.835 252.088 161.149L257.517 159.489Z" fill="#FDA47B"/>
<path d="M257.862 160.048L253.381 165.485C253.174 165.738 252.843 165.854 252.521 165.796C248.321 165.023 233.865 155.706 229.13 151.904C228.616 151.493 228.219 151.144 227.959 150.88C226.194 149.082 220.106 140.207 215.784 132.301C213.298 127.749 211.396 123.52 211.245 121.149C210.707 112.688 215.158 100.856 215.158 100.856C228.323 105.437 229.71 115.95 229.71 115.95L237.009 143.116L257.682 158.57C258.156 158.921 258.236 159.597 257.862 160.048Z" fill="#93B3F4"/>
<path d="M229.129 151.903C228.616 151.492 228.218 151.143 227.958 150.879C226.194 149.081 220.106 140.207 215.784 132.301C215.224 127.523 215.608 123.044 217.577 119.911C217.577 119.911 228.772 139.607 229.129 151.903Z" fill="#8571D3"/>
<path d="M221.544 230.173L219.307 239.505L217.922 245.283L213.31 264.514C213.31 264.514 209.363 265.729 205.261 264.514C205.261 264.514 203.742 258.15 203.697 250.213C203.673 246.062 204.055 241.478 205.268 237.152C205.761 235.39 206.392 233.675 207.19 232.044C213.696 218.756 221.544 230.173 221.544 230.173Z" fill="#FF9362"/>
<path d="M225.366 270.135H203.695C203.695 270.135 203.352 266.856 204.308 263.718C204.448 263.251 204.619 262.789 204.821 262.34C204.821 262.34 209.661 263.438 213.831 262.34C213.831 262.34 217.755 265.682 220.126 266.707C222.495 267.731 225.115 267.173 225.366 270.135Z" fill="#0B0754"/>
<path d="M219.307 239.505L217.922 245.282C215.565 246.786 210.483 249.508 203.697 250.212C203.673 246.062 204.055 241.478 205.268 237.151C207.261 236.14 209.29 235.609 211.019 235.912C215.318 236.663 217.876 238.234 219.307 239.505Z" fill="#E7AC92"/>
<path d="M214.111 270.135H203.695C203.695 270.135 203.352 266.856 204.308 263.718C206.921 264.534 212.243 266.576 214.111 270.135Z" fill="#030231"/>
<path d="M204.271 230.173L202.031 239.505L200.646 245.283L196.036 264.514C196.036 264.514 192.087 265.729 187.985 264.514C187.985 264.514 186.466 258.15 186.423 250.213C186.399 246.062 186.781 241.478 187.992 237.152C188.485 235.39 189.119 233.675 189.916 232.044C196.42 218.756 204.271 230.173 204.271 230.173Z" fill="#FF9362"/>
<path d="M187.548 262.34C187.548 262.34 192.385 263.438 196.558 262.34C196.558 262.34 200.48 265.682 202.851 266.707C205.222 267.731 207.842 267.173 208.093 270.135H186.421C186.421 270.135 185.968 265.809 187.548 262.34Z" fill="#0B0754"/>
<path d="M202.031 239.505L200.646 245.282C198.291 246.786 193.207 249.508 186.423 250.212C186.399 246.062 186.781 241.478 187.992 237.151C189.985 236.14 192.014 235.609 193.743 235.912C198.044 236.663 200.6 238.234 202.031 239.505Z" fill="#E7AC92"/>
<path d="M226.066 238.889C225.546 240.816 223.797 242.151 221.804 242.151H187.054C184.439 242.151 182.377 239.927 182.579 237.321C182.944 232.586 184.246 224.858 184.815 219.636C185.05 217.467 185.159 215.732 185.023 214.827C181.515 191.619 178.571 164.283 178.929 159.057C178.98 158.322 179.015 157.942 179.015 157.942C179.015 157.942 181.546 157.729 185.395 157.58C196.585 157.137 218.922 157.213 222.635 164.532C226.415 171.985 228.699 221.482 228.699 221.482C229.25 226.106 227.299 234.332 226.066 238.889Z" fill="#D57B52"/>
<path d="M184.815 219.635C185.05 217.466 185.159 215.731 185.023 214.826C181.515 191.618 178.571 164.282 178.929 159.056C178.98 158.321 179.015 157.941 179.015 157.941C179.015 157.941 181.546 157.728 185.395 157.579C191.185 160.987 194.951 166.798 194.951 166.798C194.951 166.798 193.785 210.227 184.815 219.635Z" fill="#C94D15"/>
<path d="M206.391 62.3486C203.614 61.6531 202.003 63.8418 202.003 66.4171C202.003 68.9924 204.089 71.0811 206.665 71.0811C209.242 71.0811 211.329 68.0969 211.329 65.5216C211.329 62.9441 208.889 62.973 206.391 62.3486Z" fill="white"/>
<path d="M204.958 89.0483C204.958 89.0483 190.497 76.0252 203.587 66.8061C203.587 66.8061 207.493 65.7639 209.479 66.1372C209.479 66.1372 216.594 64.053 220.758 68.8881C224.922 73.721 226.733 77.2139 223.163 81.5269C219.594 85.8398 204.958 89.0483 204.958 89.0483Z" fill="white"/>
<path d="M188.366 167.703C188.366 167.703 191.937 174.867 185.073 180.342C185.073 180.342 182.098 182.377 181.642 179.733C181.187 177.087 181.713 178.009 180.995 174.3C180.276 170.592 181.195 166.757 183.329 165.086L188.366 167.703Z" fill="#FDA47B"/>
<path d="M216.806 88.9298C216.806 88.9298 216.628 90.8785 216.297 93.5138C216.135 94.8026 215.94 96.2536 215.706 97.7223C215.542 98.7755 215.36 99.8377 215.16 100.855L210.682 115.976L200.17 98.9622C200.17 98.9622 202.639 96.9179 205.987 85.8412C206.02 85.7235 206.043 85.659 206.043 85.659L216.806 88.9298Z" fill="#FDA47B"/>
<path d="M222.931 163.525C223.066 165.225 222.635 165.534 222.635 165.534C222.635 165.534 216.171 167.878 199.915 167.067C198.155 166.978 196.5 166.889 194.951 166.798C184.474 166.181 178.87 165.534 178.87 165.534C178.87 165.534 170.289 145.727 186.412 121.323C188.234 118.565 190.374 115.746 192.876 112.893C195.487 109.915 196.062 105.929 197.051 102.142C197.333 101.058 196.515 100.818 196.924 99.7938C196.924 99.7938 199.864 98.9628 200.168 98.9628C201.837 100.434 204.039 103.293 209.507 103.86C213.203 104.244 214.649 102.162 215.176 100.914C216.585 101.423 218.044 102.302 219.242 102.876C229.148 107.633 230.057 116.857 230.057 116.857C230.057 116.857 220.953 146.789 220.389 150.527C220.135 152.191 222.224 154.775 222.931 163.525Z" fill="#93B3F4"/>
<path d="M216.294 93.5111C216.132 94.7999 215.588 98.324 215.357 99.7905C204.225 95.451 205.682 86.994 205.984 85.8386C206.018 85.7208 206.04 85.6563 206.04 85.6563C206.04 85.6563 211.928 89.8382 216.294 93.5111Z" fill="#E68F67"/>
<path d="M218.68 95.0091C218.68 95.0091 205.821 95.4224 205.688 87.412C205.555 79.4017 203.804 74.06 212.008 73.4579C220.211 72.8557 221.858 75.8843 222.553 78.5485C223.249 81.2104 222.02 94.6958 218.68 95.0091Z" fill="#FDA47B"/>
<path d="M219.804 72.9347C219.804 72.9347 219.042 85.5578 204.248 84.2046C204.248 84.2046 204.561 66.7197 219.804 72.9347Z" fill="white"/>
<path d="M216.805 73.5879C216.805 73.5879 221.196 79.0229 223.189 80.7583C223.189 80.7583 228.075 73.7479 216.805 73.5879Z" fill="white"/>
<path d="M216.805 73.5874C216.805 73.5874 220.751 80.2512 222.742 81.9844C222.742 81.9844 228.075 73.7474 216.805 73.5874Z" fill="white"/>
<path d="M194.951 166.796C184.474 166.179 178.87 165.532 178.87 165.532C178.87 165.532 170.289 145.725 186.412 121.321C189.676 128.929 197.373 149.263 194.951 166.796Z" fill="#8571D3"/>
<path d="M200.166 98.9609C200.166 98.9609 187.728 101.514 182.186 107.931C177.94 112.848 173.293 136.888 173.293 140.859C173.293 144.656 177.658 164.837 180.382 168.707C180.571 168.976 180.886 169.123 181.213 169.09L188.219 168.347C188.803 168.285 189.216 167.747 189.127 167.165L185.19 141.654L199.007 117.15C199.007 117.15 207.152 107.496 200.166 98.9609Z" fill="#93B3F4"/>
<path d="M253.529 263.227C253.529 263.227 254.582 265.285 256.918 265.793C258.389 266.113 259.646 266.878 260.431 267.951C261.093 268.858 260.453 270.135 259.329 270.135H247.479C246.47 270.135 245.683 269.264 245.783 268.26C245.872 267.382 245.963 266.36 246.003 265.576C246.092 263.865 247.805 262.485 247.805 262.485L253.529 263.227Z" fill="#030231"/>
<path d="M256.214 233.344C256.708 242.356 255.479 262.836 255.479 262.836C255.479 262.836 254.652 265.12 249.435 265.667C246.64 265.958 244.124 265.232 244.124 265.232C243.071 260.383 242.098 255.752 241.202 251.351C234.761 219.749 232.248 200.229 232.248 200.229L257.674 194.318C257.674 194.318 256.561 212.159 256.234 224.324C256.13 228.124 256.105 231.368 256.214 233.344Z" fill="#8571D3"/>
<path d="M257.674 194.315C257.674 194.315 256.561 212.156 256.234 224.321L241.202 251.348C234.761 219.746 232.248 200.226 232.248 200.226L257.674 194.315Z" fill="#582EFF"/>
<path d="M232.11 153.456C232.11 153.456 222.271 148.977 214.827 152.894C207.383 156.811 211.934 189.15 222.58 192.283C222.58 192.283 242.522 198.661 232.11 153.456Z" fill="#582EFF"/>
<path d="M257.552 200.978L257.621 200.938L257.588 200.98C257.583 200.987 257.57 200.982 257.552 200.978ZM260.572 201.853C260.543 201.811 260.512 201.769 260.476 201.729C260.241 201.371 259.845 200.48 259.554 199.791C261.534 190.101 260.201 184.499 260.201 184.499C260.436 181.677 262.12 161.973 258.243 152.843C256.372 148.439 253.237 148.43 253.237 148.43C253.237 148.43 253.972 155.467 253.488 159.251C253.041 162.724 256.352 195.265 256.899 200.585C256.89 200.582 256.883 200.582 256.881 200.587L257.037 205.995L258.625 205.62C258.692 205.602 258.759 205.58 258.823 205.548C259.016 205.46 259.185 205.317 259.307 205.126L260.59 203.095C260.836 202.704 260.812 202.218 260.572 201.853Z" fill="#E7AC92"/>
<path d="M232.897 263.227C232.897 263.227 233.952 265.285 236.286 265.793C237.756 266.113 239.016 266.878 239.801 267.951C240.463 268.858 239.821 270.135 238.699 270.135H226.849C225.84 270.135 225.051 269.264 225.153 268.26C225.24 267.382 225.333 266.36 225.373 265.576C225.46 263.865 227.175 262.485 227.175 262.485L232.897 263.227Z" fill="#030231"/>
<path d="M241.144 112.307C238.609 112.307 235.424 113.398 233.716 115.06C231.903 116.822 230.014 116.913 228.67 118.995C227.267 121.164 226.401 123.419 227.105 126.472C227.874 129.807 227.719 133.034 229.812 135.482C230.849 136.695 232.538 136.831 233.716 137.946C235.88 139.991 238.337 140.637 241.144 140.637C246.43 140.637 249.721 137.504 252.427 133.602C254.596 130.474 254.167 128.367 254.674 125.692C256.276 117.273 249.252 112.307 241.144 112.307Z" fill="#030231"/>
<path d="M248.588 146.252L238.48 151.418L236.456 144.406C236.456 144.406 237.742 141.979 238.325 138.004C238.569 136.333 238.689 134.389 238.536 132.234L246.77 136.451C246.77 136.451 246.573 137.211 246.442 138.335C246.302 139.549 246.239 141.186 246.584 142.742C246.881 144.077 247.479 145.352 248.588 146.252Z" fill="#FDA47B"/>
<path d="M225.172 197.058C225.172 197.058 223.25 222.526 223.679 263.12C223.679 263.12 225.997 264.338 228.792 264.615C234.014 265.135 235.285 263.067 235.285 263.067C235.285 263.067 240.622 243.255 241.957 234.327C243.188 226.099 251.268 196.402 251.268 196.402L225.172 197.058Z" fill="#8571D3"/>
<path d="M255.268 146.954C254.371 146.534 251.544 145.392 247.305 144.694C247.349 146.147 246.967 147.516 244.418 147.849C241.025 148.291 237.992 145.976 236.457 144.403C236.457 144.403 236.457 144.403 236.455 144.403L236.457 144.401C236.457 144.401 234.064 144.658 231.275 145.27C229.88 145.574 228.384 145.969 227.042 146.467C225.411 147.067 224.005 147.816 223.254 148.736H223.252V148.738C220.641 151.94 216.348 161.588 216.348 161.588C216.348 161.588 223.496 164.237 225.3 165.783L225.34 166.127L226.46 175.418L223.127 193.925C223.098 194.087 223.083 194.249 223.083 194.407C223.083 195.645 223.929 196.758 225.171 197.056C225.171 197.056 225.458 197.104 225.987 197.176C229.518 197.673 243.858 199.384 255.102 196.331C257.628 195.645 259.295 193.231 259.086 190.616L257.253 167.616C258.23 167.447 259.359 167.27 260.277 167.167C261.041 167.085 261.655 167.056 261.908 167.132C261.908 167.132 260.639 149.171 255.268 146.954Z" fill="#0B0754"/>
<path d="M234.055 181.09C233.911 187.547 229.68 195.133 225.987 197.177C225.458 197.106 225.171 197.057 225.171 197.057C223.929 196.76 223.083 195.646 223.083 194.409C223.083 194.251 223.098 194.089 223.127 193.926L226.46 175.419L225.34 166.129C225.394 165.967 225.423 165.883 225.423 165.883C225.423 165.883 234.306 169.684 234.055 181.09Z" fill="#030231"/>
<path d="M223.721 190.622L224.588 185.815C239.242 164.611 240.351 160.809 233.76 151.288C231.874 148.561 228.441 146.857 227.041 146.47C228.383 145.973 229.878 145.577 231.274 145.273C232.665 145.926 233.945 146.568 234.936 147.426C255.052 164.842 223.721 190.622 223.721 190.622Z" fill="#582EFF"/>
<path d="M240.835 163.407C235.098 163.805 234.304 169.685 234.304 169.685C234.304 169.685 224.674 170.558 223.25 171.191C223.25 171.191 224.032 169.078 225.421 165.883C224.166 164.647 220.039 162.812 217.306 161.968C215.222 167.285 214.422 172.546 215.591 177.619C215.715 178.157 216.186 178.539 216.735 178.566C219.799 178.708 229.927 178.657 237.342 172.518L237.473 172.482C239.248 172.375 240.915 170.613 241.555 168.296C242.195 165.978 242.246 166.687 242.735 165.054C243.226 163.423 240.835 163.407 240.835 163.407Z" fill="#FDA47B"/>
<path d="M246.584 142.738C241.902 142.614 238.324 138.001 238.324 138.001L246.441 138.332C246.301 139.545 246.239 141.183 246.584 142.738Z" fill="#E68F67"/>
<path d="M247.03 139.911C247.03 139.911 236.682 141.173 236.462 133.883C236.242 126.595 240.553 121.873 243.432 121.926C249.172 122.035 250.118 124.353 250.785 126.768C251.449 129.183 251.792 139.398 247.03 139.911Z" fill="#FDA47B"/>
<path d="M244.261 135.708C244.261 135.708 244.488 136.617 246.752 136.45C246.752 136.45 248.656 136.31 248.585 135.31C248.585 135.31 246.732 134.619 244.261 135.708Z" fill="white"/>
<path d="M245.992 121.991C245.992 121.991 237.151 121.985 239.184 128.055C240.464 131.882 236.207 132.477 236.207 132.477L234.156 126.344L235.44 121.567L245.992 121.991Z" fill="#030231"/>
<path d="M366.131 118.152C363.927 114.492 362.561 98.1607 360.97 93.7856C359.965 91.0192 357.275 87.715 357.559 87.5106C354.695 85.8219 346.949 85.0087 346.949 85.0087C346.949 85.0153 346.947 85.0198 346.947 85.0264C346.644 84.962 346.345 84.8998 346.056 84.842C345.127 84.6554 344.249 84.1132 344.145 83.1733C344.143 83.1266 344.136 83.0777 344.131 83.0288C344.011 81.8734 343.987 80.6913 344 79.6647C344 79.6514 344 79.6358 344 79.6203C344.027 77.9449 344.154 76.7028 344.154 76.7028L344.125 76.6984L334.081 75.0852C333.944 78.2204 333.764 80.5535 333.57 82.2934C333.424 83.6266 332.341 84.662 331.004 84.7442C330.804 84.7531 330.599 84.7665 330.399 84.782V84.7798C330.399 84.7798 323.924 84.5287 321.449 85.2842C321.254 85.3419 321.045 85.4308 320.818 85.5442C320.969 85.7019 296.978 109.748 297.596 112.533C298.216 115.317 308.744 131.131 312.559 134.046H316.381C316.381 134.046 307.913 114.732 307.804 113.168C307.642 110.875 329.095 98.0496 329.095 95.7098C329.095 94.861 335.075 94.6033 338.987 94.6321C343.129 94.6655 350.931 92.5013 350.931 92.5013C350.931 92.5013 354.302 118.054 358.563 125.634C361.925 131.611 376.768 146.925 376.768 146.925L379.901 144.147C379.901 144.147 371.466 127.013 366.131 118.152Z" fill="#FDA47B"/>
<path d="M335.736 216.493C337.547 234.343 335.351 257.714 335.351 257.714H329.201C319.915 233.29 319.635 217.967 319.106 212.212C318.82 209.076 314.587 196.544 310.787 184.492C307.612 174.429 304.743 164.696 304.723 161.05C304.681 152.693 313.007 139.29 313.007 139.29C313.007 139.29 324.97 143.905 332.354 148.465C334.818 149.987 336.702 151.475 337.347 152.738C339.06 156.093 340.329 180.053 335.774 194.687C333.032 203.499 334.436 208.019 334.436 208.019C335.005 210.59 335.427 213.46 335.736 216.493Z" fill="#D57B52"/>
<path d="M335.774 194.69C333.032 203.502 334.436 208.022 334.436 208.022C335.005 210.593 335.427 213.464 335.736 216.497L310.787 184.495C307.612 174.432 304.743 164.699 304.723 161.053C304.681 152.696 313.007 139.293 313.007 139.293C313.007 139.293 324.97 143.908 332.354 148.468C334.818 149.99 336.702 151.479 337.347 152.741C339.06 156.096 340.329 180.056 335.774 194.69Z" fill="#C94D15"/>
<path d="M329.202 257.715C329.202 257.715 328.853 261.726 328.338 262.553C327.822 263.377 325.656 266.161 323.18 267.09C320.705 268.019 313.621 267.539 313.07 270.112H338.034C338.034 270.112 338.379 266.254 337.417 263.715C336.452 261.177 335.353 257.715 335.353 257.715H329.202Z" fill="#0B0754"/>
<path d="M370.935 256.811C370.935 256.811 373.728 260.626 374.414 262.139C375.103 263.652 379.641 270.058 379.092 270.112C378.543 270.165 366.437 270.112 366.437 270.112C366.437 270.112 365.2 267.09 365.338 265.028C365.475 262.963 363.687 259.048 364.031 256.811C364.373 254.573 370.935 256.811 370.935 256.811Z" fill="#0B0754"/>
<path d="M370.935 256.808H364.031C364.031 256.808 337.105 217.883 336.178 207.984C335.021 195.607 326.371 146.754 326.371 146.754L353.992 138.155C353.992 138.155 356.408 144.363 358.432 150.622C359.312 153.351 360.118 156.091 360.621 158.331C361.727 163.272 358.612 181.944 356.488 195.218C355.437 201.755 354.628 206.986 354.681 208.619C354.843 213.572 363.92 214.214 370.935 256.808Z" fill="#D57B52"/>
<path d="M333.942 77.7929C333.927 78.0418 333.911 78.2862 333.896 78.5195C333.911 78.2862 333.927 78.0418 333.942 77.7929Z" fill="#0B0754"/>
<path d="M333.999 76.7598C333.986 77.0265 333.972 77.2865 333.957 77.542C333.972 77.2865 333.984 77.0265 333.999 76.7598Z" fill="#0B0754"/>
<path d="M334.086 75.08C334.077 75.2755 334.07 75.4688 334.059 75.6577C334.068 75.4688 334.077 75.2755 334.086 75.08Z" fill="#0B0754"/>
<path d="M357.851 144.661C358.75 147.367 345.754 148.949 331.331 148.758C327.256 148.705 323.465 148.207 320.345 147.398C313.742 145.692 310.109 142.585 313.008 139.29C313.833 138.352 322.976 125.269 322.976 125.269C323.514 124.098 322.93 120.261 320.139 111.137C318.997 107.409 320.485 105.087 321.019 103.607V103.605C321.203 103.089 321.272 102.678 321.076 102.34C319.828 100.183 318.026 98.1006 316.392 96.443C314.295 94.3055 312.475 92.8723 312.475 92.8723C312.475 92.8723 317.83 87.0395 320.821 85.5397C323.905 88.7704 330.593 94.561 338.99 94.6276C346.236 94.6832 353.275 90.6014 357.562 87.5039C357.884 87.6928 358.144 87.895 358.324 88.1061C361.001 91.248 361.766 96.9163 361.766 96.9163C361.766 96.9163 353.149 101.671 353.302 103.22C353.729 107.486 354.133 108.735 353.947 110.257L353.944 110.273C353.878 110.808 353.735 111.379 353.498 112.128C352.029 116.745 348.847 123.874 349.64 126.276C349.847 126.898 356.56 140.774 357.851 144.661Z" fill="#0B0754"/>
<path d="M321.453 85.2776C321.593 85.2354 321.742 85.1954 321.906 85.1598C321.742 85.1976 321.591 85.2376 321.451 85.2798L321.453 85.2776Z" fill="#FF9362"/>
<path d="M312.56 134.044C312.56 134.044 308.738 138.87 308.738 139.748C308.738 140.623 309.514 144.285 310.44 144.338C311.369 144.389 311.68 141.345 312.4 140.779C313.122 140.212 315.702 139.145 316.064 138.157C316.424 137.168 316.382 134.044 316.382 134.044H312.56Z" fill="#FDA47B"/>
<path d="M333.606 81.9805C338.35 81.3694 344.127 76.6943 344.127 76.6943C340.756 74.8656 337.83 74.6879 335.559 75.3167C335.017 75.4656 334.513 75.6611 334.046 75.8922L333.606 81.9805Z" fill="#E68F67"/>
<path d="M331.889 77.3822C331.889 77.3822 343.621 81.2974 345.948 73.9537C348.274 66.6077 351.356 62.166 343.961 59.3573C336.569 56.5443 334.218 58.884 332.845 61.1483C331.474 63.4103 328.896 76.1735 331.889 77.3822Z" fill="#FDA47B"/>
<path d="M336.097 74.1516C336.097 74.1516 335.665 75.0048 333.45 74.3182C333.45 74.3182 331.59 73.7405 331.888 72.7606C331.888 72.7606 333.892 72.5006 336.097 74.1516Z" fill="white"/>
<path d="M363.372 60.1359C362.058 58.4494 366.373 54.9653 357.608 50.7813C350.959 47.606 348.897 52.4144 348.291 54.9231C344.338 52.6677 337.885 46.1684 333.77 50.4013C328.842 55.4719 334.185 59.9337 334.185 59.9337C336.054 61.2936 336.963 60.918 339.696 61.518C342.427 62.1179 340.683 65.2798 340.896 66.3464C341.109 67.413 342.974 69.5683 345.5 68.4795C348.026 67.3907 347.735 71.5525 345.333 72.408C344.649 72.6524 343.938 76.4787 344.931 76.6409C345.764 76.7765 348.775 76.8054 349.082 74.3478C349.264 72.8902 351.117 72.1281 353.081 70.6215C354.441 71.9147 356.352 72.5747 357.405 72.4236C358.959 72.2014 358.976 70.9548 362.301 68.735C365.627 66.5175 364.687 61.8246 363.372 60.1359Z" fill="#0B0754"/>
<path d="M320.343 147.398C313.742 145.691 310.109 142.585 313.008 139.29C313.833 138.354 322.976 125.269 322.976 125.269C322.976 125.269 325.425 140.043 320.343 147.398Z" fill="#030231"/>
<path d="M344.61 84.1183C344.819 84.3339 345.088 84.505 345.381 84.6294C345.088 84.505 344.821 84.3361 344.61 84.1183Z" fill="#FF9362"/>
<path d="M345.381 84.6315C345.49 84.6781 345.598 84.7181 345.714 84.7515C345.598 84.7181 345.49 84.6781 345.381 84.6315Z" fill="#FF9362"/>
<path d="M379.901 144.148C379.901 144.148 385.178 145.514 385.901 146.252C386.623 146.988 388.691 152.711 387.965 152.765C384.181 153.04 382.188 151.012 382.188 151.012C379.901 148.494 376.484 148.094 376.653 146.252C376.824 144.41 379.901 144.148 379.901 144.148Z" fill="#FF9362"/>
<path d="M363.143 270.124L362.156 164.265C362.156 164.265 361.303 156.639 354.65 156.639C347.553 156.639 347.147 164.265 347.147 164.265C347.147 164.265 347.249 164.923 347.978 164.923C348.74 164.923 348.864 164.265 348.864 164.265C348.864 164.265 349.18 158.386 354.65 158.386C359.779 158.386 360.437 164.265 360.437 164.265V270.124H363.143Z" fill="#010117"/>
<path d="M359.527 270.124H363.939L363.546 265.508C363.546 265.508 363.584 264.866 362.693 264.831C361.864 264.797 360.226 264.68 360.071 265.18C359.935 265.62 359.527 270.124 359.527 270.124Z" fill="#010117"/>
<path d="M354.599 151.03L354.296 152.544C354.296 152.544 346.813 152.515 345.062 160.536C345.062 160.536 344.588 163.874 346.995 163.16C349.401 162.447 349.026 160.745 352.432 159.812C355.841 158.878 358.06 158.165 358.576 155.683L359.134 152.924L354.599 151.03Z" fill="#FDA47B"/>
<path d="M381.062 85.3897C381.062 85.3897 379.083 93.18 377.376 100.302C376.687 103.17 376.045 105.93 375.592 108.027C375.13 110.185 374.867 111.645 374.967 111.805C376.452 114.216 373.741 128.91 371.594 134.247C371.405 134.72 371.146 135.274 370.832 135.891C367.83 141.771 359.844 153.316 359.844 153.316C359.844 153.316 357.591 153.552 356.116 152.994C354.887 152.53 354.047 151.025 354.047 151.025C354.76 149.877 357.651 136.296 361.371 128.681C362.962 125.424 365.304 95.1998 368.386 91.1291C370.957 87.7361 381.062 85.3897 381.062 85.3897Z" fill="#FA7269"/>
<path d="M374.967 111.808C376.452 114.219 373.741 128.913 371.594 134.251C371.405 134.724 371.145 135.277 370.832 135.895C367.964 123.212 372.716 105.245 372.716 105.245C373.903 105.714 374.867 111.649 374.967 111.808Z" fill="#F3A683"/>
<path d="M395.74 258.462C395.74 258.462 396.502 269.941 394.335 270.104C394.047 270.124 383.341 270.124 383.341 270.124H369.531C369.531 270.124 369.765 266.753 373.76 266.055C377.753 265.36 384.441 262.551 386.861 257.271C389.405 251.716 395.74 258.462 395.74 258.462Z" fill="#030231"/>
<path d="M416.512 258.462C416.512 258.462 417.274 269.941 415.106 270.104C414.819 270.124 404.113 270.124 404.113 270.124H390.304C390.304 270.124 390.535 266.753 394.53 266.055C398.525 265.36 405.211 262.551 407.631 257.271C410.177 251.716 416.512 258.462 416.512 258.462Z" fill="#030231"/>
<path d="M396.394 230.797C396.734 235.652 397.425 241.891 397.179 247.517C396.834 255.385 396.585 262.02 396.585 262.02C391.397 263.782 381.882 261.643 381.882 261.643C381.882 261.643 378.505 241.762 375.725 225.893C374.476 218.782 373.443 212.63 373.057 209.726C371.806 200.335 374.388 150.414 374.388 150.414C374.388 150.414 388.422 141.419 394.221 146.056C400.018 150.694 403.587 155.224 394.243 206.024C393.535 209.877 395.632 219.925 396.394 230.797Z" fill="#0B0754"/>
<path d="M396.394 230.799C396.734 235.654 397.359 243.422 397.112 249.046C392.232 243.884 382.618 232.99 375.725 225.895C374.476 218.784 373.443 212.632 373.057 209.728C371.806 200.337 374.388 150.416 374.388 150.416C374.388 150.416 388.422 141.421 394.221 146.058C400.018 150.696 403.587 155.226 394.243 206.026C393.535 209.879 395.632 219.927 396.394 230.799Z" fill="#030231"/>
<path d="M387.073 151.43C387.073 151.43 388.333 201.403 390.302 210.669C392.273 219.935 402.552 262.351 402.552 262.351C402.552 262.351 412.186 263.228 417.221 261.071C417.221 261.071 416.901 241.426 415.193 229.885C413.595 219.104 410.733 209.247 411.144 205.35C416.557 153.986 412.648 149.742 406.511 145.562C400.374 141.385 387.073 151.43 387.073 151.43Z" fill="#0B0754"/>
<path d="M406.118 155.804C406.118 155.804 402.779 162.504 409.196 167.623C409.196 167.623 411.98 169.525 412.404 167.052C412.831 164.579 412.34 165.441 413.011 161.973C413.682 158.504 412.824 154.918 410.829 153.358L406.118 155.804Z" fill="#FDA47B"/>
<path d="M377.979 74.0721C377.979 74.0721 381.832 79.927 381.065 85.3932L386.767 99.1318L397.053 83.4045C397.053 83.4045 391.62 77.4895 389.591 69.4259L377.979 74.0721Z" fill="#FDA47B"/>
<path d="M376.289 79.0694C376.289 79.0694 390.321 79.6782 390.577 71.2546C390.83 62.831 394.623 57.2271 384.129 56.4871C375.498 55.8783 372.627 59.478 371.859 62.2688C371.09 65.0596 371.088 78.6183 376.289 79.0694Z" fill="#FDA47B"/>
<path d="M410.638 153.838C407.625 154.118 403.474 154.466 398.439 154.782C397.433 154.846 396.393 154.909 395.317 154.969C380.114 155.82 374.071 153.358 374.071 153.358C374.071 153.358 373.666 153.031 373.795 151.247C374.455 142.05 376.408 139.335 376.173 137.588C375.644 133.66 366.116 101.612 366.116 101.612C366.116 101.612 365.931 91.4881 377.19 86.7375C378.352 86.2464 379.63 85.8132 381.045 85.4554C381.539 86.7664 382.89 88.9551 386.347 88.5507C391.46 87.9552 395.097 84.9421 396.659 83.3956C396.942 83.3956 397.053 83.4045 397.053 83.4045C397.435 84.4822 397.73 85.6043 397.995 86.7464C398.919 90.726 399.459 94.9123 401.901 98.0408C404.312 101.132 406.374 104.178 408.134 107.158C409.598 109.64 410.856 112.075 411.929 114.446C421.897 136.475 414.187 153.504 410.638 153.838Z" fill="#FA7269"/>
<path d="M410.639 153.837C407.626 154.117 403.475 154.466 398.44 154.781C396.971 130.033 407.055 106.264 407.055 106.264C407.435 106.53 407.795 106.828 408.135 107.157C409.89 108.864 411.114 111.397 411.93 114.445C414.934 125.666 412.419 143.898 410.639 153.837Z" fill="#F3A683"/>
<path d="M371.765 71.0352C371.765 71.0352 369.034 81.8719 373.67 83.3962C378.305 84.9227 390.612 83.7006 390.606 70.4152C390.606 70.4152 384.148 74.266 381.064 74.1682C377.978 74.0726 375.987 72.2906 373.136 73.6816C373.136 73.6816 372.094 73.6127 371.765 71.0352Z" fill="#BED2FA"/>
<path d="M397.053 83.4042C397.053 83.4042 406.863 83.6242 412.044 90.368C416.015 95.5342 420.212 123.256 420.212 127.431C420.212 131.606 415.742 154.642 413.24 157.146C413.24 157.146 411.62 157.564 409.456 157.146C407.163 156.701 405.812 155.375 405.812 155.375C405.812 155.375 407.056 129.726 407.056 127.322C407.056 123.838 396.168 102.518 396.168 102.518C396.168 102.518 390.52 92.3722 397.053 83.4042Z" fill="#FA7269"/>
<path d="M389.916 59.1045C389.678 58.2446 388.62 57.7936 388.62 57.7936C380.716 54.3517 374.944 58.118 374.944 58.118C379.788 51.6142 391.478 52.9807 393.94 58.8446C397.959 68.4192 390.604 70.4146 390.604 70.4146C390.604 70.4146 383.263 67.3282 387.514 63.4597C388.924 62.1776 389.604 61.0377 389.831 60.0467C389.907 59.7156 389.931 59.4023 389.916 59.1045Z" fill="#BED2FA"/>
<path d="M377.396 76.1873C377.396 76.1873 377.136 77.1073 374.829 76.8673C374.829 76.8673 372.894 76.6651 372.996 75.6452C372.996 75.6452 374.909 74.9986 377.396 76.1873Z" fill="white"/>
<path d="M492.806 271.539H0.592162C0.266638 271.539 0 271.272 0 270.945V270.725C0 270.401 0.266638 270.134 0.592162 270.134H492.806C493.132 270.134 493.399 270.401 493.399 270.725V270.945C493.399 271.272 493.132 271.539 492.806 271.539Z" fill="#010117"/>
</svg>
