<svg width="50" height="50" viewBox="0 0 50 50" fill="none" stroke="#31C5A1" xmlns="http://www.w3.org/2000/svg">
<path d="M1.5625 29.6875V48.4375" stroke="inherit" stroke-width="1.5" stroke-linecap="round" stroke-linejoin="round"/>
<path d="M1.5625 45.3125H35.9375C35.9375 41.8607 33.1393 39.0625 29.6875 39.0625H21.875C21.875 35.6107 19.0768 32.8125 15.625 32.8125H1.5625" stroke="inherit" stroke-width="1.5" stroke-linecap="round" stroke-linejoin="round"/>
<path d="M14.0625 39.0625H21.875" stroke="inherit" stroke-width="1.5" stroke-linecap="round" stroke-linejoin="round"/>
<path fill-rule="evenodd" clip-rule="evenodd" d="M35.9375 14.0625C42.8411 14.0625 48.4375 11.2643 48.4375 7.8125C48.4375 4.36072 42.8411 1.5625 35.9375 1.5625C29.0339 1.5625 23.4375 4.36072 23.4375 7.8125C23.4375 11.2643 29.0339 14.0625 35.9375 14.0625Z" stroke="inherit" stroke-width="1.5" stroke-linecap="round" stroke-linejoin="round"/>
<path d="M23.4375 7.8125V23.4375C23.4375 26.8896 29.0333 29.6875 35.9375 29.6875C42.8417 29.6875 48.4375 26.8896 48.4375 23.4375V7.8125" stroke="inherit" stroke-width="1.5" stroke-linecap="round" stroke-linejoin="round"/>
<path d="M48.4375 15.625C48.4375 19.0771 42.8417 21.875 35.9375 21.875C29.0333 21.875 23.4375 19.0771 23.4375 15.625" stroke="inherit" stroke-width="1.5" stroke-linecap="round" stroke-linejoin="round"/>
</svg>
