<svg width="315" height="316" viewBox="0 0 315 316" fill="none" xmlns="http://www.w3.org/2000/svg">
<path d="M161.3 314.895C142.303 314.895 127.789 312.239 122.001 311.063C116.998 310.047 110.885 308.805 104.073 307.036C104.694 304.328 106.659 294.813 107.38 280.224C179.466 182.644 110.833 57.0717 82.8443 13.7841C93.444 8.33243 106.034 4.13953 121.01 2.18204C131.396 0.824158 143.372 0.000701904 156.017 0.000701904C193.185 0.000701904 236.179 7.11404 261.952 28.7027C262.925 29.5184 263.879 30.3419 264.823 31.1822C211.695 144.751 226.869 261.94 233.944 300.032C208.087 311.729 182.024 314.895 161.3 314.895ZM176.287 10.8918C171.108 10.8918 165.941 11.6725 161.477 12.9123C145.393 17.3796 137.237 28.4102 140.954 45.3122C144.281 60.4467 172.067 71.9813 190.672 71.9824C191.658 71.9824 192.616 71.951 193.546 71.8846C194.209 71.8373 194.324 70.9137 193.69 70.7146C189.998 69.5513 183.939 66.8919 181.064 61.4458C180.433 60.2521 181.116 58.7851 182.427 58.4566C188.913 56.8299 206.34 50.7324 204.737 32.4107C203.316 16.1793 189.764 10.8918 176.287 10.8918ZM101.264 306.287C79.8676 300.416 52.4926 289.224 31.0952 264.064C4.00556 232.21 -3.97607 189.173 1.74521 148.126C6.72804 196.251 26.6572 253.776 85.2563 295.796C85.3575 296.02 85.4565 296.239 85.5522 296.451C86.2834 298.064 87.9574 298.958 89.6112 298.958C89.6674 298.958 89.7236 298.957 89.7788 298.955C93.4564 301.458 97.2915 303.908 101.264 306.287ZM281.324 265.701C305.012 230.065 313.851 189.872 314.893 151.614C315.965 195.798 303.303 239.104 281.324 265.701ZM49.048 102.851C42.5455 94.1111 35.3323 85.2844 27.3707 76.4555C27.5953 76.0955 27.8228 75.7332 28.0498 75.3755C31.8814 69.3342 40.4337 46.8208 61.7754 28.1245C54.3293 53.5111 50.4316 78.6796 49.048 102.851Z" fill="#F9F7FF"/>
<path d="M190.672 71.9814C172.067 71.9803 144.282 60.4457 140.954 45.3112C137.237 28.4092 145.393 17.3786 161.477 12.9113C165.941 11.6715 171.108 10.8908 176.287 10.8908C189.764 10.8908 203.316 16.1782 204.737 32.4097C206.34 50.7314 188.914 56.8289 182.427 58.4556C181.116 58.7841 180.433 60.2511 181.064 61.4447C183.939 66.8908 189.998 69.5503 193.69 70.7136C194.324 70.9127 194.209 71.8363 193.546 71.8836C192.616 71.95 191.658 71.9814 190.672 71.9814ZM168.527 57.8425C168.137 57.8425 167.804 58.1406 167.77 58.5366C167.735 58.954 168.046 59.3196 168.462 59.3545C169.742 59.4625 170.789 59.4884 171.495 59.4884C172.108 59.4884 172.465 59.4692 172.495 59.467C172.913 59.4434 173.232 59.0856 173.21 58.6682C173.186 58.2632 172.851 57.9527 172.448 57.9527C172.436 57.9527 172.423 57.9539 172.41 57.9539C172.403 57.9539 172.076 57.9719 171.5 57.9719C170.828 57.9719 169.82 57.9482 168.589 57.8447C168.569 57.8425 168.548 57.8425 168.527 57.8425ZM152.161 21.6019C152.01 21.6019 151.857 21.6468 151.723 21.7413C151.62 21.8156 141.395 29.2777 146.481 44.8578C148.534 51.1476 153.502 55.6645 160.848 57.919C160.921 57.9415 160.997 57.9527 161.071 57.9527C161.395 57.9527 161.694 57.7424 161.794 57.4172C161.917 57.0167 161.692 56.5926 161.293 56.47C154.34 54.3359 149.842 50.2713 147.922 44.3875C143.194 29.9032 152.215 23.2533 152.601 22.9777C152.942 22.7347 153.022 22.2634 152.78 21.9225C152.632 21.7132 152.398 21.6019 152.161 21.6019Z" fill="#FF7800"/>
<path d="M171.495 59.4886C170.789 59.4886 169.742 59.4628 168.462 59.3548C168.046 59.3199 167.735 58.9543 167.77 58.5369C167.804 58.1409 168.137 57.8428 168.527 57.8428C168.548 57.8428 168.569 57.8428 168.589 57.845C169.82 57.9485 170.828 57.9721 171.5 57.9721C172.076 57.9721 172.403 57.9541 172.41 57.9541C172.423 57.9541 172.436 57.953 172.448 57.953C172.851 57.953 173.186 58.2635 173.21 58.6685C173.232 59.0859 172.913 59.4436 172.495 59.4673C172.465 59.4695 172.108 59.4886 171.495 59.4886Z" fill="url(#paint0_linear_2_13078)"/>
<path d="M161.071 57.9531C160.997 57.9531 160.921 57.9419 160.848 57.9194C153.502 55.6649 148.534 51.148 146.481 44.8582C141.395 29.2781 151.62 21.816 151.723 21.7417C151.857 21.6472 152.01 21.6022 152.161 21.6022C152.398 21.6022 152.632 21.7136 152.78 21.9229C153.022 22.2637 152.942 22.7351 152.601 22.9781C152.215 23.2537 143.194 29.9036 147.922 44.3879C149.842 50.2716 154.34 54.3363 161.293 56.4704C161.692 56.593 161.917 57.0171 161.794 57.4176C161.694 57.7428 161.395 57.9531 161.071 57.9531Z" fill="url(#paint1_linear_2_13078)"/>
<path d="M173.308 30.7634C173.308 30.7634 175.97 21.2471 185.276 24.7908C194.092 28.1478 188.648 40.0379 174.191 45.3805C172.622 45.9599 170.872 45.7371 169.494 44.7921C164.337 41.2518 152.584 31.7219 161.762 23.6456C167.69 18.4301 173.308 30.7634 173.308 30.7634Z" fill="white"/>
<path d="M76.848 4.81161C99.7743 37.9304 195.411 190.531 92.5799 297.739C90.5786 299.825 86.7659 299.129 85.5521 296.45C72.6461 267.972 19.5273 136.842 69.4275 5.32571C70.5458 2.37823 74.949 2.06775 76.848 4.81161Z" fill="#31C5A1"/>
<path d="M103.434 224.14C102.537 219.293 101.472 214.293 100.211 209.16C102.217 165.973 99.7845 108.177 82.2267 48.9271C82.1119 48.5401 82.428 48.2937 82.7543 48.2937C82.9737 48.2937 83.1964 48.4051 83.2965 48.6582C92.7397 72.4722 114.245 138.484 103.434 224.14Z" fill="#C8D9FD"/>
<path d="M286.573 3.73029C301.693 41.1409 361.809 212.145 241.675 308.866C239.338 310.749 235.838 309.503 235.227 306.566C228.727 275.334 204.824 132.392 279.381 3.23981C281.053 0.344055 285.32 0.629791 286.573 3.73029Z" fill="#31C5A1"/>
<path d="M243.974 292.221C243.974 292.221 292.051 178.454 282.685 50.0982C282.657 49.7191 282.947 49.511 283.235 49.511C283.475 49.511 283.712 49.655 283.762 49.9677C288.798 81.4631 298.095 179.796 243.974 292.221Z" fill="#C8D9FD"/>
<path d="M103.883 307.831C103.883 307.831 135.79 184.588 13.8441 62.1937C11.2542 59.595 6.85994 60.972 6.07885 64.644C-1.27851 99.241 -20.947 235.216 103.883 307.831Z" fill="#21836A"/>
<path d="M98.916 296.137C98.7382 296.137 98.5616 296.045 98.4615 295.83C86.2193 269.312 49.5636 162.751 38.7555 131.123C38.6133 130.708 38.944 130.396 39.2714 130.396C39.4485 130.396 39.6244 130.487 39.7241 130.702C70.3805 196.853 93.5813 274.998 99.4369 295.436C99.5539 295.844 99.2344 296.137 98.916 296.137Z" fill="#DEE8FD"/>
<path d="M83.5295 156.557C82.742 156.714 89.5595 272.721 94.7839 298.848L105.637 298.043L108.049 180.674H112.068L118.097 296.034H126.941L135.382 155.351C135.382 155.351 101.617 152.939 83.5295 156.557Z" fill="#582EFF"/>
<path d="M94.7838 306.485C94.7838 306.485 103.627 307.691 108.853 306.485C108.853 306.485 110.461 302.063 105.637 298.044C100.814 294.024 94.7838 298.848 94.7838 298.848V306.485Z" fill="url(#paint2_linear_2_13078)"/>
<path d="M118.097 296.034C118.097 296.034 117.696 302.464 118.097 305.681C118.097 305.681 134.98 306.243 144.261 306.191C145.966 306.182 146.444 303.859 144.884 303.171C141.9 301.85 136.545 297.457 126.941 296.034H118.097Z" fill="url(#paint3_linear_2_13078)"/>
<path d="M87.1474 62.902C87.1474 62.902 110.461 55.2655 128.95 62.0976L138.195 158.969C138.195 158.969 96.7943 157.763 82.7262 160.978L87.1474 62.902Z" fill="#FF9362"/>
<path d="M66.6477 70.941C66.6477 70.941 80.3142 63.3034 93.1762 61.2942L89.3209 159.619C89.2241 162.067 87.4646 164.13 85.0628 164.61L83.6925 164.885C82.3751 165.148 81.1557 164.118 81.1939 162.775L82.3965 121.271C82.6136 113.794 81.2524 106.356 78.4005 99.4417L66.6477 70.941Z" fill="url(#paint4_linear_2_13078)"/>
<path d="M122.518 60.4898C122.518 60.4898 142.616 62.0974 154.273 72.5487L145.213 98.13C142.164 106.737 140.607 115.801 140.607 124.933L138.699 161.81C138.642 162.921 137.725 163.792 136.612 163.792C133.867 163.792 131.577 161.696 131.332 158.962L122.518 60.4898Z" fill="url(#paint5_linear_2_13078)"/>
<path d="M99.9533 44.9728L99.663 59.8836C99.6281 61.0153 100.33 62.0357 101.399 62.4126C104.327 63.4453 110.389 65.0158 116.132 62.9582C117.291 62.5442 117.988 61.3573 117.809 60.1401L116.094 46.2576L99.9533 44.9728Z" fill="url(#paint6_linear_2_13078)"/>
<path d="M113.274 309.298C112.608 309.298 112.068 308.759 112.068 308.093V137.263C112.068 136.597 112.608 136.057 113.274 136.057C113.94 136.057 114.48 136.597 114.48 137.263V308.093C114.48 308.759 113.94 309.298 113.274 309.298Z" fill="url(#paint7_linear_2_13078)"/>
<path d="M118.5 134.851C118.5 134.851 141.41 147.713 147.038 131.233C152.665 114.754 142.215 104.303 142.215 104.303L154.273 72.5486C154.273 72.5486 177.184 114.754 161.106 140.478C146.042 164.58 119.303 142.488 119.303 142.488L118.5 134.851Z" fill="url(#paint8_linear_2_13078)"/>
<path d="M66.6477 70.9409C66.6477 70.9409 44.9424 143.292 66.6477 152.938C88.3534 162.585 106.441 139.272 106.441 139.272L104.029 132.439C104.029 132.439 84.3338 143.693 77.9022 138.066C71.4706 132.439 82.3234 99.4798 82.3234 99.4798L66.6477 70.9409Z" fill="url(#paint9_linear_2_13078)"/>
<path d="M119.303 142.488C119.303 142.488 114.882 142.89 112.47 140.478C110.058 138.066 107.647 133.645 111.264 133.243C114.882 132.841 118.5 134.851 118.5 134.851L119.303 142.488Z" fill="url(#paint10_linear_2_13078)"/>
<path d="M120.911 134.851C120.911 134.851 110.461 128.419 104.029 132.439C104.029 132.439 102.823 137.263 106.441 139.272C106.441 139.272 112.872 143.693 118.097 141.283C123.323 138.871 120.911 134.851 120.911 134.851Z" fill="url(#paint11_linear_2_13078)"/>
<path d="M119.186 22.0593C120.211 24.4882 120.716 27.4087 121.422 30.5024C122.746 36.3063 124.053 42.1146 125.352 47.9241L110.648 50.8873C108.358 44.9428 106.187 38.9522 103.881 33.0134C102.653 29.851 101.606 25.5288 98.2984 23.8705C96.3702 22.9042 94.1044 23.6928 95.2688 21.0423C96.1249 19.0972 98.9532 17.4963 100.804 16.7279C103.808 15.4803 107.171 15.2677 110.396 15.7042C115.465 16.3904 117.8 18.7732 119.186 22.0593Z" fill="url(#paint12_linear_2_13078)"/>
<path d="M106.932 31.1628C106.934 31.2156 106.938 31.2696 106.943 31.3236C107.053 32.6151 107.763 34.0765 108.131 35.314C108.984 38.1771 109.833 41.0402 110.689 43.9022C110.737 44.0653 110.806 44.2172 110.897 44.3612C111.454 45.2432 113.594 48.1367 116.42 45.7686C118.986 43.6187 121.359 41.695 123.475 41.4295C124.425 41.3113 125.308 41.9312 125.518 42.8661C126.039 45.1948 127.114 50.4643 127.35 55.1859C127.398 56.1433 126.697 56.9724 125.747 57.1041C122.884 57.5012 116.821 58.1694 111.82 57.5642C111.141 57.4821 110.563 57.0444 110.311 56.4099C109.078 53.3185 105.298 43.9337 103.839 41.4824C102.354 38.9826 100.218 45.952 97.8034 47.3357C96.9169 47.8431 93.9537 41.1055 92.9558 41.3249C89.6955 42.0437 88.2871 37.204 89.1499 34.8663C90.1793 32.0774 93.5262 31.7466 91.2807 28.555C90.1467 26.9452 90.7665 24.5917 92.1379 23.1798C93.5239 21.7533 95.6063 21.0029 97.2443 19.9724C99.0128 18.8598 100.796 18.7338 102.867 19.0128C103.518 19.0994 104.185 19.2412 104.723 19.6192C105.494 20.1626 105.917 21.1357 106.761 21.5576C107.71 22.0323 109.075 21.7533 109.684 22.6229C110.091 23.2012 109.915 23.9954 109.668 24.658C108.822 26.9215 106.809 28.6788 106.932 31.1628Z" fill="white"/>
<path d="M105.93 45.8434C105.93 45.8434 104.639 38.1146 101.356 37.5611C98.0734 37.0076 94.7232 39.5614 97.7843 44.1806C101.591 49.9271 105.93 45.8434 105.93 45.8434Z" fill="url(#paint13_linear_2_13078)"/>
<path d="M192.307 114.295C192.307 114.295 192.504 112.384 191.625 110.257C190.744 108.13 185.83 107.763 184.51 106.223C183.189 104.683 182.896 107.469 183.629 108.13C184.363 108.79 176.075 107.983 175.048 106.002C175.048 106.002 172.811 103.545 172.811 106.26C172.811 108.973 179.192 112.531 181.76 112.787C184.327 113.044 186.121 114.502 186.25 115.184C187.517 115.721 192.307 114.295 192.307 114.295Z" fill="url(#paint14_linear_2_13078)"/>
<path d="M211.757 90.3573C211.757 90.3573 202.553 102.555 203.139 121.918C203.726 141.281 200.01 133.165 196.099 123.581C192.187 113.997 192.187 113.997 192.187 113.997L186.056 115.223C186.056 115.223 193.751 152.201 204.509 149.919C215.267 147.638 216.244 119.865 216.244 114.388C216.244 108.912 211.757 90.3573 211.757 90.3573Z" fill="#D1E9E3"/>
<path fill-rule="evenodd" clip-rule="evenodd" d="M234.69 302.166L235.425 303.97L235.126 310.472C235.084 311.385 234.348 312.152 233.354 312.305C231.997 312.515 230.025 312.726 228.169 312.583C226.717 312.471 225.807 311.106 226.375 309.888L228.564 305.199C228.891 304.497 229.489 303.959 230.221 303.706L234.69 302.166Z" fill="#150165"/>
<path fill-rule="evenodd" clip-rule="evenodd" d="M236.979 243.218C236.979 243.218 236.979 290.359 234.76 303.637C234.647 304.319 234.127 304.867 233.446 304.981C232.823 305.087 231.974 305.064 230.959 304.614C230.448 304.387 230.109 303.887 230.04 303.333L223.77 244.043L236.979 243.218Z" fill="url(#paint15_linear_2_13078)"/>
<path fill-rule="evenodd" clip-rule="evenodd" d="M242.571 302.166L241.836 303.97L241.308 310.472C241.351 311.385 242.088 312.152 243.081 312.305C244.438 312.515 247.236 312.726 249.091 312.583C250.544 312.471 251.454 311.106 250.885 309.888L248.697 305.199C248.37 304.497 247.771 303.959 247.04 303.706L242.571 302.166Z" fill="#140060"/>
<path fill-rule="evenodd" clip-rule="evenodd" d="M240.281 243.218C240.281 243.218 240.282 290.981 242.554 303.952C242.629 304.378 242.928 304.735 243.34 304.867C244 305.077 245.113 305.205 246.519 304.512C246.884 304.332 247.141 303.978 247.19 303.573L253.49 244.043L240.281 243.218Z" fill="url(#paint16_linear_2_13078)"/>
<path d="M218.01 149.92C211.477 165.028 212.053 207.63 221.277 250.364C221.277 250.364 244.143 252.406 255.167 250.364C255.167 250.364 270.274 162.17 254.35 149.92H218.01Z" fill="url(#paint17_linear_2_13078)"/>
<path d="M265.375 93.1654C265.375 93.1654 256.8 78.8745 238.834 74.7908L229.444 74.3824C229.444 74.3824 215.97 80.9153 210.252 93.1654L217.602 124.604L218.01 149.919C218.01 149.919 239.651 154.82 254.35 149.919L257.617 118.888L265.375 93.1654Z" fill="#D1E9E3"/>
<path d="M228.627 62.9508V78.424C228.627 79.675 229.538 80.7404 230.776 80.9271C232.827 81.2354 235.997 81.475 238.719 80.656C239.973 80.2791 240.745 79.0236 240.495 77.7389L237.609 62.9508H228.627Z" fill="url(#paint18_linear_2_13078)"/>
<path d="M213.223 47.6596C213.223 47.6596 212.26 75.5516 225.075 74.592C240.158 73.4625 238.674 53.5355 238.674 53.5355C238.674 53.5355 214.711 22.6071 213.223 47.6596Z" fill="url(#paint19_linear_2_13078)"/>
<path d="M238.507 40.7033C238.507 40.7033 230.241 32.7249 232.94 27.3834C235.64 22.043 243.757 21.269 247.493 28.8493C251.23 36.4306 243.859 48.5187 238.507 40.7033Z" fill="white"/>
<path d="M208.77 46.874C208.895 49.097 211.357 50.3727 213.255 49.2084C215.165 48.0361 217.569 46.7491 219.805 46.0944C234.901 41.6664 232.347 53.2932 232.867 54.8412C233.931 58.007 235.425 52.1469 235.962 53.1549C237.13 55.3475 237.687 63.002 237.687 63.002C237.687 63.002 246.562 57.7763 248.096 52.0917C249.632 46.4071 242.637 37.127 240.174 33.6474C237.713 30.1678 228.671 28.8988 224.543 30.7168C220.853 32.3424 208.083 34.6093 208.77 46.874Z" fill="white"/>
<path d="M234.937 56.5148C234.937 56.5148 234.147 50.3195 237.634 50.4399C241.12 50.5602 237.914 58.9617 236.368 60.7729L234.937 56.5148Z" fill="url(#paint20_linear_2_13078)"/>
<path d="M265.375 93.1652C265.375 93.1652 295.181 139.304 260.883 160.536L257.754 156.086C257.754 156.086 273.949 132.362 258.841 111.13L265.375 93.1652Z" fill="#D1E9E3"/>
<path d="M253.942 314.263C253.153 314.263 252.513 313.623 252.513 312.834V163.394C252.513 162.604 253.153 161.964 253.942 161.964C254.731 161.964 255.37 162.604 255.37 163.394V312.834C255.37 313.623 254.731 314.263 253.942 314.263Z" fill="#140162"/>
<path d="M257.617 156.045C257.617 156.045 249.859 158.902 249.451 165.026C249.042 171.151 249.859 172.784 251.084 170.743C252.308 168.702 253.533 166.66 255.984 165.026C258.433 163.394 260.883 160.536 260.883 160.536C260.883 160.536 260.475 156.045 257.617 156.045Z" fill="url(#paint21_linear_2_13078)"/>
<path fill-rule="evenodd" clip-rule="evenodd" d="M175.224 157.639C175.224 157.639 176.336 151.724 171.777 150.45C171.777 150.45 173.843 143.629 167.389 143.65C167.389 143.65 156.354 129.931 147.453 143.993C147.453 143.993 127.534 145.202 135.412 160.286C135.412 160.286 130.191 164.958 137.788 168.725C137.788 168.725 143.929 187.189 157.772 175.286L175.224 157.639Z" fill="#19017C"/>
<path d="M112.326 144.333C116.458 140.088 119.45 145.788 119.45 145.788C122.777 146.91 119.45 154.063 119.45 154.063C121.487 158.009 132.112 178.295 137.871 183.3C144.26 188.851 133.984 190.298 133.984 190.298C133.984 190.298 122.504 184.925 116.066 155.691C116.012 155.67 115.96 155.649 115.916 155.614C115.037 154.945 108.193 148.577 112.326 144.333Z" fill="url(#paint22_linear_2_13078)"/>
<path d="M178.919 184.221C184.1 179.719 193.752 160.704 197.215 153.68C196.588 152.197 194.514 146.756 197.382 145.788C197.382 145.788 200.374 140.088 204.507 144.332C208.32 148.247 202.795 153.965 201.225 155.355C197.97 171.816 186.116 190.293 186.116 190.293C186.116 190.293 172.53 189.772 178.919 184.221Z" fill="url(#paint23_linear_2_13078)"/>
<path fill-rule="evenodd" clip-rule="evenodd" d="M158.266 308.037C158.266 308.037 157.339 311.478 157.404 314.018C157.414 314.417 157.71 314.749 158.106 314.804C160.428 315.124 168.353 316.074 172.708 314.807C173.058 314.704 173.299 314.377 173.287 314.012C173.248 312.645 172.286 309.437 164.332 308.618L158.266 308.037Z" fill="#160169"/>
<path fill-rule="evenodd" clip-rule="evenodd" d="M171.952 255.426C172.931 256.065 165.546 307.919 163.756 308.296C163.756 308.296 161.71 310.198 158.552 308.03C160.376 291.13 161.485 273.988 160.504 256.468L171.952 255.426Z" fill="url(#paint24_linear_2_13078)"/>
<path fill-rule="evenodd" clip-rule="evenodd" d="M140.58 308.037C140.58 308.037 139.654 311.478 139.718 314.018C139.729 314.417 140.024 314.749 140.419 314.804C142.741 315.124 150.668 316.074 155.022 314.807C155.373 314.704 155.612 314.377 155.602 314.012C155.563 312.645 154.6 309.437 146.646 308.618L140.58 308.037Z" fill="#170264"/>
<path fill-rule="evenodd" clip-rule="evenodd" d="M154.266 255.426C155.244 256.065 147.86 307.919 146.071 308.296C146.071 308.296 144.025 310.198 140.867 308.03C142.69 291.13 143.8 273.988 142.819 256.468L154.266 255.426Z" fill="url(#paint25_linear_2_13078)"/>
<path fill-rule="evenodd" clip-rule="evenodd" d="M146.051 223.953C146.051 223.953 170.134 225.054 175.869 227.068C175.869 227.068 175.163 246.648 172.808 258.678C172.717 259.145 172.364 259.515 171.901 259.622C170.355 259.981 166.465 260.493 160.3 258.767C159.752 258.613 159.388 258.092 159.427 257.525L160.063 249.727C160.099 249.203 159.704 248.749 159.18 248.713L158.535 248.615C157.99 248.578 157.525 249.008 157.52 249.555L156.302 257.464C156.298 257.976 155.971 258.429 155.486 258.593C153.676 259.206 148.966 260.351 142.754 258.458C142.253 258.306 141.905 257.844 141.902 257.32C141.839 247.721 143.564 236.239 146.051 223.953Z" fill="#140160"/>
<path fill-rule="evenodd" clip-rule="evenodd" d="M155.079 225.641C155.079 225.641 152.035 234.105 144.689 234.691L146.313 225.04C146.313 225.04 152.002 224.997 155.079 225.641Z" fill="#140260"/>
<path fill-rule="evenodd" clip-rule="evenodd" d="M134.762 179.413C134.762 179.413 145.646 186.409 158.863 185.632C169.885 184.984 176.582 182.173 180.306 179.003C181.638 177.869 183.53 177.683 185.002 178.63C186.611 179.665 188.754 181.276 191.005 183.627C191.57 184.218 191.685 185.122 191.255 185.818C188.044 191.004 184.62 194.631 180.991 196.739C179.763 198.094 179.103 199.869 179.152 201.697L179.822 227.174C179.841 227.88 179.351 228.496 178.656 228.627C173.825 229.544 155.489 232.737 144.091 230.725V203.246C144.091 201.203 142.962 199.345 141.175 198.354C138.782 197.025 135.217 194.422 131.652 189.52L134.762 179.413Z" fill="#FF9362"/>
<path fill-rule="evenodd" clip-rule="evenodd" d="M153.641 173.537L152.447 186.655C152.447 186.655 159.37 190.7 165.327 187.163L164.269 175.705L153.641 173.537Z" fill="url(#paint26_linear_2_13078)"/>
<path fill-rule="evenodd" clip-rule="evenodd" d="M166.289 149.289C166.289 149.289 187.206 164.931 175.392 176.225C164.242 186.884 153.797 175.269 153.797 175.269C153.797 175.269 145.807 171.308 146.106 165.955C146.404 160.603 162.064 147.926 166.289 149.289Z" fill="url(#paint27_linear_2_13078)"/>
<path fill-rule="evenodd" clip-rule="evenodd" d="M150.946 171.879C151.713 171.512 152.396 170.874 152.902 169.929C153.656 168.52 153.742 166.809 153.311 165.271C153.2 164.877 153.063 164.429 153.277 164.079C153.533 163.657 154.122 163.639 154.613 163.588C156.118 163.43 157.507 162.438 158.145 161.065C158.783 159.694 158.645 157.992 157.797 156.739C159.815 156.217 160.037 154.63 161.467 153.639C162.781 152.728 164.672 153.502 166.118 152.909C167.183 152.471 169.396 150.846 169.094 149.42C168.959 148.783 167.119 147.431 166.524 147.01C163.858 145.124 160.949 145.69 158.59 147.819C151.785 153.966 145.692 159.922 144.393 163.032C143.483 165.213 143.542 168.022 144.981 169.966C146.471 171.976 148.982 172.818 150.946 171.879Z" fill="#14015F"/>
<path fill-rule="evenodd" clip-rule="evenodd" d="M156.195 176.476L151.51 170.818C151.51 170.818 146.191 170.349 148.055 173.671C149.919 176.993 154.723 177.481 156.195 176.476Z" fill="url(#paint28_linear_2_13078)"/>
<defs>
<linearGradient id="paint0_linear_2_13078" x1="153.783" y1="-38.0986" x2="161.666" y2="-6.566" gradientUnits="userSpaceOnUse">
<stop stop-color="#F6C7C4"/>
<stop offset="1" stop-color="#F8CFCD"/>
</linearGradient>
<linearGradient id="paint1_linear_2_13078" x1="153.783" y1="-38.0979" x2="161.666" y2="-6.56552" gradientUnits="userSpaceOnUse">
<stop stop-color="#F6C7C4"/>
<stop offset="1" stop-color="#F8CFCD"/>
</linearGradient>
<linearGradient id="paint2_linear_2_13078" x1="101.617" y1="310.516" x2="103.263" y2="267.184" gradientUnits="userSpaceOnUse">
<stop stop-color="#4F52FF"/>
<stop offset="1" stop-color="#4042E2"/>
</linearGradient>
<linearGradient id="paint3_linear_2_13078" x1="131.524" y1="311.651" x2="133.169" y2="268.318" gradientUnits="userSpaceOnUse">
<stop stop-color="#4F52FF"/>
<stop offset="1" stop-color="#4042E2"/>
</linearGradient>
<linearGradient id="paint4_linear_2_13078" x1="129.12" y1="-44.784" x2="116.618" y2="-5.57224" gradientUnits="userSpaceOnUse">
<stop stop-color="#4F52FF"/>
<stop offset="1" stop-color="#4042E2"/>
</linearGradient>
<linearGradient id="paint5_linear_2_13078" x1="175.635" y1="-29.9531" x2="163.133" y2="9.25849" gradientUnits="userSpaceOnUse">
<stop stop-color="#4F52FF"/>
<stop offset="1" stop-color="#4042E2"/>
</linearGradient>
<linearGradient id="paint6_linear_2_13078" x1="105.783" y1="79.4495" x2="108.859" y2="53.1285" gradientUnits="userSpaceOnUse">
<stop stop-color="#FEBBBA"/>
<stop offset="1" stop-color="#FF928E"/>
</linearGradient>
<linearGradient id="paint7_linear_2_13078" x1="112.068" y1="222.678" x2="114.48" y2="222.678" gradientUnits="userSpaceOnUse">
<stop stop-color="#4F52FF"/>
<stop offset="1" stop-color="#4042E2"/>
</linearGradient>
<linearGradient id="paint8_linear_2_13078" x1="192.128" y1="-24.6938" x2="179.625" y2="14.5179" gradientUnits="userSpaceOnUse">
<stop stop-color="#4F52FF"/>
<stop offset="1" stop-color="#4042E2"/>
</linearGradient>
<linearGradient id="paint9_linear_2_13078" x1="133.854" y1="-43.2744" x2="121.352" y2="-4.06263" gradientUnits="userSpaceOnUse">
<stop stop-color="#4F52FF"/>
<stop offset="1" stop-color="#4042E2"/>
</linearGradient>
<linearGradient id="paint10_linear_2_13078" x1="109.42" y1="137.851" x2="119.304" y2="137.851" gradientUnits="userSpaceOnUse">
<stop stop-color="#FEBBBA"/>
<stop offset="1" stop-color="#FF928E"/>
</linearGradient>
<linearGradient id="paint11_linear_2_13078" x1="118.891" y1="132.929" x2="98.8589" y2="142.946" gradientUnits="userSpaceOnUse">
<stop stop-color="#FEBBBA"/>
<stop offset="1" stop-color="#FF928E"/>
</linearGradient>
<linearGradient id="paint12_linear_2_13078" x1="112.342" y1="15.0776" x2="108.312" y2="51.7976" gradientUnits="userSpaceOnUse">
<stop stop-color="#FEBBBA"/>
<stop offset="1" stop-color="#FF928E"/>
</linearGradient>
<linearGradient id="paint13_linear_2_13078" x1="97.6605" y1="46.0414" x2="107.565" y2="36.6872" gradientUnits="userSpaceOnUse">
<stop stop-color="#FEBBBA"/>
<stop offset="1" stop-color="#FF928E"/>
</linearGradient>
<linearGradient id="paint14_linear_2_13078" x1="181.755" y1="100.435" x2="183.658" y2="122.517" gradientUnits="userSpaceOnUse">
<stop stop-color="#FEBBBA"/>
<stop offset="1" stop-color="#FF928E"/>
</linearGradient>
<linearGradient id="paint15_linear_2_13078" x1="236.979" y1="274.126" x2="223.77" y2="274.126" gradientUnits="userSpaceOnUse">
<stop stop-color="#FEBBBA"/>
<stop offset="1" stop-color="#FF928E"/>
</linearGradient>
<linearGradient id="paint16_linear_2_13078" x1="240.281" y1="274.126" x2="253.489" y2="274.126" gradientUnits="userSpaceOnUse">
<stop stop-color="#FEBBBA"/>
<stop offset="1" stop-color="#FF928E"/>
</linearGradient>
<linearGradient id="paint17_linear_2_13078" x1="188.721" y1="251.839" x2="317.389" y2="112.878" gradientUnits="userSpaceOnUse">
<stop stop-color="#4F52FF"/>
<stop offset="1" stop-color="#4042E2"/>
</linearGradient>
<linearGradient id="paint18_linear_2_13078" x1="223.581" y1="102.548" x2="237.807" y2="61.4982" gradientUnits="userSpaceOnUse">
<stop stop-color="#FEBBBA"/>
<stop offset="1" stop-color="#FF928E"/>
</linearGradient>
<linearGradient id="paint19_linear_2_13078" x1="217.864" y1="75.9071" x2="233.254" y2="31.5867" gradientUnits="userSpaceOnUse">
<stop stop-color="#FEBBBA"/>
<stop offset="1" stop-color="#FF928E"/>
</linearGradient>
<linearGradient id="paint20_linear_2_13078" x1="228.058" y1="79.7224" x2="243.486" y2="35.2938" gradientUnits="userSpaceOnUse">
<stop stop-color="#FEBBBA"/>
<stop offset="1" stop-color="#FF928E"/>
</linearGradient>
<linearGradient id="paint21_linear_2_13078" x1="249.344" y1="163.81" x2="260.883" y2="163.81" gradientUnits="userSpaceOnUse">
<stop stop-color="#FEBBBA"/>
<stop offset="1" stop-color="#FF928E"/>
</linearGradient>
<linearGradient id="paint22_linear_2_13078" x1="118.888" y1="150.058" x2="141.745" y2="209.97" gradientUnits="userSpaceOnUse">
<stop stop-color="#FEBBBA"/>
<stop offset="1" stop-color="#FF928E"/>
</linearGradient>
<linearGradient id="paint23_linear_2_13078" x1="186.843" y1="154.658" x2="204.193" y2="200.132" gradientUnits="userSpaceOnUse">
<stop stop-color="#FEBBBA"/>
<stop offset="1" stop-color="#FF928E"/>
</linearGradient>
<linearGradient id="paint24_linear_2_13078" x1="161.731" y1="298.327" x2="169.755" y2="225.335" gradientUnits="userSpaceOnUse">
<stop stop-color="#FEBBBA"/>
<stop offset="1" stop-color="#FF928E"/>
</linearGradient>
<linearGradient id="paint25_linear_2_13078" x1="144.045" y1="298.327" x2="152.069" y2="225.335" gradientUnits="userSpaceOnUse">
<stop stop-color="#FEBBBA"/>
<stop offset="1" stop-color="#FF928E"/>
</linearGradient>
<linearGradient id="paint26_linear_2_13078" x1="152.493" y1="206.566" x2="164.204" y2="162.651" gradientUnits="userSpaceOnUse">
<stop stop-color="#FEBBBA"/>
<stop offset="1" stop-color="#FF928E"/>
</linearGradient>
<linearGradient id="paint27_linear_2_13078" x1="-758.617" y1="510.289" x2="-786.233" y2="520.602" gradientUnits="userSpaceOnUse">
<stop stop-color="#FEBBBA"/>
<stop offset="1" stop-color="#FF928E"/>
</linearGradient>
<linearGradient id="paint28_linear_2_13078" x1="-757.382" y1="513.591" x2="-784.998" y2="523.904" gradientUnits="userSpaceOnUse">
<stop stop-color="#FEBBBA"/>
<stop offset="1" stop-color="#FF928E"/>
</linearGradient>
</defs>
</svg>
