<svg width="399" height="232" viewBox="0 0 399 232" fill="none" xmlns="http://www.w3.org/2000/svg">
<path d="M374.532 231.885L8.00115 232C3.11589 222.383 0.776898 214.398 0.165187 207.471C0.0168934 205.772 -0.028619 204.139 0.0168802 202.559C0.111249 199.344 0.584784 196.357 1.33805 193.526C4.83643 180.371 14.3508 170.599 19.6826 157.058C20.5454 154.872 21.297 152.586 21.8969 150.174C22.6687 147.063 23.1911 143.742 23.3664 140.141V140.139C23.4287 138.839 23.449 137.504 23.4186 136.127C23.4186 136.125 23.4186 136.125 23.4186 136.125C23.3327 132.307 22.8693 128.188 21.9323 123.698C21.811 123.118 21.6829 122.532 21.5447 121.939C21.452 121.53 21.3543 121.118 21.2498 120.703C20.5151 117.716 19.9051 114.774 19.4147 111.886C19.1467 110.295 18.9142 108.724 18.7171 107.165V107.163C18.5806 106.082 18.4609 105.008 18.3581 103.941C8.71734 3.50256 148.386 -33.0378 190.197 36.634C222.506 90.4728 260.468 98.4916 273.634 89.3459C304.548 67.8732 346.683 64.2579 382.822 117.167C423.553 176.801 374.532 231.885 374.532 231.885" fill="#F9F7FF"/>
<path d="M214.809 170.934C214.809 171.808 215.085 172.514 215.428 172.514H220.611C220.956 172.514 221.23 171.808 221.23 170.934V116.492H214.809V170.934Z" fill="#D96A68"/>
<path d="M220.381 168.567C220.381 169.44 220.102 170.144 219.759 170.144H216.204C215.86 170.144 215.582 169.44 215.582 168.567V122.609C215.582 121.735 215.86 121.027 216.204 121.027H219.759C220.102 121.027 220.381 121.735 220.381 122.609V168.567Z" fill="#FFA591"/>
<path d="M220.868 126.555H215.306V119.05H220.868V126.555Z" fill="#D96A68"/>
<path d="M221.852 118.423C221.852 118.881 221.573 119.252 221.231 119.252H214.654C214.311 119.252 214.037 118.881 214.037 118.423V117.178C214.037 116.719 214.311 116.348 214.654 116.348H221.231C221.573 116.348 221.852 116.719 221.852 117.178V118.423Z" fill="#C15656"/>
<path d="M227.046 170.934C227.046 171.808 227.326 172.514 227.662 172.514H232.851C233.191 172.514 233.469 171.808 233.469 170.934V116.492H227.046V170.934Z" fill="#D96A68"/>
<path d="M232.616 168.567C232.616 169.44 232.343 170.144 232 170.144H228.437C228.1 170.144 227.823 169.44 227.823 168.567V122.609C227.823 121.735 228.1 121.027 228.437 121.027H232C232.343 121.027 232.616 121.735 232.616 122.609V168.567Z" fill="#FFA591"/>
<path d="M233.103 126.555H227.542V119.05H233.103V126.555Z" fill="#D96A68"/>
<path d="M234.085 118.423C234.085 118.881 233.808 119.252 233.469 119.252H226.893C226.55 119.252 226.271 118.881 226.271 118.423V117.178C226.271 116.719 226.55 116.348 226.893 116.348H233.469C233.808 116.348 234.085 116.719 234.085 117.178V118.423Z" fill="#C15656"/>
<path d="M240.534 171.096C240.534 171.97 240.813 172.673 241.153 172.673H246.34C246.683 172.673 246.959 171.97 246.959 171.096V116.654H240.534V171.096" fill="#D96A68"/>
<path d="M246.107 168.728C246.107 169.601 245.831 170.305 245.486 170.305H241.933C241.586 170.305 241.308 169.601 241.308 168.728V122.767C241.308 121.896 241.586 121.188 241.933 121.188H245.486C245.831 121.188 246.107 121.896 246.107 122.767V168.728Z" fill="#FFA591"/>
<path d="M246.596 126.719H241.035V119.212H246.596V126.719Z" fill="#D96A68"/>
<path d="M247.577 118.585C247.577 119.043 247.299 119.417 246.959 119.417H240.381C240.039 119.417 239.762 119.043 239.762 118.585V117.34C239.762 116.881 240.039 116.511 240.381 116.511H246.959C247.299 116.511 247.577 116.881 247.577 117.34V118.585Z" fill="#C15656"/>
<path d="M252.773 171.096C252.773 171.97 253.052 172.673 253.393 172.673H258.574C258.917 172.673 259.195 171.97 259.195 171.096V116.654H252.773V171.096Z" fill="#D96A68"/>
<path d="M258.342 168.728C258.342 169.601 258.065 170.305 257.725 170.305H254.165C253.822 170.305 253.545 169.601 253.545 168.728V122.767C253.545 121.896 253.822 121.188 254.165 121.188H257.725C258.065 121.188 258.342 121.896 258.342 122.767V168.728Z" fill="#FFA591"/>
<path d="M258.832 126.719H253.269V119.212H258.832V126.719Z" fill="#D96A68"/>
<path d="M259.817 118.585C259.817 119.043 259.537 119.417 259.195 119.417H252.619C252.276 119.417 252 119.043 252 118.585V117.34C252 116.881 252.276 116.511 252.619 116.511H259.195C259.537 116.511 259.817 116.881 259.817 117.34V118.585Z" fill="#C15656"/>
<path d="M264.774 171.391C264.774 172.264 265.055 172.968 265.395 172.968H270.578C270.918 172.968 271.193 172.264 271.193 171.391V116.95H264.774V171.391Z" fill="#D96A68"/>
<path d="M270.347 169.026C270.347 169.896 270.068 170.603 269.727 170.603H266.17C265.827 170.603 265.548 169.896 265.548 169.026V123.065C265.548 122.194 265.827 121.486 266.17 121.486H269.727C270.068 121.486 270.347 122.194 270.347 123.065V169.026Z" fill="#FFA591"/>
<path d="M270.835 127.012H265.27V119.508H270.835V127.012Z" fill="#D96A68"/>
<path d="M271.817 118.878C271.817 119.338 271.539 119.708 271.194 119.708H264.62C264.28 119.708 264.002 119.338 264.002 118.878V117.632C264.002 117.175 264.28 116.803 264.62 116.803H271.194C271.539 116.803 271.817 117.175 271.817 117.632V118.878Z" fill="#C15656"/>
<path d="M277.01 171.391C277.01 172.264 277.289 172.968 277.629 172.968H282.814C283.158 172.968 283.433 172.264 283.433 171.391V116.95H277.01V171.391" fill="#D96A68"/>
<path d="M282.584 169.026C282.584 169.896 282.306 170.603 281.961 170.603H278.406C278.061 170.603 277.785 169.896 277.785 169.026V123.065C277.785 122.194 278.061 121.486 278.406 121.486H281.961C282.306 121.486 282.584 122.194 282.584 123.065V169.026Z" fill="#FFA591"/>
<path d="M283.074 127.012H277.51V119.508H283.074V127.012Z" fill="#D96A68"/>
<path d="M284.051 118.878C284.051 119.338 283.776 119.708 283.433 119.708H276.857C276.517 119.708 276.238 119.338 276.238 118.878V117.632C276.238 117.175 276.517 116.803 276.857 116.803H283.433C283.776 116.803 284.051 117.175 284.051 117.632V118.878Z" fill="#C15656"/>
<path d="M290.502 171.552C290.502 172.427 290.777 173.129 291.117 173.129H296.304C296.645 173.129 296.921 172.427 296.921 171.552V117.111H290.502V171.552Z" fill="#D96A68"/>
<path d="M296.072 169.184C296.072 170.056 295.793 170.766 295.452 170.766H291.895C291.552 170.766 291.274 170.056 291.274 169.184V123.225C291.274 122.354 291.552 121.646 291.895 121.646H295.452C295.793 121.646 296.072 122.354 296.072 123.225V169.184Z" fill="#FFA591"/>
<path d="M296.563 127.173H290.998V119.67H296.563V127.173Z" fill="#D96A68"/>
<path d="M297.542 119.042C297.542 119.501 297.264 119.871 296.922 119.871H290.345C290.008 119.871 289.73 119.501 289.73 119.042V117.798C289.73 117.338 290.008 116.967 290.345 116.967H296.922C297.264 116.967 297.542 117.338 297.542 117.798V119.042Z" fill="#C15656"/>
<path d="M302.738 171.552C302.738 172.427 303.015 173.129 303.357 173.129H308.541C308.883 173.129 309.157 172.427 309.157 171.552V117.111H302.738V171.552" fill="#D96A68"/>
<path d="M308.31 169.184C308.31 170.056 308.032 170.766 307.691 170.766H304.133C303.789 170.766 303.514 170.056 303.514 169.184V123.225C303.514 122.354 303.789 121.646 304.133 121.646H307.691C308.032 121.646 308.31 122.354 308.31 123.225V169.184Z" fill="#FFA591"/>
<path d="M308.797 127.173H303.237V119.67H308.797V127.173Z" fill="#D96A68"/>
<path d="M309.777 119.042C309.777 119.501 309.502 119.871 309.157 119.871H302.582C302.242 119.871 301.963 119.501 301.963 119.042V117.798C301.963 117.338 302.242 116.967 302.582 116.967H309.157C309.502 116.967 309.777 117.338 309.777 117.798V119.042Z" fill="#C15656"/>
<path d="M316.505 171.239C316.505 172.11 316.783 172.817 317.124 172.817H322.309C322.651 172.817 322.926 172.11 322.926 171.239V116.796H316.505V171.239" fill="#D96A68"/>
<path d="M322.077 168.871C322.077 169.742 321.802 170.45 321.459 170.45H317.902C317.557 170.45 317.279 169.742 317.279 168.871V122.912C317.279 122.04 317.557 121.333 317.902 121.333H321.459C321.802 121.333 322.077 122.04 322.077 122.912V168.871Z" fill="#FFA591"/>
<path d="M322.563 126.857H317.005V119.357H322.563V126.857Z" fill="#D96A68"/>
<path d="M323.547 118.729C323.547 119.185 323.271 119.559 322.926 119.559H316.353C316.008 119.559 315.73 119.185 315.73 118.729V117.481C315.73 117.022 316.008 116.652 316.353 116.652H322.926C323.271 116.652 323.547 117.022 323.547 117.481V118.729Z" fill="#C15656"/>
<path d="M328.741 171.239C328.741 172.11 329.018 172.817 329.361 172.817H334.546C334.888 172.817 335.163 172.11 335.163 171.239V116.796H328.741V171.239" fill="#D96A68"/>
<path d="M334.314 168.871C334.314 169.742 334.036 170.45 333.692 170.45H330.136C329.794 170.45 329.515 169.742 329.515 168.871V122.912C329.515 122.04 329.794 121.333 330.136 121.333H333.692C334.036 121.333 334.314 122.04 334.314 122.912V168.871Z" fill="#FFA591"/>
<path d="M334.8 126.857H329.24V119.357H334.8V126.857Z" fill="#D96A68"/>
<path d="M335.782 118.729C335.782 119.185 335.506 119.559 335.163 119.559H328.588C328.245 119.559 327.969 119.185 327.969 118.729V117.481C327.969 117.022 328.245 116.652 328.588 116.652H335.163C335.506 116.652 335.782 117.022 335.782 117.481V118.729Z" fill="#C15656"/>
<path d="M342.235 171.402C342.235 172.274 342.51 172.98 342.85 172.98H348.039C348.379 172.98 348.652 172.274 348.652 171.402V116.959H342.235V171.402Z" fill="#D96A68"/>
<path d="M347.802 169.034C347.802 169.903 347.527 170.611 347.182 170.611H343.627C343.282 170.611 343.007 169.903 343.007 169.034V123.073C343.007 122.201 343.282 121.494 343.627 121.494H347.182C347.527 121.494 347.802 122.201 347.802 123.073V169.034Z" fill="#FFA591"/>
<path d="M348.291 127.018H342.733V119.515H348.291V127.018Z" fill="#D96A68"/>
<path d="M349.275 118.89C349.275 119.346 348.995 119.72 348.652 119.72H342.077C341.737 119.72 341.459 119.346 341.459 118.89V117.644C341.459 117.186 341.737 116.813 342.077 116.813H348.652C348.995 116.813 349.275 117.186 349.275 117.644V118.89Z" fill="#C15656"/>
<path d="M354.468 171.402C354.468 172.274 354.747 172.98 355.087 172.98H360.272C360.613 172.98 360.891 172.274 360.891 171.402V116.959H354.468V171.402" fill="#D96A68"/>
<path d="M360.039 169.034C360.039 169.903 359.764 170.611 359.42 170.611H355.864C355.519 170.611 355.243 169.903 355.243 169.034V123.073C355.243 122.201 355.519 121.494 355.864 121.494H359.42C359.764 121.494 360.039 122.201 360.039 123.073V169.034Z" fill="#FFA591"/>
<path d="M360.528 127.018H354.968V119.515H360.528V127.018Z" fill="#D96A68"/>
<path d="M361.511 118.89C361.511 119.346 361.234 119.72 360.892 119.72H354.315C353.973 119.72 353.695 119.346 353.695 118.89V117.644C353.695 117.186 353.973 116.813 354.315 116.813H360.892C361.234 116.813 361.511 117.186 361.511 117.644V118.89Z" fill="#C15656"/>
<path d="M204.147 174.587C204.147 182.461 210.53 188.848 218.409 188.848H361.013C368.888 188.848 375.273 182.461 375.273 174.587V134.656H204.147V174.587Z" fill="#9E86FF"/>
<path d="M332.493 174.587V134.656H204.147V174.587C204.147 182.461 210.53 188.848 218.409 188.848H318.231C326.106 188.848 332.493 182.461 332.493 174.587Z" fill="#AF9FF1"/>
<path d="M379.672 136.262C379.672 139.511 377.038 142.146 373.791 142.146H204.805C201.555 142.146 198.922 139.511 198.922 136.262C198.922 133.015 201.555 130.382 204.805 130.382H373.791C377.038 130.382 379.672 133.015 379.672 136.262Z" fill="#6145CD"/>
<path d="M362.915 188.849L361.283 188.845C362.172 188.829 363.042 188.73 363.885 188.558C363.57 188.66 363.247 188.757 362.915 188.849ZM206.136 181.856C204.501 179.496 203.444 176.412 203.909 172.45V164.962L204.147 164.78V174.587C204.147 177.241 204.873 179.727 206.136 181.856V181.856ZM375.256 175.304C375.268 175.066 375.274 174.827 375.274 174.587C375.274 174.587 375.286 174.849 375.256 175.304Z" fill="white"/>
<path d="M361.282 188.845L319.95 188.745C327.015 187.896 332.493 181.88 332.493 174.588V164.789C336.567 162.034 340.455 159.616 340.455 159.616L350.083 153.197L361.135 164.606L375.273 174.588C375.273 174.827 375.268 175.066 375.256 175.304C375.103 177.683 373.825 185.349 363.884 188.558C363.042 188.73 362.172 188.829 361.282 188.845" fill="#AB96FF"/>
<path d="M319.95 188.744L215.318 188.491C215.318 188.491 209.503 186.713 206.136 181.855C204.873 179.726 204.147 177.24 204.147 174.587V164.78L209.973 160.326L225.661 167.101L239.207 164.961L255.249 170.308L273.073 164.961L288.05 165.676L303.735 170.667C303.735 170.667 314.407 172.923 320.024 172.923C321.811 172.923 323.086 172.696 323.343 172.094C323.886 170.825 328.29 167.628 332.493 164.788V174.587C332.493 181.88 327.015 187.895 319.95 188.744" fill="#C4B8F4"/>
<path d="M60.1671 192.899C61.7414 193.925 63.3223 194.942 64.9045 195.955C65.003 195.812 65.1056 195.673 65.2038 195.529C63.4804 194.745 61.8047 193.856 60.1671 192.899" fill="#F06E94"/>
<path d="M80.243 133.734C81.2019 135.026 80.6737 137.915 80.2562 139.368C79.4315 142.241 78.2438 144.995 77.4215 147.872C76.5785 150.827 75.8982 153.822 75.2368 156.82C74.5109 160.112 73.8242 163.423 72.7618 166.627C71.6593 169.949 70.0481 173.05 68.4199 176.138C68.4178 176.143 68.4155 176.146 68.4131 176.151C68.1723 176.608 68.865 177.015 69.1064 176.557C70.5906 173.741 72.0748 170.913 73.1627 167.915C74.2642 164.88 74.9794 161.723 75.6727 158.573C76.3732 155.39 77.0654 152.202 77.9248 149.056C78.7791 145.928 80.0185 142.948 80.9508 139.851C81.5501 137.861 82.4706 134.338 80.4645 132.783C80.2642 132.628 80.0516 132.517 79.8333 132.431C79.8558 132.458 79.8803 132.485 79.9019 132.513C80.2072 132.907 80.2829 133.319 80.243 133.734" fill="#EB9A75"/>
<path d="M94.3261 96.7055C94.8698 96.8609 95.3045 97.2179 95.4968 97.8942C95.5429 98.0569 95.5698 98.2244 95.5831 98.3969C95.5879 98.4551 95.5825 98.5171 95.5837 98.5766C95.5858 98.6919 95.5888 98.8061 95.579 98.9226C95.573 98.9955 95.5591 99.0695 95.549 99.1424C95.5342 99.2492 95.5207 99.3549 95.498 99.463C95.4814 99.5407 95.4592 99.6196 95.4388 99.6973C95.4124 99.7993 95.3868 99.9013 95.3542 100.003C95.3364 100.059 95.3175 100.115 95.298 100.171C95.3224 100.136 95.3473 100.1 95.3719 100.065C95.6896 99.6087 96.1368 99.129 96.2841 98.5827C96.4355 98.0229 96.1203 97.5651 95.7755 97.1584C95.4328 96.754 95.0791 96.3509 94.6342 96.0559C94.1149 95.7122 93.6405 95.6321 93.0571 95.864C92.0736 96.2538 91.1749 96.8099 90.3648 97.4814C90.5347 97.4 90.705 97.3199 90.8794 97.247C91.7882 96.8743 93.2653 96.4043 94.3261 96.7055" fill="#F9ACC6"/>
<path d="M112.9 112.537C113.507 113.364 113.135 114.538 112.615 115.422C112.544 115.544 112.468 115.662 112.393 115.779C112.6 115.558 112.806 115.336 113.013 115.115C113.391 114.71 113.901 114.297 114.124 113.777C114.353 113.244 114.105 112.746 113.821 112.295C113.539 111.847 113.245 111.397 112.847 111.043C112.381 110.629 111.922 110.484 111.312 110.63C110.335 110.865 109.411 111.256 108.551 111.768C108.942 111.678 109.337 111.601 109.736 111.566C110.818 111.468 112.2 111.584 112.9 112.537" fill="#F9ACC6"/>
<path d="M119.111 126.606C119.89 127.252 119.809 128.336 119.613 129.231C119.579 129.389 119.528 129.542 119.471 129.692C119.454 129.736 119.435 129.778 119.417 129.821C119.395 129.873 119.377 129.925 119.352 129.976C119.357 129.96 119.359 129.943 119.364 129.929C119.296 130.073 119.221 130.217 119.133 130.355C119.288 130.19 119.442 130.025 119.597 129.858C119.975 129.453 120.486 129.04 120.708 128.52C120.937 127.987 120.689 127.49 120.405 127.038C120.123 126.591 119.829 126.141 119.431 125.786C118.965 125.372 118.506 125.227 117.896 125.373C117.239 125.532 116.606 125.763 116 126.049C117.116 125.862 118.268 125.906 119.111 126.606Z" fill="#F9ACC6"/>
<path d="M112.059 143.891C112.109 144.005 112.147 144.118 112.173 144.23C112.187 144.287 112.19 144.343 112.198 144.4C112.205 144.453 112.218 144.508 112.22 144.561C112.224 144.637 112.217 144.711 112.211 144.786C112.208 144.819 112.211 144.852 112.206 144.884C112.195 144.971 112.173 145.054 112.149 145.139C112.144 145.159 112.142 145.178 112.136 145.198C112.107 145.291 112.069 145.382 112.027 145.472C112.022 145.482 112.019 145.493 112.015 145.502C111.968 145.6 111.913 145.696 111.852 145.789C111.851 145.791 111.85 145.794 111.848 145.796C111.827 145.829 111.802 145.862 111.779 145.895C112.102 145.657 112.46 145.41 112.666 145.079C112.92 144.671 112.779 144.231 112.602 143.826C112.426 143.423 112.241 143.017 111.958 142.677C111.628 142.279 111.27 142.103 110.751 142.146C109.999 142.211 109.268 142.388 108.566 142.651C108.745 142.63 108.923 142.608 109.102 142.594C110.242 142.509 111.535 142.692 112.059 143.891" fill="#F9ACC6"/>
<path d="M77.7655 131.21C78.583 131.257 79.3333 131.785 79.8431 132.41C80.0615 132.496 80.2741 132.606 80.4743 132.762C82.4804 134.316 81.5599 137.84 80.9606 139.83C80.0283 142.926 78.789 145.907 77.9347 149.035C77.0752 152.181 76.383 155.368 75.6825 158.552C74.9892 161.701 74.274 164.858 73.1725 167.894C72.0846 170.892 70.6005 173.72 69.1162 176.535C68.8748 176.993 68.1821 176.586 68.4229 176.13C68.4253 176.125 68.4276 176.121 68.4297 176.116L55.284 167.758C55.2654 167.781 55.2492 167.804 55.2302 167.827C54.8978 168.224 54.3328 167.653 54.6622 167.259C58.9837 162.097 61.2554 155.663 64.4741 149.832C66.1034 146.881 67.8909 144.015 69.6267 141.125C70.5244 139.631 71.397 138.07 72.4357 136.646C72.5236 136.509 72.6135 136.373 72.7016 136.237C73.0407 135.72 73.379 135.201 73.7175 134.683C74.6024 133.33 75.8636 131.101 77.7655 131.21ZM93.9603 100.037C93.1962 98.6533 91.642 98.663 90.318 99.1584C88.3571 99.8918 86.6125 101.318 85.0898 102.716C83.1015 104.541 81.3416 106.606 79.5023 108.577C77.5881 110.629 75.4359 112.431 73.3239 114.272C71.2973 116.038 69.3292 117.873 67.5047 119.85C63.9706 123.678 60.9022 127.994 58.7063 132.729C56.3364 137.84 55.3427 143.45 53.4832 148.748C51.5092 154.372 48.5585 159.598 46.2615 165.091C45.2623 167.478 44.2086 169.937 44.0075 172.545C43.8347 174.783 44.2625 177.023 45.1451 179.081C46.0532 181.195 47.4126 183.097 48.9938 184.76C50.141 185.967 51.4175 187.008 52.7435 187.991C53.1804 188.284 53.6144 188.581 54.0518 188.873C56.0723 190.219 58.1003 191.555 60.1342 192.881C61.7718 193.838 63.4475 194.727 65.171 195.511C65.0727 195.654 64.9701 195.794 64.8717 195.937C64.8735 195.938 64.8748 195.94 64.8767 195.941C68.4841 190.704 71.9196 185.358 75.0496 179.821C77.7626 175.022 80.2601 170.066 83.6322 165.706C89.9602 157.524 99.0799 151.862 108.692 148.041C109.823 147.592 111.116 146.832 111.779 145.895C111.802 145.862 111.826 145.829 111.848 145.796C111.723 145.989 111.57 146.175 111.396 146.352C111.779 145.697 111.992 144.916 111.741 144.175C111.367 143.072 110.113 142.798 109.082 142.756C108.572 142.735 108.06 142.758 107.55 142.811C107.13 142.889 106.711 142.981 106.295 143.076C99.4212 144.64 92.6902 146.768 85.9807 148.931C85.8086 148.986 85.6127 149.041 85.4549 148.952C85.2566 148.84 85.2294 148.548 85.3377 148.349C85.4459 148.148 85.6482 148.02 85.8422 147.901C91.3308 144.547 97.2649 142.031 103.112 139.385C106.173 138 109.374 136.5 112.4 134.891C114.299 133.882 117.791 132.492 119.133 130.354C119.221 130.216 119.296 130.072 119.364 129.928C119.425 129.746 119.476 129.561 119.509 129.373C119.646 128.601 119.503 127.786 118.954 127.198C118.409 126.614 117.577 126.347 116.793 126.347C116.295 126.347 115.788 126.445 115.299 126.532C114.763 126.625 114.231 126.739 113.701 126.864C113.038 127.021 112.382 127.199 111.726 127.382C106.154 129.338 100.602 131.466 95.2282 133.889C91.771 135.446 88.3394 137.152 84.6438 138.001C84.3006 138.08 83.8446 138.099 83.7001 137.779C83.6376 137.639 83.6611 137.477 83.7079 137.331C84.2065 135.769 86.6154 134.458 87.8607 133.55C90.7499 131.441 93.89 129.73 96.8697 127.758C99.9282 125.734 102.985 123.705 105.996 121.609C108.36 119.964 110.781 118.236 112.343 115.834C112.427 115.577 112.496 115.316 112.531 115.046C112.621 114.354 112.472 113.666 112.035 113.113C111.569 112.524 110.882 112.149 110.145 112.027C108.634 111.775 107.084 112.336 105.692 112.869C104.441 113.349 103.166 113.761 101.899 114.195C102.618 113.89 103.341 113.597 104.067 113.31C95.5215 116.669 87.549 121.387 79.8756 126.45C79.1486 126.93 78.4132 127.418 77.5892 127.701C77.2827 127.807 76.9225 127.876 76.6504 127.7C76.2369 127.433 76.3014 126.813 76.451 126.343C77.0432 124.486 78.176 122.854 79.3462 121.293C84.2261 114.789 89.94 108.892 94.3639 102.056C94.4105 101.984 94.4579 101.901 94.5052 101.824C94.4413 101.208 94.2742 100.606 93.9603 100.037Z" fill="#EEB59C"/>
<path d="M52.7436 187.991C51.4176 187.008 50.1411 185.967 48.9939 184.76C47.4127 183.097 46.0533 181.195 45.1452 179.082C44.2626 177.023 43.8348 174.783 44.0076 172.545C44.2087 169.937 45.2624 167.479 46.2615 165.091C48.5586 159.598 51.5092 154.372 53.4833 148.748C55.3427 143.45 56.3365 137.84 58.7063 132.729C60.9023 127.994 63.9707 123.678 67.5048 119.85C69.3292 117.873 71.2974 116.038 73.324 114.272C75.436 112.431 77.5882 110.629 79.5024 108.577C81.3417 106.606 83.1016 104.541 85.0898 102.716C86.6126 101.319 88.3572 99.8918 90.3181 99.1585C91.6421 98.6631 93.1963 98.6533 93.9604 100.038C94.2743 100.606 94.4413 101.208 94.5053 101.824C94.5053 101.826 94.5059 101.827 94.5059 101.829C94.5255 101.797 94.5447 101.761 94.5642 101.728C94.605 101.659 94.6458 101.587 94.6864 101.515C94.731 101.435 94.7745 101.354 94.818 101.27C94.8576 101.195 94.8965 101.118 94.9348 101.039C94.9776 100.951 95.0182 100.862 95.0588 100.771C95.0938 100.692 95.1288 100.613 95.1617 100.532C95.2007 100.436 95.2355 100.34 95.2705 100.243C95.2992 100.163 95.3288 100.082 95.3543 100.002C95.3868 99.9003 95.4125 99.7983 95.4388 99.6964C95.4592 99.6186 95.4814 99.5397 95.4981 99.462C95.5208 99.354 95.5342 99.2483 95.5491 99.1415C95.5591 99.0686 95.5731 98.9945 95.579 98.9217C95.5889 98.8051 95.5858 98.691 95.5838 98.5756C95.5826 98.5161 95.5879 98.4542 95.5832 98.3959C95.5698 98.2235 95.543 98.056 95.4968 97.8933C95.3045 97.2169 94.8698 96.86 94.3261 96.7045C93.2654 96.4034 91.7883 96.8733 90.8794 97.2461C90.7051 97.3189 90.5347 97.3991 90.3649 97.4804C90.1164 97.6006 89.8713 97.7269 89.6326 97.8653C88.4269 98.5647 87.3378 99.4778 86.2954 100.386C82.6697 103.545 79.0546 106.716 75.4502 109.897C70.1894 114.541 64.8889 119.279 61.0095 125.127C55.4338 133.529 53.1657 143.627 49.3974 152.981C46.0142 161.38 41.4152 169.181 36.7283 176.947C38.5631 178.249 40.3998 179.548 42.247 180.834C45.7234 183.252 49.2247 185.635 52.7436 187.991" fill="#EB9A75"/>
<path d="M105.692 112.87C107.084 112.337 108.634 111.776 110.145 112.027C110.883 112.15 111.569 112.525 112.035 113.114C112.473 113.666 112.621 114.355 112.531 115.047C112.497 115.317 112.427 115.578 112.343 115.835C112.339 115.85 112.335 115.864 112.331 115.879C112.352 115.846 112.372 115.812 112.393 115.779C112.468 115.661 112.544 115.544 112.615 115.422C113.135 114.538 113.507 113.364 112.9 112.537C112.2 111.584 110.818 111.467 109.737 111.566C108.68 111.661 107.656 111.982 106.66 112.336C105.903 112.604 105.15 112.887 104.402 113.178C104.29 113.222 104.179 113.267 104.067 113.311C103.341 113.597 102.618 113.891 101.899 114.196C103.167 113.761 104.441 113.35 105.692 112.87" fill="#EB9A75"/>
<path d="M115.299 126.532C115.788 126.446 116.295 126.348 116.793 126.348C117.577 126.348 118.409 126.615 118.954 127.199C119.503 127.786 119.647 128.601 119.509 129.373C119.476 129.562 119.425 129.746 119.364 129.928C119.359 129.943 119.357 129.96 119.352 129.976C119.377 129.925 119.395 129.872 119.417 129.82C119.435 129.778 119.454 129.735 119.471 129.691C119.528 129.541 119.579 129.388 119.613 129.23C119.809 128.335 119.89 127.251 119.111 126.605C117.801 125.519 115.746 126.008 114.237 126.504C114.136 126.537 114.038 126.57 113.943 126.602C113.161 126.871 112.38 127.142 111.599 127.416C111.641 127.404 111.684 127.394 111.726 127.382C112.382 127.2 113.039 127.021 113.701 126.865C114.231 126.74 114.763 126.626 115.299 126.532" fill="#EB9A75"/>
<path d="M109.082 142.757C110.113 142.799 111.367 143.072 111.741 144.176C111.992 144.917 111.779 145.698 111.396 146.353C111.57 146.176 111.723 145.99 111.848 145.797C111.85 145.795 111.851 145.792 111.852 145.79C111.913 145.696 111.968 145.6 112.015 145.503C112.019 145.494 112.022 145.483 112.027 145.473C112.069 145.383 112.107 145.292 112.136 145.198C112.142 145.179 112.144 145.16 112.149 145.14C112.173 145.055 112.194 144.971 112.206 144.885C112.21 144.852 112.208 144.82 112.211 144.787C112.217 144.712 112.224 144.638 112.22 144.562C112.218 144.509 112.205 144.454 112.198 144.401C112.189 144.344 112.187 144.288 112.173 144.231C112.147 144.119 112.109 144.006 112.059 143.892C111.535 142.692 110.242 142.51 109.102 142.595C108.845 142.615 108.59 142.644 108.335 142.68C108.302 142.685 108.269 142.691 108.236 142.696C108.007 142.73 107.779 142.768 107.553 142.81C107.551 142.811 107.55 142.811 107.549 142.811C107.549 142.811 107.55 142.811 107.55 142.811C108.06 142.759 108.572 142.736 109.082 142.757" fill="#EB9A75"/>
<path d="M66.0152 196.675C65.6345 196.432 65.2568 196.185 64.8767 195.942C64.8749 195.941 64.8736 195.939 64.8718 195.938C63.2895 194.924 61.7086 193.908 60.1343 192.882C58.1003 191.556 56.0724 190.221 54.0519 188.874C53.6144 188.583 53.1805 188.285 52.7436 187.992C49.2247 185.636 45.7234 183.253 42.247 180.835C40.3998 179.549 38.5631 178.25 36.7283 176.948C36.3651 176.689 35.9979 176.436 35.6351 176.177C35.2576 175.909 34.7721 176.141 34.5365 176.466C33.7621 177.532 32.9987 178.608 32.2415 179.688C34.2319 181.099 36.2232 182.509 38.2255 183.903C42.7837 187.074 47.3736 190.201 51.9943 193.28C55.9824 195.938 59.9972 198.554 64.0302 201.142C64.7904 200.022 65.5521 198.901 66.3033 197.774C66.5505 197.404 66.3643 196.899 66.0152 196.675Z" fill="#645FB5"/>
<path d="M13.008 206.204L13.1601 206.321C17.3325 209.607 21.59 212.783 25.9363 215.836C30.3152 218.911 34.7808 221.862 39.3254 224.686C41.8987 226.285 44.4979 227.843 47.1205 229.36C47.5949 229.634 48.0984 229.431 48.4019 229.023C49.1865 227.971 49.9621 226.909 50.7399 225.851C54.7362 220.411 58.6454 214.907 62.4539 209.335C63.7417 207.451 65.0185 205.559 66.2844 203.66C66.5731 203.227 66.3554 202.639 65.949 202.379C65.3074 201.97 64.6706 201.552 64.0302 201.141C59.9972 198.553 55.9824 195.937 51.9943 193.279C47.3737 190.2 42.7837 187.074 38.2255 183.902C36.2232 182.508 34.2319 181.098 32.2415 179.688C31.6667 179.28 31.0871 178.879 30.5132 178.47C30.0731 178.156 29.507 178.427 29.232 178.806C25.6417 183.753 22.199 188.816 19.0128 194.036C17.9944 195.703 17.0009 197.386 16.0386 199.087C14.9277 201.052 13.8594 203.041 12.8448 205.056L12.8105 205.142L12.7886 205.196L12.7684 205.263C12.6703 205.59 12.7188 205.975 12.9915 206.19L13.008 206.204Z" fill="#6D6CBD"/>
<path d="M75.2466 156.799C75.908 153.801 76.5883 150.806 77.4313 147.852C78.2536 144.974 79.4413 142.22 80.266 139.347C80.6835 137.894 81.2117 135.005 80.2528 133.713C80.2078 134.178 80.0165 134.647 79.8153 135.104C79.3798 136.09 78.9451 137.077 78.5097 138.063C78.1648 138.846 77.8507 139.725 77.1929 140.308C76.4896 140.931 75.6898 140.875 74.8497 140.572C73.9286 140.241 73.066 139.778 72.2816 139.193C72.1485 139.094 72.087 138.96 72.0752 138.825C72.0572 138.789 72.0466 138.747 72.0311 138.71C70.5261 141.07 69.1315 143.508 67.6911 145.908C66.169 148.444 64.7053 151.002 63.3915 153.653C60.979 158.52 58.787 163.549 55.284 167.759L68.4297 176.117C70.0579 173.03 71.6691 169.928 72.7716 166.606C73.834 163.402 74.5208 160.091 75.2466 156.799Z" fill="#EEAD90"/>
<path d="M67.6911 145.907C69.1316 143.508 70.5262 141.07 72.0312 138.709C71.8996 138.379 71.8685 137.997 71.9676 137.623C72.0605 137.27 72.2407 136.954 72.4358 136.646C71.397 138.071 70.5245 139.631 69.6267 141.126C67.891 144.015 66.1034 146.881 64.4742 149.833C61.2554 155.663 58.9838 162.097 54.6623 167.259C54.3329 167.654 54.8978 168.224 55.2303 167.827C55.2492 167.804 55.2655 167.781 55.2841 167.758C58.7871 163.548 60.9791 158.519 63.3916 153.653C64.7054 151.002 66.1691 148.444 67.6911 145.907" fill="#EB9A75"/>
<path d="M73.7174 134.683C73.379 135.202 73.0406 135.72 72.7016 136.238C72.6135 136.374 72.5236 136.51 72.4357 136.647C72.2406 136.954 72.0604 137.271 71.9675 137.623C71.8684 137.997 71.8995 138.379 72.0311 138.71C72.0465 138.747 72.0572 138.789 72.0752 138.825C72.087 138.96 72.1485 139.093 72.2816 139.193C73.066 139.778 73.9286 140.241 74.8497 140.572C75.6898 140.875 76.4896 140.93 77.1929 140.308C77.8507 139.725 78.1648 138.846 78.5097 138.063C78.9451 137.077 79.3798 136.089 79.8153 135.103C80.0165 134.647 80.2077 134.178 80.2528 133.713C80.2927 133.298 80.217 132.886 79.9117 132.492C79.8901 132.464 79.8656 132.437 79.8431 132.41C79.3333 131.786 78.583 131.258 77.7655 131.211C75.8635 131.101 74.6023 133.331 73.7174 134.683" fill="#F9ACC6"/>
<path d="M163.671 90.8904L163.681 90.8941C165.765 91.874 167.83 92.9048 169.869 93.9758C170.149 94.1227 170.35 93.6746 170.072 93.5277C168.105 92.4932 166.114 91.4988 164.104 90.5505L163.977 90.4922H163.976C162.556 89.8159 161.121 89.1663 159.679 88.5373C159.629 88.6332 159.574 88.7304 159.523 88.8263L159.447 88.972C160.865 89.59 162.273 90.2275 163.671 90.8904" fill="#4A32AB"/>
<path d="M141.072 139.352C139.49 141.345 138.498 143.896 137.743 146.223C137.343 147.458 136.996 148.708 136.683 149.964C136.31 149.858 135.939 149.748 135.57 149.628C135.939 149.748 136.31 149.858 136.683 149.966C137.171 150.105 137.661 150.239 138.155 150.364C139.204 146.715 140.175 143.043 141.072 139.352" fill="#8E7FCB"/>
<path d="M185.098 60.1909C185.169 60.0749 185.239 59.959 185.31 59.8431C185.147 59.9764 184.98 60.1048 184.81 60.232C184.902 60.227 184.991 60.2145 185.062 60.2008L185.098 60.1909" fill="#A393E1"/>
<path d="M187.445 72.9039C187.449 72.961 187.458 73.0193 187.466 73.0764C187.418 72.9561 187.367 72.8359 187.312 72.7182C187.357 72.7777 187.402 72.8396 187.445 72.9039V72.9039ZM188.517 76.549C188.515 76.549 188.515 76.5478 188.514 76.5478C188.365 76.43 188.216 76.3098 188.067 76.1896C188.067 76.1313 188.064 76.0743 188.063 76.016C188.207 76.1993 188.359 76.3766 188.517 76.549ZM188.656 72.6866C188.802 72.768 188.948 72.8517 189.092 72.9343C189.005 73.0059 188.931 73.0885 188.865 73.1796C188.721 72.9537 188.558 72.7364 188.378 72.5324C188.471 72.5846 188.564 72.6344 188.656 72.6866V72.6866ZM189.263 77.0517L189.231 77.1027L189.177 77.0614L189.263 77.0517ZM189.654 73.5766C189.702 73.562 189.744 73.5608 189.782 73.5718C189.896 73.6058 189.97 73.743 190.016 73.885C189.816 73.8935 189.616 73.9045 189.414 73.9178C189.472 73.7527 189.549 73.6118 189.654 73.5766V73.5766ZM190.013 74.9317C189.973 75.007 189.994 75.0021 189.975 74.9936C189.968 74.9912 189.957 74.9875 189.939 74.9875C189.862 74.9863 189.778 74.9572 189.693 74.9147C189.807 74.8892 189.923 74.8649 190.037 74.837L190.013 74.9317ZM189.744 75.8132C189.804 75.8278 189.862 75.8375 189.919 75.8435C189.885 75.92 189.851 75.9965 189.815 76.0718C189.79 75.9868 189.77 75.8982 189.744 75.8132ZM183.983 68.4065C183.982 68.4065 183.98 68.4053 183.979 68.4053C183.979 68.4089 183.978 68.4126 183.978 68.4174C183.871 68.9833 183.852 69.5467 184.046 70.0384C184.411 70.9685 185.447 71.5076 185.938 72.3721C186.534 73.4224 186.615 74.4302 185.764 75.2947C185.242 75.8253 184.647 76.1568 184.058 76.583C183.859 76.7275 183.696 76.9048 183.555 77.1003C183.555 77.1015 183.555 77.1015 183.555 77.1015C183.557 77.1015 183.557 77.1015 183.557 77.1015C183.893 77.2545 184.231 77.4014 184.57 77.5447C184.623 77.5665 184.675 77.5896 184.728 77.6114C185.096 77.7644 185.468 77.9101 185.842 78.0461C186.321 78.2186 186.805 78.3825 187.29 78.5342C187.31 78.5403 187.33 78.5476 187.35 78.5537C187.837 78.7103 188.348 78.9131 188.854 78.9701C189.146 79.0029 189.399 78.9726 189.625 78.8924C190.303 78.6557 190.724 77.9866 191.101 77.3164C191.613 76.3984 191.974 75.387 192.182 74.3561C192.286 73.8474 192.335 73.3156 192.022 72.8651C191.714 72.4207 191.148 72.1693 190.699 71.8986C188.87 70.8046 186.982 69.8126 185.057 68.9007C184.941 68.8461 184.823 68.7938 184.706 68.7404C184.466 68.6287 184.224 68.517 183.983 68.4065" fill="#563AC2"/>
<path d="M188.886 50.8416L188.89 50.9053C188.83 50.977 188.809 50.9717 188.773 50.9132L188.886 50.8416ZM187.676 50.0092C187.608 50.0317 187.539 50.0583 187.47 50.0782L187.389 50.0981L187.493 50.0092L187.531 49.9826L187.547 49.9733L187.676 50.0092ZM185.997 50.1207L186.011 50.1154L186.018 50.1313L185.997 50.1207ZM184.602 49.441L184.617 49.4264L184.636 49.4171L184.637 49.4582L184.602 49.441ZM183.004 49.2326C182.896 49.4649 182.981 49.7835 183.227 49.891C184.106 50.272 184.959 50.7101 185.819 51.1283C185.823 51.131 185.827 51.1323 185.829 51.1336C186.714 51.5624 187.623 51.9302 188.516 52.3324C188.809 52.4638 189.098 52.5992 189.39 52.7333C189.401 52.7386 189.411 52.7426 189.423 52.7479C189.411 52.7426 189.401 52.7386 189.39 52.7333C189.395 51.0686 188.848 49.4821 187.29 48.1533C186.378 47.374 185.361 46.9213 184.288 46.6465C184.189 46.8376 184.088 47.0275 183.991 47.22C183.984 47.2293 183.979 47.2386 183.975 47.2492C183.639 47.905 183.318 48.5661 183.004 49.2326" fill="#7058CF"/>
<path d="M162.694 110.327C160.547 109.491 158.402 108.655 156.256 107.819L156.14 107.774C154.516 107.143 152.894 106.509 151.27 105.878C151.229 105.964 151.192 106.051 151.153 106.139C151.125 106.201 151.095 106.263 151.068 106.326C154.877 107.808 158.684 109.291 162.493 110.775C162.785 110.889 162.987 110.441 162.694 110.327" fill="#4A32AB"/>
<path d="M172.402 86.6759C172.692 86.8058 172.894 86.359 172.605 86.2279L169.509 84.8327L169.251 84.7162H169.25L163.418 82.0862C163.383 82.1469 163.349 82.2076 163.315 82.2683C163.267 82.3509 163.221 82.4335 163.174 82.516L172.402 86.6759" fill="#4A32AB"/>
<path d="M170.712 82.5503C170.992 82.6948 171.194 82.2467 170.914 82.1022C168.976 81.1139 167.013 80.1753 165.027 79.2901C164.983 79.3654 164.938 79.4419 164.894 79.5172C164.855 79.5827 164.815 79.6495 164.776 79.7163C166.779 80.6088 168.757 81.5546 170.712 82.5503Z" fill="#4A32AB"/>
<path d="M168.335 76.6218L168.488 76.6874C170.659 77.6612 172.791 78.7164 174.882 79.8529C175.159 80.0034 175.361 79.5542 175.084 79.4048C173.895 78.7576 172.691 78.136 171.474 77.5434L171.441 77.5289C170.552 77.0917 169.656 76.6741 168.754 76.2673C168.754 76.2673 168.754 76.2673 168.753 76.2673C168.7 76.243 168.646 76.2187 168.591 76.1981C168.591 76.1981 168.591 76.1981 168.591 76.1969C168.134 75.9917 167.678 75.7901 167.216 75.5958L167.037 75.8921L166.961 76.0196C167.423 76.2139 167.879 76.4154 168.335 76.6218" fill="#4A32AB"/>
<path d="M135.143 159.53C134.441 164.856 133.975 170.21 132.967 175.492C132.015 180.485 130.654 185.368 129.096 190.203C128.17 193.077 127.154 195.921 126.446 198.861C125.719 201.88 125.211 205.115 125.831 208.199C126.423 211.141 128.345 213.675 131.192 214.761C132.924 215.42 134.712 215.289 136.377 214.701C136.803 214.189 137.151 213.613 137.408 212.986C138.011 211.516 138.371 209.94 138.787 208.41C139.178 206.974 139.562 205.535 139.941 204.095C140.825 200.742 141.686 197.383 142.535 194.022C143.41 190.553 147.852 172.514 148.698 169.036C149.434 166.016 150.16 162.992 150.859 159.962C150.998 159.366 151.134 158.767 151.268 158.17C151.312 157.981 151.283 157.816 151.212 157.68C151.136 157.493 150.982 157.337 150.726 157.274C148.997 156.849 147.266 156.424 145.536 155.999C142.769 155.319 140 154.638 137.231 153.959C136.846 153.864 136.46 153.769 136.074 153.674C135.705 155.617 135.402 157.573 135.143 159.53" fill="#E03C53"/>
<path d="M146.184 152.008C147.066 152.181 147.948 152.343 148.835 152.494C149.658 148.415 150.484 144.342 151.31 140.263C151.077 140.212 150.847 140.159 150.613 140.109C150.383 140.058 150.154 140.007 149.923 139.956C149.596 139.883 149.27 139.812 148.943 139.739C147.955 143.811 147.038 147.904 146.184 152.008" fill="#8E7FCB"/>
<path d="M153.068 153.166C153.527 153.235 153.991 153.298 154.452 153.358C154.647 153.383 154.857 153.424 155.071 153.46C155.769 149.495 156.673 145.567 157.779 141.696C157.712 141.683 157.647 141.671 157.583 141.655C156.848 141.491 156.115 141.328 155.38 141.165C154.61 145.165 153.839 149.166 153.068 153.166Z" fill="#8E7FCB"/>
<path d="M142.59 151.271C143.544 151.481 144.504 151.68 145.463 151.868C146.316 147.756 147.235 143.657 148.223 139.578C148.216 139.577 148.209 139.574 148.2 139.573C147.402 139.393 146.601 139.217 145.802 139.04C144.636 143.093 143.567 147.172 142.59 151.271Z" fill="#8E7FCB"/>
<path d="M149.56 152.619C150.483 152.774 151.41 152.925 152.339 153.058C153.113 149.041 153.889 145.025 154.663 141.008C153.787 140.81 152.908 140.615 152.026 140.422C151.206 144.488 150.383 148.553 149.56 152.619" fill="#8E7FCB"/>
<path d="M139.085 150.473C140.012 150.698 140.943 150.903 141.87 151.114C142.847 147.015 143.917 142.933 145.078 138.88C144.151 138.672 143.223 138.468 142.295 138.261C141.32 142.355 140.248 146.428 139.085 150.473" fill="#8E7FCB"/>
<path d="M134.717 136.577C134.371 136.503 134.088 136.598 133.884 136.781C133.613 136.87 133.378 137.082 133.287 137.444C132.693 139.774 132.212 142.132 131.857 144.511C131.778 145.038 131.705 145.567 131.639 146.098C131.555 146.771 131.426 147.404 131.995 147.905C132.103 147.999 132.223 148.087 132.353 148.162C133.252 144.324 134.15 140.49 135.05 136.653C134.938 136.625 134.83 136.602 134.717 136.577" fill="#7665B9"/>
<path d="M135.785 149.558C136.154 149.678 136.526 149.787 136.899 149.894C137.211 148.637 137.559 147.388 137.959 146.153C138.713 143.825 139.705 141.274 141.288 139.282C141.382 138.888 141.482 138.495 141.577 138.1C140.609 137.887 139.64 137.672 138.675 137.454C137.603 141.459 136.641 145.496 135.785 149.558Z" fill="#7665B9"/>
<path d="M133.03 148.496C133.176 148.562 133.32 148.622 133.457 148.682C133.989 148.918 134.531 149.128 135.081 149.321C135.934 145.286 136.889 141.273 137.951 137.294C137.226 137.133 136.496 136.974 135.77 136.812C134.856 140.706 133.944 144.601 133.03 148.496" fill="#7665B9"/>
<path d="M182.969 60.989C183.014 60.9006 183.057 60.8109 183.101 60.7212L183.207 60.7511C183.257 60.7966 183.31 60.8382 183.369 60.8746C183.229 60.872 183.084 60.9201 182.972 61.0124L182.969 60.989ZM183.473 57.1109L183.504 57.1694C183.432 57.4022 183.365 57.6362 183.297 57.8715C183.066 58.2355 182.838 58.6008 182.615 58.97C182.898 58.3499 183.183 57.7298 183.473 57.1109ZM180.416 63.9427L180.404 63.9414C180.441 63.8582 180.476 63.7763 180.511 63.6944L180.532 63.7113C180.494 63.788 180.455 63.866 180.416 63.9427V63.9427ZM183.6 63.8361L183.63 63.8582L183.591 63.9219L183.6 63.8361ZM183.99 61.1021L183.932 61.1996L183.843 61.2451L183.761 61.1619L183.705 61.0332C183.796 61.0644 183.893 61.0865 183.99 61.1021V61.1021ZM184.795 59.7657C184.723 59.8801 184.653 59.9971 184.582 60.1128L184.545 60.1219C184.475 60.1362 184.387 60.1492 184.294 60.1544C184.465 60.027 184.631 59.8983 184.795 59.7657V59.7657ZM185.757 53.9323C185.728 54.0714 185.697 54.2105 185.664 54.3483C185.61 54.4055 185.557 54.4627 185.502 54.5199C185.584 54.3223 185.672 54.1286 185.757 53.9323ZM183.462 68.3278C183.463 68.3278 183.465 68.3291 183.466 68.3291C183.597 67.6453 183.855 66.9576 184.03 66.3856C184.79 63.9336 186.003 61.6559 187.005 59.3002C187.377 58.4227 187.767 57.4971 188.094 56.5532C188.166 56.4492 188.235 56.3413 188.292 56.2269C188.201 56.4076 188.093 56.5714 187.967 56.7274L187.976 56.6611C188.084 56.5025 188.196 56.3374 188.311 56.1749C188.252 56.2594 188.197 56.3413 188.138 56.4258C188.564 55.1739 188.869 53.8933 188.873 52.6557C188.582 52.5218 188.292 52.3865 187.999 52.2552C187.106 51.8522 186.198 51.4856 185.313 51.0566C185.311 51.0553 185.306 51.0527 185.302 51.0514C183.071 55.5587 180.958 60.1232 178.987 64.7501C178.781 65.2337 178.586 65.7225 178.382 66.2074C180.096 66.8666 181.789 67.579 183.461 68.3395C183.461 68.3356 183.462 68.3317 183.462 68.3278" fill="#AFF1E0"/>
<path d="M186.411 61.0011C186.543 60.7496 186.682 60.5005 186.811 60.2464L186.83 60.1961C186.884 60.1122 186.94 60.0296 186.994 59.9457C186.822 60.3367 186.651 60.7289 186.479 61.1198L186.411 61.0011ZM187.407 58.7884C187.501 58.5704 187.581 58.3484 187.653 58.124L187.804 58.0878C187.64 58.4659 187.476 58.8439 187.311 59.2219C187.301 59.1407 187.271 59.0658 187.229 59.0013C187.301 58.9561 187.364 58.8878 187.407 58.7884ZM189.608 53.8933C189.524 54.0881 189.441 54.2843 189.357 54.4791C189.311 54.4417 189.258 54.4094 189.201 54.3888C189.314 54.1875 189.423 53.9875 189.534 53.7862C189.654 53.5669 189.774 53.3488 189.894 53.1308C189.565 52.9773 189.236 52.8237 188.906 52.6715C188.896 52.6663 188.884 52.6612 188.874 52.656C188.87 53.8933 188.564 55.1745 188.139 56.4273C188.198 56.3422 188.252 56.2596 188.312 56.1757L188.292 56.2273C188.235 56.3422 188.167 56.4492 188.096 56.5537C187.768 57.4969 187.378 58.4246 187.005 59.3006C186.003 61.6566 184.79 63.9338 184.031 66.3865C183.855 66.9581 183.598 67.6458 183.466 68.3296C183.709 68.4393 183.95 68.5515 184.19 68.6625C184.424 68.1464 184.653 67.6277 184.886 67.1103C185.462 65.8266 186.042 64.5428 186.612 63.2564C187.73 60.7237 188.84 58.1859 189.932 55.6416C190.044 55.3784 190.155 55.1126 190.267 54.8494C190.45 54.4197 190.633 53.9888 190.815 53.5591C190.519 53.4211 190.223 53.283 189.925 53.145C189.819 53.394 189.714 53.6443 189.608 53.8933" fill="#8AE6CE"/>
<path d="M153.569 128.706L153.557 128.708L153.587 128.617L153.569 128.706ZM153.305 129.967L153.167 129.931C153.207 129.805 153.247 129.678 153.287 129.552L153.406 129.518C153.372 129.669 153.341 129.819 153.305 129.967ZM151.877 123.894L151.882 123.861H151.886L151.888 123.887L151.877 123.894ZM153.203 127.217L153.254 127.214C153.234 127.28 153.213 127.347 153.191 127.413C153.196 127.348 153.2 127.283 153.203 127.217ZM150.55 123.858C150.441 123.838 150.334 123.814 150.226 123.788C150.343 123.793 150.459 123.798 150.576 123.803L150.55 123.858ZM150.466 128.428L150.349 128.37L150.414 128.319L150.468 128.428H150.466ZM150.186 124.762C150.049 124.714 149.91 124.666 149.772 124.618C149.924 124.62 150.076 124.622 150.229 124.63L150.186 124.762ZM149.876 125.95C149.774 125.919 149.672 125.889 149.57 125.859C149.678 125.844 149.789 125.832 149.898 125.818L149.876 125.95ZM148.654 123.145L148.662 123.13L148.663 123.14L148.654 123.145ZM148.04 126.388L147.993 126.392L147.986 126.372C148.004 126.307 148.023 126.239 148.042 126.172L148.064 126.178C148.056 126.247 148.049 126.317 148.04 126.388V126.388ZM147.436 123.967L147.424 124.001L147.325 124.076C147.364 123.962 147.403 123.848 147.443 123.732C147.442 123.81 147.438 123.889 147.436 123.967ZM147.164 129.33L147.175 129.308L147.307 129.456L147.164 129.33ZM147.245 124.308L147.272 124.445C147.235 124.569 147.2 124.694 147.169 124.82L147.104 124.716L147.245 124.308ZM145.832 123.565C145.828 123.485 145.826 123.405 145.823 123.324L145.883 123.287C145.866 123.379 145.849 123.471 145.832 123.565V123.565ZM145.055 122.757L145.078 122.714V122.767L145.055 122.757ZM155.34 127.412V127.418L155.207 127.498C155.204 127.442 155.204 127.387 155.202 127.331L155.34 127.412ZM155.464 129.743L155.505 129.732C155.471 129.865 155.439 129.999 155.406 130.133L155.361 130.118C155.395 129.993 155.429 129.868 155.464 129.743V129.743ZM155.14 132.159C155.322 132.163 155.503 132.188 155.678 132.234C155.53 132.195 155.377 132.174 155.223 132.166C156.892 130.627 158.32 128.752 159.509 127.006C158.576 126.583 157.649 126.15 156.721 125.718L156.715 125.732C156.392 125.703 156.07 125.674 155.748 125.646L155.718 125.605C155.808 125.612 155.9 125.617 155.99 125.625C156.229 125.647 156.465 125.676 156.701 125.708C152.688 123.836 148.717 121.876 144.816 119.777C144.706 119.717 144.642 119.625 144.616 119.52L144.571 119.501C143.924 121.177 143.59 122.971 143.833 124.767C143.98 125.85 144.329 126.904 144.894 127.844C145.52 128.879 146.43 129.722 147.371 130.466C148.439 131.312 149.593 132.028 150.808 132.625C151.077 132.043 151.338 131.456 151.609 130.876C151.643 130.803 151.728 130.735 151.811 130.736C152.363 130.747 152.839 130.906 153.286 131.233C153.541 131.42 153.215 131.79 152.963 131.604C152.815 131.496 152.659 131.415 152.497 131.353C152.587 131.415 152.646 131.525 152.594 131.654C152.408 132.109 152.209 132.559 152.002 133.004L151.992 133.092L151.988 133.101C152.148 132.753 152.308 132.404 152.469 132.057C152.602 131.769 153.044 131.982 152.912 132.27C152.884 132.33 152.856 132.391 152.828 132.452C152.925 132.472 153.024 132.493 153.12 132.514C153.212 132.548 153.303 132.583 153.394 132.613C153.553 132.749 153.749 132.857 153.926 132.935L153.994 132.962C153.634 132.854 153.287 132.679 152.948 132.525C152.906 132.506 152.863 132.486 152.822 132.465C152.688 132.755 152.555 133.045 152.421 133.334C152.722 133.453 153.026 133.564 153.332 133.668C153.989 133.229 154.614 132.725 155.209 132.176C155.186 132.17 155.163 132.165 155.14 132.159" fill="#7058CF"/>
<path d="M163.221 129.931L163.225 129.821L163.296 129.855L163.291 129.916L163.221 129.931ZM162.962 131.92L162.934 131.859L162.966 131.906L162.962 131.92ZM162.028 130.729C161.942 130.87 161.857 131.013 161.755 131.142C161.603 131.333 161.417 131.503 161.226 131.649C161.035 131.795 160.814 131.915 160.594 132.008C160.374 132.1 160.132 132.151 159.89 132.151C159.811 132.151 159.732 132.146 159.654 132.135C159.544 132.119 159.429 132.082 159.323 132.043C159.248 132.027 159.176 132.004 159.104 131.975C158.628 131.781 158.291 131.235 158.387 130.718C158.404 130.629 158.429 130.541 158.464 130.455C158.481 130.383 158.502 130.311 158.529 130.243C158.571 130.13 158.645 130.027 158.711 129.928L158.785 129.838C158.894 129.724 159.019 129.607 159.154 129.52C159.351 129.392 159.567 129.279 159.776 129.174C160.067 129.028 160.399 128.938 160.728 128.938C160.939 128.938 161.149 128.976 161.347 129.058C161.404 129.081 161.464 129.125 161.512 129.157L161.657 129.25C161.716 129.3 161.8 129.396 161.847 129.455L161.879 129.498L161.92 129.578L161.946 129.61C162.164 129.935 162.242 130.379 162.028 130.729ZM161.422 132.151C161.337 132.174 161.251 132.198 161.165 132.224L161.175 132.176C161.263 132.133 161.351 132.083 161.436 132.036L161.422 132.151ZM159.571 132.935C159.398 132.962 159.225 132.979 159.051 132.987C159.12 132.944 159.193 132.901 159.259 132.866C159.373 132.842 159.487 132.817 159.6 132.787L159.612 132.912L159.571 132.935ZM158.513 133.85L158.57 133.778C158.633 133.777 158.694 133.778 158.756 133.777C158.814 133.777 158.864 133.761 158.908 133.735L159.011 133.729L159.085 133.824C158.896 133.839 158.704 133.847 158.513 133.85ZM158.24 129.426C158.239 129.294 158.234 129.162 158.223 129.03H158.294C158.275 129.163 158.257 129.294 158.24 129.426ZM158.024 132.165L157.928 132.216L157.953 132.127C157.985 131.999 158.014 131.869 158.04 131.74C158.033 131.881 158.027 132.023 158.024 132.165V132.165ZM157.566 132.947L157.577 132.924L157.598 132.904L157.653 132.955L157.566 132.947ZM166.512 128.954C166.359 129.271 166.125 129.534 165.755 129.593C165.396 129.647 165.064 129.466 164.747 129.329C164.298 129.137 163.851 128.942 163.404 128.747C163.075 128.603 162.748 128.454 162.42 128.308C162.321 128.305 162.222 128.299 162.123 128.301C162.044 128.241 161.964 128.183 161.885 128.122C161.919 128.119 161.953 128.119 161.987 128.116C161.16 127.748 160.332 127.384 159.507 127.01C159.509 127.009 159.51 127.007 159.51 127.007C159.51 127.006 159.509 127.006 159.509 127.006C158.32 128.752 156.892 130.627 155.223 132.167C155.377 132.174 155.53 132.196 155.678 132.235L155.696 132.3C155.533 132.261 155.372 132.219 155.21 132.176C155.209 132.176 155.209 132.176 155.209 132.176C154.614 132.725 153.989 133.229 153.332 133.669C153.334 133.669 153.336 133.67 153.338 133.67C153.695 133.793 154.054 133.908 154.419 134.011C156.693 134.662 159.14 134.872 161.42 134.134C162.562 133.765 163.622 133.159 164.488 132.326C165.353 131.496 166.158 129.903 166.692 128.836L166.682 128.832C166.635 128.893 166.579 128.938 166.512 128.954" fill="#563AC2"/>
<path d="M151.295 108.244C151.255 108.445 151.214 108.649 151.177 108.856L151.034 108.83C151.121 108.636 151.207 108.438 151.295 108.244ZM157.19 108.885L157.194 108.881L157.201 108.875L157.204 108.878L157.193 108.883L157.19 108.885H157.191H157.19ZM152.169 102.741C152.236 102.592 152.306 102.444 152.376 102.295C156.795 103.949 161.184 105.692 165.536 107.519C165.828 107.644 165.624 108.091 165.333 107.967C164.505 107.619 163.673 107.272 162.842 106.934L162.827 107.064C162.79 107.353 162.93 107.605 163.139 107.765C163.07 107.855 162.997 107.945 162.927 108.036C162.864 107.659 162.788 107.283 162.702 106.909L162.715 106.88C159.222 105.445 155.706 104.062 152.169 102.741V102.741ZM159.378 107.697L159.232 107.744C159.21 107.665 159.185 107.585 159.163 107.507C159.238 107.466 159.313 107.419 159.387 107.374C159.446 107.476 159.5 107.576 159.56 107.678C159.5 107.68 159.441 107.686 159.378 107.697ZM157.335 106.202L157.337 106.2L157.335 106.202L157.415 106.12V106.119L157.418 106.131L157.335 106.202ZM155.342 96.1891C155.412 96.041 155.485 95.8941 155.558 95.7484C158.955 96.9881 162.304 98.3686 165.591 99.8791C165.559 99.7747 165.524 99.6727 165.492 99.5683C165.562 99.5064 165.626 99.442 165.694 99.3789C165.702 99.5659 165.718 99.7565 165.736 99.9447C166.494 100.29 167.247 100.647 167.996 101.006C168.28 101.142 168.079 101.59 167.795 101.454C167.138 101.136 166.473 100.823 165.806 100.518C165.806 100.518 165.806 100.518 165.806 100.519L165.829 100.668L165.781 100.507C162.363 98.9235 158.88 97.4823 155.342 96.1891ZM161.685 102.016H161.683L161.682 102.014V102.012L161.688 102.008L161.687 102.009L161.688 102.008L161.685 102.015V102.016ZM168.328 106.931C168.215 107.084 168.101 107.235 167.984 107.387C168.051 107.272 168.111 107.16 168.178 107.045L168.328 106.931ZM170.372 103.12L170.38 103.134L170.353 103.154L170.372 103.12ZM149.806 109.656C150.513 109.909 151.217 110.174 151.922 110.437C153.305 110.954 154.685 111.481 156.058 112.026C158.849 113.137 161.612 114.327 164.304 115.663C164.774 115.896 165.239 116.139 165.704 116.381C167.064 113.76 168.364 111.112 169.647 108.51C170.7 106.374 171.714 104.217 172.704 102.051L156.149 94.5888C156.439 94.0145 156.729 93.4389 157.026 92.8671C157.1 92.7201 157.175 92.5744 157.252 92.4287C157.787 91.3869 158.336 90.3524 158.886 89.3191C158.336 90.3512 157.787 91.3869 157.252 92.4287C157.175 92.5744 157.1 92.7189 157.026 92.8658C156.529 93.8238 156.043 94.7843 155.558 95.7472C155.485 95.8941 155.411 96.0422 155.342 96.1891C154.823 97.22 154.314 98.2533 153.814 99.2878C153.814 99.289 153.814 99.289 153.814 99.289C157.018 100.521 160.18 101.852 163.303 103.279C163.593 103.409 163.391 103.857 163.102 103.727C159.975 102.299 156.807 100.965 153.6 99.731C153.666 99.5938 153.732 99.4566 153.798 99.3206C153.732 99.4566 153.666 99.5938 153.6 99.7322C153.188 100.583 152.781 101.438 152.376 102.294C152.306 102.444 152.236 102.592 152.168 102.741C151.689 103.757 151.218 104.777 150.753 105.801C150.712 105.887 150.675 105.974 150.636 106.062C150.675 105.974 150.713 105.887 150.753 105.801C152.378 106.432 154 107.066 155.623 107.697C155.877 107.509 156.12 107.31 156.36 107.106C156.151 107.316 155.944 107.529 155.74 107.742C157.885 108.578 160.031 109.414 162.178 110.25C162.47 110.364 162.269 110.812 161.976 110.698C158.167 109.214 154.36 107.731 150.551 106.249C150.046 107.362 149.547 108.481 149.058 109.6C149.274 109.528 149.523 109.555 149.806 109.656" fill="#AFF1E0"/>
<path d="M170.677 110.607C170.84 109.853 171.002 109.104 171.163 108.348C171.164 108.539 171.163 108.733 171.164 108.92C171.165 109.061 171.211 109.183 171.289 109.282C171.083 109.722 170.88 110.165 170.677 110.607ZM174.416 107.631L173.798 109.002L173.716 108.878C173.955 108.465 174.193 108.051 174.416 107.631V107.631ZM169.229 110.247C169.131 110.211 169.026 110.196 168.923 110.2C169.113 109.804 169.304 109.412 169.494 109.016C169.406 109.425 169.316 109.838 169.229 110.247ZM172.707 102.053L172.704 102.052C171.714 104.218 170.7 106.374 169.647 108.51C168.364 111.112 167.064 113.76 165.704 116.382C166.545 116.82 167.382 117.268 168.204 117.739C168.804 118.083 169.496 118.4 170.031 118.836C170.545 119.254 170.296 119.784 170.092 120.297C169.992 120.549 169.891 120.8 169.792 121.053C169.856 120.992 169.916 120.923 169.962 120.828C172.545 115.32 175.122 109.812 177.547 104.235L172.707 102.053" fill="#8AE6CE"/>
<path d="M167.918 98.5666C167.94 98.6127 167.961 98.6577 167.982 98.7038L167.946 98.7597L167.881 98.8544L167.875 98.8629C167.875 98.8617 167.873 98.8604 167.873 98.8592C167.867 98.7062 167.858 98.5557 167.844 98.4039C167.869 98.4585 167.894 98.512 167.918 98.5666V98.5666ZM170.518 89.7915C170.533 89.8558 170.545 89.9153 170.557 89.9785C170.542 89.9214 170.525 89.8644 170.511 89.8024L170.518 89.7915ZM171.98 95.9548C171.986 95.9342 171.992 95.9135 171.998 95.8929C172.002 95.9038 172.005 95.916 172.008 95.9269C172.066 96.1333 172.127 96.3422 172.188 96.5486C172.131 96.6129 172.073 96.6736 172.016 96.7307C171.913 96.8388 171.814 96.9481 171.71 97.0561L171.672 97.0804L171.651 97.0938C171.76 96.7149 171.869 96.3349 171.98 95.9548V95.9548ZM163.477 84.1406C163.365 84.4271 163.253 84.7137 163.15 85.0039C162.97 85.1787 162.797 85.3584 162.632 85.5393C162.873 85.1046 163.116 84.67 163.359 84.2353C163.443 84.0835 163.528 83.9317 163.612 83.7799C163.613 83.7799 163.613 83.7799 163.613 83.7787C163.567 83.8989 163.523 84.0204 163.477 84.1406V84.1406ZM173.006 87.0401C172.922 87.3291 172.838 87.6181 172.756 87.9046L172.613 87.4833C172.71 87.3728 172.807 87.2635 172.904 87.1542C172.938 87.1154 172.972 87.0777 173.006 87.0401ZM177.16 75.6083L177.19 75.6216L177.16 75.6083ZM177.222 75.6544C177.298 75.7394 177.423 75.9106 177.427 75.9191C177.439 75.9361 177.45 75.9543 177.462 75.9713C177.512 76.0418 177.559 76.1134 177.609 76.1838L177.571 76.2251C177.534 76.1571 177.496 76.0903 177.46 76.0199C177.394 75.8863 177.302 75.7734 177.188 75.6896L177.222 75.6544V75.6544ZM177.24 91.3214C177.225 91.3554 177.21 91.3882 177.194 91.421C177.245 91.0773 177.285 90.7325 177.327 90.3852C177.327 90.3865 177.327 90.3877 177.327 90.3901C177.329 90.5127 177.329 90.6329 177.33 90.7532C177.33 90.877 177.331 91.0009 177.332 91.1235C177.301 91.1878 177.27 91.2546 177.24 91.3214V91.3214ZM174.385 76.7642C174.435 76.4874 174.482 76.2142 174.527 75.9398C174.53 75.9276 174.532 75.9143 174.535 75.9021C174.542 75.9191 174.552 75.9361 174.559 75.9531C174.589 76.0126 174.62 76.0721 174.649 76.1328C174.595 76.2664 174.537 76.4012 174.481 76.5347C174.448 76.6124 174.418 76.6889 174.385 76.7654V76.7642V76.7642ZM171.024 75.0133L171.148 74.8895C171.102 74.9441 171.051 75 171.005 75.0546L171.024 75.0133ZM178.837 85.1071C178.837 85.1071 178.837 85.1071 178.837 85.1083C178.857 85.2673 178.878 85.4252 178.895 85.5855C178.895 85.5879 178.895 85.5891 178.895 85.5903C178.863 85.4458 178.835 85.3013 178.812 85.1532L178.837 85.1071ZM180.018 76.372C180.035 76.3817 180.051 76.389 180.068 76.3987C180.166 76.4509 180.265 76.5019 180.364 76.5529C180.37 76.5991 180.38 76.6428 180.387 76.6877C180.432 76.9767 180.481 77.2645 180.535 77.5498C180.535 77.551 180.535 77.551 180.535 77.551C180.509 77.5292 180.478 77.5146 180.449 77.4976C180.386 77.4612 180.32 77.4332 180.25 77.4187L180.224 77.3713C180.19 77.3179 180.163 77.262 180.131 77.2086C180.033 77.0374 179.944 76.8638 179.87 76.6829C179.886 76.6501 179.901 76.6173 179.917 76.5833C179.951 76.5129 179.985 76.4437 180.017 76.372C180.018 76.372 180.018 76.372 180.018 76.372V76.372ZM180.254 83.7338C180.249 83.7557 180.244 83.7787 180.238 83.8018C180.223 83.8674 180.207 83.9341 180.194 83.9997C180.194 84.0009 180.194 84.0009 180.194 84.0009C180.183 83.9329 180.171 83.8649 180.16 83.7981C180.149 83.7314 180.138 83.6658 180.127 83.599V83.5978L180.254 83.7338ZM180.42 81.6745C180.394 81.6453 180.371 81.615 180.347 81.5859C180.324 81.5555 180.301 81.5264 180.277 81.4984L180.312 81.4547L180.34 81.4195C180.359 81.479 180.377 81.5397 180.397 81.5992C180.404 81.6235 180.411 81.649 180.42 81.6733C180.42 81.6733 180.42 81.6733 180.42 81.6745ZM158.635 93.0128L158.703 92.878L158.701 92.8829L158.653 93.0213C160.711 93.9065 162.747 94.8487 164.757 95.848C165.04 95.9901 164.838 96.4381 164.554 96.296C162.561 95.304 160.54 94.3679 158.496 93.4863C158.38 93.8397 158.265 94.1906 158.154 94.5427C158.055 94.7431 157.961 94.941 157.864 95.1413C157.856 95.1559 157.849 95.1705 157.842 95.185C157.763 95.1292 157.675 95.0855 157.583 95.0588C157.583 95.0588 157.583 95.0587 157.583 95.0575C157.624 94.9774 157.667 94.8973 157.707 94.8159C157.939 94.3594 158.171 93.9016 158.409 93.4499C157.947 93.2532 157.488 93.0602 157.026 92.8671C156.729 93.439 156.439 94.0145 156.149 94.5889L172.704 102.051L172.707 102.053C173.925 99.3862 175.103 96.7028 176.252 94.006C177.335 91.4659 178.395 88.9148 179.444 86.3601C180.455 83.9001 181.214 81.3539 182.2 78.8855C182.451 78.2565 182.653 77.5644 183.039 77.0241C183.039 77.0241 183.039 77.0241 183.039 77.0228C181.278 76.2227 179.561 75.312 177.795 74.5349C175.182 73.3839 172.53 72.3153 169.972 71.0429C169.839 70.9761 169.707 70.9069 169.575 70.8401C169.06 71.6633 168.55 72.4841 168.043 73.3098C167.591 74.0444 167.144 74.7802 166.699 75.5184C167.162 75.7127 167.617 75.9143 168.075 76.1195C168.339 75.6787 168.604 75.2416 168.87 74.8045C168.944 74.6843 169.016 74.5616 169.09 74.4402C169.091 74.4402 169.091 74.4402 169.091 74.4402C169.074 74.4936 169.056 74.5495 169.037 74.6066C168.868 74.949 168.714 75.2962 168.562 75.6459C168.54 75.6981 168.515 75.7491 168.492 75.8014C168.478 75.8208 168.466 75.8414 168.453 75.8608C168.38 75.9701 168.308 76.0794 168.238 76.1899C169.14 76.5967 170.036 77.0143 170.925 77.4515L170.977 77.3895L170.986 77.3786L170.958 77.466C172.174 78.0586 173.379 78.6802 174.567 79.3274C174.844 79.4768 174.643 79.926 174.366 79.7755C172.275 78.639 170.143 77.5838 167.972 76.61C167.872 76.7691 167.776 76.9269 167.678 77.0872C167.621 77.0726 167.564 77.0641 167.506 77.0641C167.592 76.9184 167.68 76.7715 167.77 76.6258C167.786 76.5991 167.802 76.5712 167.819 76.5444C167.362 76.338 166.907 76.1365 166.444 75.9422C165.957 76.7509 165.477 77.562 164.999 78.3743C164.834 78.6523 164.672 78.934 164.51 79.2133C166.497 80.0985 168.46 81.037 170.398 82.0254C170.677 82.1699 170.476 82.6179 170.195 82.4734C168.24 81.4778 166.262 80.5319 164.26 79.6395C163.803 80.4299 163.351 81.218 162.901 82.0096L168.733 84.6396L168.72 84.5959L168.714 84.5801C169.015 84.4138 169.299 84.2146 169.562 83.9888C169.562 83.9888 169.562 83.9888 169.562 83.99C169.518 84.0495 169.473 84.1102 169.428 84.1697C169.282 84.3652 169.136 84.5607 168.993 84.7562L172.088 86.1513C172.377 86.2824 172.175 86.7293 171.885 86.5993L162.657 82.4394C162.146 83.3428 161.639 84.2511 161.135 85.1605C161.13 85.1714 161.124 85.1811 161.118 85.1921C163.29 86.1853 165.434 87.238 167.552 88.3466C167.83 88.4935 167.631 88.9428 167.349 88.7946C165.22 87.6812 163.064 86.6224 160.88 85.6231C160.796 85.7761 160.713 85.9315 160.629 86.0845C160.209 86.8507 159.79 87.6205 159.378 88.3891C160.82 89.018 162.255 89.6676 163.675 90.344C163.788 90.1958 163.907 90.0525 164.023 89.9068C164.115 89.7915 164.204 89.6737 164.298 89.5608C164.491 89.3264 164.698 89.1018 164.901 88.8736C165.033 88.7254 165.16 88.5712 165.294 88.4255L165.396 88.4984L165.417 88.5129C165.365 88.5979 165.307 88.6793 165.252 88.7618C165.097 88.995 164.934 89.2232 164.749 89.4442C164.669 89.5414 164.578 89.6239 164.494 89.7162C164.367 89.8546 164.243 89.9991 164.107 90.1291C164 90.214 163.899 90.3015 163.803 90.4023C165.813 91.3506 167.804 92.345 169.771 93.3795C170.049 93.5264 169.848 93.9745 169.569 93.8275C167.529 92.7566 165.464 91.7257 163.38 90.7459L163.351 90.7689H163.352L163.37 90.7422C161.972 90.0793 160.564 89.4418 159.146 88.8238C159.058 88.9877 158.973 89.154 158.886 89.3192C158.336 90.3525 157.787 91.387 157.252 92.4288C157.715 92.6206 158.173 92.8161 158.635 93.0128" fill="#EAAD92"/>
<path d="M178.942 89.5997L178.878 89.5778L178.809 89.5547C178.807 89.5244 178.807 89.4928 178.807 89.4625C178.807 89.4309 178.806 89.4005 178.806 89.3678V89.3665C178.833 89.4127 178.86 89.4588 178.886 89.505C178.905 89.5365 178.922 89.5693 178.942 89.5997ZM179.45 91.0664C179.429 91.1429 179.41 91.2206 179.389 91.2971C179.389 91.2959 179.389 91.2959 179.389 91.2959C179.398 90.9487 179.4 90.6002 179.393 90.2529C179.459 90.333 179.537 90.3938 179.621 90.4302C179.564 90.6427 179.507 90.8552 179.45 91.0664V91.0664ZM183.233 78.214L183.213 78.2407L183.147 78.3257C183.147 78.3245 183.147 78.3245 183.147 78.3245C183.151 78.2686 183.151 78.2152 183.152 78.1545L183.233 78.214ZM186.774 78.4568C186.288 78.3051 185.805 78.1412 185.325 77.9687C184.951 77.8327 184.58 77.6858 184.212 77.534C184.158 77.5122 184.106 77.4891 184.054 77.4673C183.714 77.324 183.376 77.1771 183.04 77.0241C183.04 77.0241 183.04 77.0241 183.039 77.0241C182.653 77.5644 182.451 78.2565 182.2 78.8855C181.214 81.354 180.455 83.9002 179.444 86.3602C178.395 88.9149 177.335 91.4659 176.252 94.006C175.103 96.7028 173.925 99.3862 172.707 102.053L177.547 104.235L177.551 104.236C178.212 102.716 178.862 101.189 179.497 99.657C179.519 99.6048 179.542 99.5538 179.564 99.5004C179.787 98.9625 180.003 98.4209 180.222 97.8806C182.788 91.5424 185.069 85.0828 186.833 78.4763C186.814 78.4702 186.793 78.4629 186.774 78.4568" fill="#DF8E69"/>
<path d="M169.398 67.3067C169.665 66.81 169.96 66.3108 170.333 65.8851C170.631 65.5449 170.862 65.4006 171.342 65.5168L171.456 65.5486C171.368 65.5645 171.278 65.589 171.192 65.6196C171.051 65.5963 170.906 65.6428 170.818 65.7872L170.757 65.8214C170.238 66.1236 169.84 66.5959 169.608 67.1489C169.572 67.2346 169.569 67.3251 169.591 67.412C169.465 67.4682 169.345 67.5368 169.238 67.6187C169.29 67.5147 169.342 67.4095 169.398 67.3067V67.3067ZM172.941 66.0466C172.753 66.0429 172.531 66.0453 172.316 66.0722C172.299 66.0037 172.277 65.9377 172.243 65.8753L172.175 65.7713C172.431 65.8618 172.687 65.956 172.941 66.0466ZM174.789 67.4034C174.885 67.4585 174.975 67.5184 175.053 67.5955C175.011 67.6297 174.973 67.6738 174.935 67.7166C174.918 67.735 174.901 67.7496 174.885 67.7692L174.855 67.7656C174.824 67.7386 174.792 67.7129 174.762 67.6872C174.621 67.5661 174.48 67.4462 174.337 67.3288C174.293 67.2615 174.247 67.1979 174.196 67.1367C174.402 67.2101 174.603 67.2957 174.789 67.4034V67.4034ZM176.23 67.2236C176.155 67.2456 176.083 67.2725 176.012 67.3006H175.895C175.836 67.2015 175.766 67.1085 175.692 67.0253C175.87 67.0914 176.05 67.1575 176.23 67.2236ZM179.033 68.8667L178.975 68.8716C178.785 68.6673 178.583 68.4764 178.364 68.3027C178.621 68.4483 178.849 68.6379 179.033 68.8667ZM180.757 69.0086L180.842 69.0465C180.735 69.0612 180.628 69.0784 180.521 69.0992C180.467 69.0808 180.411 69.06 180.355 69.0429C180.269 69.016 180.178 68.9927 180.086 68.9695C180.042 68.8667 179.993 68.7664 179.938 68.6722C180.211 68.7847 180.485 68.8936 180.757 69.0086ZM182.544 69.9874C182.844 70.0792 183.143 70.2333 183.389 70.4352C183.414 70.4572 183.446 70.4707 183.47 70.4927C183.44 70.4805 183.409 70.467 183.38 70.4548C183.034 70.3141 182.689 70.1685 182.346 70.0192L182.188 69.9042C182.307 69.9262 182.428 69.9519 182.544 69.9874V69.9874ZM184.809 72.1273C184.956 72.4001 185.078 72.6962 185.175 72.9923C185.03 72.8173 184.882 72.6461 184.731 72.4784C184.711 72.3341 184.7 72.1885 184.688 72.0441C184.684 71.9866 184.676 71.9303 184.673 71.8728C184.725 71.9499 184.762 72.0416 184.809 72.1273ZM184.728 75.4356L184.742 75.4319L184.747 75.4417L184.728 75.4356ZM184.116 74.0898C183.96 73.7068 183.793 73.3288 183.612 72.9568L183.626 72.9678L183.663 73.0461C183.699 73.1146 183.745 73.177 183.784 73.2431C183.791 73.2553 183.798 73.2676 183.807 73.2798C183.807 73.281 183.808 73.281 183.808 73.2823C183.916 73.4658 184.025 73.6505 184.143 73.8243C184.164 73.9001 184.185 73.976 184.207 74.0518L184.116 74.0898ZM180.669 72.7305L180.796 72.7868L180.877 72.8198L180.888 72.9189C180.814 72.8577 180.741 72.7953 180.669 72.7305V72.7305ZM180.029 73.4768C180.002 73.3887 179.97 73.3006 179.941 73.2125C180.083 73.3447 180.227 73.4731 180.376 73.5967C180.261 73.5563 180.145 73.5184 180.029 73.4768ZM179.38 71.2072L179.495 71.1485L179.509 71.1546L179.511 71.2659L179.38 71.2072ZM177.302 70.2651L177.236 70.1844C177.316 70.0987 177.407 70.0217 177.505 69.958C177.529 70.0853 177.554 70.2125 177.567 70.341C177.477 70.319 177.389 70.2933 177.302 70.2651V70.2651ZM176.678 68.5143C176.553 68.4581 176.431 68.3969 176.308 68.332C176.576 68.195 176.818 68.381 177.004 68.644C176.895 68.6012 176.787 68.5633 176.678 68.5143V68.5143ZM176.665 69.5359L176.528 69.3879C176.602 69.4173 176.672 69.4442 176.739 69.4687L176.665 69.5359ZM182.033 72.2643L182.015 72.2399L182.034 72.0845L182.125 72.0049C182.178 72.093 182.231 72.1811 182.281 72.2704C182.204 72.2778 182.12 72.2753 182.033 72.2643ZM180.775 70.2884C180.901 70.3655 181.027 70.4413 181.152 70.5221C181.211 70.6028 181.267 70.686 181.323 70.768C181.227 70.7545 181.13 70.7435 181.033 70.7239C180.946 70.5796 180.858 70.4352 180.775 70.2884V70.2884ZM180.375 71.6562L180.341 71.6403L180.349 71.5975L180.375 71.6562ZM174.342 71.1938C174.36 71.1179 174.357 71.0359 174.315 70.9552C174.261 70.8512 174.205 70.7509 174.149 70.6481C174.365 70.905 174.588 71.1558 174.819 71.3993C174.66 71.3308 174.5 71.2635 174.342 71.1938V71.1938ZM174.497 69.2448C174.466 69.2093 174.431 69.1738 174.4 69.1383C174.381 69.1187 174.364 69.1004 174.347 69.0808L174.422 68.9878C174.471 69.0441 174.521 69.1004 174.568 69.1591C174.57 69.1591 174.57 69.1591 174.57 69.1591C174.571 69.1603 174.572 69.1628 174.573 69.164C174.577 69.1689 174.582 69.1738 174.584 69.1787C174.595 69.2496 174.609 69.3206 174.623 69.3916L174.502 69.2509C174.501 69.2484 174.499 69.2472 174.497 69.2448V69.2448ZM171.209 69.624L171.207 69.7329L171.059 69.6607L171.209 69.624ZM170.707 68.5877L170.744 68.5743L170.801 68.6391L170.919 68.7774L170.92 68.8337L170.771 68.8288C170.749 68.748 170.728 68.6685 170.707 68.5877V68.5877ZM169.744 68.644C169.69 68.5853 169.639 68.5266 169.59 68.4654C169.627 68.4005 169.679 68.3406 169.742 68.2892C169.752 68.3467 169.764 68.4042 169.774 68.4617C169.758 68.5229 169.748 68.5828 169.744 68.644ZM169.972 71.0421C172.53 72.3145 175.183 73.3838 177.795 74.5339C179.561 75.3108 181.279 76.2223 183.04 77.0225C183.181 76.8267 183.343 76.6493 183.543 76.5049C184.131 76.0792 184.726 75.7476 185.248 75.2166C186.1 74.3516 186.018 73.3447 185.422 72.2937C184.931 71.4287 183.895 70.8903 183.53 69.9605C183.336 69.4674 183.355 68.9046 183.462 68.3394C181.791 67.5784 180.097 66.8663 178.383 66.2068C176.482 65.474 174.562 64.79 172.63 64.1404C171.625 63.8027 170.676 63.5323 169.717 64.1563C168.912 64.6799 168.389 65.6061 167.932 66.4209C167.687 66.8602 167.466 67.3141 167.272 67.7778C167.045 68.3235 166.805 68.9315 167.209 69.4687C167.516 69.8773 168.086 70.0779 168.526 70.3055C168.873 70.4866 169.224 70.6628 169.575 70.839C169.707 70.9063 169.84 70.976 169.972 71.0421" fill="#7058CF"/>
<path d="M153.477 123.173C153.523 123.224 153.572 123.273 153.625 123.321C153.628 123.325 153.633 123.33 153.637 123.333L153.681 123.456C153.563 123.4 153.446 123.343 153.33 123.286C153.361 123.274 153.379 123.247 153.405 123.228C153.429 123.21 153.46 123.2 153.477 123.173V123.173ZM145.591 118.857C145.618 118.922 145.663 118.974 145.715 119.015L145.701 119.064C145.656 119.214 145.695 119.342 145.769 119.436C145.659 119.376 145.548 119.318 145.437 119.26C145.487 119.125 145.54 118.991 145.591 118.857V118.857ZM146.576 118.977L146.593 118.988L146.599 118.991L146.628 119.004L146.592 119.076L146.536 119.059L146.576 118.977ZM147.522 118.462C147.588 118.477 147.651 118.488 147.715 118.501C147.653 118.518 147.592 118.537 147.532 118.557L147.436 118.526L147.522 118.462ZM147.888 113.285C147.951 113.145 148.014 113.004 148.076 112.865L148.172 112.924C148.076 113.055 147.992 113.198 147.906 113.338C147.86 113.412 147.81 113.48 147.766 113.555C147.806 113.466 147.847 113.376 147.888 113.285ZM149.759 112.858L149.904 112.832C149.766 113.163 149.625 113.492 149.479 113.82C149.579 113.504 149.674 113.188 149.759 112.866V112.858ZM150.661 113.513L150.662 113.515L150.661 113.517V113.513ZM150.798 112.884L150.902 112.96L150.771 113.007L150.798 112.884ZM151.5 112.067H151.499H151.474H151.461L151.46 112.024L151.5 112.067ZM151.996 115.954C152.205 115.912 152.409 115.85 152.604 115.764C152.59 115.828 152.578 115.892 152.563 115.956C152.216 116.042 151.88 116.159 151.561 116.312C151.7 116.185 151.847 116.069 151.996 115.954V115.954ZM152.126 114.958C151.986 115.045 151.847 115.139 151.711 115.237L151.619 115.249L151.697 115.097C151.718 115.059 151.743 115.009 151.769 114.953C151.888 114.959 152.007 114.959 152.126 114.958V114.958ZM152.302 111.378C152.114 111.333 151.926 111.293 151.739 111.257C151.682 111.205 151.626 111.153 151.568 111.102C151.813 111.194 152.058 111.287 152.302 111.378ZM152.385 113.933C152.485 113.921 152.582 113.909 152.681 113.898L152.682 113.926C152.571 113.939 152.458 113.951 152.349 113.972L152.385 113.933ZM153.722 113.019L153.719 113.049C153.526 113.015 153.333 112.988 153.139 112.968L153.101 112.911C153.31 112.94 153.515 112.976 153.722 113.019V113.019ZM154.665 112.283C154.58 112.289 154.506 112.334 154.448 112.398L154.337 112.352C154.273 112.243 154.187 112.143 154.081 112.056C154.276 112.132 154.47 112.206 154.665 112.283V112.283ZM155.247 117.846L155.278 117.87L155.274 117.899C155.248 118.042 155.217 118.184 155.185 118.327C155.212 118.167 155.231 118.007 155.247 117.846V117.846ZM155.513 115.784C155.523 115.977 155.506 116.174 155.49 116.366L155.479 116.454L155.317 116.48C155.374 116.242 155.428 116.005 155.513 115.784V115.784ZM155.444 120.427L155.43 120.425C155.461 120.325 155.486 120.223 155.513 120.122C155.512 120.126 155.51 120.129 155.51 120.133C155.512 120.129 155.513 120.126 155.513 120.122C155.493 120.204 155.47 120.303 155.448 120.407C155.447 120.413 155.446 120.419 155.444 120.427ZM155.638 119.662V119.66L155.64 119.664V119.665L155.605 119.783L155.61 119.767L155.605 119.783L155.638 119.662ZM156.028 113.444C156.053 113.542 156.11 113.633 156.21 113.69L156.269 113.722C156.166 113.723 156.062 113.724 155.958 113.73C155.877 113.6 155.788 113.474 155.7 113.347C155.809 113.379 155.918 113.411 156.028 113.444ZM156.525 121.294L156.507 121.339L156.506 121.317L156.504 121.294H156.525ZM156.833 114.029C156.961 114.096 157.09 114.163 157.219 114.227L157.148 114.228L156.988 114.232C156.927 114.233 156.868 114.233 156.807 114.235C156.837 114.167 156.845 114.096 156.833 114.029V114.029ZM157.742 116.343C157.95 116.409 158.16 116.467 158.37 116.528C158.291 116.59 158.216 116.653 158.14 116.717C157.947 116.748 157.754 116.782 157.561 116.818C157.622 116.66 157.685 116.502 157.742 116.343ZM159.129 117.338C159.158 117.335 159.187 117.332 159.216 117.329C159.245 117.326 159.276 117.322 159.305 117.318L159.301 117.324L159.29 117.349L159.162 117.352L159.129 117.353H159.127L159.129 117.338ZM160.923 116.329L160.983 116.342L160.972 116.349C160.628 116.293 160.286 116.23 159.947 116.157C160.274 116.205 160.599 116.262 160.923 116.329V116.329ZM160.933 114.898C160.704 114.839 160.472 114.788 160.241 114.742L160.127 114.702C160.11 114.635 160.088 114.573 160.062 114.512C160.354 114.641 160.645 114.767 160.933 114.898V114.898ZM161.164 117.222C161.086 117.496 161.098 117.785 161.243 118.049L161.155 118.027C161.141 117.809 161.113 117.594 161.065 117.38L161.164 117.222ZM161.534 120.855L161.6 120.801L161.625 120.887C161.589 120.979 161.55 121.069 161.511 121.159C161.515 121.058 161.521 120.956 161.534 120.855ZM161.855 122.181C161.846 122.261 161.844 122.341 161.836 122.419L161.674 122.504C161.733 122.396 161.798 122.292 161.855 122.181ZM162.134 117.005C162.185 116.96 162.242 116.925 162.3 116.893L162.39 116.995C162.322 117.028 162.252 117.061 162.187 117.109C162.066 117.202 162.02 117.346 162.042 117.48C161.985 117.516 161.93 117.554 161.879 117.594C161.845 117.385 161.968 117.147 162.134 117.005V117.005ZM162.694 115.712C162.887 115.804 163.08 115.9 163.273 115.995C163.136 115.986 163 115.986 162.868 115.994C162.783 115.985 162.7 115.977 162.615 115.973C162.667 115.898 162.696 115.804 162.694 115.712V115.712ZM163.37 118.159L163.376 118.248L163.348 118.316C163.264 118.339 163.174 118.381 163.079 118.438C163.096 118.335 163.106 118.233 163.12 118.129L163.149 118.066C163.218 118.083 163.289 118.1 163.36 118.115L163.37 118.159ZM162.138 119.248C162.159 119.185 162.179 119.12 162.196 119.058C162.18 119.125 162.163 119.191 162.147 119.256L162.138 119.248ZM160.356 122.578L160.361 122.569C160.416 122.494 160.464 122.414 160.519 122.339C160.591 122.47 160.654 122.604 160.699 122.702L160.629 122.813C160.543 122.732 160.449 122.656 160.356 122.578V122.578ZM159.974 121.153L159.96 121.155L159.95 121.156L159.96 121.142L159.965 121.135L159.967 121.138L159.975 121.153H159.974ZM157.991 118.625L157.968 118.641L157.939 118.661V118.66L157.938 118.661L157.939 118.651V118.642V118.641L157.955 118.636L157.991 118.624L157.99 118.625H157.991ZM154.554 113.214L154.535 113.235L154.526 113.246L154.488 113.226L154.437 113.202V113.201L154.439 113.195L154.49 113.209L154.554 113.213L154.552 113.214H154.554ZM161.785 123.346L161.778 123.341L161.767 123.304L161.785 123.297V123.346ZM157.187 124.256C157.203 124.313 157.224 124.368 157.248 124.418L157.091 124.336L157.187 124.256ZM157.113 122.641L157.128 122.626V122.627H157.129L157.13 122.635L157.136 122.66L157.113 122.641V122.641ZM155.501 123.348L155.48 123.404C155.397 123.365 155.311 123.336 155.227 123.301C155.32 123.325 155.411 123.341 155.501 123.348ZM155.093 121.773C154.952 121.759 154.816 121.727 154.683 121.692C154.864 121.636 155.048 121.575 155.232 121.527C155.184 121.607 155.138 121.689 155.093 121.773V121.773ZM154.807 123.132C154.696 123.091 154.58 123.062 154.467 123.028C154.407 122.979 154.345 122.932 154.288 122.881C154.254 122.851 154.176 122.793 154.096 122.728C154.278 122.751 154.461 122.749 154.647 122.731C154.609 122.888 154.673 123.041 154.807 123.132V123.132ZM153.755 120.66L153.77 120.625L153.778 120.634V120.636L153.774 120.667H153.773L153.763 120.663L153.755 120.661V120.66ZM153.156 118.914C153.15 118.977 153.14 119.041 153.134 119.104C152.964 119.114 152.795 119.127 152.627 119.146C152.806 119.076 152.982 119 153.156 118.914V118.914ZM153.486 116.932L153.458 117.069L153.356 117.095C153.426 117.05 153.463 116.993 153.486 116.932V116.932ZM153.538 116.539L153.572 116.589C153.552 116.671 153.528 116.754 153.508 116.837C153.511 116.782 153.501 116.728 153.478 116.675L153.504 116.562L153.538 116.539ZM153.581 115.728L153.559 115.861L153.542 115.854L153.531 115.849L153.581 115.726V115.728V115.728ZM150.095 118.365L150.069 118.392C150.005 118.379 149.938 118.366 149.872 118.355L149.977 118.315L150.095 118.365ZM149.107 116.338C149.167 116.219 149.226 116.099 149.284 115.98C149.25 116.109 149.216 116.238 149.179 116.366L149.107 116.338ZM149.478 120.602C149.404 120.611 149.341 120.642 149.289 120.689C149.184 120.623 149.077 120.558 148.972 120.491C149.141 120.529 149.308 120.566 149.478 120.602V120.602ZM148.776 116.965C148.844 116.995 148.912 117.023 148.985 117.048C148.965 117.118 148.945 117.19 148.922 117.262C148.818 117.262 148.712 117.27 148.606 117.283C148.663 117.176 148.72 117.072 148.776 116.965ZM148.85 113.326C148.82 113.429 148.791 113.534 148.759 113.638C148.684 113.875 148.603 114.109 148.517 114.342C148.552 114.226 148.531 114.121 148.479 114.036C148.603 113.799 148.727 113.563 148.85 113.326ZM149.558 119.385C149.83 119.33 150.1 119.255 150.363 119.149L150.431 119.109L150.434 119.204C150.156 119.312 149.857 119.373 149.558 119.385ZM149.749 120.656L149.801 120.668L149.834 120.674H149.833H149.834L149.812 120.684L149.81 120.683L149.749 120.657H149.751L149.749 120.656ZM153.065 120.371L153.064 120.439L153.063 120.441V120.451L152.91 120.41L153.065 120.371ZM144.816 119.776C148.717 121.875 152.689 123.835 156.702 125.707C156.708 125.711 156.714 125.713 156.721 125.717C157.649 126.149 158.576 126.583 159.509 127.005C159.509 127.005 159.51 127.005 159.51 127.006C159.605 126.866 159.698 126.727 159.79 126.59C161.41 124.165 162.9 121.613 164.312 119.012L164.309 119.011L164.298 119.005C164.241 118.859 164.174 118.726 164.094 118.614C164.106 118.546 164.118 118.475 164.122 118.406C164.151 118.346 164.18 118.285 164.204 118.224L164.309 118.228L164.31 118.229L164.343 118.299C164.321 118.479 164.317 118.659 164.322 118.817C164.324 118.863 164.332 118.909 164.338 118.955C164.339 118.957 164.339 118.959 164.339 118.961C164.673 118.343 165.003 117.724 165.328 117.102C165.384 117.152 165.444 117.196 165.496 117.248C165.443 117.196 165.383 117.151 165.327 117.101C165.257 117.04 165.19 116.976 165.117 116.919C165.197 116.96 165.277 117.001 165.358 117.044C165.511 117.123 165.665 117.202 165.818 117.283C165.665 117.202 165.512 117.123 165.359 117.044C165.474 116.823 165.591 116.603 165.705 116.382C166.546 116.819 167.382 117.268 168.204 117.738C167.382 117.267 166.545 116.819 165.704 116.381C165.239 116.138 164.774 115.895 164.304 115.662C161.612 114.326 158.849 113.137 156.058 112.026C154.685 111.48 153.305 110.953 151.922 110.436C151.217 110.174 150.513 109.908 149.806 109.655C149.523 109.555 149.274 109.528 149.058 109.6C148.866 109.664 148.699 109.804 148.56 110.045C148.162 110.74 147.862 111.512 147.532 112.242C147.187 113.004 146.849 113.77 146.522 114.54C145.855 116.107 145.226 117.687 144.63 119.28C144.598 119.364 144.598 119.444 144.616 119.52C144.642 119.624 144.706 119.716 144.816 119.776" fill="#816DD1"/>
<path d="M168.522 122.189C168.534 122.117 168.547 122.007 168.561 121.876C168.569 121.789 168.576 121.695 168.584 121.59C168.666 121.57 168.748 121.544 168.822 121.508C168.782 121.608 168.742 121.709 168.701 121.81C168.632 121.987 168.563 122.165 168.493 122.342L168.522 122.189ZM166.107 125.935C165.689 127.112 164.967 128.39 163.559 128.447C163.542 128.447 163.525 128.447 163.508 128.447C163.054 128.447 162.717 128.197 162.558 127.862C162.413 127.706 162.311 127.508 162.279 127.282C162.18 126.572 162.368 125.886 162.61 125.223C162.825 124.633 163.058 124.045 163.297 123.464C163.763 122.321 164.298 121.215 164.965 120.174C165.154 119.881 165.353 119.545 165.603 119.276C165.558 119.286 165.514 119.295 165.469 119.306C165.45 119.209 165.429 119.111 165.404 119.014C165.494 119.078 165.586 119.139 165.679 119.198C165.87 119.011 166.09 118.864 166.357 118.801C166.447 118.779 166.538 118.768 166.626 118.768C166.686 118.768 166.743 118.783 166.8 118.793C166.799 118.79 166.799 118.788 166.798 118.787C166.841 118.794 166.885 118.801 166.929 118.81C166.935 118.811 166.94 118.816 166.946 118.817C167.31 118.885 167.672 118.974 168.028 119.087C167.934 119.162 167.865 119.261 167.82 119.374C167.716 119.267 167.598 119.196 167.475 119.144C167.57 119.244 167.65 119.363 167.708 119.498C167.822 119.762 167.842 120.083 167.843 120.368C167.85 121.596 167.447 122.794 167.014 123.931C166.753 124.617 166.447 125.285 166.107 125.935V125.935ZM165.799 128.73L165.761 128.607L165.859 128.634L165.799 128.73ZM160.77 125.564C160.812 125.657 160.858 125.746 160.901 125.836C160.801 125.773 160.699 125.709 160.595 125.648C160.655 125.624 160.712 125.593 160.77 125.564V125.564ZM162.89 123.412L162.873 123.421C162.866 123.329 162.86 123.237 162.851 123.146C162.864 123.234 162.876 123.323 162.89 123.412V123.412ZM168.774 120.521C168.737 120.62 168.675 120.706 168.591 120.769C168.586 120.675 168.579 120.581 168.568 120.489C168.636 120.506 168.706 120.516 168.774 120.521ZM170.031 118.835C169.496 118.399 168.803 118.082 168.204 117.739C167.382 117.269 166.546 116.82 165.705 116.382C165.591 116.603 165.474 116.823 165.359 117.044C165.512 117.123 165.665 117.202 165.818 117.283C165.746 117.283 165.678 117.288 165.61 117.298L165.496 117.248C165.444 117.196 165.384 117.152 165.328 117.102C165.003 117.724 164.673 118.343 164.339 118.961L164.347 119.032L164.312 119.012C162.9 121.613 161.41 124.166 159.79 126.59C159.698 126.728 159.605 126.866 159.51 127.007C159.51 127.007 159.509 127.008 159.507 127.009C160.332 127.383 161.16 127.747 161.987 128.115C162.131 128.179 162.276 128.244 162.42 128.307C162.748 128.453 163.075 128.602 163.404 128.747C163.851 128.941 164.298 129.137 164.747 129.328C165.064 129.466 165.396 129.647 165.755 129.592C166.125 129.534 166.359 129.27 166.512 128.953C166.579 128.937 166.635 128.892 166.682 128.832C166.703 128.806 166.726 128.784 166.74 128.748C167.758 126.182 168.776 123.617 169.792 121.052C169.891 120.8 169.992 120.548 170.092 120.297C170.296 119.783 170.545 119.254 170.031 118.835" fill="#6047C0"/>
<path d="M187.148 47.5278L187.14 47.5291L187.137 47.5238L187.148 47.5278ZM190.28 49.3986L190.2 49.3599L190.28 49.3986ZM191.028 49.2106L191.023 49.2119V49.2079L191.028 49.2106ZM192.091 52.7963C191.967 52.7723 191.954 52.6442 191.992 52.4829C192.018 52.5896 192.051 52.6949 192.091 52.7963ZM188.056 49.4173C188.155 49.3839 188.257 49.3546 188.357 49.3239L188.356 49.3573V49.3706L188.207 49.4613L188.053 49.4226L188.056 49.4173ZM190.98 51.0908C191.023 51.0348 191.072 50.9761 191.126 50.9161L191.208 50.9388C191.066 51.0641 190.93 51.1974 190.804 51.3375C190.862 51.2455 190.928 51.1588 190.98 51.0908V51.0908ZM192.687 52.1242C192.695 52.1789 192.7 52.2335 192.707 52.2882L192.684 52.1615L192.687 52.1242ZM193.307 51.0508H193.323C193.319 51.1574 193.283 51.2855 193.238 51.4081L193.196 51.3175C193.268 51.2441 193.307 51.1481 193.307 51.0508ZM193.759 52.0495C193.701 52.3242 193.586 52.5909 193.477 52.7843C193.475 52.7269 193.474 52.6602 193.47 52.5829C193.583 52.4082 193.681 52.2255 193.759 52.0495ZM194.411 50.9694L194.401 51.0134L194.374 50.9481L194.411 50.9694ZM188.872 52.6576C188.884 52.6616 188.895 52.6669 188.905 52.6723C189.236 52.8243 189.564 52.9776 189.894 53.131C189.904 53.1363 189.915 53.1403 189.924 53.1456C190.222 53.2843 190.518 53.4217 190.814 53.559C190.975 53.6337 191.136 53.7057 191.296 53.779C191.964 54.0844 192.632 54.3871 193.31 54.6724C193.641 54.8125 193.926 54.5831 194.001 54.3151C194.275 53.703 194.55 53.091 194.825 52.4776C194.966 52.1655 195.105 51.8535 195.245 51.5415C195.361 51.2868 195.497 51.0294 195.438 50.7414C195.325 50.1827 194.577 49.9347 194.139 49.696C193.526 49.3599 192.904 49.0372 192.279 48.7252C191.002 48.0878 189.701 47.4998 188.38 46.961C187.732 46.697 187.08 46.445 186.421 46.205C186.118 46.0943 185.814 45.9863 185.509 45.8809C185.226 45.7823 184.893 45.6076 184.586 45.6516C184.281 45.6943 184.113 45.9236 183.976 46.177C183.905 46.3077 183.84 46.4397 183.77 46.5703C184.844 46.8464 185.86 47.2984 186.772 48.0772C188.331 49.4066 188.877 50.9921 188.872 52.6576" fill="#563AC2"/>
<path d="M191.027 49.2111L191.023 49.2089V49.2122L191.027 49.2111" fill="#563AC2"/>
<path d="M151.983 131.239L152.124 131.252L151.994 131.359C151.858 131.591 151.732 131.826 151.603 132.061C151.729 131.787 151.856 131.512 151.983 131.239V131.239ZM149.706 136.491L149.61 136.401C149.641 136.333 149.671 136.265 149.703 136.196C149.681 136.27 149.698 136.344 149.736 136.406L149.706 136.491ZM152.828 132.452C152.856 132.391 152.884 132.33 152.912 132.269C153.044 131.982 152.602 131.769 152.469 132.057C152.308 132.404 152.148 132.753 151.988 133.101L151.992 133.092L152.002 133.004C152.209 132.558 152.408 132.109 152.594 131.654C152.646 131.525 152.586 131.415 152.497 131.353C152.659 131.415 152.815 131.496 152.963 131.604C153.215 131.79 153.541 131.42 153.286 131.233C152.839 130.906 152.363 130.747 151.811 130.736C151.728 130.735 151.643 130.803 151.609 130.876C151.338 131.456 151.077 132.042 150.808 132.625C149.751 134.908 148.71 137.199 147.684 139.496C147.692 139.498 147.699 139.5 147.707 139.501C147.947 139.554 148.186 139.606 148.427 139.662C148.753 139.734 149.08 139.806 149.406 139.879C150.412 137.698 151.416 135.516 152.421 133.334C152.555 133.045 152.688 132.755 152.822 132.465C152.824 132.46 152.826 132.455 152.828 132.452" fill="#7058CF"/>
<path d="M162.715 106.881L162.842 106.934C163.673 107.273 164.505 107.619 165.333 107.967C165.623 108.091 165.827 107.644 165.536 107.519C161.184 105.692 156.795 103.95 152.376 102.296C152.306 102.444 152.236 102.592 152.169 102.741C155.706 104.062 159.222 105.445 162.715 106.881" fill="#4A32AB"/>
<path d="M163.102 103.727C163.391 103.857 163.593 103.409 163.303 103.279C160.18 101.853 157.018 100.522 153.814 99.2893C153.809 99.3003 153.804 99.31 153.798 99.3209C153.732 99.4569 153.666 99.5941 153.6 99.7313C156.807 100.965 159.975 102.299 163.102 103.727" fill="#4A32AB"/>
<path d="M165.781 100.507L165.806 100.518C166.473 100.823 167.138 101.136 167.795 101.454C168.079 101.59 168.28 101.142 167.996 101.006C167.247 100.647 166.494 100.29 165.736 99.9448L165.591 99.8792C162.304 98.3687 158.955 96.9882 155.558 95.7485C155.485 95.8942 155.412 96.0411 155.342 96.1892C158.88 97.4824 162.363 98.9236 165.781 100.507Z" fill="#4A32AB"/>
<path d="M158.409 93.45L158.496 93.4865C160.54 94.368 162.561 95.3041 164.554 96.2961C164.838 96.4382 165.04 95.9902 164.757 95.8481C162.747 94.8488 160.711 93.9066 158.653 93.0214L158.635 93.0129C158.173 92.8162 157.715 92.6207 157.252 92.4289C157.175 92.5746 157.1 92.7203 157.026 92.8672C157.488 93.0603 157.947 93.2533 158.409 93.45Z" fill="#4A32AB"/>
<path d="M167.349 88.7948C167.631 88.9429 167.83 88.4936 167.552 88.3467C165.434 87.2382 163.29 86.1854 161.118 85.1922C161.039 85.3355 160.96 85.48 160.88 85.6233C163.064 86.6226 165.221 87.6813 167.349 88.7948" fill="#4A32AB"/>
<path d="M167.277 122.988L167.259 122.913L167.294 122.881L167.277 122.988ZM165.831 123.166L165.779 123.206L165.789 123.166L165.834 123.159L165.831 123.166ZM162.741 126.151L162.76 126.013L162.788 126.037C162.858 126.094 162.932 126.118 163.005 126.122C162.917 126.13 162.828 126.147 162.741 126.152V126.151ZM162.901 124.515C163.007 124.474 163.111 124.429 163.216 124.385L163.244 124.423C163.253 124.523 163.268 124.622 163.279 124.722C163.199 124.762 163.121 124.803 163.04 124.842C162.995 124.755 162.952 124.665 162.9 124.581L162.901 124.515ZM163.395 125.737C163.395 125.736 163.395 125.733 163.395 125.732C163.406 125.827 163.416 125.921 163.43 126.016L163.443 126.071C163.314 126.093 163.187 126.101 163.058 126.116C163.239 126.093 163.395 125.934 163.395 125.737V125.737ZM163.375 125.546C163.379 125.583 163.383 125.619 163.387 125.656C163.385 125.642 163.381 125.63 163.377 125.617L163.352 125.555L163.375 125.546ZM165.801 121.36C165.734 121.405 165.671 121.457 165.614 121.52L165.501 121.67L165.48 121.55C165.588 121.487 165.695 121.424 165.801 121.36ZM166.081 121.193C166.276 121.072 166.523 120.88 166.781 120.751C166.673 120.887 166.561 121.018 166.446 121.148C166.344 121.161 166.244 121.175 166.146 121.193C166.075 121.207 166.017 121.237 165.971 121.276L165.852 121.329C165.927 121.284 166.005 121.241 166.081 121.193ZM167.206 122.126C167.206 122.16 167.189 122.197 167.151 122.238L167.136 122.257C167.134 122.168 167.134 122.081 167.13 121.992C167.177 122.03 167.207 122.075 167.206 122.126V122.126ZM167.44 121.29L167.399 121.267L167.432 121.216L167.438 121.225L167.44 121.29ZM164.651 127.648C164.547 127.584 164.443 127.521 164.339 127.455C164.417 127.454 164.496 127.451 164.572 127.448C164.599 127.515 164.627 127.58 164.651 127.648ZM162.428 127.499L162.435 127.498L162.597 127.574C162.539 127.55 162.484 127.524 162.428 127.499V127.499ZM167.843 120.368C167.842 120.084 167.823 119.762 167.708 119.498C167.65 119.364 167.57 119.245 167.475 119.144C167.473 119.141 167.472 119.138 167.47 119.135C167.31 119.068 167.139 119.042 166.96 119.039L166.886 119.005C166.861 118.937 166.832 118.867 166.8 118.793C166.743 118.783 166.686 118.769 166.627 118.769C166.538 118.769 166.447 118.779 166.357 118.801C166.09 118.864 165.87 119.011 165.679 119.198C165.678 119.198 165.678 119.2 165.677 119.2C165.7 119.214 165.723 119.229 165.746 119.243C165.699 119.254 165.652 119.265 165.604 119.275L165.603 119.276C165.353 119.546 165.154 119.881 164.965 120.175C164.298 121.215 163.763 122.321 163.297 123.464C163.058 124.045 162.825 124.633 162.61 125.223C162.368 125.886 162.18 126.572 162.28 127.283C162.311 127.508 162.413 127.706 162.558 127.862C162.717 128.197 163.054 128.447 163.508 128.447C163.525 128.447 163.542 128.447 163.559 128.447C164.967 128.39 165.689 127.113 166.107 125.935C166.447 125.285 166.753 124.617 167.014 123.931C167.447 122.794 167.85 121.596 167.843 120.368" fill="#A495DC"/>
<path d="M159.414 130.884L159.406 130.883H159.404L159.414 130.873V130.884ZM159.203 129.769L159.3 129.712L159.31 129.798L159.203 129.769ZM158.959 131.677L158.977 131.546L159.124 131.595C159.069 131.622 159.015 131.649 158.959 131.677V131.677ZM161.92 129.577L161.879 129.497L161.847 129.455C161.8 129.395 161.716 129.299 161.657 129.25L161.512 129.156C161.464 129.125 161.404 129.081 161.347 129.058C161.149 128.975 160.939 128.938 160.728 128.938C160.399 128.938 160.067 129.027 159.776 129.173C159.567 129.279 159.351 129.392 159.154 129.519C159.02 129.607 158.894 129.723 158.785 129.837L158.711 129.927C158.646 130.027 158.571 130.13 158.529 130.243C158.502 130.311 158.482 130.382 158.465 130.454C158.429 130.54 158.404 130.629 158.387 130.718C158.291 131.235 158.629 131.78 159.105 131.974C159.176 132.003 159.248 132.027 159.323 132.042C159.429 132.081 159.544 132.119 159.655 132.135C159.732 132.146 159.811 132.15 159.89 132.15C160.132 132.15 160.375 132.099 160.594 132.007C160.814 131.915 161.035 131.795 161.226 131.649C161.418 131.502 161.603 131.332 161.755 131.141C161.857 131.013 161.942 130.869 162.028 130.729C162.242 130.379 162.164 129.934 161.946 129.609L161.92 129.577Z" fill="#A093D6"/>
<path d="M159.405 130.883L159.414 130.884V130.874L159.404 130.883H159.405" fill="#A99CDA"/>
<path d="M153.936 153.281C153.474 153.222 153.01 153.158 152.551 153.089C152.421 153.071 152.294 153.053 152.164 153.035C152.05 153.018 151.936 153.003 151.823 152.981C150.894 152.848 149.966 152.697 149.043 152.542C148.903 152.52 148.767 152.497 148.628 152.472C148.525 152.454 148.421 152.438 148.319 152.417C147.431 152.266 146.55 152.103 145.668 151.931C145.425 151.888 145.187 151.84 144.947 151.791C143.988 151.603 143.027 151.404 142.074 151.194C141.866 151.149 141.657 151.104 141.45 151.057L141.354 151.037C140.427 150.826 139.495 150.621 138.569 150.396C138.331 150.338 138.092 150.278 137.854 150.216C137.36 150.091 136.87 149.958 136.382 149.818C136.071 151.069 135.799 152.33 135.558 153.597C135.943 153.691 136.329 153.787 136.715 153.882C139.484 154.561 142.252 155.242 145.02 155.922C146.75 156.347 148.48 156.772 150.209 157.197C150.465 157.26 150.62 157.415 150.696 157.602C150.766 157.738 150.796 157.904 150.752 158.093C150.617 158.69 150.481 159.289 150.343 159.885C149.643 162.915 148.917 165.939 148.181 168.959C147.335 172.436 142.894 190.476 142.018 193.945C141.169 197.306 140.308 200.664 139.425 204.018C139.045 205.458 138.662 206.897 138.271 208.333C137.854 209.863 137.495 211.439 136.892 212.909C136.634 213.536 136.287 214.112 135.86 214.624C135.867 214.622 135.875 214.619 135.882 214.617C136.95 214.237 137.968 213.671 138.887 213.001C139.323 212.683 139.739 212.339 140.146 211.983C140.483 210.832 140.777 209.667 141.09 208.518C141.609 206.612 142.118 204.703 142.62 202.794C143.791 198.349 144.933 193.895 146.058 189.438C147.22 184.838 151.942 165.667 153.065 161.057C153.683 158.518 154.293 155.975 154.895 153.433C154.781 153.418 154.668 153.401 154.555 153.383C154.341 153.348 154.131 153.307 153.936 153.281" fill="#EFEBFF"/>
<path d="M135.882 214.617C135.882 214.617 135.883 214.617 135.883 214.617C135.824 214.689 135.757 214.753 135.694 214.821C135.637 214.883 135.583 214.948 135.523 215.007C135.35 215.181 135.168 215.346 134.968 215.496C134.186 216.089 133.229 216.446 132.271 216.635C130.068 217.069 127.783 216.91 125.726 215.982C124.007 215.207 122.177 213.947 121.333 212.206C120.401 210.281 120.845 208.215 121.271 206.221C121.888 203.331 122.543 200.45 123.209 197.572C124.01 194.109 124.83 190.651 125.662 187.197C126.487 183.779 130.904 165.795 131.758 162.384C132.462 159.571 133.175 156.76 133.92 153.958C134.023 153.569 134.422 153.318 134.816 153.415L135.558 153.597C135.799 152.331 136.071 151.069 136.382 149.819C136.009 149.71 135.638 149.601 135.269 149.481C135.077 149.42 134.888 149.357 134.698 149.29L134.565 149.244C134.014 149.051 133.472 148.841 132.94 148.606C132.803 148.545 132.659 148.485 132.513 148.42C132.443 148.389 132.372 148.357 132.302 148.324C131.962 149.662 131.623 151 131.287 152.338C130.155 156.862 129.045 161.391 127.952 165.924C126.847 170.505 122.181 189.656 121.119 194.248C120.236 198.064 119.367 201.884 118.549 205.716C117.985 208.361 117.396 211.1 118.632 213.651C119.751 215.96 122.177 217.631 124.456 218.658C127.184 219.888 130.214 220.1 133.136 219.524C134.405 219.274 135.674 218.799 136.712 218.015C137.882 217.13 138.708 215.934 139.262 214.582C139.449 214.127 139.616 213.663 139.772 213.194C139.846 212.972 139.913 212.747 139.982 212.524C140.038 212.342 140.099 212.161 140.152 211.979C140.15 211.98 140.148 211.983 140.146 211.984C139.739 212.34 139.322 212.683 138.887 213.001C137.968 213.671 136.95 214.237 135.882 214.617" fill="#F9EDE7"/>
<path d="M130.676 214.684C127.828 213.598 125.907 211.064 125.315 208.122C124.694 205.038 125.202 201.804 125.929 198.784C126.638 195.844 127.653 193.001 128.579 190.127C130.137 185.292 131.499 180.408 132.451 175.415C133.458 170.133 133.925 164.779 134.627 159.453C134.885 157.496 135.188 155.54 135.558 153.597L134.816 153.415C134.422 153.318 134.023 153.569 133.92 153.958C133.175 156.76 132.462 159.571 131.758 162.384C130.904 165.795 126.487 183.779 125.663 187.197C124.83 190.651 124.01 194.109 123.209 197.572C122.543 200.45 121.888 203.331 121.271 206.221C120.846 208.215 120.401 210.281 121.334 212.206C122.178 213.947 124.007 215.207 125.726 215.982C127.783 216.91 130.068 217.069 132.272 216.635C133.23 216.446 134.186 216.089 134.969 215.496C135.168 215.346 135.35 215.181 135.523 215.007C135.583 214.947 135.637 214.883 135.694 214.821C135.757 214.753 135.824 214.689 135.883 214.617C135.883 214.617 135.882 214.617 135.882 214.617C135.875 214.62 135.867 214.622 135.86 214.624C134.196 215.212 132.408 215.343 130.676 214.684" fill="#E42339"/>
<path d="M155.802 153.413C156.969 153.141 157.422 151.588 157.764 150.59C158.142 149.495 158.364 148.356 158.59 147.219C158.82 146.045 159.092 144.873 159.288 143.689C159.395 143.048 159.278 142.453 158.713 142.075C158.495 141.93 158.245 141.838 157.984 141.775C156.884 145.62 155.986 149.521 155.287 153.463C155.463 153.465 155.637 153.454 155.802 153.413" fill="#8E7FCB"/>
<path d="M135.253 136.735C135.014 136.679 134.774 136.627 134.533 136.575C133.634 140.412 132.736 144.246 131.837 148.084C131.983 148.174 132.142 148.251 132.302 148.324C132.373 148.356 132.443 148.389 132.514 148.42C133.427 144.524 134.34 140.629 135.253 136.735" fill="#6D5EAA"/>
<path d="M134.565 149.244L134.698 149.29C134.888 149.357 135.077 149.42 135.269 149.481C136.125 145.419 137.086 141.382 138.159 137.377C137.918 137.325 137.675 137.273 137.435 137.217C136.373 141.196 135.418 145.209 134.565 149.244Z" fill="#6D5EAA"/>
<path d="M137.854 150.216C138.091 150.278 138.33 150.338 138.569 150.396C139.732 146.35 140.804 142.278 141.779 138.184C141.54 138.131 141.299 138.076 141.06 138.023C140.965 138.418 140.866 138.811 140.771 139.205C139.874 142.896 138.903 146.568 137.854 150.216" fill="#6D5EAA"/>
<path d="M141.354 151.037L141.45 151.057C141.657 151.104 141.866 151.149 142.074 151.194C143.05 147.095 144.12 143.016 145.285 138.963C145.045 138.909 144.802 138.855 144.562 138.803C143.401 142.856 142.33 146.938 141.354 151.037" fill="#6D5EAA"/>
<path d="M144.947 151.792C145.187 151.84 145.425 151.889 145.668 151.932C146.522 147.827 147.438 143.734 148.427 139.662C148.186 139.606 147.947 139.554 147.707 139.502C146.718 143.58 145.799 147.679 144.947 151.792" fill="#6D5EAA"/>
<path d="M148.319 152.417C148.421 152.439 148.525 152.455 148.628 152.473C148.767 152.497 148.903 152.52 149.044 152.542C149.867 148.477 150.69 144.412 151.51 140.345C151.274 140.291 151.034 140.238 150.793 140.186C149.968 144.265 149.142 148.338 148.319 152.417" fill="#6D5EAA"/>
<path d="M151.823 152.982C151.936 153.004 152.05 153.018 152.164 153.035C152.294 153.053 152.421 153.072 152.551 153.09C153.322 149.09 154.093 145.089 154.863 141.089C154.626 141.036 154.386 140.984 154.147 140.932C153.372 144.948 152.596 148.965 151.823 152.982Z" fill="#6D5EAA"/>
<path d="M154.555 153.384C154.668 153.402 154.781 153.419 154.895 153.434C155.026 153.45 155.157 153.462 155.287 153.463C155.986 149.522 156.884 145.62 157.984 141.775C157.747 141.709 157.498 141.666 157.262 141.621C156.156 145.492 155.253 149.42 154.555 153.384" fill="#6D5EAA"/>
</svg>
