<svg width="449" height="214" viewBox="0 0 449 214" fill="none" xmlns="http://www.w3.org/2000/svg">
<path d="M22.8842 213.058C22.9048 213.073 426.962 213.008 426.962 213.008C426.962 213.008 428.131 210.586 429.593 207.416C430.677 205.067 432.021 201.948 433.416 198.194V198.193C433.676 197.495 433.938 196.774 434.201 196.034C434.568 194.993 434.936 193.911 435.302 192.792C435.436 192.377 435.571 191.956 435.706 191.531C436.514 188.978 437.3 186.237 438.025 183.338C438.074 183.136 438.125 182.934 438.175 182.73C438.446 181.62 438.708 180.486 438.961 179.332C439.101 178.691 439.235 178.043 439.367 177.389L439.394 177.255C439.444 177.012 439.49 176.769 439.538 176.527C440.446 171.866 441.148 166.9 441.508 161.719C441.572 160.806 441.623 159.886 441.665 158.961C441.709 158.026 441.739 157.084 441.755 156.137C441.867 150.251 441.504 144.144 440.479 137.939C440.077 135.509 439.577 133.063 438.961 130.61C438.512 128.819 438.003 127.026 437.427 125.228C437.321 124.894 437.213 124.558 437.099 124.223C435.772 120.22 434.118 116.22 432.097 112.248C431.918 111.891 431.733 111.532 431.543 111.173C430.029 108.294 428.313 105.432 426.387 102.602C426.191 102.311 425.991 102.022 425.789 101.733C424.664 100.121 423.469 98.5211 422.198 96.9302C420.35 94.6128 418.338 92.3238 416.163 90.0647C413.15 86.9383 410.165 84.1026 407.203 81.5379C405.987 80.4773 404.772 79.4662 403.563 78.4969C402.528 77.664 401.493 76.8656 400.465 76.1016C400.408 76.0581 400.347 76.0147 400.29 75.9713C397.906 74.1991 395.545 72.5962 393.208 71.1461C392.731 70.851 392.256 70.5604 391.778 70.2757C389.483 68.908 387.209 67.6856 384.959 66.5966C384.467 66.3584 383.978 66.1277 383.489 65.903C368.094 58.8113 353.824 57.887 341.198 59.063C331.439 59.9708 322.662 62.1369 315.112 63.6799C314.617 63.7818 314.127 63.8806 313.642 63.9765C308.727 64.9427 304.363 65.5794 300.618 65.3322C294.641 64.9368 289.768 61.2606 284.531 55.8407C284.149 55.4452 283.767 55.0423 283.38 54.6288C280.329 51.3646 277.119 47.5581 273.474 43.5044C272.81 42.7659 272.129 42.0184 271.432 41.2634C270.055 39.7713 268.614 38.2538 267.098 36.7243C266.863 36.4877 266.628 36.254 266.391 36.0173C265.879 35.5079 265.356 34.9971 264.826 34.4863C264.592 34.2601 264.357 34.0339 264.119 33.8092C262.394 32.1733 260.574 30.5345 258.643 28.9091C250.307 21.8968 239.878 15.1377 226.076 9.96802L226.057 9.96054C220.226 7.77791 213.794 5.88139 206.665 4.36688C198.833 2.70407 190.419 1.46219 181.782 0.735641C179.7 0.560379 177.607 0.41507 175.504 0.301224C173.248 0.179886 170.983 0.0930023 168.715 0.0450592C167.355 0.0166016 165.992 0.00161743 164.63 0.00012207C161.259 -0.00437927 157.887 0.0765076 154.536 0.250275C153.347 0.310196 152.16 0.382111 150.978 0.466003C136.48 1.49515 122.512 4.27249 110.725 9.23846C102.458 12.7184 71.3117 28.2889 62.1732 54.6288C59.2869 62.9429 58.5945 72.328 61.5046 82.7453C71.8043 119.607 56.1223 124.194 36.5008 141.762C10.3119 165.206 1.87923 196.84 22.8842 213.058Z" fill="#F9F7FF"/>
<path d="M207.997 51.6436H186.79C185.817 51.6436 185.02 50.8466 185.02 49.8729V29.4053C185.02 28.4316 185.817 27.6361 186.79 27.6361H207.997C208.97 27.6361 209.767 28.4316 209.767 29.4053V49.8729C209.767 50.8466 208.97 51.6436 207.997 51.6436Z" fill="#CCBFFF"/>
<path d="M207.078 50.6038H187.708C186.819 50.6038 186.092 49.8757 186.092 48.9874V30.292C186.092 29.4036 186.819 28.6756 187.708 28.6756H207.078C207.966 28.6756 208.694 29.4036 208.694 30.292V48.9874C208.694 49.8757 207.966 50.6038 207.078 50.6038Z" fill="#E0F7F1"/>
<path d="M196.881 30.8676C196.881 30.5844 197.11 30.3537 197.393 30.3537C197.676 30.3537 197.906 30.5844 197.906 30.8676C197.906 31.1507 197.676 31.3799 197.393 31.3799C197.11 31.3799 196.881 31.1507 196.881 30.8676Z" fill="#C3B8F1"/>
<path d="M201.017 31.5907C201.155 31.3435 201.467 31.2551 201.714 31.3915C201.961 31.5293 202.051 31.8424 201.913 32.0895C201.775 32.3367 201.464 32.4251 201.216 32.2888C200.968 32.151 200.879 31.8379 201.017 31.5907Z" fill="#C3B8F1"/>
<path d="M204.56 34.407C204.798 34.2527 205.116 34.3216 205.269 34.5598C205.423 34.798 205.354 35.1141 205.116 35.2684C204.879 35.4212 204.562 35.3538 204.407 35.1156C204.254 34.8774 204.323 34.5598 204.56 34.407Z" fill="#C3B8F1"/>
<path d="M206.316 38.7649C206.599 38.7649 206.828 38.9941 206.828 39.2772C206.828 39.5603 206.599 39.7896 206.316 39.7896C206.033 39.7896 205.803 39.5603 205.803 39.2772C205.803 38.9941 206.033 38.7649 206.316 38.7649Z" fill="#C3B8F1"/>
<path d="M205.42 43.8207C205.619 44.0214 205.619 44.3465 205.42 44.5457C205.219 44.7465 204.896 44.7465 204.695 44.5457C204.494 44.3465 204.494 44.0214 204.695 43.8207C204.896 43.6214 205.219 43.6214 205.42 43.8207Z" fill="#C3B8F1"/>
<path d="M202.201 47.0493C202.401 47.2486 202.401 47.5737 202.201 47.7744C202 47.9736 201.676 47.9736 201.476 47.7744C201.275 47.5737 201.275 47.2486 201.476 47.0493C201.676 46.8486 202 46.8486 202.201 47.0493Z" fill="#C3B8F1"/>
<path d="M196.881 48.7118C196.881 48.4287 197.11 48.1995 197.393 48.1995C197.676 48.1995 197.906 48.4287 197.906 48.7118C197.906 48.9949 197.676 49.2241 197.393 49.2241C197.11 49.2241 196.881 48.9949 196.881 48.7118Z" fill="#C3B8F1"/>
<path d="M193.753 31.5907C193.615 31.3435 193.304 31.2551 193.057 31.3915C192.808 31.5293 192.719 31.8424 192.857 32.0895C192.994 32.3367 193.307 32.4251 193.554 32.2888C193.801 32.151 193.891 31.8379 193.753 31.5907Z" fill="#C3B8F1"/>
<path d="M190.209 34.407C189.972 34.2527 189.655 34.3216 189.5 34.5598C189.347 34.798 189.416 35.1141 189.653 35.2684C189.891 35.4212 190.209 35.3538 190.362 35.1156C190.516 34.8774 190.447 34.5598 190.209 34.407Z" fill="#C3B8F1"/>
<path d="M188.455 38.7649C188.172 38.7649 187.941 38.9941 187.941 39.2772C187.941 39.5603 188.172 39.7896 188.455 39.7896C188.738 39.7896 188.967 39.5603 188.967 39.2772C188.967 38.9941 188.738 38.7649 188.455 38.7649Z" fill="#C3B8F1"/>
<path d="M189.351 43.8207C189.15 44.0214 189.15 44.3465 189.351 44.5457C189.551 44.7465 189.875 44.7465 190.076 44.5457C190.275 44.3465 190.275 44.0214 190.076 43.8207C189.875 43.6214 189.551 43.6214 189.351 43.8207Z" fill="#C3B8F1"/>
<path d="M192.57 47.0493C192.369 47.2486 192.369 47.5737 192.57 47.7744C192.769 47.9736 193.094 47.9736 193.295 47.7744C193.494 47.5737 193.494 47.2486 193.295 47.0493C193.094 46.8486 192.769 46.8486 192.57 47.0493Z" fill="#C3B8F1"/>
<path d="M197.256 39.2772C197.256 38.9941 197.485 38.7649 197.768 38.7649C198.051 38.7649 198.28 38.9941 198.28 39.2772C198.28 39.5603 198.051 39.7896 197.768 39.7896C197.485 39.7896 197.256 39.5603 197.256 39.2772Z" fill="#C3B8F1"/>
<path d="M197.837 39.2766H197.697V32.8725H197.837V39.2766Z" fill="#C3B8F1"/>
<path d="M197.832 39.4329L197.573 39.1018L200.968 36.4368L201.227 36.7679L197.832 39.4329Z" fill="#C3B8F1"/>
<path d="M128.356 170.94H126.143V206.528H128.356V170.94Z" fill="#C3B4FF"/>
<path d="M175.226 198.471V196.258H126.143V198.471H175.226Z" fill="#C3B4FF"/>
<path d="M175.225 170.94H173.011V206.528H175.225V170.94Z" fill="#C3B4FF"/>
<path d="M158.849 170.94H156.635V206.528H158.849V170.94Z" fill="#C3B4FF"/>
<path d="M123.446 208.692C123.446 206.592 125.149 204.889 127.249 204.889C129.35 204.889 131.053 206.592 131.053 208.692C131.053 210.793 129.35 212.494 127.249 212.494C125.149 212.494 123.446 210.793 123.446 208.692Z" fill="#4A3797"/>
<path d="M125.129 208.692C125.129 207.521 126.078 206.571 127.249 206.571C128.421 206.571 129.37 207.521 129.37 208.692C129.37 209.862 128.421 210.812 127.249 210.812C126.078 210.812 125.129 209.862 125.129 208.692Z" fill="#C3B4FF"/>
<path d="M153.939 208.692C153.939 206.592 155.642 204.889 157.742 204.889C159.842 204.889 161.546 206.592 161.546 208.692C161.546 210.793 159.842 212.494 157.742 212.494C155.642 212.494 153.939 210.793 153.939 208.692Z" fill="#4A3797"/>
<path d="M155.621 208.692C155.621 207.521 156.571 206.571 157.742 206.571C158.914 206.571 159.862 207.521 159.862 208.692C159.862 209.862 158.914 210.812 157.742 210.812C156.571 210.812 155.621 209.862 155.621 208.692Z" fill="#C3B4FF"/>
<path d="M170.315 208.692C170.315 206.592 172.018 204.889 174.119 204.889C176.219 204.889 177.922 206.592 177.922 208.692C177.922 210.793 176.219 212.494 174.119 212.494C172.018 212.494 170.315 210.793 170.315 208.692Z" fill="#4A3797"/>
<path d="M171.997 208.692C171.997 207.521 172.947 206.571 174.119 206.571C175.29 206.571 176.238 207.521 176.238 208.692C176.238 209.862 175.29 210.812 174.119 210.812C172.947 210.812 171.997 209.862 171.997 208.692Z" fill="#C3B4FF"/>
<path d="M175.202 176.119H142.495V152.001H175.202V176.119Z" fill="#C3B4FF"/>
<path d="M158.849 176.119H126.143V152.001H158.849V176.119Z" fill="#D4C9FF"/>
<path d="M171.811 149.334V149.836C171.811 149.937 171.804 150.037 171.789 150.131C171.753 150.389 171.666 150.632 171.543 150.852C171.155 151.535 170.394 152.002 169.524 152.002H129.537C128.279 152.002 127.249 151.027 127.249 149.836V149.334C127.249 148.142 128.279 147.168 129.537 147.168H169.524C170.782 147.168 171.811 148.142 171.811 149.334Z" fill="#F37238"/>
<path d="M171.789 150.131C171.753 150.389 171.666 150.632 171.543 150.852C171.441 150.808 171.371 150.711 171.373 150.6C171.375 150.551 171.365 150.477 171.274 150.389C170.893 150.016 169.639 149.863 168.938 149.856H130.174C130.016 149.856 129.888 149.734 129.888 149.584C129.888 149.435 130.016 149.315 130.174 149.315H168.943C169.155 149.316 171.013 149.355 171.684 150.01C171.725 150.049 171.76 150.089 171.789 150.131Z" fill="#EA6529"/>
<path d="M169.365 144.5V145.002C169.365 145.057 169.364 145.113 169.358 145.17C169.337 145.448 169.265 145.712 169.15 145.953C168.808 146.671 168.09 147.168 167.268 147.168H130.611C129.458 147.168 128.514 146.193 128.514 145.002V144.5C128.514 143.308 129.458 142.333 130.611 142.333H167.268C168.421 142.333 169.365 143.308 169.365 144.5Z" fill="#F4D5AA"/>
<path d="M169.358 145.17C169.337 145.449 169.265 145.712 169.15 145.953C169.106 145.904 169.081 145.838 169.081 145.765C169.082 145.718 169.073 145.642 168.989 145.553C168.637 145.182 167.49 145.031 166.849 145.022H131.312C131.167 145.022 131.05 144.9 131.05 144.75C131.05 144.601 131.167 144.479 131.312 144.479H166.852C167.048 144.484 168.736 144.523 169.358 145.17Z" fill="#D9BB94"/>
<path d="M59.8382 115.927C59.8328 115.949 59.8237 115.96 59.8111 115.96C59.8183 115.943 59.8237 115.931 59.8273 115.922C59.8436 115.889 59.8471 115.889 59.8382 115.927Z" fill="#ADDED2"/>
<path d="M356.643 155.788V157.228C356.643 157.732 356.806 158.143 357.006 158.143H409.531C409.73 158.143 409.894 157.732 409.894 157.228V155.788C409.894 155.286 409.73 154.873 409.531 154.873H357.006C356.806 154.873 356.643 155.286 356.643 155.788Z" fill="#A594EA"/>
<path d="M356.643 155.788V157.228C356.643 157.732 356.793 158.143 356.976 158.143H398.675C398.858 158.143 399.007 157.732 399.007 157.228V155.788C399.007 155.286 398.858 154.873 398.675 154.873H356.976C356.793 154.873 356.643 155.286 356.643 155.788Z" fill="#CBBFFD"/>
<path d="M369.937 212.494H407.227V158.144H369.937V212.494Z" fill="#C3B4FF"/>
<path d="M359.488 212.494H396.777V158.144H359.488V212.494Z" fill="#D4C9FF"/>
<path d="M394.413 160.038H361.85V209.134H394.413V160.038ZM361.491 159.68H394.772V209.494H361.491V159.68Z" fill="#C3B4FF"/>
<path d="M361.671 176.518H394.593V176.158H361.671V176.518Z" fill="#C3B4FF"/>
<path d="M361.671 193.318H394.593V192.959H361.671V193.318Z" fill="#C3B4FF"/>
<path d="M374.759 162.891H380.868C381.164 162.891 381.407 162.649 381.407 162.352C381.407 162.055 381.164 161.813 380.868 161.813H374.759C374.462 161.813 374.22 162.055 374.22 162.352C374.22 162.649 374.462 162.891 374.759 162.891Z" fill="#C3B4FF"/>
<path d="M374.759 179.32H380.868C381.164 179.32 381.407 179.078 381.407 178.781C381.407 178.484 381.164 178.243 380.868 178.243H374.759C374.462 178.243 374.22 178.484 374.22 178.781C374.22 179.078 374.462 179.32 374.759 179.32Z" fill="#C3B4FF"/>
<path d="M374.759 196.448H380.868C381.164 196.448 381.407 196.205 381.407 195.908C381.407 195.612 381.164 195.369 380.868 195.369H374.759C374.462 195.369 374.22 195.612 374.22 195.908C374.22 196.205 374.462 196.448 374.759 196.448Z" fill="#C3B4FF"/>
<path d="M386.313 133.04C386.313 133.04 382.82 128.964 386.097 126.376C386.097 126.376 388.491 124.927 390.443 125.044C390.443 125.044 387.678 129.683 388.572 130.145C389.467 130.606 391.282 124.753 391.282 124.753C391.282 124.753 396.73 124.224 398.483 125.068C398.483 125.068 393.826 128.879 394.807 129.107C395.787 129.333 400.819 125.592 400.819 125.592C400.819 125.592 405.889 126.455 405.618 129.548C405.349 132.642 403.6 133.596 402.833 133.514C402.065 133.433 397.572 131.718 397.475 132.347C397.378 132.976 400.082 135.033 401.975 135.129C401.975 135.129 398.399 139.071 396.023 137.933C393.648 136.796 393.445 134.992 391.964 134.315C390.482 133.638 389.218 133.64 389.831 134.33C390.442 135.021 393.122 135.69 393.968 137.188C394.816 138.688 395.575 139.698 393.117 139.328C390.659 138.958 386.664 137.158 386.488 135.1C386.313 133.04 386.313 133.04 386.313 133.04Z" fill="#44D2B0"/>
<path d="M403.127 129.633C403.127 129.633 389.354 129.101 386.313 133.041C386.313 133.041 385.641 135.054 383.57 136.889L383.248 137.768C383.248 137.768 385.635 135.252 386.489 135.1C386.489 135.1 385.152 130.22 403.127 129.633Z" fill="#31C5A1"/>
<path d="M383.57 136.889C383.57 136.889 380.613 139.074 380.408 142.981L380.946 143.029C380.946 143.029 381.889 138.991 383.596 137.41C385.302 135.831 383.57 136.889 383.57 136.889Z" fill="#31C5A1"/>
<path d="M374.1 127.914C374.1 127.914 379.656 124.803 377.063 120.58C377.063 120.58 374.988 117.987 372.766 117.32C372.766 117.32 373.951 123.618 372.766 123.766C371.58 123.914 371.951 116.653 371.951 116.653C371.951 116.653 366.099 113.839 363.801 114.06C363.801 114.06 367.432 120.21 366.245 120.061C365.061 119.913 360.986 113.69 360.986 113.69C360.986 113.69 354.985 112.579 354.022 116.135C353.058 119.691 354.615 121.47 355.503 121.691C356.393 121.913 362.097 121.84 361.949 122.58C361.801 123.321 357.948 124.506 355.8 123.839C355.8 123.839 358.171 129.692 361.282 129.396C364.394 129.101 365.357 127.174 367.284 127.026C369.21 126.877 370.617 127.396 369.653 127.914C368.692 128.434 365.431 128.085 363.876 129.408C362.319 130.73 361.061 131.545 363.949 132.137C366.839 132.73 372.025 132.36 373.063 130.137C374.1 127.914 374.1 127.914 374.1 127.914Z" fill="#31C5A1"/>
<path d="M356.763 117.246C356.763 117.246 372.321 122.284 374.1 127.914C374.1 127.914 374.025 130.434 375.581 133.323V134.435C375.581 134.435 373.951 130.655 373.063 130.137C373.063 130.137 376.544 125.247 356.763 117.246Z" fill="#31C5A1"/>
<path d="M375.581 133.324C375.581 133.324 377.981 136.967 376.613 141.403L375.996 141.236C375.996 141.236 376.595 136.351 375.34 133.894C374.085 131.438 375.581 133.324 375.581 133.324Z" fill="#31C5A1"/>
<path d="M382.939 123.624C382.939 123.624 375.616 119.521 379.033 113.954C379.033 113.954 381.768 110.537 384.698 109.657C384.698 109.657 383.134 117.958 384.698 118.154C386.261 118.349 385.772 108.778 385.772 108.778C385.772 108.778 393.487 105.068 396.515 105.36C396.515 105.36 391.73 113.467 393.292 113.271C394.855 113.076 400.225 104.871 400.225 104.871C400.225 104.871 408.136 103.408 409.407 108.095C410.676 112.782 408.625 115.127 407.453 115.419C406.28 115.713 398.76 115.615 398.956 116.592C399.151 117.569 404.229 119.131 407.062 118.252C407.062 118.252 403.937 125.967 399.836 125.576C395.733 125.186 394.464 122.647 391.925 122.451C389.385 122.256 387.529 122.939 388.8 123.624C390.069 124.307 394.366 123.847 396.417 125.591C398.468 127.334 400.128 128.408 396.32 129.19C392.51 129.971 385.675 129.482 384.307 126.552C382.939 123.624 382.939 123.624 382.939 123.624Z" fill="#5EDEBF"/>
<path d="M405.792 109.56C405.792 109.56 385.284 116.201 382.939 123.624C382.939 123.624 383.037 126.943 380.986 130.753V132.218C380.986 132.218 383.134 127.237 384.307 126.552C384.307 126.552 379.717 120.108 405.792 109.56Z" fill="#50D1BA"/>
<path d="M380.986 130.753C380.986 130.753 377.824 135.556 379.627 141.403L380.441 141.184C380.441 141.184 379.65 134.744 381.305 131.505C382.961 128.266 380.986 130.753 380.986 130.753Z" fill="#54D2B4"/>
<path d="M382.692 154.08C390.617 154.08 397.041 147.657 397.041 139.732H368.344C368.344 147.657 374.769 154.08 382.692 154.08Z" fill="#C3B4FF"/>
<path d="M397.238 154.811H368.146C368.146 153.833 368.939 153.041 369.917 153.041H395.469C396.446 153.041 397.238 153.833 397.238 154.811Z" fill="#C3B4FF"/>
<path d="M397.367 140.172H367.874V139.732H397.367V140.172Z" fill="#CBBFFD"/>
<path d="M113.469 64.2568C113.469 64.2568 127.974 84.4233 124.773 92.5711C121.072 101.991 113.469 98.1782 113.469 98.1782V64.2568Z" fill="#C8BCF7"/>
<path d="M120.617 212.494H101.373C99.994 211.56 101.745 202.419 101.745 202.419C101.745 202.419 106.997 200.426 107.904 204.478C108.814 208.528 114.594 209.816 117.653 210.31C119.746 210.65 120.407 211.799 120.617 212.494Z" fill="#392C6B"/>
<path d="M92.0759 212.494H72.8321C71.4533 211.56 73.204 202.419 73.204 202.419C73.204 202.419 78.4563 200.426 79.3632 204.478C80.2731 208.528 86.053 209.816 89.1119 210.31C91.2051 210.65 91.8667 211.799 92.0759 212.494Z" fill="#392C6B"/>
<path d="M115.439 119.236C115.439 119.236 114.574 130.028 113.557 143.001C112.175 160.622 108.449 204.312 108.449 204.312C108.449 204.312 106.005 206.396 100.594 205.256C100.594 205.256 95.9869 190.184 94.6095 172.981C94.5881 172.699 94.5666 172.415 94.5454 172.131C93.2639 154.618 91.2713 117.741 91.2713 117.741L115.439 119.236Z" fill="#F37238"/>
<path d="M115.734 115.507C115.734 115.507 114.574 130.027 113.557 143L94.6095 172.98C94.5881 172.699 94.5666 172.414 94.5454 172.131C93.2639 154.618 91.2713 117.741 91.2713 117.741L115.734 115.507Z" fill="#EA6529"/>
<path d="M110.211 115.508C110.211 115.508 96.4692 149.715 92.076 162.681C88.9466 171.917 80.1214 204.318 80.1214 204.318C80.1214 204.318 76.2838 205.487 73.0584 203.229C73.0584 203.229 69.7751 170.126 76.4072 160.792C79.926 155.839 77.2816 109.313 91.5484 108.915C105.815 108.516 110.211 115.508 110.211 115.508Z" fill="#F37238"/>
<path d="M104.073 65.0805C101.975 66.1845 99.9279 66.2534 98.1528 65.8774C96.529 65.5359 95.1348 64.8183 94.1419 64.1847C93.1228 63.533 92.5238 62.9653 92.5238 62.9653C92.5238 62.9653 92.5946 62.8619 92.7141 62.6612C93.3337 61.6006 95.2132 57.7896 94.3771 51.6656C94.3659 51.5862 94.9724 51.7001 95.8889 51.9158C98.6158 52.5614 104.098 54.1164 104.34 54.1853H104.349C104.349 54.1853 104.417 55.4736 104.643 57.7821C104.661 57.9858 104.682 58.1985 104.704 58.4187C104.732 58.6899 104.76 58.976 104.794 59.2711C105.047 61.671 104.073 65.0805 104.073 65.0805Z" fill="#FCB494"/>
<path d="M104.642 57.7822C100.572 58.7154 94.4965 52.7054 94.4965 52.7054C94.9408 52.3758 95.4073 52.1136 95.8889 51.9159C98.6157 52.5615 104.097 54.1165 104.34 54.1854H104.349C104.349 54.1854 104.417 55.4737 104.642 57.7822Z" fill="#EF8B5E"/>
<path d="M117.588 109.746C117.292 113.668 116.463 116.474 114.646 116.474C114.646 116.474 106.573 119.317 96.9243 119.393C95.0385 119.407 92.3661 119.04 90.1517 118.668C87.8896 118.285 86.0973 117.898 86.0973 117.898C84.1569 117.452 82.0156 116.253 82.3034 114.041C82.4548 112.862 82.5654 111.35 82.6403 109.599C82.6454 109.487 82.6506 109.374 82.6556 109.261C82.8685 104.136 82.8344 97.0755 82.8599 90.3164C82.8786 86.1654 82.9194 82.1297 83.059 78.7246C83.059 78.7246 81.1544 65.3532 83.2684 63.1601C85.7466 60.5925 93.7516 59.8405 93.8913 59.8165C93.8913 59.8165 100.219 63.2365 104.824 60.6524C104.824 60.6524 111.537 62.2148 113.469 64.2567C114.136 64.9607 116.796 69.2766 116.87 74.0163C116.942 78.7666 116.828 83.9812 116.759 86.5384C116.728 87.6964 116.758 88.8513 116.849 90.0048C116.902 90.6714 116.961 91.3995 117.023 92.174C117.157 93.8563 117.307 95.7573 117.433 97.7406C117.496 98.7398 117.554 99.76 117.601 100.779C117.744 103.926 117.789 107.093 117.588 109.746Z" fill="#C8BCF7"/>
<path d="M106.025 53.8606C106.025 53.8606 104.352 54.4613 102.217 54.7489C99.0967 55.1699 94.9932 54.9212 93.7041 51.1447C91.5326 44.79 88.759 40.979 95.1487 38.3844C98.5693 36.9943 100.758 36.9209 102.244 37.4512C103.535 37.9081 104.297 38.8234 104.873 39.7267C106.114 41.6726 108.61 52.7476 106.025 53.8606Z" fill="#FCB494"/>
<path d="M105.357 35.8883C106.8 36.2389 107.45 38.5129 106.076 39.4581C103.613 41.1539 100.603 40.4873 99.4937 40.9816C97.9046 41.6872 97.6191 44.3537 97.5905 45.1986C97.5619 46.0465 97.4504 46.761 95.2924 46.2547C94.9387 46.1723 94.6839 46.1963 94.5086 46.3011C93.6134 46.8314 94.7574 49.4066 95.1024 49.9638C95.1024 49.9638 95.599 51.8079 94.4972 52.7052C94.3637 52.8131 92.1989 53.7598 86.9822 45.7753C86.1622 44.523 85.3793 41.6992 86.6457 38.9817C87.9104 36.2628 91.8223 32.8968 96.5169 32.8968C100.231 32.8968 102.303 35.1468 105.357 35.8883Z" fill="#332374"/>
<path d="M106.074 49.7574C106.074 49.7574 106.208 50.5798 104.295 51.236C104.295 51.236 102.689 51.7887 102.396 50.9439C102.396 50.9439 103.671 49.729 106.074 49.7574Z" fill="white"/>
<path d="M101.416 102.079C102.102 103.367 99.1521 105.064 99.1521 105.064C99.1521 105.064 90.9989 108.941 82.6403 109.599C82.6454 109.487 82.6507 109.374 82.6556 109.26C82.8685 104.136 82.8345 97.0753 82.8599 90.3162C82.8599 90.3162 100.285 99.9576 101.416 102.079Z" fill="#A898E8"/>
<path d="M116.732 95.8266C116.513 94.9937 115.925 94.3046 115.142 93.9421C114.145 93.4807 112.732 92.862 112.089 92.7451C111.039 92.5534 108.892 91.292 108.717 91.9482C108.542 92.6028 110.232 93.3638 110.24 94.0859C110.249 94.8079 105.494 96.5771 105.621 97.3276C105.747 98.0766 107.103 99.7544 108.945 99.3065C110.787 98.8586 115.364 97.786 116.42 97.4894C116.979 97.3321 116.923 96.5546 116.732 95.8266Z" fill="#EF8B5E"/>
<path d="M113.052 97.7484C112.796 98.1678 111.552 99.6284 110.694 99.7797C108.721 100.127 102.802 101.369 102.802 101.369C102.802 101.369 102.301 97.6331 103.28 97.3499C104.261 97.0683 105.533 94.8961 106.181 94.5141C106.672 94.2235 108.666 93.6093 109.941 93.5015C110.115 93.6962 110.238 93.8925 110.24 94.0857C110.242 94.2715 109.929 94.5291 109.463 94.8167C109.223 94.9501 109.001 95.0759 108.839 95.1823C108.645 95.3096 108.539 95.413 108.589 95.4714C108.827 95.756 109.625 95.6512 110.523 95.3785C111.423 95.1074 113.457 93.858 114.05 94.607C114.389 95.0355 114.275 95.75 113.052 97.7484Z" fill="#FCB494"/>
<path d="M90.9022 81.5996C90.9022 81.5996 90.7888 94.3209 103.281 97.3499C103.281 97.3499 87.0278 98.1888 86.6241 97.9866C86.2204 97.7859 83.4955 92.008 83.4955 92.008L90.9022 81.5996Z" fill="#A898E8"/>
<path d="M83.6365 62.8184C83.6365 62.8184 79.6638 65.5464 77.8364 74.2544C76.0091 82.9625 76.8607 100.021 79.2526 102.134C81.6445 104.249 93.196 106.161 104.727 101.071C104.727 101.071 104.186 98.2184 103.281 97.3496C103.281 97.3496 90.1899 94.2531 90.1225 92.2293C90.032 89.5059 91.5561 81.803 90.7343 77.4767C89.9125 73.1519 83.6365 62.8184 83.6365 62.8184Z" fill="#C8BCF7"/>
<path d="M115.385 92.2295C115.385 92.2295 115.97 89.7742 116.344 88.8544C117.506 85.9992 112.797 74.6741 113.402 75.0111C114.008 75.3467 119.582 86.8531 119.352 87.8612C119.121 88.8709 117.254 89.6049 115.385 92.2295Z" fill="#A898E8"/>
<path d="M271.396 176.275C267.705 176.275 263.331 174.576 258.359 171.209C253.623 168 248.329 163.274 242.625 157.162C232.474 146.286 224.389 134.648 223.218 132.808C222.484 131.655 221.393 128.801 220.012 125.188C218.15 120.318 215.833 114.255 213.225 109.262C210.214 103.495 207.432 100.43 204.954 100.15C203.994 100.042 203.21 100.261 202.626 100.8C201.327 102 201.393 104.4 201.393 104.424L201.013 104.436C201.01 104.331 200.942 101.838 202.368 100.521C203.036 99.9025 203.922 99.6509 204.997 99.7722C210.96 100.445 216.621 115.253 220.367 125.051C221.741 128.645 222.827 131.484 223.539 132.603C224.707 134.44 232.772 146.046 242.904 156.903C248.589 162.994 253.86 167.7 258.573 170.893C264.34 174.8 269.269 176.431 273.225 175.74L273.29 176.115C272.68 176.221 272.049 176.275 271.396 176.275Z" fill="#332374"/>
<path d="M340.129 94.6786H292.643L270.545 124.062H318.031L340.129 94.6786Z" fill="#D4C9FF"/>
<path d="M332.63 209.504H335.699V202.23H332.63V209.504Z" fill="#C3B4FF"/>
<path d="M308.755 209.504H311.826V202.23H308.755V209.504Z" fill="#C3B4FF"/>
<path d="M279.084 209.504H282.154V202.23H279.084V209.504Z" fill="#C3B4FF"/>
<path d="M318.031 124.063V202.808H340.129V94.6787L318.031 124.063Z" fill="#C3B4FF"/>
<path d="M318.031 202.808V124.063H270.545V202.808H318.031Z" fill="#CCC2F4"/>
<path d="M284.257 208.82C284.257 206.811 282.628 205.183 280.619 205.183C278.611 205.183 276.982 206.811 276.982 208.82C276.982 210.829 278.611 212.457 280.619 212.457C282.628 212.457 284.257 210.829 284.257 208.82Z" fill="#4A3797"/>
<path d="M282.979 208.82C282.979 207.517 281.921 206.46 280.62 206.46C279.316 206.46 278.26 207.517 278.26 208.82C278.26 210.123 279.316 211.179 280.62 211.179C281.921 211.179 282.979 210.123 282.979 208.82Z" fill="#C3B4FF"/>
<path d="M313.928 208.82C313.928 206.811 312.3 205.183 310.291 205.183C308.282 205.183 306.654 206.811 306.654 208.82C306.654 210.829 308.282 212.457 310.291 212.457C312.3 212.457 313.928 210.829 313.928 208.82Z" fill="#4A3797"/>
<path d="M312.65 208.82C312.65 207.517 311.594 206.46 310.291 206.46C308.988 206.46 307.932 207.517 307.932 208.82C307.932 210.123 308.988 211.179 310.291 211.179C311.594 211.179 312.65 210.123 312.65 208.82Z" fill="#C3B4FF"/>
<path d="M337.802 208.82C337.802 206.811 336.174 205.183 334.165 205.183C332.156 205.183 330.528 206.811 330.528 208.82C330.528 210.829 332.156 212.457 334.165 212.457C336.174 212.457 337.802 210.829 337.802 208.82Z" fill="#4A3797"/>
<path d="M336.525 208.82C336.525 207.517 335.469 206.46 334.165 206.46C332.862 206.46 331.806 207.517 331.806 208.82C331.806 210.123 332.862 211.179 334.165 211.179C335.469 211.179 336.525 210.123 336.525 208.82Z" fill="#C3B4FF"/>
<path d="M292.434 90.0513H340.129V54.4976H292.434V90.0513Z" fill="#4D4278"/>
<path d="M293.661 89.0193H338.902V55.6003H293.661V89.0193Z" fill="#4A3797"/>
<path d="M313.404 90.0511H318.031V94.6785H313.404V90.0511Z" fill="#C3B4FF"/>
<path d="M301.194 121.275H302.444L303.73 119.605H302.479L301.194 121.275Z" fill="#C3B4FF"/>
<path d="M298.582 121.275H299.833L301.119 119.605H299.866L298.582 121.275Z" fill="#C3B4FF"/>
<path d="M295.971 121.275H297.222L298.506 119.605H297.255L295.971 121.275Z" fill="#C3B4FF"/>
<path d="M293.359 121.275H294.611L295.895 119.605H294.644L293.359 121.275Z" fill="#C3B4FF"/>
<path d="M303.279 118.563H304.531L305.815 116.893H304.564L303.279 118.563Z" fill="#C3B4FF"/>
<path d="M300.668 118.563H301.919L303.204 116.893H301.951L300.668 118.563Z" fill="#C3B4FF"/>
<path d="M298.056 118.563H299.307L300.591 116.893H299.34L298.056 118.563Z" fill="#C3B4FF"/>
<path d="M295.444 118.563H296.696L297.98 116.893H296.729L295.444 118.563Z" fill="#C3B4FF"/>
<path d="M307.141 113.542H308.391L309.675 111.871H308.424L307.141 113.542Z" fill="#C3B4FF"/>
<path d="M304.528 113.542H305.779L307.064 111.871H305.813L304.528 113.542Z" fill="#C3B4FF"/>
<path d="M301.917 113.542H303.168L304.453 111.871H303.201L301.917 113.542Z" fill="#C3B4FF"/>
<path d="M299.306 113.542H300.557L301.841 111.871H300.59L299.306 113.542Z" fill="#C3B4FF"/>
<path d="M305.238 116.017H306.489L307.773 114.347H306.522L305.238 116.017Z" fill="#C3B4FF"/>
<path d="M302.626 116.017H303.878L305.162 114.347H303.911L302.626 116.017Z" fill="#C3B4FF"/>
<path d="M300.015 116.017H301.265L302.551 114.347H301.3L300.015 116.017Z" fill="#C3B4FF"/>
<path d="M297.403 116.017H298.654L299.938 114.347H298.687L297.403 116.017Z" fill="#C3B4FF"/>
<path d="M311.656 106.386H312.907L314.192 104.715H312.94L311.656 106.386Z" fill="#C3B4FF"/>
<path d="M309.044 106.386H310.295L311.579 104.715H310.328L309.044 106.386Z" fill="#C3B4FF"/>
<path d="M306.432 106.386H307.684L308.968 104.715H307.717L306.432 106.386Z" fill="#C3B4FF"/>
<path d="M303.821 106.386H305.072L306.357 104.715H305.106L303.821 106.386Z" fill="#C3B4FF"/>
<path d="M313.741 103.675H314.992L316.277 102.004H315.025L313.741 103.675Z" fill="#C3B4FF"/>
<path d="M311.13 103.675H312.381L313.664 102.004H312.414L311.13 103.675Z" fill="#C3B4FF"/>
<path d="M308.517 103.675H309.77L311.054 102.004H309.803L308.517 103.675Z" fill="#C3B4FF"/>
<path d="M305.906 103.675H307.157L308.443 102.004H307.192L305.906 103.675Z" fill="#C3B4FF"/>
<path d="M317.601 98.6531H318.854L320.137 96.9828H318.887L317.601 98.6531Z" fill="#C3B4FF"/>
<path d="M314.99 98.6531H316.241L317.527 96.9828H316.274L314.99 98.6531Z" fill="#C3B4FF"/>
<path d="M312.379 98.6531H313.63L314.914 96.9828H313.663L312.379 98.6531Z" fill="#C3B4FF"/>
<path d="M309.767 98.6531H311.019L312.303 96.9828H311.052L309.767 98.6531Z" fill="#C3B4FF"/>
<path d="M315.699 101.126H316.951L318.235 99.4559H316.984L315.699 101.126Z" fill="#C3B4FF"/>
<path d="M313.088 101.126H314.339L315.624 99.4559H314.372L313.088 101.126Z" fill="#C3B4FF"/>
<path d="M310.477 101.126H311.728L313.011 99.4559H311.761L310.477 101.126Z" fill="#C3B4FF"/>
<path d="M307.864 101.126H309.117L310.4 99.4559H309.15L307.864 101.126Z" fill="#C3B4FF"/>
<path d="M314.399 119.594H314.403C315.527 119.611 316.71 119.239 317.712 118.623C318.719 118.006 319.546 117.145 319.955 116.188C320.72 114.392 319.751 112.889 317.774 112.681C317.64 112.666 317.504 112.657 317.363 112.655C316.367 112.64 315.323 112.931 314.399 113.428C313.238 114.05 312.264 114.997 311.808 116.063C310.992 117.978 312.152 119.558 314.399 119.594Z" fill="#A892FF"/>
<path d="M322.527 109.228C322.699 109.252 322.882 109.265 323.071 109.268C324.268 109.288 325.534 108.862 326.576 108.173C327.494 107.568 328.24 106.757 328.625 105.862C329.373 104.109 328.462 102.635 326.576 102.373C326.402 102.349 326.22 102.335 326.031 102.331C324.834 102.313 323.571 102.737 322.527 103.424C321.609 104.03 320.861 104.841 320.479 105.739C319.73 107.491 320.641 108.966 322.527 109.228Z" fill="#A892FF"/>
<path d="M294.47 96.7207V98.6067H294.487C294.565 98.9273 295.194 99.1775 295.965 99.1775C296.738 99.1775 297.366 98.9273 297.445 98.6067H297.46V96.7207H294.47Z" fill="#A892FF"/>
<path d="M294.47 96.7205C294.47 97.0726 295.14 97.3572 295.965 97.3572C296.791 97.3572 297.46 97.0726 297.46 96.7205C297.46 96.3685 296.791 96.0823 295.965 96.0823C295.14 96.0823 294.47 96.3685 294.47 96.7205Z" fill="#C3B4FF"/>
<path d="M290.818 100.373V102.259H290.833C290.912 102.579 291.54 102.829 292.313 102.829C293.085 102.829 293.712 102.579 293.792 102.259H293.807V100.373H290.818Z" fill="#A892FF"/>
<path d="M290.818 100.373C290.818 100.725 291.486 101.011 292.313 101.011C293.139 101.011 293.807 100.725 293.807 100.373C293.807 100.021 293.139 99.7364 292.313 99.7364C291.486 99.7364 290.818 100.021 290.818 100.373Z" fill="#C3B4FF"/>
<path d="M297.393 100.373V102.259H297.408C297.488 102.579 298.115 102.829 298.888 102.829C299.66 102.829 300.287 102.579 300.367 102.259H300.383V100.373H297.393Z" fill="#A892FF"/>
<path d="M297.393 100.373C297.393 100.725 298.061 101.011 298.888 101.011C299.714 101.011 300.383 100.725 300.383 100.373C300.383 100.021 299.714 99.7364 298.888 99.7364C298.061 99.7364 297.393 100.021 297.393 100.373Z" fill="#C3B4FF"/>
<path d="M300.745 96.7207V98.6067H300.762C300.84 98.9273 301.467 99.1775 302.24 99.1775C303.013 99.1775 303.641 98.9273 303.719 98.6067H303.735V96.7207H300.745Z" fill="#A892FF"/>
<path d="M300.745 96.7205C300.745 97.0726 301.415 97.3572 302.24 97.3572C303.066 97.3572 303.735 97.0726 303.735 96.7205C303.735 96.3685 303.066 96.0823 302.24 96.0823C301.415 96.0823 300.745 96.3685 300.745 96.7205Z" fill="#C3B4FF"/>
<path d="M313.639 110.053V111.577C313.639 111.816 313.75 112.031 313.924 112.171C314.21 112.399 314.399 112.729 314.399 113.097V119.594H314.403C315.527 119.611 316.71 119.239 317.712 118.623V113.091C317.712 112.952 317.733 112.813 317.774 112.681C317.85 112.429 318.001 112.2 318.214 112.032C318.407 111.881 318.584 111.683 318.584 111.466V110.226C318.584 109.33 317.857 108.605 316.962 108.605H315.086C314.286 108.605 313.639 109.253 313.639 110.053Z" fill="#4A3797"/>
<path d="M313.639 110.981V111.577C313.639 111.816 313.75 112.031 313.924 112.171C314.21 112.399 314.399 112.729 314.399 113.097V119.594H314.403C315.527 119.611 316.71 119.239 317.712 118.623V113.091C317.712 112.952 317.733 112.813 317.774 112.681C317.85 112.429 318.001 112.2 318.214 112.032C318.407 111.881 318.584 111.683 318.584 111.466V111.154C318.584 110.258 317.857 109.533 316.962 109.533H315.086C314.286 109.533 313.639 110.181 313.639 110.981Z" fill="#8D77E3"/>
<path d="M322.527 102.13V109.228C322.699 109.252 322.882 109.265 323.071 109.268C324.268 109.288 325.534 108.862 326.576 108.173V102.13C326.576 101.775 326.289 101.487 325.934 101.487H323.17C322.815 101.487 322.527 101.775 322.527 102.13Z" fill="#8D77E3"/>
<path d="M323.637 101.607H325.466C325.643 101.607 325.785 101.465 325.785 101.288V100.573C325.785 100.397 325.643 100.253 325.466 100.253H323.637C323.46 100.253 323.318 100.397 323.318 100.573V101.288C323.318 101.465 323.46 101.607 323.637 101.607Z" fill="#8D77E3"/>
<path d="M324.277 100.446H324.825C324.961 100.446 325.066 100.323 325.045 100.188L324.927 99.4514C324.91 99.3435 324.816 99.2641 324.708 99.2641H324.389C324.28 99.2641 324.185 99.345 324.169 99.4529L324.056 100.19C324.036 100.325 324.14 100.446 324.277 100.446Z" fill="#8D77E3"/>
<path d="M301.298 70.3251L308.679 81.5857C309.325 82.5699 310.538 82.9984 311.666 82.6643C313.122 82.2329 314.692 81.9977 316.33 81.9977C317.76 81.9977 319.138 82.1775 320.436 82.51C321.601 82.8096 322.824 82.3228 323.448 81.2936C326.059 76.9943 328.924 72.3833 331.175 69.0382C331.743 68.1934 331.705 67.0878 331.099 66.2699C328.067 62.1818 322.585 59.4523 316.33 59.4523C309.936 59.4523 304.356 62.3001 301.366 66.535C300.567 67.6646 300.539 69.1686 301.298 70.3251Z" fill="#886FE9"/>
<path d="M332.799 86.9353H336.806V86.3391H332.799V86.9353Z" fill="#886FE9"/>
<path d="M332.799 85.7131H336.806V85.1169H332.799V85.7131Z" fill="#886FE9"/>
<path d="M295.802 57.4453H299.811V56.8491H295.802V57.4453Z" fill="#886FE9"/>
<path d="M295.802 58.9807H299.811V58.383H295.802V58.9807Z" fill="#886FE9"/>
<path d="M312.626 77.4709C311.263 77.4709 309.714 76.7519 308.579 75.2703C306.787 72.9304 309.405 67.885 311.405 67.115C312.339 66.757 313.79 66.4604 315.419 66.4604C316.971 66.4604 318.684 66.7286 320.265 67.4716C320.593 67.6244 321.848 68.5172 322.203 68.5936C323.074 68.7824 324.655 69.3291 325.201 70.8586C325.948 72.9499 323.811 74.5558 322.411 74.5558C322.368 74.5558 322.326 74.5543 322.286 74.5513C320.894 74.4494 319.919 73.7319 319.098 73.6285C319.069 73.6255 319.042 73.624 319.015 73.624C318.681 73.624 318.475 73.8907 318.254 74.1573C318.036 74.4239 317.805 74.6906 317.421 74.6906C317.336 74.6906 317.242 74.6771 317.138 74.6472C317.033 74.6172 316.938 74.6022 316.849 74.6022C316.043 74.6022 315.82 75.7782 314.688 76.7564C314.141 77.2298 313.414 77.4709 312.626 77.4709Z" fill="#B4A5F1"/>
<path d="M289.296 121.378H276.256L280.73 115.254H293.771L289.296 121.378Z" fill="#C3B4FF"/>
<path d="M296.187 109.733C296.926 108.001 295.877 106.573 293.844 106.542C291.811 106.512 289.563 107.89 288.824 109.622C288.086 111.353 289.136 112.783 291.169 112.812C293.201 112.844 295.449 111.464 296.187 109.733Z" fill="#AC99F8"/>
<path d="M295.459 109.318C295.995 107.637 294.945 106.127 293.115 105.946C291.282 105.763 289.364 106.978 288.829 108.659C288.292 110.339 289.343 111.849 291.173 112.031C293.005 112.213 294.924 110.998 295.459 109.318Z" fill="#E4DEFC"/>
<path d="M263.31 209.052L260.474 210.108C260.474 210.108 248.156 193.023 246.64 177.992C246.368 175.309 246.458 172.708 247.044 170.307C247.044 170.307 246.924 169.619 246.713 168.403C246.616 167.836 246.496 167.153 246.36 166.37C245.958 164.076 245.407 160.937 244.778 157.361C243.328 149.135 241.45 138.617 239.991 130.886L240.755 130.642L249.025 127.974L250.732 122.547L256.889 120.926C256.889 120.926 258.264 123.616 259.494 136.325C259.722 137.993 259.927 139.831 260.083 141.825C260.562 147.91 260.597 155.458 259.497 164.087C259.214 166.297 258.858 168.577 258.416 170.921C258.091 172.639 258.043 174.979 258.179 177.668C258.799 189.955 263.31 209.052 263.31 209.052Z" fill="#71C2AF"/>
<path d="M254.2 124.337L253.892 121.682C248.707 123.061 234.853 117.834 234.853 117.834C234.853 117.834 229.829 122.25 230.489 132.834C230.811 138 231.399 159.952 232.013 166.448C232.235 168.801 232.429 170.478 232.509 171.147L232.51 171.153C232.534 171.357 232.464 171.55 232.36 171.729C231.456 173.262 230.707 174.861 230.092 176.495C224.066 192.559 231.021 212.339 231.021 212.339L232.826 211.612C232.826 211.612 236.786 189.597 240.002 179.872C240.547 178.222 241.07 176.927 241.551 176.152C242.949 173.895 244.246 170.207 245.425 165.82C247.651 157.527 249.442 146.74 250.635 138.412C250.8 138.421 254.2 124.337 254.2 124.337Z" fill="#71C2AF"/>
<path d="M238.989 51.9958C238.88 51.6243 237.569 47.6605 231.366 49.0057C231.366 49.0057 234.482 48.6012 235.34 49.7982C235.34 49.7982 232.865 48.6761 231.322 49.6289C229.779 50.5816 229.538 53.7694 229.772 54.7372C230.007 55.7064 231.727 58.5856 232.858 58.5811C233.286 58.5796 233.744 58.4358 234.147 58.2575C233.975 58.7714 233.822 59.3286 233.695 59.9398C232.515 65.5979 236.291 69.8808 238.231 68.8112C239.476 68.1251 240.427 70.3032 240.427 70.3032L250.72 56.5483C250.72 56.5483 243.476 47.9136 238.989 51.9958Z" fill="#4D4278"/>
<path d="M285.888 105.208L287.169 108.293C287.169 108.293 271.887 109.837 267.858 108.143C264.821 106.865 258.838 102.076 254.636 97.7138C254.519 97.6104 254.425 97.5026 254.332 97.3932C252.909 95.8937 251.679 94.3567 250.818 92.8827C250.344 92.0752 249.985 91.2873 249.763 90.5352C249.369 89.2409 249.23 88.08 249.254 87.0328C249.279 85.6532 249.606 84.4877 250.013 83.5634C250.066 83.4181 250.116 83.2728 250.215 83.138C250.915 81.6984 251.766 80.9508 251.766 80.9508C252.122 80.6857 252.578 80.7022 253.108 80.9553C253.168 80.9808 253.226 81.0123 253.288 81.0437L253.297 81.0497C253.373 81.0931 253.453 81.1396 253.532 81.192L253.536 81.2115C253.74 81.3403 253.957 81.4976 254.184 81.6834L254.188 81.6879C254.605 82.0279 255.051 82.4593 255.509 82.9717C255.535 82.9867 255.562 83.0016 255.566 83.0241C255.718 83.1844 255.875 83.3657 256.058 83.5634C256.11 83.5934 256.146 83.6503 256.176 83.6877C256.527 84.1087 256.883 84.5491 257.244 85.0105C261.212 89.9405 267.303 98.9542 270.21 100.899C270.885 101.35 285.888 105.208 285.888 105.208Z" fill="#FCB494"/>
<path d="M247.694 88.5415C239.172 91.202 237.812 77.8396 238.355 77.7706C239.272 76.9512 240.493 73.7889 240.456 69.0236L240.871 69.1015L247.849 70.4557C247.849 70.4557 247.7 72.6519 247.702 74.7176C247.705 76.334 247.802 77.871 248.136 78.2245C248.678 78.2994 249.003 78.3504 249.003 78.3504L249.008 78.3564C249.111 78.5002 249.968 87.8329 247.694 88.5415Z" fill="#FCB494"/>
<path d="M247.85 70.4573C247.85 70.4573 247.699 72.652 247.703 74.7192C243.801 74.6234 241.725 71.073 240.871 69.1031L247.85 70.4573Z" fill="#E38A61"/>
<path d="M249.159 72.4094C249.159 72.4094 239.928 72.5982 239.9 66.8473C239.871 61.0963 238.66 57.2479 244.553 56.8853C250.445 56.5213 251.601 58.7099 252.077 60.6274C252.554 62.5434 251.561 72.2117 249.159 72.4094Z" fill="#FCB494"/>
<path d="M251.791 57.4303C250.358 55.7061 249.281 56.0896 248.679 56.6124C243.621 53.8575 240.387 57.9726 240.387 57.9726C239.785 62.1012 236.819 64.4756 236.819 64.4756C236.819 64.4756 238.505 65.5092 242.381 64.4965C243.564 64.1864 244.619 63.34 245.515 62.3154C243.955 64.9534 241.825 66.8574 241.825 66.8574C246.451 64.6973 248.286 58.2452 248.469 57.5636C249.034 58.067 250.15 59.162 250.493 60.2391C250.959 61.7012 251.177 64.7152 252.055 64.6089C252.055 64.6089 253.941 60.0159 251.791 57.4303Z" fill="#4D4278"/>
<path d="M239.316 76.1962C239.316 76.1962 237.866 76.6681 237.788 77.6913C237.788 77.6913 241.674 84.9537 245.973 85.3672L239.316 76.1962Z" fill="#98D7C7"/>
<path d="M285.455 108.293C285.455 108.293 287.003 108.498 287.69 109.378C288.378 110.258 291.543 110.342 292.027 110.341C292.512 110.339 291.907 109.563 291.017 109.423C290.126 109.282 289.96 108.943 290.051 108.745C290.143 108.546 291.883 108.062 293.267 108.341C294.653 108.62 295.784 108.653 295.481 108.14C295.18 107.628 292.962 104.77 290.719 104.984C288.475 105.198 288.571 105.826 285.888 105.209C283.204 104.591 285.455 108.293 285.455 108.293Z" fill="#FCB494"/>
<path d="M259.581 110.742L262.916 129.764C260.947 130.97 259.046 132.004 257.219 132.891C256.714 131.403 255.778 129.721 255.718 129.617C255.984 130.596 255.312 132.76 254.889 133.953C237.878 141.283 227.607 135.652 227.607 135.652C230.16 116.86 228.268 85.9244 228.726 83.7133C229.598 79.5143 237.786 77.6927 237.786 77.6927C240.781 82.9388 245.975 85.3686 245.975 85.3686C247.928 83.4392 248.436 78.271 248.436 78.271L251.85 79.1114C254.056 79.6536 256.101 80.7382 257.736 82.3141C257.882 82.458 258.029 82.6048 258.169 82.7546C259.855 84.5597 265.274 92.4468 265.274 92.4468C265.274 92.4468 266.914 96.3567 261.63 101.01C260.735 101.801 259.638 102.612 258.299 103.429L259.581 110.742Z" fill="#ADDED2"/>
<path d="M245.973 85.3672C245.973 85.3672 248.103 78.3175 247.856 77.4022C247.856 77.4022 249.525 77.6089 249.669 78.5751C249.669 78.5751 247.782 84.4579 245.973 85.3672Z" fill="#98D7C7"/>
<path d="M247.062 69.1121C247.062 69.1121 247.472 70.011 248.049 70.1098C248.626 70.2087 249.534 70.2057 249.737 70.1098C249.941 70.014 250.263 69.3803 250.403 69.1855C250.403 69.1855 249.367 69.0717 247.197 69.1121H247.062Z" fill="white"/>
<path d="M225.928 88.2505C225.928 88.2505 223.726 94.2366 215.482 111.558C214.141 114.378 218.39 115.685 218.655 116.376C219.741 119.2 226.469 109.973 228.37 105.147C230.856 98.8311 233.497 92.4045 233.497 92.4045L225.928 88.2505Z" fill="#FCB494"/>
<path d="M232.419 79.7105C232.419 79.7105 225.811 83.2593 220.121 94.526C220.121 94.526 223.478 98.9916 230.16 101.159C236.842 103.325 236.616 90.4154 236.616 90.4154L232.419 79.7105Z" fill="#ADDED2"/>
<path d="M205.8 105.451C205.8 105.451 218.161 108.426 219.515 109.097C220.871 109.77 221.368 115.879 219.516 116.781C217.665 117.684 213.165 114.916 210.455 112.477C207.746 110.039 205.378 108.351 205.378 108.351L205.8 105.451Z" fill="#FCB494"/>
<path d="M261.63 101.009C260.735 101.8 259.638 102.612 258.299 103.429C258.299 103.429 255.743 93.8683 256.504 93.2017C257.265 92.5365 258.664 98.8238 261.63 101.009Z" fill="#98D7C7"/>
<path d="M234.944 92.1547L242.701 91.8222L243.083 97.3574L239.779 99.1775L235.466 97.9491L234.944 92.1547Z" fill="#98D7C7"/>
<path d="M211.032 168.385L220.546 204.657L248.358 208.167L237.16 155.905L211.032 168.385Z" fill="#D4C9FF"/>
<path d="M195.313 154.708L212.912 174.498C215.786 177.731 220.487 178.606 224.331 176.622L263.305 151.818L195.313 154.708Z" fill="#C3B4FF"/>
<path d="M201.816 212.861L216.32 202.263C219.063 200.259 222.48 199.408 225.843 199.892L262.324 205.142C265.985 205.669 269.056 208.179 270.301 211.663L270.806 213.074L201.816 212.861Z" fill="#C3B4FF"/>
<path d="M315.975 167.473C315.975 167.524 315.972 167.573 315.966 167.623C315.916 167.996 315.849 168.496 315.783 169.062C315.516 171.377 313.552 173.123 311.223 173.123H297.287C292.008 173.123 286.811 171.839 282.139 169.381L264.733 160.218C259.722 157.581 254.071 156.395 248.422 156.796L199.122 160.293C197.717 160.393 196.321 159.99 195.182 159.162L127.021 109.481C124.358 107.539 123.773 103.805 125.715 101.14C126.402 100.196 127.315 99.513 128.326 99.1116C129.113 98.797 129.96 98.6562 130.806 98.6921V98.6861L163.767 98.9378L208.169 134.534L262.574 135.61L315.45 166.544L315.452 166.547L315.483 166.563L315.506 166.58L315.516 166.586C315.651 166.682 315.759 166.806 315.837 166.945C315.927 167.106 315.975 167.287 315.975 167.473Z" fill="#4A3797"/>
<path d="M315.837 166.946H301.011C295.732 166.946 290.535 165.662 285.865 163.203L268.457 154.042C263.446 151.403 257.795 150.217 252.146 150.619L202.846 154.115C201.441 154.215 200.045 153.814 198.906 152.984L130.746 103.303C129.329 102.27 128.498 100.73 128.326 99.1117C129.113 98.7971 129.96 98.6563 130.806 98.6923V98.6863L163.767 98.938L208.169 134.534L262.574 135.61L315.45 166.544L315.452 166.547C315.47 166.556 315.488 166.568 315.506 166.58L315.516 166.586C315.651 166.682 315.759 166.806 315.837 166.946Z" fill="#4F39A5"/>
<path d="M213.795 119.991C213.795 119.991 257.027 120.796 262.216 122.118C267.404 123.443 286.159 149.471 286.159 149.471L283.63 151.818L251.408 135.905L207.957 133.397L213.795 119.991Z" fill="#EA6529"/>
<path d="M294.872 154.143C294.872 154.143 297.691 155.978 300.662 156.231C303.634 156.483 306.043 157.338 307.897 157.479C309.75 157.618 312.57 157.383 311.54 158.721C310.511 160.06 304.951 161.91 303.619 161.832C302.287 161.754 300.725 161.602 298.773 162.67C296.821 163.738 295.183 162.682 294.706 161.076C294.228 159.47 292.816 158.451 292.816 158.451L294.872 154.143Z" fill="#F4D5AA"/>
<path d="M166.237 75.9056C166.237 75.9056 162.107 75.1536 158.377 77.5085C154.647 79.8649 154.255 85.8135 152.586 86.8142C152.586 86.8142 149.052 88.895 150.82 92.6251C150.82 92.6251 147.973 96.159 151.9 98.9078C155.826 101.655 157.887 100.47 157.887 100.47C157.887 100.47 158.108 103.032 161.384 103.767C164.66 104.501 166.918 103.308 166.918 103.308C166.918 103.308 165.876 105.195 170.294 105.195C174.71 105.195 173.362 102.325 173.362 102.325C173.362 102.325 177.05 102.574 178.836 101.053C180.461 99.6688 179.874 96.8555 179.874 96.8555C179.874 96.8555 180.217 96.7761 181.248 94.8961C182.278 93.0176 180.905 90.8469 180.905 90.8469C180.905 90.8469 177.558 86.1716 177.164 82.3771C176.772 78.5811 172.559 75.0622 166.237 75.9056Z" fill="#D0551D"/>
<path d="M166.135 106.913C164.846 106.87 163.646 105.813 163.809 104.237C164.007 102.338 163.872 99.6385 163.07 96.4088L163.563 96.3863L171.838 96.0208C171.838 96.0208 172.265 98.5495 172.832 100.891C172.836 100.91 172.841 100.93 172.845 100.948C173.332 102.984 175.309 107.229 166.135 106.913Z" fill="#FCB494"/>
<path d="M171.627 95.1178C171.627 95.1178 172.054 97.6464 172.62 99.9878C167.434 100.168 164.372 97.9385 163.07 95.8997L171.627 95.1178Z" fill="#E6916B"/>
<path d="M173.855 97.8773C173.855 97.8773 163.447 100.602 161.85 94.0948C160.251 87.5873 157.832 83.5561 164.41 81.5413C170.988 79.5249 172.893 81.6911 173.955 83.7329C175.016 85.7747 176.52 97.001 173.855 97.8773Z" fill="#FCB494"/>
<path d="M169.13 80.2181C169.13 80.2181 168.135 88.5532 164.02 90.7553C159.905 92.9574 157.712 92.2458 157.712 92.2458C157.712 92.2458 160.427 88.7479 159.985 83.9063C159.985 83.9063 166.085 77.1097 169.13 80.2181Z" fill="#D0551D"/>
<path d="M168.573 81.011C168.573 81.011 170.889 81.2866 172.139 82.6199C173.363 83.9247 174.58 85.7508 175.013 88.251C175.013 88.251 175.9 82.5345 172.76 80.1901C169.431 77.7033 168.573 81.011 168.573 81.011Z" fill="#D0551D"/>
<path d="M170.369 94.2965C170.369 94.2965 171.413 95.3931 173.362 95.1174C173.853 95.0485 174.694 94.1587 174.439 93.3273C174.439 93.3273 172.427 93.1071 170.369 94.2965Z" fill="white"/>
<path d="M206.873 111.785C201.812 108.805 196.521 109.241 193.091 109.677C191.608 109.864 190.474 110.053 189.855 109.966C187.809 109.675 185.667 107.544 184.464 106.219C183.259 104.895 176.702 102.972 174.553 103.105C167.561 103.538 155.877 104.891 154.469 107.872C152.482 112.08 189.536 138.941 189.536 138.941L199.874 134.67C202.896 135.707 209.03 132.435 211.58 130.471C217.359 126.016 214.122 116.051 206.873 111.785Z" fill="#FCB494"/>
<path d="M188.483 138.179C188.483 138.179 191.523 144.414 203.442 145.317C215.362 146.22 252.97 140.132 255.396 142.517C260.08 147.124 276.425 152.758 291.283 159.533C291.283 159.533 292.802 159.514 294.58 158.658C297.529 157.238 298.172 154.796 298.172 154.796C298.172 154.796 267.858 132.193 264.125 129.063C260.393 125.932 246.487 124.614 239.804 124.614C219.215 124.614 213.795 119.991 213.795 119.991C213.795 119.991 211.298 124.614 201.095 132.133C195.456 136.287 188.483 138.179 188.483 138.179Z" fill="#F37238"/>
<path d="M163.831 101.053C163.831 101.053 166.998 102.605 172.984 101.477C172.984 101.477 173.378 102.534 173.733 102.874C173.904 103.038 174.851 102.996 175.945 102.954C177.167 102.907 178.572 102.859 179.287 103.099C180.641 103.552 185.292 106.125 186.059 106.667C186.826 107.21 187.897 109.565 189.22 109.681C190.543 109.798 192.164 109.798 192.164 109.798C192.164 109.798 185.608 110.884 184.332 135.123L160.064 116.601L153.906 108.317C153.906 108.317 154.68 106.396 157.343 105.448C160.007 104.5 163.499 103.683 163.68 103.099C163.86 102.513 163.831 101.053 163.831 101.053Z" fill="#F4D5AA"/>
<path d="M184.332 135.123C184.332 135.113 184.332 135.104 184.334 135.095L184.332 135.123Z" fill="#848094"/>
<path d="M184.334 135.096C184.512 131.709 184.794 128.776 185.147 126.233L184.334 135.096Z" fill="#ECB49A"/>
<path d="M184.332 135.123L174.244 127.256L171.203 123.403L167.322 116.376C167.344 116.235 167.421 116.169 167.545 116.169C168.949 116.169 176.374 124.575 179.362 125.571C181.192 126.181 182.795 126.314 183.847 126.314C184.663 126.314 185.147 126.233 185.147 126.233C184.793 128.775 184.512 131.709 184.333 135.096C184.332 135.105 184.332 135.114 184.332 135.123Z" fill="#F0CD9E"/>
<path d="M162.217 110.58C162.217 110.58 154.897 109.87 155.032 115.29C155.167 120.71 170.387 137.152 173.997 136.219C177.607 135.284 175.679 128.392 174.244 127.256C172.811 126.121 162.217 110.58 162.217 110.58Z" fill="#FCB494"/>
<path d="M182.648 113.677C182.648 113.677 177.42 124.322 171.771 128.931C169.693 130.626 173.997 136.219 173.997 136.219C173.997 136.219 177.354 134.636 179.469 131.619C181.586 128.602 184.588 115.972 184.588 115.972L182.648 113.677Z" fill="#FCB494"/>
<path d="M160.064 104.569C160.064 104.569 153.353 105.764 152.872 110.401C152.393 115.036 157.027 123.946 161.722 130.146C161.722 130.146 169.729 128.22 171.203 122.682C171.203 122.682 162.257 105.42 160.064 104.569Z" fill="#F4D5AA"/>
<path d="M182.648 113.677C182.648 113.677 185.002 110.657 185.62 110.395C186.237 110.133 189.434 109.671 189.469 110.257C189.502 110.843 187.024 112.107 187.007 112.606C186.991 113.103 186.516 114.375 185.773 114.825C185.03 115.275 184.289 116.376 184.289 116.376L182.648 113.677Z" fill="#FCB494"/>
<path d="M182.969 113.658C182.969 113.658 183.474 112.262 183.472 111.879C183.469 111.495 183.55 110.803 183.737 110.893C183.924 110.983 184.146 111.314 184.121 111.558C184.094 111.802 184.182 112.544 184.182 112.544L182.969 113.658Z" fill="#FCB494"/>
<path d="M205.369 113.079C205.316 113.206 205.021 113.206 204.71 113.079C204.4 112.95 204.19 112.742 204.242 112.615C204.295 112.486 204.59 112.486 204.901 112.615C205.213 112.742 205.423 112.95 205.369 113.079Z" fill="#E6916B"/>
<path d="M218.974 120.097L213.795 119.991V121.02L223.369 124.247L224.452 123.598C224.452 123.598 219.197 122.021 218.974 120.097Z" fill="#F37238"/>
<path d="M205.806 105.454C205.806 105.454 202.59 104.91 201.597 105.271C200.604 105.632 198.812 105.692 198.587 106.912C198.361 108.131 198.707 109.318 200.061 109.1C200.686 109 201.183 109.25 202.274 109.1C203.547 108.925 205.384 108.354 205.384 108.354L205.806 105.454Z" fill="#FCB494"/>
<path d="M199.197 108.308L199.555 104.951C199.596 104.57 199.937 104.295 200.318 104.335L201.666 104.479C202.046 104.519 202.322 104.861 202.282 105.241L201.925 108.595C201.915 108.682 201.922 108.771 201.946 108.856L202.496 110.823C202.628 111.295 202.247 111.897 201.616 112.029C200.686 112.225 199.748 112.212 198.757 111.704C198.324 111.481 197.969 110.805 198.19 110.371L199.124 108.552C199.163 108.476 199.188 108.393 199.197 108.308Z" fill="#332374"/>
<path d="M205.294 106.888C205.294 106.888 204.539 108.242 204.021 108.206C203.501 108.169 200.649 107.806 200.626 107.634C200.604 107.462 200.741 106.94 201.417 106.888C203.29 106.738 203.675 106.197 204.442 106.31C205.209 106.423 205.294 106.888 205.294 106.888Z" fill="#FCB494"/>
<path d="M199.24 106.029C199.24 106.029 200.626 107.731 200.332 108.273C200.039 108.815 199.339 109.164 199.1 108.95C198.861 108.738 199.24 106.029 199.24 106.029Z" fill="#FCB494"/>
<path d="M201.564 103.531L200.899 103.435L200.488 104.353L200.625 104.368L201.666 104.479L201.564 103.531Z" fill="#F37238"/>
<path d="M447.761 213.666H0.958669C0.681578 213.666 0.454956 213.44 0.454956 213.163V212.999C0.454956 212.722 0.681578 212.495 0.958669 212.495H447.761C448.038 212.495 448.264 212.722 448.264 212.999V213.163C448.264 213.44 448.038 213.666 447.761 213.666Z" fill="#3F3760"/>
</svg>
