<svg width="498" height="273" viewBox="0 0 498 273" fill="none" xmlns="http://www.w3.org/2000/svg">
<path d="M30.6488 272.763C30.6488 272.763 -6.45366 165.285 19.0092 102.335C48.7856 28.7201 146.78 -20.0119 211.335 8.03278C312.244 51.8711 312.461 44.6363 378.223 35.3306C455.027 24.4625 524.639 147.004 467.37 272.452L30.6488 272.763Z" fill="#F9F7FF"/>
<path d="M305.11 142.863H222.615V61.6794H305.11V142.863ZM235.559 76.3671V119.029H293.31V76.3671H235.559Z" fill="#DBD3FB"/>
<path d="M306.018 143.771H221.708V60.7716H306.018V143.771ZM222.615 61.6795V142.863H305.11V61.6795H222.615Z" fill="#B5A8E4"/>
<path d="M235.56 119.029H293.31V76.3668H235.56V119.029Z" fill="#3E2D81"/>
<path d="M245.309 95.1647L254.73 109.54C255.554 110.797 257.105 111.343 258.545 110.916C260.402 110.366 262.406 110.066 264.496 110.066C266.322 110.066 268.084 110.296 269.738 110.72C271.225 111.103 272.788 110.48 273.585 109.168C276.916 103.678 280.575 97.7928 283.448 93.5218C284.174 92.4443 284.126 91.033 283.352 89.9891C279.48 84.7699 272.482 81.2842 264.496 81.2842C256.336 81.2842 249.21 84.9192 245.394 90.3264C244.376 91.7697 244.34 93.6879 245.309 95.1647Z" fill="#8C76E4"/>
<path d="M285.522 116.369H290.637V115.607H285.522V116.369Z" fill="#8C76E4"/>
<path d="M285.522 114.81H290.637V114.048H285.522V114.81Z" fill="#8C76E4"/>
<path d="M238.292 78.7239H243.409V77.9603H238.292V78.7239Z" fill="#8C76E4"/>
<path d="M238.292 80.6814H243.409V79.9195H238.292V80.6814Z" fill="#8C76E4"/>
<path d="M262.263 104.993C261.376 104.993 260.547 104.852 259.84 104.543C255.603 102.682 255.908 100.042 255.836 98.894C255.764 97.7461 253.827 96.8919 254.22 95.8598C254.409 95.3597 255.002 95.0996 255.69 95.0996C256.422 95.0996 257.261 95.3933 257.84 95.9991C258.744 96.9456 258.424 98.1053 258.984 98.1053C259.12 98.1053 259.308 98.0365 259.58 97.8787C260.255 97.4877 260.924 97.4575 261.476 97.4575C261.527 97.4575 261.575 97.4575 261.622 97.4575C261.669 97.4592 261.716 97.4592 261.762 97.4592C262.205 97.4592 262.542 97.4357 262.7 97.1688C263.072 96.5429 262.431 95.0543 262.29 94.1598C262.198 93.5707 262.569 93.1764 262.983 93.1764C263.198 93.1764 263.425 93.2821 263.604 93.5238C264.133 94.2286 264.437 96.036 265.071 96.6721C265.21 96.8114 265.358 96.8668 265.497 96.8668C265.994 96.8668 266.355 96.1451 265.593 95.932C264.62 95.6584 264.932 94.5072 264.719 93.4197C264.507 92.3305 265.447 92.2768 264.858 91.092C264.271 89.9072 264.291 89.2057 265.422 87.7205C266.11 86.821 267.491 85.9768 269.418 85.9768C270.67 85.9768 272.15 86.3326 273.82 87.2573C278.064 89.6101 273.659 94.0557 273.061 94.5139C272.464 94.9737 272.039 97.9677 272.039 97.9677C272.598 101.473 266.697 104.993 262.263 104.993Z" fill="#AE9FEB"/>
<path d="M398.304 201.323V203.11C398.304 203.736 398.507 204.246 398.754 204.246H463.986C464.233 204.246 464.436 203.736 464.436 203.11V201.323C464.436 200.697 464.233 200.185 463.986 200.185H398.754C398.507 200.185 398.304 200.697 398.304 201.323Z" fill="#A897EA"/>
<path d="M398.304 201.323V203.11C398.304 203.736 398.491 204.246 398.717 204.246H450.505C450.732 204.246 450.918 203.736 450.918 203.11V201.323C450.918 200.697 450.732 200.185 450.505 200.185H398.717C398.491 200.185 398.304 200.697 398.304 201.323Z" fill="#CDC0FF"/>
<path d="M414.815 271.747H461.125V204.246H414.815V271.747Z" fill="#BAA9FF"/>
<path d="M401.837 271.747H448.147V204.246H401.837V271.747Z" fill="#DAD1FF"/>
<path d="M445.212 206.6H404.771V267.573H445.212V206.6ZM404.324 206.154H445.659V268.02H404.324V206.154Z" fill="#BAA9FF"/>
<path d="M404.549 227.066H445.435V226.62H404.549V227.066Z" fill="#BAA9FF"/>
<path d="M404.549 247.93H445.435V247.483H404.549V247.93Z" fill="#BAA9FF"/>
<path d="M420.803 210.143H428.39C428.757 210.143 429.059 209.843 429.059 209.473C429.059 209.106 428.757 208.804 428.39 208.804H420.803C420.433 208.804 420.133 209.106 420.133 209.473C420.133 209.843 420.433 210.143 420.803 210.143Z" fill="#BAA9FF"/>
<path d="M420.803 230.547H428.39C428.757 230.547 429.059 230.245 429.059 229.877C429.059 229.51 428.757 229.208 428.39 229.208H420.803C420.433 229.208 420.133 229.51 420.133 229.877C420.133 230.245 420.433 230.547 420.803 230.547Z" fill="#BAA9FF"/>
<path d="M420.803 251.816H428.39C428.757 251.816 429.059 251.514 429.059 251.147C429.059 250.777 428.757 250.477 428.39 250.477H420.803C420.433 250.477 420.133 250.777 420.133 251.147C420.133 251.514 420.433 251.816 420.803 251.816Z" fill="#BAA9FF"/>
<path d="M426.583 167.571C426.583 167.571 431.817 161.464 426.906 157.586C426.906 157.586 423.318 155.414 420.393 155.59C420.393 155.59 424.538 162.542 423.198 163.233C421.857 163.923 419.138 155.154 419.138 155.154C419.138 155.154 410.975 154.364 408.349 155.626C408.349 155.626 415.327 161.337 413.857 161.677C412.388 162.016 404.85 156.411 404.85 156.411C404.85 156.411 397.252 157.705 397.657 162.339C398.061 166.974 400.679 168.405 401.831 168.283C402.982 168.159 409.711 165.589 409.859 166.532C410.005 167.476 405.954 170.557 403.116 170.699C403.116 170.699 408.473 176.608 412.032 174.903C415.594 173.198 415.897 170.495 418.116 169.481C420.335 168.467 422.229 168.471 421.313 169.505C420.397 170.538 416.381 171.544 415.112 173.787C413.843 176.033 412.704 177.547 416.387 176.993C420.071 176.439 426.057 173.744 426.321 170.657C426.583 167.571 426.583 167.571 426.583 167.571Z" fill="#31C5A1"/>
<path d="M401.391 162.465C401.391 162.465 422.026 161.669 426.582 167.572C426.582 167.572 427.591 170.589 430.692 173.338L431.176 174.655C431.176 174.655 427.599 170.886 426.321 170.658C426.321 170.658 428.321 163.346 401.391 162.465Z" fill="#6ACFB7"/>
<path d="M430.692 173.338C430.692 173.338 435.121 176.614 435.43 182.467L434.626 182.54C434.626 182.54 433.211 176.486 430.654 174.12C428.098 171.754 430.692 173.338 430.692 173.338Z" fill="#6ACFB7"/>
<path d="M444.882 159.892C444.882 159.892 436.556 155.23 440.441 148.903C440.441 148.903 443.551 145.016 446.88 144.018C446.88 144.018 445.105 153.454 446.88 153.676C448.656 153.897 448.102 143.019 448.102 143.019C448.102 143.019 456.871 138.8 460.313 139.134C460.313 139.134 454.874 148.347 456.649 148.126C458.425 147.903 464.53 138.579 464.53 138.579C464.53 138.579 473.522 136.914 474.965 142.242C476.409 147.57 474.078 150.234 472.745 150.568C471.413 150.9 462.865 150.789 463.087 151.9C463.31 153.01 469.081 154.785 472.302 153.787C472.302 153.787 468.749 162.557 464.087 162.112C459.425 161.667 457.982 158.783 455.095 158.559C452.209 158.338 450.099 159.115 451.542 159.892C452.986 160.669 457.869 160.147 460.202 162.129C462.533 164.111 464.419 165.331 460.091 166.219C455.762 167.108 447.991 166.553 446.436 163.223C444.882 159.892 444.882 159.892 444.882 159.892Z" fill="#94E8D3"/>
<path d="M470.859 143.907C470.859 143.907 447.547 151.455 444.882 159.892C444.882 159.892 444.994 163.666 442.662 167.996V169.661C442.662 169.661 445.105 164 446.436 163.223C446.436 163.223 441.22 155.896 470.859 143.907Z" fill="#48D7B4"/>
<path d="M442.661 167.996C442.661 167.996 439.067 173.455 441.118 180.101L442.042 179.853C442.042 179.853 441.144 172.532 443.024 168.85C444.905 165.17 442.661 167.996 442.661 167.996Z" fill="#48D7B4"/>
<path d="M431.637 153.462C431.637 153.462 442.611 147.315 437.491 138.974C437.491 138.974 433.393 133.854 429.003 132.537C429.003 132.537 431.344 144.974 429.003 145.268C426.661 145.56 427.393 131.219 427.393 131.219C427.393 131.219 415.834 125.659 411.297 126.099C411.297 126.099 418.467 138.243 416.126 137.951C413.784 137.659 405.737 125.366 405.737 125.366C405.737 125.366 393.884 123.172 391.983 130.196C390.08 137.219 393.152 140.732 394.908 141.17C396.665 141.609 407.933 141.463 407.639 142.927C407.347 144.39 399.738 146.731 395.494 145.414C395.494 145.414 400.176 156.973 406.321 156.389C412.469 155.804 414.37 151.999 418.175 151.705C421.979 151.413 424.76 152.437 422.857 153.462C420.955 154.486 414.516 153.798 411.443 156.409C408.371 159.022 405.883 160.632 411.589 161.803C417.297 162.973 427.539 162.241 429.588 157.851C431.637 153.462 431.637 153.462 431.637 153.462Z" fill="#6FE1C5"/>
<path d="M397.397 132.391C397.397 132.391 428.125 142.341 431.637 153.463C431.637 153.463 431.491 158.437 434.564 164.145V166.34C434.564 166.34 431.343 158.877 429.588 157.851C429.588 157.851 436.465 148.195 397.397 132.391Z" fill="#48D7B4"/>
<path d="M434.564 164.145C434.564 164.145 439.302 171.341 436.601 180.101L435.381 179.772C435.381 179.772 436.565 170.124 434.086 165.272C431.607 160.419 434.564 164.145 434.564 164.145Z" fill="#48D7B4"/>
<path d="M432.006 199.097C420.135 199.097 410.509 189.472 410.509 177.599H453.504C453.504 189.472 443.88 199.097 432.006 199.097Z" fill="#BAA9FF"/>
<path d="M410.213 200.191H453.801C453.801 198.726 452.613 197.538 451.15 197.538H412.864C411.399 197.538 410.213 198.726 410.213 200.191Z" fill="#BAA9FF"/>
<path d="M410.02 178.258H454.211V177.599H410.02V178.258Z" fill="#CDC0FF"/>
<path d="M79.0228 239.177C79.0228 239.177 73.7943 233.077 78.7004 229.202C78.7004 229.202 82.2839 227.034 85.206 227.21C85.206 227.21 81.0657 234.153 82.4051 234.843C83.7444 235.534 86.4608 226.774 86.4608 226.774C86.4608 226.774 94.6157 225.983 97.2391 227.245C97.2391 227.245 90.2678 232.95 91.7359 233.289C93.2042 233.629 100.734 228.029 100.734 228.029C100.734 228.029 108.324 229.321 107.92 233.951C107.515 238.582 104.9 240.01 103.75 239.887C102.601 239.765 95.8768 237.197 95.7304 238.14C95.5839 239.082 99.6313 242.16 102.466 242.304C102.466 242.304 97.1144 248.205 93.5581 246.501C90.0018 244.798 89.6982 242.099 87.4813 241.086C85.2644 240.074 83.372 240.075 84.2872 241.109C85.2025 242.141 89.2147 243.145 90.4825 245.387C91.7502 247.631 92.8877 249.143 89.2084 248.589C85.5287 248.035 79.5479 245.343 79.2854 242.26C79.0228 239.177 79.0228 239.177 79.0228 239.177Z" fill="#31C5A1"/>
<path d="M104.19 234.076C104.19 234.076 83.5753 233.282 79.0226 239.178C79.0226 239.178 78.0158 242.194 74.9175 244.939L74.4347 246.255C74.4347 246.255 78.0069 242.489 79.2852 242.261C79.2852 242.261 77.2861 234.957 104.19 234.076Z" fill="#31C5A1"/>
<path d="M74.9177 244.939C74.9177 244.939 70.4931 248.212 70.1857 254.059L70.9887 254.129C70.9887 254.129 72.4019 248.084 74.9563 245.72C77.5106 243.355 74.9177 244.939 74.9177 244.939Z" fill="#31C5A1"/>
<path d="M60.7422 231.507C60.7422 231.507 69.0593 226.849 65.1779 220.528C65.1779 220.528 62.0729 216.646 58.7462 215.649C58.7462 215.649 60.5204 225.074 58.7462 225.295C56.9718 225.519 57.5263 214.651 57.5263 214.651C57.5263 214.651 48.7657 210.437 45.328 210.769C45.328 210.769 50.7617 219.974 48.9873 219.752C47.2131 219.529 41.1138 210.215 41.1138 210.215C41.1138 210.215 32.1315 208.552 30.6899 213.874C29.2482 219.197 31.577 221.858 32.9079 222.191C34.2385 222.523 42.7774 222.412 42.5556 223.522C42.3337 224.631 36.5674 226.405 33.3514 225.408C33.3514 225.408 36.9 234.168 41.5576 233.723C46.2151 233.28 47.6567 230.397 50.5399 230.176C53.4232 229.954 55.5302 230.73 54.0884 231.507C52.647 232.282 47.7676 231.76 45.4388 233.74C43.1101 235.721 41.2249 236.941 45.5497 237.827C49.8746 238.714 57.6372 238.161 59.1897 234.833C60.7422 231.507 60.7422 231.507 60.7422 231.507Z" fill="#94E8D3"/>
<path d="M34.7933 215.536C34.7933 215.536 58.081 223.078 60.7425 231.506C60.7425 231.506 60.6316 235.275 62.9604 239.602V241.265C62.9604 241.265 60.5206 235.609 59.19 234.832C59.19 234.832 64.402 227.514 34.7933 215.536Z" fill="#6FD3BB"/>
<path d="M62.9604 239.602C62.9604 239.602 66.5518 245.055 64.5042 251.694L63.5803 251.445C63.5803 251.445 64.4772 244.133 62.5982 240.457C60.7193 236.778 62.9604 239.602 62.9604 239.602Z" fill="#6FD3BB"/>
<path d="M73.9741 225.083C73.9741 225.083 63.0106 218.944 68.127 210.611C68.127 210.611 72.22 205.494 76.6053 204.179C76.6053 204.179 74.2664 216.604 76.6053 216.898C78.9441 217.19 78.2132 202.865 78.2132 202.865C78.2132 202.865 89.7614 197.31 94.2931 197.748C94.2931 197.748 87.1303 209.88 89.469 209.588C91.8079 209.296 99.8478 197.016 99.8478 197.016C99.8478 197.016 111.688 194.824 113.589 201.841C115.489 208.858 112.419 212.365 110.665 212.805C108.911 213.243 97.6552 213.097 97.9475 214.558C98.2399 216.02 105.841 218.36 110.08 217.044C110.08 217.044 105.403 228.592 99.2631 228.006C93.1237 227.422 91.2233 223.621 87.4226 223.329C83.622 223.037 80.8445 224.06 82.7449 225.083C84.6452 226.106 91.0771 225.418 94.1469 228.028C97.2165 230.637 99.7016 232.245 94.0007 233.415C88.2996 234.585 78.0671 233.855 76.0206 229.468C73.9741 225.083 73.9741 225.083 73.9741 225.083Z" fill="#6FE1C5"/>
<path d="M108.18 204.032C108.18 204.032 77.4822 213.972 73.9738 225.082C73.9738 225.082 74.12 230.053 71.0502 235.754V237.947C71.0502 237.947 74.2662 230.491 76.0204 229.467C76.0204 229.467 69.15 219.821 108.18 204.032Z" fill="#6FD3BB"/>
<path d="M71.0506 235.754C71.0506 235.754 66.3165 242.944 69.0154 251.694L70.2334 251.367C70.2334 251.367 69.0511 241.729 71.528 236.88C74.0047 232.032 71.0506 235.754 71.0506 235.754Z" fill="#6FD3BB"/>
<path d="M73.6045 270.671C85.4651 270.671 95.0801 261.055 95.0801 249.195H52.1289C52.1289 261.055 61.7439 270.671 73.6045 270.671Z" fill="#BAA9FF"/>
<path d="M95.3769 271.763H51.8326C51.8326 270.3 53.0188 269.114 54.4822 269.114H92.7275C94.1908 269.114 95.3769 270.3 95.3769 271.763Z" fill="#BAA9FF"/>
<path d="M95.5689 249.854H51.4231V249.195H95.5689V249.854Z" fill="#CDC0FF"/>
<path d="M116.571 90.7529H84.2697C82.7868 90.7529 81.5736 89.5396 81.5736 88.056V56.8798C81.5736 55.398 82.7868 54.1846 84.2697 54.1846H116.571C118.053 54.1846 119.267 55.398 119.267 56.8798V88.056C119.267 89.5396 118.053 90.7529 116.571 90.7529Z" fill="#CEC4F9"/>
<path d="M115.171 89.1685H85.6691C84.3148 89.1685 83.2067 88.0592 83.2067 86.7048V58.2306C83.2067 56.8763 84.3148 55.7686 85.6691 55.7686H115.171C116.526 55.7686 117.634 56.8763 117.634 58.2306V86.7048C117.634 88.0592 116.526 89.1685 115.171 89.1685Z" fill="#E0F7F1"/>
<path d="M99.6391 59.1049C99.6391 58.6736 99.9887 58.3245 100.42 58.3245C100.851 58.3245 101.201 58.6736 101.201 59.1049C101.201 59.5362 100.851 59.887 100.42 59.887C99.9887 59.887 99.6391 59.5362 99.6391 59.1049Z" fill="#C1B5EF"/>
<path d="M105.94 60.209C106.149 59.8314 106.625 59.6954 107.002 59.9052C107.378 60.115 107.514 60.5899 107.305 60.9675C107.095 61.3451 106.62 61.4794 106.243 61.2713C105.866 61.0615 105.73 60.5866 105.94 60.209Z" fill="#C1B5EF"/>
<path d="M111.337 64.497C111.7 64.2637 112.183 64.3678 112.417 64.7303C112.651 65.0928 112.546 65.5761 112.184 65.8094C111.822 66.0443 111.338 65.9386 111.105 65.5761C110.871 65.2136 110.975 64.7303 111.337 64.497Z" fill="#C1B5EF"/>
<path d="M114.011 71.1344C114.442 71.1344 114.792 71.4834 114.792 71.9147C114.792 72.346 114.442 72.6968 114.011 72.6968C113.58 72.6968 113.23 72.346 113.23 71.9147C113.23 71.4834 113.58 71.1344 114.011 71.1344Z" fill="#C1B5EF"/>
<path d="M112.646 78.8373C112.951 79.1428 112.951 79.6361 112.646 79.9416C112.341 80.247 111.847 80.247 111.542 79.9416C111.237 79.6361 111.237 79.1428 111.542 78.8373C111.847 78.5319 112.341 78.5319 112.646 78.8373Z" fill="#C1B5EF"/>
<path d="M107.743 83.7533C108.048 84.0588 108.048 84.5522 107.743 84.8576C107.438 85.163 106.944 85.163 106.639 84.8576C106.334 84.5522 106.334 84.0588 106.639 83.7533C106.944 83.4479 107.438 83.4479 107.743 83.7533Z" fill="#C1B5EF"/>
<path d="M99.6391 86.2875C99.6391 85.8562 99.9887 85.5071 100.42 85.5071C100.851 85.5071 101.201 85.8562 101.201 86.2875C101.201 86.7188 100.851 87.0679 100.42 87.0679C99.9887 87.0679 99.6391 86.7188 99.6391 86.2875Z" fill="#C1B5EF"/>
<path d="M94.8758 60.209C94.6662 59.8314 94.191 59.6954 93.814 59.9052C93.4371 60.115 93.3013 60.5899 93.5108 60.9675C93.7202 61.3451 94.1957 61.4794 94.5726 61.2713C94.9495 61.0615 95.0853 60.5866 94.8758 60.209Z" fill="#C1B5EF"/>
<path d="M89.478 64.497C89.1157 64.2637 88.6325 64.3678 88.3987 64.7303C88.1649 65.0928 88.2692 65.5761 88.6315 65.8094C88.9938 66.0443 89.4771 65.9386 89.7109 65.5761C89.9447 65.2136 89.8405 64.7303 89.478 64.497Z" fill="#C1B5EF"/>
<path d="M86.8046 71.1344C86.3734 71.1344 86.0239 71.4834 86.0239 71.9147C86.0239 72.346 86.3734 72.6968 86.8046 72.6968C87.2359 72.6968 87.5854 72.346 87.5854 71.9147C87.5854 71.4834 87.2359 71.1344 86.8046 71.1344Z" fill="#C1B5EF"/>
<path d="M88.1699 78.8373C87.865 79.1428 87.865 79.6361 88.1699 79.9416C88.4747 80.247 88.9691 80.247 89.274 79.9416C89.5791 79.6361 89.5791 79.1428 89.274 78.8373C88.9691 78.5319 88.4747 78.5319 88.1699 78.8373Z" fill="#C1B5EF"/>
<path d="M93.0726 83.7533C92.7676 84.0588 92.7676 84.5522 93.0726 84.8576C93.3775 85.163 93.8719 85.163 94.1768 84.8576C94.4818 84.5522 94.4818 84.0588 94.1768 83.7533C93.8719 83.4479 93.3775 83.4479 93.0726 83.7533Z" fill="#C1B5EF"/>
<path d="M100.21 71.9147C100.21 71.4834 100.559 71.1344 100.991 71.1344C101.422 71.1344 101.771 71.4834 101.771 71.9147C101.771 72.346 101.422 72.6968 100.991 72.6968C100.559 72.6968 100.21 72.346 100.21 71.9147Z" fill="#C1B5EF"/>
<path d="M101.097 71.9153H100.884V62.1615H101.097V71.9153Z" fill="#C1B5EF"/>
<path d="M101.09 72.1536L100.695 71.6501L105.866 67.5905L106.261 68.094L101.09 72.1536Z" fill="#C1B5EF"/>
<path d="M259.894 130.233L252.874 131.555L251.635 124.97L258.654 123.649L259.894 130.233Z" fill="#B2DFD4"/>
<path d="M258.889 124.895L251.87 126.215L251.642 125.007L258.66 123.686L258.889 124.895Z" fill="#98D0C3"/>
<path d="M297.106 130.131L290.088 131.453L288.849 124.868L295.868 123.547L297.106 130.131Z" fill="#B2DFD4"/>
<path d="M296.103 124.792L289.083 126.113L288.856 124.904L295.875 123.582L296.103 124.792Z" fill="#98D0C3"/>
<path d="M273.509 139.779L264.675 137.483L266.83 129.196L275.662 131.492L273.509 139.779Z" fill="#F06F35"/>
<path d="M275.256 133.059L266.422 130.763L266.818 129.241L275.651 131.537L275.256 133.059Z" fill="#E95F20"/>
<path d="M357.188 271.66H357.294C357.917 271.66 358.418 271.213 358.405 270.671L356.72 207.139L351.756 206.636L355.988 270.675C356.025 271.228 356.552 271.66 357.188 271.66Z" fill="#AF9FEE"/>
<path d="M382.801 271.66H382.907C383.529 271.66 384.031 271.213 384.018 270.671L382.333 207.139L377.369 206.636L381.601 270.675C381.638 271.228 382.165 271.66 382.801 271.66Z" fill="#AF9FEE"/>
<path d="M302.993 271.66H302.888C302.263 271.66 301.762 271.213 301.777 270.671L303.462 207.139L308.424 206.636L304.192 270.675C304.156 271.228 303.63 271.66 302.993 271.66Z" fill="#AF9FEE"/>
<path d="M386.089 202.685V152.644C386.089 143.838 378.951 136.701 370.146 136.701H334.093C325.287 136.701 318.15 143.838 318.15 152.644V204.596L386.089 202.685Z" fill="#AF9FEE"/>
<path d="M311.69 210.584H381.302C383.946 210.584 386.089 208.441 386.089 205.798V202.685H311.69V210.584Z" fill="#AF9FEE"/>
<path d="M303.348 210.584H356.012C357.967 210.584 359.553 209 359.553 207.045V206.224C359.553 204.269 357.967 202.685 356.012 202.685H303.348C301.392 202.685 299.808 204.269 299.808 206.224V207.045C299.808 209 301.392 210.584 303.348 210.584Z" fill="#BAA9FF"/>
<path d="M66.3703 171.262L119.035 171.353L111.28 136.605L58.6152 136.516L66.3703 171.262Z" fill="#5E4BAA"/>
<path d="M64.705 171.304L117.369 171.393L109.617 136.602L56.9521 136.513L64.705 171.304Z" fill="#7A68C1"/>
<path d="M88.0449 179.967L98.9845 180.067L91.4112 156.982L80.4714 156.881L88.0449 179.967Z" fill="#5E4BAA"/>
<path d="M98.5718 178.966H80.8881V180.067H98.5718V178.966Z" fill="#5E4BAA"/>
<path d="M51.3084 177.255H52.4537V157.533L40.7363 127.636L61.6576 111.422L60.9562 110.518L39.3571 127.255L51.3084 157.749V177.255Z" fill="#5E4BAA"/>
<path d="M64.0223 113.488C64.5486 113.115 64.6728 112.385 64.2997 111.86L62.5571 109.402C62.1839 108.875 61.4547 108.75 60.9282 109.125C60.4019 109.497 60.2777 110.227 60.651 110.753L62.3936 113.211C62.7667 113.738 63.4961 113.861 64.0223 113.488Z" fill="#5E4BAA"/>
<path d="M41.824 127.291C41.824 126.454 41.145 125.774 40.3076 125.774C39.47 125.774 38.7911 126.454 38.7911 127.291C38.7911 128.128 39.47 128.806 40.3076 128.806C41.145 128.806 41.824 128.128 41.824 127.291Z" fill="#5E4BAA"/>
<path d="M46.3207 179.967H57.8455V178.804C57.8455 177.634 56.8976 176.686 55.7284 176.686H48.5228C47.3066 176.686 46.3207 177.672 46.3207 178.889V179.967Z" fill="#5E4BAA"/>
<path d="M50.677 177.255H53.0973V158.931H50.677V177.255Z" fill="#5E4BAA"/>
<path d="M61.4285 130.497C61.4833 130.559 61.5378 130.619 61.594 130.676L61.6058 130.69C61.6591 130.75 61.7125 130.807 61.7675 130.863C63.3325 132.22 68.5192 129.785 73.537 125.299C78.5535 120.813 81.5507 115.928 80.3756 114.221C80.3264 114.161 80.2759 114.101 80.2225 114.042L80.2108 114.028C80.1603 113.966 80.1057 113.904 80.0512 113.844C75.4519 108.7 67.5547 108.262 62.4131 112.859C57.2701 117.459 56.8294 125.355 61.4285 130.497Z" fill="#F06F35"/>
<path d="M61.5935 130.677L61.6049 130.689C61.6221 130.711 61.6393 130.731 61.6566 130.751C61.6908 130.792 61.728 130.827 61.7682 130.86C63.3314 132.218 68.5198 129.786 73.5363 125.297C78.5528 120.813 81.5506 115.929 80.3767 114.223C80.3453 114.179 80.3138 114.135 80.2794 114.098C80.2621 114.078 80.245 114.058 80.2221 114.041L80.2106 114.028C79.1456 113.019 76.2535 113.919 72.8749 116.106C71.4375 117.037 69.9114 118.202 68.3995 119.554C67.2141 120.617 66.1404 121.697 65.207 122.755C62.1634 126.21 60.6285 129.4 61.5935 130.677Z" fill="#F3CDBC"/>
<path d="M65.2068 122.755C66.0915 123.485 67.2282 123.919 68.4681 123.919C71.3113 123.919 73.6163 121.615 73.6163 118.772C73.6163 117.796 73.3443 116.883 72.8747 116.106C71.4373 117.037 69.9112 118.202 68.3993 119.554C67.2139 120.617 66.1402 121.697 65.2068 122.755Z" fill="#FFEFE1"/>
<path d="M169.844 269.288H165.224L163.928 210.494H170.985L169.844 269.288Z" fill="#BAA9FF"/>
<path d="M189.924 269.288H144.988V265.228L167.892 263.163L189.924 265.228V269.288Z" fill="#BAA9FF"/>
<path d="M140.624 268.65C140.624 266.609 142.279 264.955 144.32 264.955C146.361 264.955 148.016 266.609 148.016 268.65C148.016 270.692 146.361 272.347 144.32 272.347C142.279 272.347 140.624 270.692 140.624 268.65Z" fill="#BAA9FF"/>
<path d="M185.559 268.65C185.559 266.609 187.214 264.955 189.256 264.955C191.297 264.955 192.951 266.609 192.951 268.65C192.951 270.692 191.297 272.347 189.256 272.347C187.214 272.347 185.559 270.692 185.559 268.65Z" fill="#BAA9FF"/>
<path d="M188.315 214.35H146.599C144.47 214.35 142.742 212.623 142.742 210.494H192.171C192.171 212.623 190.444 214.35 188.315 214.35Z" fill="#BAA9FF"/>
<path d="M136.234 210.493C132.691 210.493 129.819 207.62 129.819 204.078V152.835C129.819 142.69 136.452 134.465 144.634 134.465H178.136C186.319 134.465 192.951 142.69 192.951 152.835V210.493H136.234Z" fill="#F06F35"/>
<path d="M136.896 210.493C134.954 210.493 133.379 208.918 133.379 206.976V152.835C133.379 142.69 140.012 134.465 148.194 134.465H181.696C189.879 134.465 196.511 142.69 196.511 152.835V210.493H136.896Z" fill="#E95F20"/>
<path d="M214.538 210.493H133.743C131.498 210.493 129.678 208.673 129.678 206.429C129.678 204.183 131.498 202.364 133.743 202.364H214.538C216.782 202.364 218.603 204.183 218.603 206.429C218.603 208.673 216.782 210.493 214.538 210.493Z" fill="#F06F35"/>
<path d="M161.358 70.8678C161.141 70.3577 158.605 64.9337 149.999 67.894C149.999 67.894 154.368 66.7931 155.793 68.3539C155.793 68.3539 152.079 67.1724 150.043 68.7902C148.006 70.4063 148.199 74.9845 148.695 76.3254C149.192 77.6646 152.126 81.4758 153.737 81.2778C154.346 81.204 154.974 80.922 155.517 80.5998C155.361 81.36 155.235 82.1807 155.156 83.0718C154.43 91.3286 160.528 96.7912 163.111 94.9402C164.766 93.7537 166.489 96.6956 166.489 96.6956L178.829 75.3772C178.829 75.3772 167.06 64.301 161.358 70.8678Z" fill="#413573"/>
<path d="M184.507 121.082C172.818 126.304 164.033 107.868 164.796 107.678C165.964 106.357 167.169 101.648 166.313 94.8681L166.919 94.9101L177.082 95.6636C177.082 95.6636 177.24 98.8153 177.591 101.757C177.824 103.691 178.141 105.533 178.554 106.337C178.675 106.575 180.878 106.894 180.884 106.899C181.055 107.086 187.625 119.689 184.507 121.082Z" fill="#FFA881"/>
<path d="M259.112 272.05H238.631C238.631 272.05 238.139 268.929 239.21 266.561C240.233 264.289 240.888 263.666 239.775 261.038C241.076 262.379 244.879 263.347 247.839 262.948C248.201 263.537 250.182 266.683 251.393 267.554C252.731 268.516 258.7 268.174 259.112 272.05Z" fill="#483982"/>
<path d="M223.047 271.874H202.566C202.566 271.874 202.074 268.753 203.145 266.385C204.169 264.112 206.166 262.592 206.753 259.97C208.055 261.311 208.812 263.169 211.774 262.771C212.137 263.359 214.115 266.507 215.329 267.378C216.666 268.34 222.636 267.997 223.047 271.874Z" fill="#483982"/>
<path d="M246.936 111.131L249.324 114.444C249.324 114.444 248.281 115.342 246.616 116.769C246.112 117.193 245.808 117.421 245.808 117.421C244.464 118.551 242.811 119.863 241.014 121.301L240.994 121.327C237.859 123.738 234.291 126.395 231.05 128.446C230.757 128.627 230.466 128.805 230.183 128.976C228.216 130.147 226.402 131.069 224.926 131.569C224.757 131.631 224.609 131.668 224.416 131.711C220.12 132.868 211.447 131.362 202.942 128.764C201.767 128.409 200.609 128.029 199.478 127.667C195.303 126.272 191.367 124.678 188.174 123.047C186.255 122.092 184.579 121.132 183.318 120.194C182.869 119.87 182.441 119.564 182.08 119.23C175.174 113.577 178.421 108.087 179.734 108.079C181.372 108.06 183.671 108.493 186.328 109.173C190.516 110.302 195.675 112.096 200.732 113.966C203.512 114.983 206.271 116.025 208.861 116.931C210.41 117.509 211.888 118.029 213.251 118.499C215.862 119.38 218.032 120.026 219.543 120.259C220.525 120.417 222.347 120.071 224.581 119.46C225.173 119.301 225.799 119.12 226.449 118.925C230.048 117.831 234.371 116.23 238.127 114.738C239.977 114.016 241.697 113.308 243.122 112.717C245.428 111.772 246.936 111.131 246.936 111.131Z" fill="#FFA881"/>
<path d="M152.255 175.686C152.255 175.686 147.66 190.009 157.914 196.804C171.655 205.907 209.752 198.147 214.1 202.797C215.201 203.975 211.872 204.571 209.994 221.404C207.292 245.614 205.103 259.155 205.103 259.155C205.103 259.155 205.573 261.924 208.458 263.352C210.349 264.289 212.749 263.71 212.749 263.71C212.749 263.71 240.732 202.272 237.944 193.748C233.118 178.987 206.392 180.435 175.416 171.712C156.499 166.387 152.255 175.686 152.255 175.686Z" fill="#A74E26"/>
<path d="M166.754 175.375C180.358 174.117 217.478 173.477 225.505 178.992C235.387 185.78 248.816 263.408 248.816 263.408C248.816 263.408 247.782 264.228 245.537 264.448C243.447 264.653 238.911 263.315 238.911 263.315C238.911 263.315 216.837 228.353 215.51 219.606C214.182 210.859 214.865 203.081 211.131 202.819C207.397 202.557 156.098 208.47 151.718 194.43C148.297 183.461 152.397 172.851 152.397 172.851C152.397 172.851 154.205 176.535 166.754 175.375Z" fill="#C1683F"/>
<path d="M195.041 130.441C195.882 133.524 196.575 136.284 196.914 138.147C198.48 146.723 200.153 173.834 200.153 173.834C186.259 195.282 147.282 187.894 147.282 187.894C146.43 179.765 149.696 161.681 151.677 145.59C152.164 141.646 152.574 137.827 152.827 134.299C153.049 131.223 153.409 128.492 153.874 126.064C157.172 108.867 165.652 106.978 165.652 106.978C169.618 114.679 182.13 116.752 182.13 116.752C182.285 112.418 180.882 106.899 180.882 106.899C182.466 107.088 187.744 107.887 189.253 108.439C191.035 109.094 205.849 115.849 205.849 115.849C205.849 115.849 206.324 126.732 195.041 130.441Z" fill="#BAA9FF"/>
<path d="M177.084 95.665C177.084 95.665 177.24 98.815 177.593 101.759C172.019 102.28 168.465 97.5731 166.919 94.9114L177.084 95.665Z" fill="#EA8659"/>
<path d="M179.279 98.2241C179.279 98.2241 166.166 100.047 165.157 91.8637C164.147 83.679 161.774 78.4027 170.104 76.894C178.433 75.3836 180.449 78.3054 181.451 80.9553C182.451 83.6035 182.664 97.5377 179.279 98.2241Z" fill="#FFA881"/>
<path d="M180.503 76.4515C178.171 74.2379 176.703 74.9662 175.933 75.8121C168.268 72.7409 164.355 79.145 164.355 79.145C164.194 85.1245 160.369 89.0062 160.369 89.0062C160.369 89.0062 162.945 90.1927 168.292 88.0983C169.926 87.4589 171.286 86.076 172.387 84.4649C170.611 88.4843 167.899 91.5537 167.899 91.5537C174.122 87.6989 175.649 78.2035 175.793 77.2016C176.685 77.8226 178.457 79.1953 179.126 80.6705C180.036 82.6743 180.855 86.9286 182.088 86.6298C182.088 86.6298 184 79.771 180.503 76.4515Z" fill="#413573"/>
<path d="M246.936 111.132C246.936 111.132 248.081 110.118 248.749 109.116C249.417 108.115 249.683 107.113 250.954 106.245C252.223 105.376 253.625 103.105 253.825 103.506C254.027 103.907 253.157 106.378 253.224 106.644C253.292 106.913 256.831 107.678 258.167 107.296C259.503 106.913 262.844 105.844 262.777 106.512C262.71 107.18 259.169 110.921 258.034 111.589C256.898 112.256 253.491 112.057 252.155 112.523C250.82 112.991 249.324 114.445 249.324 114.445L246.936 111.132Z" fill="#FFA881"/>
<path d="M255.697 107.758C255.697 107.758 259.169 104.952 260.684 105.308L258.19 107.758H255.697Z" fill="#FFA881"/>
<path d="M258.724 110.697L263.979 107.179C263.979 107.179 263.01 106.812 261.941 107.179C260.872 107.547 258.724 110.697 258.724 110.697Z" fill="#FFA881"/>
<path d="M181.84 173.113C181.615 172.987 154.963 175.899 151.677 145.59C152.164 141.647 152.574 137.827 152.827 134.299C153.049 131.223 153.409 128.493 153.874 126.064C156.274 125.693 159.15 128.275 160.441 132.106C163.098 139.994 181.771 172.784 181.84 173.113Z" fill="#9D8BE6"/>
<path d="M198.481 174.301L197.004 178.107C197.004 178.107 195.682 177.723 193.579 177.106C192.95 176.914 192.592 176.785 192.592 176.785C190.912 176.273 188.91 175.604 186.725 174.882L186.693 174.879C182.961 173.566 178.791 172.022 175.303 170.425C174.991 170.277 174.684 170.131 174.385 169.985C172.331 168.976 170.571 167.958 169.346 166.994C169.201 166.887 169.09 166.781 168.948 166.645C165.637 163.673 162.17 155.582 159.709 147.035C159.367 145.857 159.053 144.679 158.741 143.533C157.633 139.274 156.823 135.107 156.448 131.539C156.205 129.411 156.096 127.481 156.193 125.913C156.222 125.359 156.242 124.836 156.326 124.351C157.299 115.478 163.672 115.208 164.393 116.302C165.304 117.665 166.194 119.828 167.073 122.426C168.409 126.554 169.718 131.857 170.91 137.115C171.573 139.999 172.204 142.88 172.856 145.545C173.217 147.159 173.586 148.682 173.935 150.08C174.62 152.751 175.263 154.921 175.891 156.314C176.293 157.224 177.577 158.563 179.307 160.102C179.764 160.511 180.257 160.938 180.774 161.376C183.654 163.797 187.354 166.548 190.654 168.882C192.267 170.039 193.799 171.094 195.069 171.969C197.12 173.385 198.481 174.301 198.481 174.301Z" fill="#FFA881"/>
<path d="M198.132 174.425C198.132 174.425 204.778 172.545 206.362 172.985C207.945 173.425 213.369 177.016 212.605 177.991C211.843 178.966 207.065 177.407 204.867 177.703C202.668 177.998 200.967 179.082 199.384 178.847C197.801 178.614 195.046 177.55 195.046 177.55L198.132 174.425Z" fill="#FFA881"/>
<path d="M198.132 174.425C198.132 174.425 201.384 172.756 202.309 171.804C202.425 171.685 202.623 171.71 202.712 171.851C202.96 172.242 203.192 172.997 202.052 173.747C200.411 174.828 198.132 174.425 198.132 174.425Z" fill="#FFA881"/>
<path d="M163.598 113.457C163.598 113.457 157.4 116.468 155.237 120.588C153.075 124.708 152.808 137.862 156.158 154.961C156.158 154.961 166.256 154.297 172.856 145.545C172.856 145.545 170.404 110.985 163.598 113.457Z" fill="#BAA9FF"/>
<path d="M166.14 104.274C166.14 104.274 163.88 105.681 163.875 107.765C163.875 107.765 166.545 115.06 182.13 116.752C182.13 116.752 167.785 109.698 166.14 104.274Z" fill="#9D8BE6"/>
<path d="M178.31 106.01C178.31 106.01 182.243 113.234 182.13 116.752C182.13 116.752 182.397 108.755 181.84 106.899C181.283 105.041 177.966 104.274 177.966 104.274L178.31 106.01Z" fill="#9D8BE6"/>
<path d="M175.421 93.8645C175.553 93.8645 176.8 94.9771 178.448 94.665C180.096 94.3545 180.081 93.0623 180.081 93.0623C180.081 93.0623 178.955 92.8844 177.967 93.0623C176.978 93.2402 175.421 93.8645 175.421 93.8645Z" fill="white"/>
<path d="M43.9814 272.025H43.9024C43.4357 272.025 43.0606 271.413 43.0713 270.671L44.3315 183.664L48.0439 182.974L44.8783 270.676C44.8509 271.433 44.4575 272.025 43.9814 272.025Z" fill="#9989DC"/>
<path d="M160.22 272.025H160.298C160.767 272.025 161.141 271.413 161.131 270.671L159.871 183.664L156.158 182.974L159.323 270.676C159.35 271.433 159.745 272.025 160.22 272.025Z" fill="#9989DC"/>
<path d="M167.041 185.265H36.5981C35.5761 185.265 34.7476 184.436 34.7476 183.414V181.865C34.7476 180.845 35.5761 180.016 36.5981 180.016H167.041C168.063 180.016 168.892 180.845 168.892 181.865V183.414C168.892 184.436 168.063 185.265 167.041 185.265Z" fill="#9989DC"/>
<path d="M326.547 125.266C335.299 133.179 356.644 147.212 356.769 147.163C356.769 147.163 363.601 151.758 368.521 149.937C376.724 146.901 384.961 134.333 374.566 120.365C369.382 113.399 363.466 111.751 365.009 102.93C366.678 93.3747 362.97 81.0566 351.927 79.9691C351.004 79.8785 345.439 78.8363 341.371 79.8818C331.01 82.5485 311.912 125.534 326.547 125.266Z" fill="#483982"/>
<path d="M295.453 265.71C295.732 268.207 292.261 268.882 288.232 269.161C284.204 269.437 285.438 270.24 279.93 271.347C274.424 272.453 272.18 270.983 271.765 270.243C271.396 269.588 273.945 268.503 276.662 267.279C277.005 267.127 277.345 266.969 277.688 266.813C280.744 265.398 282.42 262.602 284.775 259.992C287.003 257.522 289.017 249.71 289.017 249.71L296.497 247.963C296.497 247.963 294.52 254.998 293.846 257.997C293.45 259.763 294.122 261.714 294.715 263.198C295.034 264.005 295.356 264.831 295.453 265.71Z" fill="#FFA881"/>
<path d="M340.641 117.749C340.641 117.749 328.016 119.88 326.547 125.266C325.079 130.653 319.794 157.231 319.794 157.231C319.794 157.231 325.537 166.323 328.476 163.386C331.412 160.448 335.954 133.264 335.954 133.264L340.641 117.749Z" fill="#F3CDBC"/>
<path d="M320.036 155.64L308.19 175.506C308.19 175.506 308.455 176.468 311.637 177.436C311.637 177.436 325.353 175.61 331.142 166.788C332.574 164.605 332.21 157.991 332.21 157.991L320.036 155.64Z" fill="#F3CDBC"/>
<path d="M330.521 131.186C330.521 131.186 326.524 136.7 326.386 142.076C326.248 147.453 320.596 156 319.769 161.515C318.942 167.027 316.184 177.367 316.184 177.367L329.281 180.124L339.206 159.17L341.274 141.525L330.521 131.186Z" fill="#E8B6A0"/>
<path d="M288.232 269.161C284.204 269.437 285.438 270.24 279.93 271.347C274.424 272.453 272.18 270.983 271.765 270.243C271.396 269.588 273.945 268.503 276.662 267.279L276.706 267.326C276.706 267.326 280.616 268.571 285.079 267.266C288.715 266.204 292.209 263.951 294.715 263.198C295.034 264.005 295.356 264.831 295.453 265.71C295.732 268.207 292.261 268.882 288.232 269.161Z" fill="#483982"/>
<path d="M336.971 254.97C338.649 256.838 336.219 259.405 333.104 261.975C329.988 264.546 331.46 264.48 327.623 268.583C323.789 272.688 321.108 272.797 320.341 272.437C319.66 272.119 321.102 269.753 322.599 267.177C322.788 266.855 322.975 266.528 323.163 266.2C324.826 263.272 324.56 260.023 324.958 256.53C325.334 253.224 322.426 245.699 322.426 245.699L327.494 239.926C327.494 239.926 329.979 246.798 331.176 249.631C331.879 251.296 333.562 252.493 334.907 253.355C335.637 253.825 336.38 254.31 336.971 254.97Z" fill="#FFA881"/>
<path d="M333.104 261.975C329.988 264.546 331.46 264.48 327.623 268.583C323.789 272.688 321.108 272.797 320.341 272.437C319.66 272.119 321.102 269.753 322.599 267.177L322.661 267.189C322.661 267.189 326.568 265.927 329.437 262.27C331.777 259.289 333.307 255.426 334.907 253.355C335.637 253.825 336.38 254.31 336.971 254.97C338.649 256.838 336.219 259.405 333.104 261.975Z" fill="#483982"/>
<path d="M331.763 168.545C331.763 168.545 330.384 171.027 325.697 172.405C321.009 173.783 288.34 185.294 284.824 192.532C281.36 199.664 285.72 257.667 285.72 257.667C285.72 257.667 290.061 260.562 294.405 258.081C294.405 258.081 301.779 227.271 301.366 216.312C300.953 205.352 301.16 198.322 301.16 198.322C301.16 198.322 349.339 192.117 352.234 186.121C355.129 180.125 348.718 169.785 348.718 169.785L331.763 168.545Z" fill="#E95F20"/>
<path d="M362.758 169.112C362.758 169.112 370.223 181.779 363.503 194.91C357.703 206.241 315.614 203.242 314.29 205.558C313.462 207.006 317.391 208.144 324.215 225.72C330.426 241.717 331.418 249.671 331.418 249.671C331.418 249.671 327.351 256.013 322.802 255.599C322.802 255.599 291.535 209.277 291.234 202.044C290.82 192.117 301.779 189.637 307.156 186.948C312.533 184.26 334.381 176.54 336.863 174.887C339.344 173.232 338.104 166.959 338.104 166.959L362.758 169.112Z" fill="#F06F35"/>
<path d="M339.741 120.184C339.689 120.203 344.281 123.181 347.968 122.492C351.437 121.844 354.728 117.296 354.683 117.282C353.27 116.88 352.301 115.203 353.028 106.721L352.368 106.795L341.27 108.062C341.27 108.062 341.237 111.519 340.978 114.758C340.763 117.477 340.388 119.944 339.741 120.184Z" fill="#FFA881"/>
<path d="M341.27 108.062C341.27 108.062 341.237 111.519 340.978 114.758C347.104 115.087 350.791 109.777 352.368 106.795L341.27 108.062Z" fill="#EA8E64"/>
<path d="M338.978 110.96C338.978 110.96 353.417 112.385 354.166 103.38C354.914 94.3746 357.28 88.4925 348.094 87.2036C338.907 85.9131 336.828 89.2007 335.846 92.1459C334.866 95.0912 335.242 110.358 338.978 110.96Z" fill="#FFA881"/>
<path d="M340.525 85.7823C340.525 85.7823 342.343 96.783 350.566 99.3943C356.566 101.297 359.283 100.042 359.283 100.042C359.283 100.042 356.394 96.2124 355.369 90.8891C355.065 89.32 353.949 88.0294 352.432 87.5293C348.17 86.128 343.004 82.2933 340.525 85.7823Z" fill="#483982"/>
<path d="M343.246 88.1278C343.246 88.1278 340.525 88.7336 338.114 92.2461C336.796 94.1643 335.269 99.0009 335.529 101.142C335.529 101.142 333.002 90.9606 336.687 87.1729C340.594 83.1569 343.246 88.1278 343.246 88.1278Z" fill="#483982"/>
<path d="M366.502 176.298C366.561 177.562 363.235 183.009 350.667 183.464C345.812 183.64 339.577 183.072 331.624 181.227C326.611 180.064 323.208 174.902 322.939 173.922C318.667 158.345 326.799 149.21 330.109 145.798C331.055 144.823 329.305 142.326 328.869 140.836C326.18 131.634 340.641 117.747 340.641 117.747C340.641 117.747 341.505 123.825 353.662 116.611C354.094 116.356 358.88 123.445 363.487 132.178C368.083 140.903 367.38 143.404 366.147 148.247C366.014 148.755 365.88 149.291 365.742 149.861C365.482 150.959 365.329 151.979 365.081 152.894C360.609 169.372 366.294 171.957 366.502 176.298Z" fill="#F3CDBC"/>
<path d="M308.423 175.239C308.077 175.239 303.834 175.971 302.52 177.7C301.206 179.43 298.024 182.058 299.27 182.472C300.513 182.887 303.903 180.536 304.94 180.536C305.978 180.536 308.468 180.95 309.574 179.636C310.682 178.322 312.145 177.255 312.145 177.255L308.423 175.239Z" fill="#FFA881"/>
<path d="M309.151 180.053C309.151 180.053 306.323 181.609 305.884 182.127C305.442 182.646 305.546 181.609 305.934 181.038C306.323 180.467 306.792 179.715 306.792 179.715L309.151 180.053Z" fill="#FFA881"/>
<path d="M350.667 183.464C348.104 181.063 346.496 177.874 346.444 175.162C346.34 169.785 358.126 161.824 358.747 158.103C359.368 154.381 358.334 142.697 358.334 142.697L366.146 148.247C366.014 148.755 365.88 149.291 365.742 149.861C365.482 150.959 365.329 151.979 365.081 152.894C360.608 169.372 366.294 171.957 366.502 176.298C366.561 177.562 363.235 183.009 350.667 183.464Z" fill="#E8B6A0"/>
<path d="M353.671 116.604C353.671 116.604 365.494 117.332 369.587 123.041C375.348 131.077 386.779 165.326 380.229 169.894C372.851 175.038 369.491 163.146 367.415 158.994C365.962 156.089 356.576 141.29 356.576 138.562C356.576 135.833 353.671 116.604 353.671 116.604Z" fill="#F3CDBC"/>
<path d="M350.967 177.153C350.967 177.153 348.156 177.903 346.283 179.115C345.394 179.692 343.435 179.754 342.627 179.808C341.222 179.902 339.404 179.012 337.713 177.923C335.608 176.569 334.576 174.822 336.504 175.05C338.629 175.3 341.606 175.362 342.418 174.924C343.231 174.488 340.968 173.509 341.002 172.799C341.044 171.947 341.224 172.09 342.606 172.759C343.253 173.071 344.459 173.3 345.333 173.8C346.21 174.3 348.332 173.884 348.332 173.884L350.967 177.153Z" fill="#FFA881"/>
<path d="M375.884 157.667L348.02 173.689C348.02 173.689 347.255 175.348 349.479 178.854C349.479 178.854 370.654 175.61 379.284 170.47C380.596 169.688 375.884 157.667 375.884 157.667Z" fill="#F3CDBC"/>
<path d="M337.294 105.839C337.294 105.839 337.474 106.33 337.526 106.718C337.578 107.106 337.941 107.337 338.87 107.337C339.802 107.337 340.55 107.519 340.99 107.208C341.43 106.898 341.79 106.02 341.79 106.02C341.79 106.02 337.889 105.605 337.294 105.839Z" fill="white"/>
<path d="M497.437 273H0.560188C0.252068 273 0 272.747 0 272.439V272.258C0 271.949 0.252068 271.698 0.560188 271.698H497.437C497.745 271.698 497.997 271.949 497.997 272.258V272.439C497.997 272.747 497.745 273 497.437 273Z" fill="#453C6A"/>
</svg>
