<svg width="500" height="333" viewBox="0 0 500 333" fill="none" xmlns="http://www.w3.org/2000/svg">
<path d="M469.365 329.833C469.365 329.833 530.55 251.25 479.713 166.172C434.607 90.6836 382.016 95.8439 343.431 126.476C326.998 139.525 279.618 128.085 239.293 51.2734C184.299 -53.4757 -6.32908 10.0546 28.4268 171.216C45.2474 249.206 -22.7626 252.04 11.8913 330L469.365 329.833Z" fill="#F9F7FF"/>
<path d="M469.901 332H2.90843C2.35656 332 1.90491 331.55 1.90491 331C1.90491 330.45 2.35656 330 2.90843 330H469.901C470.453 330 470.905 330.45 470.905 331C470.905 331.55 470.453 332 469.901 332Z" fill="#322C4A"/>
<path d="M351.2 311.654C351.178 311.65 351.157 311.646 351.136 311.639C350.96 311.586 350.863 311.406 350.922 311.238C365.946 267.508 379.362 236.674 388.705 224.423C388.919 224.149 389.068 223.954 389.122 223.854C389.213 223.7 389.416 223.644 389.576 223.726C389.736 223.812 389.795 224.004 389.704 224.157C389.624 224.292 389.485 224.483 389.245 224.794C379.939 236.993 366.554 267.763 351.552 311.433C351.504 311.579 351.349 311.669 351.2 311.654" fill="#D99D82"/>
<path d="M395.11 222.011C394.007 223.386 388.57 225.855 388.167 225.559C387.758 225.26 388.85 219.61 389.958 218.234C391.06 216.86 393.109 216.594 394.534 217.635C395.96 218.677 396.218 220.636 395.11 222.011Z" fill="#D99D82"/>
<path d="M384.573 226.326C385.056 228.027 383.765 233.774 383.261 233.913C382.751 234.051 378.61 229.765 378.126 228.068C377.643 226.371 378.7 224.603 380.473 224.123C382.252 223.644 384.089 224.629 384.573 226.326" fill="#D99D82"/>
<path d="M207.11 48.3161C205.391 48.3161 203.763 48.0556 202.249 47.5288C199.037 46.41 196.527 44.1161 195.362 41.2356C194.327 38.6858 192.554 34.5762 189.396 32.1877C185.95 29.5818 181.231 28.579 175.905 30.2564C181.564 28.474 186.324 28.9986 190.049 31.8154C193.409 34.3567 195.231 38.1898 196.309 40.8519C197.364 43.4598 199.653 45.5418 202.586 46.5639C207.054 48.1197 212.7 47.171 218.485 43.8935C221.953 41.9287 227.885 39.7951 236.468 40.7842C241.376 41.3503 244.995 42.3653 245.403 42.5232L253.779 44.864L253.541 45.8578L245.394 44.2394L244.786 44.348C244.753 44.3339 240.904 43.0367 235.915 42.4651C231.338 41.9408 225.152 41.8009 219.121 45.2188C214.998 47.5563 210.792 48.3161 207.11 48.3161" fill="#D7C7C0"/>
<path d="M261.574 54.8035C266.629 56.1911 275.375 55.4461 276.227 51.7972C277.079 48.1501 269.713 42.983 264.658 41.5958C259.603 40.2082 256.177 42.4139 255.326 46.0614C254.474 49.7085 256.52 53.416 261.574 54.8035Z" fill="#E1D6D1"/>
<path d="M245.344 41.7065L244.307 44.78L258.656 48.7168L259.392 45.5622L245.344 41.7065Z" fill="#E1D6D1"/>
<path d="M262.304 51.9324C265.149 52.7124 270.074 52.292 270.554 50.2402C271.032 48.1862 266.887 45.2754 264.04 44.4942C261.195 43.7132 259.264 44.9551 258.786 47.0098C258.305 49.0635 259.459 51.1504 262.304 51.9324" fill="#D7C7C0"/>
<path d="M278.202 12.4027C280.941 13.9476 283.297 14.2852 285.438 14.5922C285.894 14.6575 286.322 14.7191 286.753 14.7913C289.82 15.3053 294.973 18.0374 295.026 18.0649L295.286 17.5554C295.071 17.44 289.943 14.7236 286.73 14.1853C286.292 14.1114 285.859 14.0491 285.398 13.9834C282.539 13.5735 279.584 13.1499 275.793 10.0447C274.158 8.70681 273.289 7.49788 272.448 6.32852C270.968 4.27025 269.571 2.32565 264.505 -5.10304e-05C269.345 2.22248 270.635 4.37567 272.044 6.33554C272.916 7.54997 273.65 9.03808 275.375 10.4508C276.364 11.2586 277.303 11.8956 278.202 12.4027" fill="#D7C7C0"/>
<path d="M302.359 25.8437C305.152 27.2166 310.341 27.7558 311.243 25.7222C312.148 23.6887 308.424 19.8524 305.629 18.4796C302.834 17.1068 300.589 18.0118 299.684 20.0453C298.782 22.0791 299.564 24.4709 302.359 25.8437" fill="#E1D6D1"/>
<path d="M294.346 16.3915L293.399 18.0697L301.335 21.9662L302.117 20.207L294.346 16.3915Z" fill="#E1D6D1"/>
<path d="M287.214 88.927C287.214 63.112 308.142 42.1845 333.956 42.1845C359.77 42.1845 380.698 63.112 380.698 88.927C380.698 114.742 359.77 135.669 333.956 135.669C308.142 135.669 287.214 114.742 287.214 88.927Z" fill="#A3715B"/>
<path d="M291.223 88.927C291.223 65.3252 310.355 46.1925 333.956 46.1925C357.557 46.1925 376.692 65.3252 376.692 88.927C376.692 112.528 357.557 131.663 333.956 131.663C310.355 131.663 291.223 112.528 291.223 88.927" fill="#D99D82"/>
<path d="M294.019 88.9269C294.019 66.8708 311.899 48.9895 333.957 48.9895C356.014 48.9895 373.895 66.8708 373.895 88.9269C373.895 110.985 356.014 128.865 333.957 128.865C311.899 128.865 294.019 110.985 294.019 88.9269Z" fill="#C69179"/>
<path d="M315.547 75.6242C315.547 69.6573 320.037 65.5091 325.972 64.9073C334.074 64.0848 337.599 70.8023 337.599 76.7693C337.599 82.7363 332.671 88.4354 325.74 87.3781C319.841 86.4788 315.547 81.5909 315.547 75.6242" fill="#BB592C"/>
<path d="M321.679 72.0076C321.679 69.9061 323.258 68.4469 325.347 68.2357C328.2 67.9458 329.441 70.3097 329.441 72.4095C329.441 74.511 327.706 76.5172 325.265 76.1446C323.189 75.8269 321.679 74.1071 321.679 72.0076Z" fill="#9D471F"/>
<path d="M321.85 96.7325C322.473 94.7317 323.905 93.6525 325.29 93.8637C327.181 94.1481 327.266 96.6443 326.643 98.6432C326.023 100.644 324.331 102.211 322.897 101.376C321.676 100.667 321.23 98.7312 321.85 96.7325" fill="#D99D82"/>
<path d="M332.901 96.4482C332.696 93.741 333.938 91.7534 335.75 91.3383C338.226 90.7749 339.547 93.7393 339.755 96.4482C339.963 99.1555 338.636 101.859 336.458 101.543C334.604 101.273 333.109 99.1572 332.901 96.4482Z" fill="#D99D82"/>
<path d="M348.114 81.7653C350.243 83.45 350.859 85.7133 349.932 87.3247C348.666 89.5273 345.594 88.4847 343.462 86.7997C341.333 85.1132 340.248 82.305 341.957 80.9209C343.413 79.7408 345.985 80.0785 348.114 81.7653" fill="#D99D82"/>
<path d="M353.369 96.6443C355.498 98.331 356.115 100.592 355.187 102.206C353.921 104.406 350.846 103.365 348.717 101.679C346.59 99.9939 345.502 97.1857 347.213 95.8C348.667 94.6215 351.239 94.9593 353.369 96.6443" fill="#D99D82"/>
<path d="M319.305 43.6611C319.305 42.0326 320.63 40.8352 322.253 40.7128C324.119 40.5722 325.201 42.0326 325.201 43.6611C325.201 45.2896 323.877 46.4799 322.253 46.6096C320.633 46.7394 319.305 45.2896 319.305 43.6611Z" fill="#C69179"/>
<path d="M320.633 43.6617C320.633 42.767 321.368 42.1732 322.252 42.0417C323.152 41.9083 323.873 42.767 323.873 43.6617C323.873 44.5565 323.141 45.1774 322.252 45.2818C321.36 45.387 320.633 44.5565 320.633 43.6617Z" fill="#D99D82"/>
<path d="M305.669 51.0378C305.669 49.9915 306.521 49.2216 307.565 49.1429C308.764 49.0524 309.459 49.9915 309.459 51.0378C309.459 52.0843 308.607 52.8492 307.565 52.9326C306.524 53.016 305.669 52.0843 305.669 51.0378Z" fill="#D99D82"/>
<path d="M306.525 51.0375C306.525 50.4624 306.996 50.0809 307.565 49.9964C308.143 49.9105 308.606 50.4624 308.606 51.0375C308.606 51.6126 308.138 52.0113 307.565 52.0788C306.991 52.1463 306.525 51.6126 306.525 51.0375Z" fill="#9D471F"/>
<path d="M298.483 56.9575C298.483 55.5534 299.626 54.5204 301.025 54.4149C302.634 54.2936 303.568 55.5534 303.568 56.9575C303.568 58.3616 302.425 59.3894 301.025 59.5014C299.629 59.6132 298.483 58.3616 298.483 56.9575Z" fill="#D99D82"/>
<path d="M299.626 56.9575C299.626 56.1866 300.263 55.6743 301.027 55.5605C301.801 55.4449 302.422 56.1866 302.422 56.9575C302.422 57.7301 301.79 58.2642 301.027 58.3542C300.255 58.4458 299.626 57.7301 299.626 56.9575Z" fill="#9D471F"/>
<path d="M340.496 42.1846C340.496 40.556 341.824 39.3584 343.448 39.2358C345.312 39.0956 346.395 40.556 346.395 42.1846C346.395 43.8128 345.07 45.0031 343.448 45.133C341.827 45.2627 340.496 43.8128 340.496 42.1846Z" fill="#C69179"/>
<path d="M341.824 42.1855C341.824 41.2907 342.557 40.6966 343.444 40.5653C344.342 40.4318 345.064 41.2907 345.064 42.1855C345.064 43.0803 344.333 43.7008 343.444 43.8057C342.552 43.9108 341.824 43.0803 341.824 42.1855Z" fill="#9D471F"/>
<path d="M333.167 41.6289C333.167 40.2815 334.262 39.2906 335.605 39.1893C337.149 39.0732 338.045 40.2815 338.045 41.6289C338.045 42.9763 336.948 43.961 335.605 44.0688C334.267 44.1759 333.167 42.9763 333.167 41.6289Z" fill="#9D471F"/>
<path d="M334.264 41.6292C334.264 40.8889 334.873 40.3973 335.604 40.2887C336.35 40.1781 336.947 40.8889 336.947 41.6292C336.947 42.3696 336.341 42.8832 335.604 42.9698C334.864 43.0569 334.264 42.3696 334.264 41.6292Z" fill="#D99D82"/>
<path d="M286.741 79.1181C286.741 77.7708 287.839 76.7797 289.182 76.6787C290.725 76.5613 291.622 77.7708 291.622 79.1181C291.622 80.4653 290.524 81.4509 289.182 81.5572C287.842 81.6655 286.741 80.4653 286.741 79.1181Z" fill="#C69179"/>
<path d="M287.839 79.1183C287.839 78.3786 288.448 77.8867 289.18 77.7784C289.925 77.6666 290.521 78.3786 290.521 79.1183C290.521 79.8581 289.915 80.372 289.18 80.4582C288.441 80.5462 287.839 79.8581 287.839 79.1183Z" fill="#9D471F"/>
<path d="M350.985 47.0794C350.985 45.7326 352.081 44.7417 353.424 44.6408C354.968 44.5245 355.864 45.7326 355.864 47.0794C355.864 48.4263 354.767 49.4105 353.424 49.5181C352.084 49.6254 350.985 48.4263 350.985 47.0794Z" fill="#C69179"/>
<path d="M352.085 47.0787C352.085 46.3387 352.694 45.8476 353.425 45.7388C354.168 45.6283 354.766 46.3387 354.766 47.0787C354.766 47.8188 354.162 48.3322 353.425 48.4187C352.689 48.5057 352.085 47.8188 352.085 47.0787Z" fill="#9D471F"/>
<path d="M364.316 54.7703C364.316 53.1418 365.643 51.9441 367.267 51.8216C369.133 51.6814 370.215 53.1418 370.215 54.7703C370.215 56.3981 368.891 57.5892 367.267 57.7195C365.646 57.848 364.316 56.3981 364.316 54.7703Z" fill="#9D471F"/>
<path d="M365.648 54.7696C365.648 53.8748 366.383 53.2809 367.27 53.1491C368.17 53.0159 368.89 53.8748 368.89 54.7696C368.89 55.6647 368.158 56.2852 367.27 56.3897C366.374 56.4943 365.648 55.6647 365.648 54.7696Z" fill="#D99D82"/>
<path d="M367.268 60.3123C367.268 59.0515 368.293 58.1227 369.552 58.0271C370.998 57.9189 371.836 59.0515 371.836 60.3123C371.836 61.5732 370.812 62.4965 369.552 62.5957C368.299 62.6967 367.268 61.5732 367.268 60.3123Z" fill="#9D471F"/>
<path d="M368.297 60.3123C368.297 59.6186 368.867 59.1597 369.551 59.0568C370.25 58.9539 370.807 59.6186 370.807 60.3123C370.807 61.006 370.244 61.4868 369.551 61.5675C368.861 61.6482 368.297 61.006 368.297 60.3123Z" fill="#D99D82"/>
<path d="M314.014 45.1327C314.17 43.5119 315.333 42.1842 316.964 42.1842C318.593 42.1842 319.912 43.5043 319.912 45.1327C319.912 46.7611 318.601 48.181 316.964 48.081C315.339 47.9821 313.893 46.4239 314.014 45.1327Z" fill="#9D471F"/>
<path d="M315.131 45.2538C314.887 44.2917 315.938 43.4558 316.932 43.4558C317.924 43.4558 318.728 44.2609 318.728 45.2538C318.728 46.2465 317.924 47.0519 316.932 47.0519C315.938 47.0519 315.354 46.1184 315.131 45.2538Z" fill="#D99D82"/>
<path d="M329.904 43.1037C330.009 41.9888 330.811 41.0758 331.931 41.0758C333.051 41.0758 333.958 41.9835 333.958 43.1037C333.958 44.2235 333.057 45.2 331.931 45.1315C330.813 45.0633 329.818 43.9917 329.904 43.1037Z" fill="#9D471F"/>
<path d="M330.693 43.1041C330.522 42.4424 331.247 41.8674 331.928 41.8674C332.612 41.8674 333.165 42.4211 333.165 43.1041C333.165 43.787 332.612 44.3405 331.928 44.3405C331.247 44.3405 330.845 43.6987 330.693 43.1041Z" fill="#D99D82"/>
<path d="M355.363 48.4515C355.498 47.0324 356.517 45.8702 357.944 45.8702C359.368 45.8702 360.525 47.026 360.525 48.4515C360.525 49.8771 359.377 51.12 357.944 51.0328C356.52 50.9462 355.254 49.5817 355.363 48.4515Z" fill="#9D471F"/>
<path d="M356.37 48.4519C356.153 47.6095 357.073 46.8779 357.943 46.8779C358.81 46.8779 359.517 47.5825 359.517 48.4519C359.517 49.321 358.81 50.0259 357.943 50.0259C357.073 50.0259 356.56 49.209 356.37 48.4519Z" fill="#D99D82"/>
<path d="M291.229 65.4459C291.354 64.1335 292.299 63.0579 293.617 63.0579C294.938 63.0579 296.005 64.1282 296.005 65.4459C296.005 66.7656 294.943 67.9162 293.617 67.8336C292.301 67.7549 291.128 66.492 291.229 65.4459Z" fill="#9D471F"/>
<path d="M292.162 65.4455C291.962 64.6674 292.814 63.9901 293.617 63.9901C294.421 63.9901 295.075 64.6418 295.075 65.4455C295.075 66.2496 294.421 66.903 293.617 66.903C292.814 66.903 292.34 66.1469 292.162 65.4455Z" fill="#C69179"/>
<path d="M308.167 48.0812C307.83 46.1922 309.488 45.1328 311.114 45.1328C312.743 45.1328 313.872 46.4415 314.063 48.0812C314.252 49.6989 312.748 50.8694 310.939 50.8694C309.31 50.8694 308.454 49.6843 308.167 48.0812" fill="#D99D82"/>
<path d="M309.645 48.081C309.645 47.2685 310.329 46.809 311.116 46.6103C311.922 46.4061 312.585 46.9306 312.585 48.081C312.585 48.8934 312.065 49.5516 311.116 49.5516C310.305 49.5516 309.645 48.8934 309.645 48.081Z" fill="#C69179"/>
<path d="M300.61 52.9362C300.273 51.0471 301.931 49.9877 303.56 49.9877C305.188 49.9877 306.319 51.2967 306.507 52.9362C306.695 54.5537 305.194 55.7244 303.382 55.7244C301.756 55.7244 300.896 54.5394 300.61 52.9362" fill="#D99D82"/>
<path d="M302.09 52.9358C302.09 52.1238 302.773 51.6641 303.562 51.4652C304.369 51.2609 305.031 51.7853 305.031 52.9358C305.031 53.7482 304.507 54.4068 303.562 54.4068C302.747 54.4068 302.09 53.7482 302.09 52.9358Z" fill="#C69179"/>
<path d="M345.777 44.5189C345.44 42.6299 347.095 41.5704 348.724 41.5704C350.353 41.5704 351.483 42.8793 351.673 44.5189C351.861 46.1364 350.359 47.3069 348.551 47.3069C346.919 47.3069 346.063 46.1219 345.777 44.5189Z" fill="#D99D82"/>
<path d="M347.255 44.5184C347.255 43.7062 347.939 43.2466 348.726 43.0475C349.534 42.8438 350.197 43.3678 350.197 44.5184C350.197 45.3306 349.674 45.9893 348.726 45.9893C347.913 45.9893 347.255 45.3306 347.255 44.5184Z" fill="#C69179"/>
<path d="M336.534 43.172C336.255 41.5995 337.634 40.7177 338.99 40.7177C340.344 40.7177 341.286 41.8071 341.444 43.172C341.599 44.5184 340.35 45.4927 338.841 45.4927C337.487 45.4927 336.774 44.5062 336.534 43.172" fill="#D99D82"/>
<path d="M337.762 43.173C337.762 42.4968 338.333 42.1144 338.988 41.9485C339.66 41.7787 340.211 42.2153 340.211 43.173C340.211 43.8492 339.775 44.3972 338.988 44.3972C338.31 44.3972 337.762 43.8492 337.762 43.173Z" fill="#C69179"/>
<path d="M324.338 41.6504C324 39.7614 325.656 38.7018 327.285 38.7018C328.914 38.7018 330.045 40.0107 330.235 41.6504C330.422 43.268 328.92 44.4385 327.109 44.4385C325.48 44.4385 324.624 43.2534 324.338 41.6504Z" fill="#D99D82"/>
<path d="M325.814 41.65C325.814 40.838 326.497 40.3782 327.286 40.1795C328.095 39.9753 328.756 40.4997 328.756 41.65C328.756 42.4625 328.235 43.121 327.286 43.121C326.475 43.121 325.814 42.4625 325.814 41.65Z" fill="#C69179"/>
<path d="M349.342 133.728C349.342 135.356 348.017 136.554 346.391 136.677C344.527 136.817 343.446 135.356 343.446 133.728C343.446 132.1 344.771 130.91 346.391 130.78C348.014 130.649 349.342 132.1 349.342 133.728Z" fill="#C69179"/>
<path d="M348.013 133.727C348.013 134.623 347.278 135.216 346.392 135.348C345.494 135.482 344.774 134.623 344.774 133.727C344.774 132.834 345.506 132.211 346.392 132.108C347.287 132.002 348.013 132.834 348.013 133.727Z" fill="#9D471F"/>
<path d="M328.148 135.205C328.148 136.833 326.823 138.032 325.2 138.153C323.333 138.294 322.251 136.833 322.251 135.205C322.251 133.577 323.576 132.386 325.2 132.258C326.821 132.127 328.148 133.577 328.148 135.205Z" fill="#9D471F"/>
<path d="M326.82 135.205C326.82 136.099 326.086 136.693 325.201 136.826C324.301 136.958 323.58 136.099 323.58 135.205C323.58 134.311 324.312 133.689 325.201 133.584C326.094 133.48 326.82 134.311 326.82 135.205Z" fill="#D99D82"/>
<path d="M335.481 135.76C335.481 137.108 334.385 138.099 333.041 138.2C331.499 138.315 330.603 137.108 330.603 135.76C330.603 134.411 331.699 133.428 333.041 133.32C334.382 133.213 335.481 134.411 335.481 135.76Z" fill="#C69179"/>
<path d="M334.38 135.761C334.38 136.501 333.772 136.993 333.039 137.101C332.298 137.211 331.701 136.501 331.701 135.761C331.701 135.02 332.304 134.506 333.039 134.419C333.78 134.333 334.38 135.02 334.38 135.761Z" fill="#9D471F"/>
<path d="M317.659 130.31C317.659 131.657 316.563 132.648 315.221 132.749C313.679 132.865 312.781 131.657 312.781 130.31C312.781 128.965 313.879 127.979 315.221 127.873C316.561 127.764 317.659 128.965 317.659 130.31Z" fill="#C69179"/>
<path d="M316.561 130.31C316.561 131.051 315.953 131.541 315.223 131.651C314.479 131.762 313.881 131.051 313.881 130.31C313.881 129.57 314.487 129.058 315.223 128.97C315.961 128.884 316.561 129.57 316.561 130.31" fill="#9D471F"/>
<path d="M354.632 132.257C354.475 133.878 353.312 135.205 351.685 135.205C350.054 135.205 348.734 133.885 348.734 132.257C348.734 130.629 350.046 129.209 351.685 129.307C353.309 129.407 354.757 130.965 354.632 132.257Z" fill="#9D471F"/>
<path d="M353.482 132.257C353.728 133.219 352.677 134.054 351.684 134.054C350.691 134.054 349.886 133.25 349.886 132.257C349.886 131.264 350.691 130.458 351.684 130.458C352.677 130.458 353.262 131.392 353.482 132.257Z" fill="#D99D82"/>
<path d="M338.745 134.286C338.635 135.399 337.836 136.314 336.715 136.314C335.597 136.314 334.689 135.405 334.689 134.286C334.689 133.166 335.591 132.189 336.715 132.257C337.834 132.325 338.829 133.397 338.745 134.286Z" fill="#9D471F"/>
<path d="M337.955 134.285C338.123 134.948 337.401 135.523 336.718 135.523C336.035 135.523 335.481 134.968 335.481 134.285C335.481 133.603 336.035 133.05 336.718 133.05C337.401 133.05 337.801 133.691 337.955 134.285Z" fill="#D99D82"/>
<path d="M313.285 128.939C313.15 130.358 312.13 131.519 310.704 131.519C309.277 131.519 308.123 130.363 308.123 128.939C308.123 127.513 309.272 126.27 310.704 126.356C312.128 126.444 313.393 127.808 313.285 128.939Z" fill="#9D471F"/>
<path d="M312.279 128.939C312.493 129.78 311.573 130.512 310.704 130.512C309.832 130.512 309.13 129.807 309.13 128.939C309.13 128.069 309.832 127.364 310.704 127.364C311.573 127.364 312.083 128.181 312.279 128.939Z" fill="#D99D82"/>
<path d="M360.48 129.308C360.815 131.199 359.158 132.257 357.53 132.257C355.903 132.257 354.771 130.949 354.58 129.308C354.395 127.691 355.897 126.52 357.707 126.52C359.334 126.52 360.192 127.705 360.48 129.308Z" fill="#D99D82"/>
<path d="M359.002 129.308C359.002 130.121 358.317 130.582 357.53 130.78C356.722 130.984 356.06 130.459 356.06 129.308C356.06 128.497 356.581 127.838 357.53 127.838C358.343 127.838 359.002 128.497 359.002 129.308Z" fill="#C69179"/>
<path d="M322.868 132.871C323.206 134.761 321.549 135.82 319.919 135.82C318.292 135.82 317.161 134.511 316.971 132.871C316.784 131.253 318.287 130.083 320.098 130.083C321.725 130.083 322.581 131.268 322.868 132.871Z" fill="#D99D82"/>
<path d="M321.393 132.87C321.393 133.683 320.711 134.144 319.924 134.342C319.115 134.546 318.452 134.021 318.452 132.87C318.452 132.059 318.975 131.4 319.924 131.4C320.735 131.4 321.393 132.059 321.393 132.87Z" fill="#C69179"/>
<path d="M332.112 134.217C332.394 135.79 331.015 136.671 329.658 136.671C328.303 136.671 327.364 135.583 327.206 134.217C327.049 132.87 328.298 131.895 329.807 131.895C331.161 131.895 331.877 132.883 332.112 134.217Z" fill="#D99D82"/>
<path d="M330.883 134.217C330.883 134.893 330.313 135.276 329.66 135.441C328.988 135.61 328.434 135.175 328.434 134.217C328.434 133.54 328.869 132.993 329.66 132.993C330.335 132.993 330.883 133.54 330.883 134.217Z" fill="#C69179"/>
<path d="M344.313 135.739C344.648 137.627 342.99 138.688 341.363 138.688C339.734 138.688 338.604 137.38 338.414 135.739C338.226 134.122 339.728 132.951 341.539 132.951C343.166 132.951 344.026 134.136 344.313 135.739" fill="#D99D82"/>
<path d="M342.832 135.739C342.832 136.552 342.15 137.011 341.361 137.211C340.553 137.415 339.891 136.89 339.891 135.739C339.891 134.928 340.414 134.269 341.361 134.269C342.176 134.269 342.832 134.928 342.832 135.739Z" fill="#C69179"/>
<path d="M381.941 93.0972C383.429 93.7631 383.98 95.4609 383.429 96.9936C382.797 98.7539 381.02 99.1466 379.532 98.4804C378.048 97.816 377.502 96.1201 378.048 94.5855C378.59 93.0528 380.453 92.4325 381.941 93.0972" fill="#C69179"/>
<path d="M381.401 94.3099C382.217 94.675 382.46 95.5892 382.217 96.45C381.975 97.3255 380.894 97.6338 380.077 97.2683C379.26 96.9032 378.993 95.982 379.26 95.1264C379.527 94.2694 380.584 93.9445 381.401 94.3099" fill="#9D471F"/>
<path d="M374.637 113.048C376.125 113.713 376.677 115.41 376.128 116.943C375.493 118.703 373.718 119.096 372.23 118.431C370.746 117.765 370.197 116.071 370.743 114.535C371.286 113.004 373.15 112.382 374.637 113.048Z" fill="#9D471F"/>
<path d="M374.098 114.259C374.915 114.625 375.154 115.539 374.915 116.401C374.67 117.275 373.59 117.583 372.773 117.218C371.956 116.853 371.69 115.931 371.956 115.078C372.225 114.219 373.278 113.894 374.098 114.259Z" fill="#D99D82"/>
<path d="M378.138 106.582C379.366 107.132 379.824 108.537 379.369 109.805C378.844 111.262 377.375 111.587 376.147 111.036C374.916 110.486 374.467 109.083 374.916 107.813C375.365 106.545 376.907 106.031 378.138 106.582Z" fill="#C69179"/>
<path d="M377.69 107.585C378.367 107.886 378.568 108.642 378.367 109.356C378.166 110.08 377.273 110.335 376.596 110.032C375.92 109.731 375.701 108.967 375.92 108.261C376.142 107.55 377.014 107.283 377.69 107.585Z" fill="#BB592C"/>
<path d="M365.89 120.626C367.117 121.175 367.576 122.579 367.12 123.847C366.596 125.303 365.127 125.628 363.9 125.077C362.669 124.528 362.216 123.126 362.666 121.856C363.116 120.589 364.659 120.075 365.89 120.626Z" fill="#C69179"/>
<path d="M365.437 121.629C366.115 121.931 366.314 122.686 366.115 123.4C365.913 124.123 365.021 124.378 364.344 124.075C363.669 123.772 363.446 123.01 363.669 122.306C363.892 121.596 364.763 121.328 365.437 121.629" fill="#9D471F"/>
<path d="M382.756 87.6696C384.173 88.4735 384.91 90.0778 384.244 91.5643C383.58 93.0511 381.837 93.7173 380.349 93.0529C378.862 92.3886 378.103 90.6102 378.862 89.1583C379.615 87.7138 381.63 87.029 382.756 87.6696Z" fill="#9D471F"/>
<path d="M382.289 88.7196C383.264 88.8886 383.6 90.1881 383.194 91.0948C382.787 92.0012 381.726 92.4087 380.821 92.0034C379.913 91.5977 379.506 90.5331 379.913 89.6282C380.319 88.7215 381.405 88.5691 382.289 88.7196Z" fill="#D99D82"/>
<path d="M378.125 103C379.099 103.553 379.606 104.656 379.148 105.678C378.693 106.701 377.493 107.159 376.47 106.702C375.447 106.245 374.925 105.023 375.447 104.023C375.963 103.03 377.35 102.56 378.125 103Z" fill="#9D471F"/>
<path d="M377.803 103.722C378.477 103.837 378.706 104.731 378.425 105.355C378.148 105.979 377.416 106.258 376.792 105.979C376.17 105.7 375.892 104.97 376.17 104.346C376.447 103.722 377.2 103.617 377.803 103.722" fill="#D99D82"/>
<path d="M362.85 124.058C364.088 124.761 364.734 126.167 364.154 127.469C363.57 128.77 362.045 129.354 360.741 128.772C359.441 128.19 358.774 126.634 359.438 125.362C360.099 124.097 361.861 123.499 362.85 124.058Z" fill="#9D471F"/>
<path d="M362.439 124.978C363.296 125.125 363.588 126.265 363.234 127.057C362.879 127.85 361.948 128.206 361.153 127.852C360.361 127.496 360.007 126.565 360.358 125.773C360.713 124.978 361.667 124.846 362.439 124.978Z" fill="#D99D82"/>
<path d="M382.456 81.1258C384.318 81.59 384.608 83.5357 383.945 85.0225C383.279 86.5071 381.623 87.0046 380.047 86.509C378.496 86.0208 378.039 84.1707 378.779 82.5189C379.442 81.0321 380.873 80.7329 382.456 81.1258Z" fill="#D99D82"/>
<path d="M381.851 82.4754C382.591 82.8076 382.732 83.619 382.594 84.4191C382.447 85.2397 381.7 85.6306 380.649 85.1608C379.909 84.8302 379.522 84.0851 379.909 83.219C380.237 82.4773 381.107 82.1451 381.851 82.4754" fill="#C69179"/>
<path d="M370.355 116.915C372.215 117.377 372.507 119.323 371.841 120.809C371.176 122.296 369.521 122.794 367.947 122.298C366.394 121.808 365.936 119.96 366.677 118.308C367.342 116.821 368.775 116.522 370.355 116.915Z" fill="#D99D82"/>
<path d="M369.749 118.264C370.49 118.595 370.631 119.408 370.49 120.206C370.346 121.029 369.596 121.419 368.547 120.95C367.806 120.617 367.42 119.872 367.806 119.006C368.136 118.264 369.006 117.932 369.749 118.264Z" fill="#C69179"/>
<path d="M375.354 109.027C376.904 109.412 377.147 111.031 376.594 112.268C376.041 113.507 374.661 113.92 373.352 113.507C372.058 113.099 371.678 111.561 372.295 110.187C372.848 108.948 374.039 108.7 375.354 109.027" fill="#D99D82"/>
<path d="M374.855 110.149C375.47 110.425 375.588 111.1 375.47 111.766C375.352 112.449 374.728 112.774 373.853 112.383C373.238 112.108 372.914 111.488 373.235 110.766C373.513 110.149 374.234 109.872 374.855 110.149Z" fill="#C69179"/>
<path d="M381.723 98.5135C383.586 98.9779 383.875 100.924 383.21 102.408C382.545 103.895 380.888 104.392 379.318 103.897C377.762 103.409 377.307 101.559 378.046 99.9067C378.711 98.4199 380.143 98.1209 381.723 98.5135" fill="#D99D82"/>
<path d="M381.119 99.862C381.861 100.194 382.002 101.005 381.864 101.806C381.72 102.626 380.968 103.017 379.919 102.547C379.177 102.217 378.79 101.47 379.177 100.604C379.508 99.862 380.379 99.5298 381.119 99.862" fill="#C69179"/>
<path d="M298.801 120.773C297.31 121.43 295.682 120.701 294.913 119.266C294.033 117.616 294.931 116.035 296.422 115.378C297.911 114.719 299.534 115.454 300.311 116.885C301.082 118.315 300.29 120.116 298.801 120.773Z" fill="#C69179"/>
<path d="M298.264 119.558C297.444 119.92 296.603 119.487 296.127 118.73C295.643 117.961 296.137 116.954 296.957 116.594C297.774 116.232 298.638 116.651 299.091 117.422C299.547 118.196 299.081 119.197 298.264 119.558Z" fill="#9D471F"/>
<path d="M288.897 101.978C287.408 102.637 285.776 101.906 285.01 100.471C284.129 98.821 285.028 97.2407 286.516 96.5836C288.008 95.9265 289.63 96.6587 290.403 98.0904C291.177 99.5203 290.388 101.321 288.897 101.978Z" fill="#C69179"/>
<path d="M288.359 100.763C287.541 101.125 286.701 100.692 286.223 99.9353C285.74 99.1662 286.233 98.1603 287.051 97.7989C287.869 97.4374 288.734 97.8559 289.187 98.6266C289.645 99.4013 289.179 100.402 288.359 100.763Z" fill="#9D471F"/>
<path d="M291.344 108.911C290.11 109.454 288.763 108.852 288.127 107.663C287.398 106.297 288.142 104.991 289.376 104.447C290.61 103.902 291.952 104.508 292.593 105.693C293.232 106.877 292.578 108.368 291.344 108.911Z" fill="#C69179"/>
<path d="M290.902 107.905C290.226 108.204 289.529 107.846 289.134 107.221C288.734 106.584 289.144 105.75 289.821 105.451C290.497 105.154 291.212 105.499 291.589 106.138C291.966 106.778 291.579 107.606 290.902 107.905Z" fill="#9D471F"/>
<path d="M289.139 90.4061C287.91 90.9493 286.559 90.3474 285.924 89.1597C285.196 87.7941 285.939 86.4874 287.172 85.944C288.404 85.3989 289.747 86.0048 290.387 87.1904C291.027 88.3723 290.372 89.8627 289.139 90.4061Z" fill="#C69179"/>
<path d="M288.698 89.3999C288.022 89.6989 287.327 89.3411 286.932 88.7151C286.529 88.0803 286.939 87.2469 287.615 86.9478C288.293 86.6503 289.008 86.9954 289.384 87.6342C289.761 88.2747 289.374 89.1024 288.698 89.3999Z" fill="#9D471F"/>
<path d="M302.279 125.019C300.732 125.53 299.047 125 298.391 123.51C297.733 122.021 298.41 120.28 299.9 119.622C301.387 118.965 303.217 119.593 303.787 121.131C304.352 122.658 303.51 124.611 302.279 125.019Z" fill="#9D471F"/>
<path d="M301.817 123.966C301.037 124.579 299.848 123.955 299.447 123.047C299.044 122.138 299.458 121.076 300.367 120.675C301.274 120.275 302.336 120.686 302.734 121.595C303.137 122.503 302.52 123.414 301.817 123.966Z" fill="#D99D82"/>
<path d="M294.014 111.302C292.951 111.654 291.792 111.289 291.34 110.265C290.888 109.241 291.353 108.044 292.378 107.591C293.4 107.139 294.661 107.57 295.052 108.628C295.44 109.678 294.859 111.021 294.014 111.302Z" fill="#9D471F"/>
<path d="M293.693 110.577C293.156 110.999 292.339 110.57 292.063 109.946C291.787 109.322 292.07 108.591 292.696 108.316C293.321 108.039 294.05 108.323 294.326 108.947C294.602 109.573 294.177 110.199 293.693 110.577Z" fill="#D99D82"/>
<path d="M288.629 85.8508C287.276 86.2987 285.802 85.8345 285.225 84.5295C284.652 83.2262 285.243 81.7011 286.546 81.1264C287.85 80.5522 289.451 81.1009 289.95 82.4462C290.444 83.7841 289.707 85.4929 288.629 85.8508Z" fill="#9D471F"/>
<path d="M288.224 84.9267C287.542 85.4647 286.499 84.9177 286.149 84.1228C285.799 83.3264 286.159 82.3977 286.954 82.047C287.749 81.6965 288.679 82.0562 289.029 82.8527C289.382 83.6476 288.839 84.444 288.224 84.9267Z" fill="#D99D82"/>
<path d="M307.338 129.179C305.746 130.251 304.107 129.161 303.449 127.672C302.793 126.182 303.535 124.62 304.957 123.785C306.363 122.959 308.039 123.862 308.768 125.518C309.426 127.008 308.689 128.271 307.338 129.179Z" fill="#D99D82"/>
<path d="M306.741 127.828C305.999 128.155 305.304 127.716 304.802 127.076C304.29 126.419 304.501 125.6 305.554 125.136C306.297 124.807 307.109 125.02 307.493 125.888C307.823 126.631 307.485 127.499 306.741 127.828Z" fill="#C69179"/>
<path d="M288.901 96.2057C287.309 97.2775 285.671 96.1873 285.013 94.6986C284.356 93.2084 285.098 91.6463 286.521 90.8094C287.927 89.9854 289.601 90.8884 290.331 92.544C290.991 94.0343 290.251 95.2972 288.901 96.2057" fill="#D99D82"/>
<path d="M288.305 94.8531C287.56 95.1816 286.865 94.7429 286.365 94.1022C285.852 93.4452 286.065 92.6265 287.117 92.1623C287.86 91.8338 288.675 92.0466 289.057 92.9147C289.385 93.6582 289.047 94.5264 288.305 94.8531Z" fill="#C69179"/>
<path d="M291.398 105.207C290.073 106.099 288.709 105.193 288.161 103.952C287.616 102.711 288.232 101.412 289.415 100.716C290.586 100.03 291.981 100.78 292.589 102.159C293.136 103.399 292.523 104.451 291.398 105.207Z" fill="#D99D82"/>
<path d="M290.902 104.082C290.283 104.353 289.705 103.988 289.29 103.456C288.862 102.909 289.038 102.228 289.916 101.841C290.534 101.567 291.211 101.743 291.528 102.466C291.802 103.085 291.52 103.808 290.902 104.082Z" fill="#C69179"/>
<path d="M294.928 116.981C293.334 118.051 291.697 116.963 291.039 115.473C290.382 113.982 291.124 112.42 292.547 111.585C293.95 110.761 295.629 111.662 296.359 113.318C297.016 114.808 296.278 116.071 294.928 116.981" fill="#D99D82"/>
<path d="M294.335 115.628C293.591 115.954 292.894 115.516 292.394 114.875C291.882 114.218 292.092 113.4 293.145 112.937C293.888 112.609 294.703 112.82 295.086 113.688C295.413 114.431 295.078 115.299 294.335 115.628Z" fill="#C69179"/>
<path d="M379.406 75.5241C381.034 75.4839 382.262 76.7778 382.425 78.3984C382.616 80.2596 381.181 81.3793 379.553 81.4195C377.928 81.4619 376.703 80.1678 376.534 78.5471C376.362 76.932 377.778 75.5665 379.406 75.5241Z" fill="#C69179"/>
<path d="M379.438 76.8538C380.332 76.8317 380.945 77.5514 381.098 78.4321C381.254 79.3278 380.415 80.0695 379.521 80.0934C378.626 80.1151 377.986 79.3995 377.86 78.5148C377.732 77.6246 378.543 76.8759 379.438 76.8538Z" fill="#9D471F"/>
<path d="M377.801 70.2748C379.424 70.3905 380.783 71.5209 380.823 73.1473C380.865 74.7754 379.58 76.1297 377.951 76.1701C376.323 76.2123 374.872 74.9368 374.927 73.2976C374.985 71.6715 376.507 70.1848 377.801 70.2748" fill="#C69179"/>
<path d="M377.83 71.4256C378.786 71.1556 379.65 72.1854 379.674 73.1764C379.699 74.1695 378.914 74.9953 377.921 75.0209C376.929 75.0451 376.104 74.2611 376.08 73.2683C376.052 72.2752 376.972 71.6696 377.83 71.4256" fill="#D99D82"/>
<path d="M374.703 64.5044C376.586 64.119 377.687 65.7489 377.727 67.3767C377.769 69.0048 376.488 70.1687 374.855 70.3999C373.243 70.6274 372.035 69.1554 371.986 67.3475C371.947 65.7194 373.109 64.8311 374.703 64.5044Z" fill="#D99D82"/>
<path d="M374.741 65.9824C375.551 65.9603 376.031 66.632 376.249 67.4139C376.474 68.2179 375.964 68.8933 374.817 68.9228C374.004 68.9428 373.33 68.4382 373.309 67.4892C373.288 66.6781 373.928 66.0024 374.741 65.9824Z" fill="#C69179"/>
<path d="M373.191 59.9492C374.62 59.6558 375.456 60.8947 375.489 62.1317C375.519 63.3688 374.547 64.2533 373.306 64.4295C372.079 64.604 371.162 63.4844 371.128 62.1096C371.095 60.8725 371.979 60.197 373.191 59.9492Z" fill="#D99D82"/>
<path d="M373.22 61.0725C373.837 61.0559 374.2 61.5661 374.369 62.1608C374.538 62.7701 374.151 63.2842 373.278 63.3063C372.661 63.3226 372.15 62.9391 372.132 62.2177C372.114 61.6011 372.604 61.087 373.22 61.0725" fill="#C69179"/>
<path d="M294.798 60.9361C294.458 59.0474 296.116 57.9884 297.746 57.9884C299.375 57.9884 300.504 59.297 300.694 60.9361C300.882 62.5531 299.381 63.7242 297.571 63.7242C295.941 63.7242 295.083 62.5385 294.798 60.9361" fill="#D99D82"/>
<path d="M296.274 60.9371C296.274 60.124 296.955 59.6652 297.743 59.4668C298.552 59.2615 299.215 59.7863 299.215 60.9371C299.215 61.7484 298.693 62.4071 297.743 62.4071C296.932 62.4071 296.274 61.7484 296.274 60.9371Z" fill="#C69179"/>
<path d="M287.599 76.2095C287.294 74.9247 287.84 73.6031 289.09 73.1791C290.337 72.7534 291.695 73.4215 292.121 74.6695C292.544 75.9195 291.909 77.3512 290.627 77.7016C289.354 78.0485 287.84 77.2318 287.599 76.2095Z" fill="#9D471F"/>
<path d="M288.481 75.9078C288.042 75.2344 288.63 74.3203 289.388 74.0594C290.152 73.8009 290.979 74.2082 291.238 74.9701C291.497 75.7317 291.09 76.5594 290.328 76.8182C289.567 77.077 288.876 76.5137 288.481 75.9078Z" fill="#D99D82"/>
<path d="M288.949 71.3807C288.021 69.7013 289.249 68.1649 290.79 67.6401C292.332 67.1152 293.826 67.9907 294.53 69.481C295.23 70.9529 294.186 72.5443 292.472 73.128C290.93 73.6511 289.738 72.8068 288.949 71.3807Z" fill="#D99D82"/>
<path d="M290.349 70.9047C290.087 70.1358 290.587 69.4804 291.268 69.0382C291.968 68.5848 292.763 68.8675 293.134 69.9578C293.396 70.7267 293.114 71.5179 292.215 71.8226C291.448 72.0849 290.609 71.6739 290.349 70.9047" fill="#C69179"/>
<path d="M318.453 125.743C318.453 125.743 327.907 128.126 333.041 124.2C338.176 120.274 346.467 117.563 352.372 118.075C358.273 118.587 358.922 118.695 362.885 116.462C362.885 116.462 362.682 120.644 359.002 122.285C355.322 123.928 342.251 129.611 342.251 129.611H329.037L318.453 125.743" fill="#D99D82"/>
<path d="M346.494 122.346C346.873 123.372 345.815 124.708 344.132 125.33C342.446 125.954 340.775 125.628 340.395 124.602C340.016 123.577 341.074 122.241 342.757 121.617C344.443 120.995 346.115 121.32 346.494 122.346Z" fill="#BB592C"/>
<path d="M339.34 115.799C339.34 115.432 339.639 115.135 340.004 115.135C340.37 115.135 340.669 115.432 340.669 115.799C340.669 116.164 340.37 116.462 340.004 116.462C339.639 116.462 339.34 116.164 339.34 115.799Z" fill="#BB592C"/>
<path d="M357.53 115.799C357.53 115.432 357.828 115.134 358.197 115.134C358.56 115.134 358.858 115.432 358.858 115.799C358.858 116.164 358.56 116.462 358.197 116.462C357.828 116.462 357.53 116.164 357.53 115.799Z" fill="#BB592C"/>
<path d="M308.981 115.799C308.981 115.432 309.278 115.134 309.646 115.134C310.012 115.134 310.309 115.432 310.309 115.799C310.309 116.164 310.012 116.461 309.646 116.461C309.278 116.461 308.981 116.164 308.981 115.799Z" fill="#BB592C"/>
<path d="M320.731 122.867C320.731 122.502 321.028 122.204 321.393 122.204C321.76 122.204 322.057 122.502 322.057 122.867C322.057 123.234 321.76 123.531 321.393 123.531C321.028 123.531 320.731 123.234 320.731 122.867Z" fill="#BB592C"/>
<path d="M366.602 104.245C366.602 103.878 366.901 103.581 367.267 103.581C367.634 103.581 367.929 103.878 367.929 104.245C367.929 104.612 367.634 104.908 367.267 104.908C366.901 104.908 366.602 104.612 366.602 104.245Z" fill="#BB592C"/>
<path d="M300.414 104.245C300.414 103.878 300.71 103.58 301.078 103.58C301.444 103.58 301.74 103.878 301.74 104.245C301.74 104.612 301.444 104.907 301.078 104.907C300.71 104.907 300.414 104.612 300.414 104.245Z" fill="#BB592C"/>
<path d="M368.888 90.3693C368.888 90.0023 369.184 89.7052 369.55 89.7052C369.918 89.7052 370.215 90.0023 370.215 90.3693C370.215 90.7366 369.918 91.0338 369.55 91.0338C369.184 91.0338 368.888 90.7366 368.888 90.3693Z" fill="#BB592C"/>
<path d="M296.924 90.369C296.924 90.0019 297.22 89.7046 297.588 89.7046C297.956 89.7046 298.252 90.0019 298.252 90.369C298.252 90.736 297.956 91.0336 297.588 91.0336C297.22 91.0336 296.924 90.736 296.924 90.369Z" fill="#BB592C"/>
<path d="M366.629 76.1723C366.629 75.805 366.927 75.5077 367.291 75.5077C367.658 75.5077 367.956 75.805 367.956 76.1723C367.956 76.5373 367.658 76.8349 367.291 76.8349C366.927 76.8349 366.629 76.5373 366.629 76.1723Z" fill="#BB592C"/>
<path d="M298.965 76.1722C298.965 75.8051 299.263 75.5076 299.628 75.5076C299.995 75.5076 300.292 75.8051 300.292 76.1722C300.292 76.5374 299.995 76.8347 299.628 76.8347C299.263 76.8347 298.965 76.5374 298.965 76.1722Z" fill="#BB592C"/>
<path d="M359.86 63.991C359.86 63.624 360.157 63.3268 360.524 63.3268C360.889 63.3268 361.186 63.624 361.186 63.991C361.186 64.3562 360.889 64.6537 360.524 64.6537C360.157 64.6537 359.86 64.3562 359.86 63.991Z" fill="#BB592C"/>
<path d="M305.86 63.9906C305.86 63.6235 306.158 63.3261 306.526 63.3261C306.891 63.3261 307.188 63.6235 307.188 63.9906C307.188 64.3558 306.891 64.653 306.526 64.653C306.158 64.653 305.86 64.3558 305.86 63.9906Z" fill="#BB592C"/>
<path d="M350.326 56.3989C350.326 56.0321 350.623 55.7347 350.986 55.7347C351.355 55.7347 351.651 56.0321 351.651 56.3989C351.651 56.7644 351.355 57.0618 350.986 57.0618C350.623 57.0618 350.326 56.7644 350.326 56.3989Z" fill="#BB592C"/>
<path d="M314.887 56.3994C314.887 56.0322 315.186 55.7349 315.551 55.7349C315.916 55.7349 316.214 56.0322 316.214 56.3994C316.214 56.7647 315.916 57.062 315.551 57.062C315.186 57.062 314.887 56.7647 314.887 56.3994Z" fill="#BB592C"/>
<path d="M334.025 51.8126C334.025 51.446 334.32 51.1492 334.688 51.1492C335.055 51.1492 335.352 51.446 335.352 51.8126C335.352 52.179 335.055 52.4764 334.688 52.4764C334.32 52.4764 334.025 52.179 334.025 51.8126Z" fill="#BB592C"/>
<path d="M420.646 47.9853C418.545 48.7885 416.844 48.7787 415.297 48.7696C414.968 48.768 414.659 48.766 414.346 48.7719C412.125 48.8116 408.193 50.1992 408.154 50.2136L408.024 49.8256C408.187 49.767 412.099 48.3872 414.428 48.3455C414.747 48.3397 415.059 48.3416 415.392 48.3432C417.454 48.3553 419.59 48.3677 422.597 46.5722C423.897 45.7986 424.636 45.0358 425.356 44.2977C426.62 42.9983 427.812 41.771 431.639 40.6612C427.984 41.7221 426.844 43.1081 425.639 44.3452C424.893 45.1117 424.219 46.0863 422.848 46.9032C422.066 47.3706 421.336 47.7214 420.646 47.9853" fill="#D7C7C0"/>
<path d="M402.181 54.8191C400.058 55.4949 396.333 55.3291 395.909 53.7958C395.485 52.2629 398.52 49.9431 400.643 49.2673C402.766 48.5915 404.257 49.4684 404.681 51.0017C405.105 52.5346 404.3 54.1436 402.181 54.8191Z" fill="#E1D6D1"/>
<path d="M408.839 48.9827L409.332 50.2688L403.313 52.1868L402.945 50.8607L408.839 48.9827" fill="#E1D6D1"/>
<path d="M401.88 53.8303C400.535 54.2589 398.171 54.1537 397.902 53.1813C397.634 52.2089 399.559 50.7376 400.905 50.3089C402.25 49.8803 403.195 50.4364 403.466 51.4091C403.735 52.3814 403.226 53.4016 401.88 53.8303Z" fill="#D7C7C0"/>
<path d="M442.084 143.501C439.796 141.902 437.812 139.986 436.351 137.426C431.545 129.014 421.713 124.413 421.616 124.367L422.115 123.286C422.53 123.478 432.389 128.095 437.383 136.835C440.236 141.827 445.352 144.289 450.768 146.893C454.636 148.752 458.636 150.676 462.329 153.662C458.13 150.736 453.917 149.262 450.112 147.433C447.218 146.039 444.543 145.221 442.084 143.501" fill="#D7C7C0"/>
<path d="M407.254 120.507C403.751 118.194 399.493 112.503 401.128 110.027C402.759 107.553 409.666 109.232 413.169 111.545C416.675 113.857 417.247 117.115 415.612 119.591C413.981 122.065 410.757 122.82 407.254 120.507" fill="#E1D6D1"/>
<path d="M423.458 123.289L422.044 125.431L412.307 119.003L413.72 116.862L423.458 123.289Z" fill="#E1D6D1"/>
<path d="M408.927 118.805C406.863 117.443 404.354 114.09 405.316 112.631C406.281 111.174 410.35 112.163 412.414 113.525C414.476 114.888 414.815 116.808 413.853 118.266C412.891 119.725 410.992 120.169 408.927 118.805" fill="#D7C7C0"/>
<path d="M437.154 111.475C435.442 110.786 433.875 109.848 432.55 108.417C428.193 103.716 421.167 102.222 421.099 102.208L421.256 101.436C421.554 101.499 428.601 102.997 433.125 107.883C435.713 110.672 439.378 111.491 443.263 112.359C446.031 112.979 448.899 113.62 451.726 114.99C448.581 113.734 445.645 113.414 442.917 112.805C440.843 112.341 438.998 112.214 437.154 111.475" fill="#D7C7C0"/>
<path d="M411.263 101.872C408.659 100.906 405.063 97.8762 405.744 96.0352C406.427 94.1962 411.131 94.2437 413.735 95.2092C416.339 96.1746 417.196 98.1899 416.512 100.029C415.831 101.868 413.87 102.837 411.263 101.872Z" fill="#E1D6D1"/>
<path d="M422.123 101.239L421.533 102.83L414.293 100.147L414.883 98.5555L422.123 101.239Z" fill="#E1D6D1"/>
<path d="M57.1384 276.75C57.1609 276.743 57.1834 276.735 57.2021 276.728C57.3745 276.645 57.4494 276.443 57.3707 276.271C36.4838 231.305 18.8563 199.972 7.74039 188.047C7.49312 187.781 7.31329 187.59 7.24211 187.489C7.12971 187.335 6.91617 187.302 6.76256 187.414C6.60895 187.523 6.5715 187.74 6.6839 187.894C6.78131 188.028 6.95362 188.212 7.23461 188.516C18.3056 200.388 35.8919 231.657 56.7488 276.559C56.8162 276.709 56.9811 276.788 57.1384 276.75" fill="#DA6834"/>
<path d="M0.966763 186.552C2.27056 187.882 8.15636 189.823 8.53476 189.448C8.9169 189.077 7.08862 183.154 5.78483 181.824C4.47729 180.494 2.34175 180.475 1.01173 181.779C-0.31829 183.087 -0.340776 185.222 0.966763 186.552Z" fill="#DA6834"/>
<path d="M12.2214 189.549C11.9404 191.434 13.9785 197.436 14.518 197.518C15.0538 197.597 18.7666 192.46 19.0513 190.572C19.3323 188.688 18.036 186.931 16.1477 186.646C14.2632 186.365 12.5061 187.661 12.2214 189.549Z" fill="#DA6834"/>
<path d="M7.22337 201.276C9.12287 201.13 14.5141 197.792 14.4729 197.248C14.428 196.705 8.58713 194.247 6.6839 194.393C4.7844 194.543 3.36445 196.203 3.51431 198.106C3.66042 200.006 5.32388 201.426 7.22337 201.276" fill="#DA6834"/>
<path d="M32.8385 218.379C32.0255 221.474 34.3408 231.859 35.225 232.091C36.1092 232.324 43.2351 224.418 44.0481 221.324C44.8611 218.229 43.0103 215.06 39.9157 214.247C36.821 213.434 33.6515 215.284 32.8385 218.379" fill="#DA6834"/>
<path d="M22.3744 237.048C25.574 237.141 35.1726 232.544 35.1988 231.634C35.225 230.72 25.9186 225.557 22.7229 225.463C19.5233 225.366 16.852 227.884 16.7546 231.083C16.661 234.283 19.1749 236.95 22.3744 237.048Z" fill="#DA6834"/>
<path d="M42.763 228.948C40.9572 232.421 40.9272 245.444 41.92 245.961C42.9129 246.474 53.5455 238.959 55.3476 235.482C57.1534 232.005 55.8009 227.727 52.3241 225.921C48.8474 224.115 44.5688 225.471 42.763 228.948" fill="#DA6834"/>
<path d="M27.5072 253.607C31.4111 253.319 42.5158 246.515 42.4372 245.403C42.3547 244.286 30.3771 239.176 26.4694 239.461C22.5656 239.749 19.6283 243.147 19.9167 247.051C20.2015 250.959 23.6034 253.892 27.5072 253.607Z" fill="#DA6834"/>
<path d="M50.0613 243.541C48.2592 247.014 48.2255 260.037 49.2183 260.554C50.2112 261.067 60.8438 253.552 62.6496 250.075C64.4555 246.598 63.0992 242.319 59.6225 240.514C56.1494 238.708 51.8671 240.064 50.0613 243.541" fill="#DA6834"/>
<path d="M34.8053 268.2C38.713 267.912 49.8177 261.108 49.7353 259.995C49.6528 258.879 37.6752 253.769 33.7713 254.053C29.8637 254.342 26.9301 257.74 27.2149 261.644C27.5034 265.551 30.9015 268.485 34.8053 268.2Z" fill="#DA6834"/>
<path d="M64.0059 261.191C61.0124 263.716 56.0258 275.746 56.7451 276.6C57.4644 277.454 70.1614 274.555 73.1549 272.029C76.1484 269.501 76.5231 265.027 73.9979 262.034C71.4727 259.044 66.9994 258.666 64.0059 261.191Z" fill="#DA6834"/>
<path d="M41.493 282.711C45.4044 282.913 57.2734 277.552 57.3333 276.435C57.3895 275.319 46.1462 268.751 42.2348 268.545C38.3234 268.343 34.9853 271.347 34.783 275.259C34.5807 279.17 37.5854 282.504 41.493 282.711Z" fill="#DA6834"/>
<path d="M18.5941 198.53C18.3057 200.448 20.3775 206.548 20.9245 206.63C21.4715 206.712 25.2442 201.49 25.5327 199.572C25.8175 197.657 24.4987 195.87 22.5842 195.585C20.666 195.297 18.8826 196.616 18.5941 198.53" fill="#DA6834"/>
<path d="M13.7799 210.53C15.7131 210.38 21.1868 206.986 21.1456 206.435C21.1006 205.884 15.1661 203.385 13.2329 203.535C11.3034 203.689 9.85728 205.375 10.0109 207.308C10.1608 209.237 11.8504 210.68 13.7799 210.53Z" fill="#DA6834"/>
<path d="M25.5702 206.72C24.9408 209.402 27.1625 218.278 27.9268 218.458C28.6911 218.637 34.6406 211.684 35.27 209.005C35.9032 206.326 34.2397 203.644 31.561 203.014C28.8822 202.381 26.1997 204.045 25.5702 206.72Z" fill="#DA6834"/>
<path d="M17.5002 223.957C20.2427 223.74 28.0243 218.922 27.9643 218.139C27.9007 217.356 19.4672 213.804 16.7247 214.022C13.9785 214.235 11.9292 216.633 12.1427 219.379C12.36 222.122 14.7578 224.171 17.5002 223.957Z" fill="#DA6834"/>
<path d="M390.863 236.081C389.018 236.167 383.471 233.736 383.45 233.234C383.428 232.728 388.766 229.787 390.606 229.701C392.451 229.614 394.002 230.974 394.071 232.735C394.141 234.496 392.709 235.995 390.863 236.081Z" fill="#D99D82"/>
<path d="M368.179 254.784C369.305 257.53 368.241 267.338 367.418 267.657C366.594 267.971 358.865 261.55 357.739 258.804C356.613 256.058 358.036 252.929 360.918 251.82C363.795 250.711 367.048 252.038 368.179 254.784" fill="#D99D82"/>
<path d="M380.315 270.699C377.256 271.16 367.52 268.066 367.393 267.23C367.265 266.395 375.625 260.565 378.685 260.104C381.749 259.643 384.596 261.636 385.042 264.562C385.494 267.488 383.375 270.235 380.315 270.699" fill="#D99D82"/>
<path d="M359.823 265.649C361.95 268.631 363.436 280.583 362.54 281.171C361.645 281.763 350.594 276.106 348.467 273.127C346.344 270.145 347.167 266.057 350.304 263.993C353.441 261.929 357.706 262.671 359.823 265.649Z" fill="#D99D82"/>
<path d="M377.243 286.502C373.458 286.697 362.032 281.752 361.984 280.721C361.936 279.687 372.869 273.591 376.655 273.397C380.44 273.202 383.638 275.978 383.802 279.597C383.961 283.217 381.029 286.307 377.243 286.502" fill="#D99D82"/>
<path d="M354.451 279.904C356.576 282.883 358.062 294.838 357.167 295.426C356.272 296.015 345.22 290.357 343.095 287.379C340.971 284.4 341.794 280.313 344.932 278.249C348.064 276.184 352.327 276.926 354.451 279.904" fill="#D99D82"/>
<path d="M371.863 300.758C368.08 300.953 356.651 296.007 356.604 294.973C356.557 293.939 367.49 287.844 371.273 287.649C375.061 287.454 378.254 290.23 378.418 293.849C378.581 297.469 375.646 300.563 371.863 300.758Z" fill="#D99D82"/>
<path d="M343.037 297.745C346.194 299.712 352.334 310.172 351.736 311.042C351.138 311.911 338.619 310.734 335.462 308.768C332.31 306.797 331.442 302.736 333.531 299.69C335.625 296.647 339.88 295.774 343.037 297.745Z" fill="#D99D82"/>
<path d="M367.063 314.864C363.335 315.508 351.332 311.975 351.149 310.96C350.971 309.941 361.036 302.594 364.77 301.946C368.503 301.301 372.043 303.669 372.677 307.236C373.311 310.803 370.802 314.215 367.063 314.864" fill="#D99D82"/>
<path d="M379.635 234.893C380.126 236.616 378.817 242.461 378.3 242.599C377.788 242.738 373.581 238.388 373.09 236.662C372.599 234.938 373.665 233.143 375.47 232.653C377.281 232.165 379.144 233.169 379.635 234.893" fill="#D99D82"/>
<path d="M385.599 245.347C383.727 245.433 378.091 242.96 378.07 242.451C378.048 241.937 383.471 238.948 385.343 238.861C387.215 238.772 388.788 240.154 388.863 241.945C388.932 243.736 387.471 245.257 385.599 245.347" fill="#D99D82"/>
<path d="M373.844 243.23C374.752 245.617 373.614 254.027 372.895 254.282C372.182 254.537 365.688 248.85 364.785 246.463C363.878 244.077 365.174 241.42 367.676 240.529C370.178 239.637 372.942 240.847 373.844 243.23" fill="#D99D82"/>
<path d="M383.529 258.107C380.876 258.234 372.862 254.72 372.83 253.993C372.803 253.267 380.508 249.021 383.167 248.894C385.826 248.77 388.064 250.734 388.165 253.278C388.266 255.822 386.188 257.983 383.529 258.107" fill="#D99D82"/>
<path d="M94.3902 308.237C94.3902 308.237 138.301 264.136 50.7678 202.06C50.7678 202.06 24.9587 309.533 94.3902 308.237Z" fill="#31C5A1"/>
<path d="M50.6907 201.861L98.8861 301.803C107.331 287.574 118.799 250.157 50.6907 201.861Z" fill="#21836A"/>
<path d="M96.7131 297.817C96.6682 297.79 96.6307 297.753 96.6045 297.701L50.4472 201.977C50.3798 201.842 50.4359 201.681 50.5708 201.617C50.7057 201.55 50.8706 201.609 50.9342 201.744L97.0953 297.464C97.1589 297.599 97.1028 297.764 96.9679 297.828C96.8817 297.869 96.7881 297.862 96.7131 297.817" fill="#211844"/>
<path d="M47.3076 240.937C47.1915 240.869 47.1427 240.727 47.1914 240.603C47.2476 240.465 47.4087 240.397 47.5474 240.453L74.8896 251.581C75.032 251.637 75.0956 251.794 75.0395 251.933C74.9833 252.071 74.8259 252.139 74.6835 252.083L47.3413 240.955C47.3301 240.952 47.3189 240.944 47.3076 240.937Z" fill="#211844"/>
<path d="M93.3562 308.566C93.3562 308.566 96.2223 256.852 7.46695 266.754C7.46695 266.754 50.938 347.811 93.3562 308.566Z" fill="#21836A"/>
<path d="M7.46695 266.754L93.3562 308.565C93.3562 308.565 58.7045 352.16 7.46695 266.754Z" fill="#31C5A1"/>
<path d="M317.852 309.498C317.852 309.498 293.609 281.635 347.913 248.377C347.913 248.377 358.905 313.035 317.852 309.498Z" fill="#31C5A1"/>
<path d="M347.967 248.262L315.442 305.513C311.012 296.749 305.712 274.139 347.967 248.262Z" fill="#21836A"/>
<path d="M316.889 303.238C316.914 303.223 316.94 303.2 316.955 303.174L348.105 248.34C348.15 248.261 348.12 248.164 348.044 248.123C347.967 248.078 347.871 248.104 347.825 248.183L316.676 303.013C316.635 303.092 316.66 303.189 316.737 303.234C316.782 303.26 316.843 303.26 316.889 303.238" fill="#211844"/>
<path d="M348.41 271.53C348.481 271.497 348.517 271.414 348.497 271.336C348.466 271.253 348.375 271.208 348.288 271.234L331.656 276.73C331.57 276.76 331.524 276.85 331.555 276.937C331.58 277.019 331.672 277.068 331.758 277.038L348.39 271.542C348.395 271.538 348.405 271.534 348.41 271.53" fill="#211844"/>
<path d="M314.101 312.845C314.101 312.845 323.414 269.404 394.617 297.652C394.617 297.652 340.332 354.903 314.101 312.845Z" fill="#21836A"/>
<path d="M394.617 297.652L314.101 312.844C314.101 312.844 332.919 356.746 394.617 297.652Z" fill="#31C5A1"/>
<path d="M180.009 103.544L181.959 100.981L180.236 99.9541L178.014 102.955C178.014 102.955 179.367 103.817 180.009 103.544" fill="white"/>
<path d="M178.199 102.732C178.199 102.732 178.793 103.316 180.005 103.545C180.005 103.545 182.746 106.078 182.295 107.018C182.295 107.018 182.336 107.363 180.871 106.771C179.407 106.179 177.125 105.291 177.072 105.235C177.023 105.178 176.592 104.594 178.199 102.732Z" fill="#211844"/>
<path d="M177.071 105.234C177.124 105.29 179.408 106.178 180.872 106.77C182.335 107.362 182.295 107.017 182.295 107.017C182.323 106.957 182.339 106.886 182.343 106.811L177.055 104.522C176.904 105.005 177.047 105.2 177.071 105.234Z" fill="white"/>
<path d="M189.971 310.022C189.971 310.022 189.519 321.622 189.605 321.786C189.691 321.955 188.717 323.386 188.717 323.386L185.041 323.952L181.739 322.333C181.739 322.333 182.298 311.555 181.99 309.842C181.685 308.134 189.971 310.022 189.971 310.022" fill="#FFB08C"/>
<path d="M181.738 322.334C181.738 322.334 185.921 323.911 189.583 321.558C189.583 321.558 203.498 327.17 202.974 331.164C202.974 331.164 203.54 332.371 197.461 331.963C191.383 331.554 181.935 331.052 181.684 330.906C181.432 330.756 180.224 331.371 181.738 322.334" fill="#211844"/>
<path d="M159.736 307.839C159.736 307.839 157.659 319.259 157.726 319.438C157.785 319.614 156.622 320.896 156.622 320.896L152.904 320.941L149.861 318.873C149.861 318.873 151.926 308.281 151.86 306.543C151.797 304.808 159.736 307.839 159.736 307.839" fill="#FFB08C"/>
<path d="M149.862 318.872C149.862 318.872 153.78 321.023 157.742 319.209C157.742 319.209 170.734 326.714 169.652 330.591C169.652 330.591 170.043 331.869 164.085 330.614C158.118 329.355 148.836 327.534 148.608 327.354C148.381 327.171 147.099 327.609 149.862 318.872Z" fill="#211844"/>
<path d="M156.897 205.812C156.897 205.812 156.714 257.428 155.525 261.089C154.336 264.746 148.114 312.083 148.114 312.083L162.023 313.747C162.023 313.747 178.45 252.742 178.45 236.639C178.45 236.639 182.879 296.149 178.855 313.747H193.126C193.126 313.747 199.528 277.709 198.886 256.589C198.248 235.47 196.05 202.538 196.05 202.538L156.897 205.812" fill="#211844"/>
<path d="M217.828 204.112C217.828 204.112 221.488 207.72 222.566 209.005C223.645 210.286 225.641 210.728 225.152 211.571C224.658 212.41 221.778 210.961 221.778 210.961C221.778 210.961 222.545 214.283 222.934 215.273C223.324 216.258 223.571 218.199 222.878 218.54C222.176 218.881 220.63 214.014 220.63 214.014C220.63 214.014 221.527 218.24 220.951 218.693C220.375 219.146 218.439 213.939 218.439 213.939C218.439 213.939 219.621 218.397 219.405 218.828C219.193 219.259 218.634 219.004 217.833 217.524C217.032 216.048 216.598 214.332 216.598 214.332C216.598 214.332 217.187 217.528 217.127 217.936C217.066 218.345 216.681 218.862 215.724 216.546C214.771 214.231 213.524 208.889 213.987 205.966L217.828 204.112" fill="#FFB08C"/>
<path d="M120.909 109.546C114.078 110.865 108.957 115.885 104.749 129.388C100.54 142.89 87.7339 138.683 86.4518 147.281C85.1697 155.883 91.2101 167.224 100.357 164.665C109.507 162.102 119.569 152.77 124.69 152.59C129.815 152.406 138.782 149.113 140.243 138.132C141.708 127.155 137.252 106.388 120.909 109.546Z" fill="#211844"/>
<path d="M135.917 127.167C135.917 127.167 136.848 125.781 137.571 126.354C139.418 127.807 137.396 129.71 136.156 130.115L135.917 127.167" fill="#DF906C"/>
<path d="M124.337 110.206C118.647 110.539 114.037 115.158 113.7 120.842C113.59 122.711 113.935 124.491 114.632 126.08C116.174 130.04 117.446 133.232 119.037 135.558C120.655 137.919 121.378 140.77 120.958 143.599L120.53 146.453C127.11 149.795 130.012 147.064 130.012 147.064L130.061 139.915C137.202 139.11 136.338 125.934 136.361 122.037L136.349 122.041C136.357 121.895 136.364 121.749 136.364 121.602C136.406 115.084 130.947 109.816 124.337 110.206Z" fill="#FFB08C"/>
<path d="M123.367 121.669C121.36 124.014 119.225 126.311 117.718 128.998C117.547 129.293 116.37 131.515 116.703 131.773C114.874 130.361 113.708 128.267 112.727 126.173C111.031 122.546 111.561 118.204 113.685 114.869C115.787 111.572 119.289 109.875 123.14 109.587C127.259 109.276 131.746 110.688 134.241 114.146C136.589 117.391 136.669 121.475 136.915 125.303C136.638 121.002 130.879 117.758 127.43 116.218C127.524 116.263 124.825 119.916 124.681 120.096C124.257 120.624 123.818 121.149 123.367 121.669Z" fill="#211844"/>
<path d="M134.037 127.264C134.093 126.718 133.697 126.234 133.155 126.178C132.608 126.122 132.122 126.515 132.065 127.059C132.009 127.602 132.408 128.089 132.951 128.145C133.494 128.201 133.98 127.808 134.037 127.264Z" fill="#211844"/>
<path d="M124.688 128.249C124.745 127.705 124.348 127.218 123.804 127.162C123.261 127.106 122.774 127.503 122.718 128.046C122.662 128.59 123.059 129.077 123.602 129.133C124.145 129.189 124.632 128.792 124.688 128.249Z" fill="#211844"/>
<path d="M132.536 133.56C132.536 133.56 131.175 132.788 130.679 132.953C130.179 133.114 129.931 133.74 129.931 133.74C129.931 133.74 129.6 133.144 128.983 133.167C128.37 133.185 126.374 134.444 126.374 134.444C126.374 134.444 128.434 136.969 130.277 136.538C132.156 136.1 132.536 133.56 132.536 133.56" fill="#FF9362"/>
<path d="M121.219 125.937C121.103 125.926 120.991 125.866 120.916 125.761C120.785 125.577 120.829 125.319 121.013 125.188C121.069 125.15 122.407 124.232 124.235 124.457C124.46 124.483 124.621 124.69 124.591 124.914C124.565 125.139 124.34 125.304 124.134 125.274C122.609 125.087 121.5 125.855 121.489 125.862C121.406 125.918 121.313 125.941 121.219 125.937" fill="#211844"/>
<path d="M131.476 124.179C131.359 124.156 131.257 124.081 131.201 123.969C131.091 123.77 131.167 123.519 131.367 123.414C131.427 123.381 132.85 122.632 134.654 123.088C134.873 123.145 135.009 123.37 134.953 123.591C134.896 123.812 134.666 123.943 134.451 123.887C132.963 123.512 131.767 124.134 131.755 124.137C131.669 124.186 131.57 124.197 131.476 124.179" fill="#211844"/>
<path d="M129.119 132.046C130.292 131.878 130.686 131.001 130.727 130.495C130.734 130.405 130.705 130.319 130.652 130.248C129.606 128.963 129.73 127.086 129.73 127.067C129.745 126.876 129.599 126.711 129.408 126.696C129.22 126.685 129.051 126.827 129.04 127.019C129.033 127.101 128.901 129.068 130.015 130.559C129.944 130.832 129.659 131.44 128.545 131.38C128.35 131.368 128.189 131.514 128.182 131.705C128.171 131.896 128.317 132.061 128.508 132.073C128.733 132.084 128.935 132.076 129.119 132.046" fill="#DF906C"/>
<path d="M126.374 134.444C126.374 134.444 130.137 134.107 132.536 133.56C132.536 133.56 131.513 135.527 130.07 135.606C128.634 135.684 126.374 134.444 126.374 134.444" fill="white"/>
<path d="M118.072 129.283C117.892 128.912 117.574 128.631 117.195 128.477C116.416 128.155 115.034 127.799 114.078 128.743C112.677 130.13 115.457 133.839 118.237 132.022C118.237 132.022 119.035 131.235 118.072 129.283Z" fill="#FFB08C"/>
<path d="M130.511 310.094C130.511 310.094 129.17 325.811 130.65 327.688C131.495 328.76 150.008 332.671 150.784 330.217C151.559 327.763 137.651 322.918 137.054 318.198C136.457 313.477 137.411 309.176 137.411 309.176L130.511 310.094Z" fill="#FFB08C"/>
<path d="M129.948 321.517C139.04 327.347 142.399 326.006 143.611 324.556C147.342 326.875 151.193 328.89 150.774 330.213C149.999 332.671 131.486 328.759 130.641 327.688C130.099 326.998 129.94 324.462 129.948 321.517Z" fill="#211844"/>
<path d="M89.0327 301.207C89.0327 301.207 83.6227 316.025 84.5556 318.224C85.0914 319.479 101.932 328.107 103.322 325.942C104.716 323.776 92.5619 315.459 93.2251 310.746C93.8845 306.029 95.9376 302.133 95.9376 302.133L89.0327 301.207Z" fill="#FFB08C"/>
<path d="M85.4961 312.084C92.7419 320.094 96.3348 319.682 97.8859 318.599C100.879 321.813 104.064 324.769 103.315 325.938C101.921 328.104 85.0802 319.479 84.5482 318.22C84.2073 317.415 84.7131 314.924 85.4961 312.084Z" fill="#211844"/>
<path d="M138.506 195.079C138.506 195.079 145.371 213.059 145.643 225.134C145.916 237.209 145.643 288.465 138.506 313.747H127.53C127.53 313.747 125.882 235.291 124.234 227.329C122.586 219.372 112.16 282.77 97.0661 308.018L84.4387 304.725C84.4387 304.725 96.7934 265.109 98.9869 243.2C101.184 221.294 104.477 194.592 106.943 191.887C109.413 189.182 138.506 195.079 138.506 195.079Z" fill="#BB592C"/>
<path d="M117.653 147.445L119.021 142.616L131.373 143.897V148.561C131.373 148.561 140.159 149.933 143.45 152.405C146.742 154.874 151.681 172.412 151.681 172.412L147.288 181.4L142.078 179.493C142.078 179.493 141.527 189.444 138.507 195.078C138.507 195.078 120.118 199.874 111.888 195.078C111.888 195.078 116.28 213.058 116.001 215.527L109.143 219.371C109.143 219.371 94.0496 200.815 94.0496 184.981C94.0496 169.145 101.183 152.405 107.77 150.21C114.357 148.014 117.653 147.445 117.653 147.445Z" fill="#E0F7F1"/>
<path d="M170.34 137.128C170.34 137.128 153.324 138.684 148.382 145.543C143.444 152.407 142.205 183.143 145.706 186.163C149.207 189.183 155.522 191.176 155.522 191.176L155.793 208.395C155.793 208.395 185.162 215.528 198.883 208.395V191.176C198.883 191.176 207.116 204.277 213.43 208.395L220.841 204.277C220.841 204.277 210.367 177.404 209.038 172.413C208.118 168.959 204.647 146.184 195.317 141.43C185.983 136.672 170.34 137.128 170.34 137.128" fill="#FF9362"/>
<path d="M163.183 192.57C160.657 192.57 158.002 192.251 155.448 191.382C155.335 191.345 155.275 191.221 155.315 191.109C155.355 190.992 155.48 190.933 155.589 190.974C164.49 194.009 174.718 190.225 175.908 189.76L176.925 182.529C175.791 181.881 167.237 177.082 158.914 174.999C158.688 174.942 158.506 174.792 158.369 174.557C156.88 172.005 160.786 157.761 160.951 157.154C160.988 157.042 161.105 156.974 161.218 157.004C161.335 157.038 161.403 157.154 161.371 157.27C159.971 162.335 157.627 172.421 158.74 174.339C158.821 174.474 158.91 174.553 159.019 174.579C167.972 176.816 177.175 182.173 177.268 182.229C177.344 182.274 177.385 182.357 177.373 182.447L176.316 189.943C176.311 190.022 176.259 190.086 176.186 190.116C176.106 190.15 170.134 192.57 163.183 192.57" fill="#211844"/>
<path d="M198.884 191.393C198.775 191.393 198.684 191.306 198.671 191.194C198.646 190.898 196.016 161.435 195.833 157.221C195.829 157.101 195.92 157 196.041 156.996C196.162 156.992 196.262 157.082 196.266 157.202C196.445 161.406 199.075 190.861 199.1 191.157C199.113 191.276 199.021 191.382 198.904 191.393C198.9 191.393 198.892 191.393 198.884 191.393" fill="#211844"/>
<path d="M158.457 172.944C158.457 172.944 155.938 177.777 156.707 178.107C157.481 178.441 160.238 174.368 160.238 174.368C160.238 174.368 157.33 179.1 158.397 179.654C159.464 180.205 162.415 175.001 162.415 175.001C162.415 175.001 160.571 179.182 161.122 179.696C161.674 180.205 164.439 175.664 164.439 175.664C164.439 175.664 163.439 177.89 163.879 178.549C164.319 179.212 166.307 174.945 166.085 174.098C165.867 173.255 161.971 169.658 158.457 172.944Z" fill="#FFB08C"/>
<path d="M184.735 116.932C184.735 116.932 185.539 115.444 186.322 115.946C188.328 117.231 186.626 119.273 185.416 119.805L184.735 116.932Z" fill="#DF906C"/>
<path d="M184.684 111.718H184.672C184.664 111.572 184.655 111.427 184.643 111.276C184.044 104.701 178.018 99.9321 171.39 100.977C165.873 101.846 161.728 106.683 161.72 112.273C161.716 114.345 162.253 116.267 163.185 117.926C164.49 120.508 165.627 122.711 166.789 124.524C168.71 127.521 169.555 131.084 169.284 134.632L169.083 137.27C176.451 140.372 179.324 137.491 179.324 137.491L178.995 131.695C178.954 131.035 179.426 130.459 180.079 130.354C180.083 130.354 180.087 130.354 180.091 130.354C188.756 128.99 185.041 115.645 184.684 111.718" fill="#FFB08C"/>
<path d="M173.449 118.795C173.396 118.203 172.875 117.772 172.285 117.825C171.7 117.877 171.263 118.398 171.319 118.986C171.371 119.575 171.892 120.009 172.482 119.953C173.068 119.9 173.501 119.38 173.449 118.795" fill="#211844"/>
<path d="M182.732 116.039C182.679 115.451 182.159 115.016 181.573 115.069C180.983 115.125 180.552 115.645 180.605 116.234C180.658 116.818 181.178 117.253 181.768 117.201C182.354 117.144 182.789 116.627 182.732 116.039" fill="#211844"/>
<path d="M169.478 117.482C169.366 117.493 169.254 117.474 169.149 117.422C168.84 117.272 168.708 116.897 168.86 116.586C169.31 115.646 170.827 114.129 173.318 115.102C173.639 115.226 173.8 115.59 173.672 115.912C173.547 116.234 173.182 116.395 172.861 116.268C170.814 115.466 170.02 117.062 169.988 117.13C169.888 117.336 169.691 117.463 169.478 117.482" fill="#211844"/>
<path d="M179.306 114.908C179.2 114.919 179.086 114.9 178.981 114.848C178.667 114.698 178.541 114.323 178.691 114.012C179.143 113.072 180.659 111.555 183.147 112.529C183.469 112.652 183.632 113.016 183.506 113.338C183.375 113.66 183.013 113.821 182.691 113.694C180.646 112.896 179.852 114.488 179.82 114.556C179.718 114.762 179.522 114.889 179.306 114.908" fill="#211844"/>
<path d="M160.812 114.24L164.624 121.695L166.665 121.092L167.003 110.995L160.812 114.24Z" fill="#211844"/>
<path d="M166.965 120.815C166.742 120.463 166.4 120.211 166.002 120.092C165.183 119.845 163.759 119.624 162.888 120.669C161.611 122.201 164.777 125.667 167.399 123.561C167.399 123.561 168.127 122.692 166.965 120.815Z" fill="#FFB08C"/>
<path d="M179.266 122.153C178.289 122.745 177.329 122.277 177.321 122.27C177.228 122.225 177.191 122.116 177.236 122.022C177.28 121.933 177.394 121.895 177.487 121.94C177.532 121.963 178.601 122.468 179.529 121.453C179.683 121.288 179.76 121.157 179.756 121.067C179.748 120.94 179.578 120.79 179.351 120.584C178.816 120.104 177.925 119.306 177.495 117.354C177.471 117.253 177.536 117.156 177.633 117.133C177.734 117.111 177.836 117.175 177.86 117.272C178.265 119.108 179.063 119.827 179.598 120.306C179.886 120.565 180.108 120.767 180.125 121.052C180.133 121.251 180.036 121.453 179.805 121.704C179.63 121.899 179.448 122.041 179.266 122.153" fill="#DF906C"/>
<path d="M175.15 124.484C175.15 124.484 179.539 124.623 182.173 123.091C182.173 123.091 181.795 126.492 179.295 126.991C176.796 127.485 175.15 124.484 175.15 124.484Z" fill="white"/>
<path d="M182.437 107.444C182.437 107.444 184.189 108.448 185.226 115.353C185.226 115.353 185.079 107.563 184.14 106.788C183.201 106.016 182.437 107.444 182.437 107.444" fill="#211844"/>
<path d="M159.821 111.793C159.657 110.104 160.1 108.414 160.653 106.807C159.887 107.069 159.023 107.313 158.293 106.961C157.564 106.608 157.327 105.361 158.072 105.042C158.506 104.859 158.998 105.08 159.473 105.05C160.538 104.979 161.071 103.716 161.202 102.652C161.333 101.584 161.39 100.352 162.247 99.7073C162.517 99.5049 162.849 99.389 163.185 99.3623C163.672 100.528 163.754 101.858 163.418 103.075C164.356 101.292 165.659 99.7036 167.22 98.4336C168.436 97.4443 169.94 96.6164 171.497 96.8114C172.041 97.9314 170.186 98.8941 170.177 100.142C172.66 98.9617 175.323 98.1637 178.043 97.7851C178.743 97.6876 179.469 97.6205 180.153 97.7966C180.833 97.9765 181.484 98.4521 181.685 99.1305C181.951 100.022 181.246 101.064 180.325 101.157C181.779 101.509 183.25 101.869 184.565 102.581C185.88 103.293 187.039 104.413 187.473 105.844C186.498 106.054 185.47 106.005 184.515 105.702C185.216 106.133 185.892 106.863 185.74 107.669C185.626 108.268 185.073 108.703 184.483 108.864C183.897 109.021 183.274 108.954 182.672 108.882C179.616 108.538 176.564 108.193 173.508 107.848C174.872 108.834 175.986 110.167 176.712 111.689C174.045 111.91 171.316 111.321 168.981 110.029C168.985 111.303 168.813 112.58 168.465 113.809C168.408 114.004 168.342 114.206 168.191 114.334C167.674 114.768 167.031 114 166.429 113.701C165.688 113.333 164.79 113.738 164.164 114.27C163.074 115.188 162.423 116.331 161.19 115.072C160.362 114.225 159.928 112.951 159.821 111.793" fill="#211844"/>
<path d="M177.147 184.068C177.147 184.068 182.233 183.053 183.9 182.869C185.566 182.685 187.043 181.265 187.472 182.142C187.897 183.015 185.092 184.607 185.092 184.607C185.092 184.607 188.284 185.818 189.316 186.043C190.355 186.264 192.108 187.133 192.005 187.904C191.898 188.676 186.993 187.256 186.993 187.256C186.993 187.256 191.007 188.856 191.065 189.59C191.118 190.321 185.715 189.036 185.715 189.036C185.715 189.036 190.079 190.535 190.318 190.951C190.557 191.366 190.038 191.688 188.363 191.535C186.688 191.381 185.017 190.789 185.017 190.789C185.017 190.789 188.004 192.07 188.309 192.352C188.619 192.629 188.829 193.236 186.375 192.745C183.92 192.254 178.731 190.291 176.557 188.287L177.147 184.068Z" fill="#FFB08C"/>
<path d="M111.887 195.293C111.797 195.293 111.714 195.241 111.68 195.155C111.542 194.78 108.252 185.953 108.376 183.256C108.496 180.588 111.542 165.624 111.673 164.991C111.695 164.871 111.812 164.796 111.928 164.819C112.044 164.845 112.123 164.957 112.096 165.077C112.066 165.231 108.927 180.64 108.807 183.274C108.691 185.886 112.055 194.911 112.089 195.001C112.13 195.113 112.074 195.237 111.961 195.282C111.935 195.289 111.909 195.293 111.887 195.293" fill="#211844"/>
<path d="M121.594 175.567C119.769 175.567 117.69 175.129 115.554 173.814C115.449 173.75 115.42 173.619 115.483 173.514C115.543 173.413 115.678 173.383 115.779 173.447C121.923 177.227 127.562 173.488 127.622 173.451C127.719 173.383 127.854 173.409 127.922 173.507C127.989 173.608 127.963 173.743 127.862 173.81C127.824 173.836 125.217 175.567 121.594 175.567Z" fill="#211844"/>
<path d="M142.077 179.711C141.958 179.711 141.858 179.614 141.858 179.494V176.556C141.858 176.507 141.874 176.462 141.904 176.425C142.085 176.189 146.296 170.592 140.878 164.627C140.801 164.537 140.804 164.402 140.893 164.32C140.981 164.241 141.116 164.245 141.201 164.335C146.557 170.236 142.758 175.972 142.289 176.627V179.494C142.289 179.614 142.193 179.711 142.077 179.711" fill="#211844"/>
<path d="M114.438 216.404C114.438 216.404 118.222 220.222 119.301 221.507C120.38 222.788 122.377 223.234 121.886 224.074C121.395 224.913 118.514 223.463 118.514 223.463C118.514 223.463 119.278 226.79 119.668 227.775C120.061 228.76 120.309 230.701 119.612 231.042C118.911 231.383 117.368 226.516 117.368 226.516C117.368 226.516 118.263 230.742 117.686 231.196C117.109 231.649 115.176 226.441 115.176 226.441C115.176 226.441 116.352 230.903 116.143 231.331C115.929 231.761 115.367 231.507 114.569 230.027C113.767 228.551 113.333 226.835 113.333 226.835C113.333 226.835 113.925 230.031 113.861 230.439C113.797 230.847 113.415 231.364 112.46 229.049C111.504 226.734 110.261 221.395 110.721 218.472L114.438 216.404" fill="#FFB08C"/>
<path d="M271.648 309.629C271.648 309.629 271.806 320.506 271.717 320.659C271.634 320.816 272.514 322.176 272.514 322.176L275.945 322.794L279.077 321.352C279.077 321.352 278.797 311.241 279.128 309.644C279.455 308.052 271.648 309.629 271.648 309.629" fill="#FFB08C"/>
<path d="M279.07 321.353C279.07 321.353 275.118 322.735 271.736 320.45C271.736 320.45 258.568 325.384 258.97 329.135C258.97 329.135 258.41 330.255 264.116 330.011C269.823 329.771 278.688 329.517 278.926 329.386C279.164 329.254 280.279 329.858 279.07 321.353" fill="#211844"/>
<path d="M311.878 309.629C311.878 309.629 312.035 320.506 311.952 320.659C311.869 320.816 312.747 322.177 312.747 322.177L316.177 322.794L319.309 321.352C319.309 321.352 319.029 311.24 319.363 309.644C319.686 308.052 311.878 309.629 311.878 309.629" fill="#FFB08C"/>
<path d="M319.308 321.352C319.308 321.352 315.354 322.734 311.974 320.449C311.974 320.449 298.807 325.383 299.205 329.134C299.205 329.134 298.645 330.254 304.349 330.01C310.058 329.77 318.925 329.516 319.161 329.385C319.402 329.254 320.517 329.857 319.308 321.352" fill="#211844"/>
<path d="M315.228 206.71L319.857 319.66L310.953 319.364L290.371 243.688L279.625 320.45L270.289 319.66L266.22 211.73L277.868 207.684L315.228 206.71" fill="#211844"/>
<path d="M240.464 159.183C240.464 159.183 240.76 154.002 240.455 152.106C240.145 150.206 241.256 148.142 240.163 147.94C239.065 147.737 238.171 151.323 238.171 151.323C238.171 151.323 235.856 148.172 235.289 147.097C234.727 146.022 233.226 144.354 232.408 144.707C231.589 145.055 234.661 150.038 234.661 150.038C234.661 150.038 231.659 146.096 230.836 146.258C230.008 146.422 233.089 151.993 233.089 151.993C233.089 151.993 230.097 147.636 229.561 147.501C229.03 147.363 228.831 148.041 229.517 149.839C230.203 151.642 231.367 153.301 231.367 153.301C231.367 153.301 229.035 150.398 228.636 150.146C228.233 149.895 227.494 149.843 228.791 152.402C230.088 154.961 233.793 160.037 236.675 161.821L240.464 159.183" fill="#FFB08C"/>
<path d="M285.824 117.028C285.824 117.028 285.114 115.454 284.278 115.911C282.144 117.08 283.733 119.283 284.926 119.905L285.824 117.028Z" fill="#DF906C"/>
<path d="M286.246 111.723L286.256 111.727C286.275 111.577 286.295 111.428 286.319 111.274C287.39 104.62 293.867 100.184 300.543 101.716C306.104 102.99 309.983 108.209 309.6 113.904C309.459 116.017 308.775 117.935 307.714 119.561C306.201 122.097 304.882 124.263 303.573 126.028C301.406 128.946 300.296 132.513 300.32 136.151L300.344 139.009C292.617 141.65 289.94 137.604 289.94 137.604L290.634 132.471C290.726 131.805 290.285 131.183 289.625 131.033C289.62 131.033 289.615 131.029 289.611 131.029C280.884 129.032 285.606 115.694 286.246 111.723" fill="#FFB08C"/>
<path d="M297.195 119.722C297.291 119.126 297.851 118.722 298.448 118.819C299.042 118.912 299.448 119.475 299.353 120.071C299.257 120.662 298.697 121.067 298.099 120.973C297.506 120.876 297.1 120.317 297.195 119.722Z" fill="#211844"/>
<path d="M287.928 116.261C288.018 115.665 288.581 115.26 289.176 115.358C289.772 115.451 290.178 116.013 290.079 116.609C289.984 117.205 289.427 117.609 288.831 117.512C288.236 117.415 287.829 116.856 287.928 116.261Z" fill="#211844"/>
<path d="M302.051 117.35C302.161 117.376 302.281 117.372 302.392 117.335C302.728 117.222 302.911 116.859 302.8 116.526C302.459 115.514 301.128 113.779 298.481 114.439C298.135 114.521 297.924 114.87 298.01 115.214C298.096 115.555 298.447 115.765 298.784 115.679C300.965 115.136 301.561 116.855 301.585 116.93C301.662 117.151 301.844 117.305 302.051 117.35" fill="#211844"/>
<path d="M292.418 113.679C292.522 113.697 292.646 113.687 292.755 113.641C293.082 113.51 293.244 113.139 293.111 112.81C292.717 111.821 291.279 110.168 288.674 110.985C288.337 111.09 288.147 111.45 288.251 111.787C288.361 112.124 288.717 112.311 289.053 112.206C291.194 111.536 291.896 113.214 291.92 113.286C292.01 113.503 292.204 113.645 292.418 113.679Z" fill="#211844"/>
<path d="M310.386 115.971L305.981 123.299L303.944 122.539L304.308 112.232L310.386 115.971Z" fill="#211844"/>
<path d="M291.023 122.731C291.982 123.405 292.992 122.997 293.002 122.99C293.101 122.952 293.144 122.84 293.101 122.742C293.064 122.648 292.95 122.6 292.855 122.641C292.807 122.66 291.683 123.105 290.809 122.004C290.662 121.824 290.596 121.686 290.61 121.592C290.624 121.465 290.805 121.322 291.056 121.128C291.626 120.678 292.594 119.925 293.173 117.969C293.201 117.868 293.139 117.763 293.045 117.733C292.945 117.703 292.836 117.76 292.807 117.861C292.262 119.7 291.393 120.378 290.824 120.828C290.511 121.071 290.264 121.262 290.231 121.551C290.207 121.753 290.292 121.967 290.511 122.24C290.677 122.446 290.847 122.607 291.023 122.731" fill="#DF906C"/>
<path d="M288.835 107.523C288.835 107.523 286.98 108.426 285.442 115.387C285.442 115.387 286.136 107.463 287.15 106.74C288.155 106.017 288.835 107.523 288.835 107.523" fill="#211844"/>
<path d="M298.377 116.541C296.529 116.541 295.023 118.043 295.023 119.894C295.023 121.745 296.529 123.25 298.377 123.25C300.229 123.25 301.736 121.745 301.736 119.894C301.736 118.043 300.229 116.541 298.377 116.541ZM298.377 123.464C296.409 123.464 294.807 121.865 294.807 119.894C294.807 117.927 296.409 116.323 298.377 116.323C300.349 116.323 301.952 117.927 301.952 119.894C301.952 121.865 300.349 123.464 298.377 123.464Z" fill="#211844"/>
<path d="M289.002 113.08C287.153 113.08 285.65 114.586 285.65 116.433C285.65 118.284 287.153 119.79 289.002 119.79C290.851 119.79 292.359 118.284 292.359 116.433C292.359 114.586 290.851 113.08 289.002 113.08ZM289.002 120.004C287.034 120.004 285.432 118.404 285.432 116.433C285.432 114.466 287.034 112.863 289.002 112.863C290.974 112.863 292.572 114.466 292.572 116.433C292.572 118.404 290.974 120.004 289.002 120.004Z" fill="#211844"/>
<path d="M294.914 119.115C294.738 118.571 294.438 118.189 294.015 117.987C293.206 117.593 292.202 117.964 292.198 117.968L292.117 117.766C292.164 117.751 293.216 117.361 294.105 117.788C294.586 118.021 294.928 118.444 295.118 119.051L294.914 119.115" fill="#211844"/>
<path d="M304.686 121.673L301.503 121.482L301.517 121.268L304.7 121.456L304.686 121.673" fill="#211844"/>
<path d="M303.656 122.236C303.903 121.895 304.276 121.659 304.687 121.565C305.54 121.374 307.007 121.247 307.82 122.375C309.012 124.027 305.545 127.335 303.017 125.005C303.017 125.005 302.339 124.064 303.656 122.236Z" fill="#FFB08C"/>
<path d="M301.069 137.648L289.412 136.843L283.102 162.469L272.586 212.163C272.586 212.163 293.801 220.51 308.517 212.486L304.52 153.309L301.069 137.648" fill="#FFEAE0"/>
<path d="M301.065 137.649C301.065 137.649 318.147 146.307 321.273 151.335C324.16 155.977 324.001 151.74 331.485 177.19C332.462 180.517 331.689 184.053 329.545 186.643C328.673 187.707 327.476 188.456 326.155 188.85L316.861 191.603L319.857 265.881H299.499L301.065 137.649" fill="#DA6834"/>
<path d="M289.409 136.844C289.409 136.844 271.3 143.074 267.513 147.622C263.726 152.17 262.069 264.42 262.069 264.42H279.134L289.409 136.844" fill="#DA6834"/>
<path d="M297.519 139.547L295.305 143.279L297.294 197.45L290.204 208.806L285.809 196.675L292.842 142.848L291.506 138.966L295.6 137.498L297.519 139.547Z" fill="#BB592C"/>
<path d="M301.067 137.649L300.324 135.671L294.711 137.211L290.32 134.813L289.409 136.844L290.128 140.5L294.452 138.099L298.287 141.313L301.067 137.649" fill="#E1D6D1"/>
<path d="M307.376 101.652C307.065 101.288 306.467 100.97 306.161 101.337C306.034 101.487 306.02 101.693 306.02 101.888C306.02 102.45 306.117 103.012 306.302 103.544C304.494 101.105 301.267 100.161 298.235 99.9957C295.203 99.8348 292.146 100.288 289.134 99.9286C287.943 99.7896 286.51 99.6025 285.737 100.528C285.198 101.172 285.241 102.173 285.688 102.885C286.135 103.596 286.903 104.05 287.705 104.304C287.098 104.001 286.306 104.125 285.815 104.6C285.334 105.076 285.193 105.871 285.494 106.481C285.946 107.414 287.122 107.695 288.147 107.852C291.418 108.347 294.712 108.669 298.021 108.815C297.511 109.168 297.006 109.523 296.5 109.876C296.325 109.995 296.151 110.126 296.058 110.317C295.932 110.576 296.005 110.895 296.141 111.145C296.505 111.805 297.258 112.161 298.002 112.262C298.741 112.363 299.494 112.243 300.242 112.176C301.331 112.074 302.429 112.074 303.517 112.176C303.741 112.194 303.974 112.225 304.168 112.333C304.436 112.483 304.601 112.756 304.781 113.004C305.845 114.48 307.643 115.203 309.344 115.851C309.873 116.05 310.583 116.207 310.913 115.75C311.044 115.57 311.074 115.341 311.093 115.124C311.36 112.517 310.908 109.838 309.796 107.462C310.077 108.073 310.874 108.272 311.282 107.616C311.802 106.777 310.763 105.983 310.17 105.586C309.63 105.218 309.101 105.113 308.717 104.537C308.124 103.634 308.129 102.54 307.376 101.652" fill="#211844"/>
<path d="M293.763 125.779L287.704 123.865C287.704 123.865 287.822 127.304 290.059 127.458C292.3 127.615 293.763 125.779 293.763 125.779Z" fill="white"/>
<path d="M307.717 141.263L303.279 155.264L306.634 156.95L300.548 179.699L301.07 137.647L307.717 141.263Z" fill="#CB6537"/>
<path d="M272.071 144.279C272.071 144.279 266.025 147.078 263.066 153.994C260.117 160.91 255.889 171.727 251.135 173.075C247.346 174.151 241.909 157.853 241.909 157.853L233.074 160.258C233.074 160.258 236.245 192.973 253.221 191.231C264.017 190.126 269.136 166.95 269.136 166.95L272.071 144.279" fill="#DA6834"/>
<path d="M282.33 139.515L284.8 153.991L281.244 155.198L285.499 185.855L289.409 136.843L282.33 139.515Z" fill="#CB6537"/>
<path d="M290.576 158.925L264.79 160.311C264.709 160.319 264.647 160.386 264.652 160.465L266.572 196.181C266.577 196.263 266.644 196.323 266.729 196.319L292.515 194.933C292.596 194.929 292.658 194.862 292.653 194.78L290.732 159.064C290.728 158.981 290.661 158.922 290.576 158.925Z" fill="#21836A"/>
<path d="M283.357 157.599L272.81 158.164L272.927 160.409L283.479 159.839L283.357 157.599Z" fill="#FFEAE0"/>
<path d="M279.825 157.787C279.773 156.824 278.953 156.086 277.987 156.138C277.027 156.191 276.285 157.011 276.336 157.974C276.388 158.937 277.213 159.678 278.174 159.626C279.139 159.574 279.876 158.75 279.825 157.787Z" fill="#FFEAE0"/>
<path d="M300.757 185.021C300.757 185.021 295.92 182.9 294.005 182.522C292.09 182.143 290.512 180.356 289.931 181.327C289.35 182.301 292.45 184.425 292.45 184.425C292.45 184.425 288.626 185.515 287.402 185.673C286.178 185.83 284.057 186.669 284.1 187.572C284.148 188.479 289.979 187.313 289.979 187.313C289.979 187.313 285.166 188.779 285.027 189.621C284.887 190.468 291.289 189.506 291.289 189.506C291.289 189.506 286.077 190.817 285.756 191.274C285.439 191.735 286.015 192.162 287.973 192.146C289.931 192.131 291.927 191.611 291.927 191.611C291.927 191.611 288.333 192.806 287.954 193.098C287.57 193.391 287.258 194.076 290.161 193.746C293.055 193.417 299.207 191.682 301.928 189.569L300.757 185.021" fill="#FFB08C"/>
<path d="M291.898 180.738L292.102 184.526L288.515 184.027L288.226 180.888L289.335 179.363L291.898 180.738" fill="#21836A"/>
<path d="M302.753 193.634C302.651 193.634 302.567 193.566 302.538 193.465L300.327 184.027C300.307 183.93 300.356 183.829 300.444 183.784L316.514 175.946L312.928 165.396C312.889 165.283 312.953 165.16 313.065 165.122C313.178 165.085 313.3 165.145 313.339 165.257L316.983 175.987C317.018 176.092 316.969 176.205 316.876 176.253L300.792 184.095L302.92 193.176L316.832 191.389C316.949 191.371 317.062 191.457 317.076 191.573C317.091 191.693 317.008 191.801 316.891 191.816L302.778 193.63C302.773 193.634 302.758 193.634 302.753 193.634Z" fill="#211844"/>
</svg>
