<svg width="321" height="370" viewBox="0 0 321 370" fill="none" xmlns="http://www.w3.org/2000/svg">
<path d="M152.366 45.6422C150.559 44.4318 148.676 43.6047 146.77 43.1826L147.042 41.2834C149.111 41.7418 151.15 42.6369 153.102 43.9443L152.366 45.6422ZM135.415 45.6446L134.579 44.0194C136.416 42.5568 138.442 41.606 140.597 41.1937L140.834 43.1001C138.893 43.4713 137.07 44.3275 135.415 45.6446ZM161.421 55.5748C160.065 53.4621 158.665 51.5896 157.261 50.0106L158.302 48.5795C159.768 50.2289 161.226 52.1766 162.633 54.3717L161.421 55.5748ZM127.901 57.0495L126.51 56.1957C127.529 53.6295 128.658 51.3592 129.868 49.4503L131.086 50.6436C129.944 52.4482 128.872 54.6021 127.901 57.0495ZM168.075 68.4981C167.055 66.1065 166.012 63.8654 164.977 61.8303L166.287 60.7995C167.344 62.8733 168.406 65.1606 169.445 67.5934L168.075 68.4981ZM123.835 71.501L122.329 71.0329C122.871 68.3381 123.467 65.801 124.103 63.4918L125.571 64.1152C124.95 66.3734 124.365 68.8596 123.835 71.501ZM173.328 82.5082C172.494 80.0172 171.655 77.6304 170.83 75.4207L172.238 74.6081C173.071 76.8445 173.92 79.2531 174.762 81.7684L173.328 82.5082ZM121.503 86.6874L119.967 86.4109C120.281 83.7112 120.626 81.1135 120.993 78.6904L122.517 79.0493C122.155 81.4433 121.814 84.012 121.503 86.6874ZM177.792 96.9815C177.042 94.3789 176.336 92.0018 175.632 89.7121L177.082 89.0232C177.79 91.3251 178.5 93.7167 179.252 96.3314L177.792 96.9815ZM120.091 102.102L118.546 101.932C118.739 99.2251 118.95 96.6104 119.171 94.163L120.713 94.3788C120.493 96.8117 120.284 99.4095 120.091 102.102ZM259.086 105.357C257.163 104.348 255.218 103.725 253.303 103.501L253.448 101.58C255.521 101.823 257.62 102.495 259.689 103.579L259.086 105.357ZM242.157 107.719L241.267 106.138C243.174 104.479 245.103 103.249 246.996 102.485L247.475 104.319C245.727 105.025 243.939 106.169 242.157 107.719ZM181.858 111.683C181.087 108.813 180.451 106.473 179.856 104.319L181.324 103.693C181.919 105.852 182.557 108.197 183.33 111.072L181.858 111.683ZM268.925 114.084C267.432 112.182 265.886 110.504 264.329 109.095L265.242 107.535C266.871 109.007 268.482 110.759 270.036 112.738L268.925 114.084ZM57.0478 117.203C55.1118 116.005 53.2074 115.241 51.3877 114.931L51.5985 113.019C53.5853 113.359 55.6514 114.186 57.7391 115.476L57.0478 117.203ZM119.188 117.606L117.64 117.492C117.774 114.688 117.907 112.141 118.047 109.708L119.595 109.847C119.456 112.272 119.322 114.812 119.188 117.606ZM233.406 118.365L232.199 117.15C233.655 114.918 235.034 112.997 236.414 111.28L237.513 112.643C236.17 114.314 234.824 116.187 233.406 118.365ZM40.3119 118.955L39.3708 117.422C41.2236 115.666 43.1521 114.397 45.1025 113.655L45.5564 115.501C43.7824 116.175 42.0181 117.337 40.3119 118.955ZM276.382 126.226C275.269 123.973 274.104 121.839 272.918 119.886L274.155 118.724C275.373 120.725 276.568 122.911 277.704 125.22L276.382 126.226ZM66.8118 126.309C65.226 124.39 63.6668 122.695 62.1774 121.271L63.1234 119.74C64.6603 121.21 66.2653 122.957 67.894 124.929L66.8118 126.309ZM185.836 126.445C185.125 123.852 184.429 121.259 183.838 119.064L185.31 118.452C185.898 120.645 186.595 123.236 187.305 125.821L185.836 126.445ZM32.3462 130.369L31.0385 129.331C32.2577 126.957 33.5147 124.812 34.7747 122.959L35.9601 124.204C34.7443 125.994 33.5283 128.067 32.3462 130.369ZM226.149 130.913L224.856 129.85C226.151 127.413 227.311 125.302 228.4 123.401L229.663 124.521C228.584 126.403 227.434 128.494 226.149 130.913ZM118.522 133.149L116.972 133.052C117.077 130.476 117.18 127.898 117.291 125.273L118.841 125.375C118.73 127.997 118.626 130.573 118.522 133.149ZM75.084 137.806C73.6761 135.635 72.3657 133.702 71.0776 131.895L72.2385 130.617C73.5428 132.443 74.869 134.401 76.2922 136.596L75.084 137.806ZM282.018 139.911C281.182 137.496 280.301 135.15 279.394 132.938L280.777 132.062C281.698 134.313 282.594 136.698 283.442 139.152L282.018 139.911ZM190.129 141.114C189.427 138.924 188.7 136.533 187.908 133.806L189.368 133.151C190.153 135.858 190.873 138.23 191.569 140.401L190.129 141.114ZM219.344 143.967L218.047 142.907C219.149 140.823 220.29 138.616 221.443 136.385L222.746 137.428C221.593 139.664 220.452 141.874 219.344 143.967ZM26.5892 143.969L25.1697 143.191C26.0213 140.792 26.9289 138.437 27.8935 136.135L29.2691 137.025C28.3201 139.29 27.4271 141.609 26.5892 143.969ZM117.832 148.716L116.284 148.592C116.401 146.332 116.521 143.792 116.65 140.826L118.199 140.93C118.07 143.904 117.95 146.451 117.832 148.716ZM82.6379 150.15C81.2184 147.739 80.0353 145.759 78.9148 143.918L80.1519 142.754C81.2774 144.602 82.4652 146.591 83.89 149.012L82.6379 150.15ZM286.282 154.392C285.658 151.894 284.988 149.434 284.298 147.081L285.758 146.419C286.454 148.801 287.131 151.292 287.763 153.82L286.282 154.392ZM195.669 155.246C194.664 153.32 193.669 151.052 192.627 148.314L194.028 147.489C195.043 150.15 196.004 152.345 196.97 154.198L195.669 155.246ZM211.816 156.573L210.676 155.265C211.854 153.681 213.115 151.726 214.534 149.291L215.79 150.421C214.336 152.92 213.037 154.933 211.816 156.573ZM22.2817 158.412L20.7979 157.848C21.4144 155.34 22.0906 152.849 22.8082 150.438L24.2633 151.108C23.5563 153.485 22.8897 155.942 22.2817 158.412ZM203.604 162.568C202.395 162.568 201.21 162.119 200.08 161.234L200.908 159.602C202.603 160.934 204.273 160.937 206.077 159.875L206.744 161.616C205.676 162.248 204.623 162.568 203.604 162.568ZM90.0112 162.727C88.7501 160.609 87.4418 158.371 86.3148 156.439L87.5707 155.306C88.6957 157.234 90.001 159.468 91.2581 161.579L90.0112 162.727ZM116.706 164.294L115.167 164.048C115.405 161.746 115.619 159.225 115.82 156.34L117.365 156.507C117.163 159.418 116.947 161.965 116.706 164.294ZM289.47 169.322C289.009 166.774 288.513 164.249 287.997 161.815L289.496 161.322C290.018 163.779 290.518 166.328 290.983 168.9L289.47 169.322ZM19.2965 173.38L17.7734 173.012C18.1754 170.438 18.6301 167.871 19.125 165.382L20.6314 165.845C20.1424 168.302 19.6933 170.838 19.2965 173.38ZM97.8494 174.962C96.6136 173.251 95.2925 171.282 93.8114 168.941L95.0306 167.749C96.4909 170.055 97.7906 171.994 99.0038 173.674L97.8494 174.962ZM113.661 179.654L112.28 178.778C112.99 177.048 113.618 174.648 114.146 171.646L115.662 172.058C115.097 175.268 114.443 177.751 113.661 179.654ZM108.278 184.243C106.122 183.822 104.563 182.602 102.403 180.494L103.384 178.999C105.276 180.84 106.643 181.944 108.444 182.326L108.278 184.243ZM291.776 184.516C291.452 181.942 291.099 179.379 290.724 176.895L292.249 176.538C292.628 179.04 292.983 181.625 293.309 184.218L291.776 184.516ZM17.5049 188.654L15.9612 188.461C16.1717 185.855 16.4288 183.246 16.7249 180.712L18.2602 180.99C17.9674 183.496 17.7133 186.075 17.5049 188.654ZM293.342 199.868C293.136 197.277 292.9 194.689 292.643 192.176L294.184 191.935C294.441 194.464 294.678 197.07 294.886 199.676L293.342 199.868ZM16.7675 204.076L15.2165 204.035C15.2595 201.418 15.3429 198.795 15.4641 196.241L17.013 196.355C16.8929 198.884 16.8103 201.482 16.7675 204.076ZM294.27 215.305C294.164 212.715 294.033 210.116 293.88 207.58L295.426 207.436C295.579 209.986 295.712 212.601 295.818 215.207L294.27 215.305ZM15.4045 219.63C15.3015 217.017 15.2332 214.397 15.2016 211.836L16.753 211.807C16.7844 214.345 16.8521 216.944 16.9541 219.535L15.4045 219.63ZM294.637 230.786C294.617 228.192 294.58 225.587 294.519 223.043L296.07 222.986C296.13 225.544 296.172 228.162 296.189 230.771L294.637 230.786ZM16.4096 235.171C16.1782 232.576 15.9769 229.965 15.8113 227.411L17.3576 227.256C17.5222 229.789 17.7221 232.382 17.9517 234.959L16.4096 235.171ZM296.056 246.336L294.506 246.281C294.566 243.689 294.61 241.082 294.631 238.535L296.181 238.555C296.16 241.114 296.119 243.732 296.056 246.336ZM18.1376 250.609C17.7926 248.039 17.4733 245.448 17.1882 242.905L18.7249 242.639C19.008 245.164 19.3253 247.738 19.668 250.292L18.1376 250.609ZM295.477 261.883L293.929 261.762C294.06 259.181 294.174 256.577 294.27 254.023L295.82 254.114C295.726 256.677 295.608 259.292 295.477 261.883ZM20.517 265.91C20.0687 263.369 19.6425 260.802 19.2496 258.277L20.7729 257.911C21.1632 260.422 21.5871 262.973 22.0323 265.495L20.517 265.91ZM294.49 277.396L292.944 277.214C293.142 274.633 293.322 272.033 293.485 269.493L295.032 269.645C294.869 272.197 294.686 274.803 294.49 277.396ZM23.4999 281.045C22.9568 278.552 22.4303 276.014 21.9346 273.499L23.4415 273.039C23.9344 275.539 24.4577 278.063 24.9976 280.54L23.4999 281.045ZM293.13 292.863L291.592 292.627C291.845 290.055 292.088 287.462 292.312 284.926L293.854 285.135C293.63 287.683 293.387 290.282 293.13 292.863ZM27.0782 295.984C26.444 293.567 25.8162 291.063 25.2128 288.541L26.7 287.992C27.2995 290.496 27.9232 292.984 28.5532 295.386L27.0782 295.984Z" fill="#D5D5FF"/>
<path d="M0.23871 306.446C0.23871 306.446 -2.01314 321.13 7.31576 324.804C20.076 329.833 92.2216 343.325 74.0259 353.363C63.7543 359.029 82.0241 366.445 132.054 369.279C182.084 372.113 267.934 361.009 239.063 344.583C210.194 328.155 327.815 340.616 320.652 306.446H0.23871Z" fill="#C9BFF3"/>
<path d="M56.645 306.407C56.645 306.407 20.3769 179.163 47.5708 152.093C65.7469 133.998 83.4929 179.555 106.488 158.452C126.96 139.665 113.855 95.7694 133.787 74.6071C158.303 48.5782 199.252 177.807 228.022 157.76C273.276 126.227 300.941 175.972 269.516 306.639L56.645 306.407Z" fill="#F9F7FF"/>
<path d="M303.91 252.492C291.036 250.119 292.201 285.775 273.848 285.775C257.069 285.775 248.089 206.112 229.675 222.315C155.649 287.453 213.248 176.607 163.471 174.44C140.963 173.461 125.965 203.299 120.434 256.124C112.417 303.883 93.8245 219.699 74.6907 227.527C62.5301 232.501 63.9229 285.775 47.143 285.775C28.7902 285.775 29.9993 255.792 17.124 258.166C3.26174 260.72 0.0134277 307.209 0.0134277 307.209H320.978C320.978 307.209 317.774 255.045 303.91 252.492Z" fill="#EBE7FF"/>
<path d="M291.563 289.899C279.719 288.884 281.65 298.046 264.766 298.046C249.328 298.046 249.752 277.514 239.423 273.15C220.397 265.112 204.716 305.785 197.339 285.374C183.331 231.209 142.476 204.046 123.628 285.374C116.252 305.785 99.0045 269.362 81.5446 273.15C70.7971 275.481 71.6382 298.046 56.2012 298.046C39.317 298.046 41.2499 288.884 29.4048 289.899C16.6517 290.992 12.8427 307.208 12.8427 307.208H308.124C308.124 307.208 304.316 290.992 291.563 289.899Z" fill="#E0D8FE"/>
<path d="M83.1878 295.347H134.779V287.252H83.1878V295.347Z" fill="#F39200"/>
<path d="M88.45 303.441H140.041V295.347H88.45V303.441Z" fill="#F39200"/>
<path d="M142.015 279.157H90.4232V271.063H142.015V279.157Z" fill="#F39200"/>
<path d="M136.752 287.252H85.1612V279.157H136.752V287.252Z" fill="#F39200"/>
<path d="M87.1344 311.535H138.726V303.441H87.1344V311.535Z" fill="#F39200"/>
<path d="M83.1878 319.63H134.779V311.535H83.1878V319.63Z" fill="#F39200"/>
<path d="M81.8723 327.725H133.464V319.63H81.8723V327.725Z" fill="#F39200"/>
<path d="M88.45 335.819H140.041V327.725H88.45V335.819Z" fill="#F39200"/>
<path d="M125.111 295.347H128.202V287.252H125.111V295.347Z" fill="#F9B233"/>
<path d="M113.33 295.347H116.42V287.252H113.33V295.347Z" fill="#F9B233"/>
<path d="M101.548 295.347H104.638V287.252H101.548V295.347Z" fill="#F9B233"/>
<path d="M89.7655 295.347H92.8556V287.252H89.7655V295.347Z" fill="#F9B233"/>
<path d="M130.374 303.441H133.464V295.347H130.374V303.441Z" fill="#F9B233"/>
<path d="M118.592 303.441H121.682V295.347H118.592V303.441Z" fill="#F9B233"/>
<path d="M106.81 303.441H109.9V295.347H106.81V303.441Z" fill="#F9B233"/>
<path d="M95.0277 303.441H98.1178V295.347H95.0277V303.441Z" fill="#F9B233"/>
<path d="M100.091 279.157H97.0009V271.063H100.091V279.157Z" fill="#F9B233"/>
<path d="M111.873 279.157H108.783V271.063H111.873V279.157Z" fill="#F9B233"/>
<path d="M123.655 279.157H120.565V271.063H123.655V279.157Z" fill="#F9B233"/>
<path d="M135.437 279.157H132.347V271.063H135.437V279.157Z" fill="#F9B233"/>
<path d="M94.829 287.252H91.7389V279.157H94.829V287.252Z" fill="#F9B233"/>
<path d="M106.611 287.252H103.521V279.157H106.611V287.252Z" fill="#F9B233"/>
<path d="M118.393 287.252H115.303V279.157H118.393V287.252Z" fill="#F9B233"/>
<path d="M130.175 287.252H127.085V279.157H130.175V287.252Z" fill="#F9B233"/>
<path d="M129.058 311.535H132.148V303.441H129.058V311.535Z" fill="#F9B233"/>
<path d="M117.276 311.535H120.366V303.441H117.276V311.535Z" fill="#F9B233"/>
<path d="M105.494 311.535H108.584V303.441H105.494V311.535Z" fill="#F9B233"/>
<path d="M93.7122 311.535H96.8023V303.441H93.7122V311.535Z" fill="#F9B233"/>
<path d="M125.111 319.63H128.202V311.535H125.111V319.63Z" fill="#F9B233"/>
<path d="M113.33 319.63H116.42V311.535H113.33V319.63Z" fill="#F9B233"/>
<path d="M101.548 319.63H104.638V311.535H101.548V319.63Z" fill="#F9B233"/>
<path d="M89.7655 319.63H92.8556V311.535H89.7655V319.63Z" fill="#F9B233"/>
<path d="M123.796 327.725H126.886V319.63H123.796V327.725Z" fill="#F9B233"/>
<path d="M112.014 327.725H115.104V319.63H112.014V327.725Z" fill="#F9B233"/>
<path d="M100.232 327.725H103.322V319.63H100.232V327.725Z" fill="#F9B233"/>
<path d="M88.45 327.725H91.5399V319.63H88.45V327.725Z" fill="#F9B233"/>
<path d="M130.374 335.819H133.464V327.725H130.374V335.819Z" fill="#F9B233"/>
<path d="M118.592 335.819H121.682V327.725H118.592V335.819Z" fill="#F9B233"/>
<path d="M106.81 335.819H109.9V327.725H106.81V335.819Z" fill="#F9B233"/>
<path d="M95.0277 335.819H98.1178V327.725H95.0277V335.819Z" fill="#F9B233"/>
<path d="M110.053 124.282C110.053 124.282 112.043 121.385 115.05 124.565C118.057 127.745 116.857 128.739 120.826 131.953C124.796 135.168 121.888 142.604 119.111 144.257C116.333 145.907 120.211 149.529 114.531 151.757C108.852 153.983 91.9952 138.045 110.053 124.282Z" fill="#9A4A26"/>
<path d="M141.062 196.202C140.99 196.441 140.768 196.551 140.581 196.446C140.028 196.168 139.45 195.95 138.861 195.838C139.315 197.054 140.057 198.115 140.056 198.124C141.102 199.162 142.192 200.127 143.317 201.033C143.684 201.313 143.356 202.043 142.968 201.798C141.79 201.087 140.634 200.313 139.515 199.469C139.51 199.476 139.505 199.48 139.501 199.487C140.389 200.832 141.338 202.121 142.369 203.302C143.002 205.929 138.904 200.678 138.568 200.288C138.565 200.291 138.562 200.293 138.559 200.295C139.22 201.732 140.023 203.07 140.93 204.286C141.35 206.992 137.585 201.301 137.35 200.75C137.345 200.753 137.339 200.753 137.334 200.755C137.721 201.98 138.234 203.143 138.791 204.265C138.875 206.81 136.243 201.44 136.06 200.921C135.727 200.43 134.643 198.697 133.965 195.699C133.752 194.764 135.788 193.302 136.537 193.528C137.24 193.737 138.135 194.252 138.452 194.454C139.019 194.652 141.218 195.319 141.062 196.202Z" fill="#F19E79"/>
<path d="M114.73 161.238C114.673 161.231 114.557 161.217 114.504 161.211C118.744 163.032 120.754 168.82 122.344 173.626C123.497 177.088 124.856 180.443 126.381 183.678C128.587 188.264 131.099 192.665 134.158 196.45C135.774 198.219 137.782 195.995 136.937 193.673C133.688 186.15 131.388 177.998 129.937 169.672C128.302 160.86 123.721 151.065 115.806 149.426C109.324 148.438 108.222 160.425 114.73 161.238Z" fill="#F19E79"/>
<path d="M116.927 159.425C117.085 160.21 117.258 161.002 117.44 161.806C118.893 168.2 121.02 175.04 123.054 180.505C124.72 184.976 126.323 188.522 127.446 190.159C128.812 192.151 129.964 193.332 130.863 194.031C132.28 195.135 133.066 195.044 133.066 195.044C134.099 192.155 136.198 191.914 136.198 191.914C136.415 191.24 136.493 190.514 136.468 189.747C136.333 185.611 133.188 180.298 132.36 175.859C131.376 170.594 129.983 161.487 125.725 155.514C122.703 151.275 118.885 149.764 116.923 149.245C116.12 149.031 115.628 148.983 115.628 148.983C115.628 148.983 117.218 152.013 117.647 154.26C118.078 156.258 117.854 158.321 116.927 159.425Z" fill="#513AAF"/>
<path d="M110.363 148.182C103.449 148.722 94.6856 154.126 90.4516 160.895C83.9019 171.366 90.0505 184.68 96.0784 187.305C99.0066 188.58 99.8138 186.884 97.6603 184.205C90.8906 175.778 97.1656 167.419 103.111 164.927C105.184 164.057 109.712 148.237 110.363 148.182Z" fill="#F19E79"/>
<path d="M108.568 268.5V268.828H100.796C100.622 266.094 102.459 264.239 102.096 261.487C102.096 261.487 97.0259 232.273 100.796 227.336C102.462 225.153 109.997 225.765 110.944 229.05C112.247 233.571 107.287 261.601 107.287 261.601C106.95 264.212 108.616 265.93 108.568 268.5Z" fill="#F19E79"/>
<path d="M133.152 268.828L118.786 269.322C118.851 267.565 119.071 262.894 118.843 260.652C118.843 260.652 113.087 235.373 116.414 230.14C118.042 227.579 123.371 223.514 125.025 226.05C128.508 231.392 124.262 260.757 124.262 260.757C124.138 267.101 133.132 262.653 133.152 268.828Z" fill="#F19E79"/>
<path d="M133.152 268.828L119.388 269.436C119.388 269.436 118.619 269.513 118.633 268.828C118.523 267.49 118.965 264.209 118.933 262.504C118.932 262.504 121.318 267.348 130.598 265.364C132.138 265.846 133.203 266.895 133.152 268.828Z" fill="#EE7B47"/>
<path d="M108.568 268.5V268.828H100.796C100.76 267.644 100.98 266.377 101.446 265.395C101.446 265.395 104.419 262.411 107.915 265.391C108.336 266.279 108.571 267.415 108.568 268.5Z" fill="#EE7B47"/>
<path d="M123.286 189.918C97.219 188.234 105.216 197.125 105.523 171.935C106.073 163.852 101.772 151.471 110.363 148.182C110.627 145.815 110.426 141.535 110.047 139.43C109.23 135.662 114.146 134.174 114.815 138.009C114.979 138.726 115.289 142.687 115.382 146.127C115.409 147.467 115.21 148.829 116.117 149.746C124.523 160.631 123.027 175.812 123.286 189.918Z" fill="#F19E79"/>
<path d="M115.376 146.126C114.367 146.383 112.266 146.725 110.477 145.746C110.477 145.564 110.474 145.375 110.469 145.186C110.502 143.372 110.343 141.789 110.234 140.772C109.982 138.867 109.7 138.154 110.552 136.763C111.168 135.814 112.378 135.423 113.29 135.887C115.668 137.141 114.964 141.264 115.376 146.126Z" fill="#E88F67"/>
<path d="M124.071 161.486C124.071 161.486 126.63 165.174 125.765 169.922C124.723 175.647 124.472 179.162 125.24 184.568C126.008 189.974 119.623 185.783 119.623 185.783L124.071 161.486Z" fill="#3A229B"/>
<path d="M102.258 189.961C106.537 191.201 114.686 183.095 123.734 180.277C124.22 163 128.939 165.725 115.628 148.983C115.628 148.983 117.218 152.013 117.647 154.259C118.344 157.494 117.33 160.942 114.336 160.105C111.096 159.014 110.594 149.449 110.363 148.179C108.524 150.262 102.963 158.921 103.111 164.286C102.908 167.489 103.673 170.341 103.808 173.822C104.715 181.181 98.9885 182.702 102.258 189.961Z" fill="#513AAF"/>
<path d="M118.229 142.254C116.852 144.667 114.38 145.762 112.271 145.632C112.151 145.625 112.029 145.619 111.913 145.603C107.325 145.072 104.942 136.857 106.177 132.088C106.877 128.865 109.716 126.423 112.38 127.433C114.245 128.219 115.18 130.251 116.246 132.375C116.553 132.921 117.098 133.607 117.601 134.046C119.539 135.787 119.968 139.042 118.229 142.254Z" fill="#F19E79"/>
<path d="M103.808 173.822C103.861 174.612 103.925 175.329 103.891 175.984C104.229 174.701 104.387 173.08 104.131 171.311C103.529 167.155 104.131 163.727 104.131 163.727L103.137 163.945C103.126 164.059 103.118 164.17 103.111 164.287C102.896 167.275 103.666 170.337 103.808 173.822Z" fill="#3A229B"/>
<path d="M110.353 132.848C106.992 134.983 107.858 138.45 107.858 138.45L106.208 136.882L108.319 129.602L111.054 127.203C111.813 127.169 112.541 127.415 113.196 127.895C113.196 127.895 113.715 130.713 110.353 132.848Z" fill="#E88F67"/>
<path d="M91.3119 185.038C92.1323 185.655 92.896 185.812 93.4373 185.482C93.4373 185.482 94.3129 182.962 96.5883 182.7C96.5883 182.7 96.8202 182.033 96.8449 180.706C96.86 179.93 96.8069 178.935 96.5979 177.717C95.669 172.316 100.345 167.553 103.09 166.135C105.669 164.801 107.367 161.915 108.475 158.681C109.713 155.057 110.209 150.993 110.363 148.18C110.363 148.18 107.54 147.411 102.298 149.555C102.076 149.646 101.85 149.741 101.618 149.844C95.9388 152.343 87.0421 159.225 86.7419 170.9C86.5464 178.487 89.1277 183.394 91.3119 185.038Z" fill="#513AAF"/>
<path d="M113.857 135.095C113.987 134.617 113.375 134.376 113.257 134.858C113.126 135.336 113.738 135.58 113.857 135.095Z" fill="#D27D57"/>
<path d="M116.401 134.03C116.531 133.549 115.919 133.308 115.801 133.791C115.67 134.271 116.282 134.512 116.401 134.03Z" fill="#D27D57"/>
<path d="M115.85 137.572C115.7 137.583 115.397 137.679 115.396 137.412C115.406 137.33 115.467 137.276 115.532 137.287C115.951 137.383 116.867 136.85 116.361 136.593C115.635 136.281 114.983 134.808 114.955 134.747C114.88 134.581 115.093 134.435 115.165 134.606C115.171 134.619 115.801 136.04 116.44 136.315C117.242 136.798 116.418 137.449 115.85 137.572Z" fill="#D27D57"/>
<path d="M125.195 253.995C124.984 255.434 124.85 256.28 124.832 256.401C121.615 257.633 117.989 256.588 117.989 256.588C117.989 256.585 117.988 256.585 117.988 256.583C117.953 256.513 117.918 256.433 117.884 256.353C113.903 246.324 114.685 214.046 113.455 205.38C113.461 213.513 110.933 245.288 108.166 256.39C106.107 257.901 102.019 256.581 101.291 256.356C97.4146 237.171 100.686 235.723 97.8358 213.543C96.2941 198.599 97.3148 189.157 103.183 179.747C110.426 181.741 117.093 182.87 123.735 180.277C123.735 180.277 126.544 186.874 127.222 194.39C129.371 218.196 128.614 233.083 125.195 253.995Z" fill="#2D1C70"/>
<path d="M125.24 184.569C125.106 184.635 117.887 188.067 100.976 183.763C102.02 180.933 103.073 179.47 103.073 179.47C112.975 182.645 123.735 180.278 123.735 180.278C123.735 180.278 125.021 182.768 125.24 184.569Z" fill="#251177"/>
<path d="M102.224 254.43C101.051 247.954 100.567 238.016 101.098 230.782C101.406 226.577 101.135 223.798 100.725 219.589C99.2851 208.656 98.7752 190.764 104.029 182.057C104.263 181.652 103.759 181.243 103.537 181.623C98.1883 190.466 98.6493 208.499 100.123 219.678C101.365 230.36 99.1157 244.305 101.669 254.284C101.141 254.13 100.834 253.995 100.834 253.995C100.834 253.995 101.132 255.536 101.291 256.356C101.291 256.356 106.017 258.013 108.166 256.39C108.166 256.39 108.447 255.445 108.718 253.893C106.22 255.056 103.72 254.785 102.224 254.43Z" fill="#251177"/>
<path d="M118.583 254.4C118.583 254.4 118.583 254.4 118.583 254.4C117.436 250.649 115.898 232.304 116.227 227.645C116.555 222.983 116.445 213.634 116.227 209.439C116.008 205.244 113.455 205.38 113.455 205.38C114.646 213.755 113.953 244.576 117.56 255.452C117.703 255.912 117.847 256.292 117.99 256.588C117.99 256.588 121.616 257.635 124.833 256.403C124.833 256.403 124.973 255.513 125.196 253.997C122.588 255.124 120.089 254.799 118.583 254.4Z" fill="#251177"/>
<path d="M113.456 205.754C113.174 205.767 113.039 205.276 113.278 205.078C113.298 205.059 115.326 203.195 115.796 199.603C115.822 199.4 115.978 199.261 116.143 199.293C116.308 199.328 116.42 199.519 116.394 199.724C115.793 203.805 113.781 205.635 113.456 205.754Z" fill="#251177"/>
<path d="M118.504 185.995L114.581 186.23C113.928 186.268 113.374 185.647 113.342 184.841C113.36 183.607 112.776 180.962 114.371 180.876L118.295 180.641C118.947 180.601 119.502 181.224 119.533 182.03C119.516 183.261 120.1 185.909 118.504 185.995Z" fill="#3C2A84"/>
<path d="M100.796 268.828C100.796 269.979 101.552 270.915 102.484 270.915H106.88C107.812 270.915 108.568 269.979 108.568 268.828H100.796Z" fill="#D36C3E"/>
<path d="M118.633 268.828C118.606 269.97 119.347 270.915 120.271 270.915H131.513C132.436 270.915 133.179 269.966 133.152 268.828H118.633Z" fill="#D36C3E"/>
<path d="M100.397 185.17C101.217 186.071 102.256 186.69 102.258 186.697C103.572 187.141 104.903 187.496 106.248 187.776C106.68 187.851 106.614 188.693 106.172 188.659C104.843 188.589 103.513 188.445 102.194 188.22C102.192 188.227 102.189 188.236 102.187 188.243C103.455 189.051 104.761 189.775 106.107 190.357C107.557 192.486 102.021 189.647 101.581 189.454C101.579 189.456 101.576 189.46 101.574 189.463C102.662 190.471 103.851 191.318 105.097 191.996C106.34 194.295 101.001 190.881 100.597 190.492C100.593 190.494 100.588 190.498 100.584 190.503C101.345 191.448 102.204 192.274 103.09 193.039C104.007 195.383 99.7094 191.621 99.3756 191.215C99.0017 191.083 97.1062 189.385 95.5693 187.057C95.0656 186.294 96.7048 184.346 97.4764 184.179C98.8257 183.943 99.6837 184.116 100.807 184.138L100.397 185.17Z" fill="#F19E79"/>
<path d="M102.298 149.554C103.117 151.222 104.551 153.128 105.92 154.974C106.881 156.274 107.812 157.542 108.475 158.68C108.938 159.476 109.271 160.209 109.39 160.842C110.036 164.279 113.787 164.439 114.5 163.398C115.18 162.408 115.975 161.343 117.44 161.805C117.508 161.826 117.577 161.851 117.649 161.88C119.248 162.52 120.317 159.643 119.624 158.284C118.929 156.925 118.637 155.645 119.164 153.642C119.692 151.637 116.963 149.288 116.923 149.244C116.12 149.03 115.628 148.983 115.628 148.983C115.628 148.983 116.995 151.91 117.424 154.157C117.855 156.155 117.793 158.09 116.866 159.192C116.285 159.886 115.494 160.177 114.345 159.852C111.104 158.764 110.594 149.449 110.363 148.179C110.363 148.179 107.54 147.41 102.298 149.554Z" fill="#3A229B"/>
<path d="M112.38 127.436C111.315 123.55 102.474 118.158 99.2515 129.885C96.7726 138.909 89.3395 147.973 98.5471 151.471C101.007 152.407 97.5167 157.342 99.9356 158.878C102.354 160.413 104.991 157.968 105.753 162.657C106.515 167.349 108.555 168.657 110.363 167.961C112.486 167.139 117.092 160.868 112.831 156.639C109.743 153.572 113.089 149.867 110.469 145.187C108.96 142.491 107.141 141.126 107.141 141.126L107.248 137.372C106.696 132.633 113.174 131.752 112.38 127.436Z" fill="#9A4A26"/>
<path d="M105.082 139.776C105.966 142.562 108.72 141.246 107.858 138.451C106.975 135.665 104.221 136.98 105.082 139.776Z" fill="#F19E79"/>
<path d="M105.902 140.223C105.852 140.235 105.8 140.203 105.776 140.144C105.003 138.411 105.71 137.483 106.754 137.781C106.905 137.82 106.854 138.113 106.703 138.07C105.808 137.81 105.344 138.566 105.99 140.014C106.026 140.1 105.98 140.21 105.902 140.223Z" fill="#D27D57"/>
<path d="M106.974 139.801C106.756 139.81 106.499 138.767 105.575 138.836C105.51 138.842 105.452 138.783 105.445 138.701C105.439 138.622 105.486 138.547 105.553 138.542C106.469 138.453 107.322 139.666 106.974 139.801Z" fill="#D27D57"/>
<path d="M91.3118 185.038C92.1322 185.655 92.8959 185.812 93.4371 185.482C93.4371 185.482 94.3127 182.962 96.5881 182.7C96.5881 182.7 96.82 182.033 96.8447 180.706C96.3887 180.401 95.7904 180.253 95.1656 180.902C93.9367 182.181 94.6205 182.732 92.9377 183.435C92.022 183.818 91.4979 184.382 91.3118 185.038Z" fill="#3A229B"/>
<path d="M130.863 194.031C132.28 195.135 133.066 195.044 133.066 195.044C134.099 192.155 136.198 191.914 136.198 191.914C136.415 191.24 136.493 190.514 136.468 189.747C135.809 189.663 135.114 189.834 134.608 190.614C133.315 192.613 132.99 192.613 131.634 192.932C131.169 193.043 130.95 193.492 130.863 194.031Z" fill="#3A229B"/>
<path d="M116.083 164.978C116.083 165.363 116.336 165.677 116.648 165.677C116.96 165.677 117.213 165.363 117.213 164.978C117.213 164.591 116.96 164.279 116.648 164.279C116.336 164.279 116.083 164.591 116.083 164.978Z" fill="#3A229B"/>
<path d="M116.29 167.961C116.29 168.345 116.543 168.657 116.855 168.657C117.167 168.657 117.42 168.345 117.42 167.961C117.42 167.574 117.167 167.262 116.855 167.262C116.543 167.262 116.29 167.574 116.29 167.961Z" fill="#3A229B"/>
<path d="M114.866 138.377C114.786 138.377 114.709 138.391 114.64 138.423C114.513 138.477 114.427 138.575 114.397 138.7C114.367 138.825 114.396 138.967 114.477 139.099C114.567 139.242 114.708 139.356 114.873 139.415C115.038 139.476 115.206 139.476 115.345 139.415C115.472 139.36 115.558 139.263 115.588 139.137C115.617 139.012 115.589 138.871 115.507 138.741C115.417 138.596 115.277 138.482 115.112 138.423C115.029 138.391 114.946 138.377 114.866 138.377ZM115.118 139.738C115.017 139.738 114.912 139.718 114.809 139.681C114.599 139.604 114.419 139.456 114.3 139.267C114.174 139.062 114.132 138.835 114.183 138.623C114.234 138.411 114.37 138.247 114.565 138.161C114.749 138.081 114.965 138.081 115.175 138.156C115.385 138.234 115.566 138.382 115.684 138.573C115.811 138.775 115.853 139.005 115.802 139.217C115.751 139.429 115.615 139.593 115.419 139.677C115.326 139.718 115.224 139.738 115.118 139.738Z" fill="#D27D57"/>
<path d="M112.437 134.733C112.4 134.733 112.364 134.711 112.342 134.67C112.309 134.604 112.324 134.519 112.376 134.478C112.385 134.472 113.275 133.759 113.606 132.842C113.632 132.773 113.698 132.742 113.754 132.773C113.81 132.803 113.836 132.885 113.81 132.956C113.451 133.948 112.535 134.681 112.497 134.711C112.478 134.727 112.457 134.733 112.437 134.733Z" fill="#D27D57"/>
<path d="M116.419 133.093C116.417 133.093 116.414 133.093 116.412 133.093C115.346 133.009 114.802 132.763 114.78 132.751C114.722 132.726 114.693 132.647 114.714 132.574C114.736 132.503 114.8 132.467 114.858 132.494C114.863 132.496 115.397 132.735 116.426 132.817C116.488 132.822 116.534 132.888 116.53 132.963C116.527 133.036 116.478 133.093 116.419 133.093Z" fill="#D27D57"/>
<path d="M237.266 327.725H185.675V319.63H237.266V327.725Z" fill="#F39200"/>
<path d="M232.002 335.819H180.411V327.725H232.002V335.819Z" fill="#F39200"/>
<path d="M178.439 311.535H230.03V303.441H178.439V311.535Z" fill="#F39200"/>
<path d="M183.7 319.63H235.291V311.535H183.7V319.63Z" fill="#F39200"/>
<path d="M183.7 303.439H235.291V295.345H183.7V303.439Z" fill="#F39200"/>
<path d="M195.341 327.725H192.251V319.63H195.341V327.725Z" fill="#F9B233"/>
<path d="M207.123 327.725H204.033V319.63H207.123V327.725Z" fill="#F9B233"/>
<path d="M218.905 327.725H215.815V319.63H218.905V327.725Z" fill="#F9B233"/>
<path d="M230.687 327.725H227.597V319.63H230.687V327.725Z" fill="#F9B233"/>
<path d="M190.08 335.819H186.99V327.725H190.08V335.819Z" fill="#F9B233"/>
<path d="M201.862 335.819H198.772V327.725H201.862V335.819Z" fill="#F9B233"/>
<path d="M213.644 335.819H210.554V327.725H213.644V335.819Z" fill="#F9B233"/>
<path d="M225.426 335.819H222.336V327.725H225.426V335.819Z" fill="#F9B233"/>
<path d="M220.362 311.535H223.452V303.441H220.362V311.535Z" fill="#F9B233"/>
<path d="M208.58 311.535H211.67V303.441H208.58V311.535Z" fill="#F9B233"/>
<path d="M196.798 311.535H199.888V303.441H196.798V311.535Z" fill="#F9B233"/>
<path d="M185.015 311.535H188.105V303.441H185.015V311.535Z" fill="#F9B233"/>
<path d="M225.625 319.63H228.713V311.535H225.625V319.63Z" fill="#F9B233"/>
<path d="M213.843 319.63H216.933V311.535H213.843V319.63Z" fill="#F9B233"/>
<path d="M202.061 319.63H205.151V311.535H202.061V319.63Z" fill="#F9B233"/>
<path d="M190.278 319.63H193.369V311.535H190.278V319.63Z" fill="#F9B233"/>
<path d="M225.625 303.439H228.713V295.345H225.625V303.439Z" fill="#F9B233"/>
<path d="M213.843 303.439H216.933V295.345H213.843V303.439Z" fill="#F9B233"/>
<path d="M202.061 303.439H205.151V295.345H202.061V303.439Z" fill="#F9B233"/>
<path d="M190.278 303.439H193.369V295.345H190.278V303.439Z" fill="#F9B233"/>
<path d="M175.408 254.87H226.999V246.776H175.408V254.87Z" fill="#F39200"/>
<path d="M180.671 262.964H232.262V254.869H180.671V262.964Z" fill="#F39200"/>
<path d="M234.234 238.681H182.643V230.586H234.234V238.681Z" fill="#F39200"/>
<path d="M228.973 246.775H177.382V238.681H228.973V246.775Z" fill="#F39200"/>
<path d="M179.354 271.061H230.945V262.964H179.354V271.061Z" fill="#F39200"/>
<path d="M175.408 279.155H226.999V271.061H175.408V279.155Z" fill="#F39200"/>
<path d="M174.093 287.25H225.684V279.156H174.093V287.25Z" fill="#F39200"/>
<path d="M180.671 295.345H232.262V287.25H180.671V295.345Z" fill="#F39200"/>
<path d="M217.331 254.87H220.421V246.776H217.331V254.87Z" fill="#F9B233"/>
<path d="M205.55 254.87H208.64V246.776H205.55V254.87Z" fill="#F9B233"/>
<path d="M193.768 254.87H196.858V246.776H193.768V254.87Z" fill="#F9B233"/>
<path d="M181.986 254.87H185.076V246.776H181.986V254.87Z" fill="#F9B233"/>
<path d="M222.594 262.964H225.684V254.869H222.594V262.964Z" fill="#F9B233"/>
<path d="M210.812 262.964H213.902V254.869H210.812V262.964Z" fill="#F9B233"/>
<path d="M199.029 262.964H202.12V254.869H199.029V262.964Z" fill="#F9B233"/>
<path d="M187.247 262.964H190.337V254.869H187.247V262.964Z" fill="#F9B233"/>
<path d="M192.311 238.681H189.221V230.586H192.311V238.681Z" fill="#F9B233"/>
<path d="M204.094 238.681H201.004V230.586H204.094V238.681Z" fill="#F9B233"/>
<path d="M215.876 238.681H212.786V230.586H215.876V238.681Z" fill="#F9B233"/>
<path d="M227.656 238.681H224.566V230.586H227.656V238.681Z" fill="#F9B233"/>
<path d="M187.048 246.775H183.958V238.681H187.048V246.775Z" fill="#F9B233"/>
<path d="M198.831 246.775H195.741V238.681H198.831V246.775Z" fill="#F9B233"/>
<path d="M210.613 246.775H207.523V238.681H210.613V246.775Z" fill="#F9B233"/>
<path d="M222.395 246.775H219.305V238.681H222.395V246.775Z" fill="#F9B233"/>
<path d="M221.279 271.061H224.369V262.964H221.279V271.061Z" fill="#F9B233"/>
<path d="M209.497 271.061H212.587V262.964H209.497V271.061Z" fill="#F9B233"/>
<path d="M197.715 271.061H200.805V262.964H197.715V271.061Z" fill="#F9B233"/>
<path d="M185.932 271.061H189.022V262.964H185.932V271.061Z" fill="#F9B233"/>
<path d="M217.331 279.155H220.421V271.061H217.331V279.155Z" fill="#F9B233"/>
<path d="M205.55 279.155H208.64V271.061H205.55V279.155Z" fill="#F9B233"/>
<path d="M193.768 279.155H196.858V271.061H193.768V279.155Z" fill="#F9B233"/>
<path d="M181.986 279.155H185.076V271.061H181.986V279.155Z" fill="#F9B233"/>
<path d="M216.016 287.25H219.106V279.156H216.016V287.25Z" fill="#F9B233"/>
<path d="M204.234 287.25H207.324V279.156H204.234V287.25Z" fill="#F9B233"/>
<path d="M192.451 287.25H195.542V279.156H192.451V287.25Z" fill="#F9B233"/>
<path d="M180.671 287.25H183.759V279.156H180.671V287.25Z" fill="#F9B233"/>
<path d="M222.594 295.345H225.684V287.25H222.594V295.345Z" fill="#F9B233"/>
<path d="M210.812 295.345H213.902V287.25H210.812V295.345Z" fill="#F9B233"/>
<path d="M199.029 295.345H202.12V287.25H199.029V295.345Z" fill="#F9B233"/>
<path d="M187.247 295.345H190.337V287.25H187.247V295.345Z" fill="#F9B233"/>
<path d="M220.443 62.9779L220.34 60.8017L224.172 60.6583C224.172 60.6583 224.312 62.2882 224.45 62.9824C224.45 62.9824 222.892 64.7147 220.443 62.9779Z" fill="#F19E79"/>
<path d="M181.914 62.7609C181.914 62.7609 182.037 61.732 182.096 60.999L185.98 60.5506L185.921 62.7563C185.921 62.7563 183.873 64.22 181.914 62.7609Z" fill="#F19E79"/>
<path d="M185.827 230.718H197.055C198.035 230.668 198.028 229.434 197.847 228.478C197.228 225.027 198.322 217.106 198.525 213.559C198.578 212.91 198.166 212.346 197.635 212.346H192.682C192.144 212.346 191.728 212.926 191.796 213.584L192.696 222.455C193.043 226.564 189.601 226.905 187.339 227.469C186.452 227.747 185.522 228.173 185.089 228.992C184.686 229.725 185.109 230.718 185.827 230.718Z" fill="#F19E79"/>
<path d="M198.274 229.279C198.245 229.96 197.971 230.733 197.333 230.718H185.687C185.085 230.718 184.658 229.973 184.872 229.279C185.325 227.708 186.93 225.371 192.433 224.986C193.223 225.081 195.026 225.414 197.634 224.977C197.634 224.977 198.529 226.714 198.274 229.279Z" fill="#2D1C70"/>
<path d="M184.872 229.279H198.274C198.225 229.784 198.112 230.274 197.908 230.718H185.687C185.093 230.718 184.667 229.996 184.864 229.304C184.868 229.295 184.87 229.288 184.872 229.279Z" fill="#5743AA"/>
<path d="M211.022 229.717L217.845 229.828C217.845 228.786 217.775 228.41 217.403 227.602C216.033 225.353 217.668 215.296 217.62 212.669C217.939 211.95 211.696 212.515 211.596 212.344C211.456 212.346 211.344 212.494 211.355 212.667L212.094 224.158C212.425 226.341 211.07 227.659 211.022 229.717Z" fill="#F19E79"/>
<path d="M216.951 230.718H211.974C211.347 230.718 210.841 230.076 210.869 229.304C210.869 229.295 210.869 229.288 210.869 229.279C210.931 227.59 211.511 225.011 214.462 224.977C217.423 224.945 217.995 227.567 218.054 229.279C218.056 229.288 218.056 229.3 218.056 229.309C218.08 230.08 217.576 230.718 216.951 230.718Z" fill="#2D1C70"/>
<path d="M216.951 230.718H211.974C211.347 230.718 210.841 230.076 210.869 229.304V229.279H218.054C218.056 229.288 218.056 229.3 218.056 229.309C218.08 230.08 217.576 230.718 216.951 230.718Z" fill="#5743AA"/>
<path d="M218.863 222.79C218.863 222.79 213.25 224.383 210.359 222.671C210.359 222.671 210.239 221.818 210.031 220.293C208.803 211.326 204.495 171.81 203.221 152.62C203.221 152.62 200.256 208.813 199.639 220.293C199.563 221.708 199.521 222.555 199.527 222.671C199.527 222.671 198.834 222.958 197.81 223.215C195.989 223.673 193.124 224.033 191.271 222.503C191.271 222.503 191.199 221.727 191.083 220.293C190.245 210.008 185.645 170.772 190.431 138.667C190.431 138.667 207.396 140.593 217.839 136.907C217.839 136.907 220.688 168.764 218.802 220.293C218.747 221.779 218.844 222.667 218.863 222.79Z" fill="#2D1C70"/>
<path d="M197.926 220.903C198.49 211.126 200.668 165.969 201.035 160.273C201.455 153.722 203.221 152.62 203.221 152.62C203.221 152.62 199.527 222.655 199.527 222.671C199.527 222.671 198.834 222.958 197.81 223.215C195.989 223.673 193.124 224.033 191.271 222.503C191.271 222.503 191.199 221.727 191.083 220.293C191.083 220.293 194.087 221.904 197.926 220.903Z" fill="#1E0F5B"/>
<path d="M193.555 221.567C191.498 199.009 191.976 178.088 192.741 164.507C193.569 149.793 194.903 140.285 194.916 140.19L195.433 140.303C195.42 140.397 194.092 149.88 193.266 164.562C192.503 178.113 192.024 198.989 194.076 221.495L193.555 221.567Z" fill="#1E0F5B"/>
<path d="M214.2 221.908C210.976 181.085 209.78 141.411 209.768 141.015L210.294 140.993C210.305 141.389 211.5 181.044 214.723 221.847L214.2 221.908Z" fill="#1E0F5B"/>
<path d="M199.379 96.496L191.707 112.503C187.94 107.358 185.404 101.875 183.728 96.5005C179.358 82.4808 180.842 69.194 181.594 64.5253C181.776 63.3872 181.914 62.7612 181.914 62.7612C183.7 63.9244 185.921 62.7567 185.921 62.7567C185.918 63.3258 185.923 63.8857 185.938 64.4366C186.435 83.5029 197.639 92.5739 199.379 96.496Z" fill="#513AAF"/>
<path d="M201.453 97.3819C201.177 94.4113 201.554 90.1137 201.889 88.3586C202.495 84.8782 206.965 86.2235 206.221 89.6447C206.077 89.5332 205.617 95.8385 205.935 97.589C210.13 99.1437 197.514 104.252 201.453 97.3819Z" fill="#F19E79"/>
<path d="M206.265 89.3572C206.26 89.3982 206.256 89.4392 206.248 89.4802C206.241 89.5348 206.232 89.5894 206.221 89.644C206.118 89.5598 205.827 93.038 205.825 95.5647C203.902 96.6437 201.759 96.168 201.366 96.0701C201.282 93.4 201.617 90.0902 201.794 88.8519C201.845 88.5628 201.882 88.3921 201.889 88.3579C201.904 88.2783 201.923 88.2009 201.943 88.1258C202.158 87.3336 202.645 86.7327 203.239 86.4436C203.654 86.2433 204.116 86.1932 204.58 86.3298C205.039 86.4686 205.429 86.7714 205.72 87.1765C205.733 87.1925 205.746 87.2107 205.757 87.2266C206.149 87.8025 206.35 88.5696 206.265 89.3572Z" fill="#E88F67"/>
<path d="M218.863 222.789C218.863 222.789 213.25 224.383 210.359 222.671C210.359 222.671 210.239 221.818 210.031 220.292C210.031 220.292 213.856 221.585 218.802 220.292C218.824 221.779 218.844 222.667 218.863 222.789Z" fill="#1E0F5B"/>
<path d="M197.904 85.5518C197.904 85.5518 197.475 82.6244 197.886 80.4324L199.368 80.9172L197.904 85.5518Z" fill="#2D1C70"/>
<path d="M199.245 94.0943C201.173 95.7105 203.742 95.6718 205.635 94.6566C206.228 94.3515 206.773 93.9395 207.232 93.4069C207.386 93.2271 207.53 93.0381 207.664 92.8333H207.666C213.683 81.6043 200.976 68.791 198.471 83.3274C197.503 87.4862 195.083 90.1859 199.245 94.0943Z" fill="#F19E79"/>
<path d="M201.261 85.6944C201.157 85.5305 201.179 85.2915 201.313 85.1594C201.446 85.0297 201.639 85.0593 201.746 85.2232C201.851 85.3894 201.827 85.6284 201.694 85.7581C201.56 85.8879 201.366 85.8605 201.261 85.6944Z" fill="#D27D57"/>
<path d="M198.637 85.7966C198.53 85.6328 198.554 85.3915 198.687 85.2617C198.821 85.132 199.015 85.1616 199.12 85.3255C199.226 85.4894 199.202 85.7284 199.07 85.8604C198.935 85.9901 198.742 85.9605 198.637 85.7966Z" fill="#D27D57"/>
<path d="M199.947 88.8322C200.127 88.8163 200.306 88.7593 200.449 88.6592C200.506 88.6228 200.525 88.534 200.493 88.4657C200.464 88.3951 200.392 88.3701 200.335 88.4088C199.978 88.6546 199.396 88.5522 199.287 88.3564C199.249 88.2881 199.319 88.1925 199.385 88.1265C199.961 87.5324 200.151 85.9094 200.158 85.8411C200.168 85.7637 200.123 85.6909 200.059 85.6795C199.994 85.6681 199.937 85.7227 199.928 85.8024C199.926 85.8161 199.744 87.3822 199.236 87.9034C198.958 88.188 199.044 88.4293 199.096 88.5203C199.227 88.7548 199.591 88.8686 199.947 88.8322Z" fill="#D27D57"/>
<path d="M198.672 82.3171C200.138 80.8466 203.265 81.0833 204.72 80.71C204.72 80.71 204.91 83.8695 207.78 85.4424C208.451 88.2241 209.029 89.3691 207.232 93.4072C207.386 93.2274 207.53 93.0385 207.664 92.8336H207.666C213.475 82.1099 201.565 69.1874 198.672 82.3171Z" fill="#E88F67"/>
<path d="M196.442 76.4801C197.011 73.958 199.599 72.0232 202.464 74.2607C204.67 75.9862 206.668 75.474 206.998 77.7799C211.055 78.9499 210.025 84.4676 210.025 84.4676L208.119 84.6543C205.646 83.0495 205.204 79.9037 205.204 79.9037C204.735 80.0494 204.23 80.1472 203.766 80.1176C202.324 80.022 200.26 80.3134 198.827 81.3992C197.394 82.485 195.805 79.3005 196.442 76.4801Z" fill="#2D1C70"/>
<path d="M210.591 86.26C210.581 87.4915 209.922 88.4817 209.117 88.4726C208.315 88.4612 207.672 87.4551 207.683 86.2213C207.694 84.9899 208.353 83.9997 209.156 84.0088C209.959 84.0179 210.602 85.0263 210.591 86.26Z" fill="#F19E79"/>
<path d="M208.508 85.1442C208.535 85.1215 209.187 84.6093 209.659 84.9667C209.779 85.0577 209.872 85.1966 209.941 85.3787C209.948 85.3969 209.955 85.4106 209.961 85.4288C209.961 85.4288 209.961 85.4288 209.961 85.431C210.077 85.7725 210.108 86.2596 210.058 86.8879C210.053 86.9585 210.007 87.0131 209.952 87.0176C209.946 87.0176 209.939 87.0176 209.931 87.0176C209.867 87.0085 209.821 86.938 209.826 86.8606C209.867 86.3507 209.85 85.9478 209.779 85.6587C209.143 85.966 208.959 86.9607 208.959 86.9698C208.948 87.0358 208.904 87.0791 208.852 87.0859C208.843 87.0859 208.832 87.0859 208.821 87.0814C208.756 87.0654 208.716 86.9903 208.729 86.9129C208.738 86.8628 208.933 85.7543 209.677 85.3878C209.637 85.3149 209.593 85.2535 209.537 85.2125C209.191 84.9507 208.64 85.381 208.635 85.3855C208.58 85.4288 208.508 85.4083 208.473 85.3422C208.44 85.2762 208.454 85.1875 208.508 85.1442Z" fill="#D27D57"/>
<path d="M190.431 138.667C190.431 138.667 190.744 139.791 193.026 141.23C195.31 142.671 201.449 143.729 201.449 143.729C201.449 143.729 202.223 143.012 202.69 141.867C202.69 141.867 202.963 143.003 203.867 143.729C203.867 143.729 210.655 143.996 218.016 138.667C218.016 138.667 218.493 138.316 217.839 136.907L190.431 138.667Z" fill="#E9C7B8"/>
<path d="M190.431 138.667C190.431 138.667 204.943 144.31 217.839 136.907C217.839 136.907 218.986 134.476 216.37 123.188C215.41 119.045 215.898 113.145 215.637 111.098C214.55 102.61 209.379 97.9232 206.983 96.719L205.915 97.3814C204.943 100.209 203.145 100.445 202.186 99.8808C201.039 99.207 201.414 97.5612 201.449 97.3859C199.851 97.9914 199.379 96.4959 199.379 96.4959C196.781 99.1797 192.35 107.331 191.474 113.803C190.673 119.719 189.652 132.628 190.431 138.667Z" fill="#513AAF"/>
<path d="M199.379 96.4962C199.379 96.4962 198.729 100.712 200.733 102.039C200.733 102.039 201.685 101.9 202.394 100.876C202.394 100.876 202.731 101.873 203.74 102.26C203.74 102.26 207.072 101.097 206.983 96.7193C206.983 96.7193 206.449 96.7193 205.915 97.3817C205.915 97.3817 204.727 99.1344 202.803 99.1071C201.549 99.0889 201.449 97.3862 201.449 97.3862C201.449 97.3862 200.794 96.6714 199.379 96.4962Z" fill="#E9C7B8"/>
<path d="M199.768 83.8352C199.726 83.8534 199.678 83.8489 199.637 83.8193C199.188 83.4687 198.694 84.1402 198.689 84.1471C198.634 84.2222 198.542 84.2267 198.481 84.1607C198.42 84.0924 198.414 83.9786 198.47 83.9035C198.698 83.5894 199.269 83.1023 199.794 83.5097C199.864 83.5643 199.884 83.6759 199.84 83.7601C199.823 83.7965 199.797 83.8216 199.768 83.8352Z" fill="#D27D57"/>
<path d="M202.304 84.1699C202.239 84.2018 202.166 84.1722 202.127 84.0971C201.985 83.8171 201.814 83.6487 201.617 83.5963C201.309 83.5167 201.024 83.7443 201.02 83.7465C200.954 83.8012 200.862 83.7807 200.816 83.6965C200.77 83.6122 200.788 83.5007 200.856 83.4438C200.871 83.4301 201.245 83.1274 201.679 83.2412C201.958 83.314 202.191 83.5371 202.377 83.9036C202.42 83.9901 202.399 84.1017 202.331 84.154C202.322 84.1608 202.313 84.1677 202.304 84.1699Z" fill="#D27D57"/>
<path d="M223.52 93.5982V93.6005C222.043 99.3936 219.631 105.419 215.799 111.098C215.43 111.645 215.049 112.184 214.655 112.724L206.983 96.7167C208.721 92.7969 219.911 83.7373 220.424 64.7029C220.441 64.1361 220.447 63.5601 220.443 62.9774C220.443 62.9774 222.664 64.1451 224.45 62.982C224.45 62.982 224.566 63.5101 224.728 64.4798C225.406 68.5657 226.859 80.4912 223.52 93.5982Z" fill="#513AAF"/>
<path d="M193.514 106.589C193.472 106.673 192.164 109.414 191.707 112.503C187.94 107.358 185.404 101.875 183.728 96.5005C183.824 96.7145 186.89 103.53 189.201 105.722C191.51 107.905 193.448 106.632 193.514 106.589Z" fill="#3A229B"/>
<path d="M223.52 93.6007C222.043 99.3939 219.631 105.419 215.799 111.099H215.637C215.543 107.862 213.664 104.315 213.664 104.315C217.592 107.905 223.52 93.6007 223.52 93.6007Z" fill="#3A229B"/>
<path d="M185.921 62.7564C185.918 63.3254 185.923 63.8854 185.938 64.4363C183.597 66.0115 181.594 64.525 181.594 64.525C181.776 63.3869 181.914 62.7609 181.914 62.7609C183.7 63.9241 185.921 62.7564 185.921 62.7564Z" fill="#3A229B"/>
<path d="M224.728 64.4803C222.924 66.4311 220.425 64.7034 220.425 64.7034C220.441 64.1366 220.447 63.5606 220.443 62.9779C220.443 62.9779 222.664 64.1457 224.45 62.9825C224.45 62.9825 224.566 63.5106 224.728 64.4803Z" fill="#3A229B"/>
<path d="M220.292 53.4062C220.292 53.4062 225.632 54.2189 224.284 61.8012L220.583 62.2041L220.292 53.4062Z" fill="#F19E79"/>
<path d="M187.194 51.2795C187.194 51.2795 181.249 51.2795 181.982 62.1602L186.326 60.4302L187.194 51.2795Z" fill="#F19E79"/>
<path d="M224.848 20.3151C230.651 34.4274 226.1 51.6848 214.683 58.8571C203.266 66.0318 189.306 60.4064 183.502 46.2916C177.7 32.1792 182.249 14.9242 193.668 7.75198C205.085 0.577274 219.044 6.20269 224.848 20.3151Z" fill="#F9B233"/>
<path d="M198.597 0.723465C196.305 1.32664 194.074 2.30157 191.969 3.62364C185.556 7.65386 180.795 14.5301 178.567 22.9845C176.336 31.4413 176.903 40.4619 180.162 48.3918C185.681 61.812 197.851 69.0058 209.753 65.884C212.046 65.2833 214.274 64.3084 216.38 62.9839C229.619 54.6649 234.915 34.5827 228.187 18.2181C222.666 4.79555 210.498 -2.39829 198.597 0.723465ZM199.374 5.25346C209.395 2.6241 219.985 8.49092 224.849 20.3157C230.651 34.4276 226.099 51.6835 214.683 58.8576C212.832 60.0196 210.912 60.8469 208.976 61.354C198.954 63.9834 188.366 58.119 183.502 46.2918C177.698 32.1799 182.249 14.924 193.668 7.74989C195.516 6.58785 197.434 5.76062 199.374 5.25346Z" fill="#F39200"/>
<path d="M218.601 33.076C214.288 21.6256 200.361 32.1246 197.01 27.4181C195.395 22.428 206.039 18.9179 207.448 19.3216C209.541 19.2495 208.593 14.8072 208.773 13.2816C208.523 9.50967 202.165 12.7915 200.124 13.6636C197.778 7.28973 197.788 8.93066 193.36 11.5422C191.385 12.7194 193.912 16.2776 194.311 17.7695C183.123 29.2608 191.667 41.3479 204.223 36.7615C209.619 35.6034 210.886 36.7591 211.415 38.042C212.678 44.2165 203.08 47.4238 199.426 47.359C198.641 47.3398 197.955 48.2143 197.994 49.1849L198.093 53.4566C198.414 57.3054 205.673 53.889 208.2 52.719C210.632 59.2202 210.468 57.7691 215.098 54.999C217.098 53.817 214.474 50.1171 214.083 48.6179C219.491 43.4765 220.299 37.2059 218.601 33.076Z" fill="#F39200"/>
<path d="M220.625 61.7557C219.524 60.4081 219.043 58.3799 219.259 56.5065C219.314 55.7827 220.222 55.8237 220.238 56.543C220.259 57.9315 221.052 59.2017 221.959 60.0257C222.793 60.836 221.439 62.5933 220.625 61.7557Z" fill="#F19E79"/>
<path d="M185.321 59.5447C187.153 58.7093 186.84 56.474 187.638 56.6584C188.8 58.0128 186.991 61.4022 185.807 62.1989C184.397 63.3325 183.643 59.5561 185.321 59.5447Z" fill="#F19E79"/>
<path d="M199.737 90.4414C199.626 90.4414 199.56 90.43 199.556 90.43C199.484 90.4186 199.433 90.339 199.442 90.2502C199.451 90.1614 199.517 90.0977 199.589 90.1091C199.641 90.1159 200.871 90.2821 201.481 88.9459C201.517 88.8685 201.597 88.8389 201.659 88.8844C201.724 88.9277 201.746 89.0256 201.709 89.1052C201.16 90.3094 200.147 90.4414 199.737 90.4414Z" fill="#D27D57"/>
</svg>
