<svg width="443" height="256" viewBox="0 0 443 256" fill="none" xmlns="http://www.w3.org/2000/svg">
<path d="M414.52 255.873L8.85541 256C3.44857 245.357 0.859845 236.519 0.182823 228.852C0.018697 226.973 -0.0316745 225.165 0.0186825 223.416C0.123127 219.858 0.647219 216.552 1.48091 213.419C5.3528 198.859 15.883 188.044 21.7841 173.058C22.739 170.637 23.5708 168.108 24.2348 165.438C25.089 161.995 25.6672 158.319 25.8611 154.334V154.332C25.9301 152.893 25.9525 151.416 25.919 149.891C25.919 149.889 25.919 149.889 25.919 149.889C25.8239 145.664 25.3109 141.104 24.274 136.135C24.1397 135.493 23.9979 134.845 23.845 134.189C23.7424 133.736 23.6342 133.28 23.5186 132.821C22.7054 129.514 22.0303 126.259 21.4875 123.062C21.191 121.301 20.9336 119.562 20.7154 117.837V117.835C20.5644 116.638 20.4319 115.45 20.3181 114.269C9.64806 3.10701 164.229 -37.3346 210.503 39.7758C246.262 99.3628 288.277 108.238 302.849 98.1156C337.064 74.3503 383.698 70.349 423.694 128.907C468.775 194.908 414.52 255.873 414.52 255.873Z" fill="#F9F7FF"/>
<path d="M286.981 168.11C286.981 201.51 259.902 228.587 226.501 228.587C193.102 228.587 166.024 201.51 166.024 168.11C166.024 134.707 193.102 107.632 226.501 107.632C259.902 107.632 286.981 134.707 286.981 168.11Z" fill="#927BEF"/>
<path d="M280.621 168.321C280.621 198.305 256.348 222.611 226.412 222.611C196.47 222.611 172.195 198.305 172.195 168.321C172.195 138.343 196.47 114.037 226.412 114.037C256.348 114.037 280.621 138.343 280.621 168.321Z" fill="#9074FF"/>
<path d="M279.507 168.223C279.507 197.592 255.735 221.399 226.412 221.399C197.078 221.399 173.306 197.592 173.306 168.223C173.306 138.854 197.078 115.045 226.412 115.045C255.735 115.045 279.507 138.854 279.507 168.223Z" fill="#AF9BFF"/>
<path d="M273.957 168.933C273.957 195.229 252.667 216.544 226.412 216.544C200.146 216.544 178.857 195.229 178.857 168.933C178.857 142.635 200.146 121.315 226.412 121.315C252.667 121.315 273.957 142.635 273.957 168.933Z" fill="#47C6B3"/>
<path d="M246.557 147.141C246.557 151.473 243.051 154.979 238.732 154.979C234.404 154.979 230.903 151.473 230.903 147.141C230.903 142.812 234.404 139.305 238.732 139.305C243.051 139.305 246.557 142.812 246.557 147.141Z" fill="#FFE7DC"/>
<path d="M242.642 147.372C242.642 149.54 240.892 151.29 238.732 151.29C236.565 151.29 234.817 149.54 234.817 147.372C234.817 145.205 236.565 143.459 238.732 143.459C240.892 143.459 242.642 145.205 242.642 147.372Z" fill="#E96D35"/>
<path d="M246.557 168.676C246.557 172.146 243.748 174.952 240.287 174.952C236.828 174.952 234.024 172.146 234.024 168.676C234.024 165.212 236.828 162.405 240.287 162.405C243.748 162.405 246.557 165.212 246.557 168.676Z" fill="#FFE7DC"/>
<path d="M243.422 168.86C243.422 170.595 242.02 172 240.287 172C238.559 172 237.161 170.595 237.161 168.86C237.161 167.127 238.559 165.728 240.287 165.728C242.02 165.728 243.422 167.127 243.422 168.86Z" fill="#E96D35"/>
<path d="M261.346 160.525C261.346 163.993 258.537 166.801 255.074 166.801C251.614 166.801 248.813 163.993 248.813 160.525C248.813 157.064 251.614 154.251 255.074 154.251C258.537 154.251 261.346 157.064 261.346 160.525Z" fill="#FFE7DC"/>
<path d="M258.21 160.713C258.21 162.444 256.811 163.847 255.074 163.847C253.35 163.847 251.947 162.444 251.947 160.713C251.947 158.976 253.35 157.572 255.074 157.572C256.811 157.572 258.21 158.976 258.21 160.713Z" fill="#E96D35"/>
<path d="M247.369 185.52C247.369 188.993 244.56 191.797 241.103 191.797C237.643 191.797 234.835 188.993 234.835 185.52C234.835 182.06 237.643 179.247 241.103 179.247C244.56 179.247 247.369 182.06 247.369 185.52Z" fill="#FFE7DC"/>
<path d="M244.235 185.706C244.235 187.44 242.835 188.845 241.103 188.845C239.37 188.845 237.969 187.44 237.969 185.706C237.969 183.973 239.37 182.57 241.103 182.57C242.835 182.57 244.235 183.973 244.235 185.706Z" fill="#E96D35"/>
<path d="M262.429 177.239C262.429 180.254 259.988 182.694 256.98 182.694C253.968 182.694 251.526 180.254 251.526 177.239C251.526 174.221 253.968 171.781 256.98 171.781C259.988 171.781 262.429 174.221 262.429 177.239Z" fill="#FFE7DC"/>
<path d="M259.704 177.399C259.704 178.904 258.483 180.127 256.98 180.127C255.468 180.127 254.251 178.904 254.251 177.399C254.251 175.887 255.468 174.667 256.98 174.667C258.483 174.667 259.704 175.887 259.704 177.399Z" fill="#E96D35"/>
<path d="M243.028 202.369C243.028 205.392 240.588 207.83 237.574 207.83C234.56 207.83 232.125 205.392 232.125 202.369C232.125 199.358 234.56 196.912 237.574 196.912C240.588 196.912 243.028 199.358 243.028 202.369Z" fill="#FFE7DC"/>
<path d="M240.301 202.532C240.301 204.036 239.085 205.261 237.574 205.261C236.068 205.261 234.852 204.036 234.852 202.532C234.852 201.023 236.068 199.8 237.574 199.8C239.085 199.8 240.301 201.023 240.301 202.532Z" fill="#E96D35"/>
<path d="M219.181 135.629C218.255 135.526 217.559 134.967 217.625 134.388C217.69 133.807 218.496 133.419 219.419 133.525C220.342 133.63 221.04 134.188 220.973 134.766C220.908 135.349 220.106 135.733 219.181 135.629Z" fill="#E7E1FF"/>
<path d="M219.134 134.648C219.134 134.648 218.63 133.743 216.734 134.4C216.734 134.4 213.644 135.743 212.134 133.414C212.134 133.414 212.702 136.015 216.604 135.061C217.312 134.887 218.04 134.102 219.134 134.648Z" fill="#E7E1FF"/>
<path d="M222.566 138.951C221.776 139.041 221.182 139.517 221.238 140.017C221.292 140.511 221.981 140.838 222.767 140.751C223.558 140.659 224.151 140.185 224.097 139.689C224.04 139.192 223.353 138.864 222.566 138.951Z" fill="#E7E1FF"/>
<path d="M222.527 139.792C222.527 139.792 222.097 140.566 220.478 140.002C220.478 140.002 217.839 138.856 216.549 140.845C216.549 140.845 217.033 138.627 220.364 139.438C220.971 139.588 221.592 140.259 222.527 139.792Z" fill="#E7E1FF"/>
<path d="M215.726 143.723C214.88 143.626 214.244 143.119 214.303 142.587C214.363 142.057 215.099 141.704 215.941 141.801C216.785 141.896 217.425 142.404 217.358 142.935C217.3 143.466 216.569 143.818 215.726 143.723Z" fill="#E7E1FF"/>
<path d="M215.682 142.827C215.682 142.827 215.222 141.999 213.49 142.6C213.49 142.6 210.665 143.823 209.289 141.698C209.289 141.698 209.806 144.076 213.372 143.206C214.017 143.045 214.685 142.326 215.682 142.827Z" fill="#E7E1FF"/>
<path d="M219.708 153.895C218.863 153.798 218.227 153.291 218.288 152.759C218.349 152.231 219.082 151.876 219.923 151.972C220.768 152.069 221.407 152.576 221.346 153.107C221.286 153.638 220.552 153.99 219.708 153.895Z" fill="#E7E1FF"/>
<path d="M219.666 152.997C219.666 152.997 219.206 152.169 217.474 152.771C217.474 152.771 214.65 153.998 213.273 151.869C213.273 151.869 213.79 154.246 217.354 153.378C218.001 153.217 218.666 152.497 219.666 152.997Z" fill="#E7E1FF"/>
<path d="M215.854 146.709C215.065 146.798 214.471 147.271 214.526 147.767C214.583 148.263 215.269 148.595 216.059 148.505C216.847 148.415 217.44 147.94 217.384 147.444C217.331 146.946 216.643 146.619 215.854 146.709Z" fill="#E7E1FF"/>
<path d="M215.817 147.546C215.817 147.546 215.385 148.318 213.769 147.758C213.769 147.758 211.127 146.61 209.843 148.6C209.843 148.6 210.327 146.377 213.654 147.192C214.258 147.342 214.883 148.013 215.817 147.546Z" fill="#E7E1FF"/>
<path d="M222.628 148.837C221.838 148.924 221.241 149.401 221.298 149.896C221.353 150.392 222.043 150.724 222.829 150.634C223.619 150.542 224.212 150.069 224.156 149.57C224.099 149.074 223.414 148.748 222.628 148.837Z" fill="#E7E1FF"/>
<path d="M222.587 149.672C222.587 149.672 222.158 150.447 220.54 149.884C220.54 149.884 217.899 148.738 216.613 150.727C216.613 150.727 217.095 148.506 220.426 149.32C221.029 149.47 221.654 150.14 222.587 149.672Z" fill="#E7E1FF"/>
<path d="M220.797 161.39C219.872 161.288 219.177 160.731 219.246 160.15C219.309 159.57 220.113 159.185 221.038 159.286C221.961 159.392 222.656 159.949 222.591 160.53C222.527 161.113 221.722 161.497 220.797 161.39Z" fill="#E7E1FF"/>
<path d="M220.751 160.412C220.751 160.412 220.249 159.505 218.356 160.164C218.356 160.164 215.262 161.507 213.754 159.176C213.754 159.176 214.32 161.778 218.223 160.824C218.929 160.65 219.659 159.866 220.751 160.412Z" fill="#E7E1FF"/>
<path d="M224.183 164.715C223.394 164.803 222.799 165.28 222.857 165.776C222.91 166.272 223.599 166.601 224.385 166.512C225.176 166.42 225.771 165.947 225.712 165.448C225.659 164.955 224.971 164.627 224.183 164.715Z" fill="#E7E1FF"/>
<path d="M224.145 165.552C224.145 165.552 223.714 166.33 222.097 165.765C222.097 165.765 219.457 164.617 218.166 166.606C218.166 166.606 218.652 164.387 221.985 165.199C222.587 165.349 223.209 166.019 224.145 165.552Z" fill="#E7E1FF"/>
<path d="M217.344 169.485C216.497 169.39 215.862 168.88 215.925 168.352C215.98 167.819 216.716 167.468 217.559 167.563C218.403 167.658 219.04 168.167 218.977 168.698C218.92 169.229 218.183 169.582 217.344 169.485Z" fill="#E7E1FF"/>
<path d="M217.3 168.588C217.3 168.588 216.84 167.759 215.107 168.361C215.107 168.361 212.282 169.586 210.906 167.459C210.906 167.459 211.423 169.836 214.988 168.967C215.634 168.806 216.303 168.087 217.3 168.588Z" fill="#E7E1FF"/>
<path d="M221.327 179.658C220.48 179.563 219.844 179.055 219.905 178.521C219.965 177.993 220.701 177.64 221.543 177.735C222.388 177.831 223.024 178.34 222.964 178.87C222.904 179.402 222.169 179.753 221.327 179.658Z" fill="#E7E1FF"/>
<path d="M221.285 178.759C221.285 178.759 220.823 177.934 219.091 178.532C219.091 178.532 216.267 179.761 214.891 177.633C214.891 177.633 215.407 180.01 218.973 179.138C219.619 178.979 220.284 178.261 221.285 178.759Z" fill="#E7E1FF"/>
<path d="M217.473 172.47C216.68 172.559 216.089 173.035 216.145 173.531C216.201 174.026 216.887 174.358 217.677 174.267C218.463 174.178 219.058 173.703 219.001 173.207C218.947 172.709 218.261 172.383 217.473 172.47Z" fill="#E7E1FF"/>
<path d="M217.434 173.307C217.434 173.307 217.003 174.081 215.385 173.52C215.385 173.52 212.746 172.374 211.46 174.364C211.46 174.364 211.941 172.141 215.273 172.954C215.877 173.105 216.5 173.776 217.434 173.307Z" fill="#E7E1FF"/>
<path d="M224.243 174.598C223.454 174.687 222.86 175.161 222.917 175.658C222.972 176.153 223.659 176.485 224.446 176.393C225.235 176.303 225.83 175.829 225.774 175.332C225.718 174.838 225.033 174.509 224.243 174.598Z" fill="#E7E1FF"/>
<path d="M224.204 175.434C224.204 175.434 223.775 176.211 222.158 175.647C222.158 175.647 219.517 174.503 218.23 176.491C218.23 176.491 218.714 174.269 222.044 175.084C222.648 175.23 223.269 175.903 224.204 175.434Z" fill="#E7E1FF"/>
<path d="M226.552 187.902C225.625 187.798 224.929 187.242 224.997 186.66C225.059 186.079 225.868 185.693 226.79 185.796C227.716 185.904 228.411 186.46 228.344 187.04C228.279 187.624 227.478 188.008 226.552 187.902Z" fill="#E7E1FF"/>
<path d="M226.505 186.922C226.505 186.922 226.001 186.015 224.105 186.673C224.105 186.673 221.015 188.015 219.505 185.687C219.505 185.687 220.071 188.288 223.974 187.335C224.68 187.16 225.413 186.376 226.505 186.922Z" fill="#E7E1FF"/>
<path d="M229.932 191.226C229.143 191.315 228.552 191.791 228.61 192.286C228.664 192.782 229.349 193.114 230.136 193.022C230.927 192.932 231.522 192.459 231.464 191.959C231.409 191.466 230.723 191.137 229.932 191.226Z" fill="#E7E1FF"/>
<path d="M229.899 192.063C229.899 192.063 229.466 192.837 227.849 192.275C227.849 192.275 225.211 191.127 223.923 193.118C223.923 193.118 224.406 190.897 227.737 191.71C228.338 191.86 228.962 192.528 229.899 192.063Z" fill="#E7E1FF"/>
<path d="M223.096 195.995C222.249 195.899 221.612 195.39 221.674 194.86C221.733 194.33 222.469 193.976 223.313 194.071C224.156 194.17 224.793 194.676 224.731 195.209C224.673 195.739 223.938 196.09 223.096 195.995Z" fill="#E7E1FF"/>
<path d="M223.053 195.096C223.053 195.096 222.593 194.27 220.859 194.87C220.859 194.87 218.037 196.097 216.659 193.968C216.659 193.968 217.174 196.346 220.741 195.476C221.386 195.316 222.053 194.597 223.053 195.096Z" fill="#E7E1FF"/>
<path d="M227.081 206.166C226.234 206.073 225.598 205.564 225.659 205.031C225.715 204.501 226.45 204.149 227.295 204.244C228.141 204.341 228.775 204.85 228.715 205.379C228.658 205.911 227.92 206.264 227.081 206.166Z" fill="#E7E1FF"/>
<path d="M227.036 205.268C227.036 205.268 226.576 204.443 224.844 205.044C224.844 205.044 222.021 206.27 220.644 204.143C220.644 204.143 221.159 206.52 224.723 205.647C225.369 205.488 226.034 204.77 227.036 205.268Z" fill="#E7E1FF"/>
<path d="M223.227 198.982C222.432 199.068 221.84 199.544 221.897 200.042C221.952 200.536 222.637 200.867 223.428 200.778C224.216 200.687 224.81 200.213 224.752 199.714C224.698 199.219 224.013 198.892 223.227 198.982Z" fill="#E7E1FF"/>
<path d="M223.186 199.82C223.186 199.82 222.756 200.59 221.14 200.032C221.14 200.032 218.499 198.885 217.21 200.872C217.21 200.872 217.693 198.653 221.025 199.466C221.627 199.614 222.253 200.286 223.186 199.82Z" fill="#E7E1FF"/>
<path d="M229.997 201.108C229.206 201.197 228.613 201.673 228.668 202.168C228.726 202.663 229.414 202.995 230.197 202.904C230.99 202.814 231.583 202.34 231.526 201.843C231.473 201.347 230.784 201.017 229.997 201.108Z" fill="#E7E1FF"/>
<path d="M229.956 201.946C229.956 201.946 229.526 202.722 227.909 202.158C227.909 202.158 225.273 201.013 223.983 203C223.983 203 224.468 200.781 227.799 201.595C228.4 201.742 229.024 202.415 229.956 201.946Z" fill="#E7E1FF"/>
<path d="M202.151 145.217C201.222 145.112 200.528 144.556 200.594 143.976C200.658 143.396 201.464 143.008 202.387 143.113C203.312 143.22 204.007 143.776 203.941 144.358C203.877 144.939 203.072 145.323 202.151 145.217Z" fill="#E7E1FF"/>
<path d="M202.103 144.236C202.103 144.236 201.601 143.332 199.707 143.988C199.707 143.988 196.611 145.331 195.104 143.001C195.104 143.001 195.668 145.604 199.573 144.65C200.28 144.474 201.01 143.691 202.103 144.236Z" fill="#E7E1FF"/>
<path d="M205.534 148.54C204.744 148.632 204.151 149.106 204.209 149.602C204.26 150.097 204.949 150.427 205.735 150.337C206.527 150.247 207.12 149.772 207.065 149.275C207.007 148.781 206.32 148.454 205.534 148.54Z" fill="#E7E1FF"/>
<path d="M205.495 149.375C205.495 149.375 205.064 150.152 203.446 149.59C203.446 149.59 200.806 148.442 199.518 150.431C199.518 150.431 200.003 148.211 203.336 149.025C203.939 149.176 204.558 149.844 205.495 149.375Z" fill="#E7E1FF"/>
<path d="M198.692 153.311C197.847 153.216 197.212 152.707 197.275 152.176C197.331 151.644 198.068 151.292 198.91 151.388C199.753 151.485 200.392 151.991 200.329 152.526C200.269 153.054 199.536 153.407 198.692 153.311Z" fill="#E7E1FF"/>
<path d="M198.652 152.414C198.652 152.414 198.19 151.585 196.459 152.187C196.459 152.187 193.633 153.412 192.257 151.285C192.257 151.285 192.773 153.662 196.339 152.792C196.987 152.631 197.653 151.912 198.652 152.414Z" fill="#E7E1FF"/>
<path d="M202.676 163.481C201.832 163.387 201.195 162.879 201.259 162.348C201.316 161.818 202.053 161.464 202.893 161.561C203.737 161.657 204.374 162.166 204.315 162.695C204.255 163.227 203.52 163.578 202.676 163.481Z" fill="#E7E1FF"/>
<path d="M202.636 162.585C202.636 162.585 202.173 161.758 200.443 162.359C200.443 162.359 197.618 163.587 196.24 161.458C196.24 161.458 196.758 163.835 200.323 162.963C200.97 162.805 201.633 162.086 202.636 162.585Z" fill="#E7E1FF"/>
<path d="M198.822 156.297C198.031 156.383 197.441 156.858 197.496 157.356C197.551 157.851 198.238 158.181 199.027 158.093C199.813 158.004 200.41 157.529 200.352 157.032C200.297 156.534 199.613 156.205 198.822 156.297Z" fill="#E7E1FF"/>
<path d="M198.784 157.134C198.784 157.134 198.353 157.906 196.736 157.347C196.736 157.347 194.094 156.199 192.81 158.188C192.81 158.188 193.294 155.965 196.623 156.779C197.228 156.931 197.848 157.601 198.784 157.134Z" fill="#E7E1FF"/>
<path d="M205.595 158.424C204.804 158.513 204.21 158.99 204.267 159.485C204.322 159.98 205.011 160.31 205.797 160.222C206.588 160.129 207.182 159.656 207.123 159.158C207.067 158.663 206.382 158.335 205.595 158.424Z" fill="#E7E1FF"/>
<path d="M205.556 159.261C205.556 159.261 205.125 160.037 203.509 159.472C203.509 159.472 200.867 158.328 199.58 160.314C199.58 160.314 200.065 158.095 203.397 158.91C203.999 159.057 204.62 159.728 205.556 159.261Z" fill="#E7E1FF"/>
<path d="M205 177.558C204.073 177.456 203.376 176.899 203.445 176.317C203.506 175.736 204.314 175.351 205.238 175.454C206.161 175.561 206.859 176.117 206.789 176.697C206.725 177.281 205.923 177.663 205 177.558Z" fill="#E7E1FF"/>
<path d="M204.953 176.578C204.953 176.578 204.449 175.675 202.553 176.33C202.553 176.33 199.46 177.672 197.953 175.343C197.953 175.343 198.519 177.948 202.424 176.994C203.129 176.818 203.86 176.033 204.953 176.578Z" fill="#E7E1FF"/>
<path d="M208.384 180.882C207.594 180.973 206.999 181.45 207.057 181.944C207.111 182.44 207.799 182.771 208.587 182.68C209.373 182.588 209.967 182.116 209.912 181.616C209.858 181.122 209.17 180.795 208.384 180.882Z" fill="#E7E1FF"/>
<path d="M208.345 181.719C208.345 181.719 207.911 182.497 206.296 181.932C206.296 181.932 203.658 180.786 202.368 182.776C202.368 182.776 202.853 180.555 206.183 181.369C206.786 181.518 207.41 182.187 208.345 181.719Z" fill="#E7E1FF"/>
<path d="M201.542 185.654C200.696 185.557 200.06 185.046 200.121 184.519C200.182 183.989 200.918 183.635 201.759 183.729C202.604 183.826 203.241 184.335 203.177 184.865C203.118 185.398 202.387 185.749 201.542 185.654Z" fill="#E7E1FF"/>
<path d="M201.5 184.756C201.5 184.756 201.04 183.929 199.309 184.53C199.309 184.53 196.485 185.757 195.105 183.626C195.105 183.626 195.622 186.006 199.189 185.137C199.832 184.974 200.5 184.255 201.5 184.756Z" fill="#E7E1FF"/>
<path d="M205.527 195.826C204.681 195.731 204.042 195.223 204.105 194.688C204.165 194.159 204.899 193.808 205.743 193.903C206.588 194 207.224 194.508 207.162 195.038C207.103 195.57 206.371 195.921 205.527 195.826Z" fill="#E7E1FF"/>
<path d="M205.484 194.929C205.484 194.929 205.021 194.101 203.291 194.702C203.291 194.702 200.468 195.928 199.089 193.8C199.089 193.8 199.608 196.177 203.169 195.306C203.816 195.146 204.484 194.427 205.484 194.929Z" fill="#E7E1FF"/>
<path d="M201.673 188.641C200.882 188.727 200.287 189.202 200.345 189.698C200.398 190.193 201.085 190.525 201.874 190.437C202.665 190.347 203.257 189.872 203.199 189.374C203.146 188.878 202.459 188.55 201.673 188.641Z" fill="#E7E1FF"/>
<path d="M201.633 189.478C201.633 189.478 201.205 190.25 199.587 189.689C199.587 189.689 196.946 188.542 195.659 190.532C195.659 190.532 196.142 188.31 199.472 189.123C200.075 189.273 200.698 189.944 201.633 189.478Z" fill="#E7E1FF"/>
<path d="M208.447 190.767C207.655 190.855 207.06 191.33 207.118 191.827C207.172 192.322 207.862 192.654 208.648 192.563C209.438 192.472 210.031 191.998 209.973 191.501C209.919 191.005 209.232 190.677 208.447 190.767Z" fill="#E7E1FF"/>
<path d="M208.408 191.604C208.408 191.604 207.975 192.379 206.355 191.814C206.355 191.814 203.718 190.673 202.43 192.657C202.43 192.657 202.913 190.437 206.245 191.25C206.848 191.4 207.472 192.072 208.408 191.604Z" fill="#E7E1FF"/>
<path d="M59.1012 143.404C59.1012 143.404 77.1499 129.632 87.6834 122.071L121.961 99.1614C121.961 99.1614 129.736 93.1617 136.963 100.472L158.605 117.016C158.605 117.016 168.865 122.92 176.699 136.208L168.194 139.229C168.194 139.229 162.806 137.711 156.977 128.458C156.977 128.458 145.089 122.705 143.314 121.055C143.314 121.055 133.642 119.765 132.988 121.094C132.988 121.094 137.395 129.355 136.761 134.157C136.761 134.157 144.814 137.508 146.736 138.94C146.736 138.94 164.26 140.725 166.247 147.195C166.247 147.195 170.867 155.341 160.036 155.469C160.036 155.469 150.543 154.519 148.383 154.16C148.383 154.16 133.516 148.656 130.647 149.009C130.647 149.009 115.432 152.26 108.873 151.542C108.873 151.542 90.3918 158.019 86.8625 167.932C86.8625 167.932 74.6129 171.268 73.7469 172.694C73.7469 172.694 70.7149 172.277 59.1012 143.404Z" fill="#E6916A"/>
<path d="M133.855 98.0969C133.855 98.0969 159.276 98.903 161.348 100.573C161.348 100.573 171.784 107.645 178.671 118.313C178.671 118.313 187.608 131.604 189.268 137.004C189.268 137.004 183.686 144.917 173.723 125.86C173.723 125.86 164.075 117.72 161.759 113.633C161.759 113.633 155.126 114.984 153.388 113.589L133.855 98.0969Z" fill="#E6916A"/>
<path d="M138.751 98.281C138.751 98.281 144.151 93.4201 150.421 91.6645C150.421 91.6645 162.727 94.4056 167.313 97.1917C167.313 97.1917 183.464 107.033 185.107 108.958C186.755 110.872 187.547 115.921 181.451 114.832L170.767 108.617L138.751 98.281Z" fill="#E6916A"/>
<path d="M149.248 110.316L153.755 113.817C153.755 113.817 159.388 114.884 161.759 113.633C161.759 113.633 167.18 120.75 173.444 125.619C173.444 125.619 181.08 140.537 186.644 138.567C186.644 138.567 176.759 130.89 174.545 124.024C174.545 124.024 162.959 114.761 161.601 110.558C161.601 110.558 155.341 113.319 149.248 110.316Z" fill="#CF8361"/>
<path d="M164.581 154.678L148.729 152.065L131.979 146.673C131.979 146.673 112.59 148.994 108.977 147.535C108.977 147.535 93.1553 138.194 85.4463 149.854C85.4463 149.854 85.5624 148.577 85.1869 150.376C85.1869 150.376 95.6911 143.337 108.873 151.541C108.873 151.541 122.387 151.475 130.647 149.008C130.647 149.008 144.637 152.483 148.383 154.159C148.383 154.159 162.408 156.564 164.581 154.678Z" fill="#CF8361"/>
<path d="M138.751 98.2813C138.751 98.2813 158.38 99.6106 160.489 100.214L153.426 97.7874C153.426 97.7874 145.213 96.2957 138.751 98.2813Z" fill="#351B9C"/>
<path d="M77.0799 129.721C77.0799 129.721 77.1498 129.632 87.6833 122.071L121.961 99.1614C121.961 99.1614 129.736 93.1618 136.963 100.472L158.605 117.016C158.605 117.016 168.864 122.92 176.699 136.208L168.194 139.229C168.194 139.229 162.806 137.711 156.977 128.459C156.977 128.459 145.089 122.705 143.314 121.055C143.314 121.055 133.642 119.765 132.988 121.094C132.988 121.094 137.395 129.355 136.761 134.157C136.761 134.157 144.814 137.508 146.736 138.94C146.736 138.94 164.26 140.725 166.247 147.195C166.247 147.195 170.867 155.341 160.036 155.469C160.036 155.469 150.543 154.519 148.383 154.16C148.383 154.16 133.516 148.656 130.647 149.009C130.647 149.009 115.432 152.26 108.873 151.542C108.873 151.542 98.2597 155.608 92.2443 161.357C92.2443 161.357 93.1125 159.932 92.2443 161.357C92.2443 161.357 76.2951 148.025 77.0799 129.721Z" fill="#7C64DB"/>
<path d="M133.855 98.0969C133.855 98.0969 159.276 98.903 161.348 100.573C161.348 100.573 171.784 107.645 178.671 118.313C178.671 118.313 187.608 131.604 189.268 137.004C189.268 137.004 183.686 144.917 173.723 125.86C173.723 125.86 164.075 117.72 161.759 113.633C161.759 113.633 155.126 114.984 153.388 113.589L133.855 98.0969Z" fill="#7C64DB"/>
<path d="M138.751 98.281C138.751 98.281 144.151 93.4201 150.421 91.6645C150.421 91.6645 162.727 94.4056 167.313 97.1917C167.313 97.1917 183.464 107.033 185.107 108.958C186.755 110.872 187.547 115.921 181.451 114.832L170.767 108.617L138.751 98.281Z" fill="#7C64DB"/>
<path d="M149.248 110.316L153.755 113.817C153.755 113.817 159.388 114.884 161.759 113.633C161.759 113.633 167.18 120.75 173.444 125.619C173.444 125.619 181.08 140.537 186.644 138.567C186.644 138.567 176.759 130.89 174.545 124.024C174.545 124.024 162.959 114.761 161.601 110.558C161.601 110.558 155.341 113.319 149.248 110.316Z" fill="#533BB5"/>
<path d="M164.581 154.678L148.729 152.065L131.979 146.673C131.979 146.673 112.59 148.994 108.977 147.535C108.977 147.535 94.461 141.854 86.7519 153.514C86.7519 153.514 87.1319 151.714 86.7519 153.514C86.7519 153.514 95.6911 143.337 108.873 151.541C108.873 151.541 122.387 151.475 130.647 149.008C130.647 149.008 144.637 152.483 148.382 154.159C148.382 154.159 162.408 156.564 164.581 154.678Z" fill="#533BB5"/>
<path d="M138.751 98.2813C138.751 98.2813 158.38 99.6106 160.489 100.214L153.426 97.7874C153.426 97.7874 145.213 96.2957 138.751 98.2813Z" fill="#533BB5"/>
<path d="M86.5028 168.044L69.6922 132.701L23.04 168.044L8.32 195.2L0 221.44L8.32 255.36L86.5028 168.044Z" fill="#31C5A1"/>
<path d="M79.4601 153.238L86.5028 168.044L8.32 255.36L1.28 238.72L0 222.08L79.4601 153.238Z" fill="#19A482"/>
<path d="M168.194 139.228C168.194 139.228 178.554 144.778 176.698 136.207C176.698 136.207 168.981 136.378 168.194 139.228Z" fill="#7C64DB"/>
<path d="M218.55 168.698L221.717 171.396L195.709 158.348L196.153 157.464L218.55 168.698Z" fill="#03CF9D"/>
<path d="M197.358 155.667L195.063 160.238L180.371 152.869L182.667 148.3L197.358 155.667Z" fill="#4B4C4C"/>
<path d="M183.944 148.755L181.281 154.063L106.63 116.612L109.289 111.307L183.944 148.755Z" fill="#4B4C4C"/>
<path d="M146.461 138.748L147.325 137.028L146.461 138.748Z" fill="#A3F3DE"/>
<path d="M146.437 138.797L146.461 138.747L146.437 138.797Z" fill="#684FCD"/>
<path d="M149.989 131.723L134.302 123.853C133.582 122.207 132.988 121.094 132.988 121.094C133.025 121.018 133.092 120.951 133.183 120.891L150.951 129.805L149.989 131.723Z" fill="#A3F3DE"/>
<path d="M134.302 123.853L119.647 116.502L120.609 114.583L133.183 120.891C133.092 120.95 133.025 121.017 132.988 121.093C132.988 121.093 133.582 122.206 134.302 123.853Z" fill="#684FCD"/>
<path d="M147.325 137.028L148.36 134.964L118.02 119.746L119.647 116.502L134.302 123.853L149.989 131.722L147.325 137.028Z" fill="#44545A"/>
<path d="M116.098 123.579L116.984 121.807L116.986 121.808L116.098 123.579Z" fill="#836DDB"/>
<path d="M116.986 121.808L116.984 121.806L118.015 119.744L118.02 119.746L116.986 121.808Z" fill="#5D5E5E"/>
<path d="M146.461 138.748C145.118 137.867 142.063 136.46 139.737 135.436L136.784 133.955C136.811 133.697 136.823 133.431 136.823 133.157C136.823 132.694 136.789 132.209 136.726 131.711L147.325 137.028L146.461 138.748Z" fill="#B3FEEC"/>
<path d="M146.438 138.797L139.737 135.436C142.063 136.459 145.118 137.867 146.461 138.747L146.438 138.797ZM136.784 133.955L116.098 123.578L116.986 121.807L136.726 131.71C136.789 132.209 136.823 132.693 136.823 133.157C136.823 133.431 136.811 133.697 136.784 133.955Z" fill="#735CCD"/>
<path d="M147.325 137.028L136.726 131.711L116.986 121.808L118.02 119.746L148.36 134.964L147.325 137.028Z" fill="#57656B"/>
<path d="M184.98 146.69L180.247 156.124L146.05 138.971L150.782 129.538L184.98 146.69Z" fill="#4B4C4C"/>
<path d="M184.98 146.69L183.056 150.525L148.862 133.369L150.782 129.538L184.98 146.69Z" fill="#353535"/>
<path d="M122.579 113.357L116.216 126.038L114.051 124.952L120.409 112.271L122.579 113.357Z" fill="#4B4C4C"/>
<path d="M398.101 142.619C398.101 142.619 380.052 128.847 369.519 121.287L335.241 98.3748C335.241 98.3748 327.465 92.3763 320.238 99.6873L298.597 116.229C298.597 116.229 288.337 122.134 280.504 135.425L289.009 138.442C289.009 138.442 294.394 136.929 300.225 127.671C300.225 127.671 312.112 121.919 313.888 120.27C313.888 120.27 323.562 118.98 324.214 120.309C324.214 120.309 319.807 128.567 320.441 133.373C320.441 133.373 312.389 136.723 310.466 138.156C310.466 138.156 292.941 139.94 290.953 146.409C290.953 146.409 286.337 154.556 297.166 154.686C297.166 154.686 306.657 153.735 308.819 153.375C308.819 153.375 323.687 147.871 326.555 148.224C326.555 148.224 341.769 151.474 348.328 150.758C348.328 150.758 366.812 157.233 370.34 167.146C370.34 167.146 382.589 170.484 383.457 171.911C383.457 171.911 386.487 171.493 398.101 142.619Z" fill="#E6916A"/>
<path d="M323.348 97.3134C323.348 97.3134 297.925 98.1196 295.854 99.7907C295.854 99.7907 285.418 106.86 278.53 117.528C278.53 117.528 269.595 130.821 267.933 136.221C267.933 136.221 273.518 144.133 283.478 125.078C283.478 125.078 293.127 116.938 295.443 112.852C295.443 112.852 302.076 114.198 303.815 112.806L323.348 97.3134Z" fill="#E6916A"/>
<path d="M318.45 97.4976C318.45 97.4976 313.053 92.6357 306.781 90.8801C306.781 90.8801 294.474 93.6211 289.889 96.4073C289.889 96.4073 273.738 106.25 272.097 108.173C270.446 110.089 269.657 115.136 275.752 114.048L286.436 107.833L318.45 97.4976Z" fill="#E6916A"/>
<path d="M307.954 109.532L303.447 113.032C303.447 113.032 297.814 114.099 295.443 112.852C295.443 112.852 290.024 119.966 283.759 124.838C283.759 124.838 276.12 139.753 270.559 137.782C270.559 137.782 280.442 130.108 282.656 123.24C282.656 123.24 294.244 113.978 295.602 109.776C295.602 109.776 301.862 112.537 307.954 109.532Z" fill="#CF8361"/>
<path d="M292.622 153.895L308.474 151.282L325.225 145.891C325.225 145.891 344.612 148.209 348.224 146.751C348.224 146.751 364.048 137.407 371.755 149.069C371.755 149.069 371.64 147.793 372.017 149.591C372.017 149.591 361.51 142.554 348.328 150.758C348.328 150.758 334.817 150.692 326.555 148.224C326.555 148.224 312.566 151.701 308.819 153.375C308.819 153.375 294.793 155.777 292.622 153.895Z" fill="#CF8361"/>
<path d="M318.45 97.4972C318.45 97.4972 298.821 98.8255 296.714 99.4287L303.779 97.0011C303.779 97.0011 311.99 95.5105 318.45 97.4972Z" fill="#351B9C"/>
<path d="M380.122 128.938C380.122 128.938 380.052 128.847 369.519 121.287L335.241 98.3749C335.241 98.3749 327.465 92.3763 320.238 99.6873L298.597 116.23C298.597 116.23 288.337 122.135 280.504 135.425L289.009 138.442C289.009 138.442 294.394 136.929 300.225 127.671C300.225 127.671 312.112 121.919 313.888 120.27C313.888 120.27 323.562 118.98 324.214 120.309C324.214 120.309 319.807 128.567 320.441 133.373C320.441 133.373 312.389 136.723 310.466 138.156C310.466 138.156 292.941 139.94 290.953 146.41C290.953 146.41 286.337 154.556 297.166 154.686C297.166 154.686 306.657 153.735 308.819 153.375C308.819 153.375 323.687 147.871 326.555 148.224C326.555 148.224 341.769 151.474 348.328 150.758C348.328 150.758 358.944 154.823 364.956 160.574C364.956 160.574 364.087 159.149 364.956 160.574C364.956 160.574 380.906 147.238 380.122 128.938Z" fill="#7C64DB"/>
<path d="M323.348 97.3134C323.348 97.3134 297.925 98.1196 295.854 99.7907C295.854 99.7907 285.418 106.86 278.53 117.528C278.53 117.528 269.595 130.821 267.933 136.221C267.933 136.221 273.518 144.133 283.478 125.078C283.478 125.078 293.127 116.938 295.443 112.852C295.443 112.852 302.076 114.198 303.815 112.806L323.348 97.3134Z" fill="#7C64DB"/>
<path d="M318.45 97.4976C318.45 97.4976 313.053 92.6357 306.781 90.8801C306.781 90.8801 294.474 93.6211 289.889 96.4073C289.889 96.4073 273.738 106.25 272.097 108.173C270.446 110.089 269.657 115.136 275.752 114.048L286.436 107.833L318.45 97.4976Z" fill="#7C64DB"/>
<path d="M307.954 109.532L303.447 113.032C303.447 113.032 297.814 114.099 295.443 112.852C295.443 112.852 290.024 119.966 283.759 124.838C283.759 124.838 276.12 139.753 270.559 137.782C270.559 137.782 280.442 130.108 282.656 123.24C282.656 123.24 294.244 113.978 295.602 109.776C295.602 109.776 301.862 112.537 307.954 109.532Z" fill="#533BB5"/>
<path d="M292.622 153.895L308.474 151.282L325.225 145.891C325.225 145.891 344.612 148.209 348.224 146.751C348.224 146.751 362.742 141.069 370.448 152.728C370.448 152.728 370.069 150.931 370.448 152.728C370.448 152.728 361.51 142.554 348.328 150.758C348.328 150.758 334.817 150.692 326.555 148.224C326.555 148.224 312.566 151.701 308.819 153.375C308.819 153.375 294.793 155.777 292.622 153.895Z" fill="#533BB5"/>
<path d="M318.45 97.4972C318.45 97.4972 298.821 98.8255 296.714 99.4287L303.779 97.0011C303.779 97.0011 311.99 95.5105 318.45 97.4972Z" fill="#533BB5"/>
<path d="M370.698 167.261L387.51 131.915L440.52 166.916L442.24 188.16L440.52 210.56L431.36 229.76L420.48 246.4L370.698 167.261Z" fill="#31C5A1"/>
<path d="M377.741 152.452L370.698 167.261L420.48 246.4L431.36 229.76L439.68 211.2L377.741 152.452Z" fill="#19A482"/>
<path d="M289.009 138.443C289.009 138.443 278.649 143.994 280.504 135.425C280.504 135.425 288.221 135.593 289.009 138.443Z" fill="#7C64DB"/>
<path d="M254.49 182.985L241.207 191.629L339.431 91.2998L341.89 93.7105L254.49 182.985Z" fill="#A5A5A9"/>
<path d="M286.752 152.493L281.833 147.675L300.048 129.068L304.967 133.884L286.752 152.493Z" fill="#1DA886"/>
<path d="M284.941 151.487L283.712 150.284V150.283L284.941 151.487Z" fill="#C8FFF1"/>
<path d="M265.494 168.892L264.418 167.838L265.495 168.892H265.494ZM283.712 150.285L282.636 149.232L282.637 149.231L283.712 150.284V150.285Z" fill="#AEAEB2"/>
<path d="M266.725 170.098L265.495 168.892L264.418 167.838L282.636 149.232L283.712 150.286L284.941 151.489L278.048 158.531L270.015 166.736L266.725 170.098Z" fill="#39B89D"/>
</svg>
