<svg width="297" height="326" viewBox="0 0 297 326" fill="none" xmlns="http://www.w3.org/2000/svg">
<path d="M37.9375 324.086C-6.05609 311.879 -14.671 237.906 27.4144 187.761C60.7556 148.036 -18.0246 47.5132 70.8554 8.24863C155.484 -29.1363 283.719 64.7411 296.166 205.267C304.133 295.207 252.392 324.086 252.392 324.086H37.9375Z" fill="#F9F7FF"/>
<path d="M181.295 78.7072C181.295 78.7072 189.136 88.7516 197.921 90.3253C197.921 90.3253 220.195 95.0391 217.055 110.114C215.406 118.054 194.894 126.232 186.943 98.1815C185.772 94.0495 187.567 87.1854 180.038 82.4716L181.295 78.7072Z" fill="#FFC8AF"/>
<path d="M180.768 79.5551C180.768 79.5551 189.795 90.3499 198.538 92.6841C198.538 92.6841 217.3 96.6223 215.288 108.58C214.578 112.801 209.315 119.083 198.971 113.684C194.698 111.453 190.377 107.561 188.05 94.2855C188.05 94.2855 186.011 84.2235 180.038 81.0156L180.768 79.5551Z" fill="#E9B198"/>
<path d="M164.74 190.805L168.19 159.705C168.19 159.705 167.877 154.05 166.621 147.768C166.621 147.768 168.189 143.056 167.877 137.086C167.877 137.086 186.697 110.388 180.425 85.8873C180.425 85.8873 185.131 73.0051 189.834 69.5529C189.834 69.5529 157.206 56.0437 148.428 58.2419L147.799 191.747C147.799 191.747 153.598 191.722 159.021 192.369C161.081 192.618 163.098 191.684 164.74 190.805Z" fill="#E9A688"/>
<path d="M131.105 190.805L127.653 159.705C127.653 159.705 127.965 154.05 129.224 147.767C129.224 147.767 127.653 143.056 127.965 137.086C127.965 137.086 109.148 110.388 115.42 85.8872C115.42 85.8872 110.712 73.005 106.008 69.5528C106.008 69.5528 139.646 56.0436 148.429 58.2419L148.044 191.747C148.044 191.747 145.742 191.488 142.635 191.684C140.9 191.798 139.064 192.268 136.917 192.346C134.89 192.422 132.88 191.657 131.105 190.805Z" fill="#E9A688"/>
<path d="M163.806 190.817L167.067 160.026C167.067 160.026 166.765 154.431 165.579 148.212C165.579 148.212 167.067 143.548 166.765 137.639C166.765 137.639 184.542 111.202 178.615 86.9408C178.615 86.9408 183.061 74.187 187.503 70.7675C187.503 70.7675 156.69 57.3918 148.398 59.5699L147.804 191.753C147.804 191.753 153.283 191.728 158.41 192.37C160.354 192.614 162.252 191.695 163.806 190.817Z" fill="#FFBA9B"/>
<path d="M132.037 190.818L128.777 160.028C128.777 160.028 129.079 154.433 130.262 148.213C130.262 148.213 128.777 143.55 129.079 137.64C129.079 137.64 111.304 111.203 117.229 86.9422C117.229 86.9422 112.782 74.1884 108.335 70.769C108.335 70.769 140.1 57.3933 148.4 59.5714L148.037 191.755C148.037 191.755 145.866 191.495 142.938 191.694C141.289 191.8 139.564 192.268 137.527 192.346C135.618 192.422 133.719 191.664 132.037 190.818Z" fill="#FFBA9B"/>
<path d="M148.267 65.0191L147.592 162.257L152.832 161.968C152.832 161.968 154.872 150.002 157.206 142.42C159.532 134.836 167.691 122.583 168.852 118.207C170.017 113.836 172.641 92.5385 173.515 87.5754C174.389 82.62 179.344 70.6544 179.344 70.6544C170.894 64.241 148.267 65.0191 148.267 65.0191Z" fill="#FFC8AF"/>
<path d="M148.268 65.0191L148.175 162.257L142.933 161.968C142.933 161.968 140.893 150.002 138.562 142.42C136.227 134.836 128.074 122.583 126.908 118.207C125.742 113.836 123.118 92.5385 122.247 87.5754C121.374 82.62 116.421 70.6544 116.421 70.6544C124.874 64.241 148.268 65.0191 148.268 65.0191Z" fill="#FFC8AF"/>
<path d="M112.981 79.2858C112.981 79.2858 105.135 89.3403 96.3546 90.9115C96.3546 90.9115 74.0802 95.6227 77.2177 110.701C78.8695 118.635 99.3787 126.816 107.331 98.7652C108.504 94.6357 106.701 87.7715 114.235 83.0553L112.981 79.2858Z" fill="#FFC8AF"/>
<path d="M113.511 80.1427C113.511 80.1427 104.476 90.9374 95.7311 93.2691C95.7311 93.2691 76.9744 97.2098 78.9813 109.168C79.6939 113.388 84.9564 119.668 95.3004 114.274C99.576 112.038 103.892 108.146 106.221 94.8756C106.221 94.8756 108.266 84.8085 114.234 81.6006L113.511 80.1427Z" fill="#E9B198"/>
<path d="M236.262 67.6667C224.594 55.1018 208.657 60.7547 200.816 63.8947C192.975 67.0371 180.108 70.8066 177.597 70.8066C175.281 70.8066 151.81 77.5071 148.265 78.5244C144.627 77.5071 121.373 71.3883 118.243 70.8066C115.778 70.3458 102.873 67.0371 95.0316 63.8947C87.1855 60.7547 67.8673 55.6834 59.578 67.6667C59.578 67.6667 42.9514 87.7705 67.1093 114.786L68.3658 118.868L69.6172 115.099L71.5007 118.239L72.1253 114.157L74.9504 115.726L73.3843 111.644L76.5192 112.586L75.2678 109.76L77.7782 109.448L75.5799 107.557L78.7174 105.988L74.6383 104.102L78.0879 102.846L75.5799 101.902L79.9713 99.0764L76.2044 100.016L76.8339 97.8199C76.8339 97.8199 55.8286 99.6858 62.4082 74.2613C63.2593 70.9527 63.0125 54.9053 107.891 72.3779C114.516 74.9538 128.285 72.0606 134.245 83.0543C134.245 83.0543 138.634 97.1904 136.753 103.475C136.753 103.475 134.552 114.472 144.911 127.354C144.911 127.354 143.652 146.826 145.848 150.598C148.043 154.362 146.16 165.046 140.202 160.647C140.202 160.647 137.133 155.286 135.431 152.63C134.119 150.59 128.937 150.892 132.359 156.251C133.469 157.988 134.859 159.826 134.869 164.107C134.872 165.683 136.435 169.133 135.494 170.387C134.552 171.646 137.382 173.532 137.382 174.781C137.382 176.037 137.062 179.502 136.123 181.068C135.184 182.637 135.184 182.952 136.753 184.838C138.319 186.721 137.382 190.805 137.382 190.805L137.062 192.374L147.92 191.752L158.78 192.374L158.463 190.805C158.463 190.805 157.521 186.721 159.09 184.838C160.664 182.952 160.664 182.637 159.719 181.068C158.78 179.502 158.463 176.037 158.463 174.781C158.463 173.532 161.288 171.646 160.349 170.387C159.405 169.133 160.976 164.107 160.976 164.107C159.72 160.017 162.376 157.988 163.481 156.251C166.906 150.892 160.989 150.298 160.039 152.479C158.768 155.369 157.196 158.93 155.643 160.647C150.672 166.144 147.799 154.362 149.997 150.598C152.191 146.826 150.939 127.354 150.939 127.354C161.288 114.472 159.09 103.475 159.09 103.475C157.206 97.1904 161.606 83.0543 161.606 83.0543C167.566 72.0606 181.254 74.7498 187.949 72.3779C229.645 57.6298 233.439 74.2613 233.439 74.2613C238.773 103.163 219.011 97.8199 219.011 97.8199L219.636 100.016L215.871 99.0764L220.263 101.902L217.755 102.846L221.204 104.102L217.125 105.988L220.263 107.557L218.067 109.448L220.58 109.76L219.321 112.586L222.461 111.644L220.89 115.726L223.715 114.157L224.344 118.239L226.223 115.099L227.479 118.868L228.736 114.786C252.891 87.7705 236.262 67.6667 236.262 67.6667Z" fill="#DA8B67"/>
<path d="M148.031 79.8509C148.031 79.8509 120.355 72.118 118.603 71.8285C116.86 71.5364 94.868 65.4075 93.1155 64.5363C91.368 63.66 85.2467 61.4719 79.566 61.4719C73.8879 61.4719 62.3805 59.4298 56.2643 75.9102C56.2643 75.9102 50.1455 94.5838 67.336 111.938L71.5007 118.241L72.1253 114.159L74.9505 115.728L73.3843 111.646L76.5192 112.588L75.2678 109.762L77.7782 109.45L75.58 107.559L78.7174 105.99L74.6383 104.104L78.0879 102.848L75.58 101.904L79.9714 99.0785L76.2044 100.018C76.2044 100.018 68.0637 99.9799 66.6033 98.3734C65.1529 96.7669 56.4103 90.4946 60.0514 76.0613C60.0514 76.0613 61.2147 63.66 73.1602 63.368C73.1602 63.368 85.2467 62.1996 100.544 68.3285C100.544 68.3285 110.155 72.7048 116.13 72.9943C116.13 72.9943 133.024 73.7245 135.65 82.6232C135.65 82.6232 139.87 97.2101 138.561 102.458C138.561 102.458 137.251 116.022 145.838 125.936C145.838 125.936 144.09 145.488 146.714 150.3C146.714 150.3 150.07 163.275 142.635 163.57C142.635 163.57 139.724 163.426 136.667 156.716C136.667 156.716 134.481 152.196 133.023 153.8C133.023 153.8 131.787 154.024 136.226 160.508C136.748 161.268 135.975 163.122 135.796 164.157C135.574 165.396 136.35 167.775 136.811 169.991C137.085 171.313 138.634 172.29 138.561 175.097C138.51 176.915 137.397 180.617 137.103 182.246C136.649 184.754 140.746 190.269 138.85 192.308L157.055 192.165C157.055 192.165 157.594 185.122 157.932 183.702C158.413 181.664 156.766 177.281 157.055 175.39C157.345 173.493 159.095 171.451 159.244 170.575C159.392 169.696 158.659 167.949 159.095 166.342C159.533 164.743 159.095 162.261 159.392 160.8C159.677 159.342 162.452 156.716 163.033 154.822C163.61 152.924 161.862 152.632 160.848 154.092C159.825 155.55 158.516 161.09 156.474 161.971C154.432 162.842 150.793 164.011 149.919 161.822C149.048 159.634 147.593 154.822 149.048 149.859C149.048 149.859 151.745 140.601 149.557 126.6C149.557 126.6 157.207 120.106 157.345 102.898C157.345 102.898 156.622 84.3707 162.885 78.393C162.885 78.393 172.06 72.7048 183.273 72.1181C183.273 72.1181 203.523 67.3061 209.204 65.7022C214.879 64.0957 225.08 65.4075 228.139 66.868C231.196 68.3284 241.245 77.0811 234.26 91.3733C234.26 91.3733 230.614 99.6878 222.897 99.9799L215.871 99.0785L220.263 101.904L217.755 102.848L221.204 104.104L217.125 105.99L220.263 107.559L218.067 109.45L220.58 109.762L219.321 112.588L222.461 111.646L220.89 115.728L223.715 114.159L224.344 118.241L226.223 115.101C226.223 115.101 236.731 105.671 238.921 95.7496C238.921 95.7496 245.76 78.6851 232.218 65.9943C232.218 65.9943 223.768 58.41 204.256 63.66C204.256 63.66 187.355 70.6576 182.986 70.8087C178.615 70.9548 167.251 74.0167 164.778 75.18C162.301 76.3509 149.919 79.5588 148.031 79.8509Z" fill="#EC7F4E"/>
<path d="M151.874 322.877H145.541V302.444H151.874V322.877Z" fill="#795FDE"/>
<path d="M158.11 325.281H140.658V322.073H158.11V325.281Z" fill="#795FDE"/>
<path d="M139.103 289.724H158.212V215.617H139.103V289.724Z" fill="#79ACFC"/>
<path d="M145.744 223.228H150.73V208.007H145.744V223.228Z" fill="#79ACFC"/>
<path d="M143.256 314.161H154.053V246.867H143.256V314.161Z" fill="#795FDE"/>
<path d="M150.524 314.161H154.055V246.867H150.524V314.161Z" fill="#6147CA"/>
<path d="M143.254 314.161H146.994V246.867H143.254V314.161Z" fill="#6147CA"/>
<path d="M141.18 249.018H155.718V245.513H141.18V249.018Z" fill="#795FDE"/>
<path d="M141.174 245.514H155.718V217.287H141.174V245.514Z" fill="#B8A6FF"/>
<path d="M149.344 219.421H147.408V210.339H149.344V219.421Z" fill="#B8A6FF"/>
<path d="M152.393 210.407H144.086L145.745 197.588H150.731L152.393 210.407Z" fill="#795FDE"/>
<path d="M145.745 197.588L144.086 210.407H149.072L147.407 197.588H145.745Z" fill="#664CCE"/>
<path d="M149.071 202.801H147.824V111.161H149.071V202.801Z" fill="#795FDE"/>
<path d="M143.255 289.724H139.103V215.616H145.333V217.286H141.175V245.513H141.18V249.018H143.255V289.724Z" fill="#9D85FF"/>
<path d="M143.254 289.724H145.332V249.018H143.254V289.724Z" fill="#735CCF"/>
<path d="M145.332 249.018H141.18V245.513H145.332V249.018Z" fill="#816AE0"/>
<path d="M145.331 245.514H141.174V217.287H145.331V219.838C145.316 219.838 145.304 219.838 145.289 219.838C143.418 219.838 141.907 221.283 141.907 223.069C141.907 224.851 143.418 226.299 145.289 226.299C145.304 226.299 145.316 226.299 145.331 226.299V233.123C144.284 233.229 143.473 234.07 143.473 235.09C143.473 236.112 144.284 236.958 145.331 237.064V245.514Z" fill="#BEAEFF"/>
<path d="M151.773 215.619H158.005V215.417H151.773V215.619Z" fill="white"/>
<path d="M158.005 289.525H154.054V249.018H155.719V245.513V217.286H151.773V215.617H158.005V289.525Z" fill="#9D85FF"/>
<path d="M151.773 289.525H154.054V249.018H151.773V289.525Z" fill="#735CCF"/>
<path d="M155.719 249.018H151.773V245.513H155.719V249.018Z" fill="#816AE0"/>
<path d="M155.719 245.514H151.773V242.916C152.254 242.555 152.564 241.994 152.564 241.362C152.564 240.732 152.254 240.173 151.773 239.811V233.438C151.806 233.44 151.839 233.44 151.869 233.44C153.737 233.44 155.25 231.992 155.25 230.21C155.25 228.427 153.737 226.979 151.869 226.979C151.839 226.979 151.806 226.979 151.773 226.982V217.287H155.719V245.514Z" fill="#BEAEFF"/>
<path d="M163.345 291.509H135.37V288.039H163.345V291.509Z" fill="#795FDE"/>
<path d="M163.345 291.509H135.37V290.011H163.345V291.509Z" fill="#6147CA"/>
<path d="M148.671 223.07C148.671 224.852 147.156 226.3 145.29 226.3C143.419 226.3 141.908 224.852 141.908 223.07C141.908 221.284 143.419 219.839 145.29 219.839C147.156 219.839 148.671 221.284 148.671 223.07Z" fill="#D7CDFF"/>
<path d="M148.275 223.086C148.275 224.652 146.948 225.921 145.303 225.921C143.669 225.921 142.332 224.652 142.332 223.086C142.332 221.524 143.669 220.253 145.303 220.253C146.948 220.253 148.275 221.524 148.275 223.086Z" fill="#FFB594"/>
<path d="M148.011 223.121C148.011 224.543 146.8 225.699 145.304 225.699C143.816 225.699 142.605 224.543 142.605 223.121C142.605 221.698 143.816 220.542 145.304 220.542C146.8 220.542 148.011 221.698 148.011 223.121Z" fill="#D28664"/>
<path d="M145.243 222.564C144.848 222.564 144.531 222.26 144.531 221.877C144.531 221.494 144.848 221.187 145.243 221.187C145.636 221.187 145.958 221.494 145.958 221.877C145.958 222.26 145.636 222.564 145.243 222.564ZM145.243 221.499C145.014 221.499 144.828 221.686 144.828 221.917C144.828 222.141 145.014 222.328 145.243 222.328C145.472 222.328 145.654 222.141 145.654 221.917C145.654 221.686 145.472 221.499 145.243 221.499Z" fill="#E0A489"/>
<path d="M145.653 221.915C145.653 222.139 145.472 222.325 145.243 222.325C145.014 222.325 144.828 222.139 144.828 221.915C144.828 221.683 145.014 221.497 145.243 221.497C145.472 221.497 145.653 221.683 145.653 221.915Z" fill="#FFC8AF"/>
<path d="M145.453 221.925L145.244 222.129L145.04 221.925L145.244 221.716L145.453 221.925Z" fill="#D28664"/>
<path d="M146.66 223.461C146.267 223.461 145.947 223.149 145.947 222.771C145.947 222.391 146.267 222.081 146.66 222.081C147.055 222.081 147.375 222.391 147.375 222.771C147.375 223.149 147.055 223.461 146.66 223.461ZM146.66 222.393C146.428 222.393 146.247 222.582 146.247 222.809C146.247 223.038 146.428 223.222 146.66 223.222C146.891 223.222 147.073 223.038 147.073 222.809C147.073 222.582 146.891 222.393 146.66 222.393Z" fill="#E0A489"/>
<path d="M147.072 222.807C147.072 223.036 146.89 223.22 146.659 223.22C146.427 223.22 146.246 223.036 146.246 222.807C146.246 222.581 146.427 222.392 146.659 222.392C146.89 222.392 147.072 222.581 147.072 222.807Z" fill="#FFC8AF"/>
<path d="M146.865 222.821L146.659 223.033L146.452 222.821L146.659 222.617L146.865 222.821Z" fill="#D28664"/>
<path d="M146.141 224.881C145.745 224.881 145.431 224.576 145.431 224.193C145.431 223.811 145.745 223.501 146.141 223.501C146.534 223.501 146.856 223.811 146.856 224.193C146.856 224.576 146.534 224.881 146.141 224.881ZM146.141 223.816C145.912 223.816 145.73 224.005 145.73 224.229C145.73 224.46 145.912 224.644 146.141 224.644C146.37 224.644 146.559 224.46 146.559 224.229C146.559 224.005 146.37 223.816 146.141 223.816Z" fill="#E0A489"/>
<path d="M146.558 224.229C146.558 224.461 146.369 224.645 146.14 224.645C145.911 224.645 145.729 224.461 145.729 224.229C145.729 224.005 145.911 223.816 146.14 223.816C146.369 223.816 146.558 224.005 146.558 224.229Z" fill="#FFC8AF"/>
<path d="M146.349 224.244L146.14 224.453L145.936 224.244L146.14 224.032L146.349 224.244Z" fill="#D28664"/>
<path d="M144.588 224.881C144.195 224.881 143.87 224.576 143.87 224.193C143.87 223.811 144.195 223.501 144.588 223.501C144.978 223.501 145.298 223.811 145.298 224.193C145.298 224.576 144.978 224.881 144.588 224.881Z" fill="#E0A489"/>
<path d="M144.999 224.23C144.999 224.462 144.813 224.648 144.589 224.648C144.357 224.648 144.171 224.462 144.171 224.23C144.171 224.006 144.357 223.818 144.589 223.818L144.999 224.23Z" fill="#FFC8AF"/>
<path d="M144.793 224.244L144.589 224.453L144.378 224.244L144.589 224.032L144.793 224.244Z" fill="#D28664"/>
<path d="M143.896 223.412C143.506 223.412 143.186 223.1 143.186 222.722C143.186 222.337 143.506 222.027 143.896 222.027C144.294 222.027 144.614 222.337 144.614 222.722C144.614 223.1 144.294 223.412 143.896 223.412Z" fill="#E0A489"/>
<path d="M144.312 222.761C144.312 222.987 144.128 223.176 143.896 223.176C143.669 223.176 143.483 222.987 143.483 222.761C143.483 222.532 143.669 222.345 143.896 222.345C144.128 222.345 144.312 222.532 144.312 222.761Z" fill="#FFC8AF"/>
<path d="M144.106 222.774L143.897 222.978L143.693 222.774L143.897 222.565L144.106 222.774Z" fill="#D28664"/>
<path d="M155.251 230.211C155.251 231.994 153.737 233.441 151.869 233.441C149.998 233.441 148.485 231.994 148.485 230.211C148.485 228.428 149.998 226.98 151.869 226.98C153.737 226.98 155.251 228.428 155.251 230.211Z" fill="#D7CDFF"/>
<path d="M154.86 230.231C154.86 231.794 153.528 233.066 151.881 233.066C150.245 233.066 148.913 231.794 148.913 230.231C148.913 228.667 150.245 227.395 151.881 227.395C153.528 227.395 154.86 228.667 154.86 230.231Z" fill="#FFB594"/>
<path d="M154.586 230.265C154.586 231.688 153.38 232.841 151.882 232.841C150.394 232.841 149.187 231.688 149.187 230.265C149.187 228.837 150.394 227.684 151.882 227.684C153.38 227.684 154.586 228.837 154.586 230.265Z" fill="#D28664"/>
<path d="M151.824 229.709C151.428 229.709 151.111 229.399 151.111 229.019C151.111 228.636 151.428 228.327 151.824 228.327C152.216 228.327 152.536 228.636 152.536 229.019C152.536 229.399 152.216 229.709 151.824 229.709ZM151.824 228.639C151.594 228.639 151.411 228.828 151.411 229.054C151.411 229.283 151.594 229.47 151.824 229.47C152.053 229.47 152.239 229.283 152.239 229.054C152.239 228.828 152.053 228.639 151.824 228.639Z" fill="#E0A489"/>
<path d="M152.238 229.053C152.238 229.282 152.052 229.469 151.823 229.469C151.593 229.469 151.41 229.282 151.41 229.053C151.41 228.827 151.593 228.638 151.823 228.638C152.052 228.638 152.238 228.827 152.238 229.053Z" fill="#FFC8AF"/>
<path d="M152.03 229.068L151.824 229.277L151.62 229.068L151.824 228.861L152.03 229.068Z" fill="#D28664"/>
<path d="M153.241 230.604C152.845 230.604 152.525 230.297 152.525 229.912C152.525 229.532 152.845 229.225 153.241 229.225C153.633 229.225 153.951 229.532 153.951 229.912C153.951 230.297 153.633 230.604 153.241 230.604ZM153.241 229.534C153.009 229.534 152.825 229.723 152.825 229.952C152.825 230.181 153.009 230.363 153.241 230.363C153.465 230.363 153.651 230.181 153.651 229.952C153.651 229.723 153.465 229.534 153.241 229.534Z" fill="#E0A489"/>
<path d="M153.652 229.955C153.652 230.184 153.466 230.366 153.241 230.366C153.01 230.366 152.826 230.184 152.826 229.955C152.826 229.726 153.01 229.537 153.241 229.537C153.466 229.537 153.652 229.726 153.652 229.955Z" fill="#FFC8AF"/>
<path d="M153.446 229.967L153.242 230.173L153.033 229.967L153.242 229.76L153.446 229.967Z" fill="#D28664"/>
<path d="M152.72 232.025C152.328 232.025 152.005 231.718 152.005 231.337C152.005 230.955 152.328 230.643 152.72 230.643C153.118 230.643 153.43 230.955 153.43 231.337C153.43 231.718 153.118 232.025 152.72 232.025Z" fill="#E0A489"/>
<path d="M153.135 231.375C153.135 231.607 152.949 231.793 152.72 231.793C152.491 231.793 152.31 231.607 152.31 231.375C152.31 231.148 152.491 230.965 152.72 230.965C152.949 230.965 153.135 231.148 153.135 231.375Z" fill="#FFC8AF"/>
<path d="M152.927 231.387L152.72 231.594L152.516 231.387L152.72 231.178L152.927 231.387Z" fill="#D28664"/>
<path d="M151.166 232.025C150.773 232.025 150.451 231.718 150.451 231.337C150.451 230.955 150.773 230.643 151.166 230.643C151.556 230.643 151.876 230.955 151.876 231.337C151.876 231.718 151.556 232.025 151.166 232.025ZM151.166 230.962C150.939 230.962 150.75 231.146 150.75 231.373C150.75 231.604 150.939 231.791 151.166 231.791C151.393 231.791 151.581 231.604 151.581 231.373C151.581 231.146 151.393 230.962 151.166 230.962Z" fill="#E0A489"/>
<path d="M151.582 231.375C151.582 231.607 151.393 231.793 151.167 231.793C150.94 231.793 150.751 231.607 150.751 231.375C150.751 231.148 150.94 230.965 151.167 230.965C151.393 230.965 151.582 231.148 151.582 231.375Z" fill="#FFC8AF"/>
<path d="M151.37 231.387L151.166 231.594L150.96 231.387L151.166 231.178L151.37 231.387Z" fill="#D28664"/>
<path d="M150.481 230.557C150.086 230.557 149.766 230.245 149.766 229.862C149.766 229.482 150.086 229.17 150.481 229.17C150.874 229.17 151.194 229.482 151.194 229.862C151.194 230.245 150.874 230.557 150.481 230.557Z" fill="#E0A489"/>
<path d="M150.895 229.902C150.895 230.134 150.706 230.317 150.482 230.317C150.253 230.317 150.069 230.134 150.069 229.902C150.069 229.675 150.253 229.491 150.482 229.491C150.706 229.491 150.895 229.675 150.895 229.902Z" fill="#FFC8AF"/>
<path d="M150.688 229.913L150.482 230.122L150.275 229.913L150.482 229.709L150.688 229.913Z" fill="#D28664"/>
<path d="M147.624 235.091C147.624 236.186 146.694 237.075 145.554 237.075C144.401 237.075 143.474 236.186 143.474 235.091C143.474 234 144.401 233.114 145.554 233.114C146.694 233.114 147.624 234 147.624 235.091Z" fill="#D7CDFF"/>
<path d="M147.381 235.107C147.381 236.067 146.57 236.842 145.561 236.842C144.556 236.842 143.738 236.067 143.738 235.107C143.738 234.148 144.556 233.367 145.561 233.367C146.57 233.367 147.381 234.148 147.381 235.107Z" fill="#FFB594"/>
<path d="M147.22 235.127C147.22 235.998 146.474 236.706 145.56 236.706C144.646 236.706 143.904 235.998 143.904 235.127C143.904 234.253 144.646 233.543 145.56 233.543C146.474 233.543 147.22 234.253 147.22 235.127Z" fill="#D28664"/>
<path d="M145.524 234.784C145.28 234.784 145.086 234.598 145.086 234.361C145.086 234.127 145.28 233.938 145.524 233.938C145.763 233.938 145.962 234.127 145.962 234.361C145.962 234.598 145.763 234.784 145.524 234.784ZM145.524 234.13L145.27 234.386L145.524 234.638L145.773 234.386L145.524 234.13Z" fill="#E0A489"/>
<path d="M145.772 234.389L145.523 234.641L145.268 234.389L145.523 234.132L145.772 234.389Z" fill="#FFC8AF"/>
<path d="M145.645 234.398L145.523 234.522L145.396 234.398L145.523 234.273L145.645 234.398Z" fill="#D28664"/>
<path d="M146.389 235.338C146.147 235.338 145.951 235.147 145.951 234.915C145.951 234.681 146.147 234.489 146.389 234.489C146.628 234.489 146.827 234.681 146.827 234.915C146.827 235.147 146.628 235.338 146.389 235.338ZM146.389 234.681L146.134 234.938L146.389 235.192L146.643 234.938L146.389 234.681Z" fill="#E0A489"/>
<path d="M146.644 234.936L146.389 235.19L146.135 234.936L146.389 234.679L146.644 234.936Z" fill="#FFC8AF"/>
<path d="M146.514 234.943L146.389 235.068L146.264 234.943L146.389 234.818L146.514 234.943Z" fill="#D28664"/>
<path d="M146.074 236.208C145.83 236.208 145.634 236.017 145.634 235.78C145.634 235.551 145.83 235.359 146.074 235.359C146.313 235.359 146.51 235.551 146.51 235.78C146.51 236.017 146.313 236.208 146.074 236.208ZM146.074 235.551L145.817 235.805L146.074 236.062L146.324 235.805L146.074 235.551Z" fill="#E0A489"/>
<path d="M146.324 235.803L146.075 236.06L145.818 235.803L146.075 235.549L146.324 235.803Z" fill="#FFC8AF"/>
<path d="M146.197 235.816L146.074 235.938L145.947 235.816L146.074 235.689L146.197 235.816Z" fill="#D28664"/>
<path d="M145.12 236.208C144.876 236.208 144.682 236.017 144.682 235.78C144.682 235.551 144.876 235.359 145.12 235.359C145.359 235.359 145.553 235.551 145.553 235.78C145.553 236.017 145.359 236.208 145.12 236.208ZM145.12 235.551L144.863 235.805L145.12 236.062L145.374 235.805L145.12 235.551Z" fill="#E0A489"/>
<path d="M145.374 235.803L145.119 236.06L144.863 235.803L145.119 235.549L145.374 235.803Z" fill="#FFC8AF"/>
<path d="M145.241 235.816L145.119 235.938L144.992 235.816L145.119 235.689L145.241 235.816Z" fill="#D28664"/>
<path d="M144.699 235.308C144.458 235.308 144.261 235.114 144.261 234.883C144.261 234.646 144.458 234.46 144.699 234.46C144.939 234.46 145.133 234.646 145.133 234.883C145.133 235.114 144.939 235.308 144.699 235.308Z" fill="#E0A489"/>
<path d="M144.948 234.905L144.699 235.157L144.442 234.905L144.699 234.648L144.948 234.905Z" fill="#FFC8AF"/>
<path d="M144.825 234.914L144.7 235.039L144.575 234.914L144.7 234.784L144.825 234.914Z" fill="#D28664"/>
<path d="M152.564 241.363C152.564 242.458 151.635 243.342 150.492 243.342C149.344 243.342 148.415 242.458 148.415 241.363C148.415 240.272 149.344 239.386 150.492 239.386C151.635 239.386 152.564 240.272 152.564 241.363Z" fill="#D7CDFF"/>
<path d="M152.324 241.38C152.324 242.337 151.505 243.117 150.501 243.117C149.496 243.117 148.68 242.337 148.68 241.38C148.68 240.42 149.496 239.642 150.501 239.642C151.505 239.642 152.324 240.42 152.324 241.38Z" fill="#FFB594"/>
<path d="M152.159 241.394C152.159 242.27 151.416 242.98 150.502 242.98C149.588 242.98 148.842 242.27 148.842 241.394C148.842 240.52 149.588 239.817 150.502 239.817C151.416 239.817 152.159 240.52 152.159 241.394Z" fill="#D28664"/>
<path d="M150.463 241.055C150.219 241.055 150.025 240.866 150.025 240.632C150.025 240.397 150.219 240.211 150.463 240.211C150.705 240.211 150.901 240.397 150.901 240.632C150.901 240.866 150.705 241.055 150.463 241.055ZM150.463 240.4L150.206 240.659L150.463 240.909L150.715 240.659L150.463 240.4Z" fill="#E0A489"/>
<path d="M150.716 240.662L150.464 240.911L150.207 240.662L150.464 240.402L150.716 240.662Z" fill="#FFC8AF"/>
<path d="M150.588 240.665L150.463 240.792L150.338 240.665L150.463 240.538L150.588 240.665Z" fill="#D28664"/>
<path d="M151.334 241.608C151.09 241.608 150.893 241.419 150.893 241.185C150.893 240.948 151.09 240.759 151.334 240.759C151.571 240.759 151.762 240.948 151.762 241.185C151.762 241.419 151.571 241.608 151.334 241.608ZM151.334 240.951L151.074 241.208L151.334 241.457L151.583 241.208L151.334 240.951Z" fill="#E0A489"/>
<path d="M151.585 241.207L151.335 241.457L151.076 241.207L151.335 240.95L151.585 241.207Z" fill="#FFC8AF"/>
<path d="M151.455 241.217L151.333 241.342L151.203 241.217L151.333 241.092L151.455 241.217Z" fill="#D28664"/>
<path d="M151.012 242.481C150.773 242.481 150.574 242.288 150.574 242.056C150.574 241.824 150.773 241.633 151.012 241.633C151.257 241.633 151.448 241.824 151.448 242.056C151.448 242.288 151.257 242.481 151.012 242.481ZM151.012 241.824L150.76 242.081L151.012 242.333L151.264 242.081L151.012 241.824Z" fill="#E0A489"/>
<path d="M151.264 242.079L151.012 242.331L150.76 242.079L151.012 241.822L151.264 242.079Z" fill="#FFC8AF"/>
<path d="M151.133 242.088L151.011 242.213L150.886 242.088L151.011 241.961L151.133 242.088Z" fill="#D28664"/>
<path d="M150.058 242.481C149.819 242.481 149.623 242.288 149.623 242.056C149.623 241.824 149.819 241.633 150.058 241.633C150.3 241.633 150.496 241.824 150.496 242.056C150.496 242.288 150.3 242.481 150.058 242.481ZM150.058 241.824L149.804 242.081L150.058 242.333L150.318 242.081L150.058 241.824Z" fill="#E0A489"/>
<path d="M150.317 242.079L150.058 242.331L149.803 242.079L150.058 241.822L150.317 242.079Z" fill="#FFC8AF"/>
<path d="M150.184 242.088L150.057 242.213L149.934 242.088L150.057 241.961L150.184 242.088Z" fill="#D28664"/>
<path d="M149.638 241.579C149.396 241.579 149.202 241.39 149.202 241.151C149.202 240.919 149.396 240.725 149.638 240.725C149.882 240.725 150.076 240.919 150.076 241.151C150.076 241.39 149.882 241.579 149.638 241.579Z" fill="#E0A489"/>
<path d="M149.892 241.178L149.638 241.435L149.388 241.178L149.638 240.926L149.892 241.178Z" fill="#FFC8AF"/>
<path d="M149.762 241.188L149.637 241.312L149.512 241.188L149.637 241.058L149.762 241.188Z" fill="#D28664"/>
<path d="M153.984 93.4055C153.984 96.621 151.383 99.2246 148.175 99.2246C144.967 99.2246 142.364 96.621 142.364 93.4055C142.364 90.195 144.967 87.5889 148.175 87.5889C151.383 87.5889 153.984 90.195 153.984 93.4055Z" fill="#E9B198"/>
<path d="M150.114 90.0344C150.114 90.7924 149.51 91.4042 148.749 91.4042C147.996 91.4042 147.382 90.7924 147.382 90.0344C147.382 89.279 147.996 88.6671 148.749 88.6671C149.51 88.6671 150.114 89.279 150.114 90.0344Z" fill="#DA8B67"/>
<path d="M146.875 95.5112C146.875 96.2666 146.259 96.8785 145.501 96.8785C144.745 96.8785 144.136 96.2666 144.136 95.5112C144.136 94.7533 144.745 94.1389 145.501 94.1389C146.259 94.1389 146.875 94.7533 146.875 95.5112Z" fill="#DA8B67"/>
<path d="M146.356 92.0884C146.356 92.8488 145.744 93.4556 144.991 93.4556C144.233 93.4556 143.621 92.8488 143.621 92.0884C143.621 91.333 144.233 90.7185 144.991 90.7185C145.744 90.7185 146.356 91.333 146.356 92.0884Z" fill="#DA8B67"/>
<path d="M150.796 96.5379C150.796 97.2908 150.187 97.9077 149.434 97.9077C148.679 97.9077 148.064 97.2908 148.064 96.5379C148.064 95.78 148.679 95.1681 149.434 95.1681C150.187 95.1681 150.796 95.78 150.796 96.5379Z" fill="#DA8B67"/>
<path d="M149.602 93.4553C149.602 94.2157 148.997 94.8276 148.237 94.8276C147.479 94.8276 146.875 94.2157 146.875 93.4553C146.875 92.7024 147.479 92.088 148.237 92.088C148.997 92.088 149.602 92.7024 149.602 93.4553Z" fill="#DA8B67"/>
<path d="M153.19 92.9422C153.19 93.7001 152.583 94.3145 151.828 94.3145C151.07 94.3145 150.458 93.7001 150.458 92.9422C150.458 92.1868 151.07 91.5749 151.828 91.5749C152.583 91.5749 153.19 92.1868 153.19 92.9422Z" fill="#DA8B67"/>
</svg>
