<svg width="420" height="244" viewBox="0 0 420 244" fill="none" xmlns="http://www.w3.org/2000/svg">
<path d="M393.397 242.834L8.40416 242.955C3.27283 232.854 0.816029 224.466 0.173507 217.19C0.0177443 215.406 -0.0300604 213.691 0.0177304 212.031C0.116852 208.655 0.614238 205.517 1.40544 202.544C5.08003 188.725 15.0736 178.461 20.674 164.239C21.5803 161.942 22.3697 159.541 22.9998 157.007C23.8105 153.74 24.3592 150.252 24.5433 146.469V146.467C24.6088 145.102 24.63 143.7 24.5982 142.253C24.5982 142.251 24.5982 142.251 24.5982 142.251C24.5079 138.241 24.0211 133.914 23.037 129.198C22.9096 128.588 22.775 127.973 22.6299 127.351C22.5325 126.921 22.4299 126.488 22.3201 126.053C21.5484 122.915 20.9076 119.825 20.3926 116.791C20.1111 115.12 19.8669 113.47 19.6598 111.832V111.83C19.5164 110.695 19.3907 109.567 19.2828 108.446C9.15641 2.9487 155.86 -35.4321 199.776 37.7489C233.713 94.2995 273.587 102.722 287.416 93.1158C319.887 70.5615 364.145 66.7642 402.104 122.339C444.887 184.976 393.397 242.834 393.397 242.834Z" fill="#F9F7FF"/>
<path d="M176.29 237.099C135.368 232.981 107.537 201.68 107.71 159.867C107.889 118.061 133.066 91.355 172.738 82.3697C202.425 75.651 241.443 84.3592 250.881 108.169C255.191 119.036 238.305 145.561 238.254 158.665C238.194 174.347 253.345 200.732 247.098 212.662C236.694 232.54 202.097 239.71 176.29 237.099Z" fill="#DBD2FF"/>
<path d="M175.973 239.827C131.005 235.56 100.421 203.167 100.608 159.895C100.796 116.632 128.459 88.9969 172.05 79.7062C204.668 72.755 247.543 81.774 257.918 106.412C262.657 117.659 244.106 145.108 244.049 158.666C243.985 174.896 260.635 202.203 253.773 214.547C242.34 235.116 204.33 242.53 175.973 239.827Z" fill="#9C87F0"/>
<path d="M179.346 224.361C145.211 220.86 122.005 194.347 122.158 158.929C122.308 123.514 143.327 100.884 176.411 93.2796C201.177 87.5894 233.715 94.9736 241.582 115.135C245.18 124.343 231.766 149.604 231.713 160.703C231.66 173.987 243.624 193.552 238.412 203.664C229.729 220.506 200.868 226.554 179.346 224.361Z" fill="#F28959"/>
<path d="M96.5038 153.768L96.4799 159.275C96.4745 160.407 96.3078 161.497 96.0543 162.575L111.176 162.591L111.212 151.588L96.3435 151.572C96.455 152.299 96.5073 153.026 96.5038 153.768Z" fill="#614DAF"/>
<path d="M96.4799 159.276L96.5038 153.769C96.5074 153.027 96.455 152.299 96.3435 151.572H23.688L21.8658 162.575H96.0543C96.3079 161.498 96.4745 160.407 96.4799 159.276Z" fill="#8268EA"/>
<path d="M96.3435 151.572L111.212 151.588L111.264 142.783C111.308 130.63 96.7346 120.765 78.6787 120.748H20.6511L23.688 131.742H63.9347C80.869 131.756 94.765 140.446 96.3435 151.572Z" fill="#7158D5"/>
<path d="M111.212 151.588L96.3435 151.572C94.765 140.446 80.869 131.756 63.9347 131.742L54.2242 131.733V120.727L78.6787 120.748C96.6993 120.765 111.251 130.591 111.264 142.712C111.264 142.736 111.264 142.76 111.264 142.783L111.212 151.588Z" fill="#8975D9"/>
<path d="M63.9347 131.743H23.688L24.9028 137.27V142.736L23.688 151.572H96.3435C94.765 140.447 80.869 131.756 63.9347 131.743Z" fill="#8C70FF"/>
<path d="M96.3435 151.572L54.2242 151.539V131.734L63.9347 131.743C80.869 131.756 94.765 140.447 96.3435 151.572Z" fill="#A58EFF"/>
<path d="M78.4205 192.645C78.403 192.645 78.3828 192.645 78.3653 192.645L54.2242 192.622V192.253L78.3688 192.274C78.3788 192.274 78.391 192.274 78.4005 192.274C88.7229 192.274 97.9366 189.052 103.939 184.019C103.989 184.187 104.038 184.354 104.089 184.522C98.0943 189.469 88.8219 192.646 78.4205 192.645Z" fill="#8975D9"/>
<path d="M104.089 184.521C104.038 184.353 103.989 184.186 103.939 184.019C108.423 180.259 111.114 175.487 111.137 170.292V171.357C111.109 176.327 108.479 180.899 104.089 184.521Z" fill="#8975D9"/>
<path d="M111.137 170.292L111.176 162.591L96.0543 162.575C93.6563 173.156 80.0898 181.267 63.7175 181.255H11.5403L5.46641 192.274L78.3688 192.274C96.4158 192.285 111.083 182.449 111.137 170.292Z" fill="#7158D5"/>
<path d="M78.4005 192.274C78.391 192.274 78.3788 192.274 78.3688 192.274L54.2242 192.253V181.247L63.7175 181.255C63.7296 181.255 63.7438 181.255 63.7556 181.255C63.7588 181.255 63.7606 181.255 63.7638 181.255C79.9647 181.253 93.4085 173.295 95.9852 162.867C96.0091 162.77 96.0322 162.673 96.0543 162.575L111.176 162.591L111.137 170.292C111.114 175.487 108.423 180.259 103.939 184.019C97.9366 189.052 88.7229 192.274 78.4005 192.274Z" fill="#8975D9"/>
<path d="M96.0543 162.575H21.8658L17.6141 171.89L11.5403 181.255H63.7175C80.0898 181.267 93.6563 173.156 96.0543 162.575Z" fill="#8C70FF"/>
<path d="M63.7556 181.255C63.7438 181.255 63.7296 181.255 63.7175 181.255L54.2242 181.247V162.544L96.0543 162.575C96.0322 162.673 96.0091 162.77 95.9852 162.867C93.4085 173.295 79.9647 181.252 63.7638 181.255C63.7606 181.255 63.7588 181.255 63.7556 181.255Z" fill="#A58EFF"/>
<path d="M177.59 224.358C145.613 220.873 123.875 194.463 124.024 159.179C124.165 123.901 143.857 101.359 174.855 93.7724C198.059 88.1022 228.541 95.4555 235.905 115.54C239.279 124.711 226.706 149.88 226.653 160.939C226.602 174.17 237.811 193.661 232.927 203.736C224.788 220.512 197.753 226.54 177.59 224.358ZM241.244 207.05C246.845 196.245 232.603 175.143 232.667 160.932C232.712 149.076 248.518 122.252 244.646 112.41C236.17 90.853 201.147 82.9572 174.489 89.0459C138.869 97.186 116.268 121.373 116.111 159.238C115.954 197.098 140.932 225.451 177.67 229.184C200.843 231.535 231.904 225.058 241.244 207.05Z" fill="#FFCFBA"/>
<path d="M332.828 132.573C328.346 132.573 324.117 130.444 321.785 126.528C318.139 120.396 320.549 112.2 327.183 108.234C329.59 106.793 332.22 106.103 334.768 106.103C339.25 106.103 343.479 108.234 345.808 112.147C349.444 118.278 347.03 126.474 340.407 130.45C338.001 131.886 335.374 132.573 332.828 132.573Z" fill="#ABEBDA"/>
<path d="M310.957 101.682C309.055 101.682 307.257 100.779 306.265 99.1148C304.717 96.5126 305.75 93.0288 308.564 91.3403C309.586 90.7285 310.705 90.4358 311.789 90.4358C313.694 90.4358 315.492 91.3394 316.479 93.0051C318.031 95.6164 316.998 99.0901 314.178 100.779C313.157 101.39 312.04 101.682 310.957 101.682Z" fill="#ABEBDA"/>
<path d="M245.559 86.6304C241.955 86.6268 239.05 83.9371 239.069 80.6156C239.08 77.2923 241.996 74.5999 245.592 74.5999C245.596 74.5999 245.599 74.5999 245.601 74.5999C249.202 74.5999 252.109 77.2969 252.094 80.6202C252.082 83.9417 249.151 86.6277 245.559 86.6304Z" fill="#ABEBDA"/>
<path d="M98.4114 104.404C98.4081 104.404 98.4053 104.404 98.4025 104.404C92.142 104.405 87.09 99.7189 87.1124 93.9375C87.1328 88.1625 92.2129 83.4852 98.4673 83.4852C98.4723 83.4852 98.4765 83.4852 98.4815 83.4852C104.74 83.488 109.795 88.1744 109.77 93.9485C109.754 99.7308 104.664 104.404 98.4114 104.404Z" fill="#ABEBDA"/>
<path d="M21.8404 99.8879C20.8543 99.827 18.8289 99.0043 18.8289 99.0043L18.8289 94.0245L19.4363 88.0713C20.3103 87.7648 21.6139 87.2988 22.6105 87.3576C22.6154 87.3579 22.6201 87.3582 22.6247 87.3584C26.3695 87.5793 29.2303 90.5638 29.0119 94.0244C28.7975 97.4796 25.5851 100.105 21.8404 99.8879Z" fill="#ABEBDA"/>
<path d="M279.692 108.339C279.69 108.339 279.688 108.339 279.686 108.339C279.685 108.339 279.683 108.339 279.681 108.339C271.869 108.339 265.55 102.481 265.581 95.2522C265.606 88.0339 271.966 82.185 279.786 82.185C279.788 82.185 279.789 82.185 279.79 82.185C287.608 82.1868 293.931 88.0439 293.9 95.2695C293.873 102.489 287.517 108.339 279.692 108.339Z" fill="#ABEBDA"/>
<path d="M83.7543 226.862C83.7479 226.862 83.7414 226.862 83.735 226.862C83.7304 226.862 83.7254 226.862 83.7208 226.862C78.8814 226.863 74.9594 223.225 74.9879 218.759C74.9951 214.28 78.942 210.652 83.7909 210.652C83.7931 210.652 83.7945 210.652 83.7967 210.652C88.6381 210.652 92.5598 214.283 92.5437 218.766C92.5248 223.229 88.5926 226.862 83.7543 226.862Z" fill="#ABEBDA"/>
<path d="M107.078 240.718C103.788 240.718 101.133 238.254 101.146 235.223C101.158 232.188 103.834 229.74 107.109 229.738C110.403 229.74 113.048 232.192 113.037 235.228C113.03 238.264 110.362 240.718 107.078 240.718Z" fill="#ABEBDA"/>
<path d="M37.5158 217.491C34.226 217.491 31.5709 215.027 31.5842 211.996C31.5959 208.961 34.2724 206.513 37.5472 206.511C40.8405 206.513 43.486 208.966 43.4754 212.001C43.4682 215.037 40.7999 217.491 37.5158 217.491Z" fill="#ABEBDA"/>
<path d="M269.861 243.211C264.694 243.209 260.526 239.345 260.545 234.578C260.559 229.811 264.752 225.954 269.896 225.954C269.902 225.954 269.909 225.954 269.915 225.954C269.921 225.954 269.929 225.954 269.935 225.954C275.096 225.954 279.247 229.822 279.24 234.583C279.219 239.345 275.02 243.21 269.861 243.211Z" fill="#ABEBDA"/>
<path d="M278.61 217.841C278.61 217.841 278.609 217.841 278.609 217.841C275.009 217.837 272.101 215.143 272.116 211.826C272.128 208.499 275.056 205.814 278.65 205.813C282.247 205.817 285.157 208.505 285.14 211.826C285.129 215.15 282.203 217.841 278.61 217.841Z" fill="#ABEBDA"/>
<path d="M283.184 189.614C283.179 189.614 283.175 189.614 283.169 189.614C283.166 189.614 283.163 189.614 283.16 189.614C278.156 189.614 274.119 185.867 274.132 181.246C274.156 176.633 278.214 172.885 283.216 172.885C283.222 172.885 283.227 172.885 283.234 172.885C283.238 172.885 283.242 172.885 283.247 172.885C288.243 172.885 292.277 176.635 292.262 181.255C292.246 185.868 288.179 189.614 283.184 189.614Z" fill="#ABEBDA"/>
<path d="M282.247 144.919C282.242 144.919 282.236 144.919 282.231 144.919C275.513 144.919 270.082 139.887 270.105 133.67C270.122 127.47 275.582 122.438 282.301 122.438C282.308 122.438 282.315 122.438 282.321 122.438C282.323 122.438 282.325 122.438 282.326 122.438C289.056 122.438 294.485 127.472 294.463 133.682C294.446 139.891 288.976 144.919 282.247 144.919Z" fill="#ABEBDA"/>
<path d="M174.953 161.858L165.624 156.999L396.745 157.302L396.719 162.455L174.953 161.858Z" fill="#6044D0"/>
<path d="M180.41 161.868L165.624 156.999C165.624 156.999 183.397 158.885 180.41 161.868Z" fill="#7158D5"/>
<path d="M167.13 161.666C169.747 161.108 171.952 161.877 172.055 163.372C172.165 164.869 170.127 166.532 167.512 167.09C164.9 167.64 162.696 166.875 162.593 165.374C162.482 163.877 164.52 162.222 167.13 161.666Z" fill="#F2F2F2"/>
<path d="M167.74 164.056C167.74 164.056 169.591 165.855 174.52 162.558C174.52 162.558 182.424 156.51 187.762 160.951C187.762 160.951 184.901 155.006 174.552 160.801C172.682 161.858 171.051 164.445 167.74 164.056Z" fill="#F2F2F2"/>
<path d="M156.951 157.465C156.951 173.632 149.58 186.738 140.484 186.738C131.39 186.738 124.018 173.632 124.018 157.465C124.018 141.297 131.39 128.191 140.484 128.191C149.58 128.191 156.951 141.297 156.951 157.465Z" fill="#DB7547"/>
<path d="M155.413 145.093C152.791 135.109 147.092 128.191 140.484 128.191C139.257 128.191 138.061 128.43 136.91 128.882C141.693 111.403 168.294 94.9754 188.167 94.9754C188.171 94.9754 188.174 94.9754 188.178 94.9754C210.048 94.9772 229.681 105.807 229.599 125.116C229.537 140.042 218.739 141.746 203.74 141.746C199.331 141.746 194.561 141.599 189.591 141.598C189.584 141.598 189.579 141.598 189.573 141.598C183.532 141.598 176.749 142.506 170.095 143.414C164.994 144.11 159.968 144.806 155.413 145.093Z" fill="#F3AC8C"/>
<path d="M151.393 145.23C142.44 145.231 136.123 142.844 136.158 134.199C136.166 132.426 136.426 130.649 136.91 128.882C138.061 128.43 139.257 128.191 140.484 128.191C147.092 128.191 152.791 135.109 155.413 145.093C154.025 145.181 152.682 145.23 151.393 145.23Z" fill="#E09B7B"/>
<path d="M414.238 179.506H356.499V139.644H411.808L415.452 150.024L417.882 160.35L414.238 179.506Z" fill="#8268EA"/>
<path d="M418.489 179.787L356.499 179.507V160.715H417.882L418.489 170.676V179.787Z" fill="#7158D5"/>
<path d="M356.434 171.846H347.702V146.029H356.434V171.846Z" fill="#614DAF"/>
<path d="M356.434 171.846H347.702V160.457H356.434V171.846Z" fill="#314D91"/>
</svg>
