<svg width="315" height="294" viewBox="0 0 315 294" fill="none" xmlns="http://www.w3.org/2000/svg">
<path d="M266.06 0.0141602L314.669 13.098V291.163L237.253 293.106L161.067 284.192V165.82L171.386 154.687L172.842 99.9546H183.595L181.322 4.5669L266.06 0.0141602Z" fill="#31C5A1"/>
<path d="M185.598 7.85741C185.598 7.85741 186.066 7.82195 186.99 7.76522C187.92 7.70849 189.291 7.63049 191.081 7.5312C194.682 7.33264 199.959 7.04189 206.685 6.66604C220.179 5.93562 239.483 4.88608 262.764 3.62379L262.928 3.6167V3.7798C263.226 30.6353 263.588 62.9016 263.979 97.5861C263.993 98.9406 264.007 100.288 264.022 101.614V101.806L263.83 101.798C236.095 100.664 210.037 99.6001 187.494 98.6853L187.338 98.6782V98.5222C186.805 71.4327 186.358 48.7541 186.045 32.8407C185.896 24.9054 185.782 18.6578 185.704 14.3816C185.669 12.2612 185.64 10.6302 185.619 9.51682C185.612 8.97078 185.605 8.55947 185.605 8.27581C185.591 7.99215 185.598 7.85741 185.598 7.85741C185.598 7.85741 185.605 8.00633 185.619 8.28999C185.626 8.58075 185.64 8.99914 185.655 9.55228C185.683 10.6656 185.726 12.3109 185.775 14.4454C185.875 18.7287 186.024 24.9834 186.209 32.94C186.564 48.8321 187.061 71.4752 187.665 98.5151L187.508 98.3591C210.051 99.2668 236.117 100.316 263.851 101.43L263.659 101.614C263.645 100.288 263.631 98.9406 263.617 97.5861C263.247 62.9087 262.914 30.6353 262.63 3.7798L262.793 3.92872C239.554 5.12719 220.278 6.11291 206.805 6.80787C200.065 7.14826 194.774 7.41065 191.166 7.59503C189.362 7.68013 187.984 7.75104 187.04 7.79359C186.088 7.84323 185.598 7.85741 185.598 7.85741Z" fill="#263238"/>
<path d="M190.818 32.3377L191.109 75.0143H258.879L258.439 29.4443L190.818 32.3377Z" fill="white"/>
<path d="M190.818 32.3375C190.818 32.3375 190.917 32.3233 191.13 32.3162C191.351 32.302 191.663 32.2878 192.075 32.2665C192.92 32.224 194.156 32.1673 195.754 32.0893C198.993 31.9403 203.701 31.7205 209.653 31.451C221.606 30.9192 238.524 30.1675 258.439 29.281L258.617 29.2739V29.4512C258.752 42.9747 258.901 57.9165 259.057 73.6171C259.064 74.0922 259.064 74.5673 259.071 75.0283V75.2126H258.887C233.162 75.1985 209.554 75.1843 191.116 75.1701H190.974V75.0283C190.917 61.9515 190.868 51.2717 190.839 43.847C190.832 40.1594 190.825 37.2802 190.818 35.3159C190.818 34.3514 190.818 33.6068 190.818 33.0962C190.811 32.5857 190.818 32.3375 190.818 32.3375C190.818 32.3375 190.832 32.6069 190.839 33.1175C190.846 33.6352 190.86 34.3869 190.868 35.3655C190.889 37.337 190.924 40.2303 190.96 43.932C191.031 51.3356 191.13 61.987 191.251 75.0283L191.109 74.8864C209.547 74.8722 233.155 74.8652 258.879 74.8439L258.695 75.0283C258.688 74.5673 258.688 74.0922 258.681 73.6171C258.531 57.9165 258.396 42.9747 258.269 29.4512L258.446 29.6214C238.581 30.4369 221.692 31.1319 209.767 31.6212C203.801 31.8552 199.071 32.0467 195.825 32.1743C194.213 32.2311 192.963 32.2807 192.11 32.3091C191.691 32.3233 191.372 32.3304 191.152 32.3375C190.931 32.3375 190.818 32.3375 190.818 32.3375Z" fill="#263238"/>
<path d="M277.196 142.894C281.825 142.894 285.577 139.147 285.577 134.526C285.577 129.904 281.825 126.158 277.196 126.158C272.568 126.158 268.816 129.904 268.816 134.526C268.816 139.147 272.568 142.894 277.196 142.894Z" fill="#263238"/>
<path d="M298.539 187.733L293.567 187.62L294.164 161.509L278.02 139.305L282.047 136.391L299.171 159.949L298.539 187.733Z" fill="#263238"/>
<path d="M295.847 197.746C299.146 197.746 301.82 194.165 301.82 189.747C301.82 185.329 299.146 181.748 295.847 181.748C292.548 181.748 289.874 185.329 289.874 189.747C289.874 194.165 292.548 197.746 295.847 197.746Z" fill="#263238"/>
<path d="M297.176 189.747C297.169 189.747 297.154 189.57 297.169 189.244C297.19 188.91 297.261 188.421 297.396 187.811C297.545 187.187 297.723 186.442 297.929 185.584C298.021 185.152 298.113 184.684 298.142 184.194C298.163 183.705 298.127 183.166 297.829 182.741C297.524 182.322 296.956 182.117 296.38 181.989C295.798 181.868 295.166 181.826 294.505 181.812C293.852 181.805 293.17 181.833 292.467 181.868C291.764 181.925 291.018 181.883 290.329 182.017C288.916 182.301 287.637 183.315 286.806 184.655C285.968 185.996 285.478 187.62 285.421 189.3C285.336 190.981 285.684 192.64 286.366 194.066C287.062 195.477 288.149 196.668 289.484 197.229C290.152 197.519 290.84 197.583 291.551 197.583C292.261 197.604 292.936 197.633 293.596 197.626C294.25 197.619 294.889 197.59 295.478 197.477C296.054 197.356 296.643 197.193 296.956 196.775C297.296 196.37 297.431 195.853 297.488 195.364C297.545 194.874 297.531 194.399 297.502 193.959C297.439 193.073 297.325 192.314 297.261 191.69C297.19 191.066 297.162 190.577 297.154 190.243C297.154 189.924 297.162 189.747 297.176 189.747C297.19 189.747 297.204 189.917 297.225 190.251C297.261 190.577 297.304 191.059 297.403 191.683C297.488 192.307 297.63 193.059 297.708 193.952C297.751 194.399 297.772 194.881 297.723 195.399C297.673 195.91 297.538 196.477 297.154 196.945C296.771 197.448 296.125 197.626 295.528 197.76C294.91 197.881 294.264 197.924 293.596 197.938C292.929 197.952 292.24 197.931 291.544 197.916C290.848 197.924 290.059 197.853 289.356 197.548C287.921 196.952 286.778 195.697 286.046 194.229C285.329 192.747 284.967 191.031 285.052 189.286C285.116 187.549 285.62 185.861 286.501 184.464C287.375 183.067 288.731 181.989 290.258 181.691C291.032 181.542 291.75 181.606 292.446 181.549C293.149 181.521 293.838 181.5 294.505 181.514C295.173 181.528 295.819 181.578 296.437 181.719C297.034 181.861 297.666 182.081 298.035 182.592C298.383 183.109 298.397 183.705 298.369 184.209C298.333 184.726 298.227 185.194 298.12 185.634C297.907 186.506 297.68 187.237 297.524 187.847C297.367 188.449 297.275 188.932 297.233 189.258C297.204 189.577 297.19 189.747 297.176 189.747Z" fill="#263238"/>
<path d="M177.359 103.125C177.359 103.125 177.459 103.125 177.672 103.132C177.892 103.139 178.204 103.153 178.616 103.16C179.462 103.195 180.704 103.238 182.331 103.302C185.598 103.429 190.378 103.621 196.464 103.869C208.68 104.373 226.131 105.096 247.097 105.961L247.246 105.968V106.124C247.253 122.839 247.26 142.135 247.267 162.771V162.821L247.239 162.863C245.037 166.629 242.701 170.636 240.336 174.692L240.272 174.798L240.151 174.784C239.725 174.734 239.256 174.685 238.794 174.628C211.692 171.543 186.379 168.671 165.186 166.26L164.859 166.225L165.094 165.991C168.886 162.232 172.452 158.701 175.811 155.368L175.768 155.467C176.244 139.398 176.628 126.3 176.89 117.215C177.033 112.691 177.139 109.166 177.21 106.77C177.253 105.585 177.281 104.678 177.302 104.053C177.345 103.429 177.359 103.125 177.359 103.125C177.359 103.125 177.359 103.451 177.352 104.075C177.338 104.699 177.317 105.621 177.295 106.819C177.238 109.23 177.153 112.762 177.047 117.3C176.819 126.37 176.486 139.44 176.074 155.474V155.531L176.031 155.573C172.672 158.913 169.113 162.452 165.335 166.218L165.243 165.948C186.436 168.338 211.749 171.203 238.851 174.259C239.32 174.309 239.782 174.366 240.208 174.415L240.03 174.507C242.395 170.458 244.739 166.452 246.941 162.679L246.912 162.771C246.919 142.135 246.926 122.839 246.934 106.124L247.083 106.28C226.166 105.351 208.752 104.571 196.564 104.032C190.463 103.756 185.676 103.536 182.395 103.38C180.761 103.302 179.511 103.245 178.652 103.203C178.233 103.181 177.913 103.167 177.686 103.153C177.473 103.132 177.359 103.125 177.359 103.125Z" fill="#263238"/>
<path d="M227.757 112.875L226.159 153.445L243.042 154.786L244.143 113.598L227.757 112.875Z" fill="#FF9362"/>
<path d="M182.04 110.932L180.861 148.914L223.872 153.446L225.747 112.925L182.04 110.932Z" fill="white"/>
<g opacity="0.3">
<path opacity="0.3" d="M175.924 155.46L247.09 162.757L240.186 174.586L165.214 166.09L175.924 155.46Z" fill="black"/>
</g>
<path d="M238.652 293.07C238.553 293.07 238.468 266.91 238.468 234.65C238.468 202.377 238.553 176.224 238.652 176.224C238.752 176.224 238.837 202.377 238.837 234.65C238.837 266.91 238.752 293.07 238.652 293.07Z" fill="#263238"/>
<path d="M258.439 10.4741L190.818 13.3178V28.7347L258.439 26.125V10.4741Z" fill="#582EFF"/>
<path d="M203.985 18.9081L202.124 18.9734L202.298 23.946L201.046 23.9899L200.871 19.0172L199.035 19.0816L199 18.0854L203.95 17.9119L203.985 18.9081Z" fill="white"/>
<path d="M209.824 23.6822L208.572 23.7261L208.482 21.168L206.04 21.2536L206.13 23.8117L204.878 23.8556L204.668 17.8868L205.921 17.8429L206.005 20.2616L208.447 20.176L208.363 17.7573L209.615 17.7134L209.824 23.6822Z" fill="white"/>
<path d="M214.488 20.9288L212.084 21.0131L212.14 22.6119L214.961 22.513L214.996 23.5009L210.922 23.6437L210.713 17.6749L214.778 17.5324L214.813 18.5286L212 18.6272L212.05 20.0497L214.454 19.9654L214.488 20.9288Z" fill="white"/>
<path d="M221.431 20.8332L219.026 20.9175L219.112 23.3567L217.86 23.4006L217.65 17.4317L221.608 17.293L221.642 18.2892L218.938 18.384L218.992 19.9254L221.396 19.8411L221.431 20.8332Z" fill="white"/>
<path d="M226.934 17.1064L227.072 21.0377C227.095 21.6909 226.904 22.2148 226.5 22.6093C226.099 23.0037 225.538 23.2135 224.817 23.2388C224.107 23.2637 223.537 23.099 223.107 22.7446C222.676 22.3903 222.446 21.8908 222.415 21.2461L222.275 17.2696L223.528 17.2257L223.666 21.1653C223.679 21.5561 223.784 21.8384 223.98 22.0122C224.178 22.1831 224.445 22.2626 224.782 22.2508C225.486 22.2262 225.831 21.8501 225.817 21.1228L225.677 17.1504L226.934 17.1064Z" fill="white"/>
<path d="M232.571 17.9062L230.709 17.9714L230.883 22.9441L229.631 22.988L229.457 18.0153L227.62 18.0797L227.585 17.0835L232.536 16.91L232.571 17.9062Z" fill="white"/>
<path d="M237.854 16.7236L237.992 20.655C238.014 21.3082 237.824 21.832 237.42 22.2265C237.018 22.621 236.457 22.8308 235.737 22.8561C235.027 22.8809 234.457 22.7162 234.027 22.3619C233.596 22.0076 233.366 21.5081 233.335 20.8634L233.195 16.8869L234.448 16.843L234.586 20.7826C234.599 21.1734 234.704 21.4557 234.9 21.6294C235.098 21.8003 235.365 21.8799 235.702 21.8681C236.406 21.8434 236.751 21.4674 236.737 20.74L236.597 16.7677L237.854 16.7236Z" fill="white"/>
<path d="M241.263 20.3926L240.266 20.4275L240.342 22.6126L239.09 22.6564L238.881 16.6876L241.139 16.6085C241.857 16.5833 242.416 16.721 242.817 17.0217C243.217 17.3223 243.428 17.7596 243.448 18.3335C243.462 18.7407 243.384 19.0842 243.212 19.3638C243.044 19.6406 242.78 19.866 242.421 20.04L243.821 22.4331L243.823 22.4905L242.479 22.5376L241.263 20.3926ZM240.231 19.4314L241.241 19.396C241.555 19.3849 241.796 19.2985 241.963 19.1367C242.13 18.9721 242.209 18.7518 242.199 18.4758C242.189 18.1943 242.099 17.9758 241.929 17.8203C241.762 17.6647 241.511 17.5928 241.174 17.6046L240.168 17.6399L240.231 19.4314Z" fill="white"/>
<path d="M248.116 19.7502L245.711 19.8344L245.767 21.4332L248.589 21.3343L248.624 22.3223L244.55 22.4651L244.341 16.4963L248.406 16.3538L248.441 17.3499L245.628 17.4485L245.678 18.8711L248.082 18.7868L248.116 19.7502Z" fill="white"/>
<path d="M210.939 86.1046H192.316L192.26 79.8569H210.939V86.1046Z" fill="white"/>
<path d="M210.953 86.1192H192.303V86.1051L192.246 79.8433H210.953V86.1192ZM192.338 86.0838H210.918V79.8716H192.281L192.338 86.0838Z" fill="#263238"/>
<path d="M233.964 86.0408H214.475V80.084L233.964 79.8003V86.0408Z" fill="white"/>
<path d="M233.979 86.0626H214.455V80.0703H214.476L233.979 79.7866V86.0626ZM214.49 86.0271H233.944V79.8221L214.49 80.0986V86.0271Z" fill="#263238"/>
<path d="M258.07 86.0408H238.148V79.8003H257.807L258.07 86.0408Z" fill="white"/>
<path d="M258.092 86.0626H238.134V79.7866H257.829V79.8008L258.092 86.0626ZM238.17 86.0271H258.056L257.793 79.815H238.17V86.0271Z" fill="#263238"/>
<g opacity="0.3">
<path opacity="0.3" d="M181.365 215.064C181.365 214.503 181.365 202.483 181.365 202.483L212.019 205.675V218.255L181.365 215.064Z" fill="black"/>
</g>
<path d="M181.365 215.064L174.532 218.255V224.41L209.156 227.814L213.815 224.346L212.019 206.199V218.255L181.365 215.064Z" fill="#E0E0E0"/>
<path d="M212.487 74.3614C212.388 74.3614 212.302 64.7099 212.302 52.8033C212.302 40.8966 212.388 31.2451 212.487 31.2451C212.587 31.2451 212.672 40.8966 212.672 52.8033C212.672 64.7099 212.587 74.3614 212.487 74.3614Z" fill="#263238"/>
<path d="M235.513 74.3614C235.414 74.3614 235.328 64.7099 235.328 52.8033C235.328 40.8966 235.414 31.2451 235.513 31.2451C235.612 31.2451 235.698 40.8966 235.698 52.8033C235.698 64.7099 235.612 74.3614 235.513 74.3614Z" fill="#263238"/>
<path d="M224.053 45.7786L217.355 53.1831L224.702 59.8094L231.4 52.4049L224.053 45.7786Z" fill="#FF9362"/>
<path d="M247.337 47.4627L240.638 54.8672L247.986 61.4935L254.684 54.089L247.337 47.4627Z" fill="#FF9362"/>
<path d="M201.508 46.702L194.809 54.1064L202.157 60.7327L208.855 53.3282L201.508 46.702Z" fill="#FF9362"/>
<path d="M250.911 34.4859C250.911 36.273 249.455 37.7267 247.665 37.7267C245.876 37.7267 244.42 36.273 244.42 34.4859C244.42 32.6989 245.876 31.2451 247.665 31.2451C249.455 31.2451 250.911 32.6989 250.911 34.4859Z" fill="#31C5A1"/>
<path d="M223.24 38.8683C225.033 38.8683 226.486 37.4174 226.486 35.6275C226.486 33.8377 225.033 32.3867 223.24 32.3867C221.448 32.3867 219.994 33.8377 219.994 35.6275C219.994 37.4174 221.448 38.8683 223.24 38.8683Z" fill="#31C5A1"/>
<path d="M199.554 39.989C201.347 39.989 202.8 38.538 202.8 36.7481C202.8 34.9583 201.347 33.5073 199.554 33.5073C197.762 33.5073 196.308 34.9583 196.308 36.7481C196.308 38.538 197.762 39.989 199.554 39.989Z" fill="#31C5A1"/>
<path d="M204.37 68.9648H198.311V75.0139H204.37V68.9648Z" fill="#31C5A1"/>
<path d="M191.483 128.232L185.437 127.845L185.049 133.882L191.095 134.269L191.483 128.232Z" fill="#582EFF"/>
<path d="M191.539 116.206L188.804 112.999L185.592 115.729L188.327 118.937L191.539 116.206Z" fill="#31C5A1"/>
<path d="M227.289 68.9648H221.23V75.0139H227.289V68.9648Z" fill="#31C5A1"/>
<path d="M250.236 68.9648H244.178V75.0139H250.236V68.9648Z" fill="#31C5A1"/>
<path d="M252.636 17.5869L253.162 18.7003L254.384 18.8988L253.482 19.7427L253.673 20.9625L252.587 20.3668L251.486 20.927L251.713 19.7144L250.847 18.8421L252.068 18.679L252.636 17.5869Z" fill="white"/>
<path d="M196.663 19.8848L197.189 20.9981L198.41 21.1967L197.508 22.0406L197.7 23.2603L196.613 22.6717L195.512 23.2249L195.747 22.0122L194.873 21.14L196.095 20.9839L196.663 19.8848Z" fill="white"/>
<g opacity="0.3">
<path opacity="0.3" d="M190.484 98.6357L189.199 7.66602L185.598 7.85749L187.494 98.5152L190.484 98.6357Z" fill="black"/>
</g>
<path d="M242.132 292.46C242.132 292.46 242.125 292.269 242.118 291.9C242.111 291.524 242.111 290.971 242.104 290.255C242.097 288.794 242.09 286.652 242.076 283.873C242.061 278.299 242.047 270.193 242.026 260.017C242.012 239.657 241.99 211.043 241.962 177.997V177.94L241.99 177.897C245.25 173.047 248.702 167.905 252.232 162.658L252.203 162.757C252.203 155.715 252.203 148.319 252.203 140.795C252.203 128.668 252.203 116.861 252.211 105.642V105.472L252.381 105.458C257.516 105.117 262.516 104.784 267.374 104.465L267.211 104.642C266.856 74.1416 266.55 47.9811 266.337 29.4439C266.245 20.1824 266.167 12.8285 266.117 7.77228C266.096 5.2548 266.081 3.31882 266.074 1.99271C266.074 1.34029 266.074 0.843887 266.067 0.503496C266.067 0.170195 266.074 0 266.074 0C266.074 0 266.088 0.170195 266.096 0.503496C266.103 0.843887 266.117 1.34029 266.131 1.99271C266.152 3.31173 266.188 5.2548 266.231 7.76519C266.309 12.8143 266.415 20.1753 266.55 29.4297C266.799 47.9669 267.147 74.1274 267.559 104.628V104.791L267.395 104.805C262.537 105.131 257.537 105.465 252.402 105.805L252.573 105.628C252.573 116.847 252.573 128.647 252.58 140.78C252.58 148.304 252.58 155.701 252.58 162.743V162.799L252.551 162.849C249.022 168.097 245.563 173.238 242.303 178.089L242.331 177.989C242.303 211.036 242.281 239.65 242.267 260.01C242.246 270.179 242.225 278.292 242.218 283.866C242.203 286.645 242.196 288.787 242.189 290.248C242.182 290.971 242.175 291.517 242.175 291.893C242.139 292.276 242.132 292.46 242.132 292.46Z" fill="#263238"/>
<path d="M238.51 52.4131C238.51 52.4273 238.397 52.4557 238.176 52.5053C237.914 52.562 237.594 52.6258 237.203 52.7039C236.358 52.867 235.137 53.1152 233.631 53.4414C230.627 54.0938 226.5 55.1433 222.054 56.6325C217.608 58.1288 213.688 59.7812 210.896 61.0718C209.497 61.7171 208.375 62.2561 207.608 62.639C207.253 62.8092 206.955 62.9511 206.713 63.0645C206.507 63.1567 206.393 63.1993 206.386 63.1922C206.379 63.178 206.479 63.1142 206.678 63.0007C206.912 62.866 207.196 62.7029 207.544 62.5114C208.297 62.0859 209.405 61.5115 210.79 60.8378C213.56 59.4833 217.48 57.7884 221.948 56.2851C226.415 54.7887 230.563 53.7818 233.588 53.1932C235.101 52.8953 236.33 52.6897 237.189 52.5691C237.58 52.5195 237.906 52.4769 238.176 52.4415C238.389 52.406 238.51 52.3989 238.51 52.4131Z" fill="#263238"/>
<path d="M244.136 47.4632C244.143 47.4915 243.752 47.5979 243.049 47.7681C242.282 47.9525 241.28 48.1936 240.066 48.4914C237.552 49.1084 234.086 50.0019 230.3 51.1366C226.515 52.2712 223.127 53.42 220.684 54.2923C219.512 54.7107 218.539 55.0582 217.793 55.3276C217.111 55.5687 216.728 55.6964 216.721 55.6751C216.713 55.6538 217.076 55.4836 217.743 55.2C218.411 54.9092 219.384 54.5192 220.591 54.0512C223.013 53.1151 226.394 51.9237 230.187 50.7891C233.979 49.6544 237.459 48.7964 239.995 48.2432C241.259 47.9667 242.289 47.761 243.006 47.6334C243.731 47.4986 244.128 47.4348 244.136 47.4632Z" fill="#263238"/>
<path d="M257.31 97.2315C257.303 97.2244 257.296 97.0755 257.289 96.7918C257.282 96.4798 257.275 96.0756 257.261 95.565C257.246 94.4729 257.225 92.9411 257.197 91.0264L257.31 91.1399C252.339 91.1824 244.59 91.2108 235.897 91.2108H235.506L235.691 91.0264C235.691 92.8844 235.691 94.6998 235.684 96.4443L235.506 96.267C241.692 96.5223 247.104 96.7493 251.011 96.9124C252.935 97.0046 254.491 97.0755 255.606 97.1322C256.124 97.1606 256.536 97.1819 256.856 97.2031C257.147 97.2102 257.303 97.2244 257.31 97.2315C257.317 97.2386 257.182 97.2386 256.905 97.2386C256.6 97.2315 256.195 97.2244 255.698 97.2173C254.597 97.1889 253.056 97.1535 251.146 97.1038C247.204 96.9833 241.742 96.8131 235.506 96.6216L235.329 96.6145V96.4372C235.329 94.6927 235.329 92.8773 235.322 91.0193V90.835H235.506H235.897C244.583 90.835 252.339 90.8633 257.31 90.9059H257.431V91.0193C257.403 92.9624 257.381 94.5154 257.367 95.6288C257.353 96.1252 257.346 96.5223 257.339 96.8273C257.325 97.1038 257.317 97.2386 257.31 97.2315Z" fill="#263238"/>
<path d="M255.591 93.8914C255.591 93.9907 251.401 94.0758 246.23 94.0758C241.06 94.0758 236.869 93.9907 236.869 93.8914C236.869 93.7921 241.06 93.707 246.23 93.707C251.401 93.707 255.591 93.7921 255.591 93.8914Z" fill="#263238"/>
<g opacity="0.3">
<path opacity="0.3" d="M175.925 155.46L179.007 155.779L180.555 103.125H177.359L175.925 155.46Z" fill="black"/>
</g>
<g opacity="0.3">
<path opacity="0.3" d="M231.728 129.49L231.429 138.915L229.284 139.036L234.583 145.113L241.017 139.255L239.15 139.057L239.597 129.2L235.662 127.682L231.728 129.49Z" fill="white"/>
</g>
<g opacity="0.3">
<path opacity="0.3" d="M231.706 128.526L235.655 126.668L239.725 128.476L239.668 126.519L235.847 124.441L231.87 126.434L231.706 128.526Z" fill="white"/>
</g>
<g opacity="0.3">
<path opacity="0.3" d="M231.813 125.392L235.762 123.534L239.831 125.342L239.768 123.385L235.954 121.3L231.976 123.3L231.813 125.392Z" fill="white"/>
</g>
<path d="M241.493 153.169L228.183 152.212L228.283 148L241.493 149.014V153.169Z" fill="#263238"/>
<path d="M193.346 150.233C193.332 150.233 193.332 150.098 193.332 149.843C193.339 149.545 193.354 149.177 193.368 148.723C193.418 147.702 193.481 146.304 193.567 144.61C193.773 141.092 194.05 136.32 194.362 131.044C194.71 125.768 195.03 120.995 195.264 117.478C195.392 115.783 195.499 114.393 195.584 113.364C195.626 112.911 195.662 112.542 195.69 112.244C195.719 111.989 195.74 111.854 195.754 111.854C195.768 111.854 195.768 111.989 195.768 112.244C195.761 112.542 195.747 112.911 195.733 113.364C195.683 114.386 195.619 115.783 195.534 117.478C195.328 121.002 195.051 125.775 194.739 131.051C194.391 136.327 194.071 141.099 193.837 144.617C193.709 146.312 193.602 147.702 193.517 148.723C193.474 149.177 193.439 149.545 193.41 149.836C193.382 150.098 193.361 150.233 193.346 150.233Z" fill="#263238"/>
<path d="M208.112 151.786C208.098 151.786 208.098 151.644 208.098 151.375C208.105 151.07 208.119 150.68 208.133 150.212C208.183 149.148 208.254 147.702 208.339 145.929C208.552 142.269 208.844 137.305 209.17 131.809C209.533 126.321 209.866 121.35 210.108 117.697C210.243 115.932 210.356 114.478 210.435 113.421C210.477 112.946 210.513 112.563 210.541 112.258C210.57 111.989 210.591 111.854 210.605 111.854C210.619 111.854 210.619 111.996 210.619 112.258C210.612 112.563 210.598 112.953 210.584 113.421C210.534 114.485 210.463 115.932 210.378 117.704C210.165 121.364 209.873 126.335 209.547 131.831C209.185 137.32 208.851 142.291 208.609 145.95C208.474 147.716 208.361 149.162 208.283 150.226C208.24 150.694 208.204 151.084 208.176 151.389C208.148 151.651 208.126 151.786 208.112 151.786Z" fill="#263238"/>
<path d="M200.946 133.434C200.846 133.426 200.96 130.37 201.209 126.604C201.457 122.839 201.741 119.797 201.841 119.804C201.94 119.811 201.826 122.867 201.578 126.633C201.329 130.391 201.045 133.441 200.946 133.434Z" fill="#263238"/>
<path d="M202.984 127.094C202.885 127.087 203.02 124.668 203.297 121.69C203.567 118.712 203.872 116.315 203.972 116.322C204.071 116.329 203.936 118.747 203.659 121.726C203.389 124.697 203.084 127.101 202.984 127.094Z" fill="#263238"/>
<path d="M199.831 148.013C199.731 147.999 199.809 146.673 200.015 145.056C200.221 143.432 200.463 142.135 200.562 142.142C200.662 142.156 200.584 143.482 200.378 145.099C200.179 146.723 199.937 148.028 199.831 148.013Z" fill="#263238"/>
<path d="M201.55 146.269C201.45 146.255 201.5 145.113 201.664 143.709C201.827 142.305 202.04 141.177 202.139 141.192C202.239 141.206 202.189 142.347 202.026 143.752C201.869 145.149 201.649 146.276 201.55 146.269Z" fill="#263238"/>
<path d="M215.754 136.603C215.655 136.596 215.719 133.646 215.904 130.015C216.088 126.385 216.323 123.442 216.422 123.449C216.521 123.456 216.458 126.406 216.273 130.037C216.088 133.668 215.854 136.611 215.754 136.603Z" fill="#263238"/>
<path d="M217.899 128.519C217.8 128.512 217.864 126.165 218.049 123.278C218.233 120.392 218.461 118.052 218.567 118.059C218.667 118.066 218.603 120.413 218.418 123.3C218.233 126.186 217.999 128.526 217.899 128.519Z" fill="#263238"/>
<path d="M216.138 149.276C216.038 149.269 216.01 147.85 216.074 146.099C216.145 144.347 216.28 142.929 216.379 142.936C216.479 142.943 216.507 144.361 216.443 146.113C216.372 147.865 216.237 149.276 216.138 149.276Z" fill="#263238"/>
<path d="M218.339 144.68C218.233 144.659 218.481 143.078 218.652 141.113C218.829 139.149 218.865 137.554 218.972 137.546C219.071 137.539 219.199 139.156 219.021 141.142C218.851 143.134 218.432 144.702 218.339 144.68Z" fill="#263238"/>
<path d="M189.099 145.872C189.099 147.056 188.14 148.014 186.954 148.014C185.768 148.014 184.809 147.056 184.809 145.872C184.809 144.688 185.768 143.73 186.954 143.73C188.14 143.73 189.099 144.688 189.099 145.872Z" fill="#31C5A1"/>
<path d="M209.157 227.814C209.142 227.814 209.114 227.665 209.071 227.382C209.029 227.056 208.972 226.651 208.908 226.141C208.773 225.013 208.588 223.467 208.368 221.581L208.489 221.701C204.86 221.361 199.995 220.9 194.625 220.397C189.093 219.836 184.092 219.326 180.406 218.957C178.624 218.759 177.168 218.595 176.102 218.475C175.626 218.411 175.243 218.368 174.93 218.326C174.661 218.29 174.526 218.262 174.526 218.248C174.526 218.234 174.668 218.234 174.938 218.248C175.25 218.269 175.634 218.298 176.109 218.326C177.182 218.418 178.638 218.539 180.428 218.688C184.114 219.035 189.121 219.503 194.654 220.021C200.016 220.567 204.881 221.056 208.503 221.425L208.617 221.439L208.624 221.545C208.801 223.439 208.944 224.985 209.043 226.119C209.078 226.63 209.114 227.041 209.135 227.368C209.171 227.665 209.171 227.814 209.157 227.814Z" fill="#263238"/>
<path d="M212.011 218.007C212.082 218.078 211.358 218.936 210.385 219.921C209.412 220.907 208.567 221.652 208.496 221.574C208.425 221.496 209.149 220.645 210.122 219.659C211.095 218.673 211.94 217.929 212.011 218.007Z" fill="#263238"/>
<path d="M179.383 46.3569C179.426 46.4491 175.669 48.3851 170.996 50.6898C166.315 52.9946 162.487 54.7816 162.444 54.6894C162.402 54.5972 166.152 52.6613 170.832 50.3565C175.513 48.0589 179.341 46.2647 179.383 46.3569Z" fill="#263238"/>
<path d="M177.579 37.1526C177.586 37.1809 177.26 37.266 176.663 37.3937C176.067 37.5284 175.2 37.6986 174.128 37.8901C171.983 38.2801 169 38.7198 165.683 39.0389C162.366 39.358 159.355 39.4928 157.167 39.5211C156.074 39.5353 155.193 39.5353 154.582 39.514C153.971 39.4999 153.637 39.4786 153.637 39.4502C153.637 39.4218 153.971 39.4006 154.582 39.3722C155.264 39.3438 156.13 39.3084 157.16 39.2587C159.334 39.1595 162.338 38.9893 165.647 38.6701C168.95 38.351 171.933 37.9468 174.085 37.6277C175.108 37.4717 175.96 37.344 176.635 37.2448C177.238 37.1667 177.572 37.1313 177.579 37.1526Z" fill="#263238"/>
<path d="M177.586 31.8127C177.565 31.8552 176.819 31.5786 175.669 31.0042C174.518 30.4298 172.97 29.5292 171.393 28.3591C169.816 27.1819 168.51 25.9622 167.629 25.0261C166.748 24.09 166.272 23.4518 166.301 23.4234C166.343 23.388 166.89 23.9624 167.814 24.8417C168.737 25.7282 170.051 26.8983 171.613 28.0613C173.176 29.2243 174.682 30.1462 175.789 30.7773C176.897 31.4014 177.608 31.7559 177.586 31.8127Z" fill="#263238"/>
<path d="M179.305 55.356C179.384 55.427 178.489 56.5049 177.324 57.7601C176.152 59.0153 175.143 59.9797 175.072 59.9088C174.994 59.8379 175.882 58.7671 177.054 57.5048C178.219 56.2496 179.227 55.2922 179.305 55.356Z" fill="#263238"/>
<path d="M177.146 23.7922C177.054 23.8347 176.564 23.0192 176.053 21.9626C175.541 20.9059 175.2 20.0124 175.293 19.9699C175.385 19.9273 175.875 20.7428 176.386 21.7995C176.905 22.8561 177.239 23.7425 177.146 23.7922Z" fill="#263238"/>
<path d="M68.303 147.957C61.1794 151.644 55.7177 157.984 51.783 164.969C47.8554 171.954 45.3199 179.62 42.8128 187.229L40.6182 226.481C48.9066 212.397 55.5615 195.845 57.3583 179.606C55.5188 179.443 53.6793 179.28 51.8398 179.117C55.5401 178.556 58.6439 175.876 60.6183 172.706C62.5927 169.536 63.6084 165.877 64.6027 162.274C62.3584 162.608 60.114 162.941 57.8697 163.274C63.1538 159.757 66.9749 154.14 68.303 147.957Z" fill="#31C5A1"/>
<g opacity="0.3">
<g opacity="0.3">
<path opacity="0.3" d="M68.303 147.957C61.1794 151.644 55.7177 157.984 51.783 164.969C47.8554 171.954 45.3199 179.62 42.8128 187.229L40.6182 226.481C48.9066 212.397 55.5615 195.845 57.3583 179.606C55.5188 179.443 53.6793 179.28 51.8398 179.117C55.5401 178.556 58.6439 175.876 60.6183 172.706C62.5927 169.536 63.6084 165.877 64.6027 162.274C62.3584 162.608 60.114 162.941 57.8697 163.274C63.1538 159.757 66.9749 154.14 68.303 147.957Z" fill="black"/>
</g>
</g>
<path d="M39.3966 235.678C39.3966 235.678 21.3993 214.177 21.6123 193.647H28.878C28.878 193.647 20.9802 188.463 21.6052 185.563C22.2302 182.662 22.4362 171.671 22.4362 171.671L29.084 173.33C29.084 173.33 24.0982 170.841 23.4731 166.905C22.8481 162.962 24.9291 144.716 24.9291 144.716C24.9291 144.716 33.0258 153.219 35.5187 161.927C38.0116 170.635 44.5528 180.797 42.6281 207.341C40.7176 233.87 39.3966 235.678 39.3966 235.678Z" fill="#31C5A1"/>
<path d="M48.5229 237.707C48.5229 237.707 68.0188 224.736 72.3512 208.192L66.506 206.603C66.506 206.603 73.9919 204.157 74.1268 201.689C74.2618 199.221 76.499 190.335 76.499 190.335L70.7958 190.215C70.7958 190.215 75.3484 189.3 76.7121 186.272C78.0757 183.244 80.4053 168.118 80.4053 168.118C80.4053 168.118 72.0316 173.181 68.1182 179.641C64.2049 186.102 56.719 192.839 52.4505 214.595C48.1749 236.359 48.5229 237.707 48.5229 237.707Z" fill="#31C5A1"/>
<path d="M29.851 163.458C29.8581 163.458 29.8794 163.529 29.9149 163.678C29.9575 163.849 30.0072 164.068 30.0711 164.338C30.2061 164.948 30.3978 165.799 30.6464 166.891C30.895 167.997 31.1862 169.359 31.5058 170.94C31.8254 172.521 32.2018 174.323 32.5641 176.315C33.3382 180.301 34.1479 185.066 34.9859 190.371C35.7956 195.675 36.6124 201.526 37.3297 207.681C38.0328 213.836 38.5797 219.715 39.0059 225.069C39.4036 230.423 39.7019 235.253 39.8581 239.309C39.9576 241.337 40.0073 243.174 40.057 244.784C40.1138 246.394 40.1351 247.783 40.1493 248.918C40.1564 250.031 40.1706 250.911 40.1706 251.535C40.1706 251.819 40.1706 252.038 40.1706 252.216C40.1706 252.372 40.1635 252.45 40.1564 252.45C40.1493 252.45 40.1422 252.372 40.1351 252.216C40.128 252.045 40.1138 251.819 40.0996 251.535C40.0783 250.911 40.0428 250.039 40.0073 248.925C39.9789 247.791 39.9292 246.401 39.851 244.791C39.78 243.181 39.7161 241.344 39.6025 239.323C39.4107 235.267 39.084 230.445 38.6721 225.098C38.2317 219.751 37.6777 213.879 36.9675 207.724C36.2502 201.575 35.4476 195.732 34.6521 190.42C33.8354 185.116 33.047 180.35 32.3084 176.358C31.9604 174.358 31.6052 172.557 31.2998 170.975C31.0015 169.394 30.7317 168.025 30.5044 166.919C30.2913 165.827 30.1209 164.962 30.0001 164.352C29.9504 164.075 29.9078 163.856 29.8794 163.685C29.8581 163.537 29.8439 163.458 29.851 163.458Z" fill="#263238"/>
<path d="M36.9037 248.847C36.9037 248.847 20.4334 230.19 15.3268 218.914L19.1834 217.269C16.3851 217.73 13.5157 216.531 11.3495 214.709C9.1833 212.886 7.58528 210.49 6.02277 208.128L11.108 207.27C6.48442 205.965 2.41479 202.816 0 198.668C6.00146 199.654 11.4276 202.944 15.9021 207.057C19.5243 210.39 22.5925 214.255 25.54 218.205C26.9746 220.134 28.2317 222.183 29.2829 224.346C32.0457 230.062 36.9108 241.997 36.9037 248.847Z" fill="#31C5A1"/>
<path d="M72.6073 178.982C72.6144 178.982 72.586 179.053 72.5362 179.173C72.4723 179.315 72.3871 179.493 72.2877 179.72C72.0462 180.216 71.7124 180.911 71.2862 181.79C70.4055 183.584 69.1555 186.187 67.6427 189.421C64.6171 195.888 60.6256 204.909 56.691 215.064C52.7634 225.226 49.6312 234.579 47.5148 241.401C46.4565 244.812 45.6255 247.578 45.0645 249.493C44.7875 250.429 44.5673 251.166 44.411 251.698C44.34 251.932 44.2761 252.124 44.2335 252.266C44.1909 252.393 44.1696 252.457 44.1625 252.457C44.1554 252.457 44.1696 252.386 44.198 252.258C44.2335 252.11 44.2832 251.918 44.34 251.677C44.4821 251.145 44.6809 250.4 44.9295 249.457C45.4409 247.528 46.2363 244.749 47.2662 241.33C49.3187 234.487 52.4154 225.112 56.35 214.936C60.2918 204.774 64.3189 195.753 67.4084 189.314C68.9496 186.095 70.2351 183.506 71.1584 181.734C71.6129 180.868 71.9681 180.18 72.2237 179.691C72.3374 179.478 72.4368 179.301 72.5078 179.166C72.5647 179.032 72.6002 178.975 72.6073 178.982Z" fill="#263238"/>
<path d="M38.3029 256.84C38.2887 256.84 38.2603 256.726 38.2176 256.499C38.175 256.23 38.1182 255.904 38.0543 255.506C37.9265 254.648 37.7134 253.407 37.408 251.883C37.1097 250.358 36.6835 248.557 36.1438 246.571C35.5898 244.593 34.9009 242.437 34.0699 240.217C33.2247 237.997 32.3085 235.934 31.4207 234.083C30.5116 232.239 29.638 230.608 28.8497 229.261C28.0684 227.913 27.4079 226.843 26.9321 226.112C26.719 225.772 26.5414 225.495 26.3994 225.261C26.2786 225.063 26.2218 224.956 26.236 224.949C26.2431 224.942 26.3213 225.034 26.4633 225.219C26.6267 225.438 26.8184 225.708 27.0528 226.034C27.5642 226.743 28.2602 227.8 29.077 229.126C29.8937 230.452 30.7957 232.083 31.7261 233.927C32.6352 235.778 33.5656 237.856 34.4179 240.082C35.256 242.316 35.9307 244.486 36.4705 246.479C36.996 248.479 37.3938 250.294 37.6566 251.833C37.9265 253.372 38.104 254.62 38.1892 255.492C38.2248 255.889 38.2603 256.223 38.2816 256.492C38.31 256.719 38.31 256.84 38.3029 256.84Z" fill="#263238"/>
<path d="M60.0289 252.45H23.9917V259.789H60.0289V252.45Z" fill="#FF9362"/>
<path d="M27.4219 259.796L31.3211 284.482H53.0968L56.7332 259.796H27.4219Z" fill="#FF9362"/>
<path d="M57.82 259.797C57.82 259.896 51.0018 259.981 42.5926 259.981C34.1835 259.981 27.3652 259.896 27.3652 259.797C27.3652 259.697 34.1835 259.612 42.5926 259.612C51.0018 259.605 57.82 259.69 57.82 259.797Z" fill="#263238"/>
<path d="M74.2407 95.3167C75.6966 91.2108 78.5447 87.7856 80.8458 84.0909C84.9936 77.4178 86.6484 68.986 87.9269 60.8095C88.0902 59.7529 88.2465 58.7175 88.4027 57.7106C88.559 56.6681 88.7152 55.6327 88.8715 54.6116C89.255 52.0941 89.5746 49.9596 89.7806 48.5483C91.407 37.28 94.2905 24.9124 110.413 26.0612C110.413 26.0612 122.558 26.8838 126.144 35.6418C128.083 40.3789 130.25 58.1644 130.725 72.8296V72.8367C130.747 73.4324 132.529 95.8202 132.551 96.4017L116.08 104.855C114.901 105.819 112.38 105.365 109.411 104.252C106.073 102.997 102.984 101.259 100.221 99.1249C98.3886 105.791 95.1286 112.074 90.6968 117.393C89.0774 119.336 87.2521 121.194 84.9652 122.279C82.6782 123.364 79.8444 123.569 77.6711 122.272C75.3202 120.86 74.191 117.953 74.2336 115.215C74.2833 112.478 75.3273 109.861 76.4708 107.372C73.1185 104.585 72.7847 99.4227 74.2407 95.3167Z" fill="#263238"/>
<path d="M101.514 281.915L102.998 266.626L115.981 270.321L113.566 281.915H101.514Z" fill="#FFBE9D"/>
<path d="M114.283 280.213L114.305 281.057C114.305 281.057 128.566 286.56 128.765 289.283L100.661 289.652L100.917 280.156C105.121 282.078 109.496 282.241 114.283 280.213Z" fill="#582EFF"/>
<g opacity="0.6">
<g opacity="0.6">
<g opacity="0.6">
<g opacity="0.6">
<g opacity="0.6">
<g opacity="0.6">
<g opacity="0.6">
<g opacity="0.6">
<g opacity="0.6">
<g opacity="0.6">
<g opacity="0.6">
<g opacity="0.6">
<g opacity="0.6">
<path opacity="0.6" d="M103.801 283.163C103.261 283.319 102.892 283.943 103.026 284.503C103.161 285.056 103.786 285.446 104.326 285.298C104.873 285.149 105.335 284.411 105.143 283.872C104.951 283.333 104.191 282.922 103.701 283.198" fill="white"/>
</g>
</g>
</g>
</g>
</g>
</g>
</g>
</g>
</g>
</g>
</g>
</g>
</g>
<g opacity="0.6">
<g opacity="0.6">
<g opacity="0.6">
<g opacity="0.6">
<g opacity="0.6">
<g opacity="0.6">
<g opacity="0.6">
<g opacity="0.6">
<g opacity="0.6">
<g opacity="0.6">
<g opacity="0.6">
<g opacity="0.6">
<path opacity="0.6" d="M100.654 289.659L100.718 287.375L127.636 287.858C127.636 287.858 128.893 288.397 128.765 289.29L100.654 289.659Z" fill="white"/>
</g>
</g>
</g>
</g>
</g>
</g>
</g>
</g>
</g>
</g>
</g>
</g>
<path d="M114.405 281.142C114.405 281.284 113.716 281.355 113.048 281.809C112.366 282.248 112.025 282.858 111.897 282.802C111.77 282.773 111.961 281.943 112.785 281.404C113.602 280.858 114.433 281.014 114.405 281.142Z" fill="#263238"/>
<path d="M117.366 282.341C117.401 282.475 116.805 282.716 116.35 283.312C115.874 283.894 115.768 284.532 115.626 284.525C115.498 284.546 115.392 283.738 115.974 283.007C116.556 282.277 117.366 282.206 117.366 282.341Z" fill="#263238"/>
<path d="M119.092 285.9C118.964 285.929 118.765 285.241 119.113 284.475C119.447 283.702 120.093 283.397 120.15 283.51C120.228 283.624 119.816 284.035 119.547 284.673C119.255 285.29 119.227 285.879 119.092 285.9Z" fill="#263238"/>
<path d="M162.842 104.266L145.938 112.365L137.721 92.9481C137.721 92.9481 131.478 79.6516 127.366 78.1694L125.2 85.424C125.2 85.424 136.286 128.264 137.714 129.746C139.142 131.228 143.424 129.817 144.617 129.221C145.811 128.625 166.819 111.209 166.819 111.209L162.842 104.266Z" fill="#FFBE9D"/>
<path d="M162.842 104.266C162.842 104.266 161.841 102.352 161.756 100.685C161.67 99.0186 161.756 96.1111 161.756 96.1111C161.756 96.1111 161.266 94.1964 161.72 93.2816C162.175 92.3668 163.758 91.452 165.008 92.5299C165.008 92.5299 165.591 91.2818 166.095 90.7003C166.599 90.1188 171.01 92.0335 171.01 92.0335C171.01 92.0335 174.092 93.1185 174.007 94.7779C174.007 94.7779 174.93 96.2742 174.007 98.0258C174.007 98.0258 170.925 105.429 170.42 106.599C169.923 107.762 166.173 111.84 166.173 111.84L161.528 106.266L162.842 104.266Z" fill="#FFBE9D"/>
<path d="M168.716 104.16C168.723 104.174 168.51 104.231 168.162 104.096C167.835 103.968 167.331 103.585 167.267 102.869L167.423 102.99C167.025 103.096 166.507 103.032 166.088 102.713L166.336 102.571C166.4 102.961 166.152 103.344 165.782 103.507C165.399 103.67 164.958 103.571 164.632 103.344C164.291 103.11 164.078 102.741 163.929 102.38C163.779 102.011 163.687 101.614 163.652 101.203C163.63 100.926 163.623 100.664 163.652 100.394C163.687 100.125 163.758 99.8127 164.028 99.607C164.312 99.4013 164.617 99.451 164.838 99.4439C165.072 99.4439 165.306 99.451 165.534 99.451C166.414 99.4652 167.217 99.4793 167.941 99.4935C169.312 99.529 170.164 99.5786 170.164 99.6283C170.164 99.6779 169.319 99.7276 167.941 99.7559C167.217 99.7701 166.407 99.7772 165.534 99.7914C165.306 99.7914 165.072 99.7914 164.838 99.7985C164.596 99.7985 164.369 99.7914 164.248 99.8978C163.978 100.118 163.985 100.699 164.021 101.174C164.099 101.912 164.333 102.692 164.838 103.068C165.086 103.252 165.413 103.316 165.654 103.217C165.903 103.117 166.066 102.855 166.038 102.635L165.974 102.238L166.279 102.493C166.606 102.763 167.032 102.834 167.366 102.763L167.515 102.734L167.522 102.883C167.537 103.465 167.941 103.841 168.225 103.997C168.524 104.131 168.723 104.131 168.716 104.16Z" fill="#EB996E"/>
<path d="M170.705 96.5505C170.697 96.6569 168.496 96.6002 165.797 96.4654C165.136 96.4442 164.518 96.5647 164.213 96.9973C163.9 97.4157 163.865 97.9546 163.964 98.3518C164.185 99.1673 164.646 99.5573 164.582 99.5928C164.568 99.607 164.447 99.536 164.27 99.3517C164.099 99.1673 163.858 98.8694 163.709 98.4227C163.56 97.983 163.552 97.3448 163.936 96.7987C164.121 96.5293 164.433 96.3165 164.767 96.2172C165.101 96.1109 165.456 96.0967 165.804 96.0967C168.524 96.2385 170.712 96.4513 170.705 96.5505Z" fill="#EB996E"/>
<path d="M164.923 96.444C164.902 96.4511 164.838 96.3234 164.767 96.0823C164.696 95.8412 164.589 95.4866 164.568 95.0257C164.546 94.5718 164.639 93.962 165.086 93.4655C165.306 93.2244 165.64 93.0401 166.002 92.9975C166.358 92.955 166.713 93.0188 167.054 93.0968C169.689 93.8059 171.791 94.4725 171.77 94.5647C171.741 94.664 169.589 94.1605 166.968 93.4514C166.329 93.2741 165.704 93.2883 165.342 93.6925C164.973 94.0754 164.845 94.5931 164.838 95.0115C164.823 95.8838 164.994 96.4298 164.923 96.444Z" fill="#EB996E"/>
<path d="M161.848 95.9833C161.905 95.962 161.997 96.2102 162.288 96.4514C162.565 96.6996 163.084 96.9123 163.616 96.7137C164.156 96.5364 164.433 96.0542 164.497 95.6855C164.568 95.3096 164.49 95.0614 164.547 95.0472C164.582 95.026 164.767 95.26 164.76 95.7138C164.753 95.9337 164.689 96.2102 164.518 96.4655C164.355 96.7279 164.071 96.9478 163.744 97.0612C163.411 97.1747 163.055 97.1747 162.764 97.0754C162.473 96.9761 162.253 96.8059 162.111 96.6357C161.813 96.2882 161.805 95.9904 161.848 95.9833Z" fill="#EB996E"/>
<path d="M144.014 119.832C143.922 119.846 143.758 118.087 144.334 116.024C144.895 113.953 145.932 112.527 146.003 112.584C146.102 112.641 145.236 114.116 144.696 116.123C144.135 118.123 144.128 119.832 144.014 119.832Z" fill="#EB996E"/>
<path d="M145.86 149.489C145.86 149.489 148.474 151.318 145.86 173.132C144.142 187.492 115.725 276.788 115.725 276.788L101.492 273.115L116.705 175.089L114.745 154.502L145.86 149.489Z" fill="#263238"/>
<path d="M122.224 162.338C122.146 162.296 123.041 160.785 124.688 159.417C126.329 158.034 127.97 157.417 128.005 157.502C128.055 157.601 126.521 158.36 124.93 159.7C123.325 161.026 122.316 162.402 122.224 162.338Z" fill="#31C5A1"/>
<path d="M92.4297 270.094L98.9568 255.967L110.136 263.825L103.957 274.107L92.4297 270.094Z" fill="#FFBE9D"/>
<path d="M105.214 272.724L104.951 273.54C104.951 273.54 116.748 283.553 116.03 286.226L89.0273 277.213L92.4507 268.221C95.8243 271.448 99.9507 273.065 105.214 272.724Z" fill="#582EFF"/>
<g opacity="0.6">
<g opacity="0.6">
<g opacity="0.6">
<g opacity="0.6">
<g opacity="0.6">
<g opacity="0.6">
<g opacity="0.6">
<g opacity="0.6">
<g opacity="0.6">
<g opacity="0.6">
<g opacity="0.6">
<g opacity="0.6">
<g opacity="0.6">
<path opacity="0.6" d="M94.1984 272.05C93.6302 272.022 93.0691 272.497 93.0052 273.072C92.9483 273.646 93.4171 274.22 93.9853 274.263C94.5535 274.306 95.2495 273.752 95.2424 273.171C95.2353 272.589 94.6529 271.944 94.0847 272.043" fill="white"/>
</g>
</g>
</g>
</g>
</g>
</g>
</g>
</g>
</g>
</g>
</g>
</g>
</g>
<g opacity="0.6">
<g opacity="0.6">
<g opacity="0.6">
<g opacity="0.6">
<g opacity="0.6">
<g opacity="0.6">
<g opacity="0.6">
<g opacity="0.6">
<g opacity="0.6">
<g opacity="0.6">
<g opacity="0.6">
<g opacity="0.6">
<path opacity="0.6" d="M89.0205 277.22L89.8444 275.057L115.427 284.489C115.427 284.489 116.45 285.418 116.031 286.233L89.0205 277.22Z" fill="white"/>
</g>
</g>
</g>
</g>
</g>
</g>
</g>
</g>
</g>
</g>
</g>
</g>
<path d="M105.015 273.653C104.965 273.788 104.284 273.625 103.495 273.838C102.7 274.029 102.167 274.497 102.068 274.405C101.954 274.341 102.416 273.604 103.382 273.363C104.34 273.114 105.086 273.54 105.015 273.653Z" fill="#263238"/>
<path d="M107.451 275.781C107.437 275.923 106.791 275.958 106.152 276.377C105.505 276.774 105.186 277.348 105.058 277.299C104.93 277.277 105.1 276.462 105.903 275.965C106.691 275.455 107.487 275.653 107.451 275.781Z" fill="#263238"/>
<path d="M107.906 279.759C107.778 279.745 107.813 279.021 108.403 278.397C108.985 277.773 109.703 277.695 109.717 277.823C109.752 277.958 109.22 278.22 108.751 278.731C108.268 279.241 108.041 279.787 107.906 279.759Z" fill="#263238"/>
<path d="M116.456 159.899C116.456 159.899 140.618 197.881 139.95 209.398C139.283 220.914 108.118 269.923 108.118 269.923C108.118 269.923 94.6161 264.286 93.3945 264.286C92.1729 264.286 106.903 224.042 110.454 215.369C114.005 206.696 113.274 209.639 113.274 209.639C113.274 209.639 95.1274 182.159 91.278 172.359C87.4214 162.558 89.7865 146.985 89.7865 146.985L116.718 152.545L116.456 159.899Z" fill="#263238"/>
<path d="M91.2788 172.359C91.2788 172.359 91.3995 172.593 91.6055 173.061C91.8257 173.522 92.0956 174.231 92.5572 175.11C93.4166 176.897 94.8087 179.464 96.6695 182.726C100.405 189.236 106.101 198.455 113.403 209.568L113.452 209.639L113.41 209.724C112.266 211.901 111.151 214.255 110.05 216.673C108.992 219.12 107.991 221.687 106.975 224.332C104.951 229.63 102.898 235.253 100.817 241.139C98.7504 247.032 96.6055 253.18 94.6382 259.598C94.3967 260.4 94.1624 261.208 93.9422 262.024C93.8356 262.428 93.7291 262.839 93.6439 263.25C93.6013 263.456 93.5587 263.662 93.5302 263.86C93.516 263.96 93.5089 264.066 93.516 264.144C93.4947 264.179 93.5729 264.236 93.4592 264.13C93.445 264.123 93.4166 264.116 93.4095 264.123H93.4308L93.4734 264.13L93.5586 264.144C94.4606 264.328 95.2277 264.64 96.0516 264.924C96.8541 265.229 97.6638 265.534 98.4735 265.839C101.698 267.087 104.937 268.413 108.204 269.767L107.976 269.838C108.019 269.768 108.069 269.697 108.111 269.619C116.641 255.797 124.511 242.451 131.087 230.013C132.728 226.899 134.276 223.836 135.683 220.822C137.082 217.801 138.381 214.83 139.283 211.851C139.724 210.355 139.987 208.852 139.759 207.362C139.575 205.873 139.205 204.441 138.815 203.051C137.991 200.271 136.989 197.668 135.981 195.215C133.935 190.307 131.854 185.96 129.972 182.18C128.09 178.394 126.393 175.174 124.994 172.543C123.587 169.919 122.479 167.891 121.719 166.522C121.343 165.842 121.059 165.324 120.86 164.962C120.668 164.608 120.576 164.423 120.576 164.423C120.576 164.423 120.69 164.594 120.895 164.941C121.101 165.296 121.4 165.813 121.79 166.487C122.572 167.849 123.701 169.863 125.128 172.479C126.549 175.096 128.268 178.308 130.171 182.088C132.075 185.868 134.177 190.201 136.237 195.115C137.259 197.576 138.268 200.179 139.106 202.973C139.504 204.377 139.88 205.816 140.072 207.334C140.1 207.717 140.136 208.1 140.157 208.483C140.136 208.866 140.157 209.263 140.093 209.646C140.022 210.029 139.979 210.419 139.887 210.802C139.788 211.178 139.695 211.56 139.596 211.943C138.694 214.957 137.394 217.936 135.995 220.971C134.589 223.999 133.04 227.063 131.4 230.183C124.83 242.643 116.968 255.996 108.431 269.824C108.381 269.902 108.339 269.973 108.296 270.044L108.211 270.179L108.069 270.115C104.802 268.76 101.563 267.434 98.3456 266.186C97.536 265.881 96.7334 265.576 95.9308 265.279C95.1354 264.995 94.3044 264.676 93.5302 264.513L93.3172 264.47C93.2604 264.449 93.2248 264.406 93.2035 264.371C93.1893 264.343 93.1751 264.314 93.168 264.286C93.1609 264.243 93.1538 264.201 93.1538 264.172C93.1467 264.038 93.1609 263.931 93.1751 263.818C93.2035 263.598 93.2462 263.385 93.2888 263.179C93.3811 262.761 93.4876 262.35 93.5942 261.938C93.8143 261.116 94.0487 260.307 94.2973 259.506C96.2717 253.081 98.4166 246.933 100.498 241.04C102.586 235.147 104.645 229.523 106.684 224.233C107.706 221.588 108.715 219.021 109.78 216.567C110.895 214.128 111.996 211.816 113.175 209.589V209.738C105.902 198.597 100.242 189.357 96.5416 182.819C94.7021 179.542 93.3314 176.961 92.4933 175.16C92.0459 174.273 91.7831 173.557 91.5771 173.096C91.364 172.607 91.2788 172.359 91.2788 172.359Z" fill="#31C5A1"/>
<path d="M105.448 156.339C105.448 156.311 105.69 156.304 106.123 156.311C106.556 156.318 107.188 156.339 107.962 156.382C109.504 156.481 111.705 156.665 113.936 157.608C116.159 158.587 117.757 160.14 118.751 161.331C119.248 161.934 119.603 162.459 119.823 162.842C120.044 163.218 120.136 163.445 120.122 163.452C120.065 163.487 119.589 162.643 118.559 161.502C117.529 160.374 115.931 158.885 113.793 157.942C111.634 157.034 109.482 156.807 107.948 156.637C106.407 156.495 105.448 156.396 105.448 156.339Z" fill="#31C5A1"/>
<path d="M88.076 156.339C88.0121 152.368 88.8999 147.68 89.6812 143.34C90.3062 139.894 91.1513 136.49 92.2167 133.157L95.6826 122.286L83.0547 79.8997L95.9738 74.3258L97.8701 72.9146L116.002 74.0279C116.002 74.0279 124.632 76.4603 127.501 78.3325L129.27 83.0554C130.235 87.1188 131.99 90.8986 134.298 94.2812C142.771 106.663 135.576 119.506 135.576 119.506L137.309 128.171C141.976 136.568 145.463 144.808 147.018 152.779C147.018 152.779 136.599 149.921 130.207 153.24C119.866 158.608 116.08 152.155 104.042 153.992C96.6272 155.112 88.076 156.339 88.076 156.339Z" fill="#582EFF"/>
<path d="M108.588 117.705C108.595 117.619 109.916 118.009 112.068 117.818C114.184 117.655 117.181 116.733 119.525 114.435C121.862 112.124 122.835 109.152 123.034 107.039C123.254 104.897 122.892 103.571 122.977 103.564C122.998 103.557 123.098 103.883 123.197 104.486C123.304 105.089 123.375 105.975 123.296 107.067C123.161 109.223 122.203 112.308 119.788 114.698C117.359 117.073 114.255 117.974 112.089 118.08C110.995 118.144 110.107 118.059 109.511 117.946C108.907 117.825 108.58 117.726 108.588 117.705Z" fill="#263238"/>
<g opacity="0.3">
<g opacity="0.3">
<path opacity="0.3" d="M135.576 105.862C135.271 106.103 134.972 106.358 134.674 106.606L134.347 106.195C134.752 106.089 135.164 105.975 135.576 105.862Z" fill="black"/>
</g>
<g opacity="0.3">
<path opacity="0.3" d="M110.143 123.669C115.256 122.548 119.795 119.612 123.822 116.265C127.551 113.173 130.945 109.691 134.674 106.606L136.322 108.67C130.661 117.903 123.552 126.243 115.335 133.306C113.069 135.256 110.526 137.185 107.543 137.419C103.658 137.724 100.057 134.944 98.2037 131.526C96.35 128.108 95.8813 124.13 95.4409 120.265C99.2478 123.853 105.029 124.796 110.143 123.669Z" fill="black"/>
</g>
</g>
<path d="M100.86 77.6945C99.4043 75.7798 97.8418 74.9004 97.856 72.4964L97.7637 37.0318C97.8134 35.4575 99.0563 34.181 100.64 34.0889L111.542 29.6992L112.551 30.6566C118.971 30.6495 124.511 35.4646 124.859 43.4425C125.115 49.2079 125.278 55.0584 124.383 59.3133C122.579 67.8727 115.903 68.6386 115.903 68.6386C115.903 68.6103 116.002 74.0707 116.002 74.0707C116.002 74.0707 125.37 95.5721 122.189 99.4086L100.86 77.6945Z" fill="#FFBE9D"/>
<path d="M115.782 54.5197C115.782 54.4488 116.528 54.3637 117.735 54.2644C118.041 54.2502 118.332 54.2006 118.396 53.9949C118.481 53.7822 118.367 53.4418 118.24 53.0872C117.991 52.3355 117.728 51.5484 117.458 50.7257C116.372 47.3644 115.605 44.6129 115.74 44.5703C115.874 44.5278 116.862 47.2155 117.948 50.5697C118.211 51.3994 118.46 52.1866 118.694 52.9383C118.794 53.2929 118.971 53.69 118.794 54.1368C118.701 54.3566 118.467 54.5126 118.268 54.5552C118.069 54.6048 117.899 54.5977 117.749 54.5977C116.535 54.619 115.782 54.5835 115.782 54.5197Z" fill="#263238"/>
<path d="M115.895 68.6455C115.895 68.6455 110.064 68.7306 104.482 64.9863C104.482 64.9863 107.259 71.468 115.945 71.0921L115.895 68.6455Z" fill="#EB996E"/>
<path d="M97.9834 52.1653C97.9834 52.1653 104.091 54.0658 107.543 39.0176C108.722 33.8692 113.502 29.7065 113.502 29.7065L111.563 29.125C111.563 29.125 99.5246 32.5147 99.3186 32.6637C99.1126 32.8126 96.2788 38.8829 96.2788 38.8829L97.9834 52.1653Z" fill="#263238"/>
<path d="M99.4821 51.6051C99.5105 50.9598 98.8428 49.4138 98.2178 49.2791C96.5346 48.9316 93.4664 48.9103 93.2249 53.2149C92.8911 59.0937 98.8713 58.2144 98.8926 58.0513C98.9068 57.9165 99.3826 53.8248 99.4821 51.6051Z" fill="#FFBE9D"/>
<path d="M97.2167 55.7249C97.1954 55.7036 97.1101 55.7887 96.9326 55.8596C96.7621 55.9305 96.4638 55.966 96.1655 55.8312C95.5547 55.5689 95.086 54.5548 95.1215 53.4911C95.1357 52.9521 95.2777 52.4486 95.4908 52.0373C95.6968 51.6189 95.988 51.3353 96.3076 51.2927C96.6201 51.236 96.8331 51.4416 96.8971 51.6047C96.9681 51.7749 96.9255 51.8884 96.9539 51.9026C96.9681 51.9167 97.0888 51.8104 97.0533 51.5693C97.032 51.4487 96.9752 51.3069 96.8403 51.1863C96.7053 51.0658 96.4993 50.9949 96.2792 51.002C95.8246 51.009 95.3914 51.3991 95.157 51.8529C94.8942 52.3068 94.7238 52.867 94.7096 53.4698C94.6812 54.6541 95.2209 55.8029 96.059 56.0936C96.4638 56.2213 96.819 56.122 97.0036 55.9944C97.2025 55.8667 97.238 55.732 97.2167 55.7249Z" fill="#EB996E"/>
<path d="M102.124 49.2929C102.124 49.2716 102.451 49.2716 103.005 49.1156C103.559 48.9596 104.34 48.5979 105.1 47.903C105.476 47.5555 105.853 47.1229 106.194 46.6265C106.527 46.123 106.826 45.5415 107.081 44.9104C107.6 43.641 107.934 42.1659 108.353 40.6342C108.765 39.1024 109.212 37.6558 109.709 36.3651C110.192 35.0745 110.732 33.954 111.243 33.0463C111.755 32.1386 112.238 31.4436 112.593 30.9827C112.763 30.7486 112.92 30.5785 113.012 30.4579C113.111 30.3373 113.168 30.2806 113.168 30.2877C113.175 30.2877 113.126 30.3586 113.033 30.4792C112.948 30.6068 112.799 30.777 112.635 31.0181C112.295 31.4933 111.833 32.1882 111.336 33.103C110.839 34.0107 110.313 35.1383 109.837 36.4218C109.354 37.7054 108.914 39.1521 108.502 40.6838C108.09 42.2085 107.749 43.6977 107.216 44.9742C106.954 45.6124 106.648 46.201 106.3 46.7116C105.952 47.2222 105.562 47.6477 105.171 48.0022C104.383 48.7043 103.58 49.0518 103.019 49.1936C102.451 49.3142 102.124 49.2929 102.124 49.2929Z" fill="#263238"/>
<path d="M94.0774 74.3757C94.0702 74.3757 94.0489 74.2835 94.0134 74.092C93.9779 73.8864 93.9282 73.6098 93.8643 73.2552C93.7364 72.5035 93.5589 71.4256 93.3316 70.064L93.4737 70.0428C93.5021 70.2555 93.5376 70.4895 93.5731 70.7377L93.566 70.7164C93.6015 70.7945 93.6441 70.8867 93.6867 70.9788L93.5376 71.0356C92.8415 68.6316 92.0745 65.3978 91.6483 61.5684C91.4282 59.6608 91.3003 57.6043 91.2861 55.4485C91.3074 53.2997 91.2932 51.0163 91.8685 48.7399C92.1029 47.7967 92.4651 46.8961 92.941 46.0735C93.4097 45.2509 93.9708 44.4992 94.5674 43.8113C95.7677 42.4285 97.0532 41.2442 98.2322 40.0599C100.611 37.7268 102.749 35.6206 104.553 33.8478C106.35 32.0962 107.806 30.6779 108.829 29.678C109.326 29.2028 109.717 28.827 110.001 28.5504C110.129 28.4299 110.228 28.3377 110.313 28.2597C110.384 28.1958 110.42 28.1675 110.427 28.1675C110.427 28.1675 110.398 28.21 110.335 28.2809C110.256 28.3589 110.164 28.4653 110.043 28.5859C109.766 28.8624 109.39 29.2525 108.907 29.7489C107.898 30.763 106.457 32.2025 104.688 33.9825C102.898 35.7696 100.768 37.8828 98.4098 40.2301C97.2379 41.4144 95.9524 42.6058 94.7734 43.9744C93.5944 45.336 92.5788 46.9458 92.1313 48.8037C91.5631 51.0305 91.5773 53.3068 91.5489 55.4485C91.556 57.5972 91.6768 59.6395 91.8827 61.5471C92.2876 65.3553 93.0191 68.589 93.6867 70.993L93.5376 71.0497C93.495 70.9576 93.4523 70.8654 93.4168 70.7874L93.4097 70.7732V70.759C93.3813 70.5108 93.3529 70.2768 93.3245 70.064L93.4666 70.0428C93.6654 71.4114 93.8217 72.4893 93.9282 73.2481C93.9779 73.6027 94.0134 73.8793 94.0418 74.092C94.0702 74.2764 94.0845 74.3757 94.0774 74.3757Z" fill="#31C5A1"/>
<path d="M89.4394 47.1939C89.4323 47.1868 89.4678 47.1017 89.5459 46.9457C89.6382 46.7613 89.7519 46.5344 89.8868 46.2578C90.1851 45.6551 90.6539 44.8112 91.2718 43.7829C91.8826 42.7546 92.6709 41.5633 93.6013 40.2797C94.5388 39.0032 95.6255 37.6417 96.8471 36.273C98.0758 34.9185 99.3187 33.6917 100.491 32.6209C101.67 31.5643 102.77 30.6566 103.729 29.9332C104.688 29.2099 105.476 28.6568 106.045 28.2951C106.307 28.132 106.52 27.9902 106.698 27.8838C106.847 27.7916 106.932 27.749 106.932 27.7561C106.932 27.7632 106.868 27.827 106.726 27.9334C106.563 28.054 106.357 28.2029 106.109 28.3873C105.562 28.7702 104.787 29.3517 103.85 30.0892C102.912 30.8267 101.826 31.7416 100.661 32.8053C99.5034 33.8761 98.2747 35.1029 97.0531 36.4503C95.8386 37.8048 94.7519 39.1593 93.8073 40.4215C92.8698 41.6909 92.0743 42.8681 91.4422 43.8751C90.803 44.8821 90.3129 45.7118 89.9862 46.3004C89.83 46.5699 89.7022 46.7897 89.5956 46.967C89.4962 47.123 89.4465 47.201 89.4394 47.1939Z" fill="#31C5A1"/>
<path d="M115.562 57.8665C114.702 57.2283 113.466 56.1787 112.508 55.7178C112.16 56.0936 111.755 56.8099 111.535 57.2708C111.314 57.7318 111.258 58.6678 111.705 59.0579C112.089 59.3912 112.607 59.6394 113.118 59.6465C113.63 59.6536 114.127 59.4337 114.518 59.1075C114.915 58.7813 115.32 58.3133 115.562 57.8665Z" fill="#EB996E"/>
<path d="M95.299 61.8237C95.5689 60.4338 95.8317 59.3488 96.2081 58.051C96.2933 57.739 96.4922 57.4766 96.7621 57.2993C97.2166 57.3631 97.3728 57.9659 97.4865 58.4127C97.7493 59.4622 98.005 60.5118 98.2677 61.5684C98.4453 62.2917 98.6229 63.086 98.2961 63.7597C98.0334 64.3057 97.4439 64.6745 96.8402 64.6816C96.2365 64.6886 95.6399 64.3199 95.37 63.7809C95.0788 63.1782 95.1711 62.4761 95.299 61.8237Z" fill="white"/>
<path d="M124.987 84.9558C124.887 84.9275 124.823 84.8495 124.837 84.7785C124.859 84.7076 124.951 84.6651 125.05 84.6935C125.15 84.7218 125.214 84.7998 125.2 84.8707C125.178 84.9417 125.086 84.9842 124.987 84.9558Z" fill="white"/>
<path d="M126.358 87.7784C126.294 87.6933 126.308 87.5869 126.379 87.5302C126.45 87.4735 126.564 87.4947 126.62 87.5798C126.684 87.6578 126.67 87.7713 126.599 87.828C126.528 87.8848 126.422 87.8564 126.358 87.7784Z" fill="white"/>
<path d="M124.582 92.9058C124.49 92.9554 124.348 92.8632 124.255 92.7001C124.163 92.537 124.163 92.3668 124.255 92.3171C124.348 92.2675 124.49 92.3597 124.582 92.5228C124.674 92.6859 124.674 92.8561 124.582 92.9058Z" fill="white"/>
<path d="M129.319 90.1469C129.22 90.1753 129.113 90.0973 129.078 89.9697C129.042 89.842 129.092 89.7144 129.191 89.686C129.291 89.6576 129.397 89.7356 129.433 89.8633C129.468 89.9909 129.419 90.1186 129.319 90.1469Z" fill="white"/>
<path d="M122.806 80.6869C122.728 80.6231 122.735 80.4813 122.827 80.3749C122.92 80.2686 123.055 80.2331 123.133 80.2969C123.211 80.3607 123.204 80.5026 123.112 80.6089C123.026 80.7153 122.884 80.7508 122.806 80.6869Z" fill="white"/>
<path d="M112.217 99.543C112.124 99.5005 112.124 99.3019 112.21 99.1034C112.302 98.9048 112.451 98.7772 112.543 98.8197C112.636 98.8623 112.636 99.0608 112.55 99.2594C112.458 99.4579 112.309 99.5856 112.217 99.543Z" fill="white"/>
<path d="M109.568 96.9762C109.468 96.9549 109.404 96.8698 109.418 96.7776C109.44 96.6854 109.532 96.6287 109.632 96.65C109.731 96.6712 109.795 96.7564 109.781 96.8485C109.766 96.9407 109.667 96.9975 109.568 96.9762Z" fill="white"/>
<path d="M114.582 95.0754C114.497 95.1251 114.362 95.0613 114.291 94.9336C114.22 94.806 114.234 94.6641 114.319 94.6145C114.404 94.5649 114.539 94.6287 114.61 94.7563C114.681 94.884 114.674 95.0258 114.582 95.0754Z" fill="white"/>
<path d="M116.883 102.437C116.985 102.437 117.068 102.392 117.068 102.338C117.068 102.283 116.985 102.238 116.883 102.238C116.781 102.238 116.698 102.283 116.698 102.338C116.698 102.392 116.781 102.437 116.883 102.437Z" fill="white"/>
<path d="M109.333 104.805C109.234 104.777 109.184 104.642 109.219 104.493C109.255 104.351 109.369 104.252 109.468 104.28C109.567 104.309 109.617 104.443 109.582 104.585C109.546 104.734 109.433 104.826 109.333 104.805Z" fill="white"/>
<path d="M103.794 102.962C103.694 102.997 103.588 102.933 103.552 102.82C103.517 102.713 103.566 102.6 103.659 102.564C103.758 102.529 103.865 102.593 103.9 102.706C103.936 102.813 103.886 102.926 103.794 102.962Z" fill="white"/>
<path d="M105.299 99.6781C105.377 99.6143 105.484 99.6072 105.562 99.6214C105.64 99.6426 105.725 99.7065 105.761 99.8057C105.796 99.8979 105.661 100.033 105.462 99.983C105.271 99.9263 105.221 99.7348 105.299 99.6781Z" fill="white"/>
<path d="M101.94 96.3453C101.975 96.246 102.089 96.2035 102.196 96.2389C102.302 96.2744 102.366 96.3807 102.331 96.48C102.295 96.5793 102.181 96.6219 102.075 96.5864C101.968 96.5439 101.911 96.4375 101.94 96.3453Z" fill="white"/>
<path d="M105.96 92.8418C106.031 92.7708 106.102 92.7283 106.123 92.7425C106.144 92.7637 106.095 92.8347 106.023 92.9056C105.952 92.9765 105.881 93.019 105.86 93.0049C105.846 92.9836 105.889 92.9127 105.96 92.8418Z" fill="white"/>
<path d="M108.659 89.4947C108.715 89.4025 108.907 89.4592 108.914 89.6578C108.914 89.8492 108.722 89.9131 108.666 89.828C108.609 89.7429 108.552 89.679 108.545 89.6649C108.545 89.6436 108.602 89.5798 108.659 89.4947Z" fill="white"/>
<path d="M109.646 92.388C109.624 92.2888 109.681 92.1895 109.773 92.1753C109.866 92.1611 109.951 92.2249 109.972 92.3242C109.994 92.4235 109.937 92.5228 109.844 92.537C109.759 92.5583 109.667 92.4873 109.646 92.388Z" fill="white"/>
<path d="M105.825 96.3308C105.867 96.2386 105.995 96.2103 106.102 96.267C106.208 96.3237 106.265 96.4372 106.215 96.5294C106.166 96.6216 106.045 96.6499 105.938 96.5932C105.832 96.5436 105.782 96.423 105.825 96.3308Z" fill="white"/>
<path d="M99.5819 92.6575C99.5677 92.5582 99.6387 92.4589 99.7523 92.4447C99.8589 92.4234 99.9654 92.4943 99.9796 92.5936C99.9938 92.6929 99.9228 92.7922 99.8091 92.8064C99.7026 92.8206 99.5961 92.7567 99.5819 92.6575Z" fill="white"/>
<path d="M102.877 88.1116C102.977 88.0974 103.09 88.2889 103.126 88.5442C103.161 88.7995 103.112 89.0193 103.012 89.0335C102.913 89.0477 102.799 88.8562 102.764 88.6009C102.721 88.3456 102.771 88.1258 102.877 88.1116Z" fill="white"/>
<path d="M102.21 90.8703C102.295 90.8065 102.402 90.8207 102.458 90.8916C102.515 90.9625 102.494 91.076 102.409 91.1327C102.323 91.1966 102.217 91.1824 102.16 91.1115C102.11 91.0406 102.132 90.9342 102.21 90.8703Z" fill="white"/>
<path d="M107.998 86.0764C108.076 86.0054 108.261 86.0905 108.417 86.2607C108.573 86.4309 108.637 86.6224 108.566 86.6933C108.488 86.7642 108.303 86.6791 108.147 86.5089C107.984 86.3387 107.92 86.1473 107.998 86.0764Z" fill="white"/>
<path d="M103.133 84.233C103.211 84.1692 103.36 84.2189 103.474 84.3394C103.58 84.4671 103.609 84.6231 103.531 84.6869C103.452 84.7507 103.303 84.7011 103.19 84.5805C103.083 84.46 103.055 84.3039 103.133 84.233Z" fill="white"/>
<path d="M98.2962 85.1407C98.3511 85.1407 98.3956 85.0582 98.3956 84.9563C98.3956 84.8545 98.3511 84.772 98.2962 84.772C98.2413 84.772 98.1968 84.8545 98.1968 84.9563C98.1968 85.0582 98.2413 85.1407 98.2962 85.1407Z" fill="white"/>
<path d="M97.7351 88.7713C97.8062 88.7004 97.9411 88.7146 98.0689 88.7571C98.1897 88.7997 98.3104 88.8706 98.3246 88.9699C98.3459 89.0692 98.1684 89.1755 97.9482 89.1046C97.7422 89.0266 97.6641 88.8351 97.7351 88.7713Z" fill="white"/>
<path d="M93.9854 85.4243C94.0493 85.3463 94.1913 85.3605 94.2979 85.4456C94.4044 85.5378 94.4399 85.6725 94.376 85.7505C94.3121 85.8285 94.17 85.8143 94.0635 85.7292C93.9499 85.637 93.9143 85.5023 93.9854 85.4243Z" fill="white"/>
<path d="M94.7736 81.6087C94.866 81.5661 94.9512 81.559 94.9725 81.5945C94.9938 81.6299 94.9299 81.6938 94.8376 81.7434C94.7452 81.7859 94.66 81.793 94.6387 81.7576C94.6245 81.715 94.6884 81.6512 94.7736 81.6087Z" fill="white"/>
<path d="M98.3244 80.1694C98.4026 80.1056 98.6227 80.2545 98.6724 80.5452C98.7221 80.8431 98.573 81.0558 98.4736 81.0204C98.3741 80.9849 98.3457 80.8076 98.3031 80.6091C98.2747 80.4105 98.2392 80.2332 98.3244 80.1694Z" fill="white"/>
<path d="M97.3373 78.1909C97.4296 78.1413 97.5149 78.1342 97.5362 78.1696C97.5575 78.2051 97.4936 78.276 97.4012 78.3185C97.3089 78.3682 97.2237 78.3753 97.2024 78.3398C97.1882 78.3044 97.245 78.2405 97.3373 78.1909Z" fill="white"/>
<path d="M91.2935 79.7794C91.2651 79.6801 91.2935 79.5879 91.3432 79.5737C91.4001 79.5596 91.464 79.6234 91.4924 79.7227C91.5208 79.822 91.4924 79.9141 91.4427 79.9283C91.3858 79.9496 91.3219 79.8787 91.2935 79.7794Z" fill="white"/>
<path d="M101.556 80.1054C101.599 80.1976 101.556 80.3039 101.471 80.3465C101.378 80.389 101.272 80.3394 101.236 80.2472C101.194 80.155 101.236 80.0486 101.322 80.0061C101.414 79.9706 101.513 80.0132 101.556 80.1054Z" fill="white"/>
<path d="M92.2735 77.602C92.3446 77.5311 92.4369 77.5028 92.4724 77.5382C92.5079 77.5737 92.4795 77.6659 92.4085 77.7368C92.3375 77.8077 92.2451 77.8361 92.2096 77.8006C92.1741 77.758 92.2025 77.673 92.2735 77.602Z" fill="white"/>
<path d="M119.525 105.521C119.426 105.557 119.291 105.422 119.227 105.216C119.156 105.018 119.177 104.826 119.277 104.791C119.376 104.755 119.511 104.89 119.575 105.096C119.646 105.294 119.625 105.486 119.525 105.521Z" fill="white"/>
<path d="M121.166 101.508C121.074 101.557 120.988 101.564 120.967 101.529C120.946 101.493 121.01 101.422 121.102 101.38C121.194 101.33 121.279 101.323 121.301 101.359C121.322 101.401 121.258 101.465 121.166 101.508Z" fill="white"/>
<path d="M116.819 99.6069C116.727 99.5715 116.677 99.4651 116.713 99.3729C116.748 99.2807 116.855 99.2382 116.947 99.2807C117.039 99.3162 117.089 99.4225 117.054 99.5147C117.018 99.6069 116.912 99.6495 116.819 99.6069Z" fill="white"/>
<path d="M116.23 108.216C116.173 108.124 116.116 108.067 116.116 108.053C116.123 108.039 116.173 107.975 116.23 107.883C116.28 107.784 116.486 107.841 116.493 108.046C116.486 108.252 116.28 108.316 116.23 108.216Z" fill="white"/>
<path d="M113.225 105.848C113.126 105.869 113.026 105.791 113.005 105.685C112.984 105.578 113.048 105.472 113.154 105.458C113.254 105.436 113.353 105.514 113.374 105.621C113.389 105.727 113.325 105.826 113.225 105.848Z" fill="white"/>
<path d="M112.217 110.386C112.118 110.35 112.11 110.138 112.096 109.897C112.082 109.663 112.061 109.45 112.153 109.4C112.238 109.351 112.444 109.549 112.466 109.875C112.48 110.201 112.302 110.421 112.217 110.386Z" fill="white"/>
<path d="M107.529 110.245C107.458 110.174 107.487 110.018 107.515 109.869C107.551 109.713 107.586 109.564 107.686 109.528C107.778 109.486 107.934 109.677 107.877 109.947C107.821 110.209 107.6 110.323 107.529 110.245Z" fill="white"/>
<path d="M105.235 105.918C105.136 105.918 105.05 105.876 105.05 105.819C105.05 105.762 105.136 105.72 105.235 105.72C105.334 105.72 105.42 105.762 105.42 105.819C105.427 105.869 105.341 105.918 105.235 105.918Z" fill="white"/>
<path d="M108.126 113.549C108.055 113.62 107.962 113.648 107.927 113.613C107.891 113.577 107.92 113.485 107.998 113.421C108.069 113.35 108.161 113.322 108.197 113.358C108.232 113.386 108.197 113.478 108.126 113.549Z" fill="white"/>
<path d="M127.018 105.422C126.961 105.337 126.989 105.223 127.075 105.16C127.167 105.103 127.281 105.124 127.337 105.209C127.394 105.294 127.366 105.408 127.281 105.472C127.195 105.528 127.075 105.507 127.018 105.422Z" fill="white"/>
<path d="M125.193 102.309C125.094 102.309 125.008 102.238 125.008 102.146C125.008 102.054 125.094 101.983 125.193 101.983C125.292 101.983 125.378 102.054 125.378 102.146C125.378 102.238 125.292 102.309 125.193 102.309Z" fill="white"/>
<path d="M125.299 96.3944C125.401 96.3944 125.484 96.3468 125.484 96.288C125.484 96.2293 125.401 96.1816 125.299 96.1816C125.197 96.1816 125.115 96.2293 125.115 96.288C125.115 96.3468 125.197 96.3944 125.299 96.3944Z" fill="white"/>
<path d="M134.34 118.215C134.269 118.145 134.284 118.01 134.369 117.925C134.461 117.833 134.589 117.825 134.66 117.896C134.731 117.967 134.717 118.102 134.632 118.187C134.546 118.272 134.411 118.286 134.34 118.215Z" fill="white"/>
<path d="M131.003 122.08C130.903 122.08 130.818 121.981 130.818 121.868C130.818 121.747 130.903 121.655 131.003 121.655C131.102 121.655 131.187 121.754 131.187 121.868C131.187 121.988 131.102 122.08 131.003 122.08Z" fill="white"/>
<path d="M132.537 127.668C132.437 127.668 132.352 127.619 132.352 127.562C132.352 127.505 132.437 127.456 132.537 127.456C132.636 127.456 132.721 127.505 132.721 127.562C132.721 127.626 132.643 127.668 132.537 127.668Z" fill="white"/>
<path d="M131.563 118.648C131.464 118.633 131.407 118.47 131.436 118.293C131.464 118.116 131.57 117.981 131.67 118.002C131.769 118.016 131.826 118.18 131.798 118.357C131.769 118.534 131.663 118.662 131.563 118.648Z" fill="white"/>
<path d="M127.444 125.732C127.373 125.661 127.352 125.555 127.352 125.463C127.359 125.378 127.373 125.271 127.451 125.201C127.523 125.123 127.721 125.229 127.721 125.47C127.714 125.704 127.515 125.81 127.444 125.732Z" fill="white"/>
<path d="M134.255 124.548C134.156 124.569 134.049 124.491 134.028 124.371C133.999 124.25 134.056 124.137 134.156 124.115C134.255 124.094 134.362 124.172 134.383 124.293C134.411 124.413 134.355 124.527 134.255 124.548Z" fill="white"/>
<path d="M118.41 131.327C118.311 131.32 118.247 131.065 118.282 130.774C118.311 130.476 118.417 130.242 118.517 130.256C118.616 130.264 118.68 130.519 118.645 130.81C118.616 131.1 118.51 131.334 118.41 131.327Z" fill="white"/>
<path d="M123.921 134.639C123.836 134.703 123.701 134.653 123.616 134.533C123.531 134.412 123.524 134.27 123.609 134.207C123.694 134.143 123.829 134.192 123.914 134.313C123.999 134.434 124.007 134.583 123.921 134.639Z" fill="white"/>
<path d="M127.122 130.25C127.194 130.178 127.206 130.073 127.147 130.014C127.089 129.956 126.983 129.968 126.911 130.04C126.839 130.112 126.828 130.217 126.886 130.275C126.944 130.333 127.05 130.322 127.122 130.25Z" fill="white"/>
<path d="M134.014 135.944C133.957 136.029 133.836 136.05 133.751 135.994C133.659 135.937 133.638 135.816 133.694 135.731C133.751 135.646 133.872 135.625 133.957 135.682C134.05 135.745 134.071 135.859 134.014 135.944Z" fill="white"/>
<path d="M139.291 143.042C139.199 143.085 139.057 142.979 138.964 142.801C138.872 142.624 138.879 142.44 138.971 142.397C139.064 142.355 139.206 142.461 139.298 142.638C139.383 142.815 139.383 142.993 139.291 143.042Z" fill="white"/>
<path d="M136.599 133.583C136.514 133.64 136.322 133.491 136.173 133.249C136.024 133.015 135.974 132.774 136.059 132.725C136.144 132.675 136.336 132.817 136.485 133.058C136.634 133.292 136.684 133.526 136.599 133.583Z" fill="white"/>
<path d="M130.164 133.774C130.2 133.738 130.242 133.71 130.235 133.667C130.221 133.632 130.193 133.618 130.2 133.618C130.2 133.611 130.207 133.646 130.25 133.653C130.292 133.66 130.321 133.618 130.356 133.582C130.392 133.547 130.456 133.533 130.505 133.611C130.555 133.689 130.534 133.809 130.463 133.88C130.392 133.951 130.271 133.972 130.193 133.923C130.115 133.873 130.129 133.802 130.164 133.774Z" fill="white"/>
<path d="M129.632 141.326C129.532 141.305 129.475 141.184 129.504 141.064C129.532 140.943 129.639 140.865 129.738 140.894C129.838 140.915 129.895 141.035 129.866 141.149C129.831 141.276 129.731 141.347 129.632 141.326Z" fill="white"/>
<path d="M132.622 147.333C132.615 147.432 132.388 147.475 132.238 147.283C132.096 147.092 132.189 146.886 132.288 146.9C132.395 146.914 132.473 146.985 132.53 147.056C132.579 147.134 132.636 147.233 132.622 147.333Z" fill="white"/>
<path d="M134.98 144.766C134.937 144.858 134.688 144.808 134.568 144.56C134.454 144.312 134.575 144.092 134.667 144.113C134.766 144.135 134.83 144.269 134.901 144.404C134.965 144.539 135.029 144.673 134.98 144.766Z" fill="white"/>
<path d="M141.464 150.006C141.393 150.077 141.138 149.943 140.903 149.709C140.662 149.475 140.534 149.219 140.605 149.148C140.676 149.077 140.932 149.212 141.166 149.446C141.4 149.687 141.535 149.935 141.464 150.006Z" fill="white"/>
<path d="M140.186 138.653C140.108 138.589 140.079 138.483 140.065 138.391C140.058 138.298 140.065 138.185 140.136 138.114C140.2 138.036 140.413 138.121 140.434 138.362C140.456 138.596 140.264 138.724 140.186 138.653Z" fill="white"/>
<path d="M135.427 139.929C135.342 139.88 135.342 139.717 135.434 139.568C135.527 139.419 135.669 139.341 135.754 139.397C135.839 139.447 135.839 139.61 135.747 139.759C135.655 139.901 135.513 139.979 135.427 139.929Z" fill="white"/>
<path d="M143.46 145.404C143.361 145.404 143.275 145.354 143.275 145.298C143.275 145.241 143.361 145.191 143.46 145.191C143.559 145.191 143.645 145.241 143.645 145.298C143.645 145.354 143.559 145.404 143.46 145.404Z" fill="white"/>
<path d="M136.599 147.234C136.514 147.177 136.542 146.985 136.663 146.808C136.784 146.631 136.947 146.532 137.032 146.588C137.117 146.645 137.089 146.836 136.968 147.014C136.848 147.191 136.684 147.29 136.599 147.234Z" fill="white"/>
<path d="M131.443 151.531C131.343 151.581 131.208 151.346 131.386 151.162C131.563 150.978 131.805 151.105 131.755 151.205C131.713 151.304 131.684 151.375 131.649 151.417C131.613 151.453 131.542 151.488 131.443 151.531Z" fill="white"/>
<path d="M125.619 150.779C125.662 150.687 125.889 150.723 125.974 150.943C126.066 151.162 125.931 151.347 125.832 151.311C125.733 151.283 125.676 151.177 125.626 151.084C125.598 150.985 125.569 150.872 125.619 150.779Z" fill="white"/>
<path d="M121.741 152.51C121.783 152.418 121.982 152.411 122.188 152.503C122.394 152.595 122.529 152.744 122.494 152.836C122.451 152.928 122.252 152.935 122.046 152.843C121.833 152.751 121.698 152.609 121.741 152.51Z" fill="white"/>
<path d="M126.265 146.262C126.343 146.198 126.528 146.29 126.677 146.468C126.826 146.645 126.883 146.843 126.805 146.907C126.727 146.971 126.542 146.879 126.393 146.702C126.244 146.524 126.187 146.333 126.265 146.262Z" fill="white"/>
<path d="M122.295 147.12C122.394 147.099 122.501 147.205 122.529 147.354C122.558 147.503 122.501 147.638 122.401 147.659C122.302 147.68 122.195 147.574 122.167 147.425C122.139 147.276 122.195 147.141 122.295 147.12Z" fill="white"/>
<path d="M123.588 140.993C123.68 140.957 123.808 141.043 123.865 141.191C123.922 141.34 123.893 141.489 123.801 141.532C123.709 141.567 123.581 141.482 123.524 141.333C123.467 141.184 123.495 141.028 123.588 140.993Z" fill="white"/>
<path d="M126.479 137.433C126.486 137.327 126.635 137.242 126.727 137.079C126.834 136.916 126.841 136.753 126.926 136.696C126.969 136.675 127.047 136.71 127.096 136.823C127.146 136.937 127.139 137.114 127.047 137.27C126.954 137.426 126.798 137.518 126.677 137.526C126.55 137.533 126.486 137.483 126.479 137.433Z" fill="white"/>
<path d="M118.758 136.816C118.666 136.774 118.638 136.625 118.701 136.476C118.765 136.327 118.893 136.242 118.986 136.284C119.078 136.327 119.106 136.476 119.042 136.625C118.978 136.774 118.851 136.859 118.758 136.816Z" fill="white"/>
<path d="M123.041 128.313C122.941 128.313 122.856 128.193 122.856 128.044C122.856 127.895 122.941 127.774 123.041 127.774C123.14 127.774 123.225 127.895 123.225 128.044C123.225 128.193 123.14 128.313 123.041 128.313Z" fill="white"/>
<path d="M113.566 138.958C113.474 138.922 113.488 138.646 113.609 138.355C113.73 138.057 113.9 137.851 113.992 137.887C114.085 137.922 114.071 138.199 113.95 138.49C113.836 138.787 113.659 138.993 113.566 138.958Z" fill="white"/>
<path d="M116.997 142.603C116.918 142.532 116.904 142.425 116.904 142.333C116.911 142.241 116.94 142.128 117.025 142.071C117.103 142.007 117.288 142.12 117.274 142.347C117.267 142.574 117.075 142.674 116.997 142.603Z" fill="white"/>
<path d="M117.331 148.198C117.331 148.099 117.43 148.014 117.544 148.014C117.664 148.014 117.757 148.099 117.757 148.198C117.757 148.297 117.657 148.382 117.544 148.382C117.43 148.382 117.331 148.304 117.331 148.198Z" fill="white"/>
<path d="M113.339 146.574C113.275 146.489 113.403 146.283 113.481 146.028C113.573 145.773 113.595 145.532 113.694 145.503C113.787 145.468 113.957 145.773 113.836 146.142C113.716 146.524 113.396 146.659 113.339 146.574Z" fill="white"/>
<path d="M115.718 152.07C115.718 151.971 115.789 151.886 115.882 151.886C115.974 151.886 116.045 151.971 116.045 152.07C116.045 152.169 115.974 152.254 115.882 152.254C115.789 152.254 115.718 152.169 115.718 152.07Z" fill="white"/>
<path d="M109.156 149.382C109.156 149.283 109.348 149.198 109.589 149.198C109.823 149.198 110.022 149.283 110.022 149.382C110.022 149.481 109.83 149.567 109.589 149.567C109.348 149.567 109.156 149.481 109.156 149.382Z" fill="white"/>
<path d="M107.537 143.255C107.629 143.22 107.757 143.305 107.814 143.454C107.87 143.603 107.842 143.751 107.75 143.794C107.657 143.829 107.529 143.744 107.473 143.595C107.416 143.447 107.444 143.291 107.537 143.255Z" fill="white"/>
<path d="M109.127 136.717C109.22 136.667 109.369 136.774 109.461 136.951C109.553 137.128 109.553 137.305 109.461 137.355C109.369 137.405 109.22 137.298 109.127 137.121C109.035 136.944 109.035 136.759 109.127 136.717Z" fill="white"/>
<path d="M112.061 134.547C111.99 134.476 112.146 134.199 112.416 133.93C112.686 133.66 112.955 133.504 113.034 133.575C113.105 133.646 112.948 133.923 112.678 134.192C112.409 134.462 112.132 134.625 112.061 134.547Z" fill="white"/>
<path d="M101.4 137.334C101.358 137.235 101.322 137.164 101.315 137.121C101.322 137.079 101.358 137.008 101.4 136.909C101.443 136.809 101.684 136.88 101.684 137.121C101.677 137.37 101.436 137.441 101.4 137.334Z" fill="white"/>
<path d="M104.738 141.539C104.674 141.461 104.788 141.255 104.994 141.078C105.2 140.901 105.427 140.816 105.491 140.894C105.555 140.972 105.441 141.177 105.235 141.355C105.029 141.532 104.809 141.61 104.738 141.539Z" fill="white"/>
<path d="M99.7095 144.291C99.7663 144.205 99.9296 144.213 100.072 144.305C100.221 144.397 100.292 144.546 100.235 144.631C100.178 144.716 100.015 144.709 99.8728 144.617C99.7237 144.518 99.6526 144.376 99.7095 144.291Z" fill="white"/>
<path d="M103.879 148.411C103.879 148.312 104.021 148.227 104.199 148.227C104.376 148.227 104.518 148.312 104.518 148.411C104.518 148.51 104.376 148.595 104.199 148.595C104.021 148.595 103.879 148.517 103.879 148.411Z" fill="white"/>
<path d="M99.035 152.07C98.9995 151.971 99.1913 151.815 99.4044 151.623C99.6245 151.439 99.8021 151.269 99.8944 151.318C99.9867 151.361 99.9157 151.666 99.6458 151.9C99.3759 152.134 99.0705 152.162 99.035 152.07Z" fill="white"/>
<path d="M92.9977 151.666C93.0262 151.567 93.4097 151.588 93.85 151.716C94.2975 151.843 94.6313 152.02 94.6029 152.12C94.5745 152.219 94.1909 152.198 93.7506 152.07C93.3102 151.942 92.9693 151.765 92.9977 151.666Z" fill="white"/>
<path d="M94.8375 145.837C94.9085 145.766 95.1145 145.851 95.2921 146.028C95.4696 146.205 95.5549 146.411 95.4838 146.482C95.4128 146.553 95.2068 146.468 95.0293 146.29C94.8517 146.106 94.7665 145.907 94.8375 145.837Z" fill="white"/>
<path d="M92.437 141.433C92.5364 141.433 92.6288 141.645 92.6359 141.908C92.643 142.177 92.572 142.39 92.4654 142.397C92.366 142.397 92.2737 142.184 92.2666 141.922C92.2595 141.652 92.3376 141.433 92.437 141.433Z" fill="white"/>
<path d="M95.8884 137.894C95.9808 137.852 96.1796 138.086 96.3217 138.412C96.4708 138.738 96.5134 139.036 96.4211 139.078C96.3288 139.121 96.1299 138.887 95.9879 138.561C95.8387 138.235 95.7961 137.937 95.8884 137.894Z" fill="white"/>
<path d="M96.8471 131.866C96.9465 131.845 97.0815 132.122 97.1454 132.476C97.2093 132.831 97.1809 133.136 97.0815 133.15C96.982 133.171 96.8471 132.895 96.7832 132.54C96.7192 132.193 96.7476 131.888 96.8471 131.866Z" fill="white"/>
<path d="M104.099 136.355C104.134 136.256 104.255 136.206 104.354 136.121C104.461 136.05 104.546 135.958 104.653 135.951C104.759 135.929 104.83 136.234 104.575 136.419C104.319 136.603 104.049 136.447 104.099 136.355Z" fill="white"/>
<path d="M93.2252 135.731C93.1258 135.731 93.0405 135.66 93.0405 135.568C93.0405 135.476 93.1258 135.405 93.2252 135.405C93.3246 135.405 93.4099 135.476 93.4099 135.568C93.4099 135.66 93.3246 135.731 93.2252 135.731Z" fill="white"/>
<path d="M96.8828 150.134C96.7975 150.191 96.6342 150.091 96.5134 149.914C96.3927 149.737 96.3643 149.545 96.4495 149.489C96.5347 149.432 96.6981 149.531 96.8188 149.708C96.9396 149.886 96.968 150.077 96.8828 150.134Z" fill="white"/>
<path d="M105.711 151.964C105.64 152.034 105.533 152.049 105.47 151.985C105.413 151.928 105.42 151.822 105.491 151.744C105.562 151.673 105.668 151.659 105.732 151.722C105.789 151.779 105.782 151.885 105.711 151.964Z" fill="white"/>
<path d="M90.1216 153.68C90.0221 153.694 89.9156 153.566 89.8872 153.389C89.8588 153.212 89.9156 153.056 90.015 153.034C90.1145 153.02 90.221 153.148 90.2494 153.325C90.2778 153.502 90.221 153.658 90.1216 153.68Z" fill="white"/>
<path d="M135.789 114.577C135.711 114.514 135.725 114.365 135.832 114.244C135.931 114.123 136.073 114.081 136.159 114.145C136.237 114.209 136.223 114.358 136.116 114.478C136.017 114.599 135.867 114.648 135.789 114.577Z" fill="white"/>
<path d="M126.45 91.2605C126.535 91.2038 126.72 91.3385 126.862 91.5584C127.004 91.7782 127.047 91.9981 126.961 92.0548C126.876 92.1115 126.691 91.9768 126.549 91.7569C126.407 91.5371 126.365 91.3173 126.45 91.2605Z" fill="white"/>
<path d="M123.623 88.0056C123.716 87.9701 123.829 88.0198 123.865 88.119C123.907 88.2183 123.858 88.3318 123.765 88.3672C123.673 88.4027 123.559 88.3531 123.524 88.2538C123.481 88.1545 123.524 88.041 123.623 88.0056Z" fill="white"/>
<path d="M127.324 84.0272C127.423 84.0414 127.494 84.1832 127.473 84.3392C127.451 84.5023 127.352 84.6158 127.253 84.6087C127.153 84.5945 127.082 84.4527 127.103 84.2967C127.118 84.1335 127.217 84.0201 127.324 84.0272Z" fill="white"/>
<path d="M122.38 82.8711C122.48 82.8711 122.565 82.9207 122.565 82.9775C122.565 83.0342 122.48 83.0838 122.38 83.0838C122.281 83.0838 122.196 83.0342 122.196 82.9775C122.196 82.9207 122.274 82.8711 122.38 82.8711Z" fill="white"/>
<path d="M119.696 77.2264C119.752 77.1413 119.845 77.1059 119.909 77.1484C119.965 77.1909 119.973 77.2902 119.916 77.3753C119.859 77.4604 119.767 77.4959 119.703 77.4533C119.639 77.4108 119.639 77.3115 119.696 77.2264Z" fill="white"/>
<path d="M122.664 76.9358C122.714 76.8507 122.842 76.8294 122.941 76.8862C123.041 76.9429 123.083 77.0634 123.027 77.1556C122.977 77.2407 122.849 77.262 122.75 77.2053C122.65 77.1414 122.615 77.0209 122.664 76.9358Z" fill="white"/>
<path d="M134.823 110.322C134.823 110.322 140.647 103.919 141.038 101.834C141.429 99.7416 139.532 99.0254 139.532 99.0254C139.532 99.0254 139.596 97.2809 138.417 97.2596C138.417 97.2596 137.529 96.6143 136.72 95.9477C136.315 95.6144 136.798 93.7351 134.83 93.0189C132.863 92.2956 130.967 93.0189 130.967 93.0189C131.208 92.4941 130.995 91.8701 130.477 91.6148C129.965 91.3595 129.34 91.1609 128.936 91.4375C128.147 91.9764 125.356 95.8626 125.335 96.8979C125.313 98.2879 124.873 102.472 124.873 102.472L125.839 105.167" fill="#FFBE9D"/>
<path d="M125.839 105.16C125.825 105.167 125.725 104.933 125.548 104.479C125.363 103.982 125.107 103.323 124.788 102.486L124.781 102.472V102.451C124.859 101.507 124.958 100.366 125.065 99.0538C125.115 98.3872 125.171 97.678 125.186 96.9263C125.2 96.4867 125.399 96.1321 125.569 95.7704C125.747 95.4087 125.96 95.0542 126.18 94.6925C126.627 93.9834 127.117 93.26 127.679 92.5438C127.956 92.1821 128.247 91.8275 128.595 91.4872C128.68 91.4021 128.779 91.317 128.9 91.239C129.028 91.168 129.17 91.1326 129.312 91.1184C129.589 91.0971 129.845 91.1609 130.086 91.239C130.328 91.3311 130.548 91.4092 130.789 91.5864C131.009 91.7637 131.166 92.0261 131.223 92.3098C131.251 92.4516 131.258 92.5934 131.237 92.7423C131.223 92.8133 131.208 92.8842 131.187 92.9551L131.152 93.0544L131.144 93.0827C130.683 92.5934 131.017 92.948 130.917 92.8345H130.924L130.938 92.8274L130.988 92.8133C131.237 92.7282 131.485 92.6714 131.741 92.6218C132.757 92.4303 133.858 92.4587 134.88 92.8274C135.385 92.9976 135.86 93.3239 136.173 93.7706C136.492 94.2174 136.613 94.7492 136.691 95.2315C136.727 95.4655 136.784 95.7421 136.855 95.8059L137.423 96.2455C137.799 96.5363 138.169 96.827 138.538 97.1107L138.439 97.0752C138.666 97.0823 138.907 97.1533 139.099 97.2951C139.291 97.4369 139.412 97.6355 139.504 97.827C139.674 98.2241 139.724 98.6212 139.724 99.0254L139.61 98.8552C140.129 99.0821 140.548 99.4225 140.846 99.8693C141.152 100.309 141.272 100.841 141.258 101.337C141.251 101.834 141.081 102.323 140.868 102.72C140.662 103.131 140.427 103.507 140.193 103.862C139.241 105.287 138.275 106.443 137.48 107.4C136.677 108.351 136.024 109.081 135.562 109.578C135.349 109.804 135.171 109.989 135.029 110.138C134.909 110.265 134.838 110.322 134.831 110.315C134.823 110.308 134.88 110.237 134.987 110.095C135.122 109.932 135.278 109.741 135.477 109.5C135.91 108.982 136.542 108.23 137.316 107.266C138.083 106.294 139.028 105.124 139.944 103.706C140.377 102.99 140.917 102.224 140.931 101.323C140.939 100.876 140.825 100.422 140.562 100.047C140.306 99.6707 139.909 99.3516 139.475 99.1672L139.362 99.1176V98.997C139.362 98.6496 139.312 98.2737 139.17 97.9546C139.035 97.6284 138.765 97.4156 138.424 97.4156H138.368L138.325 97.3802C137.956 97.0965 137.579 96.8058 137.196 96.515L136.62 96.0754C136.35 95.7775 136.393 95.5222 136.329 95.2811C136.251 94.806 136.137 94.345 135.867 93.9692C135.605 93.5933 135.207 93.3239 134.752 93.1608C133.801 92.8204 132.764 92.792 131.805 92.9693C131.563 93.0118 131.329 93.0756 131.102 93.1466L131.059 93.1608H131.052H131.045C130.938 93.0544 131.272 93.4089 130.811 92.9125L130.818 92.8913L130.846 92.8204C130.86 92.7707 130.875 92.7211 130.882 92.6714C130.896 92.5722 130.896 92.4658 130.875 92.3665C130.832 92.1679 130.725 91.9765 130.569 91.8488C130.42 91.7283 130.186 91.6361 129.98 91.5581C129.767 91.4801 129.546 91.4375 129.355 91.4517C129.156 91.4588 129.014 91.5581 128.85 91.7212C128.531 92.0332 128.24 92.3878 127.963 92.7353C127.409 93.4373 126.911 94.1465 126.464 94.8485C126.244 95.196 126.038 95.5435 125.86 95.891C125.69 96.2314 125.505 96.593 125.498 96.9192C125.47 97.6851 125.399 98.3943 125.342 99.0609C125.214 100.394 125.086 101.536 124.98 102.458L124.973 102.415C125.257 103.266 125.484 103.933 125.647 104.436C125.782 104.911 125.853 105.16 125.839 105.16Z" fill="#EB996E"/>
<path d="M125.91 104.89L106.578 114.286L95.2138 89.2107L91.9538 82.2752C89.3686 78.3962 83.6157 77.9778 82.1171 82.3887C82.0674 82.5234 82.0248 82.6653 81.9893 82.8071C80.5475 87.9555 83.8501 104.308 91.8899 116.449C99.9297 128.59 101.237 133.469 108.247 131.405C115.257 129.349 134.831 110.315 134.831 110.315" fill="#FFBE9D"/>
<path d="M134.824 110.322C134.824 110.322 134.731 110.429 134.532 110.627C134.326 110.833 134.028 111.124 133.652 111.492C132.87 112.251 131.713 113.357 130.2 114.769C127.16 117.57 122.778 121.647 116.94 126.2C116.201 126.76 115.463 127.349 114.66 127.895C114.262 128.179 113.865 128.462 113.46 128.746C113.041 129.015 112.622 129.285 112.196 129.561C111.769 129.838 111.343 130.115 110.882 130.349C110.42 130.583 109.987 130.873 109.49 131.072C108.509 131.49 107.48 131.838 106.379 131.944C105.292 132.079 104.106 132.022 103.055 131.504C102.004 131.015 101.123 130.228 100.335 129.37C98.8006 127.604 97.5363 125.576 96.2153 123.519C94.9014 121.463 93.5803 119.335 92.1741 117.208C91.4781 116.137 90.782 115.038 90.1144 113.918C89.4752 112.776 88.8147 111.634 88.2394 110.429C87.0462 108.046 85.9738 105.55 85.0576 102.961C84.1343 100.373 83.3104 97.6993 82.6854 94.9478C82.2166 92.8133 81.826 90.6858 81.6129 88.5513C81.5774 88.0194 81.5419 87.4805 81.5064 86.9486C81.4851 86.4168 81.4993 85.8778 81.4922 85.353C81.5206 84.8212 81.5561 84.2893 81.62 83.7575C81.7337 83.2327 81.7976 82.7008 82.0036 82.2044C82.3587 81.1903 83.0547 80.2826 83.978 79.7366C84.9013 79.1834 85.9951 78.992 87.032 79.0842C89.1272 79.2756 90.988 80.5237 92.1031 82.1831L92.1102 82.1902L92.1173 82.2044C95.0718 88.4024 97.7068 94.3025 100.143 99.692C102.572 105.082 104.774 109.968 106.698 114.237L106.528 114.173C112.572 111.265 117.409 108.932 120.747 107.322C122.402 106.535 123.694 105.918 124.575 105.5C125.001 105.301 125.335 105.145 125.569 105.039C125.796 104.94 125.91 104.89 125.91 104.89C125.91 104.89 125.804 104.954 125.583 105.067C125.349 105.188 125.029 105.351 124.603 105.564C123.723 105.996 122.451 106.635 120.804 107.45C117.473 109.081 112.65 111.45 106.627 114.4L106.514 114.457L106.464 114.343C104.525 110.081 102.302 105.202 99.8517 99.8197C97.4014 94.4372 94.7593 88.5442 91.7906 82.3533L91.8048 82.3746C90.7394 80.7932 88.9638 79.6089 86.9894 79.4387C86.0164 79.3536 85.0007 79.5309 84.1556 80.0415C83.3033 80.545 82.6712 81.3747 82.3374 82.325C82.1385 82.793 82.0817 83.3107 81.9751 83.8071C81.9112 84.3177 81.8757 84.8354 81.8544 85.353C81.8615 85.8778 81.8473 86.4026 81.8757 86.9274C81.9112 87.4521 81.9467 87.984 81.9822 88.5088C82.1953 90.622 82.5788 92.7424 83.0476 94.8556C83.6655 97.593 84.4823 100.252 85.4056 102.826C86.3218 105.408 87.38 107.89 88.5661 110.258C89.1414 111.457 89.7877 112.591 90.4269 113.726C91.0945 114.847 91.7764 115.932 92.4724 117.002C93.8786 119.137 95.1997 121.264 96.5065 123.328C97.8204 125.377 99.0846 127.406 100.583 129.143C101.357 129.98 102.203 130.739 103.197 131.207C104.184 131.696 105.299 131.753 106.35 131.632C107.416 131.533 108.431 131.192 109.376 130.795C109.859 130.611 110.292 130.32 110.747 130.093C111.201 129.866 111.634 129.59 112.053 129.32C112.48 129.051 112.899 128.781 113.311 128.519C113.715 128.235 114.113 127.952 114.504 127.675C115.299 127.129 116.045 126.548 116.784 125.994C122.622 121.477 127.039 117.428 130.1 114.669C131.613 113.272 132.785 112.187 133.595 111.443C133.985 111.081 134.291 110.797 134.504 110.599C134.71 110.407 134.824 110.322 134.824 110.322Z" fill="#EB996E"/>
<path d="M105.533 120.754C105.434 120.747 105.441 119.243 105.739 117.421C106.038 115.598 106.514 114.173 106.613 114.201C106.712 114.229 106.4 115.676 106.109 117.484C105.81 119.286 105.64 120.761 105.533 120.754Z" fill="#EB996E"/>
<path d="M127.323 97.9756C127.231 97.9472 127.671 96.5786 128.737 95.1886C129.795 93.7916 130.995 93.0044 131.045 93.0824C131.116 93.1675 130.051 94.0611 129.028 95.4155C128.005 96.7558 127.43 98.0252 127.323 97.9756Z" fill="#EB996E"/>
</svg>
