<svg width="508" height="314" viewBox="0 0 508 314" fill="none" xmlns="http://www.w3.org/2000/svg">
<path fill-rule="evenodd" clip-rule="evenodd" d="M63.2029 131.164C60.9659 128.717 58.7308 126.067 56.5235 123.26C36.0325 97.2011 17.9524 57.6941 23.1893 43.7511C41.517 37.2242 103.23 70.7879 121.275 97.2372C132.665 113.932 129.453 131.035 119.269 141.046C117.561 142.725 115.657 144.203 113.594 145.449C103.35 151.626 89.163 152.018 75.4314 142.299C71.4582 139.487 67.3274 135.673 63.2029 131.164Z" fill="#31C5A1"/>
<path d="M22.6246 49.7243C22.6246 52.1937 22.9674 55.0641 23.6528 58.3195C24.9007 64.2448 27.2156 71.1426 30.533 78.8214C37.1211 94.0718 46.6956 110.189 56.8015 123.042C59.0301 125.876 61.2717 128.528 63.4639 130.925C67.715 135.574 71.8101 139.304 75.6356 142.011C88.0151 150.772 102.137 151.944 113.412 145.146C115.442 143.921 117.329 142.457 119.021 140.794C124.388 135.519 128.076 127.714 128.076 118.801C128.077 112.104 125.996 104.784 120.983 97.4355C112.674 85.257 93.9694 70.3135 72.1693 58.4388C50.5594 46.6664 31.9334 41.1612 23.4635 44.0306C22.9044 45.5916 22.6246 47.4946 22.6246 49.7243ZM128.832 118.914C128.832 119.838 128.793 120.76 128.714 121.678C128.076 129.127 124.81 136.095 119.516 141.298C117.785 143 115.854 144.498 113.777 145.75C102.254 152.699 87.8426 151.516 75.2274 142.588C71.3607 139.851 67.2273 136.088 62.9421 131.402L63.203 131.164L62.9421 131.402C60.7382 128.992 58.4853 126.326 56.2457 123.479C46.1038 110.58 36.4953 94.4067 29.884 79.1022C22.8645 62.8522 20.3693 50.2537 22.8585 43.6266L22.9162 43.4732L23.0707 43.418C27.48 41.848 34.6525 42.4976 43.813 45.2969C52.3234 47.8986 62.2457 52.2278 72.5074 57.8172C94.4006 69.743 113.199 84.7718 121.567 97.0375C126.348 104.045 128.832 111.553 128.832 118.914Z" fill="#9FE7D5"/>
<path d="M119.52 140.798L119.017 141.295L22.9378 43.9997L23.4408 43.5035L119.52 140.798Z" fill="#9FE7D5"/>
<path d="M62.4535 52.9492C61.4698 64.0057 60.1397 80.6607 60.1264 80.8271L59.4218 80.771C59.4351 80.6046 60.7654 63.9456 61.7493 52.887L62.4535 52.9492Z" fill="#9FE7D5"/>
<path d="M69.9034 56.6926L65.345 86.1406L64.6464 86.0323L69.2048 56.5843L69.9034 56.6926Z" fill="#9FE7D5"/>
<path d="M86.0689 107.764L46.4097 109.365L46.3811 108.658L86.0398 107.058L86.0689 107.764Z" fill="#95A9E4"/>
<path d="M111.685 85.8934L102.931 124.232L102.243 124.075L110.996 85.736L111.685 85.8934Z" fill="#95A9E4"/>
<path d="M98.2304 120.02L59.7984 127.55L59.6625 126.856L98.0951 119.327L98.2304 120.02Z" fill="#95A9E4"/>
<path d="M50.079 70.5669L49.9473 71.2617C46.1691 70.5449 36.1949 68.6169 25.2066 66.2017L25.3584 65.5109C36.3377 67.9251 46.3038 69.8511 50.079 70.5669Z" fill="#9FE7D5"/>
<path fill-rule="evenodd" clip-rule="evenodd" d="M55.4555 168.711C53.1901 167.873 50.8577 166.901 48.4911 165.819C26.5217 155.77 1.62805 136.204 0.370201 125.424C10.0677 115.081 61.2496 116.241 81.7638 127.358C94.7134 134.375 98.3377 146.528 95.0783 156.412C94.5319 158.069 93.792 159.662 92.8696 161.157C88.2928 168.576 79.2317 173.564 67.0934 171.847C63.5809 171.351 59.6323 170.258 55.4555 168.711Z" fill="#31C5A1"/>
<path d="M0.742116 125.545C1.42287 130.44 7.29193 137.742 16.888 145.622C26.2377 153.3 37.8102 160.545 48.6381 165.496C51.0258 166.589 53.3608 167.559 55.5781 168.38C59.8768 169.971 63.7677 171.02 67.1425 171.497C78.0473 173.038 87.5527 169.104 92.5687 160.971C93.472 159.507 94.2039 157.935 94.7423 156.301C95.4411 154.181 95.8191 151.881 95.8191 149.511C95.8201 141.724 91.7446 133.168 81.5954 127.668C72.1616 122.555 55.0745 119.118 37.0023 118.695C19.1419 118.278 5.28775 120.9 0.742116 125.545ZM96.554 149.41C96.554 151.812 96.175 154.214 95.414 156.522C94.8576 158.209 94.1027 159.831 93.1702 161.342C88.0019 169.721 78.2351 173.779 67.0438 172.197C63.6188 171.712 59.6787 170.652 55.3327 169.042C53.099 168.215 50.7476 167.239 48.344 166.14C37.4631 161.163 25.8343 153.883 16.4394 146.168C6.45126 137.965 0.6198 130.612 0.0189491 125.464L0 125.301L0.112189 125.181C5.56015 119.37 22.7491 117.656 37.0189 117.989C55.1961 118.413 72.4059 121.884 81.9321 127.046C88.0701 130.372 92.5286 135.085 94.8265 140.675C95.9755 143.471 96.554 146.441 96.554 149.41Z" fill="#9FE7D5"/>
<path d="M95.1887 156.075L94.9681 156.747L0.260384 125.759L0.480252 125.087L95.1887 156.075Z" fill="#9FE7D5"/>
<path d="M36.7586 137.086L36.1064 137.358C36.0594 137.245 31.3642 126.008 28.3124 118.515L28.967 118.248C32.0177 125.738 36.7116 136.973 36.7586 137.086Z" fill="#9FE7D5"/>
<path d="M41.9149 138.795L41.2444 139.019L34.3745 118.418L35.045 118.195L41.9149 138.795Z" fill="#9FE7D5"/>
<path d="M62.5121 146.007L37.3504 160.273L37.0016 159.659L62.1634 145.391L62.5121 146.007Z" fill="#9FE7D5"/>
<path d="M78.977 150.944L78.2921 151.119L71.1743 123.358L71.859 123.183L78.977 150.944Z" fill="#7D8EC5"/>
<path d="M74.4924 149.881L52.1034 167.581L51.665 167.026L74.0541 149.327L74.4924 149.881Z" fill="#9FE7D5"/>
<path d="M26.9115 134.415C24.2242 135.211 17.1182 137.289 9.19081 139.39L9.00984 138.707C16.9282 136.608 24.0264 134.532 26.7107 133.737L26.9115 134.415Z" fill="#9FE7D5"/>
<path fill-rule="evenodd" clip-rule="evenodd" d="M365.262 91.0274C369.596 88.5781 374.229 86.1999 379.082 83.916C424.129 62.7083 488.048 49.5633 506.689 61.9272C510.065 90.9532 440.137 169.964 395.344 187.46C367.069 198.504 343.118 188.037 331.899 169.757C330.017 166.692 328.494 163.406 327.368 159.966C321.781 142.891 325.989 121.993 344.841 105.172C350.296 100.304 357.27 95.544 365.262 91.0274Z" fill="#31C5A1"/>
<path d="M498.137 59.0871C494.523 58.2539 490.205 57.7887 485.211 57.6945C476.118 57.524 465.241 58.5868 452.883 60.8536C428.342 65.3553 401.525 73.9354 379.307 84.3954C374.407 86.7014 369.769 89.0885 365.523 91.4887C357.286 96.1437 350.447 100.881 345.194 105.567C328.198 120.733 321.723 141.008 327.873 159.801C328.98 163.185 330.487 166.441 332.351 169.478C338.263 179.111 348.442 187.141 361.489 190.145C371.288 192.403 382.705 191.826 395.15 186.964C415.776 178.908 443.952 156.569 468.682 128.665C493.196 101.003 507.532 75.5977 506.188 62.2342C504.092 60.8897 501.4 59.838 498.137 59.0871ZM361.068 191.213C359.715 190.901 358.38 190.534 357.062 190.109C346.374 186.664 337.277 179.534 331.446 170.033C329.539 166.925 327.998 163.594 326.864 160.131C320.579 140.924 327.167 120.23 344.487 104.775C349.796 100.038 356.698 95.2575 365 90.5643L365.262 91.0265L365 90.5643C369.27 88.1511 373.932 85.7519 378.855 83.4349C401.152 72.9378 428.064 64.3266 452.692 59.8089C478.841 55.0125 498.122 55.6071 506.982 61.4843L507.187 61.6206L507.216 61.8652C508.028 68.8483 504.66 79.1268 497.474 91.591C490.799 103.17 481.117 116.234 469.477 129.369C444.642 157.392 416.31 179.84 395.536 187.954C383.668 192.589 371.842 193.695 361.068 191.213Z" fill="#9FE7D5"/>
<path d="M332.177 170.207L331.62 169.304L506.41 61.4753L506.968 62.3786L332.177 170.207Z" fill="#9FE7D5"/>
<path d="M479.991 116.296C464.141 111.13 440.213 103.568 439.973 103.493L440.293 102.48C440.533 102.556 464.466 110.118 480.321 115.286L479.991 116.296Z" fill="#9FE7D5"/>
<path d="M472.001 125.937L430.437 109.339L430.831 108.352L472.395 124.951L472.001 125.937Z" fill="#9FE7D5"/>
<path d="M391.801 132.382L402.827 73.7964L403.87 73.9919L392.845 132.578L391.801 132.382Z" fill="#9FE7D5"/>
<path d="M415.18 177.248L362.015 151.513L362.477 150.557L415.642 176.293L415.18 177.248Z" fill="#95A9E4"/>
<path d="M369.765 146.051L371.698 87.2621L372.76 87.2972L370.826 146.086L369.765 146.051Z" fill="#95A9E4"/>
<path d="M458.376 92.2441L457.404 91.818C459.727 86.5294 465.91 72.5804 473.15 57.3119L474.11 57.7671C466.875 73.0225 460.697 86.9605 458.376 92.2441Z" fill="#9FE7D5"/>
<path fill-rule="evenodd" clip-rule="evenodd" d="M312.917 67.0301C314.907 63.9973 317.116 60.9103 319.498 57.8123C341.611 29.044 378.64 -0.796005 394.842 0.996628C406.712 18.6773 387.762 93.1977 364.575 119.476C349.939 136.063 330.93 137.271 317.563 129.17C315.321 127.811 313.238 126.191 311.362 124.338C302.045 115.138 297.801 100.194 304.404 83.0064C306.315 78.0325 309.245 72.6226 312.917 67.0301Z" fill="#31C5A1"/>
<path d="M394.537 1.50043C387.145 0.847733 374.479 6.97658 359.71 18.365C345.32 29.4616 330.817 43.9571 319.919 58.1357C317.515 61.2627 315.309 64.3537 313.36 67.3224C309.582 73.0772 306.735 78.419 304.899 83.1974C298.968 98.6382 301.522 113.877 311.735 123.961C313.573 125.776 315.627 127.375 317.837 128.716C320.704 130.453 323.943 131.782 327.412 132.581C338.809 135.207 352.706 132.126 364.177 119.125C374.839 107.041 385.631 83.1903 392.341 56.8814C398.971 30.8803 399.804 9.71964 394.537 1.50043ZM327.313 133.69C323.796 132.88 320.409 131.516 317.287 129.624C315.005 128.241 312.886 126.589 310.989 124.716C300.467 114.327 297.821 98.6633 303.908 82.8164C305.771 77.9669 308.653 72.5579 312.472 66.7389C314.436 63.7482 316.657 60.6361 319.076 57.489C330.029 43.2412 344.603 28.6746 359.063 17.5238C374.434 5.67021 387.162 -0.386414 394.901 0.469788L395.146 0.496857L395.283 0.70137C401.951 10.634 398.667 36.3705 393.369 57.1441C386.621 83.6054 375.741 107.624 364.974 119.827C358.037 127.689 349.635 132.627 340.679 134.105C336.199 134.845 331.657 134.69 327.313 133.69Z" fill="#31C5A1"/>
<path d="M318.017 129.444L317.107 128.896L394.388 0.723999L395.297 1.27245L318.017 129.444Z" fill="#9FE7D5"/>
<path d="M365.505 50.3252L365.327 49.2785C365.507 49.2484 383.538 46.1634 395.535 44.2234L395.704 45.2711C383.711 47.2111 365.687 50.2941 365.505 50.3252Z" fill="#9FE7D5"/>
<path d="M361.267 57.2969L361.166 56.2401L393.633 53.1291L393.734 54.1859L361.267 57.2969Z" fill="#9FE7D5"/>
<path d="M343.769 85.0127L331.369 43.3762L332.387 43.0734L344.787 84.7099L343.769 85.0127Z" fill="#9FE7D5"/>
<path d="M330.993 107.446L330.967 106.385L373.998 105.324L374.024 106.386L330.993 107.446Z" fill="#7D8EC5"/>
<path d="M334.059 101.241L315.701 62.5052L316.66 62.051L335.019 100.786L334.059 101.241Z" fill="#9FE7D5"/>
<path d="M372.737 36.8135C372.478 32.6126 371.832 21.511 371.429 9.20017L372.489 9.16508C372.892 21.4628 373.538 32.5515 373.797 36.7483L372.737 36.8135Z" fill="#9FE7D5"/>
<path fill-rule="evenodd" clip-rule="evenodd" d="M144.656 283.244C310.345 353.806 545.61 140.389 333.195 78.9209C280.875 63.7828 190.499 20.8881 129.305 38.1276C46.8731 61.3495 27.0394 233.156 144.656 283.244Z" fill="#F9F7FF"/>
<path fill-rule="evenodd" clip-rule="evenodd" d="M217.36 258.532C273.89 260.84 294.881 267.665 348.981 271.57C354.731 270.292 379.007 279.555 363.995 299.36C348.981 319.164 318.993 309.842 275.192 312.457C191.567 317.449 48.1699 310.707 89.6884 278.487C101.444 269.366 131.786 261.212 170.708 258.374C173.791 258.149 177.026 257.989 180.417 257.898C183.552 257.815 186.819 257.792 190.224 257.834C200.162 257.955 209.137 258.196 217.36 258.532Z" fill="#E0F7F1"/>
<path fill-rule="evenodd" clip-rule="evenodd" d="M419.18 231.959C424.076 218.902 416.613 205.845 403.13 206.759C396.313 207.22 387.958 211.251 378.883 220.656C361.306 238.874 347.676 262.287 340.295 276.433H364.147C365.114 275.073 366.249 273.824 367.581 272.746C377.9 264.392 411.808 251.616 419.18 231.959Z" fill="#31C5A1"/>
<path d="M341.092 275.949H363.9C364.9 274.579 366.035 273.376 367.277 272.37C370.287 269.934 375.235 267.151 380.964 263.93C388.082 259.927 396.149 255.391 403.204 250.049C411.357 243.877 416.434 237.903 418.728 231.789C421.234 225.104 420.534 218.162 416.854 213.218C413.699 208.979 408.836 206.855 403.162 207.239C397.958 207.592 389.582 210.263 379.231 220.991C361.626 239.235 347.913 262.966 341.092 275.949ZM364.396 276.914H339.499L339.867 276.208C344.687 266.972 349.9 258.089 355.362 249.804C362.919 238.344 370.716 228.425 378.536 220.32C389.1 209.372 397.724 206.64 403.097 206.276C406.161 206.068 409.008 206.552 411.556 207.715C413.974 208.817 416.017 210.476 417.629 212.641C421.505 217.85 422.254 225.134 419.631 232.127C417.272 238.419 412.09 244.532 403.786 250.819C396.678 256.201 388.581 260.753 381.438 264.771C375.746 267.971 370.83 270.735 367.885 273.12C366.649 274.12 365.525 275.328 364.54 276.712L364.396 276.914Z" fill="#31C5A1"/>
<path fill-rule="evenodd" clip-rule="evenodd" d="M362.328 265.234L377.889 265.387C378.349 265.392 378.721 265.771 378.716 266.231C378.712 266.691 378.333 267.063 377.871 267.059L360.88 266.891C357.983 270.216 355.109 273.571 352.305 276.964C352.013 277.319 351.484 277.369 351.129 277.075C350.775 276.782 350.724 276.254 351.017 275.899C354.872 271.234 358.86 266.639 362.858 262.097C366.149 258.357 369.479 254.64 372.849 250.96L369.266 230.692C369.186 230.239 369.49 229.804 369.944 229.724C370.397 229.644 370.832 229.949 370.912 230.402L374.273 249.411C379.333 243.922 384.491 238.517 389.757 233.243C397.707 225.284 406.182 217.247 415.139 210.433C415.505 210.154 416.031 210.226 416.31 210.593C416.588 210.959 416.517 211.485 416.15 211.764C407.254 218.53 398.835 226.52 390.94 234.424C389.843 235.523 388.751 236.627 387.663 237.737L413.276 240.786C413.733 240.841 414.062 241.258 414.007 241.715C413.953 242.171 413.536 242.5 413.078 242.446L386.19 239.245C382.217 243.331 378.306 247.485 374.451 251.687C374.398 251.769 374.332 251.841 374.255 251.9C370.832 255.634 367.454 259.406 364.112 263.201C363.517 263.877 362.922 264.555 362.328 265.234Z" fill="#9FE7D5"/>
<path fill-rule="evenodd" clip-rule="evenodd" d="M408.959 134.638C387.587 123.929 368.186 152.576 354.152 188.92C342.69 218.603 334.807 253.421 332.355 276.126L343.084 274.4C387.254 200.784 436.652 148.515 408.959 134.638Z" fill="#31C5A1"/>
<path d="M399.823 132.776C397.466 132.776 395.102 133.232 392.743 134.145C376.219 140.532 362.841 167.537 354.527 189.066C342.766 219.522 335.172 254.365 332.812 275.646L342.835 274.033C355.039 253.706 367.708 234.902 378.89 218.306C390.663 200.832 400.832 185.74 407.68 173.091C415.118 159.354 417.789 149.933 416.086 143.446C415.113 139.738 412.723 136.975 408.778 134.999C405.823 133.518 402.829 132.776 399.823 132.776ZM331.898 276.607L331.955 276.083C333.218 264.387 335.892 249.812 339.483 235.046C343.463 218.685 348.405 202.686 353.777 188.776C362.149 167.096 375.655 139.887 392.452 133.394C398.04 131.233 403.655 131.532 409.139 134.28C413.302 136.365 415.829 139.297 416.865 143.241C418.623 149.939 415.93 159.546 408.387 173.474C401.52 186.157 391.342 201.264 379.557 218.756C368.352 235.387 355.651 254.237 343.428 274.607L343.332 274.768L331.898 276.607Z" fill="#31C5A1"/>
<path fill-rule="evenodd" clip-rule="evenodd" d="M340.532 262.853L352.184 256.76C352.568 256.505 353.088 256.61 353.343 256.994C353.598 257.377 353.491 257.898 353.108 258.152L340.06 265.171C339.389 268.572 338.811 271.987 338.332 275.414C338.268 275.869 337.844 276.189 337.389 276.126C336.933 276.062 336.613 275.638 336.677 275.182C337.93 266.214 339.856 257.323 342.347 248.56L338.684 237.026C338.545 236.587 338.789 236.116 339.229 235.976C339.667 235.837 340.139 236.081 340.277 236.52L343.186 245.68C346.839 233.47 351.572 221.52 357.094 209.972L352.552 191.18C352.444 190.731 352.72 190.278 353.169 190.17C353.616 190.062 354.069 190.338 354.177 190.787L358.241 207.602C361.805 200.325 365.677 193.214 369.782 186.304L364.323 164.733C364.21 164.287 364.482 163.831 364.928 163.719C365.374 163.605 365.83 163.877 365.944 164.323L370.995 184.281C372.768 181.346 374.582 178.45 376.432 175.593C380.44 169.402 384.662 163.322 389.08 157.392L386.642 136.542C386.589 136.085 386.918 135.668 387.375 135.615C387.832 135.562 388.249 135.891 388.302 136.348L390.536 155.453C393.122 152.037 395.773 148.673 398.487 145.37C401.622 141.554 404.929 137.626 408.356 134.06C408.675 133.728 409.206 133.717 409.538 134.036C409.87 134.355 409.88 134.886 409.561 135.218C406.164 138.752 402.886 142.649 399.778 146.432C396.684 150.198 393.671 154.044 390.746 157.956C390.688 158.12 390.581 158.263 390.442 158.363C387.748 161.977 385.127 165.648 382.585 169.365L412.293 161.539C412.738 161.423 413.197 161.689 413.314 162.135C413.431 162.58 413.163 163.039 412.718 163.156L381.156 171.471C380.034 173.139 378.926 174.816 377.834 176.502C375.677 179.835 373.566 183.224 371.514 186.664C371.477 186.85 371.376 187.021 371.228 187.143C370.337 188.643 369.457 190.153 368.587 191.672L399.393 186.286C399.846 186.207 400.281 186.511 400.36 186.965C400.44 187.418 400.135 187.853 399.681 187.932L367.52 193.556C364.454 199.005 361.544 204.569 358.823 210.231C358.801 210.417 358.718 210.59 358.589 210.721C356.793 214.477 355.082 218.274 353.464 222.11L377.005 219.134C377.46 219.065 377.887 219.379 377.957 219.835C378.026 220.29 377.711 220.717 377.256 220.786L352.711 223.916C349.372 232.012 346.455 240.272 344.058 248.65C344.049 248.751 344.02 248.848 343.976 248.939C342.665 253.544 341.512 258.184 340.532 262.853Z" fill="#9FE7D5"/>
<path fill-rule="evenodd" clip-rule="evenodd" d="M146.282 32.1293C127.031 30.8169 106.904 53.5687 109.091 75.009C111.279 96.4484 114.342 127.952 102.528 150.703C90.7148 173.456 90.2767 223.336 155.471 212.398C211.335 203.025 219.009 161.845 220.061 150.251C220.236 148.315 220.228 147.203 220.228 147.203C216.727 120.951 202.726 113.95 192.662 81.1338C182.599 48.3181 165.535 33.4417 146.282 32.1293Z" fill="#31C5A1"/>
<path d="M144.684 32.5573C136.79 32.5573 128.444 36.5487 121.552 43.6781C112.958 52.565 108.48 64.2592 109.572 74.9598C110.592 84.9636 111.991 98.665 111.543 112.379C111.026 128.184 108.218 140.793 102.957 150.926C95.8302 164.651 93.7658 185.622 103.609 199.149C112.714 211.661 130.62 216.078 155.391 211.921C210.596 202.659 218.48 162.343 219.581 150.207C219.736 148.491 219.745 147.421 219.745 147.235C217.882 133.303 213.018 124.792 207.385 114.939C202.469 106.337 196.897 96.5866 192.201 81.2751C182.872 50.8516 166.982 34.0241 146.25 32.6105C145.731 32.5754 145.209 32.5573 144.684 32.5573ZM138.362 214.423C132.137 214.423 126.53 213.709 121.591 212.282C113.511 209.949 107.198 205.721 102.828 199.717C98.0168 193.106 95.6487 184.389 95.9795 174.511C96.2583 166.194 98.489 157.436 102.1 150.481C113.974 127.612 110.747 95.9851 108.611 75.0571C108.046 69.5127 108.954 63.5524 111.238 57.8185C113.393 52.4086 116.719 47.2864 120.857 43.0063C128.406 35.1992 137.685 31.0595 146.315 31.648C156.425 32.3368 165.49 36.6529 173.261 44.4781C181.58 52.8537 188.263 65.1384 193.124 80.9924C197.788 96.2016 203.332 105.902 208.223 114.46C213.91 124.408 218.822 133.002 220.707 147.139L220.711 147.199C220.711 147.245 220.718 148.357 220.542 150.294C220.27 153.291 219.581 158.044 217.842 163.677C215.749 170.457 212.679 176.768 208.717 182.434C203.621 189.718 197.069 195.888 189.238 200.773C179.856 206.626 168.522 210.697 155.551 212.874C149.395 213.907 143.656 214.423 138.362 214.423Z" fill="#31C5A1"/>
<path fill-rule="evenodd" clip-rule="evenodd" d="M120.18 165.319L109.224 126.12C109.114 125.725 109.345 125.314 109.74 125.204C110.135 125.094 110.547 125.325 110.657 125.72L122.121 166.733L153.356 189.502C154.038 181.601 154.507 173.674 154.79 165.739C154.739 165.578 154.743 165.401 154.807 165.239C155.185 154.35 155.218 143.446 154.978 132.57C154.825 125.599 154.558 118.627 154.188 111.66L110.468 60.2272C110.202 59.9155 110.24 59.4442 110.553 59.1785C110.865 58.9129 111.336 58.951 111.602 59.2638L132.034 83.2998L128.452 36.9111C128.42 36.503 128.728 36.1441 129.136 36.112C129.545 36.0809 129.904 36.3887 129.936 36.7968L133.675 85.2318L154.053 109.204C153.541 100.193 152.856 91.1922 152.015 82.212C151.827 80.1978 151.63 78.1836 151.426 76.1704C151.37 76.0341 151.355 75.8847 151.383 75.7413C150.377 65.8909 149.179 56.0525 147.765 46.2562C147.093 41.5952 146.392 36.897 145.551 32.263C145.477 31.859 145.747 31.471 146.15 31.3978C146.553 31.3246 146.942 31.5933 147.015 31.9964C147.86 36.6494 148.563 41.3655 149.238 46.0436C150.586 55.3777 151.737 64.7489 152.713 74.1331L176.222 48.6173C176.499 48.3155 176.972 48.2964 177.273 48.5742C177.575 48.8519 177.594 49.3241 177.317 49.6259L152.916 76.1093C153.117 78.0964 153.311 80.0845 153.497 82.0726C155.068 98.848 156.095 115.692 156.466 132.538C156.688 142.651 156.677 152.788 156.373 162.915L199.449 99.8245C199.679 99.4856 200.145 99.3984 200.482 99.629C200.821 99.8606 200.908 100.325 200.678 100.664L176.69 135.797L215.391 128.866C215.795 128.794 216.182 129.064 216.254 129.468C216.326 129.871 216.057 130.259 215.654 130.331L175.514 137.52L156.281 165.69C155.995 173.772 155.516 181.846 154.815 189.894C152.827 212.756 149.017 236.144 141.787 257.97C141.658 258.359 141.235 258.57 140.846 258.442C140.457 258.313 140.245 257.891 140.374 257.502C147.412 236.255 151.19 213.51 153.203 191.231L101.128 153.273C100.797 153.032 100.724 152.565 100.965 152.234C101.206 151.903 101.673 151.829 102.005 152.07L120.18 165.319Z" fill="#9FE7D5"/>
<path fill-rule="evenodd" clip-rule="evenodd" d="M178.275 256.947C148.988 253.558 137.855 232.985 119.459 237.825C101.064 242.667 89.6883 278.488 89.6883 278.488H230.501C225.062 258.864 205.408 260.087 178.275 256.947Z" fill="#31C5A1"/>
<path d="M90.3571 278.005H229.859C227.679 270.726 223.253 266.009 215.976 263.188C208.987 260.477 199.826 259.59 189.216 258.563C185.688 258.221 182.041 257.868 178.22 257.426C164.002 255.781 154.165 250.188 145.486 245.255C136.23 239.991 128.919 235.834 119.582 238.292C110.247 240.748 102.748 251.562 98.1001 260.2C93.81 268.176 91.101 275.808 90.3571 278.005ZM231.136 278.971H89.0287L89.2282 278.342C89.2563 278.252 92.1447 269.234 97.2499 259.743C100.255 254.158 103.431 249.5 106.689 245.896C110.793 241.36 115.048 238.486 119.336 237.358C123.799 236.183 128.104 236.381 132.882 237.979C137.157 239.409 141.435 241.841 145.964 244.415C154.562 249.303 164.308 254.844 178.331 256.467C182.143 256.908 185.786 257.261 189.309 257.602C210.728 259.676 226.204 261.175 230.966 278.359L231.136 278.971Z" fill="#9FE7D5"/>
<path fill-rule="evenodd" clip-rule="evenodd" d="M209.699 278.586L207.547 260.631C207.492 260.181 207.815 259.77 208.265 259.716C208.716 259.662 209.128 259.985 209.182 260.436L211.334 278.39C211.389 278.84 211.066 279.251 210.616 279.306C210.165 279.36 209.753 279.036 209.699 278.586Z" fill="#EFF4BF"/>
<path fill-rule="evenodd" clip-rule="evenodd" d="M169.195 277.995L184.748 257.213C185.019 256.85 185.538 256.775 185.901 257.047C186.264 257.318 186.338 257.837 186.066 258.2L170.513 278.982C170.241 279.345 169.724 279.42 169.36 279.148C168.998 278.876 168.923 278.358 169.195 277.995Z" fill="#EFF4BF"/>
<path fill-rule="evenodd" clip-rule="evenodd" d="M129.838 259.821L111.855 241.873C111.535 241.552 111.535 241.03 111.854 240.709C112.175 240.387 112.698 240.387 113.018 240.708L130.495 258.15L137.455 240.45C137.621 240.027 138.1 239.818 138.522 239.984C138.944 240.151 139.153 240.63 138.988 241.052L124.148 278.79C123.982 279.212 123.503 279.42 123.08 279.255C122.658 279.088 122.45 278.609 122.615 278.187L129.838 259.821Z" fill="#9FE7D5"/>
<path fill-rule="evenodd" clip-rule="evenodd" d="M157.859 214.174C157.859 194.489 181.918 187.928 206.852 213.299C226.843 233.642 232.775 268.044 234.34 280.883H164.565C164.125 276.675 163.873 271.546 163.983 265.355C164.42 240.858 157.859 233.859 157.859 214.174Z" fill="#31C5A1"/>
<path d="M165.001 280.4H233.794C232.051 266.515 225.979 233.45 206.508 213.637C190.566 197.416 176.137 195.215 167.949 198.564C161.844 201.063 158.342 206.752 158.342 214.173C158.342 223.234 159.732 229.555 161.204 236.248C162.924 244.066 164.702 252.15 164.465 265.362C164.368 270.81 164.549 275.866 165.001 280.4ZM234.885 281.365H164.13L164.085 280.932C163.596 276.25 163.4 271.005 163.501 265.345C163.735 252.247 161.969 244.219 160.262 236.455C158.778 229.711 157.376 223.339 157.376 214.173C157.376 206.34 161.097 200.325 167.584 197.671C172.583 195.626 178.717 195.768 185.32 198.083C192.561 200.621 200.127 205.766 207.197 212.961C215.868 221.784 222.856 234.163 227.964 249.754C232.213 262.72 234.083 274.786 234.819 280.824L234.885 281.365Z" fill="#31C5A1"/>
<path fill-rule="evenodd" clip-rule="evenodd" d="M206.187 241.28L201.198 207.349C201.138 206.943 200.759 206.661 200.354 206.721C199.948 206.781 199.666 207.16 199.725 207.565L204.913 242.842L193.806 256.462C191.408 247.979 188.834 239.534 186.017 231.194C183.879 224.868 181.592 218.568 179.026 212.403C176.825 207.113 174.372 201.734 171.436 196.807C171.227 196.454 170.769 196.339 170.417 196.548C170.065 196.758 169.949 197.216 170.158 197.568C173.057 202.434 175.479 207.75 177.652 212.975C179.841 218.235 181.827 223.594 183.689 228.984L158.23 215.627C157.867 215.437 157.416 215.578 157.226 215.94C157.035 216.303 157.177 216.755 157.539 216.945L184.391 231.032C184.463 231.245 184.535 231.458 184.606 231.67C187.558 240.405 190.24 249.254 192.732 258.141C192.741 258.216 192.762 258.289 192.793 258.358C193.446 260.687 194.086 263.019 194.713 265.352C196.115 270.559 197.488 275.805 198.728 281.055C198.822 281.454 199.225 281.702 199.623 281.608C200.022 281.514 200.271 281.112 200.177 280.713C198.932 275.448 197.556 270.187 196.15 264.965C195.544 262.713 194.927 260.461 194.298 258.213L218.499 228.537C218.758 228.219 218.71 227.749 218.393 227.49C218.075 227.231 217.605 227.279 217.346 227.597L206.187 241.28Z" fill="#9FE7D5"/>
<path fill-rule="evenodd" clip-rule="evenodd" d="M190.142 81.9385L228.937 99.3324V112.374L191.146 106.376L190.142 89.5391V81.9385Z" fill="#FF9362"/>
<path fill-rule="evenodd" clip-rule="evenodd" d="M194.569 106.268C192.315 125.094 189.256 141.409 189.178 141.823C189.177 141.828 189.177 141.831 189.177 141.831C188.484 144.932 187.724 147.883 186.891 150.547C186.596 150.719 186.243 150.866 185.841 150.992C180.795 152.569 168.109 150.758 168.109 150.758C173.304 157.629 176.804 162.882 176.804 162.882C176.627 163.698 176.29 164.515 175.859 165.306C174.477 167.837 172.111 170.11 170.748 171.298C170.113 171.85 169.696 172.169 169.696 172.169C169.696 172.169 169.177 171.8 168.267 171.121C164.503 168.313 154.039 160.178 145.864 150.731C139.551 143.435 134.602 135.356 135.158 128.345C136.608 110.062 151.12 88.2934 158.666 83.3597C166.213 78.4259 175.211 77.5557 175.211 77.5557C175.211 77.5557 180.361 82.9987 190.012 81.9099C190.012 81.9099 190.072 81.94 190.185 82.0012C190.722 82.7952 196.227 91.3473 194.569 106.268Z" fill="#FF9362"/>
<path fill-rule="evenodd" clip-rule="evenodd" d="M168.266 171.121C164.502 168.312 154.039 160.176 145.864 150.73C145.864 150.73 138.095 173.038 135.193 215.991C122.568 237.903 110.234 286.08 110.234 286.08C110.49 286.359 110.762 286.619 111.046 286.86C115.078 290.277 121.779 290.053 124.313 289.823C124.951 289.766 125.325 289.708 125.325 289.708C125.325 289.708 146.221 234.855 154.057 218.023C161.894 201.19 168.266 171.121 168.266 171.121Z" fill="#CFC8EB"/>
<path fill-rule="evenodd" clip-rule="evenodd" d="M168.266 171.121C168.266 171.121 172.461 194.695 184.155 217.024C179.165 233.834 175.099 285.355 175.099 285.355C175.444 285.575 175.804 285.776 176.176 285.957C180.879 288.242 187.495 287.446 189.718 287.087C190.204 287.008 190.481 286.951 190.481 286.951C190.481 286.951 203.54 231.518 202.09 214.975C200.638 198.432 185.841 150.991 185.841 150.991C180.797 152.569 168.109 150.758 168.109 150.758C173.303 157.628 176.805 162.88 176.805 162.88C176.627 163.697 176.291 164.515 175.859 165.306C175.859 165.306 185.077 167.089 184.931 168.831C184.787 170.571 180.107 169.556 180.107 169.556C180.107 169.556 189.66 176.335 187.627 178.657C185.596 180.979 178.838 182.179 170.748 171.296C170.112 171.85 169.695 172.168 169.695 172.168C169.695 172.168 169.177 171.8 168.266 171.121Z" fill="#CFC8EB"/>
<path fill-rule="evenodd" clip-rule="evenodd" d="M170.748 171.296C178.838 182.179 185.596 180.979 187.627 178.657C189.659 176.335 180.107 169.556 180.107 169.556C180.107 169.556 184.787 170.571 184.931 168.831C185.077 167.089 175.859 165.306 175.859 165.306C174.477 167.836 172.111 170.108 170.748 171.296Z" fill="#E3817E"/>
<path fill-rule="evenodd" clip-rule="evenodd" d="M199.985 302.986C204.628 300.955 189.718 287.088 189.718 287.088C187.495 287.447 180.879 288.243 176.176 285.958C176.176 285.958 174.736 292.03 176.694 295.441C178.653 298.851 195.341 305.018 199.985 302.986Z" fill="#90A6DF"/>
<path fill-rule="evenodd" clip-rule="evenodd" d="M132.653 304.219C135.337 300.011 124.313 289.824 124.313 289.824C121.779 290.053 115.078 290.278 111.046 286.861C111.046 286.861 108.201 292.175 112.047 297.834C115.893 303.493 129.968 308.427 132.653 304.219Z" fill="#90A6DF"/>
<path fill-rule="evenodd" clip-rule="evenodd" d="M192.914 71.3878C200.459 71.098 203.144 48.6782 203.144 48.6782C196.761 49.4772 187.979 46.7191 187.979 46.7191C187.979 46.7191 188.485 52.6283 184.787 53.4665C184.787 53.4665 183.056 52.9261 182.023 53.2449C181.859 53.2961 181.714 53.3673 181.595 53.4665C180.724 54.1924 180.724 56.2236 182.248 57.0217L175.21 77.5557C175.21 77.5557 180.361 82.9967 190.011 81.9089L192.478 71.3978C192.62 71.3968 192.765 71.3938 192.914 71.3878Z" fill="#E3817E"/>
<path fill-rule="evenodd" clip-rule="evenodd" d="M187.979 46.7194C187.979 46.7194 196.761 49.4775 203.144 48.6784C209.529 47.8794 200.386 36.1982 185.585 42.9456C185.585 42.9456 180.493 42.8664 182.023 53.2452C183.056 52.9264 184.787 53.4668 184.787 53.4668C188.485 52.6286 187.979 46.7194 187.979 46.7194Z" fill="#3A3481"/>
<path fill-rule="evenodd" clip-rule="evenodd" d="M142.62 163.444C141.018 170.471 139.738 177.588 138.678 184.716C137.136 195.089 136.064 205.54 135.357 216.003C135.351 216.093 135.272 216.161 135.182 216.155C135.092 216.149 135.022 216.071 135.029 215.98C135.736 205.509 136.809 195.048 138.352 184.668C139.413 177.531 140.695 170.406 142.299 163.371C142.319 163.282 142.407 163.227 142.497 163.247C142.585 163.267 142.64 163.356 142.62 163.444Z" fill="#95A9E4"/>
<path d="M142.46 163.273C142.435 163.273 142.41 163.28 142.388 163.294C142.358 163.313 142.337 163.342 142.329 163.377C140.819 169.999 139.528 176.964 138.382 184.671C136.914 194.549 135.795 205.083 135.06 215.982C135.057 216.017 135.069 216.052 135.093 216.079C135.116 216.106 135.149 216.122 135.184 216.124C135.22 216.126 135.254 216.115 135.281 216.091C135.308 216.068 135.324 216.035 135.327 216C136.063 205.108 137.18 194.581 138.648 184.71C139.792 177.01 141.082 170.051 142.591 163.437C142.598 163.402 142.592 163.366 142.573 163.336C142.554 163.305 142.525 163.284 142.49 163.277C142.48 163.274 142.47 163.273 142.46 163.273ZM135.194 216.186C135.189 216.186 135.185 216.186 135.18 216.186C135.129 216.182 135.081 216.158 135.046 216.119C135.012 216.079 134.995 216.029 134.998 215.978C135.735 205.077 136.853 194.542 138.322 184.662C139.468 176.953 140.759 169.987 142.27 163.364C142.281 163.313 142.312 163.27 142.356 163.242C142.4 163.215 142.453 163.206 142.503 163.217C142.554 163.229 142.597 163.259 142.625 163.303C142.652 163.347 142.661 163.399 142.65 163.45C141.142 170.063 139.852 177.021 138.708 184.719C137.24 194.589 136.123 205.114 135.387 216.004C135.384 216.056 135.36 216.103 135.321 216.137C135.285 216.169 135.24 216.186 135.194 216.186Z" fill="#95A9E4"/>
<path fill-rule="evenodd" clip-rule="evenodd" d="M188.144 46.7039C188.259 48.0353 188.059 49.7928 187.579 51.025C187.08 52.3053 186.216 53.3119 184.824 53.6267C184.736 53.6468 184.647 53.5917 184.626 53.5024C184.606 53.4142 184.663 53.326 184.751 53.3059C185.454 53.1465 186.037 52.7876 186.503 52.2382C187.636 50.9037 187.962 48.4213 187.816 46.733C187.808 46.6427 187.875 46.5625 187.965 46.5545C188.055 46.5465 188.136 46.6136 188.144 46.7039Z" fill="white"/>
<path d="M187.979 46.5848C187.976 46.5848 187.972 46.5848 187.968 46.5848C187.932 46.5878 187.9 46.6049 187.877 46.633C187.854 46.66 187.843 46.6951 187.846 46.7302C187.996 48.4667 187.647 50.9371 186.526 52.2585C186.055 52.8139 185.459 53.1769 184.758 53.3363C184.723 53.3443 184.693 53.3653 184.673 53.3954C184.654 53.4255 184.648 53.4616 184.656 53.4967C184.664 53.5318 184.685 53.5609 184.716 53.5799C184.746 53.599 184.782 53.606 184.817 53.5979C186.073 53.3132 186.992 52.444 187.551 51.0143C188.008 49.8402 188.235 48.1098 188.112 46.7072C188.109 46.6721 188.093 46.639 188.065 46.6159C188.041 46.5959 188.011 46.5848 187.979 46.5848ZM184.787 53.6621C184.751 53.6621 184.715 53.6521 184.683 53.632C184.639 53.604 184.608 53.5609 184.597 53.5097C184.585 53.4596 184.594 53.4064 184.622 53.3623C184.65 53.3182 184.693 53.2881 184.744 53.2771C185.432 53.1207 186.017 52.7648 186.48 52.2194C187.59 50.911 187.935 48.4597 187.784 46.7352C187.78 46.6841 187.796 46.633 187.83 46.5939C187.864 46.5538 187.911 46.5287 187.962 46.5247C188.014 46.5197 188.064 46.5357 188.104 46.5698C188.144 46.6029 188.168 46.65 188.173 46.7021C188.296 48.1128 188.068 49.8553 187.607 51.0363C187.042 52.4861 186.107 53.3673 184.83 53.6571C184.816 53.6601 184.802 53.6621 184.787 53.6621Z" fill="white"/>
<path fill-rule="evenodd" clip-rule="evenodd" d="M192.27 71.562C189.691 71.5339 187.273 70.7138 185.679 68.5843C185.076 67.7782 184.478 66.5491 184.335 65.5334C184.322 65.4442 184.385 65.361 184.474 65.3479C184.564 65.3349 184.648 65.3981 184.661 65.4883C184.796 66.4468 185.373 67.6258 185.943 68.3868C187.515 70.4872 189.924 71.2472 192.474 71.2331C192.487 71.2321 192.501 71.2342 192.515 71.2372C192.552 71.2462 192.584 71.2672 192.606 71.2943C192.625 71.3194 192.638 71.3494 192.641 71.3825C192.643 71.3996 192.642 71.4176 192.638 71.4347L190.172 81.9458C190.151 82.034 190.062 82.0892 189.974 82.0691C189.886 82.0481 189.831 81.9588 189.851 81.8706L192.27 71.562Z" fill="white"/>
<path d="M184.497 65.3773C184.491 65.3773 184.485 65.3773 184.478 65.3783C184.405 65.3883 184.354 65.4565 184.365 65.5297C184.515 66.5925 185.146 67.8206 185.703 68.5666C187.133 70.4755 189.404 71.5011 192.27 71.5312L192.308 71.5322L189.881 81.8779C189.864 81.9501 189.909 82.0223 189.981 82.0393C190.052 82.0564 190.126 82.0113 190.142 81.9391L192.608 71.4279C192.611 71.4139 192.612 71.3999 192.611 71.3858C192.609 71.3598 192.599 71.3347 192.582 71.3136C192.563 71.2906 192.538 71.2746 192.508 71.2675C192.497 71.2645 192.486 71.2635 192.475 71.2635C189.597 71.2806 187.329 70.291 185.918 68.4061C185.38 67.6873 184.774 66.5082 184.629 65.4926C184.62 65.4254 184.563 65.3773 184.497 65.3773ZM190.011 82.1035C189.996 82.1035 189.982 82.1025 189.967 82.0985C189.862 82.0744 189.797 81.9692 189.822 81.8639L192.232 71.5914C189.363 71.5523 187.089 70.5196 185.655 68.6027C185.092 67.8507 184.456 66.6125 184.303 65.5387C184.288 65.4325 184.364 65.3332 184.47 65.3182C184.576 65.3031 184.675 65.3773 184.69 65.4836C184.833 66.4892 185.434 67.6572 185.967 68.3691C187.374 70.2499 189.539 71.2034 192.402 71.2034C192.427 71.2034 192.453 71.2024 192.479 71.2024C192.493 71.2024 192.508 71.2044 192.522 71.2074C192.564 71.2174 192.603 71.2425 192.63 71.2766C192.654 71.3056 192.668 71.3417 192.671 71.3798C192.673 71.4009 192.672 71.4219 192.667 71.442L190.202 81.9531C190.18 82.0434 190.099 82.1035 190.011 82.1035Z" fill="white"/>
<path fill-rule="evenodd" clip-rule="evenodd" d="M162.42 96.5514C162.695 93.299 162.657 84.5865 158.624 83.5188C158.537 83.4957 158.484 83.4055 158.507 83.3172C158.531 83.23 158.621 83.1769 158.709 83.2009C162.974 84.3299 163.041 93.1215 162.748 96.5785C162.741 96.6687 162.661 96.7369 162.571 96.7289C162.48 96.7208 162.413 96.6416 162.42 96.5514Z" fill="#C3CA7A"/>
<path d="M158.666 83.2249C158.607 83.2249 158.553 83.2639 158.537 83.3241C158.518 83.3953 158.561 83.4695 158.632 83.4885C160.391 83.9537 161.58 85.8787 162.167 89.2093C162.618 91.7629 162.61 94.6774 162.451 96.5523C162.448 96.5884 162.459 96.6224 162.482 96.6505C162.505 96.6776 162.537 96.6946 162.573 96.6976C162.609 96.6996 162.644 96.6896 162.671 96.6656C162.698 96.6425 162.715 96.6104 162.718 96.5753C162.882 94.6243 162.887 91.6145 162.407 89.0208C161.785 85.6642 160.538 83.7151 158.7 83.2289C158.689 83.2259 158.677 83.2249 158.666 83.2249ZM162.585 96.7588C162.58 96.7588 162.574 96.7588 162.567 96.7578C162.516 96.7538 162.469 96.7297 162.435 96.6896C162.402 96.6495 162.386 96.5994 162.39 96.5472C162.548 94.6754 162.557 91.7679 162.107 89.2193C161.525 85.9148 160.351 84.0059 158.616 83.5467C158.513 83.5196 158.451 83.4123 158.478 83.3091C158.505 83.2048 158.612 83.1427 158.717 83.1697C160.578 83.663 161.841 85.6281 162.467 89.0098C162.948 91.6095 162.943 94.6253 162.778 96.5803C162.774 96.6315 162.75 96.6786 162.71 96.7127C162.675 96.7428 162.631 96.7588 162.585 96.7588Z" fill="#582EFF"/>
<path fill-rule="evenodd" clip-rule="evenodd" d="M168.208 150.605C172.228 151.171 183.37 152.32 186.753 150.434C188.595 144.527 189.854 138.261 190.9 132.166C192.17 124.763 193.131 117.281 193.911 109.81C194.27 106.37 194.605 102.906 194.853 99.4547C194.86 99.3645 194.938 99.2953 195.028 99.3023C195.12 99.3084 195.188 99.3876 195.181 99.4778C194.934 102.933 194.598 106.401 194.238 109.845C193.458 117.323 192.495 124.811 191.223 132.221C190.172 138.352 188.904 144.654 187.048 150.595C187.043 150.612 187.035 150.628 187.025 150.642C187.012 150.66 186.995 150.676 186.973 150.688C183.645 152.625 172.868 151.571 168.488 150.976C169.371 152.149 170.244 153.327 171.109 154.51C173.094 157.223 175.078 159.989 176.943 162.788C176.968 162.827 176.976 162.869 176.966 162.915C176.218 166.335 172.508 170.233 169.794 172.298C169.736 172.342 169.659 172.344 169.6 172.301C166.815 170.326 164.064 168.124 161.442 165.945C155.889 161.332 150.467 156.298 145.74 150.836C145.681 150.768 145.688 150.664 145.757 150.605C145.825 150.545 145.93 150.553 145.989 150.621C150.704 156.07 156.113 161.091 161.652 165.693C164.238 167.84 166.948 170.01 169.691 171.963C172.309 169.946 175.875 166.19 176.63 162.913C174.779 160.136 172.812 157.394 170.844 154.704C169.909 153.426 168.964 152.154 168.009 150.888C167.985 150.869 167.966 150.844 167.955 150.817C164.528 146.279 160.958 141.826 157.218 137.558C155.32 135.392 153.364 133.259 151.334 131.206C151.326 131.2 151.318 131.193 151.311 131.185C151.307 131.181 151.304 131.176 151.3 131.172C150.489 130.351 149.667 129.544 148.831 128.752C148.765 128.69 148.762 128.586 148.824 128.52C148.887 128.455 148.991 128.452 149.057 128.514C149.863 129.277 150.657 130.054 151.439 130.844C155.408 127.031 159.477 112.985 160.828 107.553C160.85 107.464 160.94 107.41 161.027 107.432C161.116 107.454 161.17 107.544 161.148 107.632C159.775 113.15 155.707 127.19 151.67 131.077C153.669 133.104 155.594 135.206 157.465 137.342C161.208 141.611 164.778 146.064 168.208 150.605Z" fill="#C3CA7A"/>
<path d="M145.864 150.596C145.832 150.596 145.801 150.607 145.777 150.629C145.75 150.652 145.733 150.684 145.731 150.72C145.728 150.756 145.74 150.791 145.763 150.818C150.04 155.76 155.174 160.701 161.462 165.924C163.471 167.593 166.503 170.067 169.617 172.278C169.666 172.312 169.728 172.311 169.776 172.275C172.73 170.027 176.23 166.138 176.937 162.91C176.945 162.873 176.938 162.839 176.917 162.807C174.927 159.82 172.852 156.946 171.084 154.529C170.205 153.326 169.323 152.137 168.463 150.995L168.42 150.937L168.492 150.947C169.984 151.149 183.174 152.865 186.958 150.663C186.974 150.653 186.989 150.64 187 150.625C187.008 150.613 187.015 150.601 187.019 150.587C189.029 144.153 190.306 137.391 191.193 132.218C192.361 125.414 193.347 118.095 194.208 109.843C194.506 106.991 194.882 103.237 195.151 99.4771C195.154 99.441 195.142 99.4069 195.119 99.3798C195.094 99.3528 195.062 99.3367 195.026 99.3337C194.991 99.3317 194.956 99.3427 194.929 99.3658C194.902 99.3899 194.886 99.4219 194.884 99.458C194.613 103.224 194.238 106.971 193.941 109.815C193.08 118.064 192.096 125.378 190.93 132.173C190.046 137.317 188.777 144.043 186.782 150.445L186.779 150.457L186.768 150.463C182.819 152.663 168.799 150.72 168.203 150.636L168.191 150.634L168.183 150.624C164.478 145.719 160.965 141.381 157.442 137.363C155.394 135.026 153.499 132.977 151.649 131.1L151.627 131.079L151.649 131.057C155.428 127.417 159.379 114.616 161.118 107.626C161.127 107.591 161.122 107.555 161.103 107.525C161.085 107.494 161.055 107.472 161.02 107.464C160.949 107.446 160.876 107.49 160.858 107.561C160.668 108.327 156.137 126.375 151.46 130.867L151.439 130.887L151.418 130.866C150.618 130.06 149.817 129.276 149.037 128.537C148.982 128.486 148.897 128.489 148.847 128.542C148.796 128.596 148.798 128.681 148.852 128.732C149.664 129.501 150.495 130.315 151.322 131.152C151.327 131.158 151.33 131.162 151.334 131.165C151.339 131.172 151.347 131.177 151.353 131.182C153.233 133.085 155.158 135.163 157.241 137.539C160.764 141.558 164.276 145.896 167.98 150.8L167.984 150.808C167.993 150.83 168.009 150.85 168.028 150.865L168.034 150.871C168.964 152.104 169.917 153.387 170.868 154.688C172.62 157.084 174.679 159.933 176.655 162.897L176.662 162.908L176.659 162.921C175.839 166.484 171.905 170.297 169.71 171.988L169.692 172.001L169.674 171.988C166.601 169.802 163.613 167.362 161.632 165.717C155.357 160.504 150.233 155.573 145.966 150.642C145.943 150.615 145.909 150.599 145.874 150.596C145.87 150.596 145.867 150.596 145.864 150.596ZM169.695 172.364C169.656 172.364 169.617 172.352 169.582 172.327C166.466 170.116 163.433 167.64 161.423 165.97C155.133 160.746 149.996 155.803 145.717 150.858C145.683 150.819 145.666 150.769 145.67 150.716C145.674 150.664 145.698 150.617 145.737 150.583C145.776 150.549 145.826 150.532 145.878 150.536C145.931 150.54 145.978 150.563 146.012 150.603C150.277 155.531 155.399 160.46 161.671 165.67C163.647 167.311 166.626 169.743 169.69 171.926C171.88 170.235 175.776 166.453 176.597 162.92C174.624 159.961 172.569 157.116 170.819 154.724C169.869 153.425 168.917 152.142 167.986 150.91C167.961 150.89 167.941 150.864 167.929 150.834C164.227 145.932 160.716 141.596 157.196 137.579C155.113 135.204 153.189 133.127 151.313 131.228C151.306 131.224 151.297 131.216 151.289 131.207C151.284 131.202 151.28 131.197 151.276 131.191C150.452 130.358 149.621 129.545 148.81 128.776C148.732 128.703 148.729 128.578 148.802 128.5C148.876 128.423 149 128.419 149.078 128.493C149.852 129.226 150.647 130.003 151.44 130.802C153.153 129.14 155.053 125.438 157.086 119.797C158.668 115.408 160.042 110.591 160.799 107.547C160.825 107.442 160.931 107.378 161.036 107.405C161.086 107.417 161.128 107.449 161.155 107.493C161.182 107.538 161.19 107.59 161.177 107.64C159.44 114.623 155.496 127.402 151.713 131.08C153.558 132.951 155.447 134.994 157.488 137.322C161.009 141.34 164.522 145.675 168.224 150.578C168.978 150.683 182.806 152.583 186.728 150.416C188.72 144.02 189.987 137.302 190.87 132.162C192.036 125.369 193.02 118.057 193.88 109.809C194.177 106.965 194.553 103.219 194.823 99.454C194.827 99.4019 194.85 99.3548 194.89 99.3197C194.929 99.2856 194.979 99.2695 195.031 99.2736C195.082 99.2766 195.131 99.3006 195.165 99.3397C195.199 99.3798 195.216 99.43 195.212 99.4811C194.942 103.242 194.566 106.998 194.268 109.85C193.407 118.103 192.422 125.423 191.254 132.228C190.365 137.403 189.088 144.168 187.077 150.605C187.071 150.625 187.062 150.644 187.049 150.661C187.033 150.683 187.013 150.701 186.989 150.715C185.533 151.563 182.693 151.834 179.663 151.834C174.898 151.834 169.658 151.165 168.556 151.017C169.402 152.141 170.269 153.31 171.134 154.493C172.902 156.91 174.978 159.785 176.968 162.773C176.998 162.819 177.008 162.869 176.996 162.923C176.286 166.166 172.775 170.069 169.813 172.323C169.777 172.35 169.736 172.364 169.695 172.364Z" fill="#582EFF"/>
<path fill-rule="evenodd" clip-rule="evenodd" d="M184.114 216.591C184.243 216.176 184.377 215.764 184.52 215.356C184.55 215.271 184.645 215.226 184.731 215.256C184.816 215.286 184.861 215.38 184.831 215.465C184.644 215.996 184.473 216.532 184.314 217.071C184.308 217.092 184.298 217.11 184.285 217.127C184.271 217.145 184.254 217.16 184.232 217.171C184.212 217.181 184.192 217.187 184.172 217.189C184.151 217.191 184.13 217.189 184.109 217.183C184.088 217.177 184.07 217.167 184.054 217.154C184.036 217.141 184.021 217.123 184.01 217.101C178.424 206.434 174.131 194.795 170.947 183.186C170.923 183.099 170.975 183.008 171.063 182.984C171.15 182.96 171.241 183.012 171.264 183.1C174.406 194.555 178.63 206.042 184.114 216.591Z" fill="#95A9E4"/>
<path d="M171.106 183.009C171.095 183.009 171.083 183.01 171.071 183.013C171.036 183.023 171.007 183.045 170.989 183.077C170.971 183.108 170.967 183.144 170.976 183.178C174.404 195.675 178.798 207.084 184.037 217.086C184.046 217.104 184.058 217.118 184.072 217.131C184.086 217.141 184.101 217.149 184.117 217.154C184.134 217.159 184.152 217.16 184.169 217.158C184.186 217.157 184.202 217.152 184.217 217.144C184.234 217.135 184.25 217.122 184.261 217.107C184.272 217.094 184.28 217.079 184.284 217.062C184.459 216.474 184.629 215.948 184.802 215.455C184.827 215.385 184.79 215.309 184.721 215.284C184.651 215.259 184.574 215.296 184.549 215.366C184.412 215.754 184.28 216.158 184.144 216.599L184.122 216.67L184.088 216.605C178.941 206.706 174.617 195.435 171.235 183.108C171.226 183.073 171.203 183.044 171.172 183.026C171.152 183.014 171.129 183.009 171.106 183.009ZM184.155 217.22C184.137 217.22 184.118 217.217 184.1 217.212C184.076 217.205 184.055 217.194 184.035 217.178C184.013 217.162 183.996 217.14 183.983 217.115C178.742 207.109 174.346 195.696 170.918 183.195C170.904 183.145 170.911 183.092 170.936 183.047C170.962 183.001 171.004 182.968 171.054 182.955C171.105 182.941 171.157 182.947 171.203 182.973C171.248 182.999 171.28 183.041 171.294 183.092C174.667 195.388 178.977 206.631 184.107 216.511C184.236 216.096 184.362 215.714 184.492 215.346C184.527 215.245 184.64 215.191 184.741 215.227C184.842 215.263 184.895 215.374 184.86 215.475C184.686 215.967 184.517 216.493 184.343 217.08C184.336 217.103 184.324 217.125 184.309 217.146C184.292 217.167 184.271 217.185 184.246 217.198C184.223 217.209 184.199 217.216 184.175 217.219C184.168 217.219 184.161 217.22 184.155 217.22Z" fill="#95A9E4"/>
<path fill-rule="evenodd" clip-rule="evenodd" d="M198.283 54.3541C198.138 54.703 198.217 55.3136 198.57 55.4539C198.923 55.5963 199.4 55.2123 199.543 54.8654C199.687 54.5155 199.597 53.9039 199.256 53.7656C198.902 53.6232 198.426 54.0072 198.283 54.3541Z" fill="#2C2C2C"/>
<path fill-rule="evenodd" clip-rule="evenodd" d="M191.212 53.2177C191.068 53.5676 191.158 54.1792 191.5 54.3186C191.854 54.4599 192.329 54.0759 192.473 53.729C192.617 53.3801 192.54 52.7696 192.186 52.6292C191.832 52.4868 191.356 52.8708 191.212 53.2177Z" fill="#2C2C2C"/>
<path fill-rule="evenodd" clip-rule="evenodd" d="M193.295 50.7993C193.295 50.7993 193.105 50.7311 192.788 50.68C192.249 50.5938 191.303 50.5517 190.29 50.9938C190.181 51.048 190.122 51.1823 190.178 51.2996C190.223 51.4149 190.364 51.469 190.486 51.4209C191.39 51.0219 192.225 51.058 192.714 51.1362C192.861 51.1602 192.97 51.1853 193.042 51.2044C193.078 51.2154 193.102 51.2214 193.126 51.2274L193.15 51.2354C193.269 51.2765 193.404 51.2164 193.448 51.0951C193.48 50.9738 193.426 50.8444 193.295 50.7993Z" fill="#2C2C2C"/>
<path fill-rule="evenodd" clip-rule="evenodd" d="M200.613 52.2685C200.604 52.2494 200.494 52.068 200.251 51.8704C200.007 51.6699 199.615 51.4524 199.053 51.3621C198.673 51.301 198.223 51.294 197.681 51.3812C197.553 51.4012 197.471 51.5185 197.489 51.6439C197.506 51.7692 197.63 51.8544 197.758 51.8364C198.249 51.7572 198.649 51.7622 198.98 51.8153C199.456 51.8945 199.767 52.071 199.955 52.2274C200.055 52.3046 200.119 52.3748 200.161 52.4269C200.182 52.452 200.204 52.472 200.203 52.481L200.213 52.4961L200.226 52.49L200.213 52.4931V52.4961L200.226 52.49L200.213 52.4931C200.271 52.6053 200.415 52.6434 200.526 52.5823C200.636 52.5201 200.671 52.3788 200.613 52.2685Z" fill="#2C2C2C"/>
<path fill-rule="evenodd" clip-rule="evenodd" d="M195.976 56.686L196.191 59.3218L194.699 59.0822C194.638 59.0722 194.581 59.1143 194.571 59.1774C194.561 59.2406 194.602 59.2987 194.663 59.3078L196.302 59.5715C196.339 59.5775 196.366 59.5684 196.395 59.5424C196.423 59.5213 196.429 59.4842 196.435 59.4491L196.204 56.667C196.201 56.6038 196.146 56.5587 196.083 56.5627C196.02 56.5677 195.973 56.6238 195.976 56.686Z" fill="#2C2C2C"/>
<path fill-rule="evenodd" clip-rule="evenodd" d="M191.71 61.0558C191.72 61.0659 191.874 61.514 192.272 62.0023C192.67 62.4915 193.313 63.0239 194.279 63.1793C194.83 63.2686 195.475 63.2304 196.24 62.9968C196.293 62.9788 196.33 62.9146 196.314 62.8555C196.298 62.7943 196.229 62.7582 196.175 62.7793C195.437 63.0009 194.83 63.0349 194.315 62.9517C193.423 62.8084 192.825 62.3161 192.459 61.8579C192.269 61.6293 192.13 61.4057 192.056 61.2433C192.005 61.1631 191.979 61.0949 191.961 61.0498L191.932 60.9967L191.934 60.9816C191.907 60.9185 191.837 60.8884 191.783 60.9115C191.717 60.9305 191.694 60.9967 191.71 61.0558Z" fill="#2C2C2C"/>
<path fill-rule="evenodd" clip-rule="evenodd" d="M200.537 147.517C197.798 151.961 191.588 168.057 196.314 219.182C190.509 231.604 186.457 286.827 186.457 286.827C186.914 287.318 187.504 287.718 188.187 288.045C192.178 289.952 199.365 289.316 202.031 288.992C202.683 288.913 203.065 288.853 203.065 288.853C203.065 288.853 212.652 233.494 214.272 219.317C215.471 208.826 217.261 190.793 218.111 182.125C218.111 182.125 224.46 210.184 227.67 218.396C221.339 239.722 218.052 285.747 218.052 285.747C218.346 285.887 218.648 286.01 218.959 286.121C222.952 287.532 228.159 286.575 230.592 285.982C231.446 285.775 231.959 285.612 231.959 285.612C231.959 285.612 244.111 238.625 244.921 215.131C245.731 191.638 237.491 158.564 237.491 158.564C219.398 159.1 206.019 151.33 200.742 147.66C200.672 147.612 200.604 147.564 200.537 147.517Z" fill="#582EFF"/>
<path fill-rule="evenodd" clip-rule="evenodd" d="M230.592 285.982C228.159 286.574 222.952 287.532 218.959 286.12C218.959 286.12 217.409 290.893 219.434 293.189C221.46 295.484 234.961 301.29 238.878 299.4C242.794 297.509 236.62 289.442 230.592 285.982Z" fill="#FF9362"/>
<path fill-rule="evenodd" clip-rule="evenodd" d="M211.333 303.181C213.494 300.211 206.773 293.166 202.031 288.992C199.364 289.316 192.178 289.953 188.187 288.045C187.802 289.924 187.237 294.719 190.54 297.916C194.726 301.967 209.173 306.152 211.333 303.181Z" fill="#FF9362"/>
<path fill-rule="evenodd" clip-rule="evenodd" d="M200.742 147.659C206.019 151.329 219.398 159.099 237.491 158.564C238.051 158.547 238.615 158.522 239.184 158.49L239.992 157.04C238.147 156.341 236.59 155.492 235.694 154.568C235.316 155 235.067 155.25 235.067 155.25C229.278 153.846 211.64 148.911 200.507 140.592L198.273 145.798C198.273 145.798 199.056 146.474 200.537 147.516C200.604 147.563 200.672 147.611 200.742 147.659Z" fill="#BEB3EE"/>
<path fill-rule="evenodd" clip-rule="evenodd" d="M290.153 132.999C290.356 133.987 290.601 135.567 290.602 137.455C297.155 137.185 309.77 131.852 308.42 128.544C307.07 125.236 296.2 131.515 296.2 131.515C296.2 131.515 299.643 128.477 298.766 127.059C298.01 125.839 291.854 131.42 290.153 132.999Z" fill="#E3817E"/>
<path fill-rule="evenodd" clip-rule="evenodd" d="M250.227 57.1891L244.721 75.3821C244.721 75.3821 247.683 79.7614 258.116 79.5037L260.01 72.1527C260.924 72.3883 261.529 72.3883 261.529 72.3883C270.932 71.7437 271.189 50.3635 271.189 50.3635C271.189 50.3635 259.809 50.1559 256.097 45.8318C255.986 47.077 255.387 51.4593 252.384 52.4238C252.384 52.4238 251.45 52.2844 250.475 52.5451C249.892 52.6995 249.296 52.9973 248.874 53.5507C247.747 55.0315 250.227 57.1891 250.227 57.1891Z" fill="#E3817E"/>
<path fill-rule="evenodd" clip-rule="evenodd" d="M256.097 45.8316C259.808 50.1558 271.189 50.3633 271.189 50.3633C271.189 50.3633 278.095 44.9654 268.485 41.8934C258.875 38.8215 253.608 42.7316 253.608 42.7316C253.608 42.7316 249.53 42.4589 250.474 52.5449C251.45 52.2842 252.384 52.4236 252.384 52.4236C255.387 51.4591 255.986 47.0768 256.097 45.8316Z" fill="#373191"/>
<path fill-rule="evenodd" clip-rule="evenodd" d="M258.116 79.5044C247.683 79.7621 244.721 75.3828 244.721 75.3828L244.779 75.1903C244.779 75.1903 233.716 74.5075 223.995 76.8034C223.326 76.9608 222.603 77.2346 221.835 77.6135C214.221 81.3622 202.206 95.4145 195.62 109.384C193.206 114.503 191.521 119.61 191.049 124.196C190.699 127.6 191.685 130.735 193.581 133.597C195.269 136.147 197.678 138.479 200.508 140.593C211.64 148.912 229.278 153.847 235.067 155.251C235.067 155.251 235.316 155.001 235.694 154.569C236.501 153.647 237.896 151.894 238.714 149.954C238.714 149.954 241.699 149.972 244.396 150.189C247.252 146.215 249.751 141.99 251.923 137.757C251.864 140.162 252.316 144.266 255.859 145.664C260.213 147.383 283.521 141.52 290.485 139.703C290.568 138.921 290.602 138.167 290.602 137.456C290.601 135.568 290.357 133.988 290.153 133C290.009 132.296 289.885 131.892 289.885 131.892C282.324 131.352 264.572 131.069 264.572 131.069C266.687 125.149 271.309 110.669 270.577 98.9466C269.632 83.8246 258.116 79.5044 258.116 79.5044Z" fill="#BEB1F0"/>
<path fill-rule="evenodd" clip-rule="evenodd" d="M226.14 94.1907C226.686 91.4126 226.816 87.8073 226.402 85.0351C225.961 82.0765 224.777 78.9434 221.778 77.7553C221.699 77.7242 221.661 77.635 221.692 77.5558C221.723 77.4776 221.812 77.4395 221.891 77.4706C222.777 77.8215 223.551 78.3509 224.204 79.0446C225.696 80.6287 226.39 82.8806 226.705 84.99C227.124 87.7962 226.994 91.4366 226.44 94.2499C226.424 94.3331 226.343 94.3873 226.261 94.3712C226.178 94.3542 226.124 94.274 226.14 94.1907Z" fill="#6666C7"/>
<path d="M226.175 94.1986C226.163 94.2628 226.204 94.3239 226.268 94.337C226.331 94.349 226.393 94.3079 226.405 94.2437C226.974 91.3553 227.077 87.7249 226.67 84.9959C226.284 82.4102 225.446 80.416 224.177 79.0695C223.526 78.3777 222.752 77.8504 221.878 77.5045C221.848 77.4925 221.816 77.4935 221.787 77.5055C221.759 77.5185 221.736 77.5416 221.725 77.5707C221.713 77.5997 221.714 77.6308 221.726 77.6599C221.739 77.689 221.762 77.711 221.791 77.7231C224.299 78.7156 225.862 81.175 226.437 85.0309C226.841 87.7349 226.738 91.3332 226.175 94.1986ZM226.29 94.4102C226.278 94.4102 226.266 94.4091 226.254 94.4071C226.152 94.3871 226.084 94.2868 226.104 94.1846C226.667 91.3272 226.769 87.7379 226.367 85.041C225.796 81.2121 224.248 78.7728 221.764 77.7892C221.718 77.7702 221.681 77.7351 221.661 77.688C221.641 77.6419 221.64 77.5907 221.659 77.5436C221.677 77.4975 221.713 77.4604 221.759 77.4403C221.805 77.4203 221.856 77.4193 221.904 77.4373C222.788 77.7882 223.571 78.3206 224.23 79.0204C225.508 80.3779 226.352 82.3841 226.74 84.9848C227.149 87.7219 227.045 91.3613 226.475 94.2578C226.457 94.348 226.378 94.4102 226.29 94.4102Z" fill="#6666C7"/>
<path fill-rule="evenodd" clip-rule="evenodd" d="M264.584 102.013C264.289 103.587 263.91 105.176 263.527 106.73C262.554 110.677 261.411 114.593 260.125 118.45C256.43 129.541 251.359 140.765 244.52 150.278C244.471 150.346 244.375 150.362 244.306 150.313C244.237 150.264 244.222 150.168 244.271 150.1C251.092 140.611 256.149 129.414 259.835 118.353C261.117 114.505 262.259 110.596 263.229 106.657C263.611 105.109 263.989 103.524 264.283 101.956C264.298 101.873 264.378 101.819 264.461 101.834C264.544 101.85 264.599 101.93 264.584 102.013Z" fill="#6666C7"/>
<path d="M264.433 101.867C264.377 101.867 264.328 101.906 264.318 101.963C264.023 103.534 263.637 105.151 263.264 106.664C262.316 110.513 261.173 114.449 259.869 118.364C255.707 130.854 250.469 141.538 244.3 150.12C244.262 150.172 244.274 150.246 244.328 150.284C244.38 150.322 244.453 150.31 244.491 150.257C250.674 141.655 255.922 130.951 260.091 118.439C261.399 114.514 262.543 110.572 263.492 106.72C263.866 105.204 264.253 103.584 264.549 102.006C264.561 101.942 264.519 101.881 264.455 101.869C264.447 101.868 264.44 101.867 264.433 101.867ZM244.396 150.377C244.358 150.377 244.319 150.366 244.285 150.342C244.201 150.281 244.181 150.162 244.242 150.078C250.407 141.502 255.642 130.824 259.801 118.341C261.105 114.428 262.247 110.494 263.195 106.647C263.568 105.134 263.953 103.519 264.248 101.949C264.267 101.847 264.365 101.779 264.468 101.799C264.57 101.818 264.638 101.917 264.619 102.019C264.322 103.599 263.936 105.22 263.562 106.737C262.612 110.591 261.467 114.535 260.159 118.461C255.988 130.98 250.736 141.692 244.549 150.299C244.512 150.35 244.454 150.377 244.396 150.377Z" fill="#6666C7"/>
<path fill-rule="evenodd" clip-rule="evenodd" d="M217.963 182.163C217.96 182.151 217.959 182.139 217.959 182.126C217.959 182.12 217.959 182.115 217.959 182.109C218.12 180.465 218.286 178.821 218.44 177.176C218.442 177.152 218.449 177.133 218.46 177.113L222.241 170.632C222.283 170.559 222.377 170.534 222.45 170.577C222.523 170.619 222.547 170.714 222.505 170.786L218.742 177.239C218.59 178.865 218.426 180.491 218.266 182.116C219.733 188.606 221.295 195.099 222.939 201.545C223.762 204.775 224.61 208.002 225.526 211.207C226.162 213.43 226.831 215.749 227.652 217.923C227.817 217.378 227.989 216.837 228.168 216.298C228.195 216.218 228.282 216.174 228.361 216.201C228.442 216.228 228.486 216.314 228.459 216.395C228.233 217.072 228.02 217.754 227.817 218.439C227.809 218.465 227.795 218.488 227.777 218.505C227.762 218.519 227.745 218.53 227.726 218.538C227.715 218.542 227.704 218.545 227.693 218.547C227.671 218.55 227.649 218.549 227.627 218.542C227.601 218.535 227.577 218.521 227.56 218.502C227.546 218.488 227.535 218.471 227.527 218.451C226.628 216.15 225.911 213.667 225.232 211.291C224.315 208.084 223.466 204.853 222.642 201.621C220.996 195.165 219.431 188.663 217.963 182.163Z" fill="#EBF1FD"/>
<path d="M222.373 170.591C222.333 170.591 222.294 170.612 222.272 170.649L218.491 177.131C218.482 177.147 218.477 177.161 218.476 177.179C218.363 178.377 218.243 179.595 218.127 180.773C218.083 181.22 218.039 181.666 217.995 182.112C217.994 182.117 217.994 182.122 217.994 182.126C217.994 182.135 217.995 182.145 217.998 182.154V182.155C219.449 188.581 221.023 195.127 222.677 201.611C223.67 205.511 224.469 208.494 225.266 211.281C225.908 213.528 226.636 216.073 227.56 218.438C227.566 218.453 227.574 218.466 227.585 218.477C227.6 218.492 227.617 218.502 227.636 218.508C227.652 218.513 227.67 218.514 227.688 218.512C227.696 218.51 227.705 218.508 227.712 218.505C227.727 218.499 227.741 218.491 227.752 218.48C227.766 218.465 227.777 218.448 227.782 218.429C227.992 217.719 228.209 217.031 228.424 216.383C228.446 216.322 228.411 216.255 228.35 216.235C228.289 216.214 228.223 216.248 228.202 216.309C228.027 216.831 227.854 217.378 227.686 217.932L227.655 218.033L227.618 217.935C226.773 215.701 226.092 213.318 225.492 211.217C224.695 208.429 223.897 205.449 222.904 201.553C221.254 195.08 219.682 188.542 218.231 182.124L218.23 182.118V182.112C218.276 181.645 218.322 181.177 218.368 180.709C218.482 179.57 218.598 178.393 218.706 177.234L218.71 177.22L222.474 170.768C222.507 170.712 222.488 170.64 222.432 170.607C222.414 170.597 222.393 170.591 222.373 170.591ZM227.67 218.584C227.651 218.584 227.633 218.582 227.616 218.576C227.585 218.567 227.557 218.55 227.534 218.527C227.517 218.509 227.503 218.488 227.494 218.464C226.569 216.097 225.84 213.549 225.197 211.301C224.4 208.513 223.601 205.529 222.607 201.629C220.954 195.144 219.38 188.598 217.928 182.171C217.924 182.157 217.922 182.141 217.922 182.126C217.922 182.119 217.922 182.112 217.923 182.105C217.967 181.659 218.012 181.212 218.056 180.766C218.172 179.588 218.292 178.37 218.405 177.172C218.407 177.144 218.415 177.12 218.429 177.095L222.209 170.614C222.263 170.524 222.378 170.493 222.468 170.546C222.558 170.598 222.588 170.714 222.536 170.804L218.777 177.249C218.668 178.405 218.552 179.58 218.44 180.716C218.394 181.182 218.347 181.648 218.302 182.114C219.752 188.53 221.324 195.065 222.973 201.536C223.966 205.431 224.764 208.411 225.561 211.197C226.153 213.266 226.821 215.608 227.648 217.811C227.807 217.291 227.97 216.777 228.134 216.286C228.167 216.188 228.274 216.134 228.373 216.167C228.472 216.2 228.526 216.307 228.493 216.405C228.277 217.052 228.061 217.74 227.851 218.449C227.842 218.48 227.825 218.508 227.802 218.531C227.784 218.548 227.762 218.562 227.739 218.571C227.726 218.576 227.712 218.58 227.698 218.582C227.689 218.584 227.679 218.584 227.67 218.584Z" fill="#EBF1FD"/>
<path fill-rule="evenodd" clip-rule="evenodd" d="M264.679 131.224C264.366 132.098 264.043 132.976 263.698 133.839C263.667 133.917 263.577 133.956 263.499 133.924C263.421 133.893 263.383 133.804 263.414 133.725C263.771 132.832 264.104 131.924 264.427 131.017C264.442 130.98 264.469 130.95 264.501 130.933C264.523 130.922 264.548 130.915 264.575 130.916C269.36 130.995 274.147 131.104 278.931 131.252C282.576 131.365 286.258 131.48 289.896 131.739C289.96 131.744 290.013 131.785 290.032 131.848C290.541 133.519 290.753 135.731 290.754 137.456C290.754 137.54 290.686 137.609 290.602 137.609C290.518 137.609 290.449 137.541 290.449 137.457C290.448 135.796 290.247 133.666 289.769 132.037C286.169 131.783 282.527 131.67 278.921 131.559C274.176 131.411 269.426 131.303 264.679 131.224Z" fill="#6666C7"/>
<path d="M264.654 131.188H264.68C269.721 131.272 274.38 131.381 278.922 131.523C282.485 131.633 286.17 131.747 289.771 132.002L289.796 132.004L289.803 132.027C290.228 133.475 290.483 135.505 290.485 137.457C290.485 137.521 290.537 137.573 290.602 137.573C290.666 137.573 290.719 137.521 290.719 137.456C290.718 135.429 290.448 133.336 289.998 131.858C289.982 131.81 289.942 131.778 289.893 131.775C286.256 131.515 282.532 131.399 278.931 131.288C274.339 131.146 269.644 131.035 264.574 130.951C264.554 130.951 264.535 130.956 264.518 130.965C264.492 130.979 264.472 131.001 264.462 131.029C264.193 131.781 263.835 132.768 263.447 133.738C263.435 133.768 263.436 133.8 263.448 133.829C263.46 133.858 263.483 133.88 263.512 133.891C263.541 133.903 263.573 133.902 263.602 133.89C263.63 133.878 263.654 133.855 263.665 133.826C264.033 132.907 264.367 131.989 264.645 131.212L264.654 131.188ZM290.602 137.646C290.498 137.646 290.413 137.56 290.413 137.457C290.412 135.522 290.161 133.512 289.742 132.071C286.15 131.818 282.474 131.704 278.92 131.594C274.386 131.454 269.735 131.344 264.704 131.26C264.428 132.032 264.097 132.941 263.731 133.853C263.713 133.899 263.677 133.936 263.63 133.956C263.583 133.975 263.532 133.976 263.486 133.957C263.439 133.939 263.403 133.903 263.383 133.857C263.363 133.811 263.362 133.758 263.381 133.712C263.768 132.743 264.126 131.756 264.394 131.005C264.41 130.96 264.443 130.924 264.485 130.902C264.512 130.887 264.543 130.879 264.576 130.88C269.645 130.964 274.341 131.075 278.932 131.217C282.535 131.328 286.26 131.444 289.898 131.704C289.978 131.709 290.043 131.76 290.066 131.837C290.519 133.321 290.79 135.422 290.791 137.456C290.791 137.56 290.706 137.646 290.602 137.646Z" fill="#6666C7"/>
<path fill-rule="evenodd" clip-rule="evenodd" d="M259.824 72.26C257.05 71.498 254.911 69.557 253.538 67.0506C253.497 66.9764 253.525 66.8831 253.598 66.843C253.673 66.8029 253.766 66.83 253.807 66.9042C255.163 69.3796 257.285 71.2915 260.047 72.0034C260.047 72.0034 260.047 72.0034 260.048 72.0034C260.129 72.0244 260.178 72.1076 260.157 72.1898L258.265 79.5408C258.247 79.608 258.189 79.6541 258.12 79.6561C254.601 79.7423 250.623 79.3363 247.448 77.692C246.55 77.2278 245.181 76.3335 244.594 75.4673C244.567 75.4272 244.56 75.3821 244.574 75.337L244.632 75.1445C244.657 75.0633 244.743 75.0171 244.824 75.0422C244.904 75.0663 244.95 75.1515 244.926 75.2327L244.889 75.354C245.465 76.1551 246.763 76.9932 247.589 77.4204C250.68 79.0215 254.562 79.4265 257.997 79.3523L259.824 72.26Z" fill="white"/>
<path d="M244.779 75.0731C244.76 75.0731 244.741 75.0771 244.724 75.0872C244.696 75.1012 244.675 75.1263 244.666 75.1563L244.608 75.3488C244.598 75.3849 244.603 75.418 244.623 75.4491C245.159 76.2391 246.436 77.1304 247.465 77.6628C250.183 79.0704 253.768 79.7292 258.119 79.6219C258.173 79.6209 258.216 79.5858 258.229 79.5336L260.123 72.1827C260.131 72.1526 260.126 72.1205 260.11 72.0934C260.095 72.0684 260.071 72.0493 260.043 72.0413H260.012V72.0323C257.425 71.3575 255.211 69.5438 253.775 66.9231C253.76 66.895 253.736 66.876 253.706 66.8669C253.676 66.8579 253.644 66.8609 253.617 66.876C253.588 66.891 253.568 66.9161 253.56 66.9461C253.551 66.9762 253.554 67.0083 253.569 67.0354C255.012 69.6702 257.237 71.5139 259.834 72.2278L259.867 72.2368L259.859 72.2709L258.025 79.3893L257.998 79.3903C253.738 79.4815 250.23 78.8298 247.572 77.4543C246.852 77.0813 245.47 76.2241 244.86 75.3769L244.85 75.3629L244.891 75.2245C244.901 75.1944 244.897 75.1624 244.883 75.1353C244.868 75.1072 244.843 75.0872 244.813 75.0781C244.802 75.0741 244.791 75.0731 244.779 75.0731ZM257.216 79.7051C253.258 79.7051 249.97 79.0404 247.432 77.726C246.471 77.2287 245.144 76.3444 244.564 75.4892C244.531 75.4401 244.523 75.3849 244.54 75.3288L244.598 75.1353C244.613 75.0872 244.645 75.0481 244.69 75.024C244.735 74.9999 244.786 74.9949 244.834 75.01C244.882 75.024 244.922 75.0571 244.945 75.1012C244.969 75.1453 244.974 75.1964 244.96 75.2446L244.928 75.3498C245.536 76.181 246.894 77.0232 247.605 77.3911C250.247 78.7586 253.734 79.4063 257.969 79.3191L259.78 72.2869C257.18 71.562 254.953 69.7103 253.507 67.0695C253.482 67.0254 253.477 66.9742 253.491 66.9261C253.505 66.878 253.537 66.8379 253.581 66.8138C253.626 66.7897 253.677 66.7837 253.726 66.7977C253.774 66.8118 253.814 66.8449 253.838 66.889C255.269 69.5007 257.477 71.3064 260.056 71.9701L260.083 71.9791C260.12 71.9952 260.151 72.0223 260.172 72.0573C260.197 72.0995 260.205 72.1486 260.193 72.1957L260.192 72.2007L258.299 79.5517C258.278 79.6339 258.206 79.691 258.121 79.6931C257.815 79.7011 257.514 79.7051 257.216 79.7051Z" fill="white"/>
<path fill-rule="evenodd" clip-rule="evenodd" d="M266.502 55.3006C266.377 55.6776 266.502 56.3122 266.883 56.4345C267.265 56.5588 267.736 56.1207 267.862 55.7467C267.989 55.3688 267.849 54.7331 267.481 54.6118C267.099 54.4885 266.628 54.9256 266.502 55.3006Z" fill="#2C2C2C"/>
<path fill-rule="evenodd" clip-rule="evenodd" d="M258.999 54.618C258.872 54.9949 259.011 55.6306 259.38 55.7519C259.761 55.8762 260.233 55.4381 260.358 55.0641C260.484 54.6861 260.359 54.0515 259.977 53.9292C259.596 53.8059 259.124 54.243 258.999 54.618Z" fill="#2C2C2C"/>
<path fill-rule="evenodd" clip-rule="evenodd" d="M261.01 51.9286C261.01 51.9286 260.806 51.8705 260.468 51.8404C259.897 51.7883 258.9 51.8123 257.87 52.3497C257.759 52.4139 257.706 52.5603 257.774 52.6786C257.829 52.7969 257.982 52.843 258.105 52.7839C259.026 52.2996 259.905 52.2775 260.424 52.3247C260.58 52.3387 260.696 52.3568 260.773 52.3718C260.812 52.3808 260.837 52.3858 260.863 52.3908L260.889 52.3969C261.017 52.4319 261.154 52.3578 261.192 52.2284C261.217 52.0981 261.151 51.9667 261.01 51.9286Z" fill="#2C2C2C"/>
<path fill-rule="evenodd" clip-rule="evenodd" d="M268.798 52.9434C268.787 52.9243 268.659 52.7409 268.389 52.5514C268.118 52.3579 267.691 52.1584 267.094 52.1042C266.691 52.0671 266.218 52.0922 265.656 52.2235C265.522 52.2546 265.445 52.3839 265.473 52.5133C265.5 52.6436 265.636 52.7238 265.771 52.6957C266.278 52.5774 266.699 52.5534 267.05 52.5855C267.556 52.6346 267.894 52.797 268.104 52.9474C268.215 53.0216 268.287 53.0908 268.334 53.1419C268.358 53.167 268.383 53.186 268.383 53.196L268.394 53.2111L268.408 53.2041L268.395 53.2081L268.394 53.2111L268.408 53.2041L268.395 53.2081C268.463 53.3214 268.616 53.3514 268.728 53.2793C268.84 53.2051 268.866 53.0547 268.798 52.9434Z" fill="#2C2C2C"/>
<path fill-rule="evenodd" clip-rule="evenodd" d="M264.248 57.9156L264.666 60.6667L263.082 60.5224C263.017 60.5174 262.96 60.5655 262.954 60.6327C262.948 60.6988 262.995 60.757 263.06 60.763L264.799 60.9214C264.838 60.9244 264.865 60.9134 264.895 60.8843C264.923 60.8592 264.927 60.8201 264.93 60.7831L264.488 57.8795C264.48 57.8134 264.418 57.7703 264.352 57.7783C264.286 57.7883 264.241 57.8505 264.248 57.9156Z" fill="#2C2C2C"/>
<path fill-rule="evenodd" clip-rule="evenodd" d="M260.085 62.8093C260.097 62.8183 260.292 63.2785 260.745 63.7627C261.198 64.247 261.911 64.7603 262.937 64.8535C263.52 64.9067 264.196 64.8194 264.983 64.5197C265.037 64.4976 265.07 64.4264 265.049 64.3663C265.029 64.3031 264.953 64.27 264.899 64.2961C264.139 64.5818 263.504 64.661 262.959 64.6119C262.01 64.5257 261.346 64.0515 260.93 63.5973C260.715 63.3707 260.552 63.1461 260.462 62.9817C260.404 62.9005 260.372 62.8303 260.35 62.7852L260.315 62.731L260.317 62.715C260.283 62.6508 260.206 62.6248 260.152 62.6519C260.084 62.6769 260.065 62.7491 260.085 62.8093Z" fill="#2C2C2C"/>
<path fill-rule="evenodd" clip-rule="evenodd" d="M210.978 123.675C213.065 124.963 215.09 126.36 217.052 127.805C222.564 131.868 227.784 136.476 232.687 141.254C234.955 143.464 237.248 145.768 239.366 148.127C239.399 148.163 239.412 148.209 239.403 148.258C238.935 150.69 236.929 153.603 235.175 155.359C235.136 155.397 235.084 155.412 235.031 155.399C231.56 154.558 228.094 153.534 224.705 152.411C219.78 150.779 214.886 148.873 210.229 146.583C206.823 144.909 203.458 142.989 200.415 140.715C200.348 140.665 200.334 140.568 200.384 140.5C200.435 140.433 200.531 140.419 200.599 140.469C203.626 142.732 206.975 144.643 210.363 146.308C215.008 148.592 219.89 150.492 224.801 152.12C228.155 153.231 231.585 154.246 235.019 155.081C236.696 153.384 238.611 150.599 239.087 148.274C236.989 145.94 234.719 143.66 232.473 141.473C227.58 136.705 222.371 132.107 216.871 128.052C214.861 126.571 212.785 125.144 210.646 123.83C210.626 123.823 210.608 123.812 210.592 123.797C209.342 123.031 208.07 122.305 206.777 121.631C206.701 121.591 206.672 121.499 206.711 121.424C206.751 121.349 206.843 121.32 206.918 121.359C208.198 122.027 209.458 122.744 210.696 123.501C215.094 120.416 221.008 108.112 223.179 103.072C223.212 102.993 223.302 102.958 223.38 102.991C223.458 103.025 223.494 103.115 223.46 103.192C221.276 108.266 215.433 120.421 210.978 123.675Z" fill="#6666C7"/>
<path d="M200.507 140.476C200.471 140.476 200.436 140.492 200.413 140.523C200.374 140.574 200.385 140.648 200.436 140.687C203.183 142.739 206.391 144.658 210.244 146.552C214.567 148.677 219.301 150.583 224.717 152.378C228.33 153.576 231.803 154.58 235.039 155.364C235.08 155.374 235.12 155.363 235.15 155.333C236.852 153.631 238.899 150.688 239.368 148.252C239.375 148.214 239.365 148.18 239.34 148.151C237.028 145.575 234.556 143.126 232.662 141.28C227.206 135.964 222.094 131.567 217.031 127.835C214.892 126.258 212.905 124.908 210.959 123.707L210.914 123.678L210.957 123.647C215.169 120.569 220.778 109.333 223.428 103.179C223.44 103.15 223.44 103.118 223.429 103.089C223.417 103.06 223.395 103.037 223.366 103.025C223.337 103.012 223.305 103.012 223.276 103.023C223.247 103.035 223.224 103.057 223.212 103.086C222.917 103.769 215.946 119.863 210.716 123.531L210.697 123.544L210.677 123.532C209.4 122.752 208.13 122.032 206.901 121.392C206.844 121.361 206.773 121.384 206.743 121.442C206.713 121.499 206.736 121.57 206.793 121.599C208.036 122.248 209.32 122.977 210.611 123.768C210.629 123.783 210.642 123.791 210.658 123.797C212.659 125.024 214.696 126.405 216.892 128.024C221.946 131.749 227.051 136.141 232.498 141.448C234.374 143.275 236.82 145.7 239.114 148.251L239.126 148.264L239.122 148.282C238.641 150.632 236.727 153.403 235.044 155.107L235.03 155.121L235.011 155.116C231.805 154.337 228.367 153.34 224.79 152.155C219.385 150.363 214.661 148.461 210.347 146.341C206.508 144.453 203.312 142.542 200.578 140.499C200.557 140.483 200.532 140.476 200.507 140.476ZM235.068 155.439C235.053 155.439 235.038 155.437 235.022 155.434C231.784 154.649 228.309 153.644 224.694 152.446C219.275 150.649 214.538 148.742 210.213 146.616C206.356 144.72 203.143 142.799 200.394 140.745C200.311 140.681 200.294 140.563 200.356 140.48C200.418 140.397 200.537 140.38 200.62 140.442C203.351 142.482 206.543 144.391 210.379 146.277C214.689 148.396 219.41 150.296 224.813 152.087C228.38 153.269 231.81 154.263 235.008 155.041C236.676 153.349 238.566 150.611 239.049 148.285C236.76 145.741 234.32 143.323 232.448 141.499C227.004 136.194 221.902 131.805 216.85 128.082C214.655 126.465 212.62 125.084 210.627 123.861C210.609 123.855 210.586 123.842 210.567 123.824C209.284 123.039 208.001 122.31 206.76 121.663C206.667 121.615 206.631 121.501 206.679 121.409C206.728 121.316 206.842 121.28 206.934 121.328C208.158 121.966 209.423 122.683 210.694 123.459C214.856 120.518 220.477 109.257 223.146 103.058C223.166 103.012 223.203 102.976 223.25 102.957C223.296 102.939 223.347 102.939 223.395 102.959C223.441 102.979 223.476 103.016 223.495 103.062C223.514 103.109 223.513 103.16 223.493 103.207C220.849 109.347 215.262 120.543 211.043 123.673C212.976 124.869 214.949 126.212 217.073 127.778C222.138 131.511 227.255 135.911 232.712 141.229C234.607 143.076 237.079 145.526 239.393 148.104C239.433 148.149 239.449 148.206 239.438 148.265C238.967 150.716 236.91 153.674 235.2 155.384C235.164 155.42 235.117 155.439 235.068 155.439Z" fill="#6666C7"/>
<path fill-rule="evenodd" clip-rule="evenodd" d="M266.582 182.44C271.101 189.373 275.935 196.222 281.199 202.603C282.818 204.565 284.491 206.498 286.232 208.362C288.527 210.313 291.054 212.271 293.838 214.218C294.23 214.003 294.706 213.936 295.168 214.071C296.583 214.483 298.23 214.698 299.692 214.876C302.02 215.158 304.371 215.338 306.712 215.481C312.694 215.848 318.725 215.971 324.717 215.971C330.71 215.971 336.741 215.848 342.723 215.481C345.064 215.338 347.415 215.158 349.743 214.876C351.205 214.698 352.852 214.483 354.267 214.071C390.598 195.215 384.463 125.469 326.916 124.639C327.428 124.76 327.905 125.119 328.336 125.754C328.336 125.754 332.642 135.142 323.402 158.845C322.298 161.677 321 164.713 319.479 167.962C318.154 170.791 316.66 173.782 314.975 176.94C297.461 176.909 284.685 175.119 276.262 173.326C275.338 173.129 274.466 172.932 273.645 172.737C266.903 171.137 263.672 169.691 263.672 169.691C263.672 169.691 263.514 174.789 266.582 182.44Z" fill="#EFEBFF"/>
<path fill-rule="evenodd" clip-rule="evenodd" d="M276.262 173.325C284.685 175.119 297.461 176.908 314.975 176.939C316.66 173.781 318.154 170.791 319.48 167.961C316.87 167.984 313.896 168.027 311.675 168.104C306.708 168.275 295.574 170.33 286.666 170.673C281.627 170.867 278.397 172.103 276.262 173.325Z" fill="#E4B3B1"/>
<path fill-rule="evenodd" clip-rule="evenodd" d="M286.666 170.674C295.574 170.331 306.707 168.276 311.675 168.105C313.896 168.028 316.87 167.985 319.479 167.962C321 164.714 322.298 161.677 323.401 158.846C317.939 158.708 312.977 158.683 308.467 158.752C302.554 158.841 297.42 159.088 292.964 159.453C292.995 159.824 292.811 160.197 292.465 160.387C291.995 160.644 291.403 160.472 291.145 160.003C291.078 159.879 291.01 159.755 290.941 159.632C262.942 162.27 263.672 169.692 263.672 169.692C263.672 169.692 266.903 171.138 273.645 172.738C274.466 172.932 275.337 173.13 276.262 173.326C278.396 172.104 281.627 170.868 286.666 170.674Z" fill="#E3EFFD"/>
<path fill-rule="evenodd" clip-rule="evenodd" d="M308.467 158.75C312.977 158.682 317.94 158.707 323.402 158.845C332.643 135.142 328.337 125.753 328.337 125.753C327.905 125.119 327.428 124.76 326.916 124.638C320.509 123.115 308.467 158.75 308.467 158.75Z" fill="#CBD3EB"/>
<path fill-rule="evenodd" clip-rule="evenodd" d="M306.711 215.481C304.371 215.337 302.02 215.157 299.692 214.875C298.23 214.698 296.583 214.482 295.168 214.07C294.705 213.936 294.23 214.002 293.838 214.217C293.543 214.38 293.295 214.626 293.132 214.935C293.078 215.036 293.034 215.146 293.001 215.26C292.731 216.184 293.267 217.158 294.191 217.427C295.492 217.806 296.926 218.041 298.306 218.224C298.632 218.267 298.954 218.307 299.271 218.346C301.668 218.636 304.088 218.822 306.498 218.971C312.551 219.341 318.653 219.466 324.717 219.466C330.782 219.466 336.883 219.341 342.937 218.971C345.346 218.822 347.766 218.636 350.164 218.346C350.48 218.307 350.803 218.267 351.129 218.224C352.179 218.084 353.261 217.915 354.29 217.675C354.614 217.6 354.933 217.518 355.244 217.427C356.168 217.158 356.703 216.184 356.434 215.26C356.165 214.336 355.192 213.801 354.267 214.07C352.852 214.482 351.205 214.698 349.743 214.875C347.415 215.157 345.063 215.337 342.723 215.481C336.741 215.847 330.71 215.97 324.717 215.97C318.724 215.97 312.694 215.847 306.711 215.481Z" fill="#B8CCFC"/>
<path fill-rule="evenodd" clip-rule="evenodd" d="M348.434 274.998C346.184 277.389 344.804 280.61 344.804 284.153C344.804 291.532 350.786 297.514 358.165 297.514C365.544 297.514 371.526 291.532 371.526 284.153C371.526 276.774 365.544 270.792 358.165 270.792C355.028 270.792 352.143 271.873 349.864 273.683L358.77 283.264C359.134 283.656 359.112 284.271 358.72 284.636C358.328 285 357.711 284.977 357.347 284.586L348.434 274.998Z" fill="#CBC5E1"/>
<path fill-rule="evenodd" clip-rule="evenodd" d="M290.715 284.636C290.323 284.271 290.301 283.656 290.665 283.264L299.332 273.941C297.006 271.977 293.999 270.792 290.715 270.792C283.336 270.792 277.355 276.774 277.355 284.153C277.355 291.532 283.336 297.514 290.715 297.514C298.094 297.514 304.076 291.532 304.076 284.153C304.076 280.756 302.809 277.656 300.721 275.299L292.088 284.586C291.724 284.977 291.107 285 290.715 284.636Z" fill="#CBC5E1"/>
<path fill-rule="evenodd" clip-rule="evenodd" d="M328.166 125.85C322.805 118.031 309.598 156.013 308.652 158.813C308.618 158.914 308.506 158.969 308.405 158.934C308.304 158.9 308.249 158.79 308.284 158.688C309.228 155.894 320.619 122.784 327 124.445C337.656 124.612 348.112 127.179 356.962 133.283C364.442 138.439 370.022 145.633 373.407 154.041C379.771 169.855 378.013 189.43 367.537 203.12C363.988 207.758 359.545 211.55 354.357 214.243C354.262 214.292 354.144 214.255 354.095 214.161C354.046 214.065 354.083 213.947 354.178 213.898C359.315 211.232 363.714 207.476 367.228 202.884C377.621 189.304 379.36 169.873 373.046 154.187C369.69 145.848 364.158 138.716 356.742 133.603C348.175 127.694 338.089 125.128 327.785 124.85C328.033 125.048 328.27 125.311 328.497 125.644C328.504 125.655 328.51 125.666 328.515 125.678C328.889 126.497 329.126 127.708 329.264 128.583C329.719 131.484 329.624 134.608 329.311 137.517C328.734 142.878 327.327 148.266 325.616 153.367C322.883 161.516 319.188 169.455 315.146 177.031C315.128 177.065 315.101 177.092 315.069 177.109C315.041 177.125 315.009 177.134 314.975 177.134C306.679 177.119 298.351 176.717 290.109 175.757C284.573 175.111 279.025 174.214 273.601 172.926C271.075 172.327 268.542 171.641 266.082 170.805C265.356 170.558 264.58 170.291 263.862 169.987C263.863 171.02 264.015 172.201 264.168 173.187C264.652 176.317 265.585 179.432 266.763 182.368C266.802 182.467 266.753 182.58 266.654 182.62C266.555 182.66 266.442 182.611 266.402 182.512C265.214 179.549 264.273 176.406 263.784 173.246C263.613 172.143 263.445 170.809 263.478 169.686C263.479 169.659 263.485 169.633 263.496 169.61C263.513 169.574 263.539 169.545 263.571 169.525C263.602 169.506 263.639 169.496 263.679 169.497C263.705 169.498 263.73 169.504 263.753 169.514C264.531 169.863 265.401 170.163 266.207 170.437C268.655 171.269 271.176 171.952 273.69 172.548C279.1 173.832 284.634 174.727 290.153 175.371C298.343 176.325 306.616 176.727 314.859 176.745C318.869 169.22 322.533 161.335 325.248 153.242C326.95 148.168 328.351 142.807 328.924 137.475C329.234 134.601 329.33 131.509 328.88 128.643C328.75 127.811 328.521 126.633 328.166 125.85Z" fill="#7D8EC5"/>
<path d="M327.669 124.808L327.786 124.811C339.025 125.112 348.774 128.06 356.765 133.569C364.033 138.581 369.675 145.706 373.083 154.171C376.236 162.007 377.398 170.706 376.442 179.329C375.458 188.189 372.283 196.342 367.259 202.907C363.683 207.581 359.288 211.29 354.196 213.933C354.121 213.972 354.091 214.066 354.13 214.141C354.169 214.217 354.263 214.248 354.338 214.207C359.471 211.544 363.901 207.806 367.506 203.096C377.697 189.776 380 170.528 373.37 154.056C369.94 145.533 364.258 138.362 356.94 133.315C348.706 127.637 338.632 124.665 326.999 124.484C320.543 122.807 308.817 157.234 308.321 158.7C308.308 158.739 308.311 158.781 308.329 158.818C308.347 158.856 308.379 158.884 308.418 158.897C308.457 158.91 308.498 158.907 308.535 158.889C308.573 158.871 308.6 158.839 308.613 158.799C308.726 158.469 319.9 125.644 326.227 124.77C326.983 124.665 327.647 125.02 328.199 125.826L328.202 125.832C328.483 126.453 328.724 127.395 328.919 128.637C329.311 131.136 329.326 134.111 328.963 137.479C328.451 142.245 327.248 147.406 325.286 153.255C322.846 160.528 319.447 168.218 314.894 176.764L314.883 176.784H314.859C306.002 176.765 297.919 176.315 290.149 175.409C284.104 174.704 278.717 173.781 273.681 172.586C270.847 171.913 268.398 171.222 266.194 170.474C265.293 170.168 264.486 169.886 263.737 169.55C263.718 169.541 263.697 169.537 263.676 169.536C263.647 169.535 263.617 169.543 263.592 169.559C263.565 169.575 263.545 169.598 263.532 169.626C263.523 169.645 263.518 169.665 263.517 169.687C263.483 170.876 263.675 172.284 263.823 173.24C264.28 176.195 265.16 179.309 266.439 182.498C266.47 182.577 266.56 182.615 266.639 182.583C266.718 182.552 266.757 182.462 266.725 182.382C265.456 179.216 264.583 176.124 264.129 173.193C263.997 172.345 263.824 171.092 263.823 169.986V169.926L263.878 169.949C264.573 170.245 265.323 170.505 266.095 170.766C268.306 171.518 270.765 172.212 273.61 172.887C278.657 174.085 284.056 175.01 290.113 175.716C297.93 176.627 306.062 177.079 314.975 177.094C315.002 177.094 315.027 177.088 315.05 177.075C315.076 177.06 315.098 177.039 315.111 177.012C319.701 168.409 323.125 160.671 325.578 153.353C327.547 147.483 328.755 142.301 329.271 137.512C329.637 134.117 329.621 131.115 329.225 128.588C329.028 127.332 328.769 126.332 328.48 125.694C328.475 125.684 328.47 125.675 328.464 125.666C328.243 125.341 328.007 125.077 327.761 124.881L327.669 124.808ZM354.268 214.304C354.183 214.304 354.102 214.258 354.06 214.178C354.001 214.063 354.046 213.922 354.16 213.863C359.241 211.226 363.627 207.523 367.197 202.86C377.307 189.647 379.589 170.548 373.01 154.202C369.608 145.75 363.974 138.637 356.72 133.634C348.769 128.152 339.073 125.211 327.898 124.893C328.119 125.084 328.33 125.329 328.53 125.622C328.538 125.635 328.546 125.649 328.552 125.663C328.849 126.315 329.102 127.295 329.303 128.576C329.7 131.109 329.716 134.119 329.35 137.52C328.834 142.316 327.625 147.502 325.653 153.378C323.198 160.7 319.772 168.442 315.181 177.05C315.16 177.089 315.128 177.122 315.088 177.144C315.054 177.163 315.015 177.173 314.975 177.173C306.059 177.157 297.924 176.707 290.104 175.795C284.044 175.088 278.642 174.162 273.592 172.964C270.744 172.288 268.283 171.594 266.07 170.842C265.317 170.586 264.584 170.332 263.902 170.045C263.909 171.132 264.078 172.351 264.207 173.181C264.66 176.106 265.531 179.192 266.798 182.352C266.847 182.473 266.788 182.609 266.669 182.656C266.549 182.704 266.413 182.646 266.365 182.527C265.085 179.333 264.203 176.213 263.745 173.252C263.596 172.293 263.404 170.88 263.439 169.685C263.44 169.652 263.447 169.621 263.46 169.593C263.48 169.55 263.511 169.515 263.551 169.491C263.59 169.468 263.634 169.456 263.679 169.457C263.711 169.458 263.742 169.465 263.77 169.479C264.515 169.813 265.321 170.094 266.22 170.399C268.421 171.147 270.868 171.837 273.699 172.509C278.732 173.704 284.116 174.626 290.158 175.331C297.918 176.235 305.991 176.685 314.836 176.706C319.381 168.172 322.774 160.493 325.21 153.23C327.17 147.386 328.372 142.231 328.885 137.47C329.247 134.11 329.232 131.141 328.841 128.649C328.65 127.434 328.406 126.474 328.132 125.868C327.597 125.091 326.961 124.748 326.238 124.848C319.958 125.716 308.801 158.494 308.689 158.824C308.669 158.884 308.626 158.932 308.57 158.96C308.514 158.987 308.451 158.991 308.393 158.972C308.334 158.952 308.286 158.91 308.258 158.854C308.23 158.797 308.226 158.734 308.246 158.675C308.589 157.658 311.717 148.493 315.567 139.88C320.469 128.912 324.319 123.706 327.01 124.407C338.65 124.587 348.738 127.563 356.985 133.249C364.316 138.306 370.007 145.489 373.443 154.026C376.622 161.924 377.792 170.692 376.826 179.382C375.834 188.308 372.633 196.525 367.568 203.144C363.956 207.863 359.518 211.609 354.376 214.278C354.341 214.296 354.304 214.304 354.268 214.304Z" fill="#7D8EC5"/>
<path fill-rule="evenodd" clip-rule="evenodd" d="M287.328 153.31C288.553 155.4 289.769 157.508 290.941 159.63L291.146 160.001C291.403 160.47 291.996 160.643 292.465 160.385C292.811 160.196 292.995 159.823 292.964 159.452C292.954 159.32 292.916 159.189 292.849 159.067C291.606 156.803 290.309 154.557 289.004 152.328C286.169 147.487 283.225 142.688 280.121 138.014C277.257 133.701 274.14 129.236 270.693 125.37C268.92 123.379 265.291 119.491 262.347 119.716C259.687 119.966 257.249 120.518 255.061 121.229C253.067 121.878 251.282 122.658 249.728 123.46C245.18 125.808 242.617 128.35 242.617 128.35C241.369 129.694 240.415 131.205 239.986 132.874C239.119 136.256 245.077 148.386 246.608 151.499C249.112 156.59 251.809 161.601 254.616 166.532C257.773 172.076 261.088 177.539 264.561 182.892C269.232 190.094 274.237 197.213 279.701 203.837C283.949 208.988 289.088 214.65 294.59 218.472C294.971 218.738 295.479 218.69 295.806 218.386L323.392 248.059L299.332 273.94L290.665 283.263C290.301 283.654 290.323 284.271 290.715 284.636C291.107 285 291.724 284.977 292.088 284.586L300.721 275.299L324.718 249.486L348.434 274.997L357.347 284.586C357.711 284.977 358.328 285 358.72 284.636C359.112 284.271 359.134 283.654 358.77 283.263L349.864 273.683L326.044 248.059L354.291 217.675C353.261 217.915 352.179 218.084 351.129 218.223L324.718 246.634L298.306 218.223C296.926 218.041 295.492 217.805 294.191 217.426C293.267 217.158 292.732 216.184 293.001 215.26C293.034 215.145 293.078 215.036 293.133 214.935C291.574 213.661 290.087 212.281 288.673 210.879C287.844 210.057 287.031 209.216 286.232 208.361C284.491 206.497 282.818 204.564 281.199 202.602C275.935 196.221 271.101 189.372 266.582 182.439L266.19 181.835C262.738 176.514 259.443 171.083 256.304 165.57C253.516 160.675 250.837 155.698 248.351 150.642C246.509 146.899 244.687 143.006 243.246 139.089C243.008 138.443 242.436 136.836 242.096 135.442C241.882 134.567 241.76 133.776 241.868 133.356C242.152 132.248 242.743 131.21 243.531 130.25C243.531 130.25 247.499 126.149 254.081 123.587C254.613 123.379 255.163 123.183 255.729 122.999C257.732 122.347 259.941 121.859 262.323 121.666L262.495 121.653C264.508 121.5 268.042 125.313 269.243 126.662C272.627 130.458 275.691 134.854 278.503 139.089C281.587 143.733 284.511 148.499 287.328 153.31Z" fill="#90A6DF"/>
<path d="M324.718 249.465L324.729 249.477L357.358 284.576C357.717 284.962 358.324 284.984 358.71 284.626C359.096 284.267 359.118 283.66 358.759 283.274L326.023 248.061L326.032 248.051L354.246 217.702C353.376 217.903 352.386 218.073 351.136 218.239L324.718 246.657L324.707 246.645L298.299 218.239C297.123 218.083 295.593 217.852 294.187 217.443C293.254 217.171 292.714 216.19 292.986 215.257C293.018 215.148 293.061 215.04 293.113 214.94C291.7 213.784 290.244 212.46 288.663 210.892C287.858 210.094 287.037 209.245 286.221 208.372C284.598 206.636 282.952 204.752 281.188 202.612C276.456 196.877 271.674 190.281 266.569 182.448L266.177 181.845C262.782 176.612 259.456 171.139 256.29 165.58C253.273 160.279 250.671 155.395 248.337 150.65C246.661 147.244 244.745 143.208 243.232 139.095C242.999 138.464 242.422 136.842 242.081 135.446C241.834 134.432 241.757 133.728 241.853 133.353C242.121 132.309 242.681 131.262 243.518 130.241C243.529 130.23 244.533 129.199 246.328 127.868C247.985 126.64 250.674 124.899 254.075 123.574C254.62 123.363 255.175 123.164 255.724 122.986C257.894 122.279 260.115 121.831 262.322 121.652L262.493 121.639C264.361 121.496 267.53 124.719 269.254 126.653C272.736 130.559 275.89 135.128 278.515 139.082C281.346 143.344 284.232 147.996 287.341 153.303C288.346 155.02 289.667 157.29 290.954 159.624L291.158 159.995C291.413 160.457 291.996 160.627 292.458 160.373C292.788 160.192 292.981 159.831 292.949 159.455C292.938 159.32 292.9 159.193 292.835 159.075C291.478 156.604 290.069 154.176 288.991 152.337C285.863 146.997 282.957 142.315 280.108 138.024C277.446 134.015 274.245 129.378 270.682 125.381C269.706 124.286 268.401 122.881 266.949 121.725C265.167 120.306 263.619 119.636 262.348 119.732C259.895 119.963 257.444 120.472 255.066 121.245C253.251 121.835 251.456 122.585 249.734 123.474C245.241 125.795 242.653 128.337 242.628 128.363C241.283 129.809 240.398 131.329 240.001 132.879C239.604 134.426 240.431 138.911 246.621 151.494C248.972 156.274 251.591 161.19 254.629 166.525C257.815 172.123 261.161 177.627 264.573 182.885C269.866 191.046 274.819 197.897 279.712 203.829C283.271 208.143 288.685 214.353 294.599 218.461C294.965 218.716 295.468 218.681 295.795 218.376L295.806 218.366L295.816 218.377L323.413 248.061L323.403 248.072L290.676 283.274C290.317 283.66 290.339 284.267 290.725 284.626C291.111 284.984 291.718 284.962 292.077 284.576L324.718 249.465ZM358.059 284.911C357.794 284.911 357.531 284.805 357.336 284.597L324.718 249.509L292.099 284.597C291.729 284.995 291.103 285.018 290.705 284.648C290.307 284.277 290.284 283.652 290.654 283.254L323.372 248.061L295.804 218.409C295.467 218.713 294.955 218.746 294.581 218.486C288.665 214.376 283.248 208.164 279.689 203.848C274.795 197.915 269.842 191.064 264.548 182.902C261.136 177.643 257.79 172.138 254.603 166.54C251.565 161.205 248.945 156.288 246.594 151.507C245.876 150.048 243.97 146.172 242.383 142.295C240.414 137.48 239.603 134.309 239.972 132.871C240.37 131.317 241.257 129.792 242.606 128.341C242.632 128.315 245.223 125.77 249.721 123.447C251.444 122.558 253.239 121.807 255.057 121.216C257.437 120.442 259.89 119.933 262.345 119.702C263.625 119.604 265.18 120.278 266.968 121.702C268.422 122.859 269.728 124.265 270.705 125.361C274.268 129.359 277.47 133.998 280.133 138.007C282.982 142.299 285.889 146.981 289.017 152.321C290.095 154.161 291.505 156.59 292.862 159.061C292.928 159.182 292.968 159.313 292.979 159.452C293.011 159.841 292.813 160.213 292.472 160.399C291.996 160.661 291.394 160.486 291.132 160.01L290.928 159.638C289.639 157.305 288.32 155.035 287.314 153.319C284.207 148.012 281.32 143.36 278.49 139.098C275.865 135.146 272.712 130.578 269.232 126.673C267.548 124.784 264.485 121.664 262.617 121.664C262.576 121.664 262.535 121.666 262.495 121.669L262.324 121.682C260.119 121.861 257.903 122.309 255.733 123.014C255.185 123.192 254.631 123.391 254.086 123.602C250.688 124.926 248.001 126.665 246.346 127.892C244.553 129.222 243.55 130.251 243.54 130.261C242.707 131.277 242.149 132.321 241.882 133.361C241.788 133.731 241.864 134.43 242.11 135.439C242.451 136.834 243.027 138.454 243.26 139.085C244.773 143.196 246.689 147.231 248.364 150.636C250.698 155.381 253.3 160.265 256.316 165.565C259.482 171.124 262.808 176.596 266.202 181.829L266.595 182.432C271.699 190.264 276.48 196.858 281.211 202.593C282.974 204.732 284.62 206.616 286.243 208.352C287.058 209.225 287.879 210.071 288.684 210.87C290.268 212.442 291.727 213.767 293.141 214.924L293.151 214.932L293.145 214.943C293.091 215.045 293.047 215.154 293.015 215.265C292.748 216.183 293.278 217.147 294.195 217.413C295.602 217.823 297.132 218.054 298.308 218.21L298.314 218.211L298.317 218.215L324.718 246.613L351.121 218.211L351.127 218.21C352.401 218.041 353.406 217.867 354.287 217.661L354.335 217.65L326.064 248.061L358.781 283.254C359.151 283.652 359.128 284.277 358.73 284.648C358.54 284.823 358.3 284.911 358.059 284.911Z" fill="#9E8EDB"/>
<path fill-rule="evenodd" clip-rule="evenodd" d="M235.694 154.568C236.59 155.492 238.147 156.341 239.992 157.04C245.557 159.148 253.737 159.89 254.243 157.203C254.919 153.625 243.475 152.983 243.475 152.983C243.475 152.983 248.64 152.444 248.64 151.229C248.64 150.679 246.615 150.367 244.396 150.188C241.699 149.972 238.714 149.953 238.714 149.953C237.896 151.893 236.501 153.646 235.694 154.568Z" fill="#E3817E"/>
<path fill-rule="evenodd" clip-rule="evenodd" d="M304.056 142.159L297.329 141.246C296.125 141.083 295.282 139.974 295.446 138.771L298.23 118.258C298.352 117.358 299.18 116.728 300.079 116.85L307.909 117.913C308.808 118.035 309.439 118.863 309.316 119.764L306.532 140.276C306.369 141.48 305.26 142.323 304.056 142.159Z" fill="#E3EFFD"/>
<path fill-rule="evenodd" clip-rule="evenodd" d="M307.28 115.212L301.406 114.415C301.003 114.36 300.633 114.642 300.578 115.045L300.328 116.882L307.66 117.878L307.91 116.04C307.964 115.637 307.682 115.266 307.28 115.212Z" fill="#A2BCFC"/>
<path fill-rule="evenodd" clip-rule="evenodd" d="M304.779 111.607C304.244 111.535 303.753 111.908 303.68 112.442L303.376 114.683L305.31 114.945L305.614 112.705C305.686 112.171 305.312 111.679 304.779 111.607Z" fill="#B8CCFC"/>
<path d="M305.007 140.235C304.888 140.219 304.805 140.109 304.821 139.991L307.517 120.132C307.533 120.013 307.642 119.93 307.761 119.946C307.881 119.962 307.964 120.071 307.948 120.191L305.252 140.049C305.235 140.168 305.126 140.251 305.007 140.235Z" fill="white"/>
<path d="M305.007 140.235L303.361 140.012C303.242 139.996 303.158 139.886 303.175 139.767C303.191 139.649 303.3 139.566 303.419 139.582L305.065 139.805C305.185 139.821 305.268 139.931 305.252 140.049C305.235 140.168 305.126 140.251 305.007 140.235Z" fill="white"/>
<path d="M305.142 139.24L304.245 139.119C304.126 139.103 304.043 138.994 304.059 138.874C304.075 138.756 304.185 138.673 304.303 138.689L305.2 138.81C305.319 138.826 305.402 138.935 305.386 139.055C305.37 139.173 305.261 139.256 305.142 139.24Z" fill="white"/>
<path d="M305.277 138.249L304.38 138.128C304.261 138.111 304.178 138.001 304.194 137.883C304.21 137.764 304.319 137.681 304.439 137.697L305.335 137.819C305.453 137.835 305.537 137.944 305.521 138.063C305.504 138.182 305.395 138.265 305.277 138.249Z" fill="white"/>
<path d="M305.411 137.256L304.515 137.134C304.396 137.117 304.312 137.008 304.328 136.889C304.344 136.771 304.454 136.687 304.573 136.703L305.469 136.825C305.589 136.841 305.672 136.951 305.656 137.069C305.64 137.189 305.531 137.272 305.411 137.256Z" fill="white"/>
<path d="M305.547 136.263L303.899 136.039C303.781 136.023 303.698 135.914 303.714 135.795C303.73 135.676 303.839 135.593 303.959 135.609L305.605 135.833C305.723 135.849 305.806 135.958 305.79 136.077C305.774 136.195 305.665 136.279 305.547 136.263Z" fill="white"/>
<path d="M305.681 135.27L304.785 135.147C304.665 135.131 304.582 135.022 304.598 134.904C304.614 134.784 304.723 134.701 304.843 134.717L305.739 134.839C305.858 134.855 305.942 134.965 305.926 135.083C305.91 135.202 305.8 135.286 305.681 135.27Z" fill="white"/>
<path d="M305.816 134.276L304.919 134.155C304.801 134.139 304.717 134.029 304.734 133.91C304.75 133.792 304.859 133.709 304.977 133.725L305.874 133.846C305.993 133.862 306.076 133.972 306.06 134.091C306.044 134.21 305.935 134.293 305.816 134.276Z" fill="white"/>
<path d="M305.951 133.284L305.053 133.163C304.935 133.147 304.852 133.037 304.868 132.918C304.884 132.799 304.993 132.716 305.113 132.733L306.009 132.854C306.128 132.87 306.211 132.979 306.195 133.099C306.179 133.217 306.069 133.3 305.951 133.284Z" fill="white"/>
<path d="M306.085 132.291L304.439 132.067C304.321 132.051 304.237 131.942 304.253 131.823C304.269 131.704 304.379 131.621 304.498 131.637L306.144 131.861C306.263 131.877 306.346 131.986 306.33 132.105C306.314 132.224 306.204 132.307 306.085 132.291Z" fill="white"/>
<path d="M306.22 131.299L305.323 131.177C305.205 131.161 305.122 131.052 305.138 130.933C305.154 130.814 305.263 130.731 305.382 130.747L306.279 130.868C306.398 130.885 306.481 130.994 306.464 131.113C306.448 131.231 306.339 131.316 306.22 131.299Z" fill="white"/>
<path d="M306.355 130.305L305.458 130.183C305.339 130.167 305.256 130.057 305.272 129.939C305.288 129.819 305.398 129.736 305.517 129.752L306.414 129.875C306.532 129.891 306.615 130 306.599 130.119C306.583 130.237 306.474 130.321 306.355 130.305Z" fill="white"/>
<path d="M306.49 129.312L305.593 129.19C305.474 129.174 305.391 129.065 305.407 128.947C305.423 128.827 305.533 128.744 305.652 128.76L306.548 128.882C306.667 128.898 306.751 129.008 306.734 129.126C306.718 129.245 306.608 129.329 306.49 129.312Z" fill="white"/>
<path d="M306.624 128.319L304.978 128.096C304.86 128.08 304.777 127.97 304.793 127.852C304.809 127.733 304.918 127.65 305.036 127.666L306.682 127.889C306.802 127.905 306.885 128.015 306.869 128.134C306.853 128.252 306.744 128.335 306.624 128.319Z" fill="white"/>
<path d="M306.76 127.327L305.862 127.206C305.744 127.189 305.661 127.079 305.677 126.961C305.693 126.842 305.802 126.759 305.921 126.775L306.818 126.897C306.936 126.913 307.019 127.022 307.003 127.142C306.987 127.26 306.878 127.343 306.76 127.327Z" fill="white"/>
<path d="M306.894 126.333L305.998 126.211C305.878 126.195 305.795 126.085 305.811 125.966C305.827 125.848 305.936 125.765 306.056 125.781L306.952 125.902C307.071 125.919 307.155 126.028 307.139 126.147C307.123 126.266 307.013 126.349 306.894 126.333Z" fill="white"/>
<path d="M307.028 125.34L306.132 125.219C306.013 125.202 305.93 125.093 305.947 124.974C305.963 124.856 306.072 124.772 306.19 124.788L307.088 124.91C307.206 124.926 307.289 125.035 307.273 125.154C307.257 125.273 307.148 125.356 307.028 125.34Z" fill="white"/>
<path d="M307.164 124.348L305.518 124.124C305.398 124.108 305.315 123.999 305.331 123.879C305.348 123.761 305.457 123.678 305.576 123.694L307.222 123.918C307.341 123.934 307.425 124.043 307.408 124.161C307.392 124.28 307.283 124.364 307.164 124.348Z" fill="white"/>
<path d="M307.298 123.354L306.402 123.233C306.282 123.217 306.199 123.108 306.216 122.988C306.232 122.87 306.342 122.787 306.46 122.803L307.357 122.924C307.476 122.94 307.559 123.05 307.543 123.169C307.527 123.288 307.417 123.371 307.298 123.354Z" fill="white"/>
<path d="M307.433 122.361L306.536 122.24C306.418 122.224 306.335 122.114 306.351 121.995C306.367 121.876 306.476 121.793 306.595 121.81L307.492 121.931C307.611 121.947 307.694 122.057 307.678 122.176C307.661 122.294 307.552 122.377 307.433 122.361Z" fill="white"/>
<path d="M307.568 121.368L306.671 121.246C306.552 121.23 306.469 121.12 306.485 121.002C306.502 120.883 306.611 120.8 306.73 120.816L307.627 120.938C307.745 120.954 307.828 121.063 307.812 121.182C307.796 121.301 307.687 121.384 307.568 121.368Z" fill="white"/>
<path d="M307.703 120.376L306.057 120.152C305.938 120.136 305.855 120.027 305.871 119.909C305.887 119.789 305.996 119.706 306.115 119.722L307.761 119.946C307.881 119.962 307.964 120.071 307.948 120.19C307.931 120.31 307.822 120.393 307.703 120.376Z" fill="white"/>
<path fill-rule="evenodd" clip-rule="evenodd" d="M295.686 128.321C295.686 128.321 298.045 126.226 299.063 126.336C300.08 126.445 296.449 131.374 296.449 131.374L295.686 128.321Z" fill="#E3817E"/>
<path fill-rule="evenodd" clip-rule="evenodd" d="M268.513 86.5756C269.944 89.8762 270.293 92.904 268.611 93.6329C266.929 94.3617 263.853 92.517 262.422 89.2165C260.991 85.9159 261.747 82.4099 263.428 81.68C265.11 80.9511 267.081 83.2751 268.513 86.5756Z" fill="#E3817E"/>
</svg>
