<svg width="448" height="311" viewBox="0 0 448 311" fill="none" xmlns="http://www.w3.org/2000/svg">
<path d="M438.169 310.855L30.343 310.363C30.343 310.363 -36.693 220.399 28.5146 171.43C90.1888 125.109 45.3574 102.853 80.9882 42.892C82.5635 40.2406 84.3061 37.7105 86.1994 35.2981C90.5319 29.7852 95.6616 24.9044 101.425 20.6682C145.152 -11.4947 225.405 -6.71527 271.139 39.1938C304.381 72.5647 354.216 52.219 387.482 94.0748C420.75 135.927 374.928 168.885 398.151 189.595C421.376 210.306 468.142 245.994 438.169 310.855Z" fill="#F9F7FF"/>
<path d="M307.217 268.456C307.217 268.456 297.379 225.501 286.886 220.184C276.392 214.867 259.636 216.372 259.044 216.426C258.45 216.478 264.916 225.21 275.433 230.791C285.948 236.373 294.467 234.468 295.17 235.846C301.814 248.875 304.844 268.672 304.844 268.672L307.217 268.456Z" fill="#31C5A1"/>
<path d="M147.018 177.013C147.018 177.013 148.243 181.47 147.308 183.278C146.373 185.085 144.579 186.639 143.715 185.614C142.851 184.589 144.534 178.056 144.534 178.056L147.018 177.013Z" fill="#FFB27D"/>
<path d="M132.832 88.1851C132.832 88.1851 128.13 87.6906 123.96 90.4091C119.789 93.1293 120.24 100.142 116.625 101.803C113.01 103.463 107.129 108.851 107.701 113.844C108.272 118.836 109.994 120.429 107.693 123.414C105.392 126.397 109.438 133.813 116.112 131.55C122.786 129.286 143.589 122.344 145.673 118.412C147.758 114.48 146.685 109.894 144.579 106.135C142.473 102.375 147.081 88.991 132.832 88.1851Z" fill="#163560"/>
<path d="M139.433 203.739C136.099 225.21 133.378 248.343 134.671 260.508C135.702 263.911 138.839 265.03 141.609 265.457L139.718 267.542L134.363 267.877L127.201 265.097C127.201 265.097 127.606 263.684 127.922 261.219C128.287 258.354 126.927 251.82 126.927 251.82C126.927 251.82 123.323 229.247 125.28 224.165C125.836 222.72 126.198 221.068 126.418 219.275V219.273C126.979 214.709 126.623 209.223 126.21 203.893C125.764 198.103 125.25 192.496 125.776 188.443C128.178 169.947 128.124 153.96 128.124 153.96L142.151 153.888C142.151 153.888 146.184 165.158 144.382 174.849C142.852 183.088 141.068 193.213 139.433 203.739Z" fill="#E8945B"/>
<path d="M140.996 118.483C140.996 118.483 144.056 119.258 145.534 122.854C147.012 126.451 147.67 153.918 147.943 156.877C148.216 159.838 147.304 178.299 147.304 178.299C147.304 178.299 145.14 179.061 143.524 177.824C137.66 173.338 140.346 148.461 140.346 148.461L140.996 118.483Z" fill="#F9DDBF"/>
<path d="M145.066 164.833C145.066 164.833 146.649 143.236 145.783 137.64C145.477 135.659 141.928 139.098 141.525 144.164C141.122 149.231 145.066 164.833 145.066 164.833Z" fill="#EFC59E"/>
<path d="M133.061 268.661C136.18 268.257 135.36 269.059 139.734 269.063C144.109 269.067 145.598 267.601 145.801 266.973C145.982 266.415 143.87 265.977 141.609 265.457L141.529 265.515C141.529 265.515 138.786 267.047 135.18 266.732C132.24 266.477 129.229 265.291 127.2 265.099C127.08 265.763 126.96 266.444 127.02 267.131C127.189 269.079 129.942 269.065 133.061 268.661Z" fill="#582EFF"/>
<path d="M131.523 201.559C128.188 223.029 122.911 248.504 124.205 260.671C125.235 264.072 128.373 265.191 131.142 265.62L129.252 267.705L123.897 268.038L116.734 265.26C116.734 265.26 117.139 263.845 117.456 261.381C117.82 258.517 116.46 251.983 116.46 251.983C116.46 251.983 112.856 229.41 114.813 224.326C115.369 222.881 115.731 221.231 115.951 219.438V219.436C116.512 214.87 116.156 209.386 115.743 204.056C115.297 198.266 114.783 192.657 115.31 188.606C117.711 170.109 117.658 154.123 117.658 154.123L131.684 154.049C131.684 154.049 135.718 165.319 133.915 175.01C132.386 183.249 133.158 191.033 131.523 201.559Z" fill="#FFB27D"/>
<path d="M122.594 268.822C125.713 268.42 124.893 269.22 129.268 269.224C133.642 269.228 135.131 267.763 135.334 267.134C135.516 266.578 133.403 266.138 131.142 265.62L131.062 265.676C131.062 265.676 128.319 267.21 124.713 266.895C121.773 266.64 118.762 265.453 116.734 265.26C116.613 265.924 116.493 266.605 116.553 267.292C116.722 269.24 119.475 269.226 122.594 268.822Z" fill="#582EFF"/>
<path d="M113.873 132.879C113.873 132.879 113.625 136.659 113.916 141.192C114.11 144.196 117.171 148.204 117.607 149.199C118.703 151.691 119.925 152.091 119.925 152.091L129.379 154.355L132.703 155.15L143.156 151.97C143.156 151.97 147.855 138.635 145.901 131.153C143.948 123.67 140.995 118.483 140.995 118.483C140.995 118.483 128.942 115.415 119.632 118.188L113.873 132.879Z" fill="#F9DDBF"/>
<path d="M145.239 177.926C144.15 192.099 142.844 204.042 142.844 204.042C142.844 204.042 136.26 208.528 126.915 209.143H126.913H126.911C122.641 209.424 117.796 208.899 112.738 206.767C112.738 206.767 110.636 172.561 111.831 167.105C113.027 161.648 118.412 154.119 118.412 154.119L142.811 154.934C142.811 154.934 146.328 163.749 145.239 177.926Z" fill="#2A09A9"/>
<path d="M143.316 151.497C143.316 151.497 141.243 153.154 137.109 153.259C132.171 153.384 119.926 152.089 119.926 152.089C119.926 152.089 119.39 153.612 119.421 155.217C119.421 155.217 134.387 158.908 143.03 155.644C143.03 155.644 144.136 153.536 143.316 151.497Z" fill="#582EFF"/>
<path d="M136.796 154.967C136.802 155.961 137.482 156.767 138.312 156.762C139.143 156.758 139.815 155.945 139.81 154.951C139.804 153.956 139.124 153.15 138.294 153.156C137.463 153.16 136.791 153.973 136.796 154.967ZM136.049 154.971C136.042 153.563 137.047 152.415 138.29 152.408C139.532 152.401 140.549 153.54 140.557 154.947C140.564 156.354 139.559 157.503 138.316 157.51C137.074 157.515 136.057 156.376 136.049 154.971Z" fill="white"/>
<path d="M103.849 154.623L119.231 167.876L137.374 146.821L121.991 133.566L103.849 154.623Z" fill="#ED7D2B"/>
<path d="M123.393 154.569C123.393 154.569 129.007 155.197 128.996 156.528C128.986 157.861 127.619 160.603 126.927 160.728C126.235 160.855 122.341 157.052 122.341 157.052L123.393 154.569Z" fill="#FFB27D"/>
<path d="M121.326 117.876C121.326 117.876 113.838 118.439 111.003 125.435C108.168 132.43 102.781 144.178 102.791 146.15C102.801 148.121 105.876 154.184 122.238 157.593C122.238 157.593 123.919 155.805 123.81 154.4C123.81 154.4 113.562 145.69 113.584 144.665C113.626 142.727 115.233 140.161 124.144 131.155C126.566 128.706 121.326 117.876 121.326 117.876Z" fill="#F9DDBF"/>
<path d="M122.502 117.509C124.018 117.163 125.269 116.09 125.784 114.623C126.405 112.856 126.892 110.25 126.863 106.986L127.337 107.077L135.316 108.613C135.316 108.613 135.148 111.123 135.155 113.486C135.155 113.506 135.155 113.524 135.155 113.544C135.156 115.596 136.512 117.402 138.486 117.959C139.495 118.246 133.727 125.921 133.062 125.774C131.678 125.468 122.021 117.617 122.502 117.509Z" fill="#FFB27D"/>
<path d="M135.316 108.613C135.316 108.613 135.148 111.123 135.155 113.486C130.694 113.383 128.315 109.326 127.337 107.077L135.316 108.613Z" fill="#E8945B"/>
<path d="M136.817 110.844C136.817 110.844 126.265 111.072 126.224 104.5C126.182 97.9253 124.792 93.528 131.528 93.1043C138.263 92.6805 139.588 95.1797 140.135 97.3711C140.683 99.5607 139.561 110.614 136.817 110.844Z" fill="#FFB27D"/>
<path d="M136.333 92.9177C136.333 92.9177 133.484 100.646 129.055 101.808C124.627 102.971 122.698 101.794 122.698 101.794C122.698 101.794 126.085 99.0735 126.766 94.3539C126.766 94.3539 134.134 89.2593 136.333 92.9177Z" fill="#163560"/>
<path d="M135.62 93.5479C135.62 93.5479 137.767 94.3376 138.657 95.8951C139.527 97.4182 140.272 99.4394 140.115 101.922C140.115 101.922 142.264 96.6702 139.802 93.7164C137.192 90.5868 135.62 93.5479 135.62 93.5479Z" fill="#163560"/>
<path d="M133.061 125.774C133.061 125.774 125.884 118.188 125.6 115.073C125.6 115.073 123.783 115.587 121.653 117.682C121.653 117.682 123.391 121.969 125.446 123.376C125.446 123.376 126.936 123.159 128.107 122.67C128.107 122.67 127.369 123.911 126.781 124.651C126.781 124.651 130.026 126.468 133.061 125.774Z" fill="#EFC59E"/>
<path d="M135.508 115.313C135.508 115.313 136.661 120.295 133.062 125.774C133.062 125.774 136.394 125.118 138.097 122.757C138.097 122.757 137.559 121.496 137.105 121.206C137.105 121.206 138.105 120.803 138.737 121.384C138.737 121.384 139.104 118.624 138.718 117.785C138.332 116.947 136.391 115.474 135.508 115.313Z" fill="#EFC59E"/>
<path d="M132.53 125.778C132.528 125.483 132.765 125.244 133.059 125.244C133.352 125.242 133.592 125.477 133.593 125.771C133.595 126.066 133.358 126.305 133.064 126.307C132.771 126.307 132.531 126.071 132.53 125.778Z" fill="#582EFF"/>
<path d="M135.405 133.299C135.403 133.006 135.64 132.767 135.934 132.765C136.227 132.763 136.467 133 136.468 133.294C136.47 133.587 136.233 133.826 135.939 133.828C135.646 133.83 135.406 133.593 135.405 133.299Z" fill="#582EFF"/>
<path d="M135.982 142.135C135.981 141.842 136.218 141.603 136.511 141.601C136.805 141.599 137.044 141.836 137.046 142.13C137.047 142.423 136.811 142.662 136.517 142.664C136.223 142.666 135.984 142.429 135.982 142.135Z" fill="#582EFF"/>
<path d="M293.813 180.833C293.813 180.833 292.627 186.092 292.966 187.536C293.304 188.977 296.993 191.268 298.373 190.843C299.752 190.419 298.564 183.209 296.189 182.021C293.813 180.833 293.813 180.833 293.813 180.833Z" fill="#FFB27D"/>
<path d="M318.735 93.3382C315.265 91.538 312.485 92.6699 312.485 92.6699C301.869 91.4239 298.772 103.804 298.916 108.064C299.058 112.324 299.547 116.898 294.805 122.433C281.112 138.42 309.792 139.124 309.792 139.124C310.035 126.352 325.344 131.012 324.674 132.305C344.3 137.016 326.624 97.4312 318.735 93.3382Z" fill="#163560"/>
<path d="M303.944 123.217C303.944 123.217 298.158 124.253 296.814 129.257C295.49 134.192 293.304 151.584 293.136 159.328C292.985 166.206 292.965 182.87 292.965 182.87C292.965 182.87 295.171 183.971 298.373 182.87L305.069 148.767L303.944 123.217Z" fill="#F9DDBF"/>
<path d="M298.438 172.368C298.438 172.368 299.59 153.368 298.63 144.025C297.863 136.55 307.22 158.388 306.583 162.358C305.944 166.328 298.438 172.368 298.438 172.368Z" fill="#F2D1B6"/>
<path d="M330.996 137.588C330.996 137.588 331.266 141.38 330.996 145.933C330.817 148.95 327.765 152.993 327.333 153.992C326.246 156.499 325.02 156.908 325.02 156.908L315.539 159.232L312.206 160.047L301.693 156.908C301.693 156.908 296.906 143.544 298.828 136.021C300.751 128.498 303.689 123.273 303.689 123.273C303.689 123.273 310.816 121.561 323.435 122.561L330.996 137.588Z" fill="#F9DDBF"/>
<path d="M328.221 147.078C328.042 150.095 327.765 152.906 327.332 153.906C326.246 156.412 325.019 156.82 325.019 156.82L315.538 159.145L311.422 157.933C311.422 157.933 325.166 155.851 323.645 144.024L328.221 147.078Z" fill="#F2CCAA"/>
<path d="M302.363 158.848C302.363 158.848 297.156 175.054 296.823 180.571C296.488 186.087 306.773 258.943 307.188 261.484C307.577 263.88 310.553 265.409 310.553 265.409C310.553 265.409 311.922 266.215 313.874 265.664C316.584 264.898 317.44 263.982 317.44 263.982C317.44 263.982 321.493 212.024 318.985 193.462C316.477 174.9 316.448 158.848 316.448 158.848H302.363Z" fill="#582EFF"/>
<path d="M324.418 158.366C324.418 158.366 332.36 169.021 333.101 176.224C333.839 183.426 334.261 208.725 335.839 215.747C337.415 222.768 344.501 239.334 344.501 261.236C344.501 261.236 343.094 261.382 341.234 262.051C340.928 262.161 340.519 262.116 340.088 262.07C339.684 262.027 339.26 261.984 338.887 262.07C337.353 262.422 336.422 263.528 335.723 262.119C331.804 254.232 318.378 225.568 317.739 220.287C317.286 216.549 313.345 191.815 304.75 177.301C302.687 173.817 306.016 159.96 306.016 159.96L324.418 158.366Z" fill="#2A09A9"/>
<path d="M301.53 156.347C301.53 156.347 303.62 158 307.773 158.084C312.732 158.183 325.02 156.819 325.02 156.819C325.02 156.819 325.565 158.346 325.543 159.956C325.543 159.956 310.535 163.741 301.84 160.509C301.84 160.509 300.719 158.399 301.53 156.347Z" fill="#582EFF"/>
<path d="M306.583 157.986C305.748 157.986 305.069 158.797 305.069 159.797C305.069 160.795 305.748 161.608 306.583 161.608C307.416 161.608 308.095 160.795 308.095 159.797C308.095 158.797 307.416 157.986 306.583 157.986ZM306.583 162.358C305.335 162.358 304.319 161.21 304.319 159.797C304.319 158.384 305.335 157.236 306.583 157.236C307.831 157.236 308.845 158.384 308.845 159.797C308.845 161.21 307.831 162.358 306.583 162.358Z" fill="white"/>
<path d="M341.176 159.279L325.8 172.668L307.472 151.62L322.848 138.231L341.176 159.279Z" fill="#ED7D2B"/>
<path d="M321.551 159.328C321.551 159.328 315.533 159.858 315.551 161.195C315.569 162.532 317.46 164.864 318.351 164.864C320.387 164.864 322.62 161.814 322.62 161.814L321.551 159.328Z" fill="#FFB27D"/>
<path d="M323.435 122.561C323.435 122.561 330.956 123.001 333.84 130.01C336.723 137.019 342.194 148.788 342.194 150.767C342.194 152.747 339.139 158.85 322.727 162.358C322.727 162.358 321.03 160.572 321.133 159.16C321.133 159.16 331.376 150.361 331.349 149.333C331.297 147.388 329.669 144.819 320.675 135.822C318.23 133.377 323.435 122.561 323.435 122.561Z" fill="#F9DDBF"/>
<path d="M320.65 159.455C320.65 159.455 319.284 159.151 318.393 159.145C317.502 159.138 316.434 158.964 316.426 159.265C316.414 159.823 318.208 160.013 318.208 160.268C318.208 160.522 320.65 159.455 320.65 159.455Z" fill="#FFB27D"/>
<path d="M319.114 122.364C318.554 121.313 316.951 115.965 316.962 113.189L316.486 113.268L308.484 114.61C308.484 114.61 308.665 116.744 308.671 118.754C308.671 118.77 308.671 118.788 308.671 118.805C308.682 120.551 308.647 121.409 308.999 123.573C309.156 124.55 308.823 131.555 312.174 131.051C313.369 130.872 319.483 123.059 319.114 122.364Z" fill="#FFB27D"/>
<path d="M308.483 114.611C308.483 114.611 308.666 116.744 308.671 118.754C313.15 118.648 315.517 115.187 316.486 113.269L308.483 114.611Z" fill="#E8945B"/>
<path d="M306.989 117.113C306.989 117.113 317.583 117.289 317.591 110.688C317.598 104.088 318.971 99.6654 312.206 99.2742C305.442 98.883 304.123 101.4 303.586 103.603C303.048 105.807 304.232 116.898 306.989 117.113Z" fill="#FFB27D"/>
<path d="M307.38 99.1134C307.38 99.1134 310.281 106.858 314.735 108.002C319.186 109.147 321.117 107.953 321.117 107.953C321.117 107.953 317.703 105.24 316.993 100.504C316.993 100.504 309.569 95.4279 307.38 99.1134Z" fill="#163560"/>
<path d="M308.099 99.7415C308.099 99.7415 305.947 100.546 305.062 102.116C304.196 103.65 303.459 105.682 303.631 108.174C303.631 108.174 301.445 102.911 303.901 99.9334C306.505 96.7767 308.099 99.7415 308.099 99.7415Z" fill="#163560"/>
<path d="M311.256 131.186C311.256 131.186 318.158 123.606 318.435 120.553C318.435 120.553 320.367 120.783 322.284 122.476C322.284 122.476 320.733 127.457 318.719 128.835C318.719 128.835 317.26 128.621 316.111 128.143C316.111 128.143 316.834 129.358 317.41 130.085C317.41 130.085 314.231 131.867 311.256 131.186Z" fill="#EFC59E"/>
<path d="M308.704 120.967C308.704 120.967 308.843 125.303 311.256 131.186C311.256 131.186 307.989 130.543 306.319 128.228C306.319 128.228 306.848 126.993 307.291 126.709C307.291 126.709 306.311 126.314 305.692 126.882C305.692 126.882 305.332 124.177 305.71 123.354C306.089 122.534 307.769 121.625 308.704 120.967Z" fill="#EFC59E"/>
<path d="M311.775 131.189C311.777 130.901 311.545 130.666 311.257 130.664C310.969 130.664 310.736 130.896 310.734 131.184C310.732 131.472 310.964 131.705 311.252 131.707C311.54 131.709 311.773 131.477 311.775 131.189Z" fill="#582EFF"/>
<path d="M308.957 138.562C308.959 138.274 308.727 138.039 308.439 138.039C308.151 138.037 307.918 138.269 307.916 138.557C307.914 138.845 308.146 139.078 308.434 139.08C308.722 139.082 308.957 138.85 308.957 138.562Z" fill="#582EFF"/>
<path d="M308.393 147.223C308.395 146.935 308.161 146.701 307.873 146.699C307.587 146.698 307.351 146.929 307.35 147.217C307.348 147.505 307.581 147.739 307.868 147.741C308.156 147.743 308.391 147.511 308.393 147.223Z" fill="#582EFF"/>
<path d="M203.424 251.182C203.424 251.182 193.619 226.003 189.892 224.215C186.164 222.43 177.585 219.398 170.616 223.556C163.647 227.714 159.523 237.724 159.523 237.724C159.523 237.724 164.604 239.747 176.086 236.777C187.568 233.805 189.453 226.923 190.471 227.595C191.487 228.267 201.732 251.189 201.732 251.189L203.424 251.182Z" fill="#31C5A1"/>
<path d="M245.726 251.182C245.726 251.182 252.093 234.828 254.513 233.669C256.934 232.508 262.505 230.54 267.033 233.24C271.559 235.94 274.237 242.442 274.237 242.442C274.237 242.442 270.938 243.757 263.48 241.826C256.023 239.898 254.799 235.426 254.138 235.863C253.477 236.299 246.823 251.186 246.823 251.186L245.726 251.182Z" fill="#31C5A1"/>
<path d="M212.438 251.293C212.438 251.293 206.233 207.552 196.136 201.349C186.041 195.144 169.061 195.218 168.459 195.222C167.858 195.224 173.61 204.495 183.707 210.966C193.804 217.437 202.533 216.261 203.122 217.696C208.687 231.275 210.035 251.306 210.035 251.306L212.438 251.293Z" fill="#31C5A1"/>
<path d="M203.136 255.882C203.136 255.882 203.136 252.688 203.592 251.626C204.047 250.563 205.717 246.238 205.717 246.238H212.244C212.244 246.238 213.457 250.183 213.533 251.474C213.609 252.764 213.533 255.882 213.533 255.882H203.136Z" fill="#582EFF"/>
<path d="M244.573 255.882C244.573 255.882 244.573 252.688 244.119 251.626C243.664 250.563 241.994 246.238 241.994 246.238H235.467C235.467 246.238 234.254 250.183 234.178 251.474C234.102 252.764 234.178 255.882 234.178 255.882H244.573Z" fill="#582EFF"/>
<path d="M218.429 76.553C218.429 76.553 218.199 83.6669 217.288 86.8544L210.08 91.8819L237.21 95.9424L230.741 87.0029C230.741 87.0029 228.787 77.464 229.812 73.9342C230.837 70.4062 218.429 76.553 218.429 76.553Z" fill="#AC734C"/>
<path d="M218.389 77.5339C218.389 77.5321 220.533 82.6991 224.575 82.5851C228.616 82.471 229.536 77.9016 229.536 77.9016L218.389 77.5339Z" fill="#8A5A38"/>
<path d="M215.977 73.3545C215.977 73.3545 214.671 66.8382 213.762 64.866C212.851 62.8919 212.092 54.09 222.185 53.6337C222.185 53.6337 226.055 54.09 228.18 52.8006C228.18 52.8006 228.18 54.0901 227.649 54.5446C227.649 54.5446 231.139 53.7097 233.872 56.7451C236.603 59.7823 232.05 70.4061 232.278 72.9108L215.977 73.3545Z" fill="#2C3A64"/>
<path d="M224.112 80.5897C221.184 80.539 215.794 76.6397 215.794 71.8114V64.2773C215.794 62.5133 217.024 61.0717 218.527 61.0717H229.698C231.201 61.0717 232.429 62.5133 232.429 64.2773V71.3858C232.429 76.4478 227.47 80.6495 224.112 80.5897Z" fill="#AC734C"/>
<path d="M215.794 68.2998C215.794 68.2998 215.81 63.7721 219.396 63.0766C222.982 62.3812 231.007 65.2825 232.144 61.9828C233.283 58.6812 216.632 58.7373 215.794 60.8436C214.957 62.9499 215.794 68.2998 215.794 68.2998Z" fill="#2C3A64"/>
<path d="M203.955 145.234C203.955 145.234 205.097 180.101 203.39 199.996C201.682 219.891 203.402 247.578 203.402 247.578C203.402 247.578 208.863 250.59 214.781 247.578C214.781 247.578 221.272 209.144 221.232 199.996C221.189 190.256 228.297 146.754 228.297 146.754L203.955 145.234Z" fill="#2A09A9"/>
<path d="M244.338 247.578C244.338 247.578 238.879 250.59 232.959 247.578C232.959 247.578 226.468 209.144 226.51 199.996C226.528 195.883 225.271 185.745 223.811 175.409C221.815 161.268 219.443 146.754 219.443 146.754L244.729 145.175C244.729 145.175 242.645 180.103 244.352 199.996C246.058 219.891 244.338 247.578 244.338 247.578Z" fill="#2A09A9"/>
<path d="M244.427 151.035C244.427 151.035 233.647 153.122 223.811 153.122C219.523 153.122 214.863 152.651 211.152 152.154C207.05 151.611 204.108 151.035 204.108 151.035C204.108 151.035 201.922 151.225 203.214 140.451C204.194 132.251 203.887 124.847 203.668 117.23C203.643 116.382 203.661 115.381 203.714 114.265C204.132 105.383 206.82 89.3952 208.866 88.5367C208.866 88.5367 211.911 87.4048 217.288 86.8542C217.288 86.9593 220.408 91.5214 224.112 92.0339C226.414 91.1229 228.221 90.346 230.74 87.0027C233.93 87.374 237.409 88.0061 241.129 89.0058C241.129 89.0058 241.514 90.6991 242.976 120.086C243.557 131.727 247.531 151.073 244.427 151.035Z" fill="#F9DDBF"/>
<path d="M226.51 199.996C226.528 195.883 225.271 185.744 223.811 175.408C225.325 169.234 229.014 163.292 229.014 163.292C233.681 176.383 226.51 199.996 226.51 199.996Z" fill="#582EFF"/>
<path d="M193.706 123.518C193.449 123.731 194.345 125.954 195.667 128.85C198.384 134.797 202.899 143.583 202.899 143.583C202.245 146.062 201.528 147.594 201.528 147.594C193.934 141.629 189.037 136.55 185.911 132.658C181.517 127.183 180.615 124.043 180.615 124.043C197.527 89.6198 209.428 88.3521 209.428 88.3521L208.022 111.101C208.022 111.101 194.49 122.866 193.706 123.518Z" fill="#F9DDBF"/>
<path d="M201.999 144.017C201.999 144.017 206.097 140.223 207.765 142.347C209.435 144.472 209.739 147.811 208.448 147.583C207.158 147.355 204.503 146.141 204.123 146.748C203.745 147.355 202.044 148.516 201.528 147.594C201.012 146.672 201.999 144.017 201.999 144.017Z" fill="#AC734C"/>
<path d="M202.899 143.583C202.245 146.062 201.528 147.594 201.528 147.594C193.934 141.629 189.037 136.55 185.911 132.658C188.267 132.483 191.707 131.64 195.667 128.85C198.384 134.797 202.899 143.583 202.899 143.583Z" fill="#AC734C"/>
<path d="M268.213 124.043C268.213 124.043 267.311 127.183 262.918 132.658C259.792 136.55 254.895 141.629 247.301 147.594C247.301 147.594 246.584 146.062 245.93 143.583C245.93 143.583 250.445 134.797 253.163 128.85C254.484 125.954 255.38 123.731 255.123 123.518C254.514 123.012 246.249 115.83 242.559 112.626C241.491 111.695 240.806 111.101 240.806 111.101L239.962 88.6889C239.962 88.6889 251.302 89.6198 268.213 124.043Z" fill="#F9DDBF"/>
<path d="M246.83 144.017C246.83 144.017 242.732 140.223 241.062 142.347C239.392 144.472 239.09 147.811 240.379 147.583C241.669 147.355 244.325 146.141 244.706 146.748C245.084 147.355 246.785 148.516 247.301 147.594C247.815 146.672 246.83 144.017 246.83 144.017Z" fill="#AC734C"/>
<path d="M245.928 143.583C246.582 146.062 247.299 147.594 247.299 147.594C254.895 141.629 259.792 136.55 262.918 132.658C260.562 132.483 257.121 131.64 253.162 128.85C250.443 134.797 245.928 143.583 245.928 143.583Z" fill="#AC734C"/>
<path d="M217.664 85.1195C217.664 85.1195 216.46 85.6211 216.12 86.9867C216.12 86.9867 220.952 91.9581 224.112 92.0342L217.664 85.1195Z" fill="#ED7D2B"/>
<path d="M224.112 92.0339L230.349 84.8674C230.349 84.8674 231.637 85.715 231.619 87.1096C231.619 87.1096 226.794 92.2241 224.112 92.0339Z" fill="#ED7D2B"/>
<path d="M222.989 91.5069C222.989 91.5069 218.228 132.6 219.885 137.608C220.74 140.187 221.881 142.418 222.788 143.976C223.442 145.095 225.063 145.093 225.709 143.968C226.973 141.773 228.625 138.599 228.625 136.987C228.625 134.375 225.014 91.4707 225.014 91.4707L222.989 91.5069Z" fill="#FF9362"/>
<path d="M221.743 89.4913C221.743 89.4913 224.619 89.2033 226.37 89.3808C226.718 89.417 226.912 89.7973 226.742 90.1016C226.251 90.9854 225.249 92.5176 224.202 92.5176C222.73 92.5176 220.437 89.5927 221.743 89.4913Z" fill="#ED7D2B"/>
<path d="M221.779 75.738C221.779 75.738 222.692 76.9713 224.284 76.926C225.876 76.8826 226.626 75.738 226.626 75.738C226.626 75.738 223.938 75.296 221.779 75.738Z" fill="white"/>
<path d="M216.743 247.158C216.743 247.158 216.371 219.008 209.45 217.047C202.529 215.085 192.453 222.848 190.64 232.747C190.64 232.747 189.021 239.319 186.824 241.668C186.824 241.668 191.839 243.834 197.093 242.759C202.346 241.685 206.753 235.728 207.032 230.619C207.309 225.508 209.232 218.628 210.136 219.053C211.04 219.481 212.327 222.029 213.247 226.158C214.167 230.286 214.919 247.165 214.919 247.165L216.743 247.158Z" fill="#31C5A1"/>
<path d="M105.251 264.338C105.251 264.338 95.5936 239.533 91.9222 237.775C88.2509 236.014 79.8004 233.028 72.9357 237.125C66.071 241.219 62.0073 251.081 62.0073 251.081C62.0073 251.081 67.0119 253.073 78.3224 250.146C89.633 247.221 91.49 240.441 92.4921 241.102C93.4942 241.763 103.586 264.343 103.586 264.343L105.251 264.338Z" fill="#31C5A1"/>
<path d="M114.131 264.445C114.131 264.445 108.018 221.361 98.0735 215.249C88.1288 209.136 71.4028 209.211 70.8108 209.214C70.2187 209.216 75.8842 218.349 85.8301 224.722C95.7758 231.097 104.375 229.938 104.954 231.353C110.436 244.728 111.763 264.458 111.763 264.458L114.131 264.445Z" fill="#31C5A1"/>
<path d="M138.824 260.558C138.824 260.558 139.112 238.695 144.488 237.172C149.863 235.648 157.69 241.678 159.098 249.366C159.098 249.366 160.354 254.471 162.062 256.295C162.062 256.295 158.167 257.977 154.086 257.142C150.005 256.307 146.582 251.682 146.367 247.712C146.151 243.744 144.658 238.4 143.956 238.731C143.254 239.062 142.253 241.042 141.539 244.247C140.824 247.455 140.24 260.563 140.24 260.563L138.824 260.558Z" fill="#31C5A1"/>
<path d="M308.72 269.436C308.72 269.436 297.191 249.978 293.869 249.011C290.546 248.043 283.05 246.711 277.861 251.095C272.674 255.48 270.631 264.309 270.631 264.309C270.631 264.309 275.103 265.287 284.18 261.268C293.257 257.247 293.875 251.307 294.807 251.722C295.738 252.138 307.326 269.671 307.326 269.671L308.72 269.436Z" fill="#31C5A1"/>
<path d="M339.856 262.67C339.856 262.67 340.215 235.576 346.876 233.689C353.537 231.8 363.235 239.273 364.981 248.801C364.981 248.801 366.539 255.127 368.654 257.387C368.654 257.387 363.827 259.472 358.769 258.438C353.713 257.402 349.471 251.67 349.203 246.751C348.937 241.832 347.086 235.21 346.216 235.622C345.345 236.031 344.107 238.485 343.221 242.458C342.335 246.432 341.611 262.677 341.611 262.677L339.856 262.67Z" fill="#31C5A1"/>
<path d="M251.927 249.994L251.822 253.507C251.822 253.531 251.822 253.554 251.822 253.554L251.778 253.915L250.893 260.846L245.472 303.412C244.967 307.094 242.181 309.812 238.912 309.812H209.171C205.436 309.812 202.167 306.853 201.345 302.691L193.624 260.677L192.38 253.915L192.317 253.578V253.507C192.317 253.482 192.317 253.482 192.317 253.459C192.317 251.557 193.666 249.994 195.334 249.994H251.927Z" fill="#FF9362"/>
<path d="M250.892 260.846C245.472 259.644 233.765 257.693 221.258 257.693C209.254 257.693 198.813 259.475 193.624 260.678L192.38 253.915H251.778L250.892 260.846Z" fill="#F07E3B"/>
<path d="M253.747 255.995H190.411C189.77 255.995 189.283 255.341 189.384 254.62L190.419 247.249C190.5 246.671 190.937 246.249 191.447 246.249H252.901C253.422 246.249 253.864 246.691 253.933 247.282L254.779 254.653C254.86 255.364 254.375 255.995 253.747 255.995Z" fill="#FF9362"/>
<path d="M164.232 57.924L163.624 57.6506C164.084 56.0641 163.316 54.3308 161.773 53.6336L156.084 51.0691C156.729 49.6402 156.086 47.9486 154.657 47.3021L153.871 46.9453C153.529 46.7931 153.165 46.7117 152.81 46.699C151.685 46.6591 150.591 47.2912 150.104 48.376L144.413 45.8097C144.35 45.7826 144.288 45.7554 144.225 45.73C144.15 45.7029 144.072 45.6775 143.997 45.6558C142.639 45.2483 141.169 45.7518 140.332 46.8692C140.277 46.938 140.227 47.0105 140.181 47.0847L139.932 46.9706L139.342 46.7062C141.146 43.6401 143.585 41.2349 146.279 39.6828C147.319 39.0834 148.396 38.6107 149.488 38.2793C151.377 37.6961 153.315 37.5331 155.184 37.8446C156.12 37.9968 157.042 38.272 157.933 38.6741C164.281 41.5356 166.86 49.8557 164.232 57.924ZM200.841 67.9556C190.676 60.3636 175.858 58.9835 169.329 58.7589C167.26 58.6883 166.025 58.73 166.025 58.73L165.636 58.5561C168.59 49.7017 165.674 40.4797 158.564 37.2741C157.048 36.5914 155.449 36.2309 153.831 36.1675C150.769 36.048 147.629 36.9898 144.8 38.7972C144.635 38.9023 144.472 39.0091 144.311 39.1214C141.823 40.8166 139.604 43.1873 137.924 46.0959C136.51 45.6522 134.964 46.1828 134.112 47.3727C133.985 47.552 133.874 47.7476 133.78 47.954L128.282 60.1535C126.058 65.0796 128.276 70.9312 133.204 73.1516L136.114 74.461L150.076 80.7545C155.612 83.2483 162.177 80.7635 164.671 75.2289L166.174 71.8911C167.09 71.3387 168.034 70.7374 169.006 70.089C184.853 59.4979 201.2 70.8986 201.2 70.8986C201.388 70.4857 201.463 70.0945 201.463 69.7395C201.472 68.6746 200.841 67.9556 200.841 67.9556Z" fill="#FF9362"/>
<path d="M166.174 71.8911C167.09 71.3387 168.034 70.7375 169.006 70.0891C174.032 66.7314 179.11 65.5831 183.698 65.5831C193.579 65.5831 201.2 70.8986 201.2 70.8986C201.343 70.5853 201.419 70.2829 201.448 70.0022C201.421 70.2829 201.345 70.5853 201.2 70.9005C201.2 70.9005 193.579 65.5831 183.7 65.5831C179.11 65.5831 174.032 66.7313 169.006 70.0909C168.034 70.7374 167.092 71.3369 166.174 71.8911Z" fill="#E9AC95"/>
<path d="M166.173 71.8911C164.476 67.3743 166.842 65.6827 179.648 64.0673C180.859 63.9133 182.04 63.8445 183.188 63.8445C192.403 63.8445 199.427 68.2979 201.46 69.7414C201.46 69.8265 201.457 69.9134 201.448 70.0022C201.419 70.2829 201.343 70.5853 201.2 70.8986C201.2 70.8986 193.579 65.5831 183.697 65.5831C179.11 65.5831 174.032 66.7314 169.006 70.0891C168.033 70.7375 167.09 71.3387 166.173 71.8911Z" fill="#F07E3B"/>
<path d="M136.114 74.4629L135.011 73.9648L136.11 74.4593C136.112 74.4611 136.113 74.4611 136.114 74.4629ZM128.064 60.6752C128.131 60.4995 128.204 60.3256 128.282 60.1517L129.588 57.2558L128.282 60.1536C128.204 60.3256 128.131 60.4995 128.064 60.6752ZM150.103 48.3761L146.976 46.9653L150.103 48.3761C150.243 48.0646 150.433 47.7911 150.659 47.5593C150.433 47.7911 150.243 48.0646 150.103 48.3761ZM150.662 47.5557C150.663 47.5557 150.663 47.5557 150.664 47.5557C150.663 47.5557 150.663 47.5557 150.662 47.5557ZM140.181 47.0848L139.932 46.9707L139.342 46.7063L140.057 46.5306C140.58 45.7066 141.468 45.3625 142.426 45.3625C143.058 45.3625 143.721 45.5128 144.33 45.7736C144.295 45.7591 144.26 45.7446 144.225 45.7301C144.149 45.703 144.072 45.6776 143.997 45.6559C143.681 45.5599 143.36 45.5146 143.042 45.5146C141.99 45.5146 140.974 46.0108 140.331 46.8693C140.277 46.9381 140.227 47.0106 140.181 47.0848ZM153.715 46.882C153.42 46.7697 153.11 46.7099 152.81 46.6991C152.777 46.6973 152.744 46.6972 152.71 46.6972C152.688 46.6972 152.668 46.6972 152.647 46.6972C152.668 46.6972 152.69 46.6972 152.712 46.6972C152.744 46.6972 152.777 46.6973 152.81 46.6991C153.112 46.7099 153.42 46.7697 153.715 46.882ZM139.039 44.3537C139.041 44.3483 139.045 44.3447 139.047 44.341C139.044 44.3447 139.042 44.3483 139.039 44.3537ZM139.058 44.3266C140.568 42.1931 142.385 40.4219 144.37 39.0799C144.35 39.0943 144.33 39.1088 144.311 39.1215C142.348 40.4581 140.553 42.2148 139.058 44.3266ZM155.184 37.8465C154.557 37.7415 153.922 37.6908 153.284 37.6908C153.072 37.6908 152.862 37.6962 152.65 37.707C152.862 37.6962 153.076 37.6908 153.288 37.6908C153.925 37.6908 154.557 37.7415 155.184 37.8447C155.184 37.8465 155.184 37.8465 155.184 37.8465ZM152.63 37.7089C152.634 37.7071 152.638 37.707 152.641 37.707C152.638 37.707 152.634 37.7071 152.63 37.7089ZM153.831 36.1676C153.659 36.1604 153.485 36.1586 153.311 36.1586C153.199 36.1586 153.087 36.1586 152.973 36.1622C153.087 36.1586 153.201 36.1586 153.313 36.1586C153.485 36.1586 153.659 36.1604 153.831 36.1676Z" fill="#E9AC95"/>
<path d="M136.11 74.459L135.011 73.9646L133.205 73.1514C128.449 71.0089 126.218 65.4869 128.064 60.6749C128.131 60.4992 128.204 60.3253 128.282 60.1533L129.588 57.2555L133.78 47.9557C134.349 46.6915 135.601 45.9418 136.908 45.9418C137.246 45.9418 137.589 45.9925 137.924 46.0975C138.273 45.4926 138.645 44.9094 139.039 44.3534C139.042 44.348 139.044 44.3444 139.048 44.3408C139.051 44.3353 139.054 44.3317 139.058 44.3263C140.553 42.2146 142.349 40.4578 144.311 39.1212C144.33 39.1086 144.35 39.0941 144.37 39.0796C144.512 38.9836 144.656 38.8894 144.8 38.7989C147.366 37.158 150.186 36.2308 152.973 36.1619C153.087 36.1583 153.199 36.1583 153.311 36.1583C153.485 36.1583 153.659 36.1601 153.831 36.1674C154.253 36.9153 154.733 37.4551 155.184 37.8444C154.557 37.7412 153.925 37.6905 153.288 37.6905C153.076 37.6905 152.862 37.6959 152.65 37.7068C152.647 37.7068 152.645 37.7068 152.641 37.7068C152.638 37.7068 152.634 37.7068 152.63 37.7086C150.479 37.8245 148.307 38.5127 146.28 39.6809C143.584 41.2348 141.145 43.6417 139.341 46.706L139.342 46.7042C139.342 46.706 139.342 46.706 139.342 46.706L139.932 46.9704L140.181 47.0845C140.227 47.0103 140.277 46.9378 140.332 46.869C140.974 46.0106 141.99 45.5143 143.042 45.5143C143.36 45.5143 143.682 45.5596 143.997 45.6556C144.072 45.6773 144.15 45.7027 144.225 45.7299C144.26 45.7443 144.295 45.7588 144.33 45.7733C144.358 45.786 144.386 45.7987 144.413 45.8095L146.976 46.965L150.103 48.3758C150.243 48.0643 150.433 47.7909 150.659 47.559C150.66 47.5572 150.661 47.5572 150.662 47.5554C150.663 47.5554 150.663 47.5554 150.664 47.5554C151.187 47.0212 151.904 46.7151 152.647 46.697C152.668 46.697 152.688 46.697 152.71 46.697C152.745 46.697 152.777 46.697 152.81 46.6988C153.11 46.7097 153.42 46.7694 153.715 46.8817C153.768 46.9016 153.82 46.9234 153.871 46.9451L154.659 47.3019C154.659 47.3019 152.984 47.6822 152.784 49.8537C152.784 49.8537 152.726 49.8482 152.625 49.8482C152.076 49.8482 150.224 49.9931 149.219 51.8694C149.219 51.8694 148.058 51.0743 146.468 51.0743C144.846 51.0743 142.777 51.9038 141.041 55.2507C137.606 61.8756 131.778 71.8873 136.11 74.459Z" fill="#F07E3B"/>
<path d="M146.697 44.5963C143.736 45.7264 137.202 48.7201 133.008 47.0467C131.338 46.3802 129.663 44.9512 128.096 44.3065C122.518 42.0155 111.213 39.1775 111.213 39.1775L114.144 28.5429C114.144 28.5429 128.684 36.4192 130.259 36.7271C132.702 37.2053 135.387 36.1965 136.962 36.9553C141.294 39.0471 145.267 39.6321 147.352 38.7411C148.941 38.0619 149.488 38.2756 149.488 38.2756C149.488 38.2756 149.656 43.5114 146.697 44.5963Z" fill="#FFB27D"/>
<path d="M200.124 75.0841C200.146 74.4484 201.367 72.5233 201.367 72.5233C201.367 72.5233 202.451 74.5263 202.43 75.1638C202.408 75.8013 201.874 76.2994 201.238 76.2776C200.601 76.2541 200.102 75.7216 200.124 75.0841Z" fill="#AFCDFB"/>
<path d="M199.865 82.5998C199.887 81.9641 201.108 80.0389 201.108 80.0389C201.108 80.0389 202.193 82.0438 202.171 82.6794C202.149 83.3169 201.615 83.815 200.979 83.7933C200.342 83.7715 199.844 83.2373 199.865 82.5998Z" fill="#AFCDFB"/>
<path d="M131.953 36.9935C131.953 36.9935 134.746 35.1951 138.227 35.2784C140.079 35.3237 146.129 35.8525 146.056 36.222C145.651 38.2866 142.289 36.3723 141.432 38.4206C140.575 40.4689 131.953 36.9935 131.953 36.9935Z" fill="#FFB27D"/>
<path d="M117.235 40.7892C115.751 42.3395 113.735 43.9568 110.996 45.5034L86.1997 37.234C90.5322 31.4187 95.6619 26.2698 101.425 21.8018C104.929 23.5694 119.695 31.4947 121.234 32.3206C121.32 32.3659 121.364 32.3894 121.364 32.3894C121.364 32.3894 121.531 36.3013 117.235 40.7892Z" fill="#31C5A1"/>
<path d="M146.332 258.133L146.243 261.109C146.243 261.129 146.243 261.148 146.243 261.148L146.207 261.455L145.457 267.322L140.868 303.361C140.439 306.478 138.081 308.78 135.313 308.78H110.132C106.972 308.78 104.203 306.275 103.507 302.749L96.9704 267.179L95.9169 261.455L95.8633 261.168V261.109C95.8633 261.087 95.8633 261.087 95.8633 261.067C95.8633 259.457 97.0063 258.133 98.4171 258.133H146.332Z" fill="#FF9362"/>
<path d="M145.457 267.323C140.868 266.303 130.956 264.653 120.366 264.653C110.204 264.653 101.364 266.16 96.9705 267.18L95.917 261.455H146.208L145.457 267.323Z" fill="#F07E3B"/>
<path d="M147.874 263.215H94.2504C93.7078 263.215 93.2941 262.661 93.38 262.05L94.2567 255.809C94.3252 255.32 94.6941 254.962 95.1271 254.962H147.157C147.599 254.962 147.973 255.337 148.031 255.837L148.748 262.077C148.817 262.681 148.406 263.215 147.874 263.215Z" fill="#FF9362"/>
<path d="M346.448 258.133L346.36 261.109C346.36 261.129 346.36 261.148 346.36 261.148L346.323 261.455L345.574 267.322L340.984 303.361C340.555 306.478 338.199 308.78 335.43 308.78H310.248C307.088 308.78 304.321 306.275 303.624 302.749L297.087 267.179L296.033 261.455L295.979 261.168V261.109C295.979 261.087 295.979 261.087 295.979 261.067C295.979 259.457 297.124 258.133 298.534 258.133H346.448Z" fill="#FF9362"/>
<path d="M345.573 267.323C340.984 266.303 331.072 264.653 320.483 264.653C310.321 264.653 301.481 266.16 297.087 267.18L296.033 261.455H346.323L345.573 267.323Z" fill="#F07E3B"/>
<path d="M347.992 263.215H294.368C293.824 263.215 293.411 262.661 293.497 262.05L294.373 255.809C294.442 255.32 294.811 254.962 295.244 254.962H347.275C347.717 254.962 348.09 255.337 348.148 255.837L348.865 262.077C348.934 262.681 348.522 263.215 347.992 263.215Z" fill="#FF9362"/>
</svg>
