<svg width="469" height="312" viewBox="0 0 469 312" fill="none" xmlns="http://www.w3.org/2000/svg">
<path d="M18.0064 311.435C18.1165 309.159 -27.2263 240.821 25.5779 177.726C49.4153 149.244 89.7349 164.676 83.3577 81.4717C77.8502 9.63256 172.966 -32.58 232.078 31.5593C270.27 73.0001 308.933 17.7161 369.523 49.0834C430.112 80.4507 390.214 165.706 415.077 173.74C464.052 189.564 488.376 259.201 449.329 310.661L18.0064 311.435Z" fill="#F9F7FF"/>
<path d="M240.236 159.06C239.958 158.486 239.652 157.904 239.325 157.33L240.248 156.806C240.585 157.4 240.903 158.003 241.191 158.597L240.236 159.06ZM238.306 155.657C237.955 155.117 237.58 154.575 237.191 154.044L238.046 153.414C238.447 153.961 238.834 154.519 239.196 155.075L238.306 155.657ZM132.853 167.37C132.182 167.442 131.507 167.499 130.846 167.537L130.785 166.476C131.428 166.438 132.087 166.383 132.74 166.313L132.853 167.37ZM134.849 167.106L134.686 166.057C135.325 165.958 135.976 165.842 136.622 165.713L136.83 166.754C136.169 166.885 135.502 167.005 134.849 167.106ZM128.831 167.605C128.156 167.611 127.477 167.597 126.814 167.567L126.864 166.506C127.507 166.536 128.166 166.548 128.823 166.544L128.831 167.605ZM138.793 166.317L138.541 165.286C139.171 165.133 139.81 164.962 140.443 164.78L140.737 165.801C140.09 165.986 139.437 166.16 138.793 166.317ZM124.801 167.416C124.13 167.346 123.457 167.259 122.8 167.152L122.971 166.103C123.606 166.206 124.259 166.293 124.91 166.359L124.801 167.416ZM142.657 165.209L142.325 164.2C142.941 163.997 143.566 163.778 144.186 163.55L144.553 164.547C143.923 164.78 143.284 165.002 142.657 165.209ZM146.423 163.82L146.022 162.837C146.623 162.59 147.233 162.33 147.834 162.06L148.267 163.029C147.656 163.304 147.036 163.57 146.423 163.82ZM120.817 166.766C120.156 166.617 119.498 166.444 118.859 166.256L119.161 165.237C119.776 165.419 120.414 165.584 121.051 165.729L120.817 166.766ZM235.988 152.497C235.577 151.996 235.144 151.495 234.705 151.011L235.491 150.296C235.944 150.794 236.387 151.307 236.809 151.823L235.988 152.497ZM150.086 162.181L149.623 161.226C150.207 160.942 150.801 160.644 151.386 160.338L151.879 161.279C151.281 161.589 150.679 161.893 150.086 162.181ZM116.939 165.618C116.306 165.384 115.675 165.125 115.065 164.849L115.502 163.882C116.09 164.146 116.697 164.396 117.307 164.621L116.939 165.618ZM153.64 160.324L153.121 159.396C153.689 159.078 154.265 158.746 154.831 158.409L155.375 159.321C154.799 159.664 154.215 160.002 153.64 160.324ZM233.347 149.59C232.887 149.131 232.406 148.676 231.922 148.239L232.632 147.451C233.129 147.9 233.621 148.367 234.096 148.837L233.347 149.59ZM113.249 163.951C112.655 163.629 112.067 163.284 111.502 162.922L112.073 162.028C112.615 162.376 113.181 162.71 113.753 163.018L113.249 163.951ZM157.082 158.274L156.514 157.376C157.064 157.028 157.62 156.666 158.172 156.299L158.762 157.183C158.204 157.554 157.638 157.922 157.082 158.274ZM160.413 156.051L159.804 155.181C160.336 154.807 160.876 154.418 161.41 154.026L162.039 154.883C161.499 155.28 160.951 155.673 160.413 156.051ZM109.836 161.764C109.296 161.357 108.768 160.926 108.264 160.481L108.966 159.684C109.449 160.111 109.957 160.524 110.475 160.916L109.836 161.764ZM230.433 146.956C229.928 146.543 229.408 146.138 228.884 145.746L229.517 144.894C230.055 145.293 230.59 145.711 231.106 146.134L230.433 146.956ZM163.635 153.679L162.988 152.836L163.145 152.715C163.624 152.346 164.1 151.982 164.576 151.627L165.212 152.477C164.741 152.83 164.269 153.19 163.794 153.558L163.635 153.679ZM227.28 144.614C226.74 144.25 226.182 143.895 225.624 143.557L226.174 142.647C226.748 142.993 227.318 143.358 227.874 143.73L227.28 144.614ZM106.798 159.08C106.33 158.595 105.875 158.085 105.446 157.566L106.266 156.891C106.677 157.39 107.112 157.876 107.563 158.341L106.798 159.08ZM166.808 151.305L166.189 150.443C166.731 150.053 167.28 149.664 167.822 149.29L168.426 150.164C167.888 150.534 167.344 150.919 166.808 151.305ZM223.921 142.58C223.349 142.27 222.76 141.968 222.172 141.686L222.632 140.728C223.236 141.018 223.84 141.328 224.425 141.646L223.921 142.58ZM170.064 149.056L169.478 148.17C170.038 147.8 170.604 147.435 171.16 147.085L171.726 147.985C171.178 148.331 170.618 148.69 170.064 149.056ZM104.22 155.947C103.834 155.395 103.465 154.819 103.126 154.235L104.043 153.699C104.37 154.257 104.722 154.809 105.091 155.339L104.22 155.947ZM173.411 146.948L172.865 146.036C173.437 145.693 174.019 145.355 174.594 145.027L175.118 145.951C174.551 146.275 173.977 146.61 173.411 146.948ZM220.383 140.875C219.782 140.621 219.168 140.377 218.559 140.152L218.926 139.155C219.551 139.385 220.183 139.636 220.798 139.898L220.383 140.875ZM176.848 144.997L176.345 144.062C176.933 143.746 177.531 143.436 178.122 143.138L178.599 144.088C178.017 144.38 177.427 144.685 176.848 144.997ZM216.7 139.516C216.079 139.32 215.446 139.137 214.814 138.97L215.086 137.943C215.734 138.114 216.385 138.303 217.02 138.505L216.7 139.516ZM180.377 143.221L179.925 142.26C180.53 141.976 181.144 141.698 181.749 141.431L182.174 142.405C181.581 142.667 180.975 142.941 180.377 143.221ZM102.169 152.441C101.877 151.835 101.603 151.209 101.359 150.58L102.347 150.194C102.582 150.798 102.844 151.398 103.124 151.98L102.169 152.441ZM212.905 138.511C212.269 138.374 211.62 138.251 210.975 138.144L211.15 137.097C211.811 137.206 212.476 137.333 213.127 137.474L212.905 138.511ZM183.995 141.644L183.6 140.659C184.221 140.408 184.85 140.166 185.472 139.94L185.837 140.937C185.228 141.159 184.608 141.398 183.995 141.644ZM209.031 137.866C208.384 137.788 207.727 137.725 207.076 137.677L207.153 136.618C207.82 136.668 208.493 136.731 209.156 136.811L209.031 137.866ZM187.699 140.285L187.366 139.276C188.003 139.065 188.648 138.863 189.282 138.678L189.581 139.697C188.958 139.88 188.325 140.079 187.699 140.285ZM205.114 137.578C204.467 137.56 203.806 137.554 203.149 137.564L203.133 136.501C203.804 136.491 204.481 136.495 205.144 136.515L205.114 137.578ZM191.481 139.173L191.217 138.144C191.864 137.977 192.522 137.822 193.171 137.679L193.397 138.716C192.76 138.857 192.117 139.01 191.481 139.173ZM201.185 137.635C200.536 137.673 199.877 137.725 199.226 137.788L199.121 136.731C199.786 136.666 200.461 136.612 201.124 136.574L201.185 137.635ZM195.329 138.332L195.14 137.287C195.801 137.168 196.468 137.061 197.125 136.97L197.272 138.022C196.629 138.112 195.976 138.217 195.329 138.332ZM100.698 148.661C100.503 148.021 100.33 147.359 100.183 146.698L101.22 146.467C101.361 147.103 101.527 147.737 101.714 148.353L100.698 148.661ZM99.8142 144.705C99.7784 144.461 99.7447 144.217 99.7169 143.972C99.6653 143.547 99.6236 143.116 99.5918 142.691L100.65 142.611C100.682 143.021 100.721 143.438 100.771 143.845C100.799 144.082 100.831 144.316 100.866 144.55L99.8142 144.705ZM100.569 140.657L99.5065 140.665C99.5025 139.997 99.5184 139.316 99.5581 138.64L100.618 138.702C100.58 139.355 100.563 140.013 100.569 140.657ZM100.793 136.751L99.7387 136.624C99.8181 135.972 99.9174 135.309 100.037 134.653L101.087 134.812L101.079 134.854C100.968 135.478 100.87 136.119 100.793 136.751ZM101.48 132.887L100.444 132.653C100.59 131.999 100.755 131.342 100.928 130.7L101.952 130.978C101.784 131.606 101.625 132.248 101.48 132.887ZM137.797 127.512C137.096 127.577 136.403 127.595 135.734 127.565L135.784 126.504C136.401 126.534 137.044 126.516 137.696 126.455L137.797 127.512ZM139.824 127.19L139.596 126.153C140.211 126.018 140.838 125.843 141.456 125.634L141.795 126.641C141.14 126.862 140.477 127.047 139.824 127.19ZM133.675 127.299C132.979 127.146 132.307 126.931 131.686 126.657L132.113 125.684C132.671 125.928 133.272 126.123 133.902 126.26L133.675 127.299ZM143.695 125.89L143.258 124.923C143.842 124.659 144.422 124.361 144.984 124.039L145.512 124.961C144.92 125.3 144.309 125.612 143.695 125.89ZM147.231 123.868L146.619 122.998C147.148 122.627 147.664 122.225 148.152 121.81L148.841 122.619C148.329 123.058 147.787 123.477 147.231 123.868ZM102.51 129.093L101.5 128.769C101.704 128.131 101.925 127.49 102.155 126.866L103.149 127.233C102.925 127.843 102.711 128.469 102.51 129.093ZM129.866 125.602C129.302 125.183 128.786 124.699 128.333 124.158L129.145 123.475C129.546 123.952 130.003 124.381 130.499 124.75L129.866 125.602ZM150.328 121.222L149.566 120.483C150.016 120.016 150.445 119.526 150.84 119.025L151.674 119.682C151.255 120.213 150.803 120.729 150.328 121.222ZM103.872 125.406L102.893 124.993C103.153 124.375 103.431 123.757 103.717 123.155L104.676 123.612C104.398 124.202 104.126 124.804 103.872 125.406ZM127.168 122.412C126.856 121.818 126.59 121.168 126.377 120.485L127.392 120.169C127.584 120.791 127.827 121.379 128.109 121.917L127.168 122.412ZM152.851 118.014L151.952 117.448C152.297 116.899 152.611 116.333 152.887 115.761L153.844 116.224C153.55 116.83 153.217 117.432 152.851 118.014ZM105.564 121.86L104.629 121.359C104.944 120.769 105.278 120.179 105.619 119.605L106.53 120.149C106.197 120.71 105.871 121.286 105.564 121.86ZM125.915 118.473C125.887 118.288 125.859 118.099 125.837 117.908C125.78 117.434 125.74 116.937 125.722 116.43L126.782 116.389C126.8 116.865 126.838 117.334 126.892 117.779C126.913 117.958 126.937 118.133 126.965 118.308L125.915 118.473ZM154.626 114.327L153.624 113.981C153.832 113.373 154.007 112.749 154.138 112.128L155.176 112.348C155.033 113.012 154.849 113.677 154.626 114.327ZM107.575 118.485L106.689 117.899C107.057 117.342 107.442 116.786 107.837 116.244L108.694 116.869C108.309 117.4 107.932 117.942 107.575 118.485ZM126.79 114.442L125.73 114.4C125.756 113.721 125.806 113.041 125.879 112.382L126.935 112.497C126.864 113.133 126.814 113.788 126.79 114.442ZM155.478 110.318L154.42 110.226C154.473 109.593 154.491 108.945 154.467 108.305L155.528 108.268C155.553 108.949 155.535 109.64 155.478 110.318ZM109.888 115.31L109.06 114.646C109.477 114.126 109.911 113.608 110.354 113.105L111.15 113.806C110.719 114.295 110.295 114.801 109.888 115.31ZM112.482 112.358L111.718 111.621C112.183 111.138 112.663 110.661 113.147 110.203L113.878 110.973C113.406 111.422 112.935 111.887 112.482 112.358ZM127.215 110.572L126.171 110.379C126.294 109.714 126.443 109.048 126.616 108.403L127.642 108.677C127.475 109.295 127.332 109.932 127.215 110.572ZM154.231 106.436C154.088 105.822 153.876 105.232 153.604 104.686L154.555 104.213C154.864 104.833 155.103 105.5 155.265 106.196L154.231 106.436ZM115.333 109.65L114.636 108.848C115.141 108.411 115.661 107.978 116.185 107.562L116.844 108.395C116.334 108.802 115.824 109.225 115.333 109.65ZM128.216 106.819L127.215 106.464C127.442 105.828 127.696 105.194 127.972 104.581L128.94 105.018C128.676 105.604 128.432 106.21 128.216 106.819ZM152.585 103.134C152.194 102.669 151.738 102.236 151.231 101.845L151.879 101.003C152.446 101.44 152.959 101.926 153.399 102.449L152.585 103.134ZM118.412 107.207L117.789 106.347C118.331 105.953 118.887 105.568 119.445 105.2L120.03 106.086C119.484 106.446 118.941 106.823 118.412 107.207ZM121.692 105.039L121.146 104.128C121.72 103.784 122.308 103.448 122.895 103.13L123.401 104.064C122.828 104.376 122.252 104.704 121.692 105.039ZM129.808 103.279L128.879 102.767C129.165 102.246 129.476 101.73 129.802 101.225C129.453 101.348 129.103 101.476 128.758 101.607L128.381 100.613C129.008 100.375 129.647 100.148 130.281 99.9419L130.61 100.951C130.433 101.009 130.255 101.068 130.078 101.13L130.815 101.619C130.457 102.157 130.12 102.717 129.808 103.279ZM149.631 100.838C149.087 100.558 148.496 100.307 147.872 100.093L148.216 99.0876C148.887 99.3181 149.526 99.5883 150.116 99.8922L149.631 100.838ZM125.151 103.166L124.686 102.211C125.287 101.919 125.903 101.634 126.516 101.37L126.937 102.346C126.34 102.604 125.738 102.88 125.151 103.166ZM146.016 99.5803C145.406 99.4492 144.763 99.3439 144.104 99.2664L144.225 98.2116C144.918 98.291 145.595 98.4023 146.238 98.5413L146.016 99.5803ZM132.492 100.383L132.282 99.6181C132.169 99.7571 132.059 99.8962 131.95 100.035L131.112 99.3837C131.521 98.8572 131.958 98.3347 132.415 97.8302L133.203 98.5413C132.99 98.7777 132.78 99.0181 132.577 99.2605C133.11 99.1194 133.644 98.9903 134.17 98.8731L134.398 99.9101C133.767 100.051 133.125 100.21 132.492 100.383ZM142.164 99.1254C141.531 99.1055 140.874 99.1075 140.213 99.1353L140.171 98.0745C140.858 98.0467 141.539 98.0427 142.198 98.0646L142.164 99.1254ZM136.324 99.5406L136.151 98.4917C136.824 98.3804 137.497 98.291 138.154 98.2215L138.265 99.2784C137.628 99.3459 136.977 99.4333 136.324 99.5406ZM134.559 97.1388L133.82 96.376C134.297 95.9151 134.799 95.4582 135.317 95.0192L136.004 95.8277C135.506 96.2508 135.019 96.6938 134.559 97.1388ZM137.531 94.604L136.892 93.7557C137.418 93.3584 137.97 92.965 138.533 92.5856L139.127 93.4676C138.579 93.8352 138.043 94.2186 137.531 94.604ZM140.779 92.4148L140.231 91.5049C140.795 91.1652 141.384 90.8275 141.98 90.5037L142.486 91.4374C141.904 91.7552 141.329 92.083 140.779 92.4148ZM144.237 90.5374L143.773 89.5839C144.364 89.2958 144.978 89.0098 145.597 88.7376L146.026 89.709C145.418 89.9772 144.817 90.2553 144.237 90.5374ZM147.844 88.9482L147.453 87.9609C148.065 87.7165 148.698 87.4781 149.333 87.2497L149.693 88.2489C149.067 88.4734 148.446 88.7078 147.844 88.9482ZM151.561 87.6132L151.235 86.602C151.865 86.3994 152.512 86.2007 153.155 86.014L153.451 87.0331C152.818 87.2179 152.18 87.4126 151.561 87.6132ZM155.359 86.5107L155.093 85.4816C155.734 85.3147 156.391 85.1558 157.044 85.0068L157.281 86.0418C156.637 86.1888 155.99 86.3478 155.359 86.5107ZM159.216 85.6266L159.008 84.5857C159.669 84.4526 160.334 84.3294 160.985 84.2201L161.164 85.2671C160.523 85.3763 159.867 85.4975 159.216 85.6266ZM165.071 84.7347C165.065 84.7347 164.342 84.7943 163.121 84.9631L162.976 83.9102C164.237 83.7354 164.966 83.6758 164.987 83.6738L165.071 84.7347Z" fill="#582EFF"/>
<path d="M170.232 201.728H128.001V310.245H170.232V201.728Z" fill="#E0D8FF"/>
<path d="M235.93 166.26H193.699V310.245H235.93V166.26Z" fill="#E0D8FF"/>
<path d="M299.676 127.979H253.434V310.243H299.676V127.979Z" fill="#E0D8FF"/>
<path d="M358.383 102.747H316.152V310.245H358.383V102.747Z" fill="#E0D8FF"/>
<path d="M249.776 211.746L338.535 168.75L298.95 253.182L292.258 214.875L249.776 211.746Z" fill="#31C5A1"/>
<path d="M215.138 90.9331C212.688 91.545 210.347 92.131 208.159 92.5045C201.074 93.7163 195.6 92.7171 193.24 83.265C190.881 73.8128 195.241 70.3542 202.065 68.0895C204.171 67.3903 206.512 66.8062 208.961 66.1943C214.199 64.8852 219.996 65.4633 224.612 66.979C229.152 68.4729 232.551 70.8747 233.154 73.2884C233.841 76.0358 231.971 79.7587 228.644 83.1279C225.261 86.5587 220.375 89.624 215.138 90.9331Z" fill="#31C5A1"/>
<path d="M202.065 68.0915L194.018 62.8311L181.312 65.5407L194.509 74.818L202.065 68.0915Z" fill="#21836A"/>
<path d="M208.14 92.4268L203.508 100.854L191.022 104.442L198.31 90.0449L208.14 92.4268Z" fill="#21836A"/>
<path d="M208.159 92.5043C201.074 93.7162 195.6 92.7169 193.24 83.2648C190.881 73.8127 195.241 70.354 202.065 68.0894L208.159 92.5043Z" fill="#21836A"/>
<path d="M176.699 87.3987C176.699 87.3987 180.235 79.1525 186.427 80.4219C192.742 81.7172 191.946 88.5271 187.207 89.1509C182.466 89.7767 179.462 86.7074 176.699 87.3987Z" fill="#F77D48"/>
<path d="M214.362 71.3C217.633 70.4815 220.949 72.474 221.767 75.7479C222.585 79.0218 220.593 82.3394 217.322 83.1578C214.05 83.9763 210.734 81.9838 209.917 78.7099C209.099 75.436 211.09 72.1184 214.362 71.3Z" fill="#21836A"/>
<path d="M215.842 83.7476C212.924 83.7476 210.262 81.7669 209.521 78.8089C208.652 75.3225 210.778 71.7765 214.262 70.9063C217.746 70.0342 221.29 72.1638 222.16 75.6503C222.581 77.3389 222.32 79.091 221.425 80.5849C220.53 82.0768 219.106 83.1317 217.419 83.5549C216.893 83.684 216.363 83.7476 215.842 83.7476ZM215.84 71.5242C215.384 71.5242 214.921 71.5798 214.461 71.695C212.984 72.0645 211.739 72.9863 210.955 74.2935C210.17 75.5986 209.942 77.1323 210.311 78.6103C211.074 81.6617 214.173 83.5231 217.222 82.7622C218.699 82.3927 219.944 81.4709 220.728 80.1638C221.512 78.8566 221.741 77.325 221.372 75.847C220.724 73.2584 218.394 71.5242 215.84 71.5242Z" fill="#31C5A1"/>
<path d="M228.644 83.1298L224.614 66.981C229.154 68.4749 232.553 70.8766 233.156 73.2903C233.841 76.0377 231.971 79.7586 228.644 83.1298Z" fill="#F77D48"/>
<path d="M375.479 171.806C375.479 171.806 387.817 184.608 388.401 189.427C388.985 194.245 382.491 201.768 382.491 201.768L375.479 171.806Z" fill="#ED7D2B"/>
<path d="M369.904 304.483C369.904 304.483 369.469 311.274 368.155 311.369C367.98 311.381 361.494 311.367 361.494 311.367L353.215 311.301C353.215 311.301 353.273 309.305 355.695 308.888C358.115 308.471 362.171 306.778 363.642 303.582C365.193 300.216 369.904 304.483 369.904 304.483Z" fill="#2E5A99"/>
<path d="M388.343 304.523C388.343 304.523 387.908 311.313 386.594 311.409C386.419 311.421 379.933 311.407 379.933 311.407L371.655 311.341C371.655 311.341 371.712 309.345 374.134 308.93C376.555 308.512 380.61 306.82 382.082 303.623C383.632 300.258 388.343 304.523 388.343 304.523Z" fill="#18417C"/>
<path d="M360.893 231.473C360.893 231.473 363.027 245.335 371.051 269.951C379.076 294.566 380.152 305.22 380.152 305.22L388.818 304.996C388.818 304.996 388.951 278.114 385.254 265.735C381.558 253.357 384.547 221.139 384.547 221.139L360.893 231.473Z" fill="#1E0093"/>
<path d="M356.698 221.838C356.698 221.838 356.346 242.719 359.9 268.366C363.456 294.013 362.207 304.893 362.207 304.893L370.855 305.199C370.855 305.199 376.078 279.562 374.625 266.725C373.172 253.89 381.798 222.705 381.798 222.705L356.698 221.838Z" fill="#582EFF"/>
<path d="M373.543 173.01L368.929 176.024L362.272 174.768C362.366 174.23 362.81 172.003 363.215 169.985C363.239 169.865 363.265 169.746 363.287 169.631C363.634 167.913 363.932 166.439 363.932 166.439L370.158 163.707L372.479 162.688C372.473 162.724 372.294 164.593 372.27 164.867C371.826 169.711 373.543 173.01 373.543 173.01Z" fill="#FFB27D"/>
<path d="M363.986 171.464C364.115 171.411 372.01 169.098 372.866 169.383C373.722 169.667 374.226 171.327 374.226 171.327L361.315 174.218C361.315 174.218 362.336 172.154 363.986 171.464Z" fill="#ED7D2B"/>
<path d="M385.115 224.478C383.765 230.579 361.508 231.255 355.782 225.702C355.131 225.068 355.105 222.13 355.36 218.169C355.858 210.429 357.428 198.788 357.502 192.838C357.537 189.966 357.938 187.027 358.471 184.361C359.6 178.678 361.315 174.218 361.315 174.218C361.315 174.218 372.193 170.726 374.226 171.328C384.019 174.23 386.467 218.378 385.115 224.478Z" fill="#FF9362"/>
<path d="M355.362 218.169C355.86 210.429 357.431 198.788 357.504 192.838C357.54 189.966 357.941 187.027 358.473 184.361L365.014 183.221C365.012 183.221 371.349 209.366 355.362 218.169Z" fill="#ED7D2B"/>
<path d="M358.925 207.388C358.925 207.388 359.368 208.455 358.431 209.168C357.494 209.881 356.885 211.039 357.097 211.887C357.309 212.736 359.36 214.122 360.073 213.902C360.786 213.681 362.237 212.567 362.082 212.12C361.927 211.673 363.065 208.198 361.332 206.857C359.598 205.514 358.925 207.388 358.925 207.388Z" fill="#FFB27D"/>
<path d="M366.313 172.663C366.313 172.663 359.932 173.843 354.836 181.326C349.737 188.807 346.382 194.372 347.313 197.076C348.242 199.779 356.755 209.164 358.226 209.168C359.698 209.172 362.074 208.105 362.213 205.697C362.213 205.697 356.225 196.674 357.413 195.327C357.919 194.751 365.225 188.843 366.261 191.521C367.972 195.951 366.313 172.663 366.313 172.663Z" fill="#FF9362"/>
<path d="M371.804 164.948C370.434 167.261 365.34 169.251 363.215 169.982C363.239 169.863 363.265 169.744 363.287 169.629C363.634 167.91 363.932 166.436 363.932 166.436L370.158 163.705C371.534 163.687 372.37 163.997 371.804 164.948Z" fill="#FCA56B"/>
<path d="M361.592 166.051C361.592 166.051 371.604 169.2 373.466 162.93C375.33 156.663 377.877 152.846 371.564 150.572C365.251 148.297 363.291 150.317 362.161 152.258C361.03 154.199 359.035 165.07 361.592 166.051Z" fill="#FFB27D"/>
<path d="M362.556 151.654C362.556 151.654 363.18 158.955 364.689 158.641C366.197 158.327 367.567 158.095 367.341 160.296C367.115 162.495 365.018 165.032 369.666 165.431C374.313 165.831 381.024 153.848 379.751 151.573C376.08 145.011 357.248 143.647 362.556 151.654Z" fill="#163560"/>
<path d="M308.898 218.903C286.979 236.763 260.717 250.49 230.843 259.706C206.576 267.189 179.691 271.774 150.932 273.337C143.091 273.765 135.451 273.949 128.098 273.949C113.23 273.949 99.5193 273.192 87.5718 272.14L92.406 249.252C108.88 250.595 128.556 251.3 149.813 250.146C176.878 248.68 202.086 244.391 224.728 237.408C251.974 229.001 275.806 216.583 295.553 200.49L308.898 218.903Z" fill="#31C5A1"/>
<path d="M56.3474 310.951H56.2818C55.8967 310.951 55.587 310.636 55.5969 310.25L56.6352 265.183L59.6965 264.825L57.0859 310.254C57.064 310.646 56.7404 310.951 56.3474 310.951Z" fill="#95C0F4"/>
<path d="M105.569 310.951H105.635C106.02 310.951 106.33 310.636 106.32 310.25L105.282 265.183L102.22 264.825L104.831 310.254C104.853 310.646 105.178 310.951 105.569 310.951Z" fill="#B0D4FF"/>
<path d="M54.321 262.388V231.505C54.321 226.071 58.7224 221.665 64.1542 221.665H86.3895C91.8192 221.665 96.2226 226.069 96.2226 231.505V263.568L54.321 262.388Z" fill="#B0D4FF"/>
<path d="M100.207 267.263H57.2729C55.643 267.263 54.3208 265.94 54.3208 264.309V262.388H100.207V267.263Z" fill="#95C0F4"/>
<path d="M105.351 267.263H72.8694C71.6643 267.263 70.6855 266.286 70.6855 265.078V264.571C70.6855 263.366 71.6623 262.386 72.8694 262.386H105.351C106.556 262.386 107.535 263.364 107.535 264.571V265.078C107.535 266.286 106.556 267.263 105.351 267.263Z" fill="#B0D4FF"/>
<path d="M104.09 254.692C100.904 260.241 96.8975 262.382 96.8975 262.382H80.229C80.229 262.382 106.52 250.461 104.09 254.692Z" fill="#233862"/>
<path d="M91.2891 297.616C90.8543 298.114 90.7988 298.671 91.0152 299.265C91.0152 299.267 91.0171 299.271 91.0191 299.273C91.4162 300.371 92.7305 301.599 94.2552 302.825C94.4497 302.982 94.6244 303.125 94.7753 303.258C94.815 303.291 94.8547 303.327 94.8924 303.363C94.9222 303.391 94.952 303.419 94.9818 303.444C96.4052 304.758 95.8692 305.058 98.4243 307.72C101.339 310.753 103.346 310.809 103.916 310.533C104.398 310.296 103.417 308.687 102.329 306.879C102.276 306.792 102.224 306.704 102.171 306.615C102.026 306.375 101.883 306.13 101.738 305.888C100.463 303.711 100.791 302.69 101.093 299.449C101.339 296.817 105.186 284.741 105.186 284.741L99.6016 283.777C99.6016 283.777 97.92 293.392 96.0657 294.874C95.0751 295.663 93.9653 295.673 93.0124 296.259C92.9449 296.301 92.8793 296.342 92.8138 296.384C92.2758 296.746 91.7239 297.117 91.2891 297.616Z" fill="#FFB27D"/>
<path d="M91.2891 297.616C90.8543 298.114 90.7988 298.67 91.0152 299.264C91.0152 299.266 91.0171 299.27 91.0191 299.272C91.5055 300.371 92.786 301.593 94.2611 302.814C94.4537 302.975 94.6244 303.122 94.7753 303.259C94.815 303.293 94.8547 303.329 94.8924 303.365C94.9222 303.393 94.952 303.42 94.9818 303.446C96.4052 304.759 95.8692 305.059 98.4243 307.721C101.339 310.755 103.346 310.81 103.916 310.534C104.398 310.298 103.417 308.689 102.329 306.881C101.762 306.672 99.1271 305.602 97.1338 303.051C95.3788 300.81 94.2095 297.931 93.0143 296.263C92.9468 296.304 92.8813 296.346 92.8158 296.388C92.2758 296.745 91.7239 297.117 91.2891 297.616Z" fill="#233862"/>
<path d="M136.321 294.125C136.667 295.849 139.123 295.563 141.868 294.892C144.614 294.22 143.961 295.019 147.868 294.586C151.775 294.153 152.958 292.695 153.077 292.115C153.185 291.598 151.253 291.417 149.182 291.179C148.922 291.149 148.66 291.117 148.398 291.086C146.059 290.792 144.348 289.282 142.224 288.042C140.213 286.868 137.211 282.083 137.211 282.083L131.853 282.508C131.853 282.508 134.664 286.781 135.752 288.64C136.391 289.733 136.357 291.179 136.278 292.294C136.24 292.897 136.2 293.517 136.321 294.125Z" fill="#FFB27D"/>
<path d="M141.87 294.893C144.616 294.221 143.963 295.02 147.87 294.587C151.777 294.154 152.96 292.695 153.079 292.115C153.187 291.599 151.255 291.418 149.184 291.18L149.164 291.219C149.164 291.219 146.822 292.882 143.568 292.96C140.917 293.023 138.108 292.264 136.278 292.294C136.236 292.9 136.196 293.52 136.319 294.128C136.667 295.852 139.125 295.564 141.87 294.893Z" fill="#233862"/>
<path d="M115.788 259.839L110.779 273.328L104.239 290.939C104.239 290.939 102.464 291.11 100.765 290.621C99.2005 290.168 97.4038 288.984 97.4038 288.984C97.4038 288.984 99.2203 270.074 102.607 259.219C103.475 256.432 104.448 254.179 105.522 252.91C110.773 246.702 115.788 259.839 115.788 259.839Z" fill="#233862"/>
<path d="M110.693 238.418C107.412 237.359 98.051 238.718 88.6487 240.561L86.6792 237.311L66.3697 235.724C66.3697 235.724 59.6673 250.596 63.3361 260.072C63.8761 261.464 64.9462 262.358 66.7727 262.386C66.7727 262.388 67.0685 262.386 67.0705 262.386C67.0705 262.386 79.157 262.378 83.0839 262.378C93.1831 262.378 104.46 255.431 105.917 255.139C108.305 254.66 109.26 259.44 111.646 264.456C114.033 269.472 134.088 286.674 134.088 286.674C134.088 286.674 137.171 286.704 138.444 286.227C139.814 285.712 140.314 285.045 140.314 285.045C140.314 285.045 118.095 240.808 110.693 238.418Z" fill="#582EFF"/>
<path d="M85.8804 178.137C83.2777 176.771 79.321 176.586 78.6778 176.498C70.9828 175.463 66.3511 186.654 66.0771 190.045C65.5748 196.295 62.2713 197.248 57.6198 201.162C48.2948 209.009 51.0286 218.129 56.1288 221.518C59.1881 223.552 64.5802 221.518 64.5802 221.518C64.6556 221.572 79.327 213.312 86.5594 209.327C97.4031 207.783 92.5113 181.622 85.8804 178.137Z" fill="#B5453C"/>
<path d="M80.4987 205.934C80.5305 205.954 76.941 207.181 74.5408 206.117C72.2816 205.117 70.5722 201.4 70.606 201.398C71.6324 201.351 72.762 200.453 73.6296 194.555L74.0663 194.712L81.4219 197.36C81.4219 197.36 80.8898 199.722 80.5444 201.971C80.2545 203.858 80.0977 205.668 80.4987 205.934Z" fill="#FFB27D"/>
<path d="M81.4219 197.361C81.4219 197.361 80.8899 199.724 80.5444 201.972C76.3197 201.211 74.662 197 74.0664 194.713L81.4219 197.361Z" fill="#ED975D"/>
<path d="M82.5156 199.704C82.5156 199.704 72.4522 198.353 73.3892 192.093C74.3263 185.835 73.6592 181.445 80.1234 182.045C86.5875 182.643 87.4769 185.218 87.6714 187.383C87.868 189.548 85.1581 199.894 82.5156 199.704Z" fill="#FFB27D"/>
<path d="M87.3065 183.954C87.3065 183.954 80.8642 189.509 76.4827 189.958C72.1011 190.405 70.4414 188.998 70.4414 188.998C70.4414 188.998 73.0243 186.853 74.5788 183.39C75.0374 182.369 76.0042 181.668 77.1179 181.572C80.2488 181.3 86.1788 181.177 87.3065 183.954Z" fill="#B5453C"/>
<path d="M83.2803 183.456C83.2803 183.456 85.4363 185.541 86.1133 187.087C86.7684 188.579 86.965 192.149 86.4428 193.567C86.4428 193.567 89.8 187.033 87.9 183.859C85.885 180.494 83.2803 183.456 83.2803 183.456Z" fill="#B5453C"/>
<path d="M88.974 220.767C88.6702 241.152 88.8906 236.892 86.6611 238.825C86.1231 239.29 84.6143 239.568 82.629 239.699C76.3832 240.115 65.4026 239.084 64.9837 237.929C63.5423 233.932 64.5608 232.691 63.3577 226.572C63.2326 225.921 63.0778 225.217 62.8951 224.45C61.8926 220.247 60.9178 218.819 64.4734 212.066C67.6976 205.949 71.0487 200.987 71.3485 201.166C79.8555 206.22 80.5424 201.972 80.5424 201.972C80.5424 201.972 89.1229 210.825 88.974 220.767Z" fill="#8C9DF4"/>
<path d="M110.777 273.328L104.237 290.939C104.237 290.939 102.462 291.11 100.763 290.621C99.1985 290.168 97.4019 288.984 97.4019 288.984C97.4019 288.984 99.2184 270.074 102.605 259.219L110.777 273.328Z" fill="#1E0093"/>
<path d="M80.5444 201.971C80.5444 201.971 89.2976 203.457 90.326 207.227C91.3544 211 97.4036 233.17 97.4036 233.17C97.4036 233.17 92.9525 233.97 90.8977 231.912C88.841 229.854 83.7447 212.827 83.7447 212.827L80.5444 201.971Z" fill="#8C9DF4"/>
<path d="M82.6292 239.701C76.3834 240.117 65.4028 239.086 64.9839 237.931C63.5425 233.934 64.561 232.693 63.3579 226.574L66.3716 218.085C66.3716 218.085 65.8733 227.54 68.6587 230.025C71.442 232.512 80.0662 234.824 81.4201 236.902C82.0733 237.898 82.5041 238.899 82.6292 239.701Z" fill="#6980E2"/>
<path d="M75.4717 235.724C75.4717 235.724 81.634 234.351 82.6287 234.898C83.6233 235.444 86.0533 237.438 86.3571 238.132C86.6608 238.825 84.1434 237.605 83.3235 237.385C82.7934 237.242 81.3958 237.728 80.7049 237.959C77.7965 238.928 76.0137 238.43 76.0137 238.43L75.4717 235.724Z" fill="#FFB27D"/>
<path d="M71.3447 201.162C71.3447 201.162 63.07 201.673 60.2053 205.67C56.1731 211.298 48.1744 235.28 52.7584 238.48C57.9202 242.082 76.2544 239.422 76.2544 239.422C76.2544 239.422 76.8639 236.569 76.0161 235.188C75.1664 233.807 61.3726 231.579 60.7353 230.941C60.0981 230.303 68.6944 218.517 68.6944 216.606C68.6944 214.695 71.3447 201.162 71.3447 201.162Z" fill="#8C9DF4"/>
<path d="M82.9272 236.616C82.9272 236.616 84.2177 238.283 84.6425 238.482C85.0654 238.68 85.3394 238.631 85.3394 238.631L84.4698 237.063L82.9272 236.616Z" fill="#FFB27D"/>
<path d="M82.6294 234.9L86.3836 236.724C86.3836 236.724 86.2248 236.986 85.7622 236.964C85.2996 236.942 84.1342 236.517 84.1342 236.517L82.6294 234.9Z" fill="#FFB27D"/>
<path d="M83.2845 241.034H114.956L124.483 218.806H92.8596L83.2845 241.034Z" fill="#F77D48"/>
<path d="M115.327 239.594H73.5029V240.998H114.956L115.327 239.594Z" fill="#F77D48"/>
<path d="M106.961 229.919C107.199 229.139 106.719 228.505 105.885 228.505C105.051 228.505 104.184 229.139 103.945 229.919C103.707 230.7 104.187 231.334 105.021 231.334C105.853 231.336 106.721 230.702 106.961 229.919Z" fill="#EBF3FA"/>
<path d="M161.787 311.572H161.874C162.383 311.572 162.792 311.109 162.78 310.549L161.406 244.791L157.358 244.271L160.81 310.555C160.838 311.125 161.267 311.572 161.787 311.572Z" fill="#233862"/>
<path d="M76.4548 311.572H76.3694C75.8612 311.572 75.4522 311.109 75.4641 310.549L76.8379 244.791L80.886 244.271L77.4335 310.555C77.4037 311.125 76.9749 311.572 76.4548 311.572Z" fill="#233862"/>
<path d="M163.381 245.74H71.1665C70.3525 245.74 69.6914 245.079 69.6914 244.264V242.51C69.6914 241.696 70.3525 241.034 71.1665 241.034H163.379C164.193 241.034 164.855 241.696 164.855 242.51V244.264C164.855 245.079 164.195 245.74 163.381 245.74Z" fill="#233862"/>
</svg>
