<svg width="449" height="269" viewBox="0 0 449 269" fill="none" xmlns="http://www.w3.org/2000/svg">
<path d="M437.51 267.795H5.04704C5.04704 267.795 4.62404 259.575 4.49714 252.189C3.88169 214.894 11.6246 174.427 33.2248 146.534C50.1107 124.725 76.7065 108.752 118.441 109.219C126.829 109.311 134.627 109.065 141.905 108.522H141.915C144.128 108.359 146.291 108.165 148.41 107.946L148.432 107.944C196.64 102.948 220.795 84.3182 242.755 66.1491C253.368 57.3661 263.279 48.8714 275.114 41.9518C288.844 33.9308 305.094 28.106 327.548 26.8503C339.107 26.2002 350.102 29.4309 359.237 37.2487C376.072 51.662 384.439 79.8586 380.059 115.06C377.094 138.899 383.792 151.825 395.261 160.275C427.011 183.67 469.04 181.116 437.51 267.795Z" fill="#F9F7FF"/>
<path d="M208.469 238.012C208.467 237.971 208.693 233.32 206.447 232.25L206.606 232.098C207.634 232.456 208.776 233.569 209.233 235.137C209.571 236.304 209.313 236.559 209.316 236.602L208.469 238.012Z" fill="#A4C8FC"/>
<path d="M193.573 225.957C193.573 225.957 194.341 231.945 197.993 233.699C201.644 235.45 206.797 232.304 206.797 232.304C206.797 232.304 206.029 226.318 202.378 224.564C198.726 222.811 193.573 225.957 193.573 225.957Z" fill="#A4C8FC"/>
<path d="M208.085 246.736C208.042 246.503 207.232 241.027 209.305 234.921C211.296 229.057 210.193 224.083 210.185 224.033H211.65C211.689 224.245 211.79 229.127 210.228 235.815C208.825 241.836 211.448 246.736 210.89 246.736H208.085Z" fill="#A4C8FC"/>
<path d="M211.162 230.567C211.17 230.536 211.871 226.522 213.752 226.064C212.911 226.174 211.842 226.777 211.244 227.898C210.799 228.733 210.956 228.968 210.948 229.001L211.162 230.567Z" fill="#A4C8FC"/>
<path d="M217.203 230.981C214.391 230.412 212.821 226.433 212.821 226.433C212.821 226.433 215.811 223.375 218.625 223.942C221.438 224.511 223.008 228.492 223.008 228.492C223.008 228.492 220.018 231.549 217.203 230.981Z" fill="#A4C8FC"/>
<path d="M195.345 218.012C190.865 211.21 192.749 202.063 199.551 197.581C206.355 193.101 215.501 194.985 219.981 201.787C224.463 208.591 222.579 217.738 215.777 222.217C208.974 226.697 199.827 224.816 195.345 218.012Z" fill="#FFB93E"/>
<path d="M200.81 199.491C194.991 203.324 193.373 211.177 197.206 216.996C201.038 222.815 208.891 224.43 214.71 220.598C220.529 216.765 222.147 208.914 218.314 203.095C214.481 197.276 206.629 195.659 200.81 199.491ZM215.151 221.267C212.153 223.241 208.566 223.932 205.05 223.206C201.535 222.483 198.512 220.435 196.536 217.437C194.562 214.439 193.874 210.851 194.597 207.336C195.32 203.821 197.371 200.796 200.369 198.822C203.367 196.848 206.952 196.159 210.47 196.883C213.985 197.606 217.008 199.656 218.982 202.654C220.958 205.65 221.646 209.238 220.923 212.755C220.199 216.27 218.149 219.293 215.151 221.267Z" fill="#FFA412"/>
<path d="M211.45 212.285C211.318 212.024 211.168 211.813 210.995 211.651C210.822 211.488 210.61 211.368 210.362 211.29C210.115 211.214 209.825 211.173 209.491 211.168C209.159 211.162 208.769 211.191 208.322 211.251C207.552 211.35 206.837 211.407 206.175 211.424C205.514 211.44 204.91 211.379 204.364 211.241C203.818 211.102 203.33 210.866 202.897 210.53C202.466 210.194 202.097 209.722 201.792 209.112C201.529 208.584 201.38 208.057 201.349 207.527C201.319 207 201.397 206.487 201.582 205.988C201.77 205.492 202.054 205.02 202.437 204.575C202.823 204.132 203.301 203.73 203.874 203.373L202.876 201.379L204.481 200.575L205.493 202.596C206.105 202.382 206.705 202.273 207.288 202.269C207.871 202.265 208.417 202.364 208.93 202.566C209.441 202.77 209.911 203.075 210.338 203.487C210.766 203.899 211.135 204.414 211.446 205.036L208.547 206.489C208.174 205.743 207.729 205.267 207.212 205.063C206.697 204.861 206.161 204.896 205.604 205.174C205.304 205.325 205.067 205.498 204.892 205.689C204.716 205.883 204.595 206.087 204.527 206.303C204.459 206.52 204.442 206.744 204.475 206.977C204.508 207.21 204.582 207.441 204.696 207.67C204.811 207.9 204.949 208.092 205.11 208.244C205.271 208.397 205.471 208.512 205.716 208.589C205.959 208.665 206.249 208.704 206.591 208.708C206.931 208.712 207.339 208.69 207.815 208.638C208.586 208.556 209.301 208.508 209.961 208.496C210.62 208.486 211.224 208.549 211.772 208.692C212.318 208.832 212.808 209.071 213.241 209.407C213.672 209.742 214.038 210.212 214.339 210.814C214.613 211.36 214.764 211.9 214.79 212.429C214.819 212.961 214.737 213.47 214.549 213.963C214.36 214.453 214.067 214.919 213.672 215.358C213.278 215.796 212.792 216.194 212.219 216.551L213.148 218.405L211.551 219.205L210.628 217.358C210.045 217.581 209.447 217.729 208.835 217.801C208.223 217.876 207.63 217.836 207.053 217.686C206.476 217.538 205.932 217.255 205.425 216.841C204.916 216.427 204.475 215.848 204.102 215.102L207.002 213.649C207.222 214.09 207.469 214.428 207.739 214.661C208.011 214.894 208.296 215.048 208.592 215.121C208.887 215.195 209.186 215.201 209.485 215.139C209.785 215.079 210.072 214.98 210.346 214.842C210.661 214.686 210.917 214.507 211.114 214.307C211.31 214.107 211.454 213.895 211.543 213.672C211.632 213.449 211.667 213.219 211.65 212.984C211.632 212.747 211.566 212.514 211.45 212.285Z" fill="#FFA412"/>
<path d="M222.825 245.312L222.823 245.325L222.53 249.843L221.438 266.618H201.024L199.821 250.072L199.491 245.512L199.477 245.312H222.825Z" fill="#B4C9F7"/>
<path d="M222.823 245.324L222.53 249.843C220.991 249.307 216.717 248.019 211.15 248.019C204.119 248.019 199.821 250.072 199.821 250.072L199.491 245.512L222.823 245.324Z" fill="#9BB8EA"/>
<path d="M223.533 247.7H198.735L198.452 244.818H223.849L223.533 247.7Z" fill="#B4C9F7"/>
<path d="M221.751 267.512H200.585L200.342 266.509H222.021L221.751 267.512Z" fill="#B4C9F7"/>
<path d="M443.318 268.906H1.2884C1.01237 268.906 0.786621 268.623 0.786621 268.277V268.063C0.786621 267.719 1.01237 267.436 1.2884 267.436H443.318C443.594 267.436 443.82 267.719 443.82 268.063V268.277C443.82 268.623 443.594 268.906 443.318 268.906Z" fill="#2E3552"/>
<path d="M349.574 159.498L347.592 161.107C347.592 161.107 342.17 159.164 340.946 165.605C340.946 165.605 340.621 168.352 342.36 168.358C344.099 168.362 343.382 168.057 345.844 168.129C348.309 168.202 350.349 166.903 350.709 164.905L351.888 163.211L349.574 159.498Z" fill="#EA8E50"/>
<path d="M349.798 162.953C348.218 161.301 348.344 160.081 348.344 160.081C348.344 160.081 366.654 145.09 368.512 143.868C369.777 143.036 383.262 131.083 389.565 123.794C392.691 120.178 396.565 121.581 400.995 122.853L404.644 123.9C409.05 125.165 410.195 131.326 406.581 134.322C396.4 142.756 379.462 152.241 376.291 154.235C368.424 159.183 353.025 165.065 353.025 165.065C353.025 165.065 351.156 164.371 349.798 162.953Z" fill="#1E3D70"/>
<path d="M328.902 255.055C328.902 255.055 324.46 258.384 317.649 256.625C317.649 256.625 312.16 255.374 310.957 258.112C310.957 258.112 319.376 262.388 321.507 263.558C323.112 264.44 324.787 265.831 325.972 266.907C326.91 267.758 328.371 267.645 329.17 266.662C329.539 266.206 329.963 265.662 330.429 265.034C331.727 263.274 334.75 257.591 334.75 257.591L328.902 255.055Z" fill="#233862"/>
<path d="M379.6 133.424C379.6 116.265 365.689 102.356 348.531 102.356C331.373 102.356 317.462 116.265 317.462 133.424C317.462 150.582 331.373 164.493 348.531 164.493C365.689 164.493 379.6 150.582 379.6 133.424Z" fill="#E2810E"/>
<path d="M382.31 133.424C382.31 116.265 368.401 102.356 351.241 102.356C334.083 102.356 320.174 116.265 320.174 133.424C320.174 150.582 334.083 164.493 351.241 164.493C368.401 164.493 382.31 150.582 382.31 133.424Z" fill="#FFB93E"/>
<path d="M324.624 133.791C324.624 148.468 336.563 160.409 351.241 160.409C365.918 160.409 377.859 148.468 377.859 133.791C377.859 119.115 365.918 107.174 351.241 107.174C336.563 107.174 324.624 119.115 324.624 133.791ZM331.226 153.807C325.879 148.462 322.935 141.353 322.935 133.791C322.935 126.23 325.879 119.122 331.226 113.776C336.572 108.429 343.681 105.485 351.241 105.485C358.803 105.485 365.912 108.429 371.257 113.776C376.604 119.122 379.549 126.23 379.549 133.791C379.549 141.353 376.604 148.462 371.257 153.807C365.912 159.154 358.803 162.099 351.241 162.099C343.681 162.099 336.572 159.154 331.226 153.807Z" fill="#FFA412"/>
<path d="M347.804 143.467C348.045 143.902 348.374 144.266 348.789 144.555C349.205 144.845 349.701 145.051 350.278 145.175C350.857 145.297 351.513 145.315 352.248 145.229C352.891 145.152 353.511 144.994 354.109 144.753C354.707 144.514 355.224 144.157 355.661 143.685C356.095 143.213 356.417 142.614 356.625 141.891C356.833 141.165 356.874 140.287 356.753 139.255L363.536 138.449C363.742 140.195 363.639 141.726 363.223 143.042C362.809 144.359 362.18 145.484 361.339 146.416C360.497 147.349 359.497 148.105 358.335 148.684C357.175 149.265 355.953 149.696 354.669 149.982L355.183 154.299L351.449 154.74L350.936 150.403C349.512 150.44 348.197 150.3 346.994 149.987C345.791 149.671 344.738 149.193 343.837 148.548C342.935 147.903 342.201 147.098 341.634 146.133C341.068 145.169 340.709 144.048 340.557 142.768C340.39 141.359 340.491 140.108 340.862 139.018C341.233 137.928 341.818 136.941 342.615 136.057C343.417 135.173 344.402 134.361 345.576 133.617C346.749 132.874 348.061 132.128 349.512 131.382C350.408 130.92 351.154 130.489 351.75 130.088C352.345 129.686 352.813 129.276 353.151 128.86C353.491 128.443 353.713 128.009 353.816 127.553C353.921 127.1 353.942 126.603 353.878 126.065C353.814 125.528 353.676 125.035 353.466 124.588C353.254 124.143 352.963 123.768 352.594 123.465C352.226 123.162 351.774 122.944 351.243 122.808C350.711 122.672 350.093 122.645 349.388 122.729C348.09 122.882 347.105 123.438 346.433 124.394C345.762 125.353 345.529 126.702 345.735 128.445L338.954 129.251C338.78 127.798 338.832 126.461 339.108 125.241C339.384 124.023 339.854 122.94 340.52 121.99C341.183 121.042 342.032 120.234 343.064 119.566C344.095 118.899 345.273 118.398 346.598 118.062L346.036 113.331L349.792 112.886L350.346 117.551C351.768 117.516 353.077 117.667 354.268 118.005C355.459 118.343 356.505 118.841 357.408 119.501C358.31 120.16 359.042 120.972 359.6 121.936C360.159 122.903 360.513 124.003 360.66 125.239C360.828 126.663 360.728 127.92 360.357 129.01C359.986 130.102 359.4 131.085 358.601 131.961C357.799 132.836 356.808 133.644 355.628 134.38C354.445 135.118 353.12 135.847 351.649 136.566C350.794 136.978 350.076 137.38 349.495 137.772C348.916 138.165 348.453 138.575 348.107 138.998C347.76 139.422 347.528 139.877 347.412 140.364C347.295 140.85 347.272 141.396 347.344 142.008C347.408 142.546 347.561 143.032 347.804 143.467Z" fill="#FFA412"/>
<path d="M326.294 253.363C326.294 253.363 329.001 259.602 335.247 258.455C335.247 258.455 347.991 247.929 356.732 236.996C359.572 233.446 361.991 229.85 363.41 226.561C369.209 213.139 384.855 193.12 394.803 182.974L369.914 173.97C369.914 173.97 361.941 190.007 351.333 209.706C343.689 223.901 334.678 239.996 326.294 253.363Z" fill="#2B478B"/>
<path d="M351.333 209.706L356.732 236.996C359.572 233.445 361.991 229.85 363.41 226.561C369.209 213.138 384.855 193.12 394.803 182.974L369.914 173.969C369.914 173.969 361.941 190.007 351.333 209.706Z" fill="#233862"/>
<path d="M371.677 258.675C371.677 258.675 371.949 263.653 365.914 264.319C365.914 264.319 362.465 264.335 362.456 267.504L379.996 267.56C379.996 267.56 380.505 266.282 380.628 263.544C380.723 261.442 378.593 255.947 378.593 255.947L371.677 258.675Z" fill="#233862"/>
<path d="M378.078 173.969C378.078 173.969 366.99 186.153 359.951 208.104C356.12 220.047 366.969 250.074 369.083 260.509C369.083 260.509 376.361 261.125 381.337 259.202C381.337 259.202 381.716 237.653 378.807 221.045C377.177 211.75 393.406 201.166 400.496 184.371C405.32 172.945 399.452 173.139 392.24 172.865L378.078 173.969Z" fill="#2B478B"/>
<path d="M390.878 119.61C397.047 123.094 409.676 119.882 409.676 119.882C409.676 119.882 404.547 114.017 406.878 104.574L402.034 107.034L396.831 109.676C396.831 109.676 396.495 111.345 396.26 114.341C396.202 115.112 396.149 115.973 396.111 116.915C392.942 117.875 390.878 119.61 390.878 119.61Z" fill="#FFB07B"/>
<path d="M368.255 173.341C368.255 174.425 369.504 174.944 369.769 174.996C372.259 175.451 379.207 178.154 385.465 178.773C390.736 179.325 395.627 178.801 401.003 177.722C401.714 177.577 403.385 177.128 403.505 176.446C403.653 175.702 424.238 134.481 408.236 116.772C407.861 116.358 404.7 117.106 401.813 117.792C399.145 118.425 396.697 118.073 394.513 117.195L391.803 118.621C388.475 120.475 382.18 127.061 381.445 132.229C381.07 134.858 379.567 136.803 379.133 139.115C378.97 139.97 378.805 140.807 378.638 141.621C378.31 143.218 377.973 144.736 377.624 146.183C376.683 150.092 375.689 153.456 374.713 156.364C373.676 159.449 372.656 162.016 371.748 164.163C370.567 166.949 369.572 169.03 368.947 170.625C368.508 171.746 368.255 172.626 368.255 173.341Z" fill="#D2E3FC"/>
<path d="M368.947 170.625C398.007 156.933 408.071 130.644 408.071 130.644C408.071 130.644 384.461 139.354 378.638 141.621C378.31 143.217 377.972 144.736 377.624 146.183C376.682 150.092 375.689 153.456 374.713 156.364C373.676 159.449 372.656 162.016 371.747 164.163C370.567 166.949 369.571 169.03 368.947 170.625Z" fill="#A4C8FC"/>
<path d="M351.946 162.69L349.434 163.611C349.434 163.611 344.406 160.054 341.276 165.838C341.276 165.838 340.143 168.365 341.935 168.913C343.728 169.461 343.077 168.946 345.595 169.784C348.115 170.623 350.598 170.019 351.55 168.218L353.256 166.968L351.946 162.69Z" fill="#FFB07B"/>
<path d="M349.879 166.24C348.949 163.819 348.527 162.721 348.527 162.721C348.527 162.721 367.501 147.256 369.435 145.929C370.752 145.025 383.868 135.221 390.262 127.58C393.435 123.791 398.436 122.058 403.272 123.072L407.255 123.908C412.066 124.916 413.628 131.005 409.897 134.203C399.39 143.211 381.667 153.658 378.362 155.832C370.159 161.227 352.016 168.787 352.016 168.787C352.016 168.787 350.608 168.144 349.879 166.24Z" fill="#D2E3FC"/>
<path d="M396.26 114.341C402.328 114.681 406.272 109.672 406.272 109.672C406.272 109.672 403.53 108.153 402.034 107.034L396.831 109.676C396.831 109.676 396.495 111.345 396.26 114.341Z" fill="#EA8E50"/>
<path d="M393.676 108.112C393.676 108.112 402.868 114.708 406.888 108.92C410.908 103.131 414.801 100.086 409.103 95.6289C403.404 91.174 400.717 92.5813 398.906 94.1865C397.094 95.7917 391.389 106.247 393.676 108.112Z" fill="#FFB07B"/>
<path d="M397.935 88.9589C398.265 86.7355 399.005 85.1695 399.005 85.1695C399.005 85.1695 399.582 87.5577 403.95 87.2301C408.316 86.9004 415.238 87.6587 417.546 92.6349C417.692 92.9523 417.822 93.2778 417.939 93.6116C418.357 92.5072 418.456 90.8546 418.456 90.8546C419.287 92.9976 418.456 95.6763 418.456 95.6763C418.469 95.7546 418.479 95.8329 418.491 95.9112C419.454 96.7251 420.263 99.2596 420.263 99.2596C419.973 98.5529 419.264 98.0913 418.631 97.8069C418.65 101.681 417.08 105.466 414.325 106.593C410.294 108.24 410.325 106.983 406.272 109.672C406.272 109.672 405.186 108.322 405.926 107.417C406.668 106.511 409.47 105.192 407.904 103.873C406.338 102.554 405.761 104.038 405.186 103.131C404.609 102.225 407.492 99.5893 403.785 97.1166C400.076 94.644 397.605 91.1843 397.935 88.9589Z" fill="#233862"/>
<path d="M140.549 178.628C140.544 178.505 141.231 164.491 134.46 161.266L134.938 160.808C138.039 161.89 141.478 165.239 142.852 169.966C143.874 173.479 143.097 174.249 143.102 174.381L140.549 178.628Z" fill="#A4C8FC"/>
<path d="M122.869 150.871C122.869 150.871 122.096 158.08 125.871 161.147C129.648 164.213 136.545 161.975 136.545 161.975C136.545 161.975 137.318 154.767 133.541 151.701C129.766 148.635 122.869 150.871 122.869 150.871Z" fill="#A4C8FC"/>
<path d="M139.393 204.915C139.265 204.21 136.823 187.707 143.071 169.315C149.071 151.643 145.747 136.661 145.723 136.513H150.138C150.252 137.151 150.559 151.858 145.855 172.012C141.624 190.147 149.526 204.915 147.843 204.915H139.393Z" fill="#A4C8FC"/>
<path d="M148.667 156.195C148.69 156.101 150.798 144.009 156.468 142.633C153.934 142.962 150.713 144.778 148.912 148.157C147.573 150.669 148.043 151.382 148.018 151.481L148.667 156.195Z" fill="#A4C8FC"/>
<path d="M125.972 124.12C125.972 124.12 119.854 115.484 112.908 112.948C112.908 112.948 115.507 133.205 111.707 133.457C107.907 133.706 110.44 110.675 110.44 110.675C110.44 110.675 92.3418 100.628 84.9939 100.906C84.9939 100.906 95.3976 121.147 91.6536 120.454C87.9095 119.762 76.1066 99.2019 76.1066 99.2019C76.1066 99.2019 57.2195 94.5491 53.492 105.682C49.7665 116.818 54.3842 122.764 57.1722 123.638C59.958 124.512 78.1219 125.338 77.514 127.669C76.9041 129.997 64.4253 133.051 57.7141 130.529C57.7141 130.529 64.1657 149.593 74.1203 149.23C84.0769 148.868 87.4995 142.919 93.6564 142.805C99.8134 142.692 104.194 144.606 101.033 146.075C97.8723 147.547 87.5654 145.83 82.3687 149.747C77.172 153.667 73.0137 156.024 82.0967 158.449C91.1776 160.872 104.886 158.136 111.392 153.801C111.41 153.788 116.718 153.366 120.897 177.936C122.508 187.408 121.27 201.459 121.27 201.459L124.641 200.944C126.51 173.405 116.57 150.508 116.57 150.508C116.57 150.508 133.436 138.039 125.972 124.12Z" fill="#A4C8FC"/>
<path d="M181.125 160.468C181.125 160.468 160.806 151.932 168.08 136.401C168.08 136.401 174.204 126.675 181.587 123.519C181.587 123.519 179.961 145.634 184.096 145.682C188.23 145.731 184.129 120.908 184.129 120.908C184.129 120.908 203.161 108.948 211.145 108.818C211.145 108.818 201.055 131.377 205.073 130.407C209.093 129.434 220.682 106.449 220.682 106.449C220.682 106.449 240.885 100.292 245.581 112.144C250.279 123.999 245.621 130.72 242.649 131.829C239.68 132.939 220.033 134.905 220.83 137.396C221.629 139.886 235.338 142.463 242.468 139.333C242.468 139.333 236.593 160.384 225.777 160.576C214.961 160.767 210.9 154.518 204.218 154.759C197.535 155 192.897 157.33 196.41 158.738C199.926 160.147 210.999 157.678 216.863 161.622C222.73 165.564 227.378 167.876 217.673 171.039C207.966 174.202 189.99 174.948 185.557 167.709C181.125 160.468 181.125 160.468 181.125 160.468Z" fill="#D2E3FC"/>
<path d="M236.589 117.034C236.589 117.034 185.048 140.415 181.125 160.468C181.125 160.468 182.359 169.102 178.135 179.644L178.568 183.466C178.568 183.466 182.701 169.838 185.557 167.709C185.557 167.709 171.679 152.249 236.589 117.034Z" fill="#A4C8FC"/>
<path d="M178.135 179.644C178.135 179.644 171.302 193.108 177.733 207.826L179.79 207.017C179.79 207.017 175.829 190.45 179.188 181.513C182.549 172.576 178.135 179.644 178.135 179.644Z" fill="#A4C8FC"/>
<path d="M103.654 67.9887C111.981 76.8491 107.65 94.4484 107.65 94.4484C107.65 94.4484 89.8154 97.6814 81.4867 88.8189C73.1599 79.9565 77.4912 62.3572 77.4912 62.3572C77.4912 62.3572 95.3254 59.1263 103.654 67.9887Z" fill="#A4C8FC"/>
<path d="M103.654 67.9886C111.981 76.849 107.65 94.4482 107.65 94.4482L77.4912 62.3571C77.4912 62.3571 95.3254 59.1261 103.654 67.9886Z" fill="#D2E3FC"/>
<path d="M211.057 101.743C206.709 106.777 196.89 105.423 196.89 105.423C196.89 105.423 194.117 95.9071 198.463 90.8711C202.808 85.8372 212.629 87.1909 212.629 87.1909C212.629 87.1909 215.402 96.7087 211.057 101.743Z" fill="#A4C8FC"/>
<path d="M159.693 146.028C156.78 146.836 153.406 143.848 153.406 143.848C153.406 143.848 154.758 139.55 157.672 138.742C160.583 137.932 163.956 140.922 163.956 140.922C163.956 140.922 162.605 145.22 159.693 146.028Z" fill="#A4C8FC"/>
<path d="M108.247 51.5536C110.244 56.2888 105.941 62.625 105.941 62.625C105.941 62.625 98.3998 61.2836 96.4031 56.5484C94.4064 51.8133 98.7089 45.477 98.7089 45.477C98.7089 45.477 106.251 46.8184 108.247 51.5536Z" fill="#A4C8FC"/>
<path d="M104.258 97.135C101.192 72.7854 118.447 50.5582 142.799 47.4941C167.148 44.428 189.373 61.6811 192.44 86.0328C195.506 110.382 178.251 132.608 153.901 135.674C129.549 138.74 107.324 121.487 104.258 97.135Z" fill="#E2810E"/>
<path d="M100.413 97.6192C97.3469 73.2695 114.6 51.0423 138.952 47.9782C163.301 44.9121 185.526 62.1652 188.593 86.5169C191.659 110.867 174.406 133.092 150.054 136.158C125.704 139.224 103.479 121.971 100.413 97.6192Z" fill="#FFB93E"/>
<path d="M139.813 54.8134C118.983 57.4364 104.171 76.5172 106.792 97.3454C109.415 118.173 128.496 132.987 149.324 130.364C170.155 127.741 184.966 108.662 182.343 87.8338C179.72 67.0036 160.641 52.1923 139.813 54.8134ZM149.625 132.76C138.896 134.112 128.282 131.202 119.739 124.572C111.196 117.939 105.748 108.378 104.396 97.6462C103.046 86.9169 105.954 76.3029 112.587 67.7598C119.218 59.2168 128.781 53.7687 139.51 52.4169C150.241 51.0673 160.855 53.9747 169.396 60.6077C177.939 67.2385 183.387 76.8016 184.739 87.5309C186.091 98.2603 183.181 108.876 176.551 117.417C169.918 125.96 160.357 131.408 149.625 132.76Z" fill="#FFA412"/>
<path d="M151.566 103.552C151.56 102.672 151.43 101.899 151.179 101.232C150.925 100.564 150.515 99.9581 149.949 99.4182C149.38 98.8783 148.651 98.3817 147.756 97.9264C146.862 97.473 145.772 97.03 144.484 96.5994C142.271 95.8411 140.258 95.0436 138.451 94.2091C136.64 93.3746 135.09 92.4061 133.798 91.3058C132.506 90.2054 131.499 88.9155 130.777 87.434C130.058 85.9524 129.689 84.1845 129.675 82.1342C129.663 80.3539 129.965 78.7302 130.588 77.2589C131.208 75.7898 132.1 74.506 133.264 73.4098C134.429 72.3115 135.824 71.4173 137.454 70.7249C139.083 70.0346 140.911 69.5854 142.939 69.3835L142.889 62.6619L148.298 62.6248L148.348 69.4391C150.287 69.6761 152.048 70.1768 153.633 70.9392C155.216 71.7037 156.563 72.6989 157.676 73.925C158.789 75.1531 159.652 76.6078 160.26 78.2872C160.87 79.9686 161.181 81.8561 161.197 83.9496L151.426 84.0196C151.41 81.5078 150.837 79.6327 149.714 78.3943C148.589 77.158 147.091 76.5439 145.22 76.5584C144.206 76.5645 143.334 76.7129 142.603 77.0014C141.873 77.2878 141.274 77.6814 140.804 78.1759C140.334 78.6725 139.988 79.2536 139.768 79.9253C139.547 80.5971 139.44 81.3203 139.446 82.0951C139.45 82.8699 139.568 83.5704 139.798 84.1969C140.027 84.8233 140.421 85.4023 140.977 85.9319C141.533 86.4614 142.269 86.958 143.186 87.4237C144.101 87.8873 145.238 88.3674 146.594 88.8599C148.785 89.6594 150.779 90.4836 152.578 91.3284C154.375 92.1753 155.92 93.152 157.214 94.2627C158.506 95.3733 159.512 96.6715 160.233 98.151C160.954 99.6325 161.321 101.39 161.335 103.42C161.35 105.262 161.041 106.919 160.408 108.388C159.776 109.859 158.877 111.13 157.713 112.206C156.549 113.284 155.141 114.151 153.489 114.813C151.838 115.474 149.998 115.905 147.971 116.109L148.016 122.356L142.64 122.396L142.597 116.177C140.724 116.004 138.912 115.608 137.161 114.992C135.411 114.376 133.856 113.482 132.494 112.309C131.134 111.137 130.042 109.653 129.217 107.856C128.393 106.064 127.971 103.908 127.954 101.396L137.723 101.328C137.734 102.814 137.95 104.052 138.375 105.044C138.799 106.035 139.364 106.828 140.066 107.419C140.769 108.011 141.566 108.423 142.459 108.658C143.349 108.893 144.257 109.006 145.183 109C146.242 108.992 147.169 108.849 147.969 108.571C148.766 108.293 149.434 107.912 149.971 107.426C150.509 106.941 150.911 106.366 151.177 105.707C151.443 105.044 151.572 104.326 151.566 103.552Z" fill="#FFA412"/>
<path d="M183.804 200.625L183.8 200.66L182.916 214.272L179.625 264.815H118.119L114.497 214.964L113.499 201.226L113.456 200.625H183.804Z" fill="#739AF0"/>
<path d="M183.8 200.66L182.916 214.272C178.281 212.658 165.405 208.78 148.63 208.78C127.443 208.78 114.497 214.964 114.497 214.964L113.499 201.226L183.8 200.66Z" fill="#618DD8"/>
<path d="M185.94 207.82H111.225L110.369 199.133H186.888L185.94 207.82Z" fill="#739AF0"/>
<path d="M180.571 267.512H116.799L116.069 264.488H181.381L180.571 267.512Z" fill="#618DD8"/>
<path d="M70.2525 239.357C70.1948 239.04 69.0965 231.616 71.9071 223.343C74.6064 215.395 73.1125 208.655 73.1002 208.589H75.0865C75.138 208.876 75.2761 215.492 73.1599 224.556C71.2559 232.714 74.8104 239.357 74.0542 239.357H70.2525Z" fill="#A4C8FC"/>
<path d="M74.425 217.441C74.4353 217.399 75.3832 211.96 77.9342 211.341C76.7947 211.49 75.3461 212.306 74.5342 213.826C73.9325 214.956 74.1427 215.275 74.1324 215.32L74.425 217.441Z" fill="#A4C8FC"/>
<path d="M69.7126 216.17C69.7126 216.17 67.2173 212.115 64.1718 210.775C64.1718 210.775 64.7508 219.945 63.0385 219.947C61.3262 219.949 63.1291 209.683 63.1291 209.683C63.1291 209.683 55.297 204.649 51.9898 204.563C51.9898 204.563 56.0738 213.949 54.413 213.53C52.7542 213.11 48.05 203.541 48.05 203.541C48.05 203.541 39.7068 200.903 37.7121 205.793C35.7154 210.685 37.6174 213.487 38.8434 213.959C40.0694 214.433 48.1983 215.329 47.8563 216.357C47.5163 217.386 41.8271 218.395 38.8866 217.068C38.8866 217.068 41.2316 225.813 45.7092 225.939C50.1888 226.065 51.8991 223.493 54.6644 223.621C57.4317 223.749 59.3439 224.733 57.8809 225.302C56.42 225.871 51.8435 224.801 49.3976 226.409C46.9517 228.018 45.0168 228.956 49.0226 230.307C53.0303 231.659 59.2615 230.827 62.307 229.069C62.3173 229.065 64.7116 229.028 65.8759 240.179C66.323 244.476 65.3607 250.748 65.3607 250.748L66.8897 250.614C68.5257 238.306 64.7281 227.742 64.7281 227.742C64.7281 227.742 72.6592 222.634 69.7126 216.17Z" fill="#A4C8FC"/>
<path d="M79.385 212.869C78.0745 213.231 76.5558 211.888 76.5558 211.888C76.5558 211.888 77.1637 209.955 78.4742 209.59C79.7847 209.228 81.3013 210.571 81.3013 210.571C81.3013 210.571 80.6934 212.506 79.385 212.869Z" fill="#A4C8FC"/>
<path d="M94.4579 183.32C89.8835 186.316 89.9206 194.47 89.9206 194.47C89.9206 194.47 97.3777 197.763 101.954 194.767C106.531 191.771 106.492 183.617 106.492 183.617C106.492 183.617 99.0344 180.324 94.4579 183.32Z" fill="#A4C8FC"/>
<path d="M94.4579 183.32C89.8835 186.316 89.9206 194.47 89.9206 194.47L106.492 183.617C106.492 183.617 99.0344 180.324 94.4579 183.32Z" fill="#D2E3FC"/>
<path d="M94.1839 175.649C92.8116 177.509 94.0253 180.734 94.0253 180.734C94.0253 180.734 97.4644 180.942 98.8367 179.081C100.209 177.223 98.9954 173.998 98.9954 173.998C98.9954 173.998 95.5563 173.788 94.1839 175.649Z" fill="#A4C8FC"/>
<path d="M54.4501 190.876C53.0695 179.922 60.8316 169.927 71.7856 168.546C82.7374 167.167 92.7353 174.93 94.1138 185.881C95.4923 196.835 87.7322 206.833 76.7783 208.212C65.8264 209.59 55.8286 201.83 54.4501 190.876Z" fill="#E2810E"/>
<path d="M52.7191 191.095C51.3406 180.141 59.1007 170.143 70.0546 168.765C81.0065 167.386 91.0043 175.146 92.3828 186.1C93.7634 197.054 86.0013 207.05 75.0494 208.43C64.0954 209.809 54.0976 202.047 52.7191 191.095Z" fill="#FFB93E"/>
<path d="M70.442 171.841C61.0726 173.02 54.4108 181.602 55.5895 190.971C56.7702 200.34 65.3503 207.002 74.7197 205.824C84.0891 204.643 90.7529 196.061 89.5722 186.691C88.3936 177.324 79.8114 170.66 70.442 171.841ZM74.8557 206.901C70.0299 207.509 65.2556 206.201 61.4126 203.217C57.5697 200.233 55.1196 195.933 54.5118 191.107C53.9039 186.279 55.2124 181.505 58.1961 177.664C61.1777 173.821 65.4801 171.369 70.306 170.761C75.1318 170.155 79.9061 171.462 83.7491 174.445C87.592 177.429 90.042 181.729 90.6499 186.555C91.2578 191.383 89.9493 196.158 86.9656 200C83.984 203.841 79.6815 206.293 74.8557 206.901Z" fill="#FFA412"/>
<path d="M75.7295 193.763C75.7254 193.368 75.6677 193.019 75.5544 192.718C75.441 192.418 75.2556 192.146 75.0001 191.903C74.7446 191.659 74.4169 191.437 74.0151 191.233C73.6133 191.029 73.1229 190.829 72.5439 190.635C71.5466 190.293 70.642 189.935 69.8301 189.56C69.0141 189.185 68.3177 188.75 67.7366 188.253C67.1555 187.759 66.7022 187.18 66.3787 186.512C66.0531 185.847 65.8883 185.051 65.8821 184.128C65.8759 183.329 66.014 182.597 66.2921 181.936C66.5703 181.274 66.9721 180.697 67.4955 180.205C68.0189 179.71 68.6474 179.308 69.3809 178.997C70.1145 178.686 70.9367 178.484 71.8474 178.393L71.8268 175.371L74.2583 175.352L74.2809 178.418C75.1525 178.525 75.9459 178.75 76.6588 179.094C77.3697 179.436 77.9755 179.885 78.4783 180.436C78.977 180.99 79.3643 181.643 79.6404 182.399C79.9124 183.155 80.0546 184.004 80.0608 184.946L75.6656 184.977C75.6574 183.848 75.4019 183.003 74.895 182.447C74.3901 181.89 73.7163 181.614 72.8736 181.62C72.4182 181.624 72.0267 181.69 71.697 181.82C71.3694 181.95 71.0994 182.125 70.8872 182.348C70.677 182.57 70.5204 182.834 70.4215 183.135C70.3226 183.438 70.2752 183.763 70.2773 184.112C70.2793 184.46 70.3329 184.775 70.4359 185.057C70.539 185.338 70.7162 185.599 70.9655 185.836C71.2148 186.075 71.5466 186.298 71.9587 186.508C72.3708 186.716 72.8818 186.932 73.4917 187.153C74.4767 187.514 75.3751 187.884 76.1828 188.264C76.9926 188.645 77.687 189.086 78.2681 189.584C78.8513 190.083 79.3025 190.666 79.6281 191.334C79.9516 191.999 80.1164 192.791 80.1226 193.703C80.1288 194.532 79.9907 195.278 79.7064 195.937C79.422 196.599 79.0182 197.171 78.4948 197.656C77.9693 198.14 77.3367 198.531 76.5929 198.828C75.8511 199.125 75.0227 199.318 74.112 199.411L74.1326 202.222L71.7135 202.238L71.6949 199.442C70.8522 199.364 70.0362 199.185 69.249 198.908C68.4619 198.632 67.7613 198.23 67.1493 197.701C66.5374 197.173 66.0469 196.506 65.676 195.698C65.3051 194.892 65.1156 193.924 65.1073 192.793L69.5025 192.762C69.5066 193.431 69.6055 193.988 69.7951 194.433C69.9867 194.88 70.2402 195.237 70.5554 195.502C70.8728 195.768 71.2313 195.954 71.6311 196.059C72.0329 196.164 72.4409 196.215 72.8571 196.213C73.3331 196.209 73.7514 196.145 74.1099 196.02C74.4684 195.896 74.7693 195.723 75.0124 195.504C75.2535 195.286 75.4328 195.028 75.5523 194.732C75.6739 194.435 75.7316 194.111 75.7295 193.763Z" fill="#FFA412"/>
<path d="M90.2295 237.426L90.2275 237.443L89.8298 243.565L88.3503 266.299H60.6832L59.0553 243.876L58.6061 237.696L58.5855 237.426H90.2295Z" fill="#B4C9F7"/>
<path d="M90.2276 237.443L89.8299 243.565C87.7446 242.84 81.9524 241.094 74.4087 241.094C64.8786 241.094 59.0555 243.876 59.0555 243.876L58.6063 237.696L90.2276 237.443Z" fill="#9BB8EA"/>
<path d="M91.1898 240.664H57.5842L57.1989 236.755H91.6164L91.1898 240.664Z" fill="#B4C9F7"/>
<path d="M88.7749 267.512H60.0899L59.7622 266.152H89.1396L88.7749 267.512Z" fill="#B4C9F7"/>
<path d="M204.226 150.652C204.226 150.652 201.065 150.036 200.344 150.652C199.621 151.268 196.194 154.749 196.928 155.892C197.661 157.036 201.181 154.946 201.912 154.749C202.641 154.553 204.688 153.753 204.688 153.753L204.226 150.652Z" fill="#FFB27D"/>
<path d="M237.799 262.351L241.184 263.612C241.184 263.612 255.894 243.21 257.706 225.259C258.029 222.054 257.922 218.949 257.221 216.081C257.221 216.081 257.366 215.261 257.617 213.808C257.735 213.13 257.877 212.316 258.042 211.381C258.52 208.64 259.177 204.892 259.929 200.623C261.66 190.798 263.902 178.239 265.645 169.007L264.732 168.713L254.858 165.529L252.818 159.047L245.466 157.112C245.466 157.112 243.824 160.324 242.355 175.502C242.085 177.493 241.837 179.687 241.652 182.069C241.079 189.335 241.038 198.35 242.352 208.655C242.688 211.292 243.115 214.016 243.642 216.814C244.03 218.867 244.087 221.661 243.925 224.871C243.185 239.544 237.799 262.351 237.799 262.351Z" fill="#2B478B"/>
<path d="M241.652 182.069L257.617 213.808C257.735 213.13 257.877 212.316 258.042 211.381C258.52 208.64 259.177 204.892 259.929 200.623C261.66 190.798 263.902 178.239 265.645 169.007L264.732 168.713L254.858 165.529L252.818 159.047L245.466 157.112C245.466 157.112 243.824 160.324 242.355 175.502C242.085 177.493 241.837 179.687 241.652 182.069Z" fill="#233862"/>
<path d="M248.676 161.186L249.045 158.014C255.237 159.661 271.781 153.419 271.781 153.419C271.781 153.419 277.78 158.692 276.993 171.332C276.607 177.501 275.905 203.715 275.173 211.473C274.907 214.284 274.674 216.285 274.58 217.084C274.578 217.088 274.578 217.091 274.578 217.093C274.549 217.336 274.635 217.567 274.759 217.779C275.839 219.611 276.731 221.519 277.464 223.472C284.664 242.654 276.356 266.276 276.356 266.276L274.2 265.407C274.2 265.407 269.474 239.118 265.633 227.505C264.982 225.535 264.355 223.987 263.782 223.062C262.113 220.367 260.564 215.961 259.156 210.723C256.498 200.82 254.357 187.938 252.933 177.993C252.738 178.004 248.676 161.186 248.676 161.186Z" fill="#2B478B"/>
<path d="M204.226 150.652L204.688 153.753C204.688 153.753 204.892 153.753 205.25 153.726C206.379 153.65 209.122 153.498 212.223 153.164C216.886 152.702 222.423 151.882 224.628 150.524C227.984 148.474 233.496 142.193 237.084 135.915C237.187 135.76 237.263 135.606 237.339 135.453C239.21 132.121 240.519 128.814 240.62 126.175C240.698 124.559 240.519 123.177 240.185 121.971C239.75 120.382 239.031 119.128 238.289 118.178C238.186 118.025 238.083 117.871 237.929 117.743C236.698 116.282 235.495 115.666 235.495 115.666C234.879 115.41 234.213 115.717 233.521 116.461V116.486C232.956 117.075 232.342 117.974 231.753 119.101C231.726 119.128 231.701 119.152 231.701 119.177C231.574 119.408 231.444 119.665 231.291 119.946C231.24 119.997 231.215 120.075 231.188 120.127C230.906 120.716 230.624 121.33 230.344 121.971C227.191 128.841 223.832 139.247 221.038 142.348C219.835 143.679 214.325 146.294 209.942 148.243C206.789 149.626 204.226 150.652 204.226 150.652Z" fill="#FFB27D"/>
<path d="M236.847 122.742C238.79 123.644 241.139 124.258 243.978 124.413C254.623 124.996 257.04 115.664 257.479 109.469C255.944 108.913 254.601 108.967 253.826 109.008C253.072 109.049 252.284 109.127 251.633 109.208C250.331 108.528 247.992 105.223 246.641 99.6962L246.181 99.9085L238.499 103.519C238.499 103.519 239.315 106.02 239.919 108.41C240.389 110.283 240.727 112.09 240.444 112.597C239.839 112.843 239.476 112.997 239.476 112.997C239.476 112.997 239.476 113.001 239.474 113.005C239.396 113.203 237.727 117.458 236.847 122.742Z" fill="#FFB27D"/>
<path d="M234.184 129.727C234.265 129.939 234.353 130.147 234.45 130.36C237.145 136.166 242.136 160.219 242.136 160.219C241.425 164.544 274.635 159.37 274.722 155.433C275.892 151.258 270.572 144.551 267.572 141.186C267.197 140.761 266.859 140.308 266.566 139.83C265.824 138.631 265.354 137.275 265.204 135.859C264.615 130.277 264.839 125.048 264.79 121.866C264.205 121.431 263.636 121.031 263.108 120.648C262.301 120.061 261.588 119.511 261.062 118.95C260.485 118.342 260.123 117.72 260.081 117.02C260.051 116.488 260.067 115.944 260.123 115.398C260.147 115.14 260.18 114.885 260.22 114.627C260.634 111.926 261.763 109.476 261.763 109.476C258.905 108.32 253.826 109.008 253.826 109.008C253.826 109.008 253.832 109.29 253.836 109.752C253.852 111.606 253.836 116.371 253.24 117.273C252.497 118.396 238.891 123.315 238.172 121.792C237.463 120.292 239.402 113.271 239.474 113.006C239.476 113.001 239.476 112.997 239.476 112.997C234.92 114.788 233.29 116.288 233.29 116.288C236.037 118.07 232.06 124.093 234.184 129.727Z" fill="#F99746"/>
<path d="M243.35 79.5526C243.366 79.091 243.723 74.1189 251.297 73.8593C251.297 73.8593 247.574 74.3023 246.929 75.9404C246.929 75.9404 249.466 73.917 251.532 74.5681C253.597 75.2192 254.811 78.8376 254.823 80.0286C254.835 81.2175 253.688 85.0543 252.377 85.3819C251.881 85.5055 251.308 85.4726 250.788 85.384C251.137 85.9279 251.479 86.5296 251.806 87.1993C254.829 93.4057 251.712 99.4679 249.152 98.7982C247.512 98.3696 247.046 101.17 247.046 101.17L231.102 88.2605C231.102 88.2605 236.958 76.1423 243.35 79.5526Z" fill="#2C3A64"/>
<path d="M238.499 103.521C238.499 103.521 239.317 106.018 239.919 108.412C244.409 107.16 245.771 102.441 246.181 99.9105L238.499 103.521Z" fill="#ED985F"/>
<path d="M237.554 106.165C237.554 106.165 248.297 103.68 246.645 97.0136C244.994 90.3477 245.268 85.5384 238.341 86.8427C231.413 88.1491 230.715 91.0215 230.725 93.3809C230.735 95.7402 234.718 106.641 237.554 106.165Z" fill="#FFB27D"/>
<path d="M230.121 89.5956C231.275 87.1806 232.635 87.3084 233.484 87.737C238.532 83.0677 243.482 86.8818 243.482 86.8818C245.388 91.4851 249.517 93.3664 249.517 93.3664C249.517 93.3664 247.869 95.0561 243.084 95.019C241.623 95.0066 240.156 94.337 238.819 93.4118C241.396 96.0101 244.419 97.5906 244.419 97.5906C238.431 96.4449 234.417 89.5132 234.005 88.7776C233.498 89.5255 232.528 91.1204 232.447 92.466C232.336 94.2957 232.967 97.8481 231.918 97.9841C231.918 97.9841 228.388 93.2201 230.121 89.5956Z" fill="#2C3A64"/>
<path d="M233.29 116.288C233.29 116.288 230.704 120.799 230.317 121.961C230.317 121.961 233.669 121.831 235.025 124.411C235.025 124.411 235.349 116.896 233.29 116.288Z" fill="#F99746"/>
<path d="M251.079 152.138C257.629 152.068 263.174 145.266 266.566 139.83C265.824 138.631 265.355 137.275 265.204 135.859C264.615 130.277 264.839 125.047 264.79 121.866C264.205 121.431 263.636 121.031 263.109 120.648C262.301 120.061 261.588 119.511 261.062 118.95C255.699 128.019 242.196 152.23 251.079 152.138Z" fill="#ED7D2B"/>
<path d="M226.319 155.701L227.216 158.981C227.216 158.981 228.343 158.777 230.137 158.443C230.675 158.34 230.984 158.264 230.984 158.264C232.418 157.982 234.135 157.598 236.006 157.188H236.033C239.237 156.418 242.824 155.497 245.849 154.47C247.976 153.727 249.822 152.933 251.077 152.138C251.207 152.062 251.308 151.985 251.435 151.882C254.436 149.704 257.998 143.296 260.766 136.426C261.151 135.478 261.509 134.53 261.868 133.607C263.15 130.172 264.174 126.791 264.79 123.869C265.173 122.126 265.431 120.535 265.482 119.229C265.507 118.767 265.534 118.332 265.507 117.922C265.455 110.49 261.765 109.464 261.765 109.464C261.689 109.439 261.613 109.412 261.509 109.387C260.869 109.284 260.201 109.721 259.511 110.566C258.639 111.617 257.716 113.333 256.768 115.41C255.307 118.716 253.768 122.997 252.334 127.252C251.538 129.583 250.77 131.916 250.001 134.069C249.564 135.375 249.13 136.605 248.72 137.735C247.924 139.888 247.207 141.629 246.566 142.731C246.156 143.451 244.978 144.45 243.414 145.577C240.698 147.551 236.725 149.935 233.265 151.882C231.829 152.702 230.471 153.446 229.344 154.06C227.523 155.06 226.319 155.701 226.319 155.701Z" fill="#FFB27D"/>
<path d="M256.776 115.421C261.711 114.061 265.517 117.912 265.517 117.912C265.456 110.492 261.761 109.476 261.761 109.476C260.275 108.862 258.553 111.436 256.776 115.421Z" fill="#F99746"/>
<path d="M263.823 268.036H280.883C280.883 268.036 281.291 265.438 280.401 263.464C279.546 261.572 278.208 260.713 278.53 258.421C277.446 259.538 275.678 260.787 273.213 260.455C272.911 260.946 271.262 263.567 270.252 264.292C269.138 265.093 264.168 264.809 263.823 268.036Z" fill="#233862"/>
<path d="M227.199 268.036H244.257C244.257 268.036 244.895 265.316 243.774 263.464C242.783 261.825 243.162 260.894 243.898 259.538C243.125 259.853 242.126 260.142 241.024 260.08C240.175 260.031 239.276 259.645 238.487 259.188C237.753 260.024 234.609 263.587 233.628 264.292C232.513 265.093 227.541 264.809 227.199 268.036Z" fill="#233862"/>
<path d="M203.357 162.885L198.747 164.777C197.494 165.288 196.835 166.652 197.156 167.932L196.664 168.134C194.787 161.618 197.076 155.047 202.221 152.939C202.944 152.642 203.688 152.446 204.44 152.352C206.81 152.041 209.279 152.677 211.498 154.062C213.608 155.377 215.489 157.365 216.845 159.86L216.165 160.139C215.497 159.005 214.074 158.494 212.821 159.007L208.207 160.899C207.846 160.019 206.991 159.485 206.093 159.485C205.809 159.485 205.516 159.541 205.238 159.654L204.599 159.916C203.441 160.392 202.883 161.725 203.357 162.885ZM225.304 170.901L221.25 161.012C220.723 159.722 219.307 159.053 217.993 159.413C216.651 156.889 214.801 154.839 212.705 153.398C210.494 151.878 208.015 151.039 205.568 151.049C204.273 151.056 202.986 151.299 201.758 151.804C195.994 154.165 193.41 161.447 195.526 168.599L195.211 168.727C195.211 168.727 194.224 168.659 192.572 168.659C187.352 168.659 175.485 169.353 167.161 175.135C167.161 175.135 166.637 175.692 166.617 176.543C166.606 176.825 166.654 177.14 166.792 177.476C166.792 177.476 180.157 168.822 192.518 177.715C193.276 178.259 194.012 178.764 194.729 179.23L195.838 181.937C197.678 186.423 202.85 188.589 207.338 186.751L218.658 182.11L221.018 181.144C225.013 179.506 226.944 174.896 225.304 170.901Z" fill="#C94C43"/>
<path d="M194.729 179.23C194.012 178.765 193.276 178.26 192.518 177.716C180.157 168.822 166.792 177.477 166.792 177.477C166.654 177.141 166.606 176.826 166.617 176.543C168.488 175.311 175.5 171.213 184.187 172.614C194.366 174.256 196.208 175.672 194.729 179.23Z" fill="#B23B38"/>
<path d="M221.018 181.144L218.658 182.111C222.194 180.18 217.813 172.022 215.252 166.636C212.691 161.252 208.817 163.712 208.817 163.712C207.929 161.907 206.027 162.006 206.027 162.006C205.926 160.267 204.599 159.917 204.599 159.917L205.238 159.655C205.516 159.542 205.809 159.486 206.093 159.486C206.991 159.486 207.846 160.02 208.207 160.899L212.821 159.008C214.073 158.495 215.497 159.006 216.165 160.139L216.845 159.861C215.489 157.366 213.608 155.377 211.498 154.062C209.279 152.678 206.81 152.041 204.44 152.352C204.809 152.053 205.209 151.635 205.567 151.05C208.015 151.04 210.494 151.878 212.705 153.399C214.801 154.839 216.651 156.89 217.993 159.414C219.307 159.053 220.723 159.723 221.25 161.013L225.304 170.901C226.944 174.897 225.013 179.506 221.018 181.144Z" fill="#B23B38"/>
<path d="M215.707 158.88C217.348 159.57 219.655 161.981 223.346 160.52C225.985 159.494 228.78 158.777 230.137 158.443C230.675 158.34 230.984 158.264 230.984 158.264L229.523 154.009C229.523 154.009 229.472 154.036 229.344 154.06C228.394 154.266 223.577 155.29 221.32 154.777C218.784 154.188 214.529 157.24 214.529 157.24C214.529 157.24 214.067 158.212 215.707 158.88Z" fill="#FFB27D"/>
<path d="M169.403 184.618C169.403 183.079 166.615 178.327 166.615 178.327C166.615 178.327 163.829 183.079 163.829 184.618C163.829 186.158 165.075 187.406 166.615 187.406C168.154 187.406 169.403 186.158 169.403 184.618Z" fill="#AFCDFB"/>
<path d="M236.865 19.6273C237.267 18.5414 237.877 17.4782 238.72 16.4664C238.897 16.2501 239.12 16.0296 239.363 15.8091C240.428 14.8736 241.98 14.0267 243.187 13.7692C252.427 11.8137 258.553 21.7703 252.808 29.0977C252.711 29.2172 252.616 29.3367 252.515 29.4562C251.582 30.5627 249.647 31.7208 248.235 32.036C247.496 32.1988 246.775 32.2874 246.08 32.308C239.132 32.4914 234.584 25.8111 236.865 19.6273ZM245.091 0.0210991L240.999 0.913338L240.902 0.935997C240.405 1.04726 240.072 1.51089 240.125 2.01366L240.494 5.48983C240.5 5.54753 240.502 5.60523 240.498 5.6588C240.469 6.04619 240.22 6.39236 239.847 6.52011C237.657 7.299 235.65 8.50237 233.933 10.0684C233.861 10.1323 233.783 10.1838 233.7 10.225C233.387 10.3775 233.006 10.3548 232.707 10.1591L230.288 8.52711C229.967 8.31487 229.554 8.31074 229.233 8.49207C229.138 8.54977 229.043 8.62394 228.965 8.71666L226.21 11.9847C225.87 12.3865 225.895 12.9903 226.272 13.3632L229.019 16.1058C229.289 16.3778 229.377 16.7776 229.247 17.1382C229.066 17.6595 228.905 18.187 228.771 18.731C228.518 19.751 228.363 20.7689 228.298 21.7786L228.295 21.7827C228.269 22.2051 227.99 22.5595 227.589 22.6852L223.822 23.8515L223.634 23.9112C223.148 24.0575 222.851 24.5603 222.961 25.061L223.871 29.244C223.985 29.7529 224.461 30.0991 224.98 30.0435L228.848 29.6334C229.278 29.5881 229.69 29.823 229.864 30.2124C230.628 31.8506 231.636 33.3671 232.864 34.6983C233.173 35.0403 233.21 35.5452 232.952 35.9284L231.026 38.8008C230.733 39.2397 230.82 39.8167 231.217 40.1505L234.498 42.9178C234.887 43.2455 235.46 43.2187 235.814 42.8622L239.043 39.6374C239.315 39.3634 239.721 39.2706 240.09 39.3922C240.541 39.5447 241.003 39.6786 241.475 39.7961C242.365 40.0166 243.253 40.1649 244.131 40.2453C244.531 40.2762 244.873 40.5461 244.986 40.9315L246.383 45.4585C246.54 45.9572 247.044 46.2498 247.551 46.1406L251.749 45.2298C252.192 45.1309 252.513 44.7394 252.532 44.2943C252.534 44.249 252.536 44.1995 252.526 44.1501L252.074 39.8579C252.029 39.4582 252.223 39.0728 252.571 38.8771C252.602 38.8606 252.631 38.8421 252.666 38.8297C252.763 38.7885 252.853 38.7493 252.948 38.6958C254.077 38.1786 255.151 37.5357 256.148 36.7877C256.476 36.5322 256.937 36.5239 257.285 36.763L260.321 38.7967C260.749 39.0852 261.332 39.0007 261.666 38.603L262.28 37.8777L264.415 35.337C264.753 34.9414 264.724 34.3521 264.357 33.9812L261.652 31.2777C261.359 30.9913 261.289 30.5565 261.458 30.1836C261.903 29.211 262.268 28.1745 262.536 27.0907C262.734 26.2891 262.874 25.4752 262.956 24.6736L263.745 24.4305L266.987 23.425C267.388 23.3054 267.662 22.9387 267.677 22.5348C267.683 22.4482 267.673 22.3638 267.652 22.2793L266.745 18.0654C266.634 17.5688 266.164 17.2391 265.662 17.2886L263.018 17.573C262.573 17.6204 262.138 17.3545 261.984 16.9321C261.339 15.1848 260.424 13.5549 259.278 12.1063C259.004 11.7642 258.983 11.2944 259.229 10.9462L261.662 7.31755C261.932 6.90956 261.858 6.36351 261.483 6.04618L258.161 3.25412C257.768 2.92237 257.191 2.94709 256.836 3.30769L253.478 6.6623C253.191 6.9549 252.756 7.03731 252.379 6.87658C251.569 6.53247 250.721 6.25635 249.834 6.03793C249.358 5.91842 248.883 5.82158 248.407 5.74328C248.034 5.68352 247.727 5.41771 247.611 5.05711L246.272 0.717583C246.115 0.214806 245.606 -0.0839882 245.091 0.0210991Z" fill="#DFEDFB"/>
<path d="M291.198 42.6622C292.02 41.0777 293.16 39.5631 294.645 38.1764C294.957 37.8776 295.34 37.583 295.756 37.2924C297.565 36.0602 300.106 35.0629 302.004 34.9001C316.533 33.6761 324.011 50.1029 313.805 60.2285C313.634 60.3934 313.465 60.5561 313.287 60.7189C311.647 62.2355 308.459 63.6408 306.238 63.851C305.072 63.9602 303.951 63.9561 302.884 63.8551C292.204 62.8063 286.517 51.6978 291.198 42.6622ZM307.555 14.2038L301.118 14.7849L300.965 14.7993C300.18 14.8756 299.581 15.5226 299.566 16.3036L299.465 21.7002C299.465 21.7908 299.455 21.8774 299.44 21.9598C299.321 22.547 298.872 23.0292 298.276 23.1529C294.773 23.9276 291.466 25.3865 288.538 27.4574C288.414 27.5398 288.285 27.6057 288.151 27.6531C287.642 27.8241 287.061 27.717 286.64 27.3585L283.246 24.3974C282.797 24.01 282.167 23.9235 281.641 24.1399C281.483 24.2099 281.322 24.3047 281.184 24.4304L276.337 28.9121C275.74 29.4602 275.662 30.3895 276.168 31.0345L279.849 35.7635C280.211 36.2312 280.271 36.8597 280.003 37.3893C279.626 38.1537 279.28 38.9285 278.969 39.7362C278.386 41.2508 277.953 42.7797 277.658 44.3148L277.656 44.323C277.533 44.9639 277.04 45.4543 276.397 45.5676L270.405 46.6329L270.104 46.6886C269.334 46.8184 268.781 47.5313 268.853 48.3226L269.445 54.904C269.523 55.7035 270.185 56.3279 270.99 56.3423L276.997 56.4556C277.664 56.4659 278.25 56.9048 278.441 57.5354C279.296 60.1935 280.551 62.7094 282.177 64.9822C282.583 65.5654 282.546 66.3442 282.076 66.8862L278.573 70.9166C278.041 71.5327 278.064 72.4332 278.608 73.0205L283.106 77.8896C283.638 78.4645 284.522 78.5325 285.132 78.0544L290.695 73.7355C291.165 73.3666 291.806 73.3007 292.346 73.5583C293.009 73.8797 293.691 74.1744 294.392 74.4443C295.713 74.9512 297.044 75.3489 298.375 75.6394C298.981 75.7672 299.455 76.2432 299.554 76.8552L300.825 84.0589C300.971 84.8522 301.686 85.3982 302.484 85.3282L309.09 84.7368C309.789 84.6709 310.355 84.1331 310.469 83.4551C310.479 83.3871 310.491 83.3088 310.487 83.2347L310.617 76.5708C310.625 75.9506 310.994 75.3963 311.567 75.1655C311.616 75.1429 311.666 75.1202 311.719 75.1078C311.876 75.0625 312.024 75.0213 312.179 74.9574C314.007 74.3825 315.774 73.6036 317.446 72.6475C317.998 72.3178 318.707 72.3941 319.197 72.8288L323.456 76.5234C324.056 77.0509 324.965 77.0324 325.552 76.4863L326.632 75.4911L330.39 72.0108C330.983 71.4689 331.054 70.5602 330.561 69.9214L326.934 65.2625C326.543 64.7679 326.518 64.0859 326.848 63.5501C327.715 62.1448 328.474 60.6241 329.092 59.0169C329.549 57.8259 329.92 56.6061 330.198 55.3944L331.455 55.1719L336.613 54.2549C337.252 54.1478 337.742 53.6409 337.841 53.0227C337.866 52.8929 337.868 52.761 337.855 52.625L337.272 45.9983C337.196 45.2153 336.541 44.6198 335.762 44.5992L331.657 44.527C330.965 44.5147 330.351 44.0243 330.192 43.3484C329.539 40.5481 328.453 37.8756 326.972 35.4379C326.621 34.8589 326.679 34.1356 327.12 33.6493L331.546 28.5556C332.036 27.9828 332.028 27.1359 331.513 26.5754L326.959 21.661C326.421 21.0758 325.531 21.0058 324.919 21.49L319.131 25.9861C318.637 26.3776 317.957 26.4188 317.406 26.1015C316.234 25.4215 314.983 24.8343 313.671 24.3274C312.964 24.0554 312.253 23.8143 311.538 23.6062C310.98 23.4393 310.559 22.9757 310.452 22.4008L309.23 15.4958C309.088 14.6942 308.367 14.14 307.555 14.2038Z" fill="#CDE3FD"/>
</svg>
