<svg width="411" height="304" viewBox="0 0 411 304" fill="none" xmlns="http://www.w3.org/2000/svg">
<path d="M36.6462 269.216C36.6462 269.216 -7.53107 218.604 10.9161 159.113C27.4726 105.719 102.332 71.1617 142.11 97.6067C161.352 110.399 176.899 58.9818 240.763 40.1584C287.989 26.239 357.823 57.4556 340.087 153.054C326.601 225.737 393.492 189.499 378.885 269.793L36.6462 269.216Z" fill="#F9F7FF"/>
<path d="M362.148 269.007L316.459 269.724C314.818 268.332 323.836 264 335.571 264.242C336.834 264.268 338.423 264.411 340.243 264.796C340.664 259.2 343.069 234.046 352.136 235.056C362.332 236.188 352.136 246.134 349.255 252.022C347.12 256.383 344.867 262.639 343.84 265.59C344.665 265.77 345.524 265.945 346.399 266.107C347.751 261.957 352.778 248.001 359.171 248.815C366.679 249.766 363.661 255.361 358.34 258.684C354.436 261.126 349.643 264.597 347.366 266.274C349.295 266.59 351.309 266.802 353.353 266.754C358.597 266.629 361.157 268.175 362.148 269.007Z" fill="#9ED1C5"/>
<path d="M33.1677 267.938C32.0814 266.232 28.8122 261.802 24.4575 262.389C19.7135 263.027 29.6974 266.154 32.7543 267.951C32.0755 267.96 31.4917 267.905 31.0632 267.752C29.0196 267.024 25.5199 268.422 24.4011 268.913H43.8555C43.7209 268.446 43.3706 267.686 42.4645 267.133C42.1452 266.938 41.503 266.91 40.6741 266.973C41.8308 265.61 42.6342 261.254 39.4138 262.374C37.0613 263.194 37.0675 265.855 37.2985 267.429C36.7983 267.508 36.2905 267.587 35.7892 267.659C34.8207 262.723 31.3948 248.256 24.4509 247.87C17.4114 247.478 30.4202 262.874 34.7518 267.798C34.1967 267.865 33.6623 267.914 33.1677 267.938Z" fill="#9ED1C5"/>
<path d="M127.326 263.783V267.499C127.326 267.795 127.236 268.071 127.08 268.299C126.918 268.539 126.682 268.729 126.408 268.836C126.342 268.861 126.274 268.882 126.204 268.896H126.203C126.182 268.902 126.164 268.905 126.146 268.909C126.063 268.924 125.98 268.931 125.894 268.931L66.6825 268.922C66.62 268.922 66.5573 268.918 66.4972 268.909C66.4734 268.907 66.4497 268.904 66.4267 268.898C65.7828 268.782 65.2854 268.231 65.2516 267.563C65.2509 267.539 65.2501 267.513 65.2501 267.49L65.2507 263.773C65.2507 263.748 65.2514 263.724 65.2523 263.698C65.2911 262.944 65.9202 262.339 66.6836 262.339L125.894 262.348C125.932 262.348 125.971 262.35 126.008 262.354L126.055 262.358C126.074 262.359 126.09 262.363 126.109 262.365L126.147 262.372C126.237 262.387 126.326 262.413 126.408 262.446L126.445 262.461L126.482 262.477C126.508 262.488 126.53 262.499 126.554 262.512C126.581 262.525 126.607 262.54 126.633 262.556C126.655 262.569 126.677 262.584 126.699 262.598C126.725 262.617 126.749 262.633 126.773 262.654C126.793 262.667 126.811 262.683 126.828 262.698L126.831 262.701L126.868 262.735C126.905 262.768 126.94 262.804 126.971 262.841L127.001 262.874L127.028 262.909C127.047 262.933 127.065 262.957 127.081 262.981C127.236 263.211 127.326 263.485 127.326 263.783Z" fill="#FFAB3C"/>
<path d="M98.2501 268.927L66.5288 268.922C66.5034 268.922 66.4782 268.922 66.4536 268.92C66.426 268.918 66.3992 268.916 66.3719 268.911C65.7622 268.828 65.2832 268.258 65.2516 267.563C65.2509 267.539 65.2501 267.513 65.2501 267.489L65.2507 263.773C65.2507 263.747 65.2514 263.724 65.2523 263.698C65.2873 262.944 65.8479 262.341 66.5297 262.341L94.3549 262.344C94.3676 262.398 94.3803 262.451 94.3937 262.506C94.8543 264.413 95.8844 266.974 98.1933 268.879C98.2121 268.896 98.2312 268.911 98.2501 268.927Z" fill="#FF9D1B"/>
<path d="M120.122 268.931H119.447L119.449 262.348H120.122V268.931Z" fill="#FF9D1B"/>
<path d="M117.844 268.931H117.171V262.348H117.844V268.931Z" fill="#FF9D1B"/>
<path d="M115.111 268.929H114.438L114.44 262.346L115.111 262.348V268.929Z" fill="#FF9D1B"/>
<path d="M110.924 268.929H110.251L110.252 262.346H110.925L110.924 268.929Z" fill="#FF9D1B"/>
<path d="M106.496 268.929H105.823L105.824 262.346H106.497L106.496 268.929Z" fill="#FF9D1B"/>
<path d="M99.7085 268.927H99.0355L99.0364 262.344H99.7094L99.7085 268.927Z" fill="#FF9D1B"/>
<path d="M93.3529 268.927H92.6801L92.6808 262.344H93.3538L93.3529 268.927Z" fill="#FF9D1B"/>
<path d="M87.6776 268.926H87.0046L87.0055 262.343H87.6788L87.6776 268.926Z" fill="#FF9D1B"/>
<path d="M122.289 268.931H121.616V262.348H122.289V268.931Z" fill="#FF9D1B"/>
<path d="M123.722 268.931H123.049V262.348H123.722V268.931Z" fill="#FF9D1B"/>
<path d="M125.105 268.931H124.432L124.434 262.348H125.105V268.931Z" fill="#FF9D1B"/>
<path d="M126.147 262.372L126.145 268.909C126.063 268.924 125.98 268.931 125.894 268.931H125.472V262.348H125.894C125.98 262.348 126.065 262.358 126.147 262.372Z" fill="#FF9D1B"/>
<path d="M127.082 262.983L127.08 268.299C126.918 268.539 126.683 268.729 126.409 268.835V262.446C126.684 262.552 126.918 262.742 127.082 262.983Z" fill="#FF9D1B"/>
<path d="M130.388 257.362L130.386 261.08C130.386 261.376 130.296 261.65 130.141 261.879C129.978 262.12 129.744 262.31 129.468 262.415C129.384 262.448 129.297 262.473 129.205 262.488C129.123 262.503 129.04 262.512 128.953 262.512L69.7428 262.503C69.5051 262.503 69.2802 262.444 69.0823 262.341C68.6633 262.12 68.3641 261.699 68.3167 261.208C68.3145 261.186 68.3128 261.164 68.3121 261.144C68.311 261.118 68.3104 261.094 68.3104 261.07L68.3108 257.352C68.311 257.329 68.3115 257.303 68.3125 257.279C68.3514 256.525 68.9803 255.92 69.7437 255.92L128.953 255.929C129.04 255.929 129.124 255.937 129.207 255.953C129.297 255.968 129.385 255.992 129.468 256.027C129.744 256.131 129.978 256.321 130.141 256.562C130.296 256.792 130.388 257.066 130.388 257.362Z" fill="#FFAB3C"/>
<path d="M101.31 262.509L69.5889 262.503C69.3767 262.503 69.1767 262.444 68.9998 262.341C68.6252 262.121 68.3584 261.699 68.3167 261.209C68.3145 261.186 68.3128 261.164 68.3121 261.144C68.311 261.118 68.3104 261.095 68.3104 261.071L68.3108 257.353C68.311 257.329 68.3115 257.303 68.3125 257.279C68.3474 256.525 68.9091 255.92 69.5898 255.92L97.4161 255.924C97.8482 257.811 98.839 260.398 101.116 262.345C101.18 262.4 101.245 262.453 101.31 262.509Z" fill="#FF9D1B"/>
<path d="M123.181 262.51H122.508V255.929H123.181V262.51Z" fill="#FF9D1B"/>
<path d="M120.903 262.51H120.23V255.927H120.905L120.903 262.51Z" fill="#FF9D1B"/>
<path d="M118.171 262.51H117.498L117.5 255.927H118.173L118.171 262.51Z" fill="#FF9D1B"/>
<path d="M113.984 262.51H113.311L113.312 255.927H113.986L113.984 262.51Z" fill="#FF9D1B"/>
<path d="M109.557 262.509H108.884L108.884 255.926L109.558 255.928L109.557 262.509Z" fill="#FF9D1B"/>
<path d="M102.769 262.509H102.096L102.097 255.926H102.77L102.769 262.509Z" fill="#FF9D1B"/>
<path d="M96.4132 262.506H95.74L95.7411 255.924L96.4143 255.925L96.4132 262.506Z" fill="#FF9D1B"/>
<path d="M90.738 262.506H90.0652L90.0659 255.924H90.7389L90.738 262.506Z" fill="#FF9D1B"/>
<path d="M125.349 262.512H124.676L124.678 255.929H125.351L125.349 262.512Z" fill="#FF9D1B"/>
<path d="M126.782 262.512H126.109L126.111 255.929H126.784L126.782 262.512Z" fill="#FF9D1B"/>
<path d="M128.164 262.512H127.491L127.493 255.929H128.166L128.164 262.512Z" fill="#FF9D1B"/>
<path d="M129.207 255.953L129.205 262.488C129.124 262.503 129.04 262.512 128.953 262.512H128.532L128.534 255.929H128.955C129.04 255.929 129.124 255.937 129.207 255.953Z" fill="#FF9D1B"/>
<path d="M130.141 256.562V261.879C129.977 262.12 129.744 262.309 129.468 262.414V256.026C129.744 256.131 129.977 256.321 130.141 256.562Z" fill="#FF9D1B"/>
<path d="M192.955 282.928L192.039 283.246C188.251 275.321 182.555 269.505 177.028 264.641C171.109 259.43 159.453 253.052 144.923 254.238C138.932 254.727 134.506 255.959 132.35 256.667L131.879 255.613C159.958 243.946 176.502 256.659 185.138 268.361C190.668 275.852 192.955 282.928 192.955 282.928Z" fill="#7CBDAD"/>
<path d="M224.821 265.754L192.955 282.926C190.515 277.928 186.843 273.27 183.781 269.863C180.722 266.458 178.269 264.301 178.269 264.301C158.75 247.107 131.879 255.611 131.879 255.611L155.055 231.304C169.224 226.206 181.783 228.489 192.205 233.746C212.617 244.045 224.821 265.754 224.821 265.754Z" fill="#9ED1C5"/>
<path d="M224.821 265.754L192.955 282.926C190.515 277.928 186.843 273.27 183.781 269.863C180.722 266.458 178.269 264.301 178.269 264.301C158.75 247.107 143.731 243.181 143.731 243.181L158.458 243.46C163.947 243.565 167.534 239.978 172.118 236.955C173.164 236.265 174.218 233.507 175.134 232.853C180.393 229.089 185.633 230.431 192.205 233.746C212.617 244.045 224.821 265.754 224.821 265.754Z" fill="#7CBDAD"/>
<path d="M192.442 275.306C190.982 272.169 188.356 267.504 184.135 263.104C179.385 258.152 173.63 254.537 167.029 252.36C159.986 250.036 151.962 249.352 143.125 250.319C142.154 250.426 141.582 249.26 142.262 248.559L155.323 235.133C156.281 234.147 157.467 233.415 158.778 233C161.273 232.209 165.723 231.152 171.427 231.281C176.682 231.4 181.961 232.489 187.117 234.515C193.569 237.052 199.847 241.076 205.782 246.478C205.81 246.504 208.68 249.072 211.889 252.537C216.112 257.097 218.994 261.122 220.22 264.178L194.18 279.136C193.909 278.22 193.577 277.74 192.442 275.306ZM221.711 264.86C218.643 257.209 206.968 246.103 206.498 245.684C200.459 240.186 194.058 236.087 187.47 233.504C182.189 231.431 176.78 230.324 171.39 230.209C162.196 230.014 156.333 232.742 156.086 232.86L156 232.9L137.156 252.274L138.767 252.005C149.222 250.257 158.607 250.714 166.663 253.366C173.093 255.482 178.699 258.996 183.327 263.81C191.227 272.026 193.897 280.25 193.919 280.344L221.711 264.86Z" fill="#7CBDAD"/>
<path d="M192.471 242.773C194.636 247.61 193.108 251.801 188.27 253.965C183.43 256.128 177.114 255.445 174.95 250.606C172.788 245.768 174.172 241.677 179.012 239.513C183.85 237.348 190.307 237.933 192.471 242.773Z" fill="#7CBDAD"/>
<path d="M162.768 303.669L161.748 304C157.734 295.15 151.559 288.591 145.552 283.09C139.122 277.194 126.368 269.882 110.272 270.873C103.636 271.281 98.7127 272.546 96.3112 273.283L95.813 272.105C127.13 259.822 145.148 274.249 154.442 287.383C160.393 295.792 162.768 303.669 162.768 303.669Z" fill="#7CBDAD"/>
<path d="M198.392 285.375L162.768 303.667C160.179 298.083 156.22 292.851 152.909 289.016C149.599 285.18 146.935 282.74 146.935 282.74C125.725 263.292 95.813 272.105 95.813 272.105L121.986 245.73C137.77 240.405 151.612 243.207 163.024 249.253C185.374 261.094 198.392 285.375 198.392 285.375Z" fill="#9ED1C5"/>
<path d="M164.204 299.5L193.339 283.531C192.05 280.123 188.952 275.607 184.383 270.47C180.909 266.566 177.791 263.663 177.76 263.635C171.315 257.527 164.46 252.937 157.377 249.99C151.721 247.632 145.905 246.314 140.095 246.066C133.789 245.797 128.843 246.868 126.067 247.688C124.607 248.118 123.277 248.903 122.196 249.971L107.455 264.534C106.686 265.294 107.292 266.596 108.369 266.498C118.165 265.625 127.026 266.557 134.766 269.284C142.018 271.84 148.305 275.964 153.448 281.547C158.021 286.507 160.823 291.724 162.369 295.227C163.568 297.945 163.927 298.481 164.204 299.5ZM163.89 300.831C163.868 300.728 161.097 291.571 152.541 282.31C147.529 276.883 141.404 272.873 134.337 270.389C125.486 267.278 115.115 266.564 103.512 268.267L101.724 268.53L122.994 247.517L123.092 247.473C123.365 247.349 129.913 244.461 140.078 244.88C146.037 245.124 151.995 246.47 157.791 248.877C165.021 251.882 172.012 256.556 178.571 262.771C179.082 263.245 191.749 275.786 194.972 284.318L163.89 300.831Z" fill="#7CBDAD"/>
<path d="M163.119 259.241C165.405 264.639 163.623 269.242 158.224 271.527C152.824 273.815 145.851 272.919 143.566 267.521C141.28 262.12 142.902 257.625 148.303 255.339C153.701 253.053 160.832 253.842 163.119 259.241Z" fill="#7CBDAD"/>
<path d="M185.973 241.76C185.973 241.76 184.195 254.339 186.227 262.338H156.459C156.459 262.338 170.702 210.198 199.869 180.355C208.24 171.786 215.941 159.586 223.375 146.174C241.831 112.876 258.624 72.1107 279.899 60.9881C279.899 60.9881 237.874 122.735 229.736 158.341C221.599 193.947 192.587 192.93 185.973 241.76Z" fill="#6347D2"/>
<path d="M219.711 158.341C220.577 154.548 221.829 150.456 223.376 146.174C215.941 159.586 208.241 171.786 199.869 180.355C195.572 184.751 191.6 189.631 187.948 194.758C187.928 194.579 186.628 183.245 182.015 171.733C177.43 160.288 169.577 148.671 156.459 147.66C156.459 147.66 188.213 171.988 172.102 221.874C161.625 243.431 153.828 262.338 153.828 262.338H176.728C174.693 254.339 176.476 241.76 176.476 241.76C183.088 192.93 211.571 193.947 219.711 158.341Z" fill="#7053E4"/>
<path d="M187.948 194.761C187.948 194.761 187.906 194.836 187.829 194.967C186.996 196.357 182.207 204.203 182.636 199.376C183.107 194.097 177.166 174.196 177.166 174.196L182.014 171.732C186.665 183.337 187.948 194.761 187.948 194.761Z" fill="#6347D2"/>
<path d="M331.892 104.217L331.897 104.224L331.016 105.565C328.218 104.114 322.424 101.438 314.32 99.4379C299.629 95.8101 286.197 98.3328 276.481 102.271C273.198 103.601 270.337 105.096 267.997 106.567C259.338 112.008 250.234 118.714 243.282 128.739L242.096 128.097L209.202 102.829L202.23 97.4741C202.23 97.4741 206.898 91.6103 214.948 84.3785C224.188 76.071 237.874 65.9634 254.053 60.8406C263.383 57.8875 273.544 56.5949 284.154 58.2608C291.117 59.3585 298.277 61.7305 305.526 65.7464L331.897 104.221L331.892 104.217Z" fill="#7CBDAD"/>
<path d="M176.643 302.497L177.559 302.815C181.347 294.89 187.045 289.074 192.573 284.211C198.49 279 210.147 272.621 224.675 273.807C230.666 274.296 235.092 275.528 237.249 276.236L237.721 275.183C209.642 263.516 193.098 276.229 184.46 287.931C178.931 295.422 176.643 302.497 176.643 302.497Z" fill="#7CBDAD"/>
<path d="M144.778 285.323L176.643 302.496C179.083 297.496 182.755 292.84 185.817 289.433C188.878 286.028 191.33 283.871 191.33 283.871C210.848 266.677 237.72 275.181 237.72 275.181L214.544 250.874C200.376 245.775 187.816 248.059 177.394 253.316C156.982 263.613 144.778 285.323 144.778 285.323Z" fill="#9ED1C5"/>
<path d="M177.157 294.876C178.617 291.739 181.244 287.074 185.466 282.674C190.214 277.722 195.969 274.107 202.57 271.93C209.612 269.604 217.637 268.922 226.474 269.889C227.447 269.996 228.017 268.83 227.336 268.129L214.277 254.703C213.319 253.717 212.132 252.985 210.822 252.57C208.325 251.777 203.876 250.722 198.174 250.85C192.917 250.97 187.637 252.058 182.483 254.085C176.029 256.62 169.752 260.645 163.818 266.048C163.789 266.073 160.919 268.642 157.71 272.106C153.486 276.667 150.605 280.692 149.378 283.748L175.421 298.706C175.689 297.79 176.024 297.31 177.157 294.876ZM147.889 284.43C150.956 276.779 162.63 265.673 163.101 265.253C169.14 259.755 175.542 255.657 182.13 253.073C187.409 251.001 192.821 249.892 198.209 249.778C207.402 249.583 213.266 252.312 213.512 252.43L213.599 252.47L232.442 271.843L230.832 271.575C220.377 269.825 210.992 270.284 202.936 272.936C196.506 275.052 190.899 278.566 186.271 283.38C178.372 291.595 175.704 299.82 175.68 299.912L147.889 284.43Z" fill="#7CBDAD"/>
<path d="M177.127 262.341C174.965 267.181 176.491 271.371 181.329 273.533C186.168 275.698 192.484 275.014 194.649 270.176C196.811 265.338 195.426 261.247 190.589 259.083C185.749 256.918 179.291 257.503 177.127 262.341Z" fill="#7CBDAD"/>
<path d="M250.085 296.705L249.169 297.023C245.382 289.098 239.683 283.282 234.156 278.419C228.239 273.208 216.581 266.829 202.051 268.015C196.062 268.504 191.637 269.736 189.48 270.444L189.007 269.391C217.087 257.724 233.63 270.437 242.267 282.139C247.796 289.63 250.085 296.705 250.085 296.705Z" fill="#7CBDAD"/>
<path d="M281.949 279.531L250.085 296.703C247.643 291.704 243.971 287.048 240.912 283.641C237.85 280.236 235.399 278.079 235.399 278.079C215.881 260.884 189.009 269.389 189.009 269.389L212.185 245.082C226.352 239.983 238.913 242.267 249.335 247.524C269.745 257.823 281.949 279.531 281.949 279.531Z" fill="#9ED1C5"/>
<path d="M249.572 289.084C248.112 285.947 245.485 281.282 241.263 276.882C236.513 271.93 230.76 268.315 224.159 266.138C217.114 263.812 209.092 263.13 200.253 264.097C199.282 264.204 198.71 263.038 199.392 262.337L212.451 248.911C213.409 247.925 214.595 247.193 215.906 246.778C218.402 245.985 222.851 244.93 228.555 245.059C233.81 245.178 239.089 246.267 244.245 248.293C250.697 250.83 256.977 254.854 262.91 260.256C262.94 260.282 265.81 262.85 269.019 266.315C273.242 270.875 276.124 274.9 277.348 277.956L251.308 292.914C251.038 291.998 250.705 291.519 249.572 289.084ZM278.84 278.638C275.771 270.987 264.098 259.881 263.628 259.462C257.589 253.964 251.187 249.865 244.598 247.282C239.317 245.209 233.908 244.102 228.518 243.987C219.325 243.792 213.461 246.52 213.216 246.638L213.128 246.679L194.286 266.052L195.897 265.783C206.35 264.035 215.737 264.492 223.793 267.144C230.223 269.26 235.829 272.774 240.457 277.588C248.357 285.804 251.025 294.028 251.049 294.12L278.84 278.638Z" fill="#7CBDAD"/>
<path d="M249.6 256.551C251.764 261.388 250.238 265.579 245.398 267.741C240.56 269.906 234.242 269.222 232.08 264.384C229.916 259.546 231.302 255.455 236.14 253.291C240.978 251.126 247.437 251.711 249.6 256.551Z" fill="#7CBDAD"/>
<path d="M276.48 102.271C273.198 103.601 270.337 105.096 267.996 106.567C259.338 112.008 250.234 118.714 243.282 128.739L242.096 128.097L209.202 102.829C210.886 96.0693 212.821 89.9205 214.948 84.3785C224.188 76.071 237.874 65.9634 254.053 60.8406C263.383 57.8875 273.544 56.5949 284.154 58.2608C284.51 58.4925 284.7 58.6212 284.7 58.6212C284.7 58.6212 268.155 78.7207 276.48 102.271Z" fill="#679A8D"/>
<path d="M233.904 92.5117L183.958 98.2229L182.614 98.1622C182.318 93.626 181.529 89.3325 180.411 85.256C178.537 78.3956 175.746 72.153 172.848 66.4289C171.083 62.9408 168.448 58.8808 164.914 54.8337C158.548 47.5449 149.251 40.291 136.812 36.459C128.838 34.0006 122.496 33.3056 119.35 33.107L119.281 31.5036H119.285L161.705 12.1102C169.663 12.3897 176.763 13.9232 183.103 16.3945C193.418 20.4104 201.707 26.8883 208.353 34.418C218.056 45.4101 224.245 58.6363 228.097 69.6946C232.589 82.5788 233.904 92.5117 233.904 92.5117Z" fill="#7CBDAD"/>
<path d="M228.097 69.6946C227.379 78.9711 222.653 86.5394 212.898 89.3013C202.235 92.3187 190.462 89.9228 180.411 85.256C178.537 78.3956 175.746 72.153 172.848 66.4289C171.083 62.9408 168.448 58.8809 164.914 54.8338C186.996 49.6705 183.103 16.3945 183.103 16.3945C193.418 20.4104 201.708 26.8883 208.353 34.418C218.056 45.4101 224.245 58.6363 228.097 69.6946Z" fill="#679A8D"/>
<path d="M169.344 63.9592C169.344 63.9592 168.441 54.497 150.754 58.3216C150.754 58.3216 157.737 66.8718 169.344 63.9592Z" fill="#7CBDAD"/>
<path d="M305.772 155.421L305.783 155.428L279.41 116.954C261.12 106.817 243.394 107.155 227.939 112.048C197.668 121.63 176.114 148.68 176.114 148.68L215.982 179.303V179.304L217.166 179.944C224.12 169.921 233.224 163.215 241.883 157.774C251.154 151.946 268.55 145.791 288.205 150.646C296.31 152.646 302.104 155.32 304.902 156.77L305.783 155.428L305.772 155.421Z" fill="#7CBDAD"/>
<path d="M111.289 112.212L111.279 112.217L137.651 73.7433C155.941 63.6063 173.667 63.9464 189.123 68.8375C219.395 78.4193 240.948 105.469 240.948 105.469L201.079 136.094H201.081L199.895 136.734C192.94 126.711 183.839 120.005 175.18 114.564C165.909 108.735 148.51 102.581 128.856 107.435C120.753 109.437 114.959 112.109 112.159 113.56L111.278 112.219L111.289 112.212Z" fill="#679A8D"/>
<path d="M197.261 92.0648L196.07 91.4378C200.501 80.0724 200.979 68.7751 200.658 58.5553C200.314 47.6092 195.704 29.7401 180.7 16.148C174.514 10.5435 169.06 7.23006 166.293 5.71861L166.915 4.23841C205.409 21.6036 208.242 50.4409 204.594 70.3068C202.257 83.0237 197.261 92.0648 197.261 92.0648Z" fill="#7CBDAD"/>
<path d="M244.931 108.032L197.263 92.0626C200.01 84.84 201.239 76.6961 201.783 70.3598C202.325 64.0234 202.182 59.4909 202.182 59.4909C201.058 23.3832 166.916 4.23623 166.916 4.23623L213.558 4.62603C232.183 14.1379 241.802 29.03 246.375 44.5841C255.331 75.0449 244.931 108.032 244.931 108.032Z" fill="#9ED1C5"/>
<path d="M202.265 89.7019L242.158 101.874C244.089 97.7281 245.431 90.9854 246.038 82.3763C246.5 75.834 246.375 70.4869 246.373 70.4336C246.209 59.2889 244.321 49.1058 240.763 40.1585C237.918 33.0094 234.005 26.6289 229.134 21.1898C223.846 15.2892 218.549 11.7846 215.377 10.0083C213.711 9.07609 211.841 8.56859 209.932 8.53365L183.925 8.05741C182.568 8.0335 181.93 9.71964 182.96 10.6041C192.335 18.6376 199.266 27.4159 203.601 36.7586C207.665 45.5166 209.469 54.7802 208.965 64.2958C208.516 72.7523 206.288 79.8443 204.497 84.3052C203.107 87.7657 202.938 88.5582 202.265 89.7019ZM200.796 90.5845C200.867 90.4742 206.665 79.9565 207.483 64.1487C207.963 54.8887 206.198 45.8696 202.233 37.3452C197.269 26.6638 188.816 16.7198 177.114 7.78896L175.31 6.41357L212.838 7.09942L212.963 7.14907C213.314 7.28698 221.649 10.6354 230.184 20.1362C235.188 25.704 239.205 32.2371 242.122 39.5553C245.762 48.6848 247.693 59.0627 247.86 70.4042C247.881 71.2794 247.719 93.6553 242.883 104.033L200.796 90.5845Z" fill="#7CBDAD"/>
<path d="M227.998 36.6941C221.211 33.8477 215.748 36.3319 212.902 43.1188C210.055 49.9075 215.366 56.9554 222.153 59.8018C228.941 62.65 234.638 60.2155 237.484 53.4268C240.33 46.6381 234.787 39.5405 227.998 36.6941Z" fill="#7CBDAD"/>
<path d="M172.471 142.86L171.19 143.276C166.15 132.166 158.401 123.934 150.861 117.026C142.787 109.627 126.778 100.446 106.571 101.691C98.2397 102.204 92.0599 103.792 89.0454 104.715L88.4195 103.239C127.733 87.8171 150.351 105.929 162.02 122.415C169.489 132.971 172.471 142.86 172.471 142.86Z" fill="#7CBDAD"/>
<path d="M217.192 119.896L172.469 142.859C169.22 135.847 164.25 129.281 160.095 124.466C155.939 119.65 152.594 116.588 152.594 116.588C125.969 92.1733 88.42 103.237 88.42 103.237L121.277 70.1266C141.089 63.4427 158.467 66.9603 172.791 74.5488C200.849 89.4133 217.192 119.896 217.192 119.896Z" fill="#9ED1C5"/>
<path d="M174.275 137.629L210.848 117.581C209.23 113.302 205.341 107.633 199.604 101.185C195.244 96.2847 191.33 92.6402 191.291 92.6035C183.201 84.9377 174.593 79.1769 165.705 75.4754C158.602 72.5169 151.304 70.8602 144.007 70.5494C136.092 70.2111 129.884 71.5552 126.398 72.5849C124.566 73.1255 122.898 74.1092 121.54 75.4515L103.034 93.7325C102.069 94.6868 102.831 96.3214 104.182 96.2001C116.481 95.1023 127.602 96.2736 137.318 99.6956C146.424 102.904 154.314 108.082 160.771 115.09C166.51 121.318 170.029 127.865 171.969 132.264C173.475 135.675 173.926 136.349 174.275 137.629ZM173.88 139.299C173.85 139.168 170.373 127.674 159.631 116.048C153.339 109.235 145.651 104.201 136.781 101.084C125.669 97.1783 112.65 96.281 98.0846 98.4195L95.8408 98.7486L122.542 72.3716L122.665 72.3165C123.009 72.162 131.226 68.5341 143.987 69.06C151.467 69.3689 158.947 71.0569 166.223 74.0798C175.299 77.8511 184.076 83.7186 192.308 91.5204C192.95 92.1162 208.851 107.86 212.898 118.569L173.88 139.299Z" fill="#7CBDAD"/>
<path d="M172.911 87.089C170.04 80.3113 161.089 79.3202 154.312 82.1905C147.534 85.0608 145.497 90.704 148.365 97.4816C151.235 104.259 159.988 105.383 166.765 102.512C173.545 99.644 175.781 93.8666 172.911 87.089Z" fill="#7CBDAD"/>
<path d="M246.654 108.02L247.998 108.097C250.056 96.0713 255.462 86.142 261.004 77.5477C266.936 68.3429 280.092 55.4017 299.954 51.4796C308.142 49.8615 314.525 49.8303 317.674 49.959L317.904 48.3721C275.964 43.4277 258.681 66.6861 251.577 85.5922C247.029 97.6986 246.654 108.02 246.654 108.02Z" fill="#7CBDAD"/>
<path d="M197.57 97.1525L246.654 108.018C248.02 100.413 251.161 92.7983 253.958 87.0871C256.756 81.3759 259.215 77.5642 259.215 77.5642C278.775 47.1953 317.904 48.3702 317.904 48.3702L277.724 24.6797C256.861 23.2381 240.945 31.0491 229.015 42.0247C205.646 63.5198 197.57 97.1525 197.57 97.1525Z" fill="#9ED1C5"/>
<path d="M244.449 97.6416C245.213 92.8957 246.954 85.6694 250.926 78.1894C255.394 69.7734 261.714 62.7622 269.707 57.3489C278.237 51.5734 288.697 47.62 300.872 45.5625C302.21 45.3363 302.532 43.5619 301.357 42.8834L278.82 29.8962C277.165 28.9419 275.302 28.4142 273.393 28.3554C269.758 28.2432 263.413 28.519 255.842 30.8542C248.864 33.0056 242.225 36.4588 236.105 41.1219C228.445 46.9581 221.581 54.714 215.701 64.1817C215.673 64.2259 212.81 68.7455 209.837 74.5909C205.922 82.2843 203.6 88.7549 203.12 93.3021L243.582 103.415C243.596 102.09 243.859 101.323 244.449 97.6416ZM201.386 94.7786C202.585 83.3931 213.972 64.1302 214.441 63.3911C220.426 53.756 227.426 45.853 235.248 39.9046C241.519 35.1349 248.327 31.6045 255.484 29.4071C267.693 25.6616 276.563 27.0848 276.935 27.1473L277.067 27.1694L309.587 45.9118L307.333 46.1619C292.702 47.7892 280.335 51.9577 270.578 58.5551C262.789 63.8213 256.629 70.6413 252.272 78.8256C244.832 92.7983 244.383 104.798 244.387 104.93L201.386 94.7786Z" fill="#7CBDAD"/>
<path d="M248.828 44.7277C241.544 43.6704 233.136 46.8992 232.08 54.1844C231.023 61.4677 234.653 66.4893 241.936 67.5448C249.221 68.6021 257.402 65.2942 258.459 58.0108C259.514 50.7257 256.113 45.7849 248.828 44.7277Z" fill="#7CBDAD"/>
<path d="M200.301 93.1368C204.714 74.9662 223.022 63.8159 241.191 68.229C259.362 72.6438 270.512 90.9505 266.099 109.121C261.684 127.29 243.377 138.44 225.207 134.027C207.038 129.612 195.886 111.306 200.301 93.1368Z" fill="#E24F0C"/>
<path d="M197.431 92.4379C201.846 74.2691 220.152 63.1189 238.321 67.5319C256.492 71.9468 267.642 90.2535 263.229 108.422C258.814 126.593 240.507 137.743 222.339 133.33C204.168 128.915 193.018 110.609 197.431 92.4379Z" fill="#FFAB3C"/>
<path d="M230.182 71.8015C224.924 71.8015 219.751 73.2431 215.147 76.0472C208.529 80.0778 203.877 86.4436 202.05 93.9733C200.22 101.501 201.432 109.292 205.462 115.908C209.493 122.526 215.859 127.178 223.388 129.005C230.918 130.835 238.707 129.621 245.325 125.593C251.941 121.562 256.593 115.194 258.42 107.667C262.197 92.1253 252.625 76.4095 237.082 72.6345C234.792 72.0774 232.479 71.8015 230.182 71.8015ZM230.291 131.677C227.849 131.677 225.389 131.385 222.954 130.794C214.947 128.849 208.176 123.903 203.892 116.866C199.606 109.829 198.317 101.545 200.26 93.5375C202.206 85.5316 207.152 78.7612 214.189 74.4751C221.226 70.189 229.51 68.9018 237.517 70.8454C254.044 74.8612 264.225 91.5737 260.209 108.1C258.264 116.108 253.318 122.877 246.281 127.163C241.384 130.145 235.883 131.677 230.291 131.677Z" fill="#FF9D1B"/>
<path d="M232.248 110.522C232.483 109.893 232.599 109.308 232.601 108.764C232.601 108.22 232.474 107.677 232.216 107.14C231.959 106.602 231.573 106.05 231.06 105.484C230.547 104.919 229.89 104.309 229.089 103.652C227.719 102.512 226.501 101.4 225.441 100.315C224.378 99.23 223.536 98.1212 222.914 96.9885C222.291 95.854 221.925 94.6625 221.813 93.4121C221.7 92.1618 221.917 90.8048 222.464 89.3393C222.936 88.0687 223.593 86.9949 224.433 86.116C225.273 85.2389 226.257 84.5659 227.382 84.0988C228.509 83.6336 229.745 83.3762 231.093 83.3247C232.441 83.2733 233.864 83.4498 235.362 83.8543L237.148 79.0551L241.009 80.493L239.198 85.3584C240.515 86.0534 241.634 86.8864 242.554 87.8591C243.475 88.8318 244.165 89.9056 244.626 91.0806C245.086 92.2574 245.305 93.5262 245.283 94.8868C245.26 96.2494 244.972 97.6781 244.416 99.173L237.44 96.5748C238.108 94.782 238.209 93.2926 237.744 92.1066C237.278 90.9206 236.377 90.0785 235.043 89.582C234.318 89.3117 233.658 89.1812 233.06 89.1885C232.461 89.1941 231.928 89.3117 231.459 89.5361C230.99 89.7622 230.587 90.084 230.249 90.5033C229.909 90.9206 229.637 91.4061 229.431 91.9595C229.225 92.513 229.118 93.0426 229.113 93.5519C229.107 94.0594 229.23 94.5779 229.482 95.1057C229.734 95.6334 230.124 96.1868 230.65 96.7661C231.176 97.3453 231.856 97.9943 232.687 98.7115C234.031 99.8754 235.228 101.003 236.28 102.091C237.332 103.181 238.167 104.296 238.786 105.438C239.406 106.578 239.772 107.775 239.882 109.023C239.994 110.274 239.779 111.623 239.24 113.074C238.751 114.389 238.082 115.485 237.234 116.36C236.385 117.235 235.401 117.899 234.281 118.349C233.16 118.8 231.922 119.037 230.567 119.061C229.212 119.083 227.785 118.892 226.286 118.487L224.626 122.95L220.788 121.521L222.441 117.081C221.154 116.45 219.972 115.678 218.893 114.766C217.811 113.852 216.947 112.794 216.296 111.59C215.645 110.386 215.269 109.034 215.167 107.532C215.068 106.032 215.351 104.384 216.019 102.589L222.995 105.188C222.6 106.249 222.418 107.19 222.451 108.01C222.484 108.83 222.671 109.547 223.012 110.16C223.352 110.77 223.808 111.281 224.38 111.689C224.951 112.098 225.567 112.425 226.227 112.669C226.983 112.951 227.682 113.102 228.326 113.12C228.969 113.138 229.548 113.048 230.063 112.848C230.578 112.647 231.019 112.348 231.387 111.949C231.755 111.55 232.042 111.075 232.248 110.522Z" fill="#FF9D1B"/>
<path d="M200.042 109.557L215.086 162.848L88.0133 198.725L72.968 145.434L200.042 109.557Z" fill="#9ED1C5"/>
<path d="M201.877 151.317C202.897 154.932 200.797 158.685 197.18 159.705L100.545 186.989C97.3103 187.902 93.9485 186.021 93.035 182.785L85.4182 155.809C84.4122 152.243 86.4834 148.544 90.0472 147.536L186.323 120.356C189.805 119.372 193.429 121.4 194.413 124.885L201.877 151.317ZM81.5411 148.207L93.5379 190.699L205.778 159.01L193.782 116.518L81.5411 148.207Z" fill="#7CBDAD"/>
<path d="M157.088 149.816C155.027 142.511 147.431 138.259 140.126 140.323C132.82 142.386 128.569 149.98 130.632 157.287C132.695 164.592 140.289 168.842 147.595 166.78C154.902 164.717 159.151 157.123 157.088 149.816Z" fill="#7CBDAD"/>
<path d="M115.736 190.898H173.665V174.542H115.736V190.898Z" fill="#9ECBC0"/>
<path d="M173.664 174.542L180.01 172.751L173.664 174.542Z" fill="#71B4A2"/>
<path d="M182.176 172.139L200.076 167.086L182.176 172.139Z" fill="#9ECBC0"/>
<path d="M180.01 172.751L182.176 172.139L180.01 172.751Z" fill="#68A796"/>
<path d="M173.584 117.028L197.898 110.164L173.584 117.028Z" fill="#699D90"/>
<path d="M115.736 190.898C118.513 189.157 134.966 183.414 149.47 174.908L205.778 159.01L193.782 116.519L174.99 121.823C174.249 119.198 173.516 117.594 173.584 117.028L197.898 110.164L200.042 109.557L215.086 162.848L200.076 167.086L182.176 172.139L180.01 172.751L173.665 174.542L115.736 190.898ZM154.567 171.736C161.976 166.831 168.284 161.173 171.09 154.954C177.752 140.185 176.884 129.645 175.41 123.436L186.323 120.356C186.917 120.189 187.516 120.108 188.106 120.108C190.967 120.108 193.597 121.996 194.413 124.885L201.877 151.317C202.897 154.932 200.797 158.685 197.18 159.705L154.567 171.736Z" fill="#699D90"/>
<path d="M149.47 174.908C151.206 173.889 152.914 172.832 154.567 171.736L197.18 159.705C200.797 158.685 202.897 154.932 201.876 151.317L194.413 124.885C193.597 121.996 190.967 120.108 188.106 120.108C187.516 120.108 186.916 120.189 186.322 120.356L175.409 123.436C175.273 122.862 175.132 122.325 174.99 121.823L193.782 116.518L205.778 159.01L149.47 174.908Z" fill="#7CBDAD"/>
<path d="M347.789 124.502L348.032 179.874L215.993 180.452L215.75 125.079L347.789 124.502Z" fill="#9ED1C5"/>
<path d="M338.388 165.231C338.404 168.987 335.376 172.041 331.619 172.058L231.207 172.497C227.845 172.512 225.109 169.8 225.094 166.439L224.971 138.405C224.957 134.704 227.943 131.69 231.644 131.675L331.682 131.238C335.302 131.221 338.252 134.145 338.266 137.765L338.388 165.231ZM223.27 130.044L223.463 174.196L340.09 173.687L339.897 129.535L223.27 130.044Z" fill="#7CBDAD"/>
<path d="M281.828 138.12C274.237 138.153 268.11 144.333 268.144 151.926C268.177 159.518 274.357 165.645 281.949 165.611C289.539 165.578 295.666 159.396 295.633 151.806C295.6 144.214 289.42 138.087 281.828 138.12Z" fill="#7CBDAD"/>
<path d="M339.018 179.915L348.032 179.874L339.018 179.915Z" fill="#ACD7CC"/>
<path d="M244.799 180.327C244.8 180.327 244.8 180.327 244.8 180.327L339.018 179.915L244.799 180.327Z" fill="#9ECBC0"/>
<path d="M244.8 180.327C247.943 179.393 265.332 178.26 281.583 173.943L340.09 173.687L339.897 129.535L320.372 129.621C320.359 126.891 320.081 125.149 320.298 124.622L347.789 124.502L348.032 179.875L339.018 179.915L244.8 180.327ZM287.342 172.251C295.791 169.506 303.385 165.742 307.75 160.5C318.121 148.051 320.103 137.664 320.344 131.287L331.682 131.238C331.693 131.238 331.702 131.238 331.711 131.238C335.319 131.238 338.252 134.156 338.266 137.765L338.388 165.231C338.404 168.987 335.376 172.041 331.619 172.058L287.342 172.251Z" fill="#699D90"/>
<path d="M281.583 173.943C283.528 173.426 285.455 172.865 287.342 172.251L331.619 172.058C335.376 172.041 338.404 168.987 338.388 165.231L338.266 137.765C338.252 134.156 335.319 131.238 331.711 131.238C331.702 131.238 331.693 131.238 331.682 131.238L320.344 131.287C320.366 130.697 320.373 130.142 320.372 129.621L339.897 129.535L340.09 173.687L281.583 173.943Z" fill="#7CBDAD"/>
<path d="M267.419 164.582C258.393 148.207 237.8 142.25 221.426 151.276C205.05 160.305 199.094 180.895 208.121 197.271C217.147 213.645 237.74 219.601 254.114 210.574C270.488 201.548 276.445 180.956 267.419 164.582Z" fill="#E24F0C"/>
<path d="M264.832 166.008C255.806 149.632 235.213 143.677 218.839 152.703C202.465 161.73 196.507 182.322 205.534 198.696C214.56 215.07 235.153 221.028 251.527 212.001C267.903 202.975 273.858 182.382 264.832 166.008Z" fill="#FFAB3C"/>
<path d="M235.335 153.683C230.502 153.683 225.723 154.902 221.373 157.3C207.367 165.021 202.254 182.699 209.974 196.705C213.715 203.49 219.874 208.412 227.316 210.565C234.759 212.718 242.594 211.845 249.379 208.105C263.387 200.382 268.5 182.706 260.779 168.699C257.037 161.915 250.879 156.991 243.436 154.838C240.764 154.066 238.041 153.683 235.335 153.683ZM235.421 213.562C232.542 213.562 229.647 213.156 226.805 212.332C218.891 210.043 212.341 204.81 208.364 197.595C204.385 190.377 203.456 182.046 205.745 174.13C208.035 166.216 213.27 159.667 220.485 155.689C227.7 151.71 236.033 150.782 243.947 153.071C251.863 155.36 258.413 160.595 262.39 167.81C270.6 182.706 265.163 201.504 250.267 209.716C245.643 212.264 240.559 213.562 235.421 213.562Z" fill="#FF9D1B"/>
<path d="M243.418 188.493C243.166 187.871 242.855 187.36 242.489 186.959C242.122 186.556 241.662 186.244 241.108 186.021C240.553 185.799 239.897 185.654 239.137 185.582C238.376 185.514 237.481 185.507 236.447 185.565C234.665 185.652 233.016 185.654 231.501 185.571C229.986 185.49 228.616 185.242 227.391 184.826C226.167 184.411 225.089 183.782 224.162 182.936C223.236 182.09 222.478 180.943 221.89 179.494C221.38 178.238 221.138 177.002 221.163 175.787C221.189 174.571 221.459 173.411 221.974 172.308C222.489 171.203 223.226 170.177 224.184 169.228C225.142 168.279 226.312 167.448 227.689 166.733L225.762 161.989L229.581 160.439L231.534 165.249C232.974 164.872 234.362 164.73 235.697 164.824C237.032 164.92 238.268 165.243 239.402 165.799C240.535 166.356 241.553 167.141 242.458 168.16C243.363 169.178 244.115 170.427 244.716 171.905L237.819 174.704C237.098 172.931 236.166 171.765 235.022 171.205C233.878 170.646 232.645 170.635 231.324 171.17C230.609 171.46 230.032 171.811 229.598 172.22C229.16 172.63 228.846 173.077 228.653 173.558C228.46 174.042 228.381 174.551 228.414 175.09C228.447 175.627 228.574 176.169 228.796 176.715C229.017 177.263 229.298 177.725 229.636 178.104C229.977 178.482 230.416 178.782 230.96 179.001C231.503 179.22 232.163 179.363 232.942 179.435C233.722 179.505 234.662 179.525 235.759 179.492C237.536 179.44 239.181 179.463 240.691 179.554C242.202 179.646 243.572 179.904 244.799 180.327C246.027 180.75 247.105 181.384 248.031 182.228C248.96 183.076 249.714 184.214 250.295 185.648C250.824 186.948 251.073 188.208 251.038 189.427C251.005 190.646 250.727 191.799 250.207 192.889C249.684 193.978 248.932 194.989 247.949 195.923C246.967 196.855 245.784 197.679 244.407 198.393L246.198 202.804L242.405 204.345L240.623 199.955C239.248 200.36 237.854 200.59 236.442 200.647C235.028 200.704 233.676 200.509 232.382 200.062C231.087 199.613 229.897 198.871 228.807 197.832C227.72 196.795 226.816 195.388 226.095 193.615L232.99 190.815C233.417 191.865 233.921 192.681 234.5 193.262C235.079 193.845 235.701 194.246 236.364 194.469C237.028 194.689 237.709 194.757 238.407 194.671C239.104 194.586 239.779 194.412 240.432 194.147C241.178 193.842 241.796 193.481 242.283 193.058C242.771 192.637 243.135 192.179 243.379 191.685C243.624 191.19 243.745 190.67 243.747 190.127C243.749 189.583 243.64 189.039 243.418 188.493Z" fill="#FF9D1B"/>
<path d="M202.926 133.474C201.717 119.477 189.388 109.112 175.391 110.322C161.393 111.533 151.029 123.862 152.239 137.859C153.451 151.856 165.78 162.221 179.777 161.009C193.773 159.799 204.138 147.47 202.926 133.474Z" fill="#E24F0C"/>
<path d="M200.716 133.665C199.505 119.668 187.176 109.303 173.179 110.513C159.182 111.725 148.817 124.054 150.029 138.05C151.241 152.047 163.568 162.412 177.566 161.2C191.563 159.99 201.928 147.661 200.716 133.665Z" fill="#FFAB3C"/>
<path d="M153.685 138.036C154.722 150.01 165.307 158.909 177.278 157.87C189.25 156.835 198.148 146.251 197.112 134.277C196.61 128.478 193.88 123.221 189.424 119.475C184.967 115.728 179.317 113.942 173.519 114.444C161.547 115.48 152.649 126.064 153.685 138.036ZM175.382 159.336C163.496 159.336 153.352 150.212 152.307 138.155C151.206 125.424 160.668 114.169 173.4 113.065C179.569 112.532 185.574 114.433 190.313 118.416C195.051 122.401 197.956 127.991 198.49 134.16C199.591 146.891 190.129 158.146 177.397 159.248C176.72 159.306 176.047 159.336 175.382 159.336Z" fill="#FF9D1B"/>
<path d="M179.157 142.583C179.173 142.081 179.116 141.636 178.986 141.248C178.857 140.86 178.636 140.505 178.324 140.183C178.011 139.861 177.605 139.562 177.103 139.28C176.603 139.001 175.989 138.723 175.261 138.449C174.012 137.966 172.879 137.465 171.863 136.947C170.846 136.428 169.981 135.842 169.266 135.184C168.551 134.525 168.005 133.764 167.626 132.902C167.245 132.037 167.074 131.019 167.113 129.844C167.144 128.827 167.356 127.904 167.742 127.076C168.13 126.251 168.669 125.536 169.36 124.934C170.049 124.333 170.868 123.853 171.817 123.493C172.764 123.132 173.819 122.917 174.983 122.847L175.106 119.002L178.201 119.1L178.076 122.998C179.181 123.178 180.177 123.504 181.065 123.976C181.954 124.447 182.702 125.046 183.312 125.773C183.921 126.501 184.383 127.35 184.693 128.327C185.004 129.301 185.14 130.388 185.102 131.585L179.512 131.409C179.558 129.971 179.273 128.886 178.659 128.152C178.043 127.42 177.199 127.036 176.128 127.001C175.549 126.983 175.045 127.049 174.622 127.198C174.198 127.345 173.847 127.556 173.565 127.829C173.286 128.102 173.076 128.428 172.935 128.807C172.793 129.186 172.716 129.597 172.701 130.041C172.688 130.484 172.74 130.886 172.857 131.25C172.975 131.615 173.186 131.953 173.493 132.269C173.799 132.584 174.209 132.885 174.722 133.17C175.237 133.457 175.875 133.757 176.64 134.069C177.875 134.575 178.999 135.092 180.008 135.614C181.018 136.138 181.88 136.732 182.594 137.396C183.309 138.061 183.855 138.824 184.236 139.687C184.614 140.551 184.785 141.564 184.749 142.726C184.715 143.78 184.5 144.721 184.107 145.547C183.713 146.374 183.171 147.082 182.481 147.671C181.79 148.261 180.966 148.726 180.006 149.068C179.047 149.408 177.986 149.614 176.822 149.686L176.708 153.26L173.631 153.163L173.745 149.605C172.677 149.465 171.651 149.197 170.664 148.807C169.674 148.415 168.805 147.869 168.053 147.169C167.301 146.466 166.708 145.593 166.276 144.548C165.846 143.504 165.653 142.263 165.699 140.825L171.289 141.003C171.261 141.853 171.359 142.566 171.579 143.144C171.798 143.719 172.103 144.186 172.493 144.539C172.881 144.894 173.328 145.148 173.834 145.3C174.337 145.455 174.854 145.541 175.384 145.558C175.991 145.576 176.524 145.516 176.987 145.374C177.449 145.234 177.84 145.03 178.158 144.763C178.477 144.499 178.719 144.179 178.887 143.807C179.052 143.434 179.144 143.028 179.157 142.583Z" fill="#FF9D1B"/>
<path d="M195.498 65.0773C191.721 58.7814 183.553 56.7404 177.258 60.5172C170.962 64.294 168.919 72.4617 172.697 78.7576C176.474 85.0535 184.64 87.0964 190.938 83.3178C197.234 79.5409 199.275 71.375 195.498 65.0773Z" fill="#E24F0C"/>
<path d="M194.503 65.6748C190.726 59.3789 182.559 57.336 176.263 61.1128C169.967 64.8915 167.924 73.0574 171.703 79.3551C175.479 85.651 183.645 87.6921 189.943 83.9153C196.239 80.1366 198.282 71.9707 194.503 65.6748Z" fill="#FFAB3C"/>
<path d="M173.416 78.5095C176.647 83.8952 183.658 85.6475 189.044 82.4168C191.653 80.852 193.496 78.3642 194.235 75.413C194.972 72.46 194.516 69.3984 192.951 66.7892C189.721 61.4035 182.709 59.6512 177.324 62.8819C171.938 66.1126 170.186 73.1237 173.416 78.5095ZM183.204 84.7594C179.085 84.7594 175.066 82.6614 172.797 78.8809C169.36 73.1532 171.225 65.6988 176.952 62.2622C182.68 58.8256 190.134 60.6901 193.571 66.4178C195.235 69.1925 195.72 72.4489 194.935 75.5877C194.15 78.7264 192.19 81.3724 189.415 83.0365C187.47 84.2041 185.324 84.7594 183.204 84.7594Z" fill="#FF9D1B"/>
<path d="M186.422 74.8058C186.315 74.5649 186.186 74.37 186.036 74.2174C185.887 74.0648 185.701 73.9489 185.48 73.8699C185.26 73.789 185 73.7412 184.701 73.7246C184.401 73.7081 184.05 73.7191 183.645 73.7577C182.947 73.8165 182.299 73.8404 181.704 73.8313C181.108 73.8202 180.567 73.743 180.08 73.5977C179.593 73.4525 179.162 73.2189 178.785 72.9008C178.41 72.5827 178.096 72.1433 177.844 71.5825C177.627 71.0989 177.513 70.6171 177.506 70.139C177.498 69.661 177.588 69.2031 177.774 68.7618C177.962 68.3205 178.236 67.9086 178.598 67.5225C178.96 67.1363 179.407 66.7925 179.936 66.4928L179.113 64.6577L180.589 63.9957L181.424 65.8547C181.985 65.6856 182.527 65.6102 183.053 65.6285C183.577 65.6469 184.068 65.7554 184.52 65.9577C184.973 66.16 185.385 66.4542 185.754 66.8403C186.124 67.2264 186.436 67.7064 186.694 68.2782L184.028 69.4752C183.719 68.7894 183.336 68.3444 182.88 68.1421C182.422 67.9399 181.939 67.9509 181.428 68.1808C181.152 68.3058 180.929 68.4511 180.764 68.6184C180.6 68.7857 180.483 68.9659 180.415 69.1571C180.345 69.3502 180.321 69.5506 180.341 69.7621C180.361 69.9717 180.42 70.1832 180.516 70.3946C180.609 70.6061 180.727 70.7826 180.865 70.926C181.003 71.0713 181.181 71.1816 181.396 71.2588C181.613 71.3379 181.875 71.3857 182.182 71.4004C182.489 71.4188 182.858 71.4114 183.289 71.3839C183.984 71.3379 184.631 71.3232 185.225 71.3379C185.819 71.3526 186.359 71.4335 186.847 71.5806C187.336 71.7295 187.768 71.9631 188.143 72.2812C188.52 72.5993 188.832 73.0369 189.081 73.5904C189.307 74.0942 189.423 74.5851 189.426 75.0632C189.43 75.5413 189.338 75.9992 189.149 76.4331C188.961 76.8689 188.68 77.2771 188.307 77.6559C187.935 78.0365 187.483 78.3767 186.953 78.6764L187.72 80.3827L186.253 81.041L185.49 79.3438C184.956 79.5222 184.412 79.6325 183.859 79.6767C183.305 79.7189 182.772 79.662 182.257 79.5038C181.744 79.3475 181.266 79.0736 180.823 78.6801C180.381 78.2884 180.006 77.7496 179.697 77.0656L182.364 75.8668C182.546 76.2731 182.755 76.5857 182.991 76.8064C183.226 77.0252 183.476 77.1741 183.741 77.2513C184.004 77.3286 184.272 77.3451 184.544 77.3028C184.817 77.2587 185.079 77.1815 185.331 77.0675C185.62 76.9369 185.857 76.7861 186.043 76.6133C186.227 76.4423 186.365 76.2566 186.453 76.058C186.541 75.8612 186.582 75.6553 186.574 75.442C186.569 75.2287 186.517 75.0173 186.422 74.8058Z" fill="#FF9D1B"/>
<path d="M243.416 18.2109C236.309 16.3703 229.053 20.6399 227.213 27.7485C225.372 34.8553 229.642 42.111 236.748 43.9516C243.857 45.7922 251.111 41.5226 252.953 34.4158C254.794 27.3072 250.524 20.0533 243.416 18.2109Z" fill="#E24F0C"/>
<path d="M242.294 17.9203C235.186 16.0797 227.932 20.3493 226.089 27.4561C224.249 34.5648 228.518 41.8205 235.627 43.6611C242.734 45.5017 249.989 41.2321 251.83 34.1253C253.671 27.0167 249.401 19.7609 242.294 17.9203Z" fill="#FFAB3C"/>
<path d="M238.902 19.5478C236.896 19.5478 234.917 20.0828 233.143 21.1254C230.521 22.67 228.658 25.1413 227.895 28.087C227.132 31.0326 227.56 34.0979 229.105 36.7199C230.648 39.342 233.119 41.2065 236.065 41.9696C237.019 42.216 237.977 42.3355 238.918 42.3355C243.984 42.3355 248.62 38.9246 249.947 33.8C251.523 27.7192 247.857 21.4913 241.778 19.9173C240.825 19.6691 239.86 19.5478 238.902 19.5478ZM238.918 43.0581C237.916 43.0581 236.898 42.9312 235.883 42.6683C232.751 41.8574 230.122 39.8752 228.482 37.0877C226.84 34.2983 226.384 31.0382 227.195 27.9049C228.005 24.7735 229.989 22.1441 232.777 20.5039C235.565 18.8619 238.826 18.4059 241.958 19.2168C245.091 20.0277 247.719 22.0099 249.361 24.7992C251.001 27.5868 251.459 30.8488 250.648 33.9802C249.236 39.4321 244.306 43.0581 238.918 43.0581Z" fill="#FF9D1B"/>
<path d="M239.654 34.7653C239.749 34.5189 239.799 34.289 239.803 34.0757C239.805 33.8624 239.759 33.6491 239.661 33.4358C239.564 33.2226 239.415 33.0037 239.216 32.7794C239.018 32.5551 238.764 32.3105 238.453 32.0476C237.922 31.5934 237.451 31.1484 237.041 30.7163C236.631 30.2842 236.307 29.8429 236.068 29.3943C235.831 28.9456 235.695 28.4767 235.658 27.9839C235.621 27.493 235.713 26.9616 235.938 26.3897C236.131 25.8933 236.396 25.4759 236.73 25.1357C237.065 24.7955 237.455 24.5363 237.9 24.3616C238.345 24.1851 238.832 24.0913 239.361 24.0784C239.891 24.0656 240.448 24.1446 241.035 24.3119L241.765 22.4382L243.272 23.0266L242.531 24.9261C243.044 25.2056 243.478 25.5402 243.835 25.9282C244.19 26.3143 244.455 26.7409 244.63 27.2043C244.802 27.6695 244.881 28.1678 244.865 28.7029C244.848 29.238 244.725 29.7969 244.499 30.3798L241.776 29.3189C242.048 28.6183 242.098 28.0354 241.921 27.5665C241.744 27.0976 241.397 26.7612 240.875 26.5589C240.593 26.4486 240.334 26.3934 240.099 26.3934C239.863 26.3916 239.654 26.4339 239.468 26.5203C239.282 26.6049 239.122 26.7299 238.986 26.8917C238.852 27.0535 238.742 27.2429 238.657 27.4599C238.573 27.675 238.528 27.8828 238.523 28.0832C238.517 28.2818 238.563 28.4859 238.659 28.6955C238.755 28.9033 238.904 29.124 239.108 29.3538C239.312 29.5837 239.573 29.8429 239.897 30.1298C240.417 30.595 240.88 31.0455 241.287 31.4776C241.693 31.9115 242.015 32.3547 242.25 32.807C242.487 33.2593 242.623 33.73 242.66 34.2228C242.697 34.7138 242.605 35.2415 242.384 35.8078C242.184 36.3209 241.914 36.7474 241.577 37.0858C241.239 37.426 240.847 37.6797 240.406 37.8507C239.963 38.0199 239.475 38.1063 238.942 38.1081C238.411 38.1081 237.852 38.0254 237.265 37.8562L236.587 39.5994L235.088 39.0146L235.763 37.2825C235.263 37.0269 234.803 36.7162 234.384 36.3503C233.965 35.9862 233.632 35.5651 233.384 35.0889C233.135 34.6127 232.996 34.0794 232.964 33.4892C232.933 32.8989 233.055 32.2535 233.328 31.553L236.052 32.6139C235.89 33.0295 235.813 33.3972 235.822 33.7209C235.829 34.0426 235.899 34.324 236.03 34.5667C236.158 34.8094 236.335 35.0117 236.557 35.1753C236.778 35.3408 237.019 35.4714 237.276 35.5725C237.571 35.6865 237.846 35.7508 238.098 35.7619C238.35 35.7729 238.578 35.7398 238.782 35.6644C238.985 35.589 239.159 35.475 239.306 35.3206C239.453 35.1661 239.569 34.9804 239.654 34.7653Z" fill="#FF9D1B"/>
<path d="M269.328 130.223C266.353 125.265 267.961 118.833 272.919 115.858C277.878 112.885 284.31 114.492 287.285 119.451C290.26 124.409 288.651 130.84 283.692 133.816C278.735 136.791 272.303 135.182 269.328 130.223Z" fill="#E24F0C"/>
<path d="M268.544 130.693C265.569 125.734 267.178 119.304 272.137 116.329C277.095 113.354 283.527 114.963 286.502 119.92C289.477 124.879 287.868 131.309 282.909 134.284C277.952 137.259 271.52 135.652 268.544 130.693Z" fill="#FFAB3C"/>
<path d="M269.894 130.027C272.439 134.269 277.961 135.65 282.201 133.105C286.443 130.561 287.824 125.039 285.279 120.799C282.734 116.557 277.212 115.176 272.972 117.721C268.73 120.265 267.349 125.785 269.894 130.027ZM277.602 134.95C274.359 134.95 271.192 133.299 269.407 130.32C266.7 125.809 268.169 119.938 272.68 117.233C277.19 114.527 283.061 115.994 285.766 120.504C288.473 125.015 287.004 130.886 282.495 133.593C280.962 134.512 279.272 134.95 277.602 134.95Z" fill="#FF9D1B"/>
<path d="M280.138 127.111C280.051 126.922 279.95 126.768 279.833 126.648C279.715 126.529 279.57 126.437 279.395 126.374C279.222 126.312 279.016 126.275 278.781 126.26C278.545 126.247 278.268 126.256 277.95 126.286C277.4 126.332 276.891 126.352 276.422 126.343C275.953 126.336 275.526 126.275 275.142 126.159C274.759 126.045 274.419 125.863 274.123 125.613C273.827 125.361 273.581 125.015 273.382 124.574C273.211 124.192 273.121 123.813 273.116 123.438C273.11 123.061 273.18 122.7 273.327 122.353C273.474 122.005 273.689 121.68 273.976 121.376C274.261 121.071 274.612 120.801 275.03 120.566L274.381 119.12L275.543 118.598L276.201 120.064C276.642 119.929 277.069 119.87 277.484 119.885C277.898 119.898 278.283 119.984 278.639 120.144C278.996 120.303 279.32 120.534 279.612 120.84C279.902 121.143 280.149 121.522 280.351 121.97L278.251 122.914C278.009 122.375 277.707 122.024 277.347 121.864C276.986 121.704 276.606 121.715 276.205 121.895C275.986 121.992 275.811 122.108 275.682 122.239C275.552 122.371 275.46 122.513 275.405 122.664C275.352 122.814 275.333 122.974 275.348 123.14C275.364 123.305 275.41 123.471 275.486 123.638C275.559 123.804 275.651 123.943 275.762 124.057C275.87 124.169 276.01 124.258 276.179 124.318C276.35 124.381 276.556 124.418 276.799 124.431C277.04 124.443 277.33 124.44 277.668 124.416C278.216 124.381 278.726 124.368 279.195 124.381C279.662 124.392 280.088 124.456 280.472 124.572C280.857 124.69 281.197 124.874 281.493 125.124C281.789 125.376 282.035 125.718 282.23 126.155C282.409 126.551 282.499 126.937 282.502 127.314C282.506 127.691 282.434 128.051 282.285 128.393C282.137 128.737 281.916 129.057 281.622 129.357C281.327 129.656 280.973 129.923 280.555 130.16L281.158 131.504L280.004 132.023L279.402 130.686C278.983 130.826 278.555 130.914 278.119 130.947C277.683 130.98 277.262 130.936 276.857 130.811C276.453 130.688 276.076 130.473 275.728 130.164C275.379 129.855 275.085 129.43 274.842 128.891L276.942 127.948C277.085 128.266 277.249 128.513 277.435 128.687C277.621 128.86 277.817 128.978 278.025 129.039C278.233 129.099 278.444 129.112 278.659 129.079C278.873 129.044 279.079 128.982 279.279 128.893C279.505 128.79 279.693 128.671 279.838 128.537C279.983 128.4 280.092 128.253 280.162 128.099C280.232 127.943 280.263 127.781 280.257 127.613C280.252 127.446 280.211 127.279 280.138 127.111Z" fill="#FF9D1B"/>
<path d="M149.818 120.056C149.818 120.056 142.518 114.915 137.048 115.922C131.577 116.93 125.656 123.971 125.656 123.971C125.656 123.971 136.579 125.179 140.628 123.645C144.677 122.114 149.818 120.056 149.818 120.056Z" fill="#FF9D1B"/>
<path d="M270.161 109.458C270.161 109.458 282.613 102.687 287.364 104.931C292.113 107.174 294.633 112.501 294.633 112.501C294.633 112.501 288.874 113.076 284.413 112.861C279.95 112.644 276.927 108.647 270.161 109.458Z" fill="#7CBDAD"/>
<path d="M290.027 57.5254C290.027 57.5254 298.347 53.4065 302.082 54.3664C305.814 55.3262 309.587 57.5254 309.587 57.5254C309.587 57.5254 304.95 60.3166 300.44 60.1254C295.929 59.9323 290.027 57.5254 290.027 57.5254Z" fill="#FF9D1B"/>
<path d="M235.756 15.1165C235.756 15.1165 231.461 9.78958 232.961 5.90245C234.46 2.01532 235.756 3.91006e-05 235.756 3.91006e-05C235.756 3.91006e-05 239.689 4.4627 239.522 7.55733C239.354 10.6538 235.756 15.1165 235.756 15.1165Z" fill="#FF9D1B"/>
<path d="M253.382 24.5066C253.382 24.5066 252.376 17.8025 255.486 15.8828C258.597 13.9632 263.587 13.9631 263.587 13.9631C263.587 13.9631 262.818 19.6265 260.708 20.8732C258.597 22.1217 254.309 22.8039 253.382 24.5066Z" fill="#7CBDAD"/>
<path d="M205.446 203.12C205.446 203.12 209.653 209.07 209.844 211.181C210.035 213.292 203.909 218.667 203.909 218.667C203.909 218.667 201.926 213.485 202.791 210.892C203.655 208.302 205.446 203.12 205.446 203.12Z" fill="#7CBDAD"/>
<path d="M197.625 169.129C197.625 169.129 191.374 171.24 190.509 174.695C189.645 178.15 189.934 180.623 189.934 180.623C189.934 180.623 198.984 176.23 197.625 169.129Z" fill="#7CBDAD"/>
<path d="M199.53 169.129C199.53 169.129 201.461 171.337 201.503 172.872C201.546 174.408 200.518 175.745 200.518 175.745C200.518 175.745 198.24 173.913 199.53 169.129Z" fill="#7CBDAD"/>
<path d="M278.696 263.771V267.488C278.696 267.784 278.606 268.059 278.45 268.287C278.286 268.528 278.053 268.718 277.779 268.824C277.694 268.857 277.606 268.881 277.516 268.898C277.433 268.913 277.35 268.92 277.264 268.92L218.052 268.913C217.815 268.913 217.591 268.854 217.392 268.749C216.973 268.53 216.673 268.109 216.627 267.616C216.623 267.596 216.623 267.574 216.622 267.552C216.622 267.528 216.62 267.504 216.62 267.478L216.622 263.762C216.622 263.736 216.622 263.713 216.622 263.689C216.662 262.935 217.291 262.33 218.054 262.33L277.264 262.339C277.35 262.339 277.435 262.346 277.518 262.361C277.608 262.378 277.694 262.402 277.779 262.435C278.054 262.541 278.288 262.731 278.452 262.972C278.606 263.2 278.696 263.475 278.696 263.771Z" fill="#FFAB3C"/>
<path d="M249.62 268.917L217.899 268.913C217.686 268.913 217.486 268.854 217.309 268.749C216.936 268.53 216.668 268.109 216.627 267.617C216.623 267.596 216.623 267.574 216.622 267.552C216.622 267.528 216.62 267.504 216.62 267.479L216.622 263.762C216.622 263.737 216.622 263.713 216.622 263.689C216.656 262.935 217.219 262.33 217.899 262.33L245.725 262.334C246.157 264.218 247.149 266.806 249.425 268.755C249.489 268.81 249.554 268.863 249.62 268.917Z" fill="#FF9D1B"/>
<path d="M271.49 268.92H270.817L270.819 262.337H271.492L271.49 268.92Z" fill="#FF9D1B"/>
<path d="M269.214 268.92H268.541V262.337H269.214V268.92Z" fill="#FF9D1B"/>
<path d="M266.481 268.92H265.808V262.337H266.483L266.481 268.92Z" fill="#FF9D1B"/>
<path d="M262.295 268.918H261.622V262.335H262.295V268.918Z" fill="#FF9D1B"/>
<path d="M257.867 268.918H257.194V262.335H257.867V268.918Z" fill="#FF9D1B"/>
<path d="M251.078 268.917H250.405L250.407 262.334L251.08 262.336L251.078 268.917Z" fill="#FF9D1B"/>
<path d="M244.723 268.917H244.05V262.334H244.723V268.917Z" fill="#FF9D1B"/>
<path d="M239.047 268.915H238.376V262.334H239.049L239.047 268.915Z" fill="#FF9D1B"/>
<path d="M273.66 268.92H272.987V262.337H273.66V268.92Z" fill="#FF9D1B"/>
<path d="M275.092 268.92H274.419V262.337L275.092 262.339V268.92Z" fill="#FF9D1B"/>
<path d="M276.475 268.922L275.802 268.92L275.804 262.339H276.477L276.475 268.922Z" fill="#FF9D1B"/>
<path d="M277.518 262.361L277.516 268.898C277.433 268.913 277.35 268.92 277.264 268.92H276.843L276.845 262.337H277.264C277.35 262.339 277.435 262.346 277.518 262.361Z" fill="#FF9D1B"/>
<path d="M278.451 262.972L278.45 268.288C278.286 268.528 278.052 268.718 277.779 268.824V262.435C278.054 262.541 278.288 262.731 278.451 262.972Z" fill="#FF9D1B"/>
<path d="M272.218 257.189V260.907C272.216 261.203 272.126 261.477 271.972 261.707C271.808 261.947 271.575 262.135 271.299 262.242C271.214 262.275 271.128 262.3 271.038 262.315C270.955 262.33 270.87 262.339 270.784 262.339L211.574 262.33C210.811 262.33 210.182 261.725 210.144 260.971C210.142 260.945 210.142 260.921 210.142 260.898V257.18C210.142 257.156 210.144 257.13 210.144 257.106C210.179 256.409 210.721 255.839 211.405 255.758C211.46 255.751 211.517 255.747 211.574 255.747L270.786 255.756C270.872 255.756 270.955 255.764 271.038 255.778C271.128 255.795 271.216 255.819 271.301 255.852C271.575 255.959 271.81 256.148 271.972 256.389C272.128 256.619 272.218 256.893 272.218 257.189Z" fill="#FFAB3C"/>
<path d="M243.142 262.333L211.42 262.33C210.739 262.33 210.177 261.725 210.144 260.971C210.142 260.945 210.142 260.921 210.142 260.897V257.179C210.142 257.156 210.144 257.13 210.144 257.106C210.175 256.409 210.659 255.839 211.271 255.758C211.319 255.751 211.37 255.747 211.422 255.747L239.248 255.751L239.249 255.762C239.694 257.698 240.73 260.372 243.142 262.333Z" fill="#FF9D1B"/>
<path d="M265.012 262.337H264.339L264.341 255.754H265.012V262.337Z" fill="#FF9D1B"/>
<path d="M262.734 262.337H262.061L262.063 255.754H262.736L262.734 262.337Z" fill="#FF9D1B"/>
<path d="M260.003 262.337H259.33V255.754H260.003V262.337Z" fill="#FF9D1B"/>
<path d="M255.815 262.335H255.142L255.144 255.753L255.817 255.755L255.815 262.335Z" fill="#FF9D1B"/>
<path d="M251.387 262.335H250.714L250.716 255.753H251.389L251.387 262.335Z" fill="#FF9D1B"/>
<path d="M244.6 262.335L243.927 262.334V255.753H244.6V262.335Z" fill="#FF9D1B"/>
<path d="M238.243 262.333H237.57L237.572 255.751H238.245L238.243 262.333Z" fill="#FF9D1B"/>
<path d="M232.569 262.333H231.896L231.898 255.751H232.571L232.569 262.333Z" fill="#FF9D1B"/>
<path d="M267.18 262.337H266.507L266.509 255.754L267.182 255.756L267.18 262.337Z" fill="#FF9D1B"/>
<path d="M268.612 262.339L267.939 262.337L267.941 255.755L268.614 255.756L268.612 262.339Z" fill="#FF9D1B"/>
<path d="M269.995 262.339L269.324 262.337V255.756H269.997L269.995 262.339Z" fill="#FF9D1B"/>
<path d="M271.038 255.778V262.315C270.955 262.33 270.87 262.339 270.784 262.339L270.363 262.337L270.365 255.756H270.786C270.872 255.756 270.955 255.764 271.038 255.778Z" fill="#FF9D1B"/>
<path d="M271.972 256.389V261.705C271.808 261.946 271.575 262.135 271.299 262.242L271.301 255.852C271.575 255.959 271.81 256.148 271.972 256.389Z" fill="#FF9D1B"/>
<path d="M278.396 250.617V254.333C278.396 254.629 278.306 254.905 278.15 255.133C277.986 255.374 277.753 255.563 277.477 255.67C277.394 255.703 277.306 255.727 277.216 255.743C277.188 255.747 277.161 255.753 277.133 255.754L277.085 255.76L277.039 255.764C277.014 255.765 276.988 255.765 276.962 255.765L217.752 255.756C216.989 255.756 216.36 255.151 216.322 254.397C216.32 254.373 216.32 254.348 216.32 254.324V250.606C216.32 250.582 216.322 250.558 216.322 250.532C216.324 250.512 216.324 250.494 216.325 250.473C216.382 249.867 216.824 249.367 217.399 249.219L217.443 249.208C217.543 249.186 217.648 249.173 217.752 249.173L276.964 249.183C277.006 249.183 277.05 249.186 277.093 249.188C277.111 249.192 277.13 249.192 277.15 249.196C277.172 249.199 277.194 249.203 277.216 249.207C277.306 249.221 277.394 249.247 277.479 249.28C277.753 249.387 277.988 249.576 278.152 249.815C278.306 250.045 278.396 250.319 278.396 250.617Z" fill="#FFAB3C"/>
<path d="M249.32 255.762L217.598 255.756C216.918 255.756 216.357 255.151 216.322 254.398C216.32 254.374 216.32 254.348 216.32 254.324V250.606C216.32 250.582 216.322 250.558 216.322 250.533C216.324 250.512 216.324 250.494 216.325 250.474C216.377 249.854 216.787 249.345 217.318 249.21C217.337 249.205 217.355 249.201 217.374 249.198C217.447 249.183 217.522 249.174 217.6 249.174L245.426 249.179L245.437 249.225C245.885 251.156 246.921 253.804 249.307 255.751L249.32 255.762Z" fill="#FF9D1B"/>
<path d="M271.19 255.765H270.517L270.519 249.183H271.192L271.19 255.765Z" fill="#FF9D1B"/>
<path d="M268.912 255.764H268.239L268.241 249.181L268.914 249.183L268.912 255.764Z" fill="#FF9D1B"/>
<path d="M266.182 255.764H265.509V249.181H266.182V255.764Z" fill="#FF9D1B"/>
<path d="M261.993 255.764H261.322V249.181H261.995L261.993 255.764Z" fill="#FF9D1B"/>
<path d="M257.565 255.764L256.894 255.762V249.179L257.567 249.181L257.565 255.764Z" fill="#FF9D1B"/>
<path d="M250.778 255.762H250.105L250.107 249.179H250.78L250.778 255.762Z" fill="#FF9D1B"/>
<path d="M244.422 255.76H243.751V249.179H244.424L244.422 255.76Z" fill="#FF9D1B"/>
<path d="M238.747 255.76H238.074L238.076 249.177H238.749L238.747 255.76Z" fill="#FF9D1B"/>
<path d="M273.36 255.765H272.685L272.687 249.183H273.36V255.765Z" fill="#FF9D1B"/>
<path d="M274.792 255.765H274.118L274.119 249.183H274.792V255.765Z" fill="#FF9D1B"/>
<path d="M276.175 255.765H275.502V249.183H276.175V255.765Z" fill="#FF9D1B"/>
<path d="M277.216 249.207V255.741C277.133 255.758 277.048 255.765 276.962 255.765H276.543V249.183H276.964C277.05 249.183 277.135 249.19 277.216 249.207Z" fill="#FF9D1B"/>
<path d="M278.15 249.815V255.133C277.987 255.374 277.753 255.563 277.477 255.67L277.479 249.28C277.753 249.385 277.988 249.574 278.15 249.815Z" fill="#FF9D1B"/>
<path d="M94.3984 264.159H69.037V262.01H94.3984V264.159Z" fill="#FF9D1B"/>
<path d="M217.607 265.277H239.24V255.582H217.607V265.277Z" fill="#FF9D1B"/>
<path d="M242.517 261.782L243.935 263.084L243.738 264.97L235.445 264.729L234.654 261.219L242.517 261.782Z" fill="#FF9D1B"/>
<path d="M105.634 92.2816C105.618 91.8495 105.284 87.1882 98.1824 86.9437C98.1824 86.9437 100.799 87.3335 102.064 88.7365C102.064 88.7365 99.9 86.9988 97.9638 87.6075C96.0274 88.2179 94.8902 91.6104 94.8788 92.7266C94.8674 93.8427 95.9432 97.4393 97.1719 97.7445C97.6374 97.8604 98.1736 97.8309 98.6603 97.7464C98.3336 98.2575 98.0131 98.8202 97.7066 99.4491C94.8731 105.267 97.7952 110.95 100.194 110.323C101.733 109.921 102.168 112.545 102.168 112.545L117.115 100.446C117.115 100.446 111.625 89.084 105.634 92.2816Z" fill="#342A5F"/>
<path d="M229.649 268.971L183.129 268.913H217.883C217.889 268.913 217.894 268.913 217.9 268.913L229.636 268.914C229.642 268.935 229.646 268.951 229.649 268.971ZM210.239 247.121C205.315 242.212 199.249 237.301 192.205 233.746C192.192 233.741 192.181 233.733 192.168 233.728C191.133 233.208 190.132 232.735 189.16 232.325C188.704 232.128 188.244 231.939 187.781 231.755C190.765 218.812 195.579 210.002 200.95 202.796C201.996 204.12 203.052 205.521 204.111 207.002C203.638 208.381 203.138 209.848 202.791 210.892C201.926 213.485 203.908 218.667 203.908 218.667C203.908 218.667 206.874 216.065 208.614 213.772C213.419 221.537 218.14 231.032 222.267 242.604C219.008 243.032 215.643 243.837 212.185 245.082L210.239 247.121ZM187.948 194.757C187.946 194.741 187.939 194.676 187.926 194.57C187.845 193.913 187.538 191.613 186.882 188.357C187.996 189.259 189.176 190.269 190.414 191.4C189.575 192.507 188.755 193.623 187.948 194.757Z" fill="#D2C7FC"/>
<path d="M210.239 247.122C205.315 242.212 199.249 237.301 192.205 233.746C192.192 233.741 192.179 233.734 192.168 233.728C192.181 233.734 192.192 233.741 192.205 233.746C199.249 237.301 205.315 242.212 210.239 247.122ZM189.16 232.325C188.693 232.128 188.231 231.944 187.775 231.777C187.777 231.77 187.779 231.764 187.781 231.755C188.244 231.939 188.704 232.128 189.16 232.325Z" fill="#A1C5BB"/>
<path d="M208.369 249.083C205.043 248.35 201.814 248.015 198.696 248.015C196.855 248.015 195.051 248.133 193.288 248.352C193.63 246.669 193.367 244.775 192.471 242.773C191.35 240.263 189.072 238.899 186.466 238.467C186.687 237.119 186.924 235.81 187.18 234.541C193.61 237.078 199.867 241.094 205.782 246.478C205.799 246.495 206.878 247.46 208.448 249.001L208.369 249.083ZM209.134 248.28C207.66 246.774 206.632 245.801 206.497 245.684C200.459 240.186 194.058 236.087 187.47 233.504C187.446 233.495 187.422 233.485 187.4 233.476C187.522 232.902 187.647 232.336 187.775 231.777C188.231 231.944 188.693 232.128 189.16 232.325C190.133 232.735 191.133 233.208 192.168 233.728C192.179 233.734 192.192 233.741 192.205 233.746C199.249 237.301 205.315 242.212 210.239 247.122L209.134 248.28Z" fill="#9AC0B6"/>
<path d="M208.448 249.001C206.878 247.46 205.799 246.495 205.782 246.478C199.867 241.094 193.61 237.078 187.18 234.541C187.253 234.181 187.325 233.829 187.4 233.476C187.422 233.486 187.446 233.495 187.47 233.504C194.058 236.087 200.459 240.186 206.498 245.684C206.632 245.802 207.66 246.774 209.134 248.28L208.448 249.001Z" fill="#9AC0B6"/>
<path d="M185.297 250.095C185.453 245.445 185.973 241.76 185.973 241.76C186.126 240.636 186.29 239.538 186.466 238.466C189.072 238.899 191.35 240.263 192.472 242.773C193.367 244.775 193.63 246.669 193.288 248.352C190.526 248.695 187.862 249.293 185.297 250.095Z" fill="#9AC0B6"/>
<path d="M182.871 250.922C183.572 241.252 184.076 228.784 183.351 216.322C186.95 208.294 191.383 202.309 195.949 196.922C197.574 198.689 199.249 200.642 200.95 202.797C195.579 210.003 190.765 218.812 187.781 231.755C187.779 231.764 187.777 231.77 187.775 231.777C187.647 232.336 187.522 232.903 187.4 233.476C187.325 233.829 187.253 234.18 187.18 234.541C186.924 235.81 186.687 237.119 186.466 238.467C186.29 239.539 186.126 240.636 185.973 241.76C185.973 241.76 185.453 245.445 185.297 250.095C184.477 250.351 183.669 250.626 182.871 250.922ZM187.948 194.758C188.755 193.623 189.575 192.507 190.414 191.4C189.577 192.505 188.755 193.625 187.948 194.758Z" fill="#8E78E6"/>
<path d="M183.351 216.322C182.684 204.83 180.97 193.343 177.401 184.078L177.055 181.884C177.055 181.884 178.015 182.302 179.689 183.291C181.242 189.269 182.893 196.497 182.636 199.376C182.539 200.489 182.717 200.928 183.059 200.928C184.205 200.928 187.187 196.037 187.829 194.967C187.906 194.836 187.948 194.761 187.948 194.761C187.948 194.761 187.948 194.761 187.948 194.757C188.755 193.625 189.577 192.505 190.414 191.4C192.163 192.996 194.022 194.829 195.949 196.922C191.383 202.309 186.95 208.294 183.351 216.322ZM187.926 194.57C187.843 193.911 187.538 191.611 186.882 188.357C187.538 191.613 187.845 193.913 187.926 194.57Z" fill="#A48FF9"/>
<path d="M183.059 200.928C182.717 200.928 182.538 200.489 182.636 199.377C182.893 196.497 181.242 189.269 179.688 183.291C181.415 184.313 183.903 185.944 186.882 188.357C187.538 191.611 187.843 193.912 187.926 194.57C187.939 194.677 187.946 194.741 187.948 194.758C187.948 194.761 187.948 194.761 187.948 194.761C187.948 194.761 187.906 194.837 187.828 194.967C187.187 196.037 184.204 200.928 183.059 200.928Z" fill="#8E78E6"/>
<path d="M215.015 268.913H195.481C197.372 268.545 199.578 268.218 202.051 268.015C203.248 267.918 204.423 267.87 205.58 267.87C208.912 267.87 212.071 268.256 215.015 268.913ZM195.02 263.084C194.253 261.429 192.771 260.059 190.588 259.083C188.853 258.307 186.911 257.884 185.032 257.884C184.083 257.884 183.151 257.992 182.268 258.217C182.389 256.913 182.513 255.512 182.632 254.026C187.74 252.036 192.968 250.968 198.173 250.85C198.495 250.843 198.813 250.839 199.128 250.839C201.779 250.839 204.138 251.091 206.126 251.437L195.02 263.084ZM182.726 252.844C182.776 252.217 182.823 251.575 182.871 250.922C183.669 250.626 184.476 250.35 185.297 250.095C187.862 249.293 190.526 248.695 193.288 248.352C195.051 248.133 196.855 248.015 198.696 248.015C201.814 248.015 205.043 248.35 208.369 249.083L207.02 250.499C204.85 250.086 202.198 249.769 199.15 249.769C198.841 249.769 198.526 249.773 198.208 249.778C193.023 249.889 187.817 250.92 182.726 252.844Z" fill="#A1C5BB"/>
<path d="M182.632 254.026C182.664 253.636 182.695 253.243 182.726 252.844C187.818 250.92 193.023 249.889 198.208 249.779C198.527 249.773 198.841 249.769 199.15 249.769C202.199 249.769 204.85 250.086 207.02 250.499L206.126 251.437C204.138 251.091 201.779 250.84 199.128 250.84C198.813 250.84 198.495 250.843 198.174 250.851C192.968 250.968 187.74 252.037 182.632 254.026Z" fill="#9AC0B6"/>
<path d="M189.463 268.913H183.129L181.213 268.909C181.143 268.679 181.678 264.619 182.268 258.217C183.151 257.992 184.083 257.884 185.032 257.884C186.911 257.884 188.853 258.307 190.589 259.083C192.771 260.059 194.253 261.429 195.02 263.084L189.463 268.913Z" fill="#9AC0B6"/>
<path d="M217.883 268.913H215.014C212.071 268.256 208.912 267.87 205.58 267.87C204.423 267.87 203.248 267.918 202.051 268.015C199.578 268.218 197.372 268.545 195.481 268.913H190.781C193.341 268.291 198.455 267.285 204.736 267.285C208.594 267.285 212.891 267.666 217.306 268.747C217.307 268.747 217.307 268.749 217.309 268.749C217.482 268.85 217.677 268.909 217.883 268.913Z" fill="#9AC0B6"/>
<path d="M190.782 268.913H189.463L195.02 263.084L206.126 251.437L207.02 250.499L208.369 249.083L208.448 249.001L209.134 248.28L210.239 247.121L212.185 245.082C215.644 243.837 219.008 243.032 222.267 242.604C222.46 243.141 222.653 243.69 222.84 244.236C216.969 244.887 213.406 246.548 213.216 246.638L213.128 246.678L194.286 266.051L195.897 265.783C200.044 265.088 204.023 264.742 207.816 264.742C210.874 264.742 213.812 264.967 216.62 265.417V267.478C216.62 267.504 216.622 267.528 216.622 267.552C216.624 267.574 216.624 267.596 216.627 267.616C216.668 268.107 216.933 268.526 217.306 268.747C212.891 267.666 208.594 267.285 204.736 267.285C198.455 267.285 193.341 268.291 190.782 268.913ZM216.622 264.332C213.807 263.893 210.868 263.672 207.816 263.672C205.367 263.672 202.846 263.814 200.253 264.097C200.213 264.102 200.17 264.104 200.13 264.104C199.236 264.104 198.74 263.007 199.393 262.337L212.451 248.911C213.409 247.925 214.595 247.193 215.906 246.778C217.554 246.255 220.051 245.617 223.199 245.281C223.631 246.555 224.056 247.853 224.473 249.175L217.6 249.174C217.523 249.174 217.447 249.183 217.374 249.197C217.355 249.201 217.337 249.205 217.319 249.21C216.787 249.345 216.377 249.854 216.326 250.474C216.324 250.494 216.324 250.512 216.322 250.532C216.322 250.558 216.32 250.582 216.32 250.606V254.324C216.32 254.348 216.32 254.374 216.322 254.397C216.353 255.098 216.842 255.672 217.457 255.749L211.574 255.747C211.573 255.747 211.571 255.747 211.569 255.747H211.422C211.42 255.747 211.418 255.747 211.416 255.747C211.367 255.747 211.317 255.751 211.271 255.758C210.659 255.839 210.175 256.409 210.144 257.106C210.144 257.13 210.142 257.156 210.142 257.179V260.897C210.142 260.921 210.142 260.945 210.144 260.971C210.177 261.725 210.74 262.33 211.42 262.33H217.607V262.367C217.065 262.512 216.653 263.045 216.622 263.689C216.622 263.713 216.622 263.736 216.622 263.762V264.332Z" fill="#A1C5BB"/>
<path d="M194.286 266.052L213.128 246.678L213.216 246.638C213.406 246.548 216.969 244.887 222.84 244.236C222.962 244.584 223.079 244.932 223.199 245.281C220.051 245.617 217.554 246.255 215.906 246.778C214.595 247.193 213.409 247.925 212.451 248.911L199.392 262.337C198.74 263.007 199.236 264.104 200.13 264.104C200.17 264.104 200.213 264.102 200.253 264.097C202.846 263.814 205.367 263.672 207.816 263.672C210.868 263.672 213.806 263.893 216.622 264.332L216.62 265.417C213.812 264.967 210.874 264.742 207.816 264.742C204.022 264.742 200.043 265.088 195.897 265.783L194.286 266.052Z" fill="#9AC0B6"/>
<path d="M203.909 218.667C203.909 218.667 201.926 213.485 202.791 210.892C203.138 209.848 203.638 208.381 204.111 207.002C205.608 209.094 207.117 211.35 208.614 213.772C206.874 216.065 203.909 218.667 203.909 218.667Z" fill="#9AC0B6"/>
<path d="M229.636 268.915L217.899 268.913C217.894 268.913 217.888 268.913 217.883 268.913C217.677 268.909 217.482 268.85 217.309 268.749C217.307 268.749 217.307 268.747 217.306 268.747C216.932 268.527 216.668 268.107 216.627 267.616C216.623 267.596 216.623 267.574 216.622 267.552C216.622 267.528 216.62 267.504 216.62 267.478L216.622 263.762C216.622 263.737 216.622 263.713 216.622 263.689C216.653 263.045 217.065 262.512 217.607 262.367V265.277H228.833C229.107 266.471 229.377 267.688 229.636 268.915Z" fill="#D2B083"/>
<path d="M217.458 255.749L211.569 255.747C211.571 255.747 211.572 255.747 211.574 255.747L217.456 255.749C217.458 255.749 217.458 255.749 217.458 255.749Z" fill="#CAB292"/>
<path d="M217.607 262.33H211.42C210.739 262.33 210.177 261.725 210.144 260.971C210.142 260.945 210.142 260.922 210.142 260.898V257.18C210.142 257.156 210.144 257.13 210.144 257.106C210.175 256.409 210.659 255.839 211.271 255.758C211.317 255.751 211.366 255.747 211.416 255.747C211.418 255.747 211.42 255.747 211.422 255.747H211.569L217.458 255.749C217.504 255.755 217.55 255.757 217.598 255.757H217.607V262.33Z" fill="#D2B083"/>
<path d="M217.607 255.756H217.598C217.55 255.756 217.504 255.755 217.458 255.749C217.458 255.749 217.458 255.749 217.456 255.749C216.842 255.672 216.353 255.098 216.322 254.398C216.32 254.374 216.32 254.348 216.32 254.324V250.606C216.32 250.582 216.322 250.558 216.322 250.532C216.324 250.512 216.324 250.494 216.325 250.474C216.377 249.854 216.787 249.345 217.318 249.21C217.337 249.205 217.355 249.201 217.374 249.197C217.447 249.183 217.522 249.174 217.6 249.174L224.473 249.175C225.128 251.253 225.76 253.381 226.374 255.582H217.607V255.756Z" fill="#D2B083"/>
<path d="M228.833 265.277H217.607V255.582H226.374C227.24 258.687 228.062 261.922 228.833 265.277Z" fill="#D2B083"/>
<path d="M110.838 263.643L107.663 264.825C107.663 264.825 93.8736 245.698 92.1756 228.87C91.8724 225.867 91.9736 222.956 92.6294 220.268C92.6294 220.268 92.4947 219.498 92.2587 218.137C92.1497 217.503 92.0151 216.738 91.8621 215.861C91.4138 213.292 90.7969 209.778 90.0918 205.775C88.4693 196.567 86.367 184.793 84.734 176.138L85.5894 175.864L94.8457 172.878L96.7584 166.803L103.651 164.988C103.651 164.988 105.19 168 106.567 182.226C106.821 184.092 107.051 186.152 107.225 188.382C107.762 195.195 107.801 203.646 106.569 213.305C106.253 215.778 105.854 218.332 105.359 220.954C104.996 222.877 104.942 225.498 105.094 228.508C105.789 242.263 110.838 263.643 110.838 263.643Z" fill="#402C8E"/>
<path d="M107.225 188.383L92.2587 218.137C92.1497 217.503 92.0151 216.738 91.8621 215.861C91.4138 213.292 90.7969 209.778 90.0918 205.775C88.4693 196.567 86.367 184.793 84.734 176.138L85.5894 175.864L94.8457 172.878L96.7584 166.803L103.651 164.988C103.651 164.988 105.19 168 106.567 182.227C106.821 184.093 107.051 186.152 107.225 188.383Z" fill="#322567"/>
<path d="M100.641 168.805L100.295 165.836C94.4901 167.377 78.9811 161.528 78.9811 161.528C78.9811 161.528 73.358 166.47 74.0962 178.319C74.4566 184.102 75.1149 208.675 75.8024 215.947C76.0508 218.584 76.2683 220.46 76.3575 221.208L76.3592 221.215C76.3862 221.443 76.3064 221.66 76.1904 221.859C75.1783 223.576 74.3404 225.365 73.6529 227.195C66.905 245.178 74.6923 267.322 74.6923 267.322L76.7128 266.508C76.7128 266.508 81.1442 241.863 84.7448 230.976C85.3562 229.129 85.9421 227.679 86.4792 226.811C88.0445 224.284 89.4973 220.156 90.816 215.247C93.3087 205.963 95.3144 193.886 96.6497 184.563C96.8338 184.573 100.641 168.805 100.641 168.805Z" fill="#402C8E"/>
<path d="M108.601 132.047C109.009 130.557 109.682 129.379 110.379 128.491C110.475 128.345 110.571 128.202 110.715 128.082C111.868 126.712 112.998 126.135 112.998 126.135C113.574 125.894 114.199 126.185 114.848 126.88V126.904C115.376 127.457 115.953 128.297 116.505 129.355C116.529 129.379 116.553 129.403 116.553 129.426C116.674 129.643 116.794 129.884 116.939 130.147C116.987 130.197 117.011 130.269 117.035 130.316C117.299 130.868 117.562 131.445 117.827 132.047C120.782 138.486 123.93 148.241 126.548 151.148C127.677 152.396 132.844 154.847 136.952 156.673C139.907 157.971 142.31 158.931 142.31 158.931C142.31 158.931 145.272 158.354 145.949 158.931C146.626 159.51 149.838 162.772 149.15 163.844C148.463 164.915 145.166 162.958 144.48 162.772C143.794 162.588 141.878 161.838 141.878 161.838C141.878 161.838 141.685 161.838 141.348 161.814C140.291 161.743 137.721 161.599 134.814 161.287C130.441 160.855 125.252 160.084 123.185 158.812C120.037 156.89 114.872 151.002 111.508 145.117C111.412 144.973 111.34 144.828 111.268 144.684C109.514 141.56 108.288 138.46 108.193 135.987C108.12 134.472 108.288 133.176 108.601 132.047Z" fill="#FFA983"/>
<path d="M111.73 132.769C109.908 133.613 107.707 134.189 105.045 134.334C95.0656 134.882 92.8002 126.133 92.3882 120.326C93.827 119.806 95.0864 119.856 95.8121 119.894C96.5197 119.933 97.2587 120.005 97.8679 120.08C99.0882 119.444 101.282 116.346 102.549 111.164L102.979 111.364L110.18 114.75C110.18 114.75 109.415 117.092 108.85 119.334C108.409 121.09 108.093 122.785 108.358 123.259C108.925 123.489 109.265 123.634 109.265 123.634L109.268 123.642C109.34 123.826 110.906 127.816 111.73 132.769Z" fill="#FFA983"/>
<path d="M110.18 114.751C110.18 114.751 109.415 117.092 108.851 119.335C104.642 118.162 103.363 113.736 102.979 111.364L110.18 114.751Z" fill="#EB8B5F"/>
<path d="M111.067 117.23C111.067 117.23 100.997 114.898 102.545 108.65C104.093 102.4 103.835 97.8918 110.33 99.1164C116.825 100.339 117.478 103.033 117.469 105.243C117.459 107.455 113.727 117.675 111.067 117.23Z" fill="#FFA983"/>
<path d="M118.035 101.696C116.954 99.4307 115.679 99.5521 114.881 99.9529C110.15 95.5767 102.221 96.6726 102.221 96.6726C100.434 100.988 99.8515 105.23 99.8515 105.23C99.8515 105.23 101.399 106.815 105.882 106.78C107.252 106.769 108.629 106.14 109.882 105.274C107.465 107.709 104.631 109.189 104.631 109.189C110.244 108.115 114.008 101.619 114.392 100.927C114.868 101.63 115.779 103.125 115.854 104.386C115.959 106.102 115.369 109.434 116.35 109.559C116.35 109.559 119.658 105.092 118.035 101.696Z" fill="#342A5F"/>
<path d="M117.851 132.036C117.573 131.199 116.073 128.504 115.396 127.305C115.15 126.871 114.811 126.499 114.401 126.216C113.592 125.661 111.986 124.703 109.265 123.635L109.268 123.642C109.335 123.892 111.152 130.473 110.488 131.878C109.814 133.305 97.0592 128.695 96.3619 127.641C95.8046 126.797 95.789 122.331 95.8046 120.591C95.8074 120.159 95.8123 119.895 95.8123 119.895C95.8123 119.895 91.0507 119.249 88.3733 120.332C88.3733 120.332 89.4307 122.629 89.8195 125.161C89.8559 125.402 89.8869 125.642 89.9103 125.885C89.9623 126.395 89.9778 126.906 89.9493 127.404C89.9103 128.062 89.5709 128.645 89.029 129.215C88.5367 129.739 87.8676 130.254 87.111 130.808C86.616 131.164 86.0844 131.541 85.535 131.948H85.5348C85.4883 134.93 85.6984 139.832 85.1463 145.065C85.0061 146.393 84.5656 147.663 83.8709 148.787C83.5962 149.236 83.2799 149.662 82.9274 150.058C80.1151 153.213 75.128 159.5 76.2242 163.414C76.305 167.105 107.438 171.955 106.772 167.901C106.772 167.901 111.45 145.354 113.977 139.909C114.069 139.711 114.151 139.516 114.227 139.315C115.036 137.168 114.9 134.959 114.626 132.981C116.053 131.968 117.851 132.036 117.851 132.036Z" fill="#7257E0"/>
<path d="M98.3891 160.325C92.2484 160.261 87.0489 153.884 83.871 148.787C84.5657 147.663 85.0062 146.393 85.1463 145.065C85.6985 139.832 85.4885 134.93 85.5349 131.947H85.535C86.0845 131.541 86.6161 131.164 87.111 130.807C87.8677 130.254 88.5368 129.739 89.0291 129.215C94.0577 137.714 106.715 160.413 98.3891 160.325Z" fill="#6148C8"/>
<path d="M86.4401 268.971H70.4497C70.4497 268.971 70.0661 266.535 70.9017 264.687C71.7019 262.913 72.9552 262.106 72.6553 259.96C73.6714 261.006 75.3275 262.177 77.639 261.866C77.9226 262.324 79.4675 264.783 80.4139 265.463C81.4587 266.213 86.1185 265.945 86.4401 268.971Z" fill="#322567"/>
<path d="M120.775 268.971H104.784C104.784 268.971 104.186 266.421 105.236 264.687C106.165 263.15 105.809 262.277 105.121 261.006C105.845 261.302 106.782 261.572 107.814 261.513C108.61 261.467 109.453 261.105 110.192 260.677C110.88 261.46 113.828 264.801 114.747 265.463C115.793 266.213 120.453 265.945 120.775 268.971Z" fill="#322567"/>
<path d="M143.124 170.399L147.446 172.174C148.62 172.654 149.238 173.931 148.937 175.13L149.4 175.32C151.158 169.213 149.012 163.053 144.187 161.075C143.511 160.797 142.814 160.615 142.109 160.527C139.888 160.233 137.573 160.832 135.492 162.13C133.515 163.36 131.752 165.225 130.481 167.566L131.117 167.827C131.744 166.762 133.079 166.284 134.252 166.764L138.577 168.538C138.916 167.713 139.719 167.213 140.561 167.213C140.826 167.213 141.1 167.264 141.361 167.371L141.959 167.617C143.045 168.062 143.569 169.314 143.124 170.399ZM122.551 177.912L126.349 168.643C126.846 167.435 128.173 166.806 129.404 167.146C130.663 164.78 132.397 162.857 134.361 161.507C136.433 160.08 138.757 159.295 141.052 159.304C142.264 159.31 143.472 159.54 144.623 160.012C150.027 162.226 152.449 169.053 150.465 175.756L150.761 175.877C150.761 175.877 151.684 175.813 153.234 175.813C158.127 175.813 169.251 176.463 177.057 181.884C177.057 181.884 177.546 182.406 177.566 183.203C177.575 183.467 177.531 183.763 177.401 184.078C177.401 184.078 164.873 175.965 153.285 184.302C152.574 184.811 151.884 185.284 151.211 185.723L150.172 188.259C148.449 192.466 143.599 194.494 139.394 192.771L128.78 188.423L126.57 187.516C122.823 185.981 121.013 181.66 122.551 177.912Z" fill="#C46940"/>
<path d="M151.212 185.724C151.885 185.284 152.574 184.812 153.286 184.302C164.874 175.965 177.401 184.078 177.401 184.078C177.532 183.764 177.576 183.467 177.567 183.203C175.812 182.048 169.239 178.207 161.095 179.52C151.552 181.059 149.825 182.386 151.212 185.724Z" fill="#AB5933"/>
<path d="M126.57 187.516L128.78 188.423C125.465 186.612 129.571 178.964 131.972 173.917C134.374 168.868 138.007 171.175 138.007 171.175C138.838 169.484 140.622 169.576 140.622 169.576C140.716 167.945 141.959 167.617 141.959 167.617L141.361 167.371C141.1 167.264 140.826 167.213 140.561 167.213C139.719 167.213 138.916 167.713 138.577 168.539L134.252 166.764C133.079 166.284 131.744 166.762 131.117 167.827L130.481 167.566C131.752 165.225 133.515 163.361 135.492 162.13C137.573 160.832 139.888 160.233 142.109 160.527C141.762 160.246 141.389 159.854 141.052 159.304C138.757 159.295 136.433 160.08 134.361 161.507C132.397 162.857 130.663 164.78 129.404 167.147C128.173 166.806 126.846 167.435 126.349 168.643L122.551 177.913C121.013 181.66 122.823 185.981 126.57 187.516Z" fill="#AB5933"/>
<path d="M84.8625 128.249C84.9107 121.282 88.3705 120.321 88.3705 120.321C88.4424 120.297 88.5145 120.273 88.6106 120.249C89.2114 120.153 89.836 120.562 90.4847 121.354C91.3017 122.34 92.1668 123.949 93.0556 125.894C94.425 128.994 95.8667 133.006 97.2122 136.996C97.957 139.183 98.6777 141.369 99.3986 143.386C99.807 144.612 100.216 145.765 100.6 146.823C101.345 148.84 102.018 150.474 102.618 151.508C103.002 152.181 104.108 153.117 105.573 154.174C108.12 156.024 111.844 158.26 115.087 160.084C116.433 160.854 117.708 161.551 118.765 162.127C119.653 162.32 124.171 163.28 126.283 162.8C128.663 162.248 132.651 165.107 132.651 165.107C132.651 165.107 133.083 166.019 131.546 166.644C130.009 167.294 127.846 169.552 124.386 168.182C121.911 167.22 119.293 166.549 118.018 166.236C117.514 166.139 117.226 166.067 117.226 166.067C115.882 165.804 114.271 165.444 112.517 165.058H112.493C109.49 164.337 106.126 163.473 103.291 162.511C101.297 161.814 99.5669 161.069 98.3897 160.325C98.2693 160.253 98.1733 160.181 98.053 160.084C95.2421 158.043 91.9024 152.036 89.3075 145.596C88.9469 144.708 88.6106 143.818 88.2743 142.954C87.0729 139.734 86.112 136.562 85.5355 133.824C85.1747 132.19 84.9346 130.7 84.8864 129.476C84.8625 129.042 84.8384 128.634 84.8625 128.249Z" fill="#FFA983"/>
<path d="M93.8312 126.231C89.2058 124.956 84.8536 128.242 84.8536 128.242C84.9117 121.284 88.3747 120.332 88.3747 120.332C90.1077 119.335 92.1662 122.494 93.8312 126.231Z" fill="#7257E0"/>
<path d="M197.614 263.762V267.478C197.614 267.776 197.524 268.05 197.37 268.278C197.206 268.519 196.971 268.708 196.697 268.815C196.612 268.848 196.524 268.872 196.434 268.889C196.351 268.903 196.268 268.911 196.182 268.911L136.97 268.903C136.207 268.903 135.578 268.296 135.54 267.544C135.54 267.519 135.538 267.495 135.538 267.469L135.54 263.753C135.54 263.727 135.54 263.703 135.54 263.679C135.576 262.982 136.117 262.412 136.803 262.33C136.858 262.324 136.915 262.321 136.972 262.321L196.182 262.33C196.268 262.328 196.353 262.337 196.436 262.352C196.526 262.368 196.614 262.392 196.697 262.425C196.973 262.532 197.206 262.721 197.37 262.962C197.524 263.19 197.614 263.466 197.614 263.762Z" fill="#FFAB3C"/>
<path d="M168.538 268.907L136.818 268.904C136.135 268.904 135.575 268.297 135.54 267.545C135.54 267.519 135.538 267.495 135.538 267.469L135.54 263.753C135.54 263.727 135.54 263.704 135.54 263.68C135.573 262.983 136.056 262.413 136.667 262.33C136.716 262.324 136.766 262.321 136.818 262.321L164.644 262.324L164.647 262.336C165.092 264.272 166.127 266.945 168.538 268.907Z" fill="#FF9D1B"/>
<path d="M190.41 268.911H189.737V262.328H190.41V268.911Z" fill="#FF9D1B"/>
<path d="M188.132 268.911H187.459V262.328H188.132V268.911Z" fill="#FF9D1B"/>
<path d="M185.399 268.911H184.727L184.728 262.328H185.401L185.399 268.911Z" fill="#FF9D1B"/>
<path d="M181.213 268.909H180.54L180.541 262.326H181.214L181.213 268.909Z" fill="#FF9D1B"/>
<path d="M176.785 268.909H176.112L176.114 262.326H176.787L176.785 268.909Z" fill="#FF9D1B"/>
<path d="M169.996 268.907H169.325V262.324L169.998 262.326L169.996 268.907Z" fill="#FF9D1B"/>
<path d="M163.641 268.907H162.968L162.97 262.324H163.643L163.641 268.907Z" fill="#FF9D1B"/>
<path d="M157.967 268.907L157.294 268.905V262.323L157.967 262.324V268.907Z" fill="#FF9D1B"/>
<path d="M192.578 268.911H191.905L191.907 262.328H192.58L192.578 268.911Z" fill="#FF9D1B"/>
<path d="M194.01 268.911H193.337L193.339 262.328H194.012L194.01 268.911Z" fill="#FF9D1B"/>
<path d="M195.393 268.911L194.72 268.913L194.722 262.328L195.395 262.33L195.393 268.911Z" fill="#FF9D1B"/>
<path d="M196.436 262.352L196.434 268.889C196.353 268.903 196.268 268.911 196.182 268.911H195.761L195.763 262.328L196.184 262.33C196.268 262.328 196.353 262.337 196.436 262.352Z" fill="#FF9D1B"/>
<path d="M197.37 262.962V268.278C197.206 268.519 196.971 268.708 196.697 268.815V262.425C196.972 262.532 197.206 262.721 197.37 262.962Z" fill="#FF9D1B"/>
<path d="M187.209 257.189V260.907C187.209 261.203 187.119 261.477 186.964 261.705C186.801 261.946 186.565 262.135 186.291 262.242C186.207 262.275 186.118 262.299 186.028 262.315C186.001 262.321 185.973 262.324 185.946 262.328C185.923 262.332 185.901 262.334 185.879 262.334L185.846 262.337C185.822 262.337 185.8 262.339 185.776 262.339L126.565 262.33C125.802 262.33 125.173 261.725 125.134 260.971C125.134 260.945 125.134 260.921 125.132 260.898L125.134 257.18C125.134 257.156 125.134 257.13 125.136 257.106C125.175 256.352 125.803 255.747 126.567 255.747L185.778 255.756C185.802 255.756 185.828 255.756 185.854 255.758C185.914 255.762 185.971 255.769 186.03 255.778C186.12 255.795 186.208 255.819 186.291 255.852C186.335 255.869 186.376 255.887 186.416 255.907C186.442 255.92 186.466 255.933 186.49 255.948L186.497 255.953C186.523 255.966 186.547 255.983 186.571 255.997L186.582 256.005C186.604 256.019 186.626 256.036 186.646 256.052C186.698 256.091 186.744 256.131 186.788 256.176L186.828 256.218L186.836 256.227L186.861 256.253L186.865 256.258C186.88 256.275 186.894 256.293 186.907 256.312C186.927 256.336 186.946 256.361 186.964 256.389C187.119 256.617 187.211 256.893 187.209 257.189Z" fill="#FFAB3C"/>
<path d="M158.133 262.333L126.412 262.33C125.732 262.33 125.169 261.725 125.134 260.971C125.134 260.945 125.134 260.921 125.132 260.897L125.134 257.179C125.134 257.156 125.134 257.13 125.136 257.106C125.171 256.352 125.732 255.747 126.412 255.747L154.238 255.751C154.249 255.8 154.262 255.852 154.275 255.903C154.736 257.823 155.777 260.41 158.121 262.324L158.133 262.333Z" fill="#FF9D1B"/>
<path d="M180.005 262.337H179.332V255.754H180.005V262.337Z" fill="#FF9D1B"/>
<path d="M177.726 262.337H177.053L177.055 255.754H177.726V262.337Z" fill="#FF9D1B"/>
<path d="M174.994 262.337H174.321L174.323 255.754H174.996L174.994 262.337Z" fill="#FF9D1B"/>
<path d="M170.807 262.335H170.134L170.136 255.755L170.809 255.753L170.807 262.335Z" fill="#FF9D1B"/>
<path d="M166.379 262.335H165.706L165.708 255.753H166.381L166.379 262.335Z" fill="#FF9D1B"/>
<path d="M159.593 262.335L158.92 262.334V255.753H159.593V262.335Z" fill="#FF9D1B"/>
<path d="M153.236 262.333H152.563L152.565 255.751H153.238L153.236 262.333Z" fill="#FF9D1B"/>
<path d="M147.562 262.333L146.889 262.332V255.751H147.562V262.333Z" fill="#FF9D1B"/>
<path d="M182.172 262.337H181.499L181.501 255.756L182.174 255.754L182.172 262.337Z" fill="#FF9D1B"/>
<path d="M183.605 262.337H182.932L182.934 255.756H183.607L183.605 262.337Z" fill="#FF9D1B"/>
<path d="M184.988 262.339H184.315L184.317 255.756H184.99L184.988 262.339Z" fill="#FF9D1B"/>
<path d="M186.03 255.778L186.028 262.315C185.948 262.33 185.863 262.339 185.777 262.339H185.355L185.357 255.756H185.778C185.863 255.756 185.948 255.764 186.03 255.778Z" fill="#FF9D1B"/>
<path d="M186.964 256.389V261.705C186.801 261.946 186.565 262.135 186.291 262.242L186.293 255.852C186.567 255.959 186.801 256.148 186.964 256.389Z" fill="#FF9D1B"/>
<path d="M195.242 250.759L195.24 254.477C195.24 254.773 195.15 255.047 194.996 255.276C194.832 255.517 194.597 255.707 194.323 255.811C194.238 255.845 194.152 255.87 194.06 255.885C193.979 255.9 193.895 255.909 193.808 255.909L134.596 255.9C134.368 255.9 134.15 255.845 133.957 255.747C133.526 255.532 133.217 255.102 133.171 254.6C133.17 254.58 133.168 254.561 133.166 254.541C133.166 254.515 133.166 254.491 133.166 254.467V250.749C133.166 250.725 133.166 250.7 133.168 250.676C133.203 249.979 133.743 249.409 134.429 249.328C134.484 249.321 134.541 249.317 134.598 249.317L193.81 249.326C193.895 249.326 193.979 249.334 194.062 249.348C194.152 249.365 194.24 249.389 194.323 249.424C194.599 249.528 194.832 249.718 194.996 249.959C195.15 250.189 195.242 250.463 195.242 250.759Z" fill="#FFAB3C"/>
<path d="M166.166 255.905L134.444 255.9C134.238 255.9 134.045 255.845 133.872 255.747C133.488 255.532 133.212 255.102 133.171 254.6C133.17 254.58 133.168 254.561 133.166 254.541C133.166 254.515 133.166 254.491 133.166 254.467V250.749C133.166 250.725 133.166 250.7 133.168 250.676C133.199 249.979 133.683 249.409 134.293 249.328C134.343 249.321 134.394 249.317 134.446 249.317L162.27 249.321L162.273 249.332C162.707 251.218 163.702 253.807 165.982 255.753C166.043 255.804 166.104 255.854 166.166 255.905Z" fill="#FF9D1B"/>
<path d="M188.036 255.907H187.363V249.324H188.036V255.907Z" fill="#FF9D1B"/>
<path d="M185.758 255.907H185.085V249.324H185.758V255.907Z" fill="#FF9D1B"/>
<path d="M183.026 255.907H182.353L182.354 249.324H183.027L183.026 255.907Z" fill="#FF9D1B"/>
<path d="M178.839 255.905L178.166 255.907L178.168 249.324H178.841L178.839 255.905Z" fill="#FF9D1B"/>
<path d="M174.411 255.905H173.738L173.74 249.323H174.413L174.411 255.905Z" fill="#FF9D1B"/>
<path d="M167.622 255.905H166.951V249.323H167.624L167.622 255.905Z" fill="#FF9D1B"/>
<path d="M161.268 255.903H160.595L160.596 249.321H161.269L161.268 255.903Z" fill="#FF9D1B"/>
<path d="M155.593 255.903H154.92V249.321H155.593V255.903Z" fill="#FF9D1B"/>
<path d="M190.204 255.907H189.531L189.533 249.326H190.206L190.204 255.907Z" fill="#FF9D1B"/>
<path d="M191.637 255.907L190.964 255.909L190.966 249.326H191.639L191.637 255.907Z" fill="#FF9D1B"/>
<path d="M193.019 255.909H192.346L192.348 249.326H193.021L193.019 255.909Z" fill="#FF9D1B"/>
<path d="M194.062 249.348L194.06 255.885C193.979 255.9 193.895 255.909 193.808 255.909H193.387L193.389 249.326H193.81C193.895 249.326 193.979 249.334 194.062 249.348Z" fill="#FF9D1B"/>
<path d="M194.996 249.959V255.276C194.832 255.517 194.597 255.705 194.323 255.812V249.422C194.599 249.528 194.832 249.718 194.996 249.959Z" fill="#FF9D1B"/>
<path d="M190.89 244.185L190.888 247.903C190.888 248.199 190.798 248.475 190.644 248.703C190.48 248.944 190.245 249.133 189.971 249.24C189.886 249.273 189.8 249.297 189.708 249.313C189.68 249.317 189.653 249.322 189.625 249.324L189.579 249.33L189.531 249.333C189.507 249.335 189.482 249.335 189.456 249.335L130.246 249.326C129.481 249.326 128.852 248.721 128.814 247.967C128.814 247.943 128.814 247.918 128.814 247.894V244.176C128.814 244.152 128.814 244.128 128.815 244.102C128.854 243.348 129.483 242.743 130.246 242.743L189.458 242.752C189.544 242.752 189.627 242.76 189.71 242.776C189.8 242.791 189.888 242.817 189.972 242.85C190.246 242.957 190.48 243.146 190.644 243.385C190.8 243.615 190.89 243.889 190.89 244.185Z" fill="#FFAB3C"/>
<path d="M161.814 249.332L130.091 249.326C129.411 249.326 128.848 248.721 128.814 247.967C128.814 247.944 128.814 247.918 128.814 247.894V244.176C128.814 244.152 128.814 244.128 128.815 244.102C128.85 243.348 129.411 242.744 130.093 242.744L157.917 242.749C158.361 244.683 159.394 247.357 161.801 249.321L161.814 249.332Z" fill="#FF9D1B"/>
<path d="M183.684 249.335H183.011V242.752H183.684V249.335Z" fill="#FF9D1B"/>
<path d="M181.406 249.334H180.733L180.735 242.753H181.406V249.334Z" fill="#FF9D1B"/>
<path d="M178.673 249.334H178L178.002 242.751H178.675L178.673 249.334Z" fill="#FF9D1B"/>
<path d="M174.486 249.334H173.813L173.815 242.751H174.488L174.486 249.334Z" fill="#FF9D1B"/>
<path d="M170.059 249.334H169.386L169.388 242.751H170.061L170.059 249.334Z" fill="#FF9D1B"/>
<path d="M163.272 249.332H162.599V242.749H163.272V249.332Z" fill="#FF9D1B"/>
<path d="M156.916 249.332L156.243 249.33L156.244 242.749H156.917L156.916 249.332Z" fill="#FF9D1B"/>
<path d="M151.241 242.747V249.33H150.568V242.747H151.241Z" fill="#FF9D1B"/>
<path d="M185.852 249.335H185.179L185.181 242.752H185.854L185.852 249.335Z" fill="#FF9D1B"/>
<path d="M187.284 249.335H186.611L186.613 242.752H187.286L187.284 249.335Z" fill="#FF9D1B"/>
<path d="M188.667 249.335H187.996V242.752H188.669L188.667 249.335Z" fill="#FF9D1B"/>
<path d="M189.71 242.776L189.708 249.313C189.627 249.328 189.542 249.335 189.456 249.335H189.035L189.037 242.752H189.458C189.544 242.752 189.627 242.76 189.71 242.776Z" fill="#FF9D1B"/>
<path d="M190.644 243.385V248.703C190.48 248.944 190.247 249.133 189.971 249.24L189.973 242.85C190.247 242.957 190.48 243.145 190.644 243.385Z" fill="#FF9D1B"/>
<path d="M154.446 255.153L159.151 253.737L158.363 249.335C158.363 249.335 154.827 246.468 154.24 242.749L130.882 248.572V261.899H136.807V267.197H159.256V262.339C159.256 262.339 156.059 261.703 154.446 255.153Z" fill="#FF9D1B"/>
<path d="M184.653 188.423C184.653 188.423 207.42 206.654 215.419 233.132C215.419 233.132 209.967 212.849 184.653 188.423Z" fill="white"/>
<path d="M193.674 209.596C193.674 209.596 205.023 239.752 205.256 261.219C205.256 261.219 208.524 246.555 193.674 209.596Z" fill="white"/>
<path d="M186.183 207.91C186.183 207.91 191.576 229.363 192.006 237.821C192.006 237.821 192.311 226.298 186.183 207.91Z" fill="white"/>
<path d="M109.926 113.095C109.926 113.095 112.135 113.218 113.255 113.895C113.255 113.895 111.619 115.136 109.926 113.095Z" fill="white"/>
<path d="M409.634 270.673H0.878375C0.395333 270.673 0 270.277 0 269.794C0 269.31 0.395333 268.915 0.878375 268.915H409.634C410.118 268.915 410.513 269.31 410.513 269.794C410.513 270.277 410.118 270.673 409.634 270.673Z" fill="#322C4A"/>
</svg>
