<svg width="392" height="201" viewBox="0 0 392 201" fill="none" xmlns="http://www.w3.org/2000/svg">
<path d="M351.844 199.901L34.9183 200C30.6942 191.685 28.6718 184.78 28.1428 178.791C28.0146 177.322 27.9753 175.91 28.0146 174.544C28.0962 171.764 28.5056 169.181 29.157 166.734C32.1819 155.358 40.4086 146.909 45.0188 135.201C45.7648 133.31 46.4147 131.334 46.9334 129.248C47.6008 126.558 48.0525 123.687 48.204 120.573V120.572C48.2579 119.448 48.2754 118.294 48.2492 117.103C48.2492 117.101 48.2492 117.101 48.2492 117.101C48.1749 113.8 47.7742 110.238 46.964 106.356C46.8591 105.854 46.7484 105.348 46.6289 104.835C46.5488 104.481 46.4642 104.125 46.3739 103.766C45.7386 101.183 45.2111 98.6397 44.7871 96.142C44.5555 94.7666 44.3544 93.4079 44.1839 92.06V92.0584C44.0659 91.1237 43.9624 90.1951 43.8736 89.2725C35.5375 2.42737 156.304 -29.1676 192.456 31.0749C220.393 77.6272 253.216 84.5607 264.601 76.6528C291.331 58.0862 327.764 54.9602 359.011 100.709C394.23 152.272 351.844 199.901 351.844 199.901Z" fill="#F9F7FF"/>
<path d="M391.981 200H0.0188344C0.00942637 200 0 199.991 0 199.982V199.018C0 199.008 0.00942637 199 0.0188344 199H391.981C391.992 199 392 199.008 392 199.018V199.982C392 199.991 391.992 200 391.981 200Z" fill="#2E3552"/>
<path d="M193.756 195.484L194.054 197.808L189.705 200.729L187.083 198.704L189.108 196.082L193.457 193.16L193.756 195.484Z" fill="#4A3F72"/>
<path d="M193.903 194.704L190.549 165.066L194.584 131.887L193.677 124.829L175.652 124.144L175.002 135.632L178.028 165.112L189.412 196.218L193.903 194.704Z" fill="#4A3F72"/>
<path d="M162.427 127.466L162.38 157.374L168.4 195.875L172.733 195.832L175.115 160.227L180.689 124.59L162.427 127.466Z" fill="#4A3F72"/>
<path d="M172.726 197.66L168.064 200.05L165.698 197.73L168.017 195.364L172.703 195.317L172.726 197.66Z" fill="#4A3F72"/>
<path d="M196.449 137.638C196.408 136.342 196.336 135.26 196.326 134.874C196.233 131.397 195.923 127.928 195.488 124.476C195.098 121.383 194.606 113.703 194.076 110.629C193.639 108.09 192.116 101.754 191.015 99.3997C188.278 93.5445 189.124 93.0036 177.102 91.265C171.833 90.5028 170.587 93.7865 166.28 97.5626C165.855 97.9351 165.878 100.153 165.78 100.74C165.606 101.774 165.42 102.806 165.207 103.834C165.039 104.641 164.855 105.446 164.648 106.246C162.504 114.525 160.038 122.483 159.535 131.065C159.392 133.485 158.648 135.835 158.714 138.278C158.721 138.559 158.744 138.859 158.919 139.08C159.646 139.997 163.663 138.596 164.883 138.476C167.985 138.17 171.151 137.979 174.271 138.002C177.471 138.026 180.686 138.35 183.833 138.893C185.937 139.244 188.085 139.756 189.968 140.739C191.764 141.677 193.06 143.057 194.882 144.029C195.055 144.121 195.244 144.216 195.44 144.189C196.487 144.043 196.536 140.366 196.449 137.638Z" fill="#7AC5B1"/>
<path d="M199.372 39.0204C191.395 38.0651 181.166 42.0343 178.506 48.8862C176.36 41.8582 164.243 37.1374 156.217 37.5061C135.036 38.4796 127.001 62.1372 135.357 78.5507C139.854 87.3851 146.498 95.2086 153.801 102.282C159.916 108.206 175.786 120.876 175.837 120.837C175.886 120.88 192.651 109.406 199.188 103.946C206.995 97.426 214.2 90.1103 219.34 81.6293C228.889 65.8719 220.423 41.5419 199.372 39.0204Z" fill="#D34E4E"/>
<path d="M175.737 120.767C174.913 120.15 169.155 115.553 163.451 110.77C162.994 110.386 162.538 110.003 162.085 109.619C164.423 110.251 166.857 110.573 169.356 110.573C170.732 110.573 172.128 110.476 173.538 110.278C181.843 109.115 189.502 105.004 196.086 100.205C202.895 95.2421 209.214 89.403 214.716 83.1377C217.6 79.8537 220.275 76.3802 222.604 72.7126C222.005 75.8162 220.89 78.8205 219.227 81.5646C214.087 90.0456 206.882 97.3614 199.075 103.882C192.634 109.261 176.262 120.48 175.737 120.767Z" fill="#BA4444"/>
<path d="M123.499 145.58L107.584 139.727L110.864 167.608L108.964 191.663L108.913 191.823L108.95 191.827L108.81 193.602H111.741L119.213 170.758L122.924 147.929L123.499 145.58Z" fill="#FF9362"/>
<path d="M111.922 193.274L108.666 193.192L107.834 195.939L107.917 195.964L107.896 195.966L113.279 199.156L115.838 199.44L116.164 196.515L115.473 196.009L111.922 193.274Z" fill="#4A3F72"/>
<path d="M134.341 146.059L129.412 195.317H126.583L123.249 168.163L117.762 142.492L134.341 146.059Z" fill="#FF9362"/>
<path d="M129.556 194.905L133.729 197.271L133.337 199.24L125.882 198.116L126.32 195.279L129.556 194.905Z" fill="#4A3F72"/>
<path d="M141.802 158.047C142.809 157.348 142.831 156.13 142.829 154.911C142.826 152.621 142.414 150.28 141.889 148.055C140.889 143.881 139.757 138.853 139.258 133.443C137.971 119.463 133.556 110.081 133.556 110.081L132.131 106.282C131.848 105.788 131.554 105.3 131.248 104.818C129.468 102.026 126.379 97.2818 123.075 96.505C123.006 96.4888 122.936 96.4729 122.866 96.4575C119.393 95.6951 114.941 96.0489 111.802 97.7379C111.206 98.0584 110.677 98.4851 110.151 98.9094C108.616 100.148 107.364 100.818 106.702 102.705C106.127 104.344 105.994 106.132 105.677 107.829C105.033 111.279 104.649 114.77 104.135 118.239C103.171 124.746 102.353 131.273 101.322 137.769C100.791 141.113 100.257 144.463 100.006 147.841C99.7845 150.828 97.0899 153.861 95.5756 156.538C95.0486 157.47 102.617 159.884 103.295 160.041C106.434 160.772 109.773 160.586 113.01 160.6C120.102 160.632 127.195 160.414 134.271 159.945C136.623 159.789 139.521 159.34 141.607 158.169C141.676 158.13 141.741 158.09 141.802 158.047Z" fill="#582EFF"/>
<path d="M124.543 88.934C125.148 90.7488 124.273 92.6841 123.505 94.3382C122.824 95.8048 122.587 96.7701 124.316 97.1659C125.29 97.3887 127.018 97.8049 127.873 97.0591C128.52 96.494 128.156 94.7493 127.841 94.056C127.601 93.5268 126.965 93.258 126.739 92.7227C126.646 92.5019 126.632 92.2565 126.629 92.017C126.615 91.0383 126.751 90.0581 127.029 89.1197C127.218 88.4827 127.474 87.8568 127.531 87.1948C127.613 86.235 126.934 85.1162 126.578 84.2341C125.914 82.5929 123.604 80.3916 121.67 81.68C121.229 81.9733 120.973 82.4692 120.758 82.953C120.63 83.2418 120.509 83.5434 120.505 83.8593C120.49 85.1192 121.64 85.3317 122.435 85.9314C123.415 86.6711 124.157 87.7758 124.543 88.934Z" fill="#3C384B"/>
<path d="M120.864 96.0161C122.542 95.6211 123.854 94.2123 124.484 92.6079C125.115 91.0038 125.148 89.2248 124.973 87.5099C124.393 81.8035 117.295 82.17 114.891 86.5435C112.796 90.3552 115.986 97.1654 120.864 96.0161Z" fill="#FF9362"/>
<path d="M120.862 95.4011C120.834 96.0512 120.806 96.7011 120.778 97.3512C120.774 97.4464 120.766 97.5508 120.699 97.619C120.623 97.6965 120.501 97.698 120.393 97.6942C119.863 97.676 119.334 97.6576 118.804 97.6394C118.541 97.6301 118.268 97.6185 118.037 97.4941C117.53 97.2222 117.425 96.5355 117.506 95.9661C117.587 95.3968 117.791 94.8229 117.67 94.2608C118.764 94.7996 119.803 93.5817 120.897 94.1207L120.862 95.4011Z" fill="#FF9362"/>
<path d="M118.573 77.6168C116.709 78.25 115.514 80.1353 113.695 80.8881C112.652 81.32 111.417 81.3747 110.566 82.1167C108.659 83.7789 110.192 87.2671 108.625 89.2536C108.299 89.6667 107.86 89.9789 107.533 90.3908C106.827 91.2794 106.735 92.4921 106.672 93.625C106.658 93.8799 106.655 94.1575 106.699 94.414C106.944 97.0304 110.742 96.8638 112.251 96.6962C113.907 96.5123 113.355 95.5926 113.355 95.5926L113.295 95.5191C113.136 94.4569 113.573 93.3239 114.407 92.6473C114.717 92.3962 115.083 92.1963 115.302 91.8627C115.792 91.1138 115.324 90.122 115.396 89.2298C115.686 85.6374 121.715 86.4075 123.417 83.8496C125.503 80.7133 122.093 76.4208 118.573 77.6168Z" fill="#3C384B"/>
<path d="M107.835 101.127L88.3679 118.476L91.6499 124.021L110.186 112.025L107.835 101.127Z" fill="#3E1DC1"/>
<path d="M82.4899 85.4487C81.9928 83.3297 83.3014 81.2057 85.4201 80.6997C87.5444 80.1921 89.678 81.5028 90.1853 83.627L90.186 83.6313L96.6911 99.5232C98.2226 103.265 101.23 106.208 105.004 107.658L118.82 112.965L107.957 102.812C107.781 102.675 107.616 102.522 107.467 102.353L107.461 102.348L107.462 102.348C107.081 101.916 106.797 101.389 106.654 100.79C106.187 98.8383 107.392 96.8775 109.344 96.4111C110.23 96.1996 111.115 96.3349 111.864 96.7248L111.866 96.7225L125.903 104.516C131.97 107.884 136.343 113.645 137.955 120.394L139.751 127.913C140.967 133.004 137.826 138.118 132.735 139.334C130.767 139.804 128.798 139.617 127.05 138.924C126.572 138.735 126.11 138.509 125.67 138.245L97.0533 124.172C93.2401 122.297 90.4616 118.819 89.4741 114.686L82.4892 85.449L82.4899 85.4487Z" fill="#E0E0E0"/>
<path d="M140.835 131.186L139.226 134.468L137.794 133.842L138.398 131.35L137.583 131.369L139.301 128.728L140.878 129.178L140.835 131.186Z" fill="#FF9362"/>
<path d="M128.037 97.9399L123.071 96.4683L125.462 102.907L137.051 116.151L136.951 115.07L138.278 128.787L141.352 130.418L144.981 113.443L128.037 97.9399Z" fill="#582EFF"/>
<path d="M91.3022 122.259L93.8886 121.868L93.1842 117.643L89.0944 115.96L87.3691 119.362L91.3022 122.259Z" fill="#FF9362"/>
<path d="M145.64 97.8974L146.034 95.3112L150.259 96.0207L151.937 100.112L148.532 101.833L145.64 97.8974Z" fill="#FF9362"/>
<path d="M208.248 98.3378L208.395 95.7261L204.115 95.5507L201.631 99.2095L204.608 101.595L208.248 98.3378Z" fill="#FF9362"/>
<path d="M245.611 94.526L264.116 114.587L250.052 126.528L247.972 124.021L253.48 112.574L242.691 103.061L245.611 94.526Z" fill="#FB8855"/>
<path d="M250.216 144.518L251.052 163.89L248.603 196.829L244.94 197.089L240.488 167.172L234.33 141.857L250.216 144.518Z" fill="#582EFF"/>
<path d="M245.071 198.633L249.173 200.332L251.013 198.21L248.892 196.37L244.93 196.652L245.071 198.633Z" fill="#4A3F72"/>
<path d="M224.282 137.663L223.478 152.306L225.863 195.845L229.532 196.028L235.029 167.472L239.879 136.157L224.282 137.663Z" fill="#582EFF"/>
<path d="M229.433 197.574L225.367 199.359L223.483 197.277L225.566 195.392L229.532 195.591L229.433 197.574Z" fill="#4A3F72"/>
<path d="M245.611 94.5259L234.164 93.2993C234.164 93.2993 227.796 93.9797 223.475 109.103C221.071 117.517 220.339 130.774 220.163 140.88C220.433 142.322 222.004 148.637 228.645 147.566C240.05 145.726 246.121 143.887 251.088 144.806C255.319 145.726 254.961 139.901 254.496 135.456L252.81 121.701L245.611 94.5259Z" fill="#FB8855"/>
<path d="M243.401 80.2767C240.515 79.6407 237.546 79.0709 234.657 79.6428C234.025 79.7679 233.346 79.9883 233.003 80.5342C232.869 80.7459 232.799 80.9897 232.734 81.231C232.006 83.9405 231.081 87.9567 232.864 90.4532C233.205 90.9292 233.661 91.307 234.152 91.6139C234.809 92.024 235.535 92.3029 236.286 92.4513C236.131 93.1249 235.915 93.7844 235.64 94.4189C236.301 95.4148 239.382 95.5341 239.952 94.5794C239.984 93.7531 240.016 92.927 240.048 92.1008C240.422 91.9493 240.785 91.7651 241.125 91.541C242.442 90.6738 243.31 89.3576 243.814 87.885C244.362 86.2819 245.135 84.7577 245.636 83.1236C245.819 82.5282 245.962 81.8488 245.65 81.3105C245.316 80.7376 244.596 80.5425 243.949 80.3986C243.767 80.3578 243.584 80.3171 243.401 80.2767Z" fill="#C67F60"/>
<path d="M233.797 81.8258C235.223 80.9087 237.363 80.5139 238.704 80.6109C242.758 80.9046 244.243 83.882 244.459 87.6094C245.576 86.1897 247.672 84.4044 247.799 82.5777C247.902 81.0828 247.695 79.0438 246.858 77.7527C246.074 76.5448 244.07 75.881 242.878 75.1809C241.755 74.5212 240.631 73.8612 239.508 73.2012C239.274 73.0639 239.034 72.9241 238.767 72.8779C238.451 72.8232 238.129 72.9039 237.819 72.9839C235.164 73.6702 232.509 74.3566 229.853 75.0429C229.343 75.1746 228.762 75.3672 228.574 75.8593C228.46 76.1589 228.527 76.4933 228.596 76.8062C228.897 78.1847 229.476 79.5938 229.619 80.9899C229.781 81.8011 230.265 85.9591 231.701 85.4793C232.123 84.7898 232.186 83.94 232.515 83.2016C232.758 82.6557 233.219 82.1978 233.797 81.8258Z" fill="#3C384B"/>
<path d="M234.164 93.2997L229.933 94.5874L214.481 110.775L213.561 116.11L220.948 128.307L222.943 123.836L219.816 114.822L224.782 111.327L231.405 96.427L234.164 93.2997Z" fill="#D2622E"/>
<path d="M261.093 84.208C261.424 82.0567 259.954 80.0412 257.802 79.701C255.645 79.3603 253.62 80.8327 253.279 82.9901L253.279 82.9943L248.029 99.344C246.793 103.193 244.023 106.361 240.373 108.1L227.012 114.465L237.052 103.499C237.218 103.348 237.37 103.183 237.506 103.003L237.511 102.998L237.51 102.997C237.856 102.537 238.099 101.989 238.195 101.382C238.508 99.3993 237.155 97.5383 235.173 97.225C234.273 97.083 233.401 97.2866 232.684 97.7336L232.682 97.7316L219.293 106.593C213.507 110.422 209.595 116.506 208.513 123.36L207.306 130.995C206.489 136.166 210.019 141.019 215.189 141.837C217.188 142.152 219.136 141.813 220.825 140.986C221.287 140.76 221.73 140.499 222.148 140.202L249.584 123.947C253.24 121.781 255.74 118.097 256.403 113.9L261.094 84.2083L261.093 84.208Z" fill="#E8E9EA"/>
<path d="M207.566 120.994L209.838 119.699L211.903 123.452L209.734 127.306L206.272 125.705L207.566 120.994Z" fill="#C67F60"/>
<path d="M254.126 123.835L254.651 121.272L250.441 120.477L247.453 123.736L250.051 126.528L254.126 123.835Z" fill="#C67F60"/>
</svg>
