<svg width="571" height="307" viewBox="0 0 571 307" fill="none" xmlns="http://www.w3.org/2000/svg">
<path d="M16.3355 306.312C16.3355 306.312 -48.0165 169.888 78.8142 169.888C145.827 169.888 118.221 132.457 163.781 89.1378C209.341 45.819 368.676 11.2096 402.585 94.8596C436.499 178.51 352.691 242.022 433.672 231.126C530.992 218.034 569.438 306.312 569.438 306.312H16.3355Z" fill="#F9F7FF"/>
<path d="M530.731 289.002C524.729 284.633 512.456 287.583 503.401 290.738C502.046 288.846 500.407 286.895 498.421 284.988C517.93 272.477 544.878 245.794 530.596 243.535C518.181 241.572 501.425 265.59 492.471 280.209C483.169 273.982 468.924 269.404 447.17 270.992C390.711 275.112 346.607 238.857 314.095 250.95C288.245 260.563 264.554 265.95 241.708 264.11C242.692 247.494 242.906 214.871 229.8 211.488C216.494 208.052 229.545 245.101 236.798 263.6C235.097 263.382 233.399 263.124 231.705 262.823C227.007 253.604 219.267 241.538 210.769 241.126C202.765 240.736 212.643 251.584 222.363 260.774C194.425 254.934 161.282 277.544 160.733 304.276H509.537C509.537 304.276 508.924 300.374 506.185 295.23C519.666 294.967 537.256 293.747 530.731 289.002Z" fill="#31C5A1"/>
<path d="M144.887 283.619V304.285H236.819V283.619H144.887Z" fill="#6146CE"/>
<path d="M116.541 283.619V304.285H208.473V283.619H116.541Z" fill="#836AE9"/>
<path d="M272.985 304.276H341.438V209.025H272.985V304.276Z" fill="#D74F11"/>
<path d="M251.88 304.276H320.332V209.024H251.88V304.276Z" fill="#E77B4A"/>
<path d="M320.332 209.027L341.438 223.33V209.027H320.332Z" fill="#C7460C"/>
<path d="M122.608 230.125C122.608 230.125 109.806 239.602 107.31 239.026C104.814 238.453 116.666 228.797 116.666 228.797C112.206 226.662 98.3419 228.001 98.3419 228.001C98.3419 228.001 93.7242 242.827 91.4466 241.657C89.1697 240.488 96.2084 228.738 96.2084 228.738C91.241 228.439 85.1486 232.112 85.1486 232.112C76.8082 238.668 85.6968 248.993 85.6968 248.993C85.6968 248.993 83.9849 254.094 78.7179 258.742C78.7179 258.742 71.1955 264.281 70.673 274.178L72.0382 274.298C72.0382 274.298 74.2029 265.081 78.1358 260.723C78.2888 260.565 78.5112 260.338 78.7855 260.064C79.4264 259.472 79.8753 259.028 80.1769 258.699C82.1344 256.825 84.8397 254.441 86.143 254.21C86.143 254.21 86.0776 253.972 86.0874 253.557C86.1052 253.766 86.1236 253.981 86.143 254.21C86.5894 259.427 96.7575 263.984 103.012 264.92C109.268 265.858 107.334 263.298 105.179 259.504C103.024 255.708 96.2027 254.008 94.6466 252.261C93.0904 250.514 96.3077 250.509 100.077 252.223C103.846 253.936 104.362 258.507 110.408 261.389C116.454 264.27 125.551 254.283 125.551 254.283C120.733 254.04 113.852 248.83 114.1 247.237C114.35 245.641 125.781 249.986 127.735 250.194C129.689 250.403 134.135 247.982 134.823 240.148C135.511 232.311 122.608 230.125 122.608 230.125Z" fill="#31C5A1"/>
<path d="M54.6187 236.01C54.6187 236.01 68.7586 228.126 62.1599 217.429C62.1599 217.429 56.8813 210.86 51.2255 209.171C51.2255 209.171 54.2417 225.123 51.2255 225.499C48.2088 225.876 49.1516 207.481 49.1516 207.481C49.1516 207.481 34.2579 200.349 28.4134 200.913C28.4134 200.913 37.6514 216.491 34.6349 216.115C31.6184 215.739 21.2497 199.975 21.2497 199.975C21.2497 199.975 5.97868 197.158 3.52788 206.168C1.07707 215.177 5.03601 219.682 7.29833 220.244C9.56064 220.808 24.0772 220.62 23.7002 222.497C23.3233 224.373 13.5198 227.376 8.05251 225.687C8.05251 225.687 14.0855 240.513 22.0036 239.763C29.9217 239.013 32.3728 234.134 37.2744 233.757C42.176 233.381 45.7582 234.696 43.3071 236.01C40.8563 237.322 32.561 236.441 28.6021 239.79C24.6429 243.142 21.4382 245.206 28.7908 246.707C36.1432 248.209 49.3401 247.271 51.9794 241.639C54.6187 236.01 54.6187 236.01 54.6187 236.01Z" fill="#31C5A1"/>
<path d="M58.3893 249.709C54.4301 242.389 54.6186 236.009 54.6186 236.009C50.0942 221.743 10.5032 208.982 10.5032 208.982C60.8401 229.251 51.9793 241.638 51.9793 241.638C53.3359 242.427 55.3699 246.182 56.7815 249.065C56.9823 249.554 57.301 250.234 57.7738 251.157C57.9654 251.571 58.1186 251.914 58.2245 252.152C60.8162 258.606 59.4433 269.756 59.4433 269.756L61.014 270.175C64.4949 258.939 58.3893 249.709 58.3893 249.709Z" fill="#21836A"/>
<path d="M77.1141 225.135C77.1141 225.135 58.4753 214.744 67.1733 200.641C67.1733 200.641 74.1317 191.982 81.587 189.757C81.587 189.757 77.6108 210.785 81.587 211.279C85.5635 211.775 84.3208 187.529 84.3208 187.529C84.3208 187.529 103.953 178.128 111.658 178.87C111.658 178.87 99.4802 199.404 103.456 198.91C107.433 198.414 121.101 177.633 121.101 177.633C121.101 177.633 141.231 173.922 144.462 185.798C147.692 197.673 142.473 203.61 139.491 204.351C136.509 205.095 117.373 204.848 117.87 207.322C118.368 209.795 131.29 213.754 138.497 211.526C138.497 211.526 130.545 231.072 120.107 230.082C109.67 229.092 106.439 222.66 99.9772 222.166C93.516 221.67 88.794 223.401 92.0249 225.135C95.2554 226.866 106.19 225.701 111.409 230.118C116.628 234.535 120.853 237.257 111.16 239.235C101.468 241.216 84.0722 239.979 80.5931 232.557C77.1141 225.135 77.1141 225.135 77.1141 225.135Z" fill="#31C5A1"/>
<path d="M135.266 189.511C135.266 189.511 83.0783 206.335 77.114 225.138C77.114 225.138 77.3626 233.548 72.1434 243.198C72.1434 243.198 64.0951 255.365 68.6837 270.175L70.7541 269.622C70.7541 269.622 68.9444 254.925 72.3608 246.416C72.5001 246.103 72.7023 245.652 72.9548 245.104C73.5785 243.889 73.998 242.994 74.263 242.348C76.1238 238.55 78.8052 233.598 80.5931 232.56C80.5931 232.56 68.9129 216.232 135.266 189.511Z" fill="#21836A"/>
<path d="M76.4859 302.292C96.6499 302.292 112.996 286.02 112.996 265.946H39.9758C39.9758 286.02 56.322 302.292 76.4859 302.292Z" fill="#E77B4A"/>
<path d="M85.4698 302.015C83.9849 302.199 82.4708 302.292 80.9335 302.292C60.7703 302.292 44.4253 286.018 44.4253 265.946H53.4955C53.4955 284.49 67.4462 299.79 85.4698 302.015Z" fill="#FFA881"/>
<path d="M108.996 299.791H43.976C41.4883 299.791 39.4714 301.799 39.4714 304.276H113.5C113.5 301.799 111.483 299.791 108.996 299.791Z" fill="#E77B4A"/>
<path d="M99.6788 265.945H25.7479C25.4385 265.945 25.1879 266.194 25.1879 266.502C25.1879 266.81 25.4385 267.06 25.7479 267.06H99.6788C99.9882 267.06 100.239 266.81 100.239 266.502C100.239 266.194 99.9882 265.945 99.6788 265.945Z" fill="#D74F11"/>
<path d="M381.411 74.5545C380.354 74.3944 377.165 77.3295 377.165 77.3295C370.356 78.1126 360.4 79.9128 356.818 80.5994C354.275 81.0866 347.444 78.7676 340.768 76.1053C332.829 72.9376 325.118 69.2833 325.118 69.2833C320.714 69.0599 315.713 77.0595 324.645 82.1453C326.009 82.9218 331.13 84.2471 337.031 85.457C337.031 85.457 337.031 85.4571 337.031 85.4562C345.168 87.1255 354.784 88.5748 358.056 88.0654C361.859 87.4735 372.617 83.5547 379.019 80.5537V80.554C379.019 80.554 379.025 80.5507 379.036 80.546C379.061 80.5347 379.083 80.5237 379.105 80.5124C379.49 80.3336 381.057 79.6389 382.103 79.7003C383.304 79.7714 385.975 77.5864 386.055 77.0033C386.136 76.4205 382.471 74.7143 381.411 74.5545Z" fill="#EA8A5E"/>
<path d="M373.097 175.333L369.347 176.092C369.347 176.092 352.19 156.901 349.543 148.825C348.126 144.51 339.068 142.645 329.602 140.208C321.363 138.088 312.816 135.533 308.733 130.548C299.957 119.837 314.243 106.675 314.243 106.675C314.243 106.675 329.432 115.662 342.536 124.946C351.693 131.435 359.835 138.068 361.06 141.88C364.041 151.151 370.358 168.773 373.097 175.333Z" fill="#3F2A92"/>
<path d="M368.078 181.663H370.186C370.893 181.552 371.412 181.349 372.138 181.254C373.24 181.111 373.746 181.56 373.845 181.663C373.859 181.676 373.864 181.684 373.864 181.684H382.823C383.048 181.364 382.831 180.622 382.62 180.075C382.479 179.704 382.169 179.423 381.784 179.312C380.833 179.038 378.961 178.794 377.243 177.249C376.281 176.381 372.586 174.057 372.586 174.057L372.567 174.052C372.484 174.054 372.1 174.172 370.417 175.585C369.548 176.313 368.067 174.555 368.067 174.555C368.067 174.555 367.789 174.784 367.583 175.211C367.415 175.547 367.294 176.01 367.388 176.58C367.523 177.384 367.094 178.877 366.747 179.887C366.541 180.499 366.365 180.933 366.365 180.933C366.365 180.933 366.264 181.437 368.078 181.663Z" fill="#332569"/>
<path d="M342.536 124.934L329.602 140.196C321.363 138.076 312.814 135.521 308.734 130.535C299.957 119.824 314.242 106.663 314.242 106.663C314.242 106.663 329.434 115.649 342.536 124.934Z" fill="#311F79"/>
<path d="M330.785 116.961C330.785 116.961 329.743 120.234 328.043 125.159C325.897 131.386 322.701 140.252 319.234 148.475C318.471 150.281 317.696 152.058 316.914 153.768C314.03 160.095 311.079 165.519 308.481 168.275C303.809 173.23 292.457 205.086 292.457 205.086L289.628 204.306C289.628 204.306 285.682 177.105 299.654 161.626C299.805 161.461 299.921 161.27 299.936 161.048C299.938 161.047 299.938 161.045 299.938 161.042C300.125 158.751 300.791 148.491 302.238 138.094C302.592 135.542 302.996 132.985 303.447 130.535C303.476 130.378 303.505 130.223 303.537 130.068C305.659 118.738 307.694 113.698 310.322 111.163L329.641 116.637L330.785 116.961Z" fill="#3F2A92"/>
<path d="M289.309 209.007H291.419C292.125 208.896 292.646 208.692 293.37 208.597C294.472 208.454 294.977 208.903 295.077 209.007C295.091 209.021 295.098 209.027 295.098 209.027H304.056C304.281 208.706 304.065 207.964 303.853 207.418C303.71 207.047 303.4 206.766 303.015 206.655C302.064 206.38 300.193 206.138 298.476 204.592C297.511 203.724 293.816 201.399 293.816 201.399L293.798 201.395C293.716 201.397 293.331 201.515 291.649 202.927C290.782 203.656 289.3 201.898 289.3 201.898C289.3 201.898 289.022 202.127 288.815 202.553C288.649 202.89 288.526 203.353 288.622 203.924C288.756 204.726 288.326 206.219 287.982 207.23C287.772 207.842 287.595 208.275 287.595 208.275C287.595 208.275 287.495 208.78 289.309 209.007Z" fill="#332569"/>
<path d="M293.452 79.9769C293.452 79.9769 290.219 87.8476 286.493 95.5097C283.358 101.953 279.875 108.246 277.667 109.59C274.553 111.482 265.976 116.824 260.41 120.809C260.41 120.809 256.068 120.776 255.392 121.604C254.719 122.432 253.161 126.15 253.617 126.526C254.072 126.903 257.523 126.728 258.361 125.872C259.094 125.126 260.722 124.589 261.127 124.464C261.152 124.456 261.177 124.449 261.202 124.441C261.213 124.438 261.22 124.436 261.22 124.436V124.436C267.981 122.365 278.589 118.051 281.799 115.94C284.565 114.124 290.693 106.607 295.58 99.9197C295.583 99.9197 295.583 99.9197 295.583 99.9197C299.127 95.07 302.018 90.6577 302.501 89.1688C305.667 79.4217 296.557 76.8586 293.452 79.9769Z" fill="#FFAC86"/>
<path d="M310.356 49.1075C309.974 48.552 309.584 48.0591 309.2 47.6171C309.679 47.6286 310.195 47.5823 310.625 47.4041C311.762 46.939 312.278 43.3518 312.106 42.2895C311.936 41.2249 310.36 38.1492 308.417 37.8437C306.473 37.5359 304.465 39.6859 304.465 39.6859C304.825 38.133 308.112 37.2397 308.112 37.2397C301.34 38.4825 301.687 42.9792 301.731 43.3957C295.533 41.1971 291.893 52.8196 291.893 52.8196L307.952 62.2412C307.952 62.2412 307.994 59.6723 309.526 59.839C311.916 60.0958 313.905 54.2568 310.356 49.1075Z" fill="#3A2E6A"/>
<path d="M311.379 73.4934C307.693 75.2221 302.805 72.7305 302.83 72.7049C303.147 72.3899 303.034 71.4497 302.746 70.2179C302.456 68.9325 301.771 67.1781 300.508 65.0807C300.246 64.6351 299.981 64.1895 299.664 63.7183L300.086 63.562L307.246 60.7064C307.246 60.7064 308.406 62.7758 309.615 64.6631C310.641 66.2356 311.722 67.6493 312.195 67.598C312.223 67.57 316.959 70.8198 311.379 73.4934Z" fill="#FFAC86"/>
<path d="M307.249 61.4099C307.064 63.9519 306.198 68.5379 302.747 70.2158C302.459 68.9312 301.774 67.176 300.511 65.0796L307.249 61.4099Z" fill="#EA8A5E"/>
<path d="M300.09 67.9697C300.09 67.9697 309.412 64.3107 307.032 58.5683C304.657 52.826 304.257 48.4855 298.206 50.578C292.156 52.6682 291.912 55.3324 292.238 57.4409C292.565 59.5494 297.605 68.7724 300.09 67.9697Z" fill="#FFAC86"/>
<path d="M303.564 57.2651C307.871 56.6595 309.126 54.9274 309.126 54.9274C309.126 54.9274 305.162 53.7963 302.835 49.9322C302.835 49.9322 297.996 48.3074 294.41 51.0221C294.192 51.3055 294.036 51.6369 293.958 52.0299C293.136 51.7602 291.901 51.8311 291.188 54.1413C290.118 57.6147 293.926 61.4058 293.926 61.4058C294.851 61.1475 293.809 58.0512 293.662 56.4013C293.556 55.1834 294.215 53.6295 294.571 52.8914C295.026 53.4787 299.568 59.1595 305.112 59.3857C305.112 59.3857 302.18 58.3757 299.515 56.3968C300.842 57.0457 302.251 57.4502 303.564 57.2651Z" fill="#3A2E6A"/>
<path d="M329.127 85.3197C329.049 85.0423 328.963 84.7553 328.875 84.4584C330.258 81.826 330.94 79.4515 331.226 77.4419C331.859 73.1965 330.781 70.5763 330.781 70.5763C330.781 70.5763 324.315 67.1629 321.46 66.7298C321.446 66.725 321.436 66.7201 321.424 66.7177C321.39 66.7152 321.351 66.7104 321.311 66.7079C318.428 66.3114 312.188 67.5814 312.188 67.5814C312.188 67.5814 313.393 70.7709 309.999 72.8973C306.602 75.0212 302.975 72.3523 302.975 72.3523C302.868 72.4253 302.75 72.5056 302.633 72.5907L302.631 72.5883C302.631 72.5883 293.698 78.4564 292.897 79.797C292.093 81.1399 288.657 87.7794 288.657 87.7794C288.657 87.7794 289.746 93.3531 301.814 93.8178C302.806 96.2142 303.567 98.5498 303.813 100.499C304.771 108.066 303.659 114.034 304.776 118.45C305.893 122.867 326.031 120.348 329.677 119.499C333.323 118.649 332.502 114.773 332.783 111.007C333.137 106.275 330.317 89.4921 329.127 85.3197Z" fill="#836AE9"/>
<path d="M331.227 77.4527C330.937 79.471 330.254 81.8548 328.859 84.5C328.543 83.1133 327.254 78.0286 325.173 75.7223C325.173 75.7223 328.674 76.0369 331.227 77.4527Z" fill="#674BD6"/>
<path d="M249.239 127.034C249.239 127.034 252.991 122.508 253.799 121.973C254.607 121.438 258.149 120.501 258.352 120.689C258.554 120.878 258.563 121.152 258.124 121.538C257.687 121.923 256.009 122.897 256.248 123.007C256.49 123.117 261.543 120.611 262.274 121.454C263.003 122.296 261.86 125.775 259.911 127.443C257.965 129.11 252.149 129.822 251.784 130.054C248.681 132.029 249.239 127.034 249.239 127.034Z" fill="#EA8A5E"/>
<path d="M183.193 116.583C183.193 116.583 188.584 122.947 195.445 120.284C195.445 120.284 196.922 116.73 196.943 114.108C196.945 113.786 196.95 113.473 196.954 113.177C196.991 110.226 197.091 108.569 197.091 108.569C197.091 108.569 197.088 108.569 197.084 108.569C196.772 108.44 186.592 104.279 186.601 104.624C186.776 112.606 183.193 116.583 183.193 116.583Z" fill="#FFAC86"/>
<path d="M187.623 106.531C188.604 108.342 191.973 111.886 196.954 113.18C196.991 110.23 197.091 108.573 197.091 108.573C197.091 108.573 197.088 108.573 197.084 108.573C196.802 108.498 187.332 105.996 187.623 106.531Z" fill="#EA8A5E"/>
<path d="M199.224 108.264C199.224 108.264 187.776 110.943 186.209 103.82C184.643 96.6974 182.11 92.2465 189.353 90.2364C196.597 88.224 198.618 90.6307 199.722 92.8811C200.826 95.1337 202.16 107.385 199.224 108.264Z" fill="#FFAC86"/>
<path d="M186.601 105.764C186.444 105.864 183.981 106.616 179.316 97.3655C178.583 95.9128 178.085 92.7719 179.792 89.9957C181.499 87.2196 187.552 85.0372 192.581 84.0877C197.61 83.1381 198.816 85.955 200 88.7856C201.243 91.7566 204.833 94.2041 204.833 94.2041C200.499 96.6154 195.274 93.1662 193.464 93.7327C191.655 94.3015 191.017 97.1389 190.881 98.0499C190.744 98.9586 190.537 99.7156 188.26 98.902C185.986 98.0907 187.232 102.113 187.596 102.881C187.596 102.881 187.905 104.93 186.601 105.764Z" fill="#A45B3A"/>
<path d="M157.112 283.616H150.18C148.727 283.616 147.112 282.147 146.708 279.462C146.304 276.772 143.317 275.305 142.67 273.105C142.024 270.907 145.336 267.809 145.336 267.809L145.889 267.09L146.466 266.343L151.956 267.646C151.956 267.646 152.092 268.965 152.176 270.646C152.235 271.859 152.267 273.261 152.199 274.49C152.037 277.424 153.013 280.581 155.596 281.152C158.181 281.723 157.112 283.616 157.112 283.616Z" fill="#3A2E6A"/>
<path d="M205.366 283.682H186.993C186.817 283.648 186.683 283.61 186.603 283.567C185.376 282.937 185.761 278.123 185.907 276.636C185.936 276.36 185.957 276.199 185.957 276.199C185.957 276.199 192.417 270.903 193.305 274.959C193.335 275.084 193.367 275.209 193.401 275.331V275.333C194.523 279.127 199.536 280.852 202.434 281.332C204.646 281.701 205.22 283.023 205.366 283.682Z" fill="#3A2E6A"/>
<path d="M201.664 177.908C201.664 177.908 200.683 190.095 199.529 204.744C197.96 224.646 196.075 249.091 195.891 253.721C195.568 261.762 194.275 274.625 194.275 274.625C194.275 274.625 191.206 277.682 185.067 276.393C185.067 276.393 179.596 258.032 178.035 238.603C178.01 238.284 177.985 237.964 177.962 237.642C176.507 217.865 174.247 176.219 174.247 176.219L201.664 177.908Z" fill="#EC7843"/>
<path d="M201.664 177.909C201.664 177.909 200.683 190.096 199.529 204.745L178.035 238.604C178.01 238.285 177.985 237.965 177.962 237.644C176.507 217.866 174.247 176.22 174.247 176.22L201.664 177.909Z" fill="#E0652E"/>
<path d="M197.182 179.354C197.182 179.354 179.496 223.492 167.866 244.234C156.238 264.977 152.604 270.765 152.604 270.765C152.604 270.765 145.941 268.114 145.335 266.303C145.335 266.303 149.782 226.259 157.57 216.498C161.971 210.982 167.14 194.43 167.383 188.639C167.625 182.851 168.956 171.395 168.956 171.395L197.182 179.354Z" fill="#EC7843"/>
<path d="M156.688 172.002C156.688 172.002 156.23 177.514 155.895 178.361C155.559 179.207 153.323 181.831 153.064 181.793C152.805 181.756 152.651 181.549 152.781 181.015C152.913 180.481 153.684 178.831 153.44 178.873C153.195 178.916 150.636 183.563 149.617 183.302C148.597 183.04 147.601 179.736 148.207 177.402C148.814 175.068 152.93 171.403 153.087 171.027C154.42 167.838 156.688 172.002 156.688 172.002Z" fill="#EA8A5E"/>
<path d="M154.79 173.401C156.748 174.026 157.062 173.885 157.062 173.885C157.062 173.885 166.589 156.615 167.554 155.035C168.519 153.454 187.785 135.669 187.785 135.669L182.833 117.291C182.833 117.291 160.923 145.537 158.556 149.591C154.646 156.288 152.355 171.844 152.355 171.844C152.355 171.844 153.253 172.909 154.79 173.401Z" fill="#311F79"/>
<path d="M205.397 142.883C205.329 146.658 205.108 150.901 204.81 155.21C204.792 155.466 204.774 155.721 204.756 155.977C204.567 158.646 204.359 161.322 204.123 163.931C204.029 164.978 203.927 166.012 203.822 167.027L203.806 167.165C203.799 167.545 203.752 167.957 203.711 168.333C202.743 178.107 201.73 185.829 201.543 185.947C201.318 186.097 201.065 186.171 200.79 186.137C198.215 185.816 190.532 186.398 184.245 185.036C178.938 183.921 174.367 181.809 169.525 178.96C168.884 178.582 167.417 177.58 167.538 176.831C167.654 176.009 167.871 174.819 168.146 173.325C169.1 168.126 170.746 159.184 171.308 148.718C171.417 146.768 171.577 144.843 171.784 142.95C172.323 138.019 173.188 133.335 174.349 129.175C176.505 121.445 179.674 115.526 183.648 113.21C184.167 112.922 186.963 114.692 189.528 116.331C191.901 117.844 194.395 118.263 196.822 118.051L198.957 120.403C201.546 123.397 204.3 127.383 205.051 133.048C205.108 133.466 205.156 133.911 205.197 134.384C205.404 136.691 205.457 139.612 205.397 142.883Z" fill="#402A9A"/>
<path d="M205.397 142.886C205.329 146.661 205.108 150.903 204.81 155.213C204.792 155.468 204.774 155.724 204.755 155.979C190.05 146.816 187.785 130.047 187.785 130.047C195.019 130.363 200.767 132.018 205.197 134.386C205.404 136.694 205.457 139.615 205.397 142.886Z" fill="#311F79"/>
<path d="M251.472 127.489C250.714 125.447 249.535 125.58 249.535 125.58C249.535 125.58 227.668 131.005 225.705 131.238C223.745 131.471 202.16 122.848 202.16 122.848C202.16 122.848 193.665 119.052 189.686 122.518C186.228 125.53 186.071 129.344 186.879 132.548C187.844 136.367 191.088 139.187 195.012 139.685C203.818 140.801 221.387 142.903 225.068 142.393C233.263 141.257 251.834 130.585 251.834 130.585C251.834 130.585 252.067 129.093 251.472 127.489Z" fill="#402A9A"/>
<path d="M467.08 167.392C467.08 167.392 470.117 170.195 469.526 172.186C468.932 174.177 466.191 175.505 465.82 177.94C465.452 180.374 463.968 181.701 462.635 181.701C461.302 181.701 456.276 181.701 456.276 181.701C456.276 181.701 455.294 179.988 457.664 179.472C460.038 178.956 460.928 176.096 460.78 173.44C460.632 170.784 461.003 167.244 461.003 167.244L466.043 166.064L467.08 167.392Z" fill="#3A2E6A"/>
<path d="M429.219 181.37C428.912 181.524 427.827 181.63 426.341 181.701H411.96C412.012 181.275 412.346 179.758 414.698 179.38C417.355 178.95 421.956 177.413 422.98 174.031C423.016 173.923 423.044 173.811 423.071 173.699C423.883 170.086 429.812 174.805 429.812 174.805C429.812 174.805 429.83 174.95 429.854 175.196C429.994 176.525 430.344 180.811 429.219 181.37Z" fill="#3A2E6A"/>
<path d="M415.4 84.6968C415.4 84.6968 416.299 95.8781 417.357 109.319C418.796 127.577 420.527 150.004 420.697 154.253C420.992 161.63 422.177 173.431 422.177 173.431C422.177 173.431 424.993 176.235 430.626 175.053C430.626 175.053 435.644 158.207 437.077 140.383C437.099 140.09 437.124 139.796 437.143 139.502C438.476 121.357 440.551 83.148 440.551 83.148L415.4 84.6968Z" fill="#4A3891"/>
<path d="M415.4 84.6927C415.4 84.6927 416.299 95.8739 417.357 109.315L437.077 140.378C437.099 140.086 437.124 139.792 437.143 139.498C438.476 121.353 440.551 83.1439 440.551 83.1439L415.4 84.6927Z" fill="#3A2E6A"/>
<path d="M419.509 86.0251C419.509 86.0251 435.736 126.52 446.404 145.55C457.076 164.58 460.409 169.891 460.409 169.891C460.409 169.891 466.523 167.457 467.078 165.797C467.078 165.797 462.998 129.058 455.852 120.103C451.814 115.042 447.074 99.8554 446.848 94.5442C446.63 89.2337 445.406 78.7225 445.406 78.7225L419.509 86.0251Z" fill="#4A3891"/>
<path d="M369.462 64.0593C369.462 64.0593 365.064 63.0581 364.321 63.1088C363.58 63.1595 360.99 64.2382 360.955 64.4492C360.92 64.6574 361.043 64.8283 361.491 64.8577C361.939 64.887 363.411 64.6975 363.318 64.8764C363.226 65.0553 358.981 65.8856 358.935 66.7347C358.887 67.5864 361.212 69.1671 363.178 69.2739C365.141 69.378 369.006 67.1058 369.339 67.0764C372.147 66.8335 369.462 64.0593 369.462 64.0593Z" fill="#FFAC86"/>
<path d="M367.582 65.1661C366.947 63.1648 367.097 62.8457 367.097 62.8457C367.097 62.8457 384.938 53.2419 386.572 52.2679C388.206 51.2945 406.642 31.7624 406.642 31.7624L425.527 36.9365C425.527 36.9365 396.302 59.0983 392.112 61.4846C385.193 65.4286 369.165 67.6606 369.165 67.6606C369.165 67.6606 368.075 66.7382 367.582 65.1661Z" fill="#E0652E"/>
<path d="M412.362 22.2726C412.362 22.2726 405.743 33.8681 399.271 35.3813C399.271 35.3813 399.54 31.489 401.116 28.8212C400.471 28.066 399.903 27.3692 399.411 26.7452C397.783 24.6693 397.01 23.3952 397.01 23.3952L399.203 17.5172L400.697 13.5287C401.411 14.8232 402.199 15.9282 403.025 16.87C407.266 21.7245 412.362 22.2726 412.362 22.2726Z" fill="#FFAC86"/>
<path d="M403.026 16.8647C403.026 16.8647 403.817 22.6746 399.413 26.7407C397.785 24.6619 397.011 23.3905 397.011 23.3905L399.206 17.5118C401.562 16.796 403.026 16.8647 403.026 16.8647Z" fill="#EA8A5E"/>
<path d="M395.266 24.2502C395.266 24.2502 405.16 20.4107 402.662 14.3171C400.167 8.2206 399.763 3.62024 393.342 5.81131C386.918 8.00525 386.652 10.8281 386.99 13.0622C387.324 15.2992 392.629 25.0915 395.266 24.2502Z" fill="#FFAC86"/>
<path d="M446.368 81.7787C442.378 87.4901 412.541 95.1212 412.895 91.1676C413.031 89.6548 413.214 86.9873 412.889 83.3701C412.816 82.523 412.712 81.6255 412.573 80.6759C411.815 75.4814 410.014 68.8018 406 61.0707C405.7 60.4912 405.384 59.9079 405.058 59.3161C403.406 56.3225 401.998 53.1581 400.924 50.0636C398.855 44.117 398.024 38.4273 399.066 34.7073C399.069 34.6894 399.076 34.6734 399.082 34.6551C405.317 31.7842 407.737 20.6516 407.737 20.6516C407.737 20.6516 429.011 24.4533 440.932 52.6871C440.932 52.6871 449.839 76.8072 446.368 81.7787Z" fill="#EC7843"/>
<path d="M412.892 83.3682C412.817 82.5208 412.713 81.6239 412.575 80.674C411.817 75.4794 410.016 68.8001 405.999 61.0687C406.689 56.9079 407.642 53.4478 408.687 51.8906C412.931 45.56 415.401 44.57 415.401 44.57C415.401 44.57 421.765 71.2871 412.892 83.3682Z" fill="#E0652E"/>
<path d="M379.353 77.0132C379.353 77.0132 373.467 77.3207 372.553 77.6482C371.642 77.9752 368.776 80.2519 368.809 80.5268C368.839 80.8011 369.054 80.971 369.626 80.8499C370.199 80.7282 371.983 79.9671 371.928 80.2236C371.876 80.4802 366.843 83.0334 367.088 84.1179C367.339 85.2023 370.824 86.3597 373.332 85.7938C375.834 85.2278 379.87 80.9995 380.278 80.8455C383.716 79.5398 379.353 77.0132 379.353 77.0132Z" fill="#FFAC86"/>
<path d="M378.238 79.2412C377.061 77.3446 377.91 76.4794 377.91 76.4794C377.91 76.4794 396.094 62.307 397.518 60.875C398.943 59.4436 405.546 36.644 405.546 36.644C405.546 36.644 407.816 27.4173 413.14 26.4011C417.762 25.5168 420.957 27.795 423.05 30.4658C425.54 33.6463 425.787 38.0349 423.718 41.5031C419.075 49.2919 409.71 64.75 406.976 67.3912C400.891 73.269 380.524 81.4834 380.524 81.4834C380.524 81.4834 379.166 80.7304 378.238 79.2412Z" fill="#EC7843"/>
<path d="M404.083 2.99274C404.152 2.85469 404.354 2.71089 404.843 2.56134C404.843 2.56134 404.383 2.40601 403.849 2.52393C403.571 1.84805 402.895 0.700535 401.63 0.691908C401.63 0.691908 402.355 0.878828 402.624 1.60359C400.89 0.507818 397.672 0.191463 389.644 2.85181C379.061 6.36058 384.348 12.4779 385.951 12.9669C387.558 13.4587 390.51 10.3123 393.162 9.88087C395.82 9.45234 397.256 13.1337 398.267 13.4385C399.281 13.7463 398.703 12.9065 399.767 12.0695C400.827 11.2297 401.434 13.2027 401.41 14.5889C401.387 15.9752 403.456 17.2896 403.456 17.2896C403.456 17.2896 403.456 17.2895 404.669 15.0779C405.88 12.8633 405.55 4.82478 404.392 3.38101C404.291 3.25159 404.19 3.12217 404.083 2.99274Z" fill="#3F2A92"/>
<path d="M569.92 306.405H0.749756C0.337445 306.405 0 306.054 0 305.621V305.061C0 304.631 0.337445 304.277 0.749756 304.277H569.92C570.331 304.277 570.669 304.631 570.669 305.061V305.621C570.669 306.054 570.331 306.405 569.92 306.405Z" fill="#393257"/>
<path d="M236.819 283.384V295.306L208.473 283.384H236.819Z" fill="#5E44C1"/>
<path d="M385.668 181.694V304.276H479.416V181.694H385.668Z" fill="#6146CE"/>
<path d="M356.759 181.695V304.276H450.511V181.695H356.759Z" fill="#836AE9"/>
<path d="M479.416 181.698V200.029L450.51 181.698H479.416Z" fill="#5E44C1"/>
</svg>
