<svg width="489" height="264" viewBox="0 0 489 264" fill="none" xmlns="http://www.w3.org/2000/svg">
<path d="M18.1838 263.455C18.1838 263.455 -25.0804 197.452 22.2689 125.995C64.2803 62.5936 130.566 113.008 168.124 48.4941C219.345 -39.4844 474.96 -5.1261 442.589 130.232C426.922 195.735 513.689 198.116 481.412 263.594L18.1838 263.455Z" fill="#F9F7FF"/>
<path d="M104.128 42.69C104.032 42.1551 102.779 36.429 93.9482 37.4071C93.9482 37.4071 98.3432 37.295 99.3657 39.0916C99.3657 39.0916 96.083 37.166 93.7958 38.2714C91.5086 39.3769 90.7112 43.7937 90.8974 45.1794C91.0837 46.5668 93.0611 50.8376 94.6372 50.9955C95.2348 51.0549 95.8917 50.9208 96.4792 50.7289C96.166 51.4217 95.8714 52.1791 95.6056 53.0146C93.144 60.7445 97.7811 67.2738 100.637 66.0613C102.469 65.2836 103.478 68.4642 103.478 68.4642L119.8 50.7527C119.802 50.7527 110.968 37.6414 104.128 42.69Z" fill="#2C3A64"/>
<path d="M125.392 256.013L121.422 257.495C121.422 257.495 104.179 233.507 102.056 212.403C101.677 208.635 101.804 204.984 102.623 201.613C102.623 201.613 102.454 200.647 102.16 198.94C102.024 198.144 101.855 197.184 101.664 196.086C101.103 192.864 100.331 188.456 99.4491 183.436C97.4209 171.886 94.7917 157.12 92.75 146.266L93.82 145.921L105.393 142.177L107.785 134.557L116.403 132.282C116.403 132.282 118.328 136.06 120.049 153.904C120.368 156.244 120.655 158.825 120.872 161.625C121.543 170.169 121.592 180.767 120.053 192.883C119.657 195.984 119.159 199.186 118.539 202.476C118.085 204.887 118.018 208.175 118.209 211.95C119.079 229.199 125.392 256.013 125.392 256.013Z" fill="#2B478B"/>
<path d="M120.875 161.622L102.161 198.94C102.025 198.144 101.856 197.184 101.665 196.086C101.104 192.864 100.332 188.456 99.4501 183.436C97.4219 171.886 94.7927 157.12 92.751 146.266L93.8209 145.921L105.394 142.177L107.786 134.557L116.404 132.282C116.404 132.282 118.329 136.06 120.05 153.904C120.369 156.242 120.656 158.824 120.875 161.622Z" fill="#233862"/>
<path d="M112.642 137.069L112.209 133.343C104.951 135.277 85.5581 127.939 85.5581 127.939C85.5581 127.939 78.5271 134.139 79.4498 149C79.9001 156.252 80.7229 187.073 81.5829 196.194C81.8944 199.5 82.1653 201.852 82.2771 202.791C82.2788 202.796 82.2788 202.798 82.2788 202.8C82.3126 203.087 82.2127 203.357 82.0671 203.608C80.8008 205.763 79.7528 208.006 78.8945 210.3C70.4567 232.853 80.1947 260.626 80.1947 260.626L82.7206 259.606C82.7206 259.606 88.2618 228.698 92.7634 215.043C93.5269 212.727 94.26 210.907 94.9321 209.82C96.8892 206.651 98.7057 201.474 100.355 195.314C103.471 183.67 105.979 168.525 107.65 156.833C107.882 156.843 112.642 137.069 112.642 137.069Z" fill="#2B478B"/>
<path d="M124.344 107.2C124.486 107.346 124.623 107.492 124.791 107.628C130.994 113.426 139.349 118.552 143.818 119.681C146.759 120.435 153.241 119.425 158.623 118.314C162.211 117.605 165.333 116.82 166.621 116.513C167.032 116.416 167.261 116.345 167.261 116.345L166.699 112.704C166.699 112.704 163.472 112.447 159.463 111.994C153.88 111.335 146.801 110.325 144.988 109.25C140.783 106.743 133.403 96.2303 127.483 89.6212C127.173 89.2612 126.865 88.9148 126.56 88.5751C126.337 88.3272 126.115 88.0827 125.893 87.845C125.847 87.7974 125.791 87.7193 125.719 87.6785C125.446 87.417 125.216 87.1725 124.992 86.9585C124.984 86.9314 124.945 86.9127 124.908 86.8906C123.855 85.831 122.011 84.5438 122.011 84.5438C120.977 83.9528 120.125 83.8374 119.526 84.3417C119.526 84.3417 118.752 85.1008 117.994 86.5323C117.833 86.8312 117.674 87.1606 117.523 87.5206C117.398 87.7176 117.335 87.9265 117.274 88.1353C116.771 89.4582 116.406 91.1189 116.472 93.0565C116.517 94.5237 116.797 96.142 117.447 97.9267C118.478 100.856 121.092 104.111 124.344 107.2Z" fill="#FFB27D"/>
<path d="M118.943 91.8426C116.841 93.2198 114.22 94.3303 110.952 94.9909C98.702 97.4668 94.3274 87.0182 92.7749 79.8843C94.4611 78.9792 96.0288 78.8128 96.9345 78.7296C97.8166 78.6498 98.7443 78.6073 99.5113 78.5904C100.908 77.5783 103.065 73.3398 103.703 66.6797L104.272 66.8495L113.79 69.7533C113.79 69.7533 113.265 72.7997 112.967 75.6849C112.737 77.9417 112.65 80.1034 113.062 80.6451C113.805 80.8285 114.252 80.9474 114.252 80.9474C114.252 80.9474 114.252 80.9508 114.257 80.9559C114.379 81.1749 117.034 85.8431 118.943 91.8426Z" fill="#FFB27D"/>
<path d="M123.208 99.5194C123.152 99.781 123.082 100.037 123.006 100.301C120.856 107.513 119.116 136.342 119.116 136.342C120.255 139.945 99.3687 140.684 87.8514 139.018C83.6629 138.413 80.7138 137.491 80.5106 136.274C78.4502 131.614 83.4936 122.911 86.4056 118.488C86.7712 117.932 87.0861 117.348 87.3452 116.744C88.0037 115.222 88.3203 113.565 88.2543 111.894C88.1663 109.608 87.9716 107.389 87.7346 105.308C87.2893 101.387 86.6917 97.964 86.3802 95.5407C86.3802 95.5407 86.3802 95.5407 86.3802 95.539C86.9863 94.9345 87.5754 94.3741 88.1256 93.8409C88.9637 93.019 89.6984 92.2582 90.2131 91.5196C90.7802 90.7146 91.0951 89.9284 91.0257 89.1048C90.9715 88.4816 90.8598 87.8499 90.704 87.2267C90.6312 86.9312 90.55 86.6391 90.4619 86.3454C89.5274 83.2717 87.8057 80.6125 87.8057 80.6125C90.9241 78.7836 96.9325 78.7275 96.9325 78.7275C96.9325 78.7275 96.9731 79.057 97.0493 79.5953C97.3422 81.757 98.1633 87.298 99.0047 88.2456C100.056 89.4275 116.668 92.8526 117.245 90.9575C117.814 89.0946 114.384 81.2544 114.255 80.9572C114.252 80.9521 114.252 80.947 114.252 80.947C119.571 82.2155 121.882 83.6487 121.987 83.7336C121.987 83.7336 121.984 83.7336 121.982 83.7319C119.095 86.2706 124.723 92.6081 123.208 99.5194Z" fill="#FF9843"/>
<path d="M113.788 69.758C113.788 69.758 113.261 72.8011 112.967 75.6879C107.548 74.9883 105.171 69.7275 104.27 66.8525L113.788 69.758Z" fill="#ED985F"/>
<path d="M115.33 72.6753C115.33 72.6753 102.452 71.597 103.244 63.5614C104.036 55.5276 102.909 49.9764 111.166 50.3262C119.422 50.6743 120.714 53.8991 121.1 56.6449C121.486 59.3908 118.701 72.7483 115.33 72.6753Z" fill="#FFB27D"/>
<path d="M121.165 52.1399C119.417 49.5231 117.863 49.9035 116.949 50.5454C110.308 45.9638 105.208 51.2399 105.208 51.2399C103.773 56.9184 99.2998 59.8036 99.2998 59.8036C99.2998 59.8036 101.499 61.4915 107.04 60.6408C108.733 60.3809 110.324 59.3519 111.719 58.0511C109.166 61.5085 105.926 63.857 105.926 63.857C112.678 61.5136 116.169 52.7699 116.522 51.8444C117.237 52.6307 118.63 54.322 118.952 55.8741C119.389 57.9849 119.257 62.2251 120.494 62.2047C120.492 62.203 123.784 56.0626 121.165 52.1399Z" fill="#2C3A64"/>
<path d="M178.626 112.223C177.338 113.455 176.036 116.533 172.069 116.474C169.238 116.45 166.374 116.769 164.986 116.941C164.446 117.036 164.132 117.073 164.132 117.073L163.99 112.567C163.99 112.567 164.048 112.572 164.176 112.551C165.135 112.407 170.002 111.656 171.929 110.374C174.091 108.921 179.148 110.267 179.148 110.267C179.148 110.267 179.923 111.016 178.626 112.223Z" fill="#FFB27D"/>
<path d="M94.886 262.698H74.8919C74.8919 262.698 74.4128 259.641 75.4574 257.322C76.4579 255.097 78.0256 254.085 77.6498 251.394C78.9195 252.706 80.9917 254.175 83.8816 253.785C84.2355 254.36 86.1672 257.442 87.3506 258.295C88.6558 259.237 94.4831 258.901 94.886 262.698Z" fill="#233862"/>
<path d="M137.816 262.698H117.822C117.822 262.698 117.074 259.499 118.388 257.322C119.549 255.396 119.104 254.299 118.244 252.706C119.149 253.078 120.321 253.416 121.611 253.343C122.606 253.285 123.661 252.832 124.584 252.293C125.444 253.277 129.129 257.466 130.281 258.296C131.588 259.237 137.413 258.901 137.816 262.698Z" fill="#233862"/>
<path d="M112.26 68.0277C112.26 68.0277 112.439 69.0907 115.05 69.0941C115.05 69.0941 117.241 69.0958 117.246 67.9411C117.246 67.9411 115.18 66.9868 112.26 68.0277Z" fill="white"/>
<path d="M90.5804 119.095C89.7898 124.12 86.1668 134.204 87.8514 139.02C83.6629 138.415 80.7138 137.493 80.5106 136.275C78.4502 131.616 83.4936 122.913 86.4056 118.489C86.7712 117.934 87.0861 117.35 87.3452 116.745C88.0037 115.224 88.3203 113.566 88.2543 111.895C88.1663 109.61 87.9716 107.39 87.7345 105.31C87.7345 105.31 91.4218 113.755 90.5804 119.095Z" fill="#ED7D2B"/>
<path d="M118.882 85.1926C119.021 89.6586 122.241 101.919 123.006 100.301C123.88 98.455 127.261 91.4383 128.849 91.1802C128.766 90.8558 122.267 83.649 121.982 83.7322C121.98 83.7339 120.215 84.2739 118.882 85.1926Z" fill="#FF9843"/>
<path d="M88.2244 148.547L84.9078 150.761C84.9078 150.761 84.0681 149.708 82.7391 148.027C82.3413 147.521 82.1297 147.215 82.1297 147.215C81.0783 145.857 79.856 144.189 78.5185 142.381L78.4965 142.36C76.2567 139.203 73.7951 135.615 71.9125 132.37C70.6039 130.069 69.5847 127.94 69.0869 126.265C69.0328 126.097 69.0023 125.951 68.9684 125.761C67.995 121.514 69.7811 113.083 72.6236 104.855C73.0147 103.718 73.4261 102.599 73.8205 101.505C75.3323 97.4703 77.0321 93.6783 78.7386 90.6149C79.7392 88.7724 80.7363 87.166 81.698 85.9671C82.0315 85.5375 82.3447 85.1334 82.6833 84.7886C82.8661 84.5798 83.0489 84.3794 83.2301 84.1875C85.2227 84.3556 89.4027 85.1486 92.5059 88.7419C92.4534 88.9304 92.3976 89.1189 92.3417 89.3125C91.0872 93.371 89.1504 98.3516 87.1426 103.234C86.0506 105.915 84.9332 108.576 83.9547 111.079C83.3334 112.575 82.773 114.002 82.2651 115.319C81.3103 117.841 80.6009 119.94 80.3199 121.412C80.1286 122.367 80.4011 124.161 80.9141 126.369C81.7944 130.217 83.4705 135.398 85.0297 139.796C85.6663 141.632 86.2944 143.34 86.8192 144.756C87.6555 147.049 88.2244 148.547 88.2244 148.547Z" fill="#FFB27D"/>
<path d="M89.6757 101.445C86.3625 96.4291 76.8666 94.2708 76.8666 94.2708C82.2249 77.2165 96.2936 78.7975 96.2936 78.7975C96.2936 78.7975 91.1757 96.5412 89.6757 101.445Z" fill="#FF9843"/>
<path d="M84.9082 150.762C84.9082 150.762 85.7801 152.053 85.8766 152.98C85.9748 153.909 86.8027 156.986 87.8726 157.963C88.9443 158.939 91.3788 160.893 91.7191 160.6C92.0594 160.306 93.0464 158.003 92.1322 156.375C91.7191 155.639 91.1587 153.59 90.4206 153.094C89.5233 152.491 88.2231 148.546 88.2231 148.546L84.9082 150.762Z" fill="#FFB27D"/>
<path d="M88.2383 149.047C88.2383 149.047 90.8759 150.391 91.2331 151.466C91.5904 152.54 93.065 154.707 92.9126 154.959C92.7501 155.227 90.4578 153.761 89.679 152.427C88.9002 151.092 88.2383 149.047 88.2383 149.047Z" fill="#FFB27D"/>
<path d="M151.012 136.551L247.613 78.5425C252.941 75.3432 259.591 75.3432 264.917 78.5425L361.518 136.551V231.096L151.013 220.51V136.551H151.012Z" fill="#ED7D2B"/>
<path d="M343.398 94.6597H169.131V245.718H343.398V94.6597Z" fill="#FCECDB"/>
<path d="M176.932 102.909C177.846 102.529 178.28 101.478 177.901 100.561C177.523 99.6444 176.475 99.2091 175.561 99.5888C174.647 99.9685 174.213 101.02 174.592 101.936C174.97 102.853 176.018 103.288 176.932 102.909Z" fill="#EFCBAB"/>
<path d="M334.388 101.25C334.388 100.258 335.19 99.4531 336.179 99.4531C337.168 99.4531 337.97 100.258 337.97 101.25C337.97 102.241 337.168 103.046 336.179 103.046C335.188 103.048 334.388 102.243 334.388 101.25Z" fill="#EFCBAB"/>
<path d="M336.179 101.054H176.242V101.445H336.179V101.054Z" fill="#EFCBAB"/>
<path d="M176.437 100.536H176.047V260.96H176.437V100.536Z" fill="#EFCBAB"/>
<path d="M336.436 100.536H336.047V260.96H336.436V100.536Z" fill="#EFCBAB"/>
<path d="M361.517 136.289V262.696H151.012V136.289L256.264 199.493L361.517 136.289Z" fill="#FF9362"/>
<path d="M151.011 262.698L247.428 193.363C252.71 189.564 259.817 189.564 265.099 193.363L361.516 262.698H151.011Z" fill="#E17442"/>
<path d="M288.396 115.587H224.858C223.936 115.587 223.181 114.83 223.181 113.905C223.181 112.979 223.936 112.222 224.858 112.222H288.396C289.319 112.222 290.074 112.979 290.074 113.905C290.074 114.83 289.319 115.587 288.396 115.587Z" fill="#EFCBAB"/>
<path d="M304.762 122.339H208.491C207.569 122.339 206.813 121.581 206.813 120.656C206.813 119.731 207.569 118.973 208.491 118.973H304.762C305.685 118.973 306.44 119.731 306.44 120.656C306.44 121.581 305.685 122.339 304.762 122.339Z" fill="#EFCBAB"/>
<path d="M292.279 143.277H222.625C221.958 143.277 221.411 142.728 221.411 142.059C221.411 141.39 221.958 140.842 222.625 140.842H292.279C292.946 140.842 293.493 141.39 293.493 142.059C293.491 142.73 292.946 143.277 292.279 143.277Z" fill="#EFCBAB"/>
<path d="M229.618 149.635H209.978C209.311 149.635 208.764 149.086 208.764 148.417C208.764 147.748 209.311 147.2 209.978 147.2H229.618C230.285 147.2 230.832 147.748 230.832 148.417C230.832 149.088 230.285 149.635 229.618 149.635Z" fill="#EFCBAB"/>
<path d="M259.237 149.635H235.51C234.843 149.635 234.296 149.086 234.296 148.417C234.296 147.748 234.843 147.2 235.51 147.2H259.237C259.904 147.2 260.451 147.748 260.451 148.417C260.451 149.088 259.906 149.635 259.237 149.635Z" fill="#EFCBAB"/>
<path d="M304.924 149.635H263.905C263.238 149.635 262.691 149.086 262.691 148.417C262.691 147.748 263.238 147.2 263.905 147.2H304.924C305.591 147.2 306.138 147.748 306.138 148.417C306.138 149.088 305.591 149.635 304.924 149.635Z" fill="#EFCBAB"/>
<path d="M259.394 157.028H221.241C220.574 157.028 220.027 156.48 220.027 155.811C220.027 155.142 220.574 154.593 221.241 154.593H259.394C260.061 154.593 260.608 155.142 260.608 155.811C260.608 156.48 260.061 157.028 259.394 157.028Z" fill="#EFCBAB"/>
<path d="M293.66 157.028H263.609C262.942 157.028 262.395 156.48 262.395 155.811C262.395 155.142 262.942 154.593 263.609 154.593H293.66C294.327 154.593 294.873 155.142 294.873 155.811C294.873 156.48 294.327 157.028 293.66 157.028Z" fill="#EFCBAB"/>
<path d="M270.111 172.059C267.817 173.969 265.36 175.562 262.774 177.016C262.992 176.328 263.175 175.613 263.141 174.978C263.095 174.102 262.398 173.718 261.7 173.354C261.527 173.264 261.367 173.169 261.206 173.074C261.477 172.808 261.616 172.439 261.436 172.037C261.141 171.373 260.315 171.48 260.036 172.094C259.983 172.208 259.955 172.318 259.941 172.425C259.829 172.366 259.743 172.301 259.669 172.211C260.094 171.415 260.495 170.603 260.864 169.775C260.947 169.588 260.842 169.369 260.693 169.255C260.08 168.791 259.244 168.941 258.751 169.523C258.167 170.214 258.314 171.266 258.594 172.05C258.614 172.104 258.634 172.161 258.658 172.215C258.116 173.196 257.527 174.149 256.895 175.076C256.836 175.017 256.777 174.957 256.718 174.9C256.554 174.738 256.377 174.533 256.225 174.305C256.515 173.55 256.699 172.755 256.768 171.93C256.799 171.561 256.432 171.379 256.123 171.493C255.274 171.809 254.816 172.675 254.927 173.567C254.964 173.872 255.064 174.164 255.202 174.436C255.013 174.849 254.788 175.249 254.522 175.635C254.349 175.885 254.473 176.139 254.676 176.258C254.397 177.189 254.022 178.14 253.383 178.81C252.859 179.357 251.884 179.773 251.248 179.123C250.845 178.712 250.794 178.024 250.738 177.481C250.603 176.141 250.501 174.75 250.55 173.402C250.574 172.763 250.642 172.115 250.858 171.512C250.994 171.137 251.183 170.569 251.365 171.215C251.454 171.532 251.331 172.023 251.298 172.346C251.241 172.921 252.131 172.988 252.189 172.415C252.257 171.739 252.558 170.323 251.796 169.9C251.165 169.549 250.584 170.053 250.291 170.58C249.238 172.475 249.658 175.076 249.815 177.136C249.942 178.778 250.554 180.794 252.644 180.271C254.612 179.78 255.335 177.292 255.787 175.581C255.815 175.474 255.805 175.377 255.773 175.294C255.78 175.28 255.788 175.265 255.797 175.251C255.878 175.334 255.959 175.414 256.042 175.497C256.159 175.601 256.269 175.71 256.376 175.822C256.169 176.109 255.959 176.394 255.743 176.676C255.621 176.836 255.656 177.075 255.778 177.223C256.44 178.023 257.63 177.43 257.607 176.447C257.601 176.219 257.546 176.017 257.458 175.832C258.079 174.935 258.66 174.012 259.198 173.064C259.477 173.339 259.834 173.516 260.271 173.495C260.302 173.494 260.331 173.49 260.361 173.487C260.59 173.73 260.877 173.932 261.14 174.081C261.394 174.224 261.687 174.314 261.915 174.501C262.34 174.849 262.213 175.246 262.12 175.74C261.996 176.391 261.792 177.039 261.602 177.674C260.703 178.192 259.816 178.849 259.513 179.889C259.237 180.836 259.482 181.833 260.292 182.421C260.535 182.597 260.859 182.455 260.962 182.198C261.47 180.947 261.929 179.675 262.321 178.383C262.333 178.342 262.347 178.299 262.36 178.259C263.154 177.805 263.986 177.406 264.771 176.941C266.855 175.703 268.833 174.292 270.697 172.74C271.144 172.364 270.554 171.69 270.111 172.059ZM259.254 170.865C259.245 170.507 259.435 169.849 259.846 169.858C259.66 170.262 259.467 170.663 259.267 171.058C259.262 170.994 259.255 170.928 259.254 170.865ZM260.39 181.22C260.014 180.514 260.552 179.643 261.167 179.067C260.926 179.792 260.666 180.509 260.39 181.22Z" fill="#F99746"/>
<g opacity="0.5">
<path opacity="0.5" d="M252.502 32.6245L261.576 52.7066L228.133 67.91L219.059 47.8279L240.317 50.2681L252.502 32.6245Z" fill="#CDE0FB"/>
<path opacity="0.5" d="M219.059 47.8286L252.502 32.6235L242.503 49.5267C241.714 50.8598 240.185 51.5645 238.663 51.2945L219.059 47.8286Z" fill="#B1CFF2"/>
</g>
<g opacity="0.5">
<path opacity="0.5" d="M55.8894 163.756L60.6619 176.596L39.2796 184.594L34.5054 171.753L47.5837 174.174L55.8894 163.756Z" fill="#CDE0FB"/>
<path opacity="0.5" d="M34.5055 171.753L55.8895 163.754L48.972 173.809C48.4269 174.602 47.4483 174.972 46.5155 174.741L34.5055 171.753Z" fill="#B1CFF2"/>
</g>
<g opacity="0.5">
<path opacity="0.5" d="M422.078 87.3303L415.37 112.544L373.383 101.304L380.09 76.0903L397.73 94.3181L422.078 87.3303Z" fill="#CDE0FB"/>
<path opacity="0.5" d="M380.09 76.0903L422.078 87.3286L400.284 95.2826C398.566 95.9092 396.639 95.4049 395.447 94.0124L380.09 76.0903Z" fill="#B1CFF2"/>
</g>
<path d="M46.6765 220.53C46.6765 220.53 46.6749 220.53 46.6765 220.53C45.6608 220.526 44.6771 220.513 43.7494 220.487C43.641 220.484 43.5564 220.394 43.5598 220.287C43.5632 220.178 43.6495 220.095 43.7595 220.097C44.6839 220.122 45.6658 220.136 46.6765 220.139C46.7849 220.139 46.8712 220.228 46.8712 220.335C46.8712 220.443 46.7832 220.53 46.6765 220.53ZM49.602 220.508C49.4954 220.508 49.409 220.423 49.4073 220.316C49.4056 220.209 49.492 220.119 49.5986 220.117C50.5348 220.102 51.5185 220.076 52.5207 220.044C52.6325 220.036 52.7188 220.126 52.7222 220.233C52.7256 220.341 52.6409 220.431 52.5343 220.435C51.5286 220.469 50.5433 220.493 49.6054 220.51C49.6037 220.508 49.6037 220.508 49.602 220.508ZM40.8341 220.362C40.8307 220.362 40.8256 220.362 40.8222 220.362C39.7912 220.299 38.8093 220.219 37.9018 220.122C37.7952 220.11 37.7173 220.015 37.7291 219.907C37.741 219.8 37.8375 219.722 37.9442 219.733C38.8465 219.83 39.8234 219.91 40.8476 219.973C40.9543 219.98 41.0372 220.071 41.0305 220.18C41.022 220.282 40.9373 220.362 40.8341 220.362ZM55.4513 220.318C55.348 220.318 55.2617 220.236 55.2566 220.131C55.2515 220.024 55.3344 219.932 55.4428 219.927C56.3807 219.883 57.3626 219.832 58.3632 219.774C58.4698 219.771 58.563 219.851 58.5697 219.958C58.5765 220.065 58.4935 220.158 58.3869 220.163C57.3863 220.221 56.401 220.272 55.4631 220.316C55.458 220.318 55.4546 220.318 55.4513 220.318ZM61.2937 219.98C61.1922 219.98 61.1058 219.902 61.099 219.798C61.0923 219.691 61.1735 219.598 61.2802 219.589C62.2401 219.525 63.2119 219.453 64.1972 219.379C64.3039 219.37 64.3987 219.452 64.4054 219.559C64.4139 219.666 64.3326 219.761 64.226 219.767C63.2407 219.842 62.2672 219.913 61.3056 219.978C61.3039 219.98 61.2988 219.98 61.2937 219.98ZM35.0288 219.716C35.017 219.716 35.0051 219.716 34.995 219.713C33.9199 219.519 32.9566 219.289 32.1305 219.025C32.0272 218.993 31.9713 218.883 32.0035 218.779C32.0356 218.676 32.1457 218.619 32.249 218.652C33.0582 218.91 34.0063 219.137 35.0644 219.328C35.171 219.346 35.2405 219.448 35.2218 219.555C35.2032 219.65 35.122 219.716 35.0288 219.716ZM67.1294 219.535C67.0296 219.535 66.9432 219.458 66.9347 219.356C66.9263 219.249 67.0059 219.154 67.1125 219.146C68.0741 219.064 69.0459 218.979 70.0261 218.889C70.1345 218.879 70.2276 218.959 70.2378 219.066C70.2479 219.173 70.1683 219.268 70.0617 219.278C69.0798 219.368 68.108 219.453 67.1464 219.535C67.1396 219.535 67.1345 219.535 67.1294 219.535ZM72.9567 219.005C72.8568 219.005 72.7721 218.929 72.7637 218.828C72.7535 218.721 72.8314 218.625 72.9381 218.614C73.9014 218.521 74.8714 218.422 75.8483 218.322C75.955 218.314 76.0514 218.389 76.0616 218.497C76.0718 218.604 75.9956 218.701 75.8872 218.711C74.9104 218.811 73.9386 218.91 72.9753 219.003C72.9685 219.005 72.9618 219.005 72.9567 219.005ZM78.7755 218.406C78.6773 218.406 78.5926 218.331 78.5825 218.231C78.5706 218.124 78.6485 218.027 78.7551 218.015C79.7184 217.911 80.6885 217.803 81.662 217.692C81.7686 217.68 81.8651 217.757 81.877 217.864C81.8888 217.971 81.8127 218.068 81.706 218.079C80.7308 218.19 79.7625 218.297 78.7975 218.402C78.7907 218.406 78.7822 218.406 78.7755 218.406ZM29.5571 217.794C29.5182 217.794 29.4776 217.782 29.442 217.757C28.8782 217.344 28.4702 216.877 28.2315 216.369C28.0571 215.999 27.9115 215.627 27.7981 215.264C27.766 215.16 27.8235 215.052 27.9268 215.019C28.0284 214.987 28.1384 215.045 28.1706 215.148C28.2772 215.493 28.4161 215.848 28.5837 216.203C28.7953 216.651 29.161 217.067 29.6722 217.441C29.7586 217.504 29.7789 217.626 29.7146 217.714C29.6756 217.765 29.6164 217.794 29.5571 217.794ZM84.5891 217.748C84.491 217.748 84.408 217.675 84.3962 217.575C84.3843 217.468 84.4605 217.371 84.5671 217.358C85.5321 217.244 86.4988 217.128 87.4706 217.011C87.5773 216.999 87.6738 217.074 87.6873 217.181C87.7008 217.288 87.6247 217.387 87.518 217.399C86.5462 217.517 85.5779 217.633 84.6129 217.747C84.6044 217.748 84.5976 217.748 84.5891 217.748ZM90.3978 217.042C90.3013 217.042 90.2166 216.969 90.2048 216.87C90.1912 216.763 90.2674 216.665 90.3741 216.653C91.3357 216.532 92.3007 216.41 93.2657 216.285C93.3723 216.273 93.4705 216.347 93.4841 216.454C93.4976 216.561 93.4231 216.66 93.3165 216.673C92.3498 216.797 91.3865 216.921 90.4232 217.042C90.413 217.042 90.4062 217.042 90.3978 217.042ZM96.1861 216.295C96.0896 216.295 96.0066 216.223 95.9931 216.125C95.9795 216.018 96.054 215.919 96.1607 215.906C97.1274 215.779 98.0941 215.648 99.0608 215.517C99.1691 215.503 99.2656 215.578 99.2791 215.685C99.2944 215.792 99.2182 215.891 99.1115 215.904C98.1448 216.035 97.1765 216.166 96.2098 216.293C96.203 216.295 96.1945 216.295 96.1861 216.295ZM101.991 215.507C101.895 215.507 101.812 215.435 101.798 215.339C101.783 215.232 101.858 215.133 101.964 215.118C102.931 214.984 103.896 214.848 104.861 214.712C104.966 214.697 105.066 214.772 105.081 214.878C105.096 214.985 105.022 215.084 104.915 215.099C103.95 215.235 102.983 215.371 102.018 215.505C102.01 215.507 102 215.507 101.991 215.507ZM107.785 214.687C107.69 214.687 107.607 214.617 107.592 214.518C107.576 214.411 107.651 214.313 107.758 214.298C108.724 214.158 109.689 214.018 110.653 213.877C110.759 213.86 110.857 213.934 110.874 214.041C110.89 214.148 110.817 214.247 110.71 214.262C109.747 214.403 108.782 214.544 107.815 214.683C107.803 214.687 107.793 214.687 107.785 214.687ZM113.573 213.836C113.478 213.836 113.395 213.766 113.38 213.669C113.365 213.562 113.438 213.464 113.544 213.447C114.513 213.303 115.476 213.157 116.436 213.011C116.542 212.994 116.641 213.068 116.658 213.175C116.675 213.282 116.6 213.381 116.495 213.398C115.535 213.544 114.57 213.69 113.602 213.834C113.592 213.836 113.581 213.836 113.573 213.836ZM119.356 212.958C119.261 212.958 119.178 212.888 119.163 212.791C119.146 212.684 119.219 212.584 119.326 212.569C120.294 212.42 121.259 212.27 122.216 212.121C122.322 212.105 122.422 212.177 122.437 212.284C122.454 212.391 122.382 212.491 122.275 212.506C121.317 212.656 120.353 212.805 119.383 212.955C119.377 212.956 119.366 212.958 119.356 212.958ZM27.793 212.513C27.7795 212.513 27.7676 212.511 27.7541 212.51C27.6491 212.488 27.5797 212.386 27.6017 212.28C27.7897 211.348 28.2281 210.45 28.907 209.613C28.9747 209.528 29.0966 209.516 29.1813 209.584C29.2642 209.652 29.2778 209.774 29.2101 209.859C28.5718 210.648 28.1587 211.489 27.9843 212.358C27.964 212.448 27.8828 212.513 27.793 212.513ZM125.138 212.053C125.043 212.053 124.96 211.985 124.945 211.888C124.928 211.781 125.001 211.681 125.107 211.664C126.077 211.509 127.041 211.357 127.995 211.202C128.1 211.185 128.202 211.258 128.219 211.363C128.236 211.47 128.163 211.571 128.058 211.587C127.103 211.74 126.14 211.895 125.168 212.049C125.158 212.053 125.148 212.053 125.138 212.053ZM130.916 211.126C130.823 211.126 130.74 211.058 130.725 210.961C130.708 210.854 130.779 210.754 130.885 210.737C131.857 210.579 132.82 210.421 133.772 210.265C133.879 210.248 133.978 210.319 133.995 210.426C134.012 210.533 133.941 210.633 133.835 210.65C132.881 210.806 131.92 210.964 130.946 211.122C130.936 211.124 130.926 211.126 130.916 211.126ZM136.689 210.175C136.596 210.175 136.513 210.107 136.498 210.012C136.481 209.905 136.552 209.804 136.658 209.787C137.634 209.624 138.595 209.463 139.545 209.304C139.653 209.285 139.752 209.358 139.77 209.465C139.789 209.572 139.716 209.672 139.611 209.689C138.661 209.849 137.7 210.01 136.724 210.173C136.711 210.175 136.701 210.175 136.689 210.175ZM142.462 209.203C142.369 209.203 142.286 209.135 142.271 209.04C142.252 208.933 142.325 208.833 142.43 208.814C143.408 208.648 144.37 208.483 145.315 208.32C145.42 208.302 145.521 208.373 145.54 208.48C145.558 208.585 145.487 208.687 145.381 208.706C144.436 208.869 143.474 209.033 142.496 209.2C142.482 209.202 142.472 209.203 142.462 209.203ZM148.23 208.21C148.137 208.21 148.056 208.144 148.039 208.049C148.02 207.942 148.091 207.841 148.198 207.823C149.181 207.651 150.145 207.483 151.081 207.318C151.188 207.3 151.288 207.371 151.306 207.476C151.325 207.583 151.254 207.683 151.149 207.702C150.211 207.867 149.249 208.035 148.264 208.207C148.252 208.208 148.242 208.21 148.23 208.21ZM31.2162 207.974C31.1553 207.974 31.0944 207.945 31.0571 207.891C30.9962 207.802 31.0165 207.68 31.1062 207.619C31.8426 207.104 32.701 206.605 33.6609 206.136C33.7574 206.089 33.8742 206.13 33.9216 206.227C33.969 206.323 33.9284 206.44 33.8319 206.488C32.8906 206.948 32.0492 207.437 31.3297 207.94C31.2924 207.962 31.2535 207.974 31.2162 207.974ZM153.998 207.196C153.905 207.196 153.824 207.13 153.807 207.035C153.788 206.928 153.859 206.828 153.964 206.809C154.96 206.632 155.921 206.461 156.847 206.294C156.952 206.274 157.054 206.345 157.072 206.452C157.091 206.559 157.022 206.66 156.915 206.678C155.989 206.845 155.027 207.016 154.032 207.193C154.02 207.196 154.008 207.196 153.998 207.196ZM159.763 206.162C159.669 206.162 159.588 206.096 159.571 206.001C159.553 205.895 159.622 205.793 159.729 205.773C160.746 205.588 161.708 205.413 162.612 205.248C162.719 205.228 162.818 205.299 162.839 205.405C162.857 205.51 162.788 205.612 162.681 205.632C161.777 205.799 160.816 205.973 159.798 206.159C159.786 206.162 159.774 206.162 159.763 206.162ZM36.4374 205.359C36.3578 205.359 36.2833 205.309 36.2546 205.231C36.2173 205.129 36.2681 205.017 36.3697 204.98C37.2331 204.657 38.171 204.343 39.1597 204.048C39.263 204.017 39.3713 204.075 39.4018 204.179C39.4323 204.282 39.3747 204.391 39.2714 204.421C38.2912 204.715 37.3618 205.026 36.5068 205.345C36.4831 205.354 36.4594 205.359 36.4374 205.359ZM165.531 205.106C165.439 205.106 165.356 205.039 165.339 204.946C165.319 204.841 165.39 204.739 165.495 204.719C166.594 204.515 167.56 204.335 168.38 204.18C168.485 204.16 168.588 204.229 168.607 204.336C168.627 204.442 168.558 204.545 168.451 204.564C167.63 204.719 166.663 204.899 165.564 205.102C165.554 205.104 165.542 205.106 165.531 205.106ZM171.305 204.019C171.214 204.019 171.133 203.954 171.114 203.861C171.094 203.756 171.163 203.652 171.268 203.632C171.466 203.594 171.578 203.572 171.602 203.567C171.717 203.54 171.84 203.635 171.84 203.757C171.84 203.919 171.822 203.922 171.341 204.016C171.331 204.017 171.319 204.019 171.305 204.019ZM42.0412 203.662C41.9531 203.662 41.8736 203.603 41.8516 203.513C41.8262 203.408 41.8905 203.302 41.9938 203.277C42.9046 203.053 43.8679 202.835 44.86 202.632C44.9649 202.609 45.0682 202.677 45.0902 202.784C45.1122 202.89 45.0445 202.993 44.9379 203.015C43.9508 203.217 42.9926 203.433 42.0869 203.657C42.0716 203.661 42.0564 203.662 42.0412 203.662ZM47.7787 202.477C47.6856 202.477 47.6026 202.409 47.5874 202.316C47.5687 202.209 47.6399 202.109 47.7465 202.09C48.681 201.929 49.6562 201.774 50.6449 201.63C50.7532 201.613 50.8497 201.687 50.865 201.794C50.8802 201.901 50.8057 202 50.7008 202.015C49.7154 202.158 48.7437 202.312 47.8125 202.474C47.8007 202.475 47.7905 202.477 47.7787 202.477ZM53.5771 201.631C53.4806 201.631 53.396 201.558 53.3841 201.46C53.3706 201.353 53.4468 201.256 53.5534 201.242C54.5134 201.127 55.4953 201.018 56.4704 200.922C56.5771 200.913 56.6736 200.989 56.6838 201.096C56.6939 201.203 56.616 201.3 56.5094 201.31C55.5359 201.407 54.5574 201.514 53.6008 201.631C53.5924 201.631 53.5856 201.631 53.5771 201.631ZM59.4111 201.052C59.3096 201.052 59.2249 200.974 59.2164 200.872C59.208 200.765 59.2892 200.67 59.3959 200.662C61.2057 200.522 62.3315 200.473 62.3434 200.473C62.4517 200.465 62.5415 200.553 62.5465 200.66C62.5516 200.767 62.467 200.859 62.3603 200.864C62.3502 200.864 61.2294 200.911 59.4264 201.051C59.4213 201.052 59.4162 201.052 59.4111 201.052Z" fill="#AFCDFB"/>
<path d="M177.819 214.311L201.815 200.67L179.925 201.968L181.613 205.676L177.091 210.701L177.819 214.311Z" fill="#AFCDFB"/>
<path d="M201.815 200.67L176.669 205.293L158.353 218.051L201.815 200.67Z" fill="white"/>
<path d="M179.925 201.968L201.815 200.67L178.916 193.939L179.925 201.968Z" fill="white"/>
<path d="M307.623 35.0807L334.866 39.4059L316.936 26.7412L315.954 30.6979L309.295 31.8016L307.623 35.0807Z" fill="#AFCDFB"/>
<path d="M334.867 39.4057L312.325 27.3083L290.074 25.8428L334.867 39.4057Z" fill="white"/>
<path d="M316.937 26.7412L334.867 39.4059L321.135 19.8315L316.937 26.7412Z" fill="white"/>
<path d="M390.119 145.8C390.119 145.8 384.564 146.187 380.464 156.222C376.328 166.342 385.578 166.242 382.462 172.69C379.345 179.138 386.948 182.984 389.256 188.264C391.565 193.543 403.196 206.277 404.117 212.087C405.038 217.894 415.38 206.048 415.38 206.048C415.38 206.048 425.893 194.8 422.123 188.265C415.91 177.494 421.292 175.154 421.097 169.139C420.904 163.121 409.521 139.417 390.119 145.8Z" fill="#233862"/>
<path d="M387.104 181.797C387.104 181.797 365.598 191.199 361.513 191.019C357.428 190.841 332.255 183.329 332.255 183.329L332.897 187.672C332.897 187.672 352.323 198.88 359.116 199.515C365.803 200.142 388.667 193.495 390.874 192.093C393.079 190.69 393.519 183.218 387.104 181.797Z" fill="#FFAD76"/>
<path d="M385.368 192.107C387.344 193.482 389.822 194.617 392.934 195.337C404.597 198.04 409.067 188.152 410.744 181.366C409.155 180.452 407.658 180.252 406.793 180.148C405.95 180.048 405.063 179.982 404.33 179.946C403.021 178.941 401.069 174.823 400.637 168.43L400.089 168.577L390.897 171.101C390.897 171.101 391.319 174.032 391.526 176.801C391.685 178.97 391.966 180.227 391.556 180.734C390.838 180.891 390.153 181.806 390.153 181.806C390.153 181.806 390.153 181.809 390.147 181.814C390.024 182.015 387.357 186.413 385.368 192.107Z" fill="#FFB27D"/>
<path d="M390.896 171.101C390.896 171.101 391.319 174.028 391.524 176.801C396.732 176.278 399.148 171.306 400.089 168.577L390.896 171.101Z" fill="#ED985F"/>
<path d="M389.342 173.852C389.342 173.852 401.703 173.167 401.159 165.453C400.616 157.738 401.845 152.455 393.93 152.566C386.016 152.676 384.692 155.728 384.248 158.348C383.806 160.966 386.114 173.83 389.342 173.852Z" fill="#FFB27D"/>
<path d="M414.266 217.312C415.382 211.589 419.021 188.722 415.382 181.364C414.075 178.72 408.947 178.482 403.319 178.713C401.569 179.848 394.897 184.132 392.156 183.597C392.127 183.592 392.073 183.578 392.002 183.562C390.711 183.237 390.48 181.515 391.556 180.731C391.558 180.729 388.514 181.274 385.054 181.928C383.098 182.296 377.826 185.034 377.826 185.034C377.826 185.034 380.481 189.845 384.397 191.507C383.731 197.481 384.722 200.117 390.899 213.914C396.121 225.577 390.195 236.078 390.195 236.078C390.195 236.078 420.929 260.864 421.1 248.243C421.226 238.742 412.839 224.627 414.266 217.312Z" fill="#582EFF"/>
<path d="M388.67 263.029C386.999 262.841 385.494 261.922 384.559 260.519C384.41 260.297 384.253 260.057 384.084 259.801C380.586 254.489 379.223 238.221 371.356 220.89C369.439 216.67 362.559 215.913 360.683 211.143C360.683 211.143 356.066 195.683 369.521 195.228C382.976 194.771 405.556 238.243 405.913 242.803C406.258 247.218 414.809 265.987 388.67 263.029Z" fill="#233862"/>
<path d="M335.19 262.674H354.341C354.341 262.674 355.057 259.61 353.799 257.525C352.687 255.681 353.114 254.63 353.936 253.103C353.07 253.46 351.947 253.784 350.711 253.713C349.756 253.658 348.747 253.224 347.864 252.708C347.039 253.65 343.509 257.663 342.407 258.457C341.156 259.359 335.574 259.038 335.19 262.674Z" fill="#172B4C"/>
<path d="M412.246 187.358C412.246 187.358 414.738 210.105 398.573 214.872C382.409 219.638 377.819 193.942 390.87 192.094C403.923 190.245 412.246 187.358 412.246 187.358Z" fill="#582EFF"/>
<path d="M360.245 199.695C359.092 208.368 354.589 235.738 346.645 249.091C344.084 253.395 353.097 255.808 353.146 255.797C354.355 255.479 356.37 253.547 357.297 252.706C363.748 246.876 376.839 230.367 376.839 217.132C376.839 210.679 376.953 198.354 372.273 195.221C369.392 193.294 360.704 196.252 360.245 199.695Z" fill="#233862"/>
<path d="M400.089 262.674C400.089 262.674 399.38 261.684 398.142 259.801C396.669 257.563 395.039 253.159 393.061 247.515C390.984 241.59 388.519 234.3 385.44 226.714C384.49 224.373 383.479 222.004 382.406 219.637C380.489 215.417 375.216 216.001 373.34 211.231C373.34 211.231 366.019 194.696 379.475 194.239C392.931 193.783 418.498 238.472 419.968 242.801C421.58 247.539 429.427 267.213 400.089 262.674Z" fill="#2B478B"/>
<path d="M349.249 262.674H368.4C368.4 262.674 369.116 259.61 367.858 257.525C366.746 255.681 367.173 254.63 367.995 253.103C367.128 253.46 366.006 253.784 364.77 253.713C363.815 253.658 362.806 253.224 361.923 252.708C361.098 253.65 357.568 257.663 356.466 258.457C355.215 259.359 349.633 259.038 349.249 262.674Z" fill="#233862"/>
<path d="M393.062 247.516C390.984 241.592 388.519 234.302 385.44 226.716C386.244 220.97 387.979 215.941 390.896 213.916C390.898 213.914 397.975 235.906 393.062 247.516Z" fill="#23407A"/>
<path d="M371.423 199.081C370.271 207.753 368.645 235.738 360.702 249.091C358.14 253.395 367.154 255.808 367.203 255.797C368.412 255.479 370.426 253.547 371.354 252.706C377.803 246.876 390.896 230.367 390.896 217.132C390.896 210.679 383.345 198.872 378.668 195.739C375.786 193.811 371.882 195.637 371.423 199.081Z" fill="#2B478B"/>
<path d="M347.711 176.338C347.711 176.338 346.731 173.838 344.945 173.999C343.159 174.162 326.942 176.338 326.942 176.338C326.942 176.338 328.83 176.791 329.542 178.032L337.024 200.144H356.212L347.711 176.338Z" fill="#EBF3FA"/>
<path d="M410.745 181.364C410.745 181.364 383.562 191.405 379.479 191.2C376.839 191.067 354.897 183.331 354.897 183.331L352.928 187.068C352.928 187.068 374.285 200.837 380.156 200.769C391.748 200.635 411.307 193.497 413.514 192.095C415.72 190.69 417.159 182.786 410.745 181.364Z" fill="#FFBF94"/>
<path d="M354.895 183.33C354.895 183.33 352.926 180.289 350.964 180.201C349.002 180.111 345.614 181.542 344.456 181.767C343.297 181.991 339.999 183.064 340.979 184.672C341.959 186.282 346.507 186.64 348.469 186.282C350.431 185.924 352.926 187.068 352.926 187.068L354.895 183.33Z" fill="#FFBF94"/>
<path d="M351.498 180.294C351.498 180.294 348.38 178.859 347.488 178.591C346.595 178.323 346.775 178.596 347.042 179.443C347.31 180.291 348.915 181.099 348.915 181.366C348.913 181.631 351.498 180.294 351.498 180.294Z" fill="#FFBF94"/>
<path d="M387.028 169.414C387.028 169.414 388.196 168.951 391.484 169.217C391.484 169.217 391.309 170.505 388.885 170.632C387.512 170.705 387.028 169.414 387.028 169.414Z" fill="white"/>
<path d="M396.74 186.316C396.74 186.316 399.171 194.036 407.521 195.792C407.521 195.792 421.309 191.531 414.443 182.11C414.443 182.11 407.656 177.051 396.74 186.316Z" fill="#582EFF"/>
<path d="M326.944 176.338C326.944 176.338 325.143 177.029 326.505 179.374L344.038 177.029C344.038 177.029 343.428 174.31 344.806 174.015L326.944 176.338Z" fill="white"/>
<path d="M333.225 182.11C333.641 180.439 333.614 180.035 332.673 179.014C332.05 178.34 331.096 180.013 330.604 181.021C330.423 180.576 330.115 179.851 330.01 179.814C329.857 179.761 330.22 182.061 330.22 182.061C330.209 182.156 330.206 182.252 330.209 182.349L330.208 182.348C330.208 182.348 329.448 185.727 332.761 187.552L332.129 185.689C332.515 185.625 332.803 183.808 333.225 182.11Z" fill="#FFAD76"/>
<path d="M388.873 154.27C388.873 154.27 391.478 153.355 392.741 156.024C394.003 158.694 394.404 165.077 399.463 165.599C404.521 166.12 404.718 154.787 404.718 154.787L392.056 149.772L385.37 154.005L388.873 154.27Z" fill="#233862"/>
<path d="M388.873 154.27C388.873 154.27 386.02 154.332 385.368 156.741C384.716 159.151 385.734 163.646 384.154 163.97C382.575 164.296 381.139 156.48 384.195 153.939C387.251 151.399 388.873 154.27 388.873 154.27Z" fill="#233862"/>
<path d="M164.932 112.431C164.932 112.431 167.788 111.345 168.112 110.597C168.437 109.848 169.378 109.522 170.514 109C171.65 108.479 172.332 107.535 172.495 107.666C172.657 107.796 172.689 108.447 172.236 108.936C171.78 109.425 169.855 112.843 169.131 113.234C168.404 113.626 164.932 112.431 164.932 112.431Z" fill="#FFB27D"/>
<path d="M201.142 255.235H164.871C162.846 255.235 161.204 253.588 161.204 251.557V241.636C161.204 239.605 162.846 237.958 164.871 237.958H201.142C203.166 237.958 204.809 239.605 204.809 241.636V251.557C204.809 253.588 203.166 255.235 201.142 255.235Z" fill="#FCECDB"/>
<path d="M193.764 242.253H166.443C166.138 242.253 165.887 242.003 165.887 241.696C165.887 241.39 166.136 241.139 166.443 241.139H193.764C194.069 241.139 194.319 241.388 194.319 241.696C194.319 242.001 194.069 242.253 193.764 242.253Z" fill="#EFCBAB"/>
<path d="M171.287 244.652H166.442C166.137 244.652 165.887 244.402 165.887 244.095C165.887 243.789 166.136 243.538 166.442 243.538H171.287C171.592 243.538 171.843 243.788 171.843 244.095C171.843 244.402 171.592 244.652 171.287 244.652Z" fill="#EFCBAB"/>
<path d="M186.551 244.652H173.202C172.898 244.652 172.647 244.402 172.647 244.095C172.647 243.789 172.896 243.538 173.202 243.538H186.551C186.856 243.538 187.107 243.788 187.107 244.095C187.107 244.402 186.856 244.652 186.551 244.652Z" fill="#EFCBAB"/>
<path d="M193.764 249.096H166.443C166.138 249.096 165.887 248.846 165.887 248.539C165.887 248.233 166.136 247.982 166.443 247.982H193.764C194.069 247.982 194.319 248.232 194.319 248.539C194.319 248.846 194.069 249.096 193.764 249.096Z" fill="#EFCBAB"/>
<path d="M176.358 251.495H166.442C166.137 251.495 165.887 251.246 165.887 250.938C165.887 250.633 166.136 250.381 166.442 250.381H176.358C176.663 250.381 176.913 250.631 176.913 250.938C176.913 251.246 176.664 251.495 176.358 251.495Z" fill="#EFCBAB"/>
<path d="M188.424 251.495H178.508C178.203 251.495 177.953 251.246 177.953 250.938C177.953 250.633 178.202 250.381 178.508 250.381H188.424C188.728 250.381 188.979 250.631 188.979 250.938C188.979 251.246 188.728 251.495 188.424 251.495Z" fill="#EFCBAB"/>
</svg>
