<svg width="399" height="231" viewBox="0 0 399 231" fill="none" xmlns="http://www.w3.org/2000/svg">
<path d="M374.038 230.885L7.99059 230.999C3.11178 221.395 0.775872 213.42 0.164969 206.502C0.0168711 204.806 -0.0285812 203.176 0.0168579 201.598C0.111102 198.387 0.584012 195.403 1.33628 192.577C4.83004 179.438 14.3319 169.679 19.6566 156.157C20.5183 153.973 21.2689 151.69 21.868 149.281C22.6388 146.174 23.1605 142.858 23.3355 139.262V139.26C23.3978 137.962 23.418 136.629 23.3877 135.253V135.251C23.3019 131.438 22.8391 127.324 21.9034 122.84C21.7822 122.261 21.6543 121.676 21.5163 121.084C21.4237 120.676 21.3261 120.263 21.2218 119.85C20.488 116.866 19.8788 113.928 19.3891 111.044C19.1215 109.455 18.8893 107.886 18.6923 106.329V106.327C18.556 105.247 18.4365 104.175 18.3339 103.109C8.70583 2.80362 148.19 -33.6885 189.946 35.8913C222.212 89.6591 260.124 97.6672 273.272 88.5336C304.146 67.0893 346.226 63.4788 382.316 116.318C422.994 175.873 374.038 230.885 374.038 230.885Z" fill="#F9F7FF"/>
<path d="M194.853 45.8406C194.853 45.8406 218.212 37.8539 237.589 57.3639C256.966 76.8739 252.719 133.018 228.335 148.66C203.95 164.301 179.352 149.018 172.061 143.231L171.097 164.396C171.097 164.396 185.13 153.02 204.049 162.381C222.97 171.742 224.437 198.127 224.437 198.127L122.95 198.623C122.95 198.623 120.843 170.403 145.757 161.156L148.822 123.015L176.68 124.405C176.68 124.405 194.345 142.48 214.459 132.961C234.575 123.442 232.534 83.5143 223.607 73.5251C207.41 55.4033 192.891 64.9722 192.891 64.9722L192.759 53.1247L194.853 45.8406Z" fill="#6348CE"/>
<path d="M198.59 185.2C200.429 178.534 196.35 171.685 189.479 169.902C182.608 168.119 175.547 172.076 173.708 178.741C171.869 185.406 175.95 192.256 182.821 194.039C189.692 195.822 196.751 191.865 198.59 185.2" fill="#31159E"/>
<path d="M201.027 181.655C202.866 174.99 198.786 168.142 191.915 166.358C185.044 164.574 177.984 168.531 176.145 175.198C174.306 181.863 178.387 188.711 185.258 190.495C192.129 192.279 199.189 188.32 201.027 181.655Z" fill="#CCCCCC"/>
<path d="M196.612 180.509C197.799 176.208 195.167 171.79 190.734 170.639C186.3 169.488 181.746 172.042 180.56 176.341C179.373 180.643 182.005 185.06 186.438 186.211C190.872 187.362 195.426 184.809 196.612 180.509Z" fill="#E6E6E6"/>
<path d="M171.097 164.395C171.097 164.395 154.941 176.32 155.841 198.461L145.553 198.512C145.553 198.512 145.898 174.237 171.097 164.395Z" fill="#31159E"/>
<path d="M216.637 182.697C212.022 170.777 204.475 167.081 204.475 167.081C208.731 172.251 211.02 178.547 212.248 183.586L216.637 182.697Z" fill="#BBAFEA"/>
<path d="M217.484 185.109L212.962 186.972C213.56 190.31 213.648 192.545 213.648 192.545L219.259 192.471C218.807 189.755 218.196 187.313 217.484 185.109Z" fill="#BBAFEA"/>
<path d="M116.654 197.929L117.883 209.094L233.725 208.499L233.983 197.823L116.654 197.929" fill="#331C8E"/>
<path d="M148.307 129.422C157.826 128.755 173.295 127.587 179.778 127.097C177.793 125.541 176.68 124.403 176.68 124.403L148.822 123.013L148.307 129.422" fill="#31159E"/>
<path d="M130.717 112.258L131.458 122.818L192.701 126.868L194.187 117.197L130.717 112.258Z" fill="#1C104E"/>
<path d="M194.853 45.8398L192.759 53.1238L192.891 64.9713C192.891 64.9713 200.416 60.0155 210.672 63.9972C206.648 59.9829 200.093 59.6897 200.093 59.6897L202.548 44.4034C197.839 44.8253 194.853 45.8398 194.853 45.8398" fill="#31159E"/>
<path d="M180.083 72.8212L181.758 86.4633L190.143 86.1345L190.37 73.0399L183.836 72.6769L179.469 72.6366L180.083 72.8212" fill="#140B38"/>
<path d="M183.813 32.2406L182.032 6.1399L197.301 6.49977L197.133 33.0488L187.87 32.5338L183.813 32.2406Z" fill="#311B8A"/>
<path d="M179.855 7.97107L199.726 7.9571L200.142 0.922779L178.974 -0.000168951L179.855 7.97107Z" fill="#140B38"/>
<path d="M170.199 31.1497L177.158 75.4001L194.835 74.3639L199.798 30.2376L170.199 31.1497Z" fill="#1C104E"/>
<path d="M171.022 51.8483L172.648 59.5403L198.121 58.6345L199.122 49.911L171.022 51.8483" fill="#140B38"/>
<path d="M211.718 74.4269C212.131 67.4267 206.617 61.4285 199.401 61.0267C192.185 60.6265 186.001 65.9748 185.587 72.975C185.175 79.9752 190.69 85.9734 197.904 86.3752C205.121 86.7754 211.304 81.4255 211.718 74.4269Z" fill="#CCCCCC"/>
<path d="M206.429 74.1325C206.675 69.9646 203.394 66.394 199.099 66.1551C194.804 65.9178 191.122 69.1007 190.875 73.267C190.631 77.4333 193.912 81.0055 198.207 81.2444C202.503 81.4817 206.184 78.2988 206.429 74.1325Z" fill="#E6E6E6"/>
<path d="M204.235 218.866L200.16 211.16C200.16 211.16 209.961 204.229 237.04 204.229C264.74 204.229 273.199 210.06 273.199 210.06L266.984 215.939L239.904 223.294L219.245 219.916L204.235 218.866" fill="#F2F2F2"/>
<path d="M207.481 216.54C207.481 216.54 218.483 211.887 237.103 211.887C255.724 211.887 268.203 216.54 268.203 216.54L260.823 221.868L222.044 222.92L207.481 219.692V216.54" fill="#E6E6E6"/>
<path d="M230.408 213.724C230.408 213.724 228.072 213.615 227.624 214.775C227.176 215.935 231.056 217.671 236.468 216.74C241.881 215.808 235.771 214.249 235.771 214.249L232.893 213.969L230.408 213.724" fill="#CCCCCC"/>
<path d="M229.136 214.977C229.037 215.904 231.061 216.807 235.041 216.807C238.946 216.807 240.722 215.429 240.815 215.067C240.908 214.704 239.563 211.133 234.976 211.133C230.519 211.133 229.174 214.632 229.136 214.977Z" fill="#F9BCB8"/>
<path d="M240.815 215.067C240.841 214.966 240.754 214.614 240.516 214.159C238.689 216.131 233.538 216.456 231.509 215.392C230.163 214.687 230.225 213.601 230.513 212.814C229.531 213.764 229.157 214.797 229.136 214.977C229.037 215.904 231.061 216.807 235.041 216.807C238.946 216.807 240.722 215.429 240.815 215.067" fill="#F9A19A"/>
<path d="M232.077 214.624C230.59 214.624 231.017 213.256 232.259 212.418C233.295 211.72 234.328 211.483 235.251 211.483C236.565 211.483 237.651 211.967 238.185 212.291C238.871 212.708 239.162 213.729 237.716 213.729C237.648 213.729 237.573 213.727 237.496 213.723C237.337 213.712 237.184 213.707 237.035 213.707C235.249 213.707 234.087 214.383 232.488 214.594C232.337 214.614 232.201 214.624 232.077 214.624" fill="#FBCCC8"/>
<path d="M235.187 211.822C233.684 211.818 233.559 212.816 234.834 213.135C235.876 213.397 237.122 213.036 237.122 212.606C237.122 212.341 236.396 211.825 235.187 211.822Z" fill="#8F6C6A"/>
<path d="M234.896 212.142C234.552 212.317 234.736 212.573 235.115 212.636C235.492 212.701 236.02 212.602 235.962 212.39C235.907 212.177 235.189 211.993 234.896 212.142" fill="#5C4544"/>
<path d="M226.629 215.152C226.455 215.553 225.4 215.508 224.947 215.111C224.493 214.714 224.922 213.903 225.413 213.957C226.047 214.026 226.813 214.731 226.629 215.152Z" fill="white"/>
<path d="M225.097 214.181C225.097 214.181 224.202 213.652 223.946 213.987C223.691 214.322 224.233 214.707 224.987 214.8C225.74 214.893 225.46 214.654 225.46 214.654L225.097 214.181" fill="white"/>
<path d="M224.143 214.041C224.143 214.041 222.959 213.285 221.65 213.879C220.339 214.474 220.18 215.112 218.755 214.798C217.329 214.485 216.784 214.355 215.943 215.33C215.943 215.33 216.723 214.592 217.607 214.732C218.493 214.871 219.015 215.216 219.953 215.03C220.893 214.842 222.045 213.043 224.162 214.3L224.143 214.041" fill="white"/>
<path d="M241.211 215.675C241.419 215.252 242.551 215.347 243.019 215.796C243.488 216.245 242.988 217.096 242.461 217.017C241.782 216.915 240.994 216.119 241.211 215.675" fill="white"/>
<path d="M242.813 216.791C242.813 216.791 243.75 217.401 244.041 217.051C244.332 216.702 243.768 216.264 242.962 216.13C242.156 215.995 242.445 216.265 242.445 216.265L242.813 216.791Z" fill="white"/>
<path d="M243.873 217.009C243.873 217.009 244.652 217.485 245.419 217.411C246.187 217.335 247.022 216.651 247.65 216.975C248.279 217.301 248.737 218.397 250.244 218.552C250.244 218.552 249.491 218.351 249.065 218.031C248.56 217.656 248.096 216.922 247.573 216.745C246.668 216.44 245.618 217.958 243.916 216.845L243.814 216.899L243.873 217.009Z" fill="white"/>
<path d="M245.453 213.74C245.681 213.365 246.721 213.546 247.114 213.999C247.509 214.452 246.972 215.198 246.492 215.082C245.873 214.932 245.213 214.133 245.453 213.74Z" fill="white"/>
<path d="M246.836 214.899C246.836 214.899 247.65 215.54 247.95 215.241C248.25 214.941 247.765 214.49 247.031 214.301C246.299 214.11 246.542 214.383 246.542 214.383L246.836 214.899Z" fill="white"/>
<path d="M247.763 215.166C247.763 215.166 248.83 216.07 250.211 215.651C251.593 215.231 251.838 214.62 253.206 215.116C254.575 215.612 255.098 215.812 256.067 214.955C256.067 214.955 255.192 215.586 254.334 215.333C253.477 215.079 253.006 214.669 252.05 214.733C251.094 214.796 249.704 216.43 247.779 214.907L247.763 215.166" fill="white"/>
<path d="M200.16 211.161L202.223 224.071C202.223 224.071 212.849 228.472 236.783 228.472C260.717 228.472 271.651 222.068 271.651 222.068L273.199 210.061C273.199 210.061 261.955 218.366 236.681 218.366C211.405 218.366 200.16 211.161 200.16 211.161Z" fill="#CCCCCC"/>
<path d="M236.783 228.474C260.717 228.474 271.651 222.068 271.651 222.068L271.888 220.234C215.476 232.117 200.16 211.16 200.16 211.16L202.223 224.07C202.223 224.07 212.849 228.474 236.783 228.474Z" fill="#C2C2C2"/>
<path d="M363.304 136.539V136.32L321.63 136.43L279.957 136.32V136.539L274.183 136.554V139.019C274.183 139.442 274.568 139.844 275.239 140.121L275.901 140.395C276.448 140.619 276.333 141.036 275.684 141.187C275.258 141.285 275.177 141.56 275.533 141.711L276.369 142.066C276.916 142.299 276.917 142.706 276.371 142.939L275.771 143.195C275.254 143.417 275.269 143.806 275.803 144.017L276.448 144.273C276.895 144.451 276.97 144.765 276.618 144.985L276.263 145.208C276.009 145.367 275.871 145.562 275.871 145.763V149.654H279.957H363.304H367.39V145.763C367.39 145.562 367.252 145.367 366.998 145.208L366.643 144.985C366.291 144.765 366.366 144.451 366.813 144.273L367.458 144.017C367.991 143.806 368.007 143.417 367.49 143.195L366.888 142.939C366.343 142.706 366.345 142.299 366.892 142.066L367.727 141.711C368.082 141.56 368.003 141.285 367.575 141.187C366.928 141.036 366.815 140.619 367.358 140.395L368.02 140.121C368.693 139.844 369.078 139.442 369.078 139.019V136.554L363.304 136.539" fill="#A58FFB"/>
<path d="M274.183 149.624V158.248C274.183 159.728 274.582 161.136 275.279 162.105L275.966 163.062C276.529 163.848 276.411 165.305 275.74 165.832C275.298 166.179 275.215 167.139 275.582 167.666L276.446 168.906C277.032 169.746 277.034 171.122 276.45 171.963L275.831 172.861C275.294 173.635 275.309 174.995 275.863 175.738L276.529 176.633C276.992 177.254 277.071 178.352 276.706 179.126L276.337 179.904C276.075 180.462 275.932 181.143 275.932 181.843V195.462H366.481L365.367 188.613L366.289 185.169C366.412 184.707 366.331 184.222 366.062 183.807L366.018 183.74C365.617 183.122 365.644 182.368 366.088 181.77L368.163 178.989C368.515 178.517 368.609 177.938 368.421 177.401L365.572 169.291C365.438 168.913 365.444 168.51 365.589 168.135L367.263 163.797C367.541 163.078 367.3 162.289 366.645 161.775C365.89 161.18 365.696 160.231 366.173 159.458L366.222 159.381C366.391 159.104 366.481 158.797 366.481 158.485V148.804L274.183 149.624" fill="#A58FFB"/>
<path d="M370.313 150.684H273.905C273.25 150.684 272.72 150.154 272.72 149.498C272.72 148.844 273.25 148.313 273.905 148.313H370.313C370.966 148.313 371.498 148.844 371.498 149.498C371.498 150.154 370.966 150.684 370.313 150.684Z" fill="#7D97F4"/>
<path d="M370.093 137.505H273.686C273.031 137.505 272.501 136.974 272.501 136.32C272.501 135.664 273.031 135.134 273.686 135.134H370.093C370.747 135.134 371.278 135.664 371.278 136.32C371.278 136.974 370.747 137.505 370.093 137.505Z" fill="#7D97F4"/>
<path d="M271.62 169.777V174.314C271.62 175.092 272.018 175.832 272.713 176.342L273.399 176.845C273.962 177.26 273.843 178.026 273.174 178.302C272.732 178.486 272.65 178.99 273.017 179.268L273.883 179.922C274.449 180.349 274.449 181.099 273.885 181.529L273.263 182.001C272.728 182.408 272.742 183.124 273.295 183.514L273.964 183.985C274.427 184.311 274.504 184.89 274.139 185.296L273.772 185.705C273.508 185.999 273.366 186.357 273.366 186.727V193.891H383.589V169.346L271.62 169.777Z" fill="#C4B7F7"/>
<path d="M380.233 175.186H274.574C274.388 175.186 274.235 175.057 274.235 174.898C274.235 174.739 274.388 174.61 274.574 174.61H380.233C380.421 174.61 380.573 174.739 380.573 174.898C380.573 175.057 380.421 175.186 380.233 175.186Z" fill="#E6DFFF"/>
<path d="M380.233 179.459H276.61C276.42 179.459 276.269 179.329 276.269 179.171C276.269 179.012 276.42 178.884 276.61 178.884H380.233C380.421 178.884 380.573 179.012 380.573 179.171C380.573 179.329 380.421 179.459 380.233 179.459Z" fill="#E6DFFF"/>
<path d="M380.233 182.603H277.652C277.465 182.603 277.314 182.475 277.314 182.316C277.314 182.157 277.465 182.028 277.652 182.028H380.233C380.421 182.028 380.573 182.157 380.573 182.316C380.573 182.475 380.421 182.603 380.233 182.603Z" fill="#E6DFFF"/>
<path d="M385.012 167.937H269.418C268.688 167.937 268.036 168.389 267.965 169.005C267.887 169.713 268.54 170.308 269.358 170.308H377.973C379.535 170.308 380.885 171.234 381.21 172.529C382.663 178.328 382.554 184.368 381.184 190.599C380.865 192.045 379.376 193.092 377.64 193.092H271.176C270.446 193.092 269.794 193.545 269.723 194.16C269.644 194.868 270.298 195.463 271.116 195.463H384.377C386.613 195.463 388.542 194.11 388.94 192.245C390.554 184.685 390.698 177.429 388.942 170.564C388.546 169.025 386.924 167.937 385.065 167.937H385.012Z" fill="#7D97F4"/>
<path d="M363.342 156.313H280.436C280.249 156.313 280.097 156.184 280.097 156.025C280.097 155.866 280.249 155.738 280.436 155.738H363.342C363.529 155.738 363.681 155.866 363.681 156.025C363.681 156.184 363.529 156.313 363.342 156.313Z" fill="#E6DFFF"/>
<path d="M353.862 147.511L354.65 147.172L354.654 147.17C354.847 147.087 355.068 147.176 355.153 147.368C355.234 147.559 355.146 147.782 354.955 147.865H354.953L354.155 148.206C353.964 148.288 353.743 148.199 353.66 148.007C353.579 147.816 353.667 147.595 353.86 147.513L353.862 147.511" fill="white"/>
</svg>
