<svg width="293" height="293" viewBox="0 0 293 293" fill="none" xmlns="http://www.w3.org/2000/svg">
<path d="M149.939 290.67C132.15 290.67 117.867 288.188 110.467 286.81C81.8185 281.478 57.6364 277.718 36.8591 258.946C3.9134 229.181 -4.92318 176.854 5.00286 129.221C14.8825 186.414 42.4262 251.762 112.998 284.874C113.509 285.113 114.031 285.224 114.535 285.224C116.44 285.224 118.092 283.65 117.952 281.534C117.656 277.069 117.071 270.12 115.93 261.214C136.87 211.581 137.294 166.581 128.218 128.351C132.618 131.115 137.011 133.899 140.879 137.354C144.192 140.312 147.126 143.842 149.024 147.824C149.855 149.568 150.487 151.398 150.865 153.306C156.511 140.592 170.457 133.462 184.138 130.942C197.819 128.425 211.903 129.523 225.736 128.061C244.478 126.079 268.831 119.008 282.172 103.675C297.94 154.057 290.586 214.117 255.297 250.491C250.467 255.47 245.962 259.13 241.994 262.024L243.025 228.256H225.589V251.819L218.646 242.513L219.066 228.816H208.493C202.819 220.465 199.77 210.586 199.77 200.455L199.732 177.045H178.418L178.458 199.043C178.458 210.838 174.665 222.318 167.639 231.79L139.566 269.635C138.099 271.613 137.307 274.009 137.307 276.471V276.488C137.307 282.824 142.444 287.961 148.781 287.961H181.124C170.072 289.953 159.499 290.67 149.939 290.67ZM38.332 63.0029C37.7274 62.1902 37.1274 61.3922 36.5136 60.5816C37.1827 59.7458 37.8878 58.8786 38.6291 57.9861C38.518 59.6681 38.4191 61.3418 38.332 63.0029ZM92.775 49.1054C86.6117 39.9328 80.3914 31.8522 74.6149 24.9581C88.8872 15.313 106.11 7.32065 125.874 4.7377C127.282 4.55292 128.332 4.44791 129.252 4.35132C131.501 4.11401 136.705 3.61844 143.947 3.61844C160.154 3.61844 186.578 6.09637 213.042 19.4814C205.205 20.9556 197.544 23.3894 190.249 26.6108C179.852 31.1992 171.248 37.3835 159.442 37.3835C159.26 37.3835 159.075 37.3814 158.89 37.3793C148.025 37.2008 136.922 34.6452 125.983 34.6452C123.423 34.6452 120.872 34.7859 118.335 35.1281C107.873 36.5435 98.737 41.4952 92.775 49.1054Z" fill="#F9F7FF"/>
<path d="M110.225 273.791C110.225 273.791 9.56211 186.757 45.65 5.56458C46.4164 1.71552 51.1172 0.19751 53.966 2.89481C80.8077 28.3137 178.111 133.92 110.225 273.791Z" fill="#CBBFFD"/>
<path d="M75.6781 124.898C73.2569 119.883 70.7027 114.857 67.9977 109.812C66.1507 100.154 64.4568 90.4525 62.9795 80.8469C62.9163 80.4387 63.2355 80.1931 63.5506 80.1931C63.7809 80.1931 64.0079 80.3232 64.0852 80.6144C66.6209 90.1988 70.8314 106.188 75.6781 124.898Z" fill="#DEE8FD"/>
<path d="M2.0801 29.498C-1.92044 65.1036 -12.5307 225.977 112.998 284.873C115.439 286.019 118.13 284.21 117.952 281.534C116.067 253.086 102.454 124.098 8.10045 27.5768C5.98547 25.4121 2.41157 26.5484 2.0801 29.498Z" fill="#9C85F9"/>
<path d="M107.074 270.911C34.1405 184.646 18.6768 97.4 15.4808 69.028C15.4429 68.6918 15.6908 68.5067 15.9447 68.5067C16.158 68.5067 16.3755 68.6357 16.4312 68.9176C38.9798 182.222 107.074 270.911 107.074 270.911Z" fill="#D5CBFF"/>
<path d="M199.772 200.455L199.732 177.044H178.42L178.46 199.043C178.46 210.838 174.665 222.318 167.64 231.79L139.566 269.635C138.099 271.613 137.309 274.009 137.309 276.471V276.488C137.309 282.824 142.446 287.961 148.781 287.961H229.675C236.013 287.961 241.15 282.824 241.15 276.488C241.15 274.016 240.351 271.609 238.873 269.627L209.785 230.63C203.284 221.913 199.772 211.329 199.772 200.455Z" fill="#947CF5"/>
<path d="M148.781 285.093C144.037 285.093 140.176 281.232 140.176 276.488C140.176 274.638 140.779 272.816 141.871 271.344L169.944 233.498C177.285 223.601 181.328 211.366 181.328 199.043L181.294 179.913H196.869L196.903 200.46C196.903 211.869 200.662 223.194 207.486 232.345L236.573 271.342C237.675 272.818 238.281 274.646 238.281 276.488C238.281 281.232 234.42 285.093 229.676 285.093H148.781Z" fill="#CBBFFD"/>
<path d="M200.367 181.253H177.819C175.996 181.253 174.52 179.775 174.52 177.953C174.52 176.201 175.891 174.753 177.641 174.661L200.19 173.447C202.079 173.345 203.666 174.849 203.666 176.742V177.953C203.666 179.775 202.19 181.253 200.367 181.253Z" fill="#7654FF"/>
<path d="M225.613 285.093H217.348C217.348 285.079 217.348 285.065 217.348 285.052L218.299 253.927H223.583L225.591 256.617V284.491C225.591 284.693 225.598 284.894 225.613 285.093ZM201.631 285.093H148.783C144.037 285.093 140.177 281.232 140.177 276.488C140.177 274.638 140.778 272.816 141.871 271.344L154.79 253.927H201.631V285.052C201.631 285.065 201.631 285.079 201.631 285.093Z" fill="#FF9362"/>
<path d="M233.448 292.349C229.108 292.349 225.59 288.831 225.59 284.491V228.255H243.025L241.306 284.491C241.306 288.831 237.788 292.349 233.448 292.349Z" fill="#947CF5"/>
<path d="M233.449 290.508C230.13 290.508 227.433 287.809 227.433 284.491V228.255H241.127L239.466 284.463V284.491C239.466 287.809 236.766 290.508 233.449 290.508Z" fill="#C4B7F7"/>
<path d="M243.021 229.607H225.351C223.924 229.607 222.766 228.45 222.766 227.021C222.766 225.648 223.84 224.514 225.213 224.441L242.882 223.49C244.36 223.411 245.604 224.59 245.604 226.072V227.021C245.604 228.45 244.448 229.607 243.021 229.607Z" fill="#6F4AFF"/>
<path d="M227.43 253.918V284.492C227.43 287.809 230.13 290.508 233.447 290.508C236.765 290.508 239.464 287.809 239.464 284.492V284.463L240.367 253.918H227.43Z" fill="#FFCAB3"/>
<path d="M209.489 292.91C205.148 292.91 201.63 289.392 201.63 285.052V228.816H219.066L217.347 285.052C217.347 289.392 213.828 292.91 209.489 292.91Z" fill="#947CF5"/>
<path d="M209.489 291.067C206.172 291.067 203.473 288.369 203.473 285.052V228.815H217.168L215.507 285.023V285.052C215.507 288.369 212.808 291.067 209.489 291.067Z" fill="#C4B7F7"/>
<path d="M219.06 230.167H201.392C199.964 230.167 198.806 229.01 198.806 227.582C198.806 226.208 199.88 225.075 201.253 225.001L218.92 224.052C220.4 223.972 221.644 225.15 221.644 226.633V227.582C221.644 229.01 220.486 230.167 219.06 230.167Z" fill="url(#paint0_linear_2_18415)"/>
<path d="M203.472 254.479V285.052C203.472 288.369 206.172 291.068 209.488 291.068C212.807 291.068 215.505 288.369 215.505 285.052V285.023L216.408 254.479H203.472Z" fill="#FFCAB2"/>
<path d="M167.371 287.962C119.067 294.651 69.153 294.726 17.4573 287.478C11.1578 286.594 7.07164 280.368 8.78446 274.242L11.6721 263.914C12.5739 260.689 15.3962 258.366 18.7355 258.111C69.528 254.234 119.147 252.5 165.404 256.901C168.524 257.198 171.228 259.178 172.428 262.071L176.544 271.995C179.466 279.038 174.924 286.916 167.371 287.962Z" fill="#140060"/>
<path d="M162.525 188.411C154.466 181.829 138.966 177.371 121.16 177.371C103.355 177.371 87.8545 181.829 79.7952 188.411H73.8954V198.762C73.8954 210.574 95.0563 220.152 121.16 220.152C147.264 220.152 168.426 210.574 168.426 198.762V188.411H162.525Z" fill="url(#paint1_linear_2_18415)"/>
<path d="M168.426 188.412C168.426 200.224 147.264 209.802 121.16 209.802C95.0563 209.802 73.8954 200.224 73.8954 188.412C73.8954 176.598 95.0563 167.021 121.16 167.021C147.264 167.021 168.426 176.598 168.426 188.412Z" fill="#140063"/>
<path d="M160.835 188.067C160.835 197.022 143.072 204.281 121.16 204.281C99.2479 204.281 81.4837 197.022 81.4837 188.067C81.4837 179.112 99.2479 171.851 121.16 171.851C143.072 171.851 160.835 179.112 160.835 188.067Z" fill="#9C85F9"/>
<path d="M121.16 174.611C141.933 174.611 158.967 181.137 160.683 189.446C160.776 188.992 160.835 188.531 160.835 188.067C160.835 179.111 143.072 171.851 121.16 171.851C99.2479 171.851 81.4837 179.111 81.4837 188.067C81.4837 188.531 81.5438 188.992 81.6379 189.446C83.3529 181.137 100.385 174.611 121.16 174.611Z" fill="url(#paint2_linear_2_18415)"/>
<path d="M139.844 270.877C139.677 270.877 139.528 270.758 139.496 270.588C139.462 270.396 139.587 270.212 139.78 270.177C142.502 269.676 145.211 269.119 147.832 268.52C148.022 268.474 148.213 268.595 148.256 268.786C148.3 268.976 148.181 269.166 147.99 269.209C145.36 269.811 142.64 270.371 139.908 270.872C139.886 270.876 139.865 270.877 139.844 270.877Z" fill="#9C85F9"/>
<path d="M95.4136 274.63C79.4749 274.63 64.9039 273.381 53.6274 271.994C32.4727 269.388 18.0423 265.744 17.8989 265.708C17.7096 265.66 17.5954 265.467 17.6437 265.277C17.6917 265.089 17.884 264.972 18.0737 265.022C18.2167 265.059 32.6125 268.694 53.7259 271.293C73.2058 273.691 102.55 275.671 131.726 271.49C131.92 271.461 132.098 271.596 132.126 271.79C132.154 271.983 132.02 272.162 131.826 272.19C119.466 273.962 107.073 274.63 95.4136 274.63Z" fill="#9C85F9"/>
<path d="M150.865 153.307C150.487 151.399 149.855 149.569 149.024 147.825C147.126 143.843 144.192 140.312 140.879 137.355C137.012 133.901 132.618 131.115 128.218 128.353C127.201 127.714 126.185 127.077 125.173 126.434C114.827 119.844 104.864 112.331 97.3325 102.649C89.8021 92.9638 84.8472 80.8638 85.5618 68.6182C86.0053 61.0162 88.6182 54.4136 92.775 49.108C98.7371 41.4954 107.873 36.5441 118.335 35.1291C120.872 34.7875 123.423 34.6462 125.983 34.6462C136.922 34.6462 148.025 37.202 158.89 37.3791C159.076 37.3833 159.259 37.3833 159.442 37.3833C171.249 37.3833 179.851 31.1984 190.249 26.6097C197.543 23.3918 205.205 20.9561 213.043 19.4821C217.728 18.6028 222.477 18.065 227.252 17.909C228.125 17.8795 229 17.8647 229.875 17.8647C234.944 17.8647 240.003 18.3518 244.914 19.402C244.301 19.3767 243.685 19.3661 243.069 19.3661C217.062 19.3661 195.981 36.7655 195.981 62.7706C195.981 88.7779 217.062 113.541 243.069 113.541C265.218 113.541 285.512 98.4423 291.046 77.8946C291.438 80.3977 291.733 82.8882 291.221 85.4904C289.837 92.5484 286.615 98.571 282.172 103.676C268.832 119.009 244.478 126.08 225.735 128.062C211.904 129.523 197.818 128.425 184.138 130.945C170.459 133.462 156.511 140.593 150.865 153.307Z" fill="#FFAE89"/>
<path d="M292.525 66.7159C292.525 92.7208 269.075 113.542 243.068 113.542C217.061 113.542 195.98 88.7761 195.98 62.7692C195.98 36.7643 217.061 19.3636 243.068 19.3636C269.075 19.3636 292.525 40.709 292.525 66.7159Z" fill="#9C85F9"/>
<path d="M242.829 111.747C217.971 111.747 197.822 88.0754 197.822 63.2197C197.822 38.364 217.971 21.7327 242.829 21.7327C267.685 21.7327 290.098 42.1339 290.098 66.9896C290.098 91.8473 267.685 111.747 242.829 111.747Z" fill="#D5CBFF"/>
<path d="M268.323 68.2936C268.323 80.9329 258.075 91.1808 245.436 91.1808C232.797 91.1808 222.549 80.9329 222.549 68.2936C222.549 55.6542 232.797 45.4083 245.436 45.4083C258.075 45.4083 268.323 55.6542 268.323 68.2936Z" fill="#947CF5"/>
<path d="M182.144 52.7194C177.364 52.7194 173.318 55.2055 171.936 58.6357L171.82 58.6859C171.604 58.7882 171.362 58.86 171.13 58.948C170.183 59.2747 169.145 59.4937 168.073 59.6426C165.918 59.9047 163.618 59.8365 161.314 59.508C161.023 59.4703 160.746 59.4362 160.409 59.3824C160.086 59.3339 159.768 59.2801 159.441 59.2477C159.115 59.2136 158.795 59.1724 158.465 59.1544C158.138 59.1293 157.813 59.1077 157.483 59.1042C156.175 59.0683 154.846 59.1616 153.559 59.4649C152.917 59.6193 152.285 59.8185 151.682 60.0806C151.079 60.3445 150.502 60.6694 149.977 61.0517C148.93 61.8271 148.06 62.8161 147.595 63.9972C147.578 64.0403 147.593 64.0906 147.634 64.1175C147.679 64.148 147.74 64.1337 147.772 64.0888L147.778 64.078C148.101 63.5898 148.535 63.1644 148.993 62.8054C149.456 62.4482 149.96 62.1574 150.485 61.9276C151.538 61.4717 152.669 61.2832 153.794 61.2743C154.92 61.2653 156.044 61.4376 157.142 61.7194C157.417 61.784 157.69 61.8666 157.962 61.9492C158.233 62.0264 158.504 62.1269 158.774 62.2184C159.043 62.3064 159.31 62.4195 159.576 62.5218C159.826 62.6223 160.14 62.7354 160.439 62.8449C162.834 63.7567 165.379 64.437 168.088 64.7188C169.447 64.8373 170.843 64.8696 172.281 64.7224C172.308 64.7188 172.335 64.7152 172.362 64.7134C174.038 67.6805 177.786 69.7465 182.144 69.7465C188.062 69.7465 192.86 65.9358 192.86 61.233C192.86 56.532 188.062 52.7194 182.144 52.7194Z" fill="url(#paint3_linear_2_18415)"/>
<path d="M173.929 59.2059C173.909 59.2059 173.888 59.2041 173.866 59.1952C173.776 59.161 173.73 59.0604 173.764 58.967C173.789 58.9023 176.337 52.4396 186.184 54.4501C186.28 54.4699 186.341 54.5633 186.323 54.6585C186.303 54.7538 186.208 54.8148 186.114 54.7969C181.107 53.7746 178.101 55.0053 176.464 56.218C174.698 57.5242 174.1 59.0766 174.094 59.0927C174.067 59.1628 174.001 59.2059 173.929 59.2059Z" fill="white"/>
<path d="M162.077 70.1888C156.399 70.1888 151.591 73.1408 149.949 77.2185L149.81 77.2776C149.555 77.4008 149.269 77.4852 148.993 77.5898C147.868 77.978 146.634 78.2362 145.36 78.4151C142.798 78.7257 140.067 78.6447 137.329 78.2531C136.985 78.2075 136.654 78.1687 136.256 78.1046C135.871 78.0489 135.493 77.983 135.105 77.9459C134.718 77.9054 134.337 77.8548 133.945 77.8345C133.557 77.8058 133.17 77.7788 132.779 77.7738C131.223 77.7316 129.646 77.8413 128.115 78.2042C127.353 78.3864 126.603 78.6227 125.884 78.935C125.167 79.2489 124.483 79.6337 123.859 80.0894C122.617 81.0076 121.582 82.1857 121.03 83.5882C121.01 83.6389 121.027 83.6979 121.076 83.73C121.13 83.7671 121.202 83.7502 121.239 83.6962L121.246 83.6861C121.631 83.1038 122.147 82.5975 122.691 82.1722C123.241 81.7468 123.84 81.4008 124.463 81.1291C125.714 80.5873 127.059 80.3628 128.394 80.3544C129.732 80.3426 131.067 80.5468 132.372 80.8827C132.699 80.9586 133.024 81.0582 133.348 81.1561C133.672 81.2456 133.991 81.3654 134.311 81.4751C134.63 81.5781 134.948 81.7114 135.265 81.8329C135.564 81.9528 135.935 82.0878 136.291 82.2194C139.137 83.3013 142.16 84.1097 145.378 84.4456C146.993 84.5874 148.651 84.6245 150.362 84.449C150.393 84.4456 150.425 84.4422 150.457 84.4389C152.447 87.963 156.899 90.4204 162.077 90.4204C169.11 90.4204 174.812 85.8921 174.812 80.3038C174.812 74.7172 169.11 70.1888 162.077 70.1888Z" fill="url(#paint4_linear_2_18415)"/>
<path d="M152.319 77.8636C152.298 77.8636 152.276 77.8603 152.256 77.8518C152.163 77.818 152.117 77.7167 152.151 77.6254C152.182 77.5477 155.199 69.8955 166.873 72.2779C166.967 72.2981 167.03 72.3911 167.01 72.4857C166.991 72.582 166.895 72.6428 166.802 72.6242C155.416 70.301 152.511 77.6744 152.482 77.7488C152.455 77.8197 152.389 77.8636 152.319 77.8636Z" fill="white"/>
<path d="M186.247 82.6135C181.682 84.0253 178.55 87.5951 178.243 91.2812L178.146 91.3635C177.972 91.5251 177.762 91.6656 177.567 91.8174C176.759 92.4086 175.83 92.9239 174.851 93.3843C172.868 94.2711 170.652 94.8865 168.353 95.2515C168.065 95.3016 167.789 95.3517 167.452 95.3985C167.129 95.4502 166.809 95.4906 166.487 95.5568C166.166 95.6198 165.848 95.6747 165.528 95.7555C165.208 95.8298 164.89 95.9025 164.575 95.9978C163.312 96.3499 162.073 96.8313 160.932 97.5016C160.362 97.8376 159.819 98.2156 159.319 98.6452C158.821 99.0749 158.367 99.5546 157.978 100.076C157.207 101.125 156.668 102.328 156.573 103.593C156.569 103.64 156.599 103.683 156.644 103.696C156.697 103.712 156.752 103.682 156.768 103.628L156.771 103.617C156.936 103.055 157.225 102.52 157.556 102.042C157.894 101.564 158.288 101.136 158.723 100.763C159.593 100.017 160.619 99.5014 161.69 99.1621C162.764 98.8197 163.888 98.6517 165.021 98.5968C165.303 98.5774 165.589 98.5758 165.872 98.5742C166.156 98.5677 166.442 98.5839 166.726 98.5919C167.011 98.5968 167.298 98.6243 167.582 98.6436C167.852 98.6663 168.185 98.6824 168.503 98.6986C171.06 98.8617 173.693 98.7599 176.365 98.2285C177.697 97.941 179.04 97.5598 180.372 96.9944C180.397 96.9831 180.421 96.9718 180.447 96.9621C182.923 99.3011 187.115 100.168 191.277 98.8811C196.932 97.1333 200.391 92.0743 199.003 87.5821C197.614 83.0884 191.902 80.8642 186.247 82.6135Z" fill="url(#paint5_linear_2_18415)"/>
<path d="M180.266 91.2435H180.255C180.157 91.2386 180.084 91.155 180.089 91.0585C180.094 90.9877 180.617 84.0603 190.622 83.0709C190.718 83.0676 190.805 83.1336 190.815 83.2301C190.824 83.3266 190.754 83.4135 190.656 83.4232C185.57 83.9251 183.062 85.9892 181.855 87.6318C180.556 89.4014 180.443 91.0617 180.443 91.0778C180.437 91.1727 180.359 91.2435 180.266 91.2435Z" fill="white"/>
<path d="M92.773 82.0204L106.717 152.071C106.895 152.96 107.583 153.661 108.472 153.847C110.52 154.273 114.455 154.551 118.815 152.011C119.655 151.521 120.101 150.557 119.911 149.603L105.995 79.0459L92.773 82.0204Z" fill="#150164"/>
<path d="M79.838 36.3861L101.433 144.862C101.707 146.241 102.773 147.326 104.149 147.613C107.32 148.274 113.415 148.705 120.166 144.77C121.468 144.012 122.157 142.519 121.865 141.042L100.314 31.7795L79.838 36.3861Z" fill="#714EFF"/>
<path d="M70.4444 10.3883L96.1039 135.91C96.4737 137.769 97.9102 139.231 99.7648 139.618C104.039 140.51 112.254 141.089 121.355 135.784C123.109 134.763 124.039 132.752 123.646 130.76L98.0451 4.17911L70.4444 10.3883Z" fill="#704DFF"/>
<path d="M67.9996 9.98927L68.8245 11.4764C69.3785 12.4721 70.5141 12.9932 71.6303 12.7665L98.0271 7.36667C99.2431 7.1167 100.115 6.049 100.115 4.80761V2.61082C100.115 0.939393 98.5647 -0.302004 96.9321 0.0644827L69.7106 6.17399C68.0093 6.55742 67.1533 8.46613 67.9996 9.98927Z" fill="#140064"/>
<path d="M75.6005 32.9227L103.243 27.324L105.373 27.5016C106.387 27.5874 107.279 28.2116 107.705 29.1363C107.705 30.3848 107.196 31.5787 106.296 32.4448L104.578 34.0951L76.9483 39.6899L73.3197 38.299C72.8011 38.1001 72.3769 37.7138 72.1295 37.2183C71.5776 36.1161 72.0148 34.774 73.1107 34.2083L75.6005 32.9227Z" fill="#4F52FF"/>
<path d="M78.3797 87.3246L74.718 56.1955C74.4491 53.9105 75.9983 51.8091 78.2609 51.3903L107.589 45.9587C109.743 45.5601 111.809 46.9947 112.187 49.153L123.23 112.166C123.23 112.166 105.29 119.754 82.5195 119.754C82.5195 119.754 78.3797 110.785 72.1694 111.475C65.9599 112.166 46.6395 120.445 50.0895 159.087C51.8514 178.819 59.9112 187.215 67.3772 190.706C76.7771 195.103 83.5264 203.707 85.7635 213.84L92.8697 246.027C92.8697 246.027 33.1747 235.648 27.3194 169.436C23.7096 128.619 48.7049 102.55 58.5987 93.9299C60.9192 91.9093 63.7144 90.5133 66.7216 89.8594L78.3797 87.3246Z" fill="url(#paint6_linear_2_18415)"/>
<path d="M96.3205 77.6651C96.3205 86.4294 88.7517 93.5344 79.415 93.5344C70.0783 93.5344 62.5102 86.4294 62.5102 77.6651C62.5102 68.8991 70.0783 61.7941 79.415 61.7941C88.7517 61.7941 96.3205 68.8991 96.3205 77.6651Z" fill="#7350FF"/>
<path d="M90.8002 78.6995C90.8002 84.9874 85.7028 90.0849 79.4151 90.0849C73.1273 90.0849 68.03 84.9874 68.03 78.6995C68.03 72.4115 73.1273 67.314 79.4151 67.314C85.7028 67.314 90.8002 72.4115 90.8002 78.6995Z" fill="#150162"/>
<path d="M117.945 106.703C117.774 106.703 117.626 106.582 117.597 106.409L116.753 101.391C116.722 101.197 116.851 101.016 117.044 100.983C117.24 100.951 117.419 101.08 117.452 101.272L118.294 106.291C118.327 106.484 118.195 106.666 118.003 106.697C117.984 106.702 117.964 106.703 117.945 106.703Z" fill="#9C85F9"/>
<path d="M115.72 93.459C115.551 93.459 115.401 93.3372 115.372 93.1625L108.288 50.9824C108.143 50.1165 107.351 49.5289 106.48 49.6508L103.557 50.0492C103.363 50.0728 103.185 49.94 103.159 49.7454C103.132 49.5525 103.268 49.3743 103.462 49.3488L106.384 48.9486C107.632 48.7812 108.777 49.6217 108.986 50.8641L116.069 93.0461C116.103 93.2389 115.972 93.4208 115.78 93.4536C115.76 93.4572 115.74 93.459 115.72 93.459Z" fill="#9C85F9"/>
<path d="M49.7228 256.443L60.3718 216.381C61.8363 210.874 66.8202 207.041 72.5186 207.041H78.7924C84.4437 207.041 89.374 210.88 90.7592 216.36L100.906 256.49C101.555 259.059 99.6138 261.552 96.9644 261.552H53.6516C50.982 261.552 49.0371 259.022 49.7228 256.443Z" fill="#724FFF"/>
<path d="M85.6253 223.601C85.6253 228.555 81.6088 232.572 76.655 232.572C71.7011 232.572 67.6847 228.555 67.6847 223.601C67.6847 218.647 71.7011 214.631 76.655 214.631C81.6088 214.631 85.6253 218.647 85.6253 223.601Z" fill="#582EFF"/>
<path d="M258.736 283.407C258.736 283.407 259.293 286.566 259.568 289.693C259.675 290.915 258.732 291.976 257.506 292.027C253.342 292.2 244.435 292.538 241.24 292.395C240.758 292.374 240.445 291.882 240.622 291.435C240.772 291.06 241.059 290.758 241.426 290.589L256.138 283.828L258.736 283.407Z" fill="#7552FF"/>
<path d="M259.194 281.551L258.747 285.33C258.747 285.33 256.167 286.53 254.408 285.179L255.476 280.967L259.194 281.551Z" fill="url(#paint7_linear_2_18415)"/>
<path d="M258.857 210.516C259.051 211.503 259.896 259.755 254.738 281.379C254.653 281.731 254.834 282.095 255.169 282.232C255.96 282.556 257.512 283.023 259.368 283.086C259.946 283.106 260.461 282.732 260.624 282.179C262.098 277.162 269.162 252.025 270.084 228.013C271.114 201.182 270.084 227.099 270.084 227.099L269.479 210.514L258.857 210.516Z" fill="#9C85F9"/>
<path d="M275.661 285.056C275.661 285.056 276.549 286.65 277.409 290.888C277.564 291.653 277.03 292.386 276.254 292.462C274.876 292.597 272.761 292.77 271.066 292.758C270.283 292.753 269.675 292.073 269.768 291.297C269.956 289.75 270.54 287.212 272.348 285.234L275.661 285.056Z" fill="#6F4CFB"/>
<path d="M276.442 280.195L275.393 285.909C275.393 285.909 274.359 286.68 272.31 286.121L272.81 279.973L276.442 280.195Z" fill="url(#paint8_linear_2_18415)"/>
<path d="M279.272 211.997C283.49 237.455 278.355 274.92 276.625 282.252C276.518 282.701 276.158 283.045 275.7 283.12C274.928 283.249 273.655 283.354 272.401 282.989C271.97 282.863 271.668 282.474 271.649 282.024C271.416 276.095 271.834 239.702 267.905 225.319C267.705 224.591 267.26 223.956 266.644 223.517L259.015 218.094L258.43 209.328L279.272 211.997Z" fill="#9C85F9"/>
<path d="M252.391 163.759C265.032 163.55 278.982 167.078 278.982 167.078C282.749 189.066 279.64 214.427 279.64 214.427C269.854 216.994 258.814 212.858 258.814 212.858C257.188 203.668 249.597 177.803 249.597 177.803C243.421 177.036 238.333 175.255 234.142 172.899C237.338 169.194 238.844 164.479 239.5 161.693C243.97 163.082 248.493 163.824 252.391 163.759Z" fill="#947CF5"/>
<path d="M215.051 145.138C216.293 143.638 217.865 144.347 217.865 144.347C219.726 152.206 229.48 158.577 239.501 161.691C238.846 164.478 237.341 169.193 234.143 172.898C217.514 163.546 215.051 145.138 215.051 145.138Z" fill="url(#paint9_linear_2_18415)"/>
<path d="M215.353 145.518C215.224 145.933 216.727 146.561 217.613 144.872C217.645 144.062 218.137 140.594 217.653 139.932C215.076 136.419 210.08 132.016 210.08 132.016C209.235 132.85 209.931 133.669 209.931 133.669L212.355 136.192C211.847 137.109 211.228 137.883 210.94 138.99C210.72 139.83 210.854 140.726 211.278 141.49C211.704 142.257 212.284 143.253 212.833 144.032C213.872 145.508 215.353 145.518 215.353 145.518Z" fill="url(#paint10_linear_2_18415)"/>
<path d="M213.413 137.831L215.622 139.705L216.316 141.568L214.347 143.753C214.347 143.753 213.685 140.054 213.192 139.253C212.699 138.452 212.955 138.067 213.413 137.831Z" fill="url(#paint11_linear_2_18415)"/>
<path d="M274.133 179.319L278.981 167.078C278.981 167.078 290.79 175.101 292.731 185.273C290.501 185.437 286.439 186.018 282.467 188.025C281.593 183.222 274.133 179.319 274.133 179.319Z" fill="#947CF5"/>
<path d="M263.813 190.838C263.813 190.838 277.071 198.33 281.545 191.933C282.472 190.604 282.697 189.284 282.466 188.025C286.439 186.019 290.5 185.438 292.73 185.274C293.317 188.34 293.007 191.603 291.205 194.899C283.37 209.232 262.059 194.106 262.059 194.106L263.813 190.838Z" fill="url(#paint12_linear_2_18415)"/>
<path d="M265.407 200.316L258.173 175.049C258.089 174.762 257.845 174.553 257.549 174.517C256.238 174.365 252.439 173.936 248.054 173.565C242.771 173.117 236.635 172.756 232.969 173.064C232.449 173.108 232.133 173.658 232.365 174.127C234.451 178.345 243.024 195.502 247.319 201.122C247.462 201.308 247.682 201.418 247.916 201.415L264.704 201.259C265.191 201.255 265.542 200.786 265.407 200.316Z" fill="#150167"/>
<path d="M247.303 171.374L242.059 170.5C241.779 170.454 241.548 170.72 241.639 170.989L242.158 172.563C242.202 172.699 242.322 172.799 242.466 172.818L247.513 173.492C247.775 173.527 247.99 173.289 247.93 173.033L247.609 171.659C247.574 171.511 247.453 171.399 247.303 171.374Z" fill="url(#paint13_linear_2_18415)"/>
<path d="M251.232 175.815L250.798 173.564C250.755 173.338 250.569 173.168 250.34 173.144L239.744 172.069C239.389 172.033 239.102 172.36 239.186 172.708L239.86 175.514C239.914 175.738 240.109 175.9 240.34 175.911L250.694 176.433C251.031 176.45 251.293 176.146 251.232 175.815Z" fill="url(#paint14_linear_2_18415)"/>
<path d="M263.658 194.212C263.658 194.212 264.666 190.067 264.261 188.597C263.853 187.126 263.066 185.237 260.44 185.657C257.814 186.076 254.716 187.182 254.716 187.182C254.716 187.182 254.874 189.098 256.868 188.479L255.631 189.437C255.631 189.437 255.808 190.97 257.494 190.152L256.344 191.421C256.344 191.421 257.066 192.681 258.307 191.874C259.547 191.066 260.141 194.711 263.658 194.212Z" fill="url(#paint15_linear_2_18415)"/>
<path d="M265.197 153.496L269.22 165.128C269.285 165.321 269.208 165.534 269.029 165.633C267.932 166.239 263.982 167.992 259.221 164.973C258.726 164.659 258.388 164.146 258.312 163.564L257.01 153.496H265.197Z" fill="url(#paint16_linear_2_18415)"/>
<path d="M256.444 142.722C256.444 142.722 252.027 151.038 252.594 154.396C253.16 157.755 258.634 157.514 263.415 154.786L266.755 145.809L256.444 142.722Z" fill="url(#paint17_linear_2_18415)"/>
<path d="M263.204 150.378C263.009 150.291 262.937 150.054 263.052 149.876C263.407 149.335 264.071 148.232 264.283 147.267C264.283 147.267 265.077 146.759 262.261 146.085C259.447 145.412 255.249 144.365 254.365 141.97C253.506 139.633 255.765 133.757 259.373 138.438C259.509 138.617 259.778 138.621 259.915 138.442C260.506 137.672 262.059 136.075 264.219 137.044C266.237 137.949 266.465 139.429 266.437 140.175C266.429 140.394 266.624 140.566 266.842 140.524C267.863 140.331 270.312 140.163 271.456 142.676C272.398 144.746 271.785 145.918 271.227 146.491C271.047 146.676 271.127 146.983 271.374 147.059C272.045 147.263 272.912 147.832 272.824 149.405C272.705 151.578 270.276 151.387 269.584 151.287C269.47 151.271 269.356 151.31 269.279 151.395C268.684 152.051 266.014 154.839 263.12 155.175C262.871 155.204 262.676 154.957 262.759 154.718L264.01 151.08C264.068 150.91 263.988 150.725 263.824 150.652L263.204 150.378Z" fill="#1A0074"/>
<path d="M262.699 150.895C262.699 150.895 265.845 148.738 266.074 150.554C266.304 152.371 263.242 153.187 261.725 152.509L262.699 150.895Z" fill="url(#paint18_linear_2_18415)"/>
<defs>
<linearGradient id="paint0_linear_2_18415" x1="360.065" y1="160.093" x2="420.144" y2="107.814" gradientUnits="userSpaceOnUse">
<stop stop-color="#4F52FF"/>
<stop offset="1" stop-color="#4042E2"/>
</linearGradient>
<linearGradient id="paint1_linear_2_18415" x1="171.973" y1="219.769" x2="167.919" y2="167.44" gradientUnits="userSpaceOnUse">
<stop stop-color="#09005D"/>
<stop offset="1" stop-color="#1A0F91"/>
</linearGradient>
<linearGradient id="paint2_linear_2_18415" x1="161.031" y1="123.638" x2="159.43" y2="151.658" gradientUnits="userSpaceOnUse">
<stop stop-color="#4F52FF"/>
<stop offset="1" stop-color="#4042E2"/>
</linearGradient>
<linearGradient id="paint3_linear_2_18415" x1="282.557" y1="-130.639" x2="358.409" y2="-130.639" gradientUnits="userSpaceOnUse">
<stop stop-color="#DAE3FE"/>
<stop offset="1" stop-color="#E9EFFD"/>
</linearGradient>
<linearGradient id="paint4_linear_2_18415" x1="220.713" y1="-72.1749" x2="305.454" y2="-72.1749" gradientUnits="userSpaceOnUse">
<stop stop-color="#DAE3FE"/>
<stop offset="1" stop-color="#E9EFFD"/>
</linearGradient>
<linearGradient id="paint5_linear_2_18415" x1="262.589" y1="-35.3137" x2="327.024" y2="-35.3137" gradientUnits="userSpaceOnUse">
<stop stop-color="#DAE3FE"/>
<stop offset="1" stop-color="#E9EFFD"/>
</linearGradient>
<linearGradient id="paint6_linear_2_18415" x1="83.556" y1="3.52382" x2="248.605" y2="3.52382" gradientUnits="userSpaceOnUse">
<stop stop-color="#09005D"/>
<stop offset="1" stop-color="#1A0F91"/>
</linearGradient>
<linearGradient id="paint7_linear_2_18415" x1="503.155" y1="234.899" x2="494.62" y2="234.899" gradientUnits="userSpaceOnUse">
<stop stop-color="#FEBBBA"/>
<stop offset="1" stop-color="#FF928E"/>
</linearGradient>
<linearGradient id="paint8_linear_2_18415" x1="566.379" y1="228.323" x2="558.602" y2="228.323" gradientUnits="userSpaceOnUse">
<stop stop-color="#FEBBBA"/>
<stop offset="1" stop-color="#FF928E"/>
</linearGradient>
<linearGradient id="paint9_linear_2_18415" x1="435.136" y1="33.2984" x2="394.29" y2="33.2984" gradientUnits="userSpaceOnUse">
<stop stop-color="#FEBBBA"/>
<stop offset="1" stop-color="#FF928E"/>
</linearGradient>
<linearGradient id="paint10_linear_2_18415" x1="369.611" y1="50.0882" x2="394.988" y2="107.826" gradientUnits="userSpaceOnUse">
<stop stop-color="#FEBBBA"/>
<stop offset="1" stop-color="#FF928E"/>
</linearGradient>
<linearGradient id="paint11_linear_2_18415" x1="358.984" y1="32.6744" x2="348.456" y2="16.4883" gradientUnits="userSpaceOnUse">
<stop stop-color="#FEBBBA"/>
<stop offset="1" stop-color="#FF928E"/>
</linearGradient>
<linearGradient id="paint12_linear_2_18415" x1="630.292" y1="44.5445" x2="569.121" y2="44.5445" gradientUnits="userSpaceOnUse">
<stop stop-color="#FEBBBA"/>
<stop offset="1" stop-color="#FF928E"/>
</linearGradient>
<linearGradient id="paint13_linear_2_18415" x1="453.621" y1="26.7774" x2="459.85" y2="54.1286" gradientUnits="userSpaceOnUse">
<stop stop-color="#4F52FF"/>
<stop offset="1" stop-color="#4042E2"/>
</linearGradient>
<linearGradient id="paint14_linear_2_18415" x1="462.476" y1="34.8755" x2="465.488" y2="52.9451" gradientUnits="userSpaceOnUse">
<stop stop-color="#4F52FF"/>
<stop offset="1" stop-color="#4042E2"/>
</linearGradient>
<linearGradient id="paint15_linear_2_18415" x1="521.726" y1="63.6199" x2="504.25" y2="63.6199" gradientUnits="userSpaceOnUse">
<stop stop-color="#FEBBBA"/>
<stop offset="1" stop-color="#FF928E"/>
</linearGradient>
<linearGradient id="paint16_linear_2_18415" x1="539.577" y1="4.3516" x2="517.057" y2="4.3516" gradientUnits="userSpaceOnUse">
<stop stop-color="#FEBBBA"/>
<stop offset="1" stop-color="#FF928E"/>
</linearGradient>
<linearGradient id="paint17_linear_2_18415" x1="507.336" y1="-7.22708" x2="531.906" y2="-22.2127" gradientUnits="userSpaceOnUse">
<stop stop-color="#FEBBBA"/>
<stop offset="1" stop-color="#FF928E"/>
</linearGradient>
<linearGradient id="paint18_linear_2_18415" x1="512.614" y1="-0.917239" x2="534.674" y2="-14.372" gradientUnits="userSpaceOnUse">
<stop stop-color="#FEBBBA"/>
<stop offset="1" stop-color="#FF928E"/>
</linearGradient>
</defs>
</svg>
