<svg width="297" height="325" viewBox="0 0 297 325" fill="none" xmlns="http://www.w3.org/2000/svg">
<path d="M37.9375 324.086C-6.05609 311.879 -14.671 237.906 27.4144 187.761C60.7556 148.036 -18.0246 47.5133 70.8554 8.24872C155.484 -29.1362 283.719 64.7412 296.166 205.267C304.133 295.207 252.392 324.086 252.392 324.086H37.9375Z" fill="#F9F7FF"/>
<path d="M279.267 324.901H15.6131C14.5046 324.901 13.606 324.453 13.606 323.901C13.606 323.348 14.5046 322.901 15.6131 322.901H279.267C280.376 322.901 281.274 323.348 281.274 323.901C281.274 324.453 280.376 324.901 279.267 324.901Z" fill="#03C999"/>
<path d="M187.581 206.843C186.441 204.285 185.008 196.344 184.527 193.645C184.754 191.89 184.974 191.505 184.664 190.331C184.25 188.765 183.456 188.112 182.784 187.698C182.113 187.282 179.922 183.96 179.003 184.224C178.087 184.488 180.878 188.235 180.276 187.865C179.676 187.494 178.405 183.22 177.109 183.593C175.81 183.967 179.034 188.702 178.337 188.901C177.642 189.102 176.143 185.57 175.098 185.87C174.054 186.171 177.376 190.598 177.024 190.38C176.671 190.162 174.195 188.473 173.865 188.947C173.491 189.48 179.334 194.445 179.508 195.899C179.467 199.632 179.315 206.401 180.956 210.47C182.962 215.447 187.918 226.456 187.918 226.456L195.66 223.711C195.66 223.711 188.932 209.877 187.581 206.843Z" fill="#FBBEA2"/>
<path d="M179.308 188.981C178.334 189.041 176.642 189.123 176.195 188.971C176.395 188.719 176.947 188.54 177.64 188.416C177.913 188.745 178.153 188.954 178.337 188.901C178.477 188.862 178.458 188.641 178.353 188.31C179.983 188.114 181.944 188.133 182.171 188.17C182.541 188.228 183.205 189.677 183.205 189.677C183.205 189.677 182.847 189.941 182.467 189.677C181.61 189.08 180.283 188.923 179.308 188.981Z" fill="#EBA889"/>
<path d="M182.312 189.676C181.941 189.895 181.644 190.199 181.394 190.539C181.37 190.603 180.479 191.646 180.896 193.14C180.971 192.19 181.057 191.137 182.312 189.676Z" fill="#EBA889"/>
<path d="M210.411 198.859C210.411 198.859 213.708 197.346 215.978 199.472C218.249 201.598 217.554 203.215 217.554 203.215C217.554 203.215 221.614 203.94 221.292 207.804C220.97 211.668 220.261 211.997 220.261 211.997C220.261 211.997 221.779 213.66 221.311 215.652C220.84 217.645 218.971 218.189 218.971 218.189C218.971 218.189 217.741 221.481 214.971 221.932C212.198 222.386 211.27 221.864 211.27 221.864C211.27 221.864 209.733 223.928 205.31 223.018C203.689 222.686 202.665 221.902 202.505 221.508C202.505 221.508 199.058 220.956 197.864 219.426C195.77 216.744 196.725 214.918 196.725 214.918C196.725 214.918 194.459 210.803 196.177 207.783C197.545 205.383 198.45 205.691 198.45 205.691C198.45 205.691 197.337 199.774 202.665 200.82C202.665 200.82 204.717 196.04 210.411 198.859Z" fill="#321A93"/>
<path d="M238.987 225.004C238.987 225.004 238.646 223.747 239.496 221.658C240.043 220.319 239.97 217.717 240.743 218.194C241.515 218.673 240.687 221.046 241.335 220.837C241.982 220.627 244.035 215.785 244.737 216.219C245.437 216.652 243.207 221.096 243.788 220.908C244.367 220.721 245.972 216.446 246.962 217.059C247.954 217.671 244.628 221.91 245.16 222.239C245.691 222.568 247.721 219.84 248.518 220.334C249.315 220.828 245.577 223.924 245.92 223.815C246.26 223.704 248.685 222.793 248.852 223.276C249.043 223.823 244.011 226.025 243.544 227.246C243.078 228.468 235.364 240.978 232.807 241.259C230.249 241.539 217.923 235.001 216.817 232.563C215.712 230.123 216.463 227.33 218.099 226.8C219.736 226.272 231.278 232.83 231.791 232.663C232.306 232.498 238.987 225.004 238.987 225.004Z" fill="#FBBEA2"/>
<path d="M241.225 221.714C241.515 222.033 241.708 222.413 241.846 222.812C241.849 222.881 242.389 224.141 241.546 225.444C241.757 224.514 241.989 223.483 241.225 221.714Z" fill="#EBA889"/>
<path d="M191.888 214.589C191.888 214.589 190.14 215.114 184.754 222.434L193.936 237.044L198.668 223.398L191.888 214.589Z" fill="#9B87EB"/>
<path d="M190.096 277.465C190.096 277.465 189.745 284.674 189.745 289.07C189.745 293.466 196.514 310.697 195.899 313.159C195.282 315.622 202.278 315.286 202.278 315.286C202.278 315.286 202.756 301.905 200.955 295.575C199.152 289.246 200.955 276.235 200.955 276.235L190.096 277.465Z" fill="#FEB28F"/>
<path d="M207.078 273.989C207.078 273.989 209.349 285.905 211.196 288.631C213.042 291.355 222.977 309.907 222.977 312.281C222.977 314.654 229.218 312.72 229.218 312.72C229.218 312.72 223.945 292.412 221.834 286.257C219.724 280.103 218.932 275.003 218.932 275.003L207.078 273.989Z" fill="#FEB28F"/>
<path d="M190.009 262.167C189.361 266.088 186.734 289.903 186.734 289.903C186.734 289.903 195.698 292.657 201.06 291.426C201.06 291.426 201.345 272.778 202.575 272.778C202.587 272.778 202.563 272.778 202.575 272.778C204.333 272.786 205.23 274.527 205.654 276.235C206.68 280.361 209.752 291.794 209.752 291.794C209.752 291.794 221.795 290.07 224.257 288.927C224.257 288.927 219.758 262.133 215.627 258.002L210.668 253.551L192.6 251.222C192.6 251.222 190.465 259.394 190.009 262.167Z" fill="#321A93"/>
<path d="M185.26 320.72H204.47C204.47 320.72 204.867 313.775 203.548 312.456C202.229 311.137 202.58 312.623 200.382 313.463C198.184 314.301 196.754 312.277 195.749 311.274C194.746 310.268 195.459 314.479 191.239 314.479C187.018 314.479 184.294 318.786 185.26 320.72Z" fill="#6E56CB"/>
<path d="M222.776 311.516C221.783 311.744 218.654 314.295 217.618 317.053C216.581 319.812 216.877 320.798 216.877 320.798C216.877 320.798 220.055 322.211 226.157 321.764C232.258 321.32 231.326 320.65 231.326 320.65C231.326 320.65 230.892 314.373 229.854 312.465C228.818 310.556 224.516 311.115 222.776 311.516Z" fill="#6E56CB"/>
<path d="M204.47 320.72C204.47 320.72 204.553 319.278 204.517 317.583C202.265 318.558 189.905 318.401 185.414 318.309C185.022 319.21 184.947 320.091 185.26 320.72H204.47Z" fill="white"/>
<path d="M226.156 321.764C232.258 321.32 231.326 320.65 231.326 320.65C231.326 320.65 231.226 319.203 231.007 317.489H231.006C226.758 321.28 220.126 319.345 217.225 318.217C216.666 320.095 216.877 320.798 216.877 320.798C216.877 320.798 220.055 322.211 226.156 321.764Z" fill="white"/>
<path d="M206.322 224.194C206.322 224.194 199.888 223.25 198.414 223.07C196.262 225.567 189.741 251.052 189.847 260.287C197.668 263.097 215.052 266.903 220.167 266.726C220.167 266.726 219.37 260.165 218.842 257.093C217.55 249.592 216.507 240.241 216.507 237.677C216.507 236.169 224.316 241.395 224.316 241.395L227.588 229.57C227.588 229.57 217.618 225.566 214.125 224.845C213.151 224.644 206.322 224.194 206.322 224.194Z" fill="#AC9CEE"/>
<path d="M204.038 218.187C204.038 218.187 204.906 224.505 203.066 226.213C201.125 228.018 210.096 227.52 210.73 224.54C211.072 222.928 209.845 215.818 209.845 215.818L204.038 218.187Z" fill="#FBBEA2"/>
<path d="M209.845 215.817L204.039 218.186C204.039 218.186 204.252 219.734 204.243 221.505C205.662 221.713 207.278 221.408 209.022 220.385C209.525 220.091 209.98 219.765 210.394 219.416C210.137 217.501 209.845 215.817 209.845 215.817Z" fill="#EBA889"/>
<path d="M212.761 213.71C212.295 215.01 212.629 216.32 213.509 216.635C214.388 216.95 215.478 216.151 215.945 214.851C216.41 213.549 216.076 212.241 215.197 211.926C214.318 211.61 213.227 212.41 212.761 213.71Z" fill="#FBBEA2"/>
<path d="M197.289 210.517C197.225 211.897 197.928 213.052 198.86 213.096C199.794 213.139 200.602 212.057 200.668 210.677C200.733 209.297 200.029 208.141 199.097 208.099C198.163 208.054 197.356 209.136 197.289 210.517Z" fill="#FBBEA2"/>
<path d="M208.416 202.012C208.416 202.012 211.225 202.755 212.876 205.49C214.529 208.225 215.441 216.129 209.544 219.586C203.645 223.043 199.355 217.69 199.467 212.624C199.578 207.56 201.829 201.084 208.416 202.012Z" fill="#FBBEA2"/>
<path d="M184.49 190.897C184.541 189.799 184.023 188.893 183.681 188.428C183.338 187.962 181.483 187.126 181.138 186.959C180.919 186.901 180.762 187.997 181.549 188.538C182.335 189.082 182.508 189.424 182.142 190.365C183.548 191.861 184.49 190.897 184.49 190.897Z" fill="#FBBEA2"/>
<path d="M155.765 202.64C155.765 202.64 154.876 201.203 154.617 200.704C154.314 200.119 153.543 198.298 153.543 198.298C153.543 198.298 151.156 191.835 151.653 191.706C152.15 191.575 153.185 192.467 153.473 192.817C153.762 193.166 154.133 193.549 154.422 193.899C154.711 194.248 155.21 194.33 155.672 194.011C156.134 193.694 155.288 192.057 154.882 191.547C153.616 189.959 149.373 186.374 148.941 185.977C148.429 185.505 146.374 173.57 145.341 169.53C145.342 169.53 145.342 169.53 145.343 169.53C143.851 162.871 142.656 155.958 142.501 155.253L144.707 126.236L134.22 121.169C134.22 121.169 131.313 153.333 131.354 154.96C131.373 155.734 136.041 170.917 136.047 170.915C138.821 178.254 141.285 184.713 141.722 185.967C141.722 185.967 142.013 190.051 142.041 192.662C142.071 195.27 143.161 197.673 143.284 198.407C143.301 198.514 143.584 201.06 145.066 203.858C146.344 206.267 146.25 203.401 146.25 203.401C146.25 203.401 144.695 198.514 145.106 198.458C145.423 198.417 146.113 201.135 147.498 203.817C147.854 204.507 148.208 205.187 148.539 205.807C149.406 207.439 150.667 207.378 150.035 205.528C149.812 204.873 149.414 203.798 149.021 203.071C148.596 202.283 148.463 201.426 148.208 200.711C147.702 199.291 147.315 198.264 147.385 198.276C147.477 198.29 147.578 197.937 147.979 198.658C148.461 199.523 149.074 201.588 149.883 202.808C150.341 203.498 151.211 205.001 151.211 205.001C151.211 205.001 152.89 207.286 153.045 207.225C153.88 206.892 153.15 204.919 152.403 204.062C152.211 203.273 151.251 201.718 151.251 201.718C151.251 201.718 150.023 198.141 150.533 197.962C150.951 197.814 155.565 205.817 156.378 205.427C157.043 205.108 155.765 202.64 155.765 202.64Z" fill="#F0B092"/>
<path d="M124.956 62.7786C103.322 68.9211 89.8099 90.5518 86.609 111.787C85.3381 120.22 87.0602 129.698 92.2329 136.609C98.6024 145.12 109.251 146.577 118.715 142.239C127.346 138.282 129.922 130.196 136.241 123.948C139.538 120.688 136.463 104.45 139.26 100.775C144.226 94.2509 150.043 85.9138 149.52 77.3263C148.653 63.1006 138.116 59.042 124.956 62.7786Z" fill="#3C2A82"/>
<path d="M90.2466 295.342C90.2466 295.342 89.2728 305.021 86.7685 306.8C84.2644 308.577 80.9255 315.154 82.595 318.709C83.1167 319.82 84.16 320.462 85.3483 320.82C88.8663 321.879 92.609 320.094 94.1067 316.802C94.9435 314.963 95.6777 312.512 95.8252 309.421C96.2011 301.556 98.7049 297.557 98.7049 297.557L90.2466 295.342Z" fill="#FBBEA2"/>
<path d="M128.727 299.304C128.727 299.304 129.516 309.072 128.876 312.247C128.532 313.947 126.622 317.447 127.499 319.045C128.375 320.645 129.377 321.045 129.377 321.045L152.091 321.403C153.328 321.422 152.511 320.645 151.513 319.928C149.88 318.755 148.562 317.98 143.346 315.515C143.006 315.354 141.767 314.584 141.321 314.319C140.188 313.642 139.051 312.579 138.072 311.514C136.441 309.74 136.298 301.139 136.298 301.139L128.727 299.304Z" fill="#FBBEA2"/>
<path d="M146.481 169.459C146.481 169.459 148.102 185.113 147.463 195.718C146.828 206.258 136.57 302.493 136.57 302.493L126.553 303.045C126.553 303.045 124.453 262.786 124.829 257.188C125.205 251.589 128.177 242.22 128.177 242.22L127.18 209.713L139.821 167.013L146.481 169.459Z" fill="#439B86"/>
<path d="M117.039 166.124C117.039 166.124 109.151 177.722 107.273 187.32C105.395 196.918 108.652 226.415 105.039 238.991C103.083 245.8 95.6711 256.313 94.5443 265.112C93.4176 273.911 88.9972 296.956 88.9972 296.956L99.0098 298.895L122.28 241.339L139.123 193.336C140.062 190.663 140.778 187.918 141.264 185.13L145.209 162.527L117.039 166.124Z" fill="#5EC5AC"/>
<path d="M123.424 100.14C123.424 100.14 115.4 100.747 112.385 105.306C109.069 110.324 119.064 145.068 119.815 150.665C120.566 156.264 114.852 169.609 114.852 169.609C114.852 169.609 139.469 173.993 146.481 169.46C146.481 169.46 147.232 129.201 146.481 125.202C145.729 121.203 139.469 104.94 137.966 103.34C136.464 101.74 123.424 100.14 123.424 100.14Z" fill="#F2824F"/>
<path d="M126.901 86.5087C126.901 86.5087 126.846 86.8086 126.75 87.3197C126.284 89.7733 124.491 97.9093 123.28 100.147C121.816 102.849 128.291 111.47 134.524 110.417C136.379 110.106 132.956 102.496 133.12 101.69C133.435 100.148 133.862 98.0439 134.299 95.8851C134.546 94.6685 134.795 93.4332 135.03 92.2746C135.696 88.9776 136.24 86.2804 136.24 86.2804L126.901 86.5087Z" fill="#FBBEA2"/>
<path d="M126.75 87.3193C126.847 86.8082 126.901 86.5083 126.901 86.5083L136.241 86.28C136.241 86.28 135.696 88.9772 135.03 92.2742C134.797 93.4277 134.549 94.6545 134.304 95.8643C132.862 95.6581 131.355 94.9731 129.844 93.6816C128.197 92.2725 127.118 90.5806 126.466 88.7744C126.582 88.1968 126.678 87.6993 126.75 87.3193Z" fill="#F2824F"/>
<path d="M137.866 67.9311C137.866 67.9311 134.031 67.6807 130.632 70.5466C127.233 73.4125 122.171 83.3853 127.72 90.4939C133.269 97.6041 141.228 92.4516 143.614 85.7588C146 79.066 147.702 69.6725 137.866 67.9311Z" fill="#FBBEA2"/>
<path d="M139.259 68.2522C139.259 68.2522 130.561 77.6507 126.344 77.2759C122.126 76.9027 119.544 80.2065 119.544 80.2065C119.544 80.2065 123.519 68.2062 128.083 66.6642C132.647 65.1205 139.259 68.2522 139.259 68.2522Z" fill="#3C2A82"/>
<path d="M94.789 315.073C89.332 316.044 85.7009 312.926 83.8118 310.592C82.4247 313.236 81.5747 316.537 82.5949 318.709C83.4936 320.623 85.9396 321.146 88.0075 321.221C90.1935 321.299 92.2378 320.181 93.3225 318.321C93.8291 317.453 94.3513 316.372 94.789 315.073Z" fill="#439B86"/>
<path d="M141.318 314.317C135.311 315.821 130.87 314.799 128.386 313.819C127.745 315.593 126.896 317.818 127.346 319.101C127.898 320.672 128.683 321.028 129.376 321.046C134.864 321.187 149.476 321.378 153.66 321.431C154.244 321.439 154.566 320.771 154.191 320.333C153.153 319.124 141.765 314.583 141.318 314.317Z" fill="#439B86"/>
<path d="M126.789 78.5925C127.131 80.4122 126.443 82.0837 125.252 82.3223C124.061 82.5608 122.818 81.2795 122.475 79.4581C122.134 77.6366 122.822 75.9685 124.012 75.7283C125.203 75.4897 126.446 76.7728 126.789 78.5925Z" fill="#FBBEA2"/>
<path d="M133.079 202.64C133.079 202.64 132.189 201.203 131.931 200.704C131.628 200.119 130.857 198.298 130.857 198.298C130.857 198.298 128.47 191.835 128.967 191.706C129.464 191.575 130.499 192.467 130.787 192.817C131.076 193.166 131.447 193.549 131.736 193.899C132.024 194.248 132.524 194.33 132.986 194.011C133.448 193.694 132.602 192.057 132.196 191.547C130.93 189.959 126.687 186.374 126.255 185.977C125.743 185.505 123.688 173.57 122.655 169.53C122.656 169.53 120.233 152.496 120.078 151.791L122.021 126.236L108.667 115.268C108.667 115.268 110.528 152.404 110.569 154.031C110.589 154.805 118.599 184.713 119.036 185.967C119.036 185.967 119.326 190.051 119.355 192.662C119.385 195.27 120.475 197.673 120.598 198.407C120.615 198.514 120.898 201.06 122.38 203.858C123.658 206.267 123.564 203.401 123.564 203.401C123.564 203.401 122.009 198.514 122.42 198.458C122.737 198.417 123.427 201.135 124.812 203.817C125.168 204.507 125.522 205.187 125.853 205.807C126.72 207.439 127.981 207.378 127.349 205.528C127.126 204.873 126.728 203.798 126.335 203.071C125.91 202.283 125.777 201.426 125.522 200.711C125.016 199.291 124.629 198.264 124.699 198.276C124.791 198.29 124.892 197.937 125.293 198.658C125.775 199.523 126.388 201.588 127.197 202.808C127.656 203.498 128.525 205.001 128.525 205.001C128.525 205.001 130.204 207.286 130.359 207.225C131.194 206.892 130.464 204.919 129.717 204.062C129.525 203.273 128.565 201.718 128.565 201.718C128.565 201.718 127.337 198.141 127.847 197.962C128.265 197.814 132.879 205.817 133.692 205.427C134.356 205.108 133.079 202.64 133.079 202.64Z" fill="#FBBEA2"/>
<path d="M107.843 137.761C107.843 137.761 122.066 135.843 124.171 133.72C124.171 133.72 122.174 105.993 118.124 103.672C114.075 101.351 110.449 105.727 108.784 111.772C107.119 117.818 107.033 135.794 107.843 137.761Z" fill="#B7653F"/>
</svg>
