<svg width="376" height="198" viewBox="0 0 376 198" fill="none" xmlns="http://www.w3.org/2000/svg">
<path d="M335.26 196.9L8.57315 196.998C4.21895 188.807 2.13422 182.006 1.589 176.107C1.45683 174.66 1.41626 173.269 1.45682 171.924C1.54093 169.186 1.96299 166.641 2.63437 164.231C5.75245 153.026 14.2325 144.704 18.9848 133.171C19.7538 131.309 20.4237 129.363 20.9584 127.308C21.6463 124.658 22.1119 121.83 22.2681 118.763V118.762C22.3236 117.655 22.3417 116.518 22.3146 115.345C22.3146 115.343 22.3146 115.343 22.3146 115.343C22.238 112.091 21.825 108.583 20.9899 104.759C20.8817 104.265 20.7676 103.766 20.6444 103.261C20.5618 102.913 20.4747 102.561 20.3816 102.208C19.7267 99.6641 19.183 97.1589 18.7459 94.6986C18.5071 93.3439 18.2999 92.0056 18.1242 90.6779V90.6764C18.0025 89.7557 17.8958 88.841 17.8042 87.9323C9.21148 2.39079 133.697 -28.7299 170.963 30.6082C199.76 76.4618 233.595 83.2912 245.33 75.502C272.883 57.2141 310.438 54.135 342.648 99.197C378.952 149.986 335.26 196.9 335.26 196.9Z" fill="#F9F7FF"/>
<path d="M327.36 122.768V124.635C327.36 125.288 327.148 125.823 326.889 125.823H258.762C258.503 125.823 258.292 125.288 258.292 124.635V122.768C258.292 122.116 258.503 121.581 258.762 121.581H326.889C327.148 121.581 327.36 122.116 327.36 122.768Z" fill="#C0B1F9"/>
<path d="M327.36 122.768V124.635C327.36 125.288 327.166 125.823 326.929 125.823H272.843C272.605 125.823 272.412 125.288 272.412 124.635V122.768C272.412 122.116 272.605 121.581 272.843 121.581H326.929C327.166 121.581 327.36 122.116 327.36 122.768Z" fill="#C0B1F9"/>
<path d="M310.117 196.319H261.751V125.823H310.117V196.319Z" fill="#C0B1F9"/>
<path d="M323.671 196.319H275.304V125.823H323.671V196.319Z" fill="#DFD7FE"/>
<path d="M278.37 191.962H320.607V128.28H278.37V191.962ZM321.072 192.427H277.904V127.814H321.072V192.427Z" fill="#A28AFF"/>
<path d="M320.839 149.654H278.137V149.189H320.839V149.654Z" fill="#A28AFF"/>
<path d="M320.839 171.446H278.137V170.979H320.839V171.446Z" fill="#A28AFF"/>
<path d="M303.864 131.98H295.94C295.555 131.98 295.24 131.667 295.24 131.282C295.24 130.898 295.555 130.582 295.94 130.582H303.864C304.249 130.582 304.563 130.898 304.563 131.282C304.563 131.667 304.249 131.98 303.864 131.98Z" fill="#A28AFF"/>
<path d="M303.864 153.291H295.94C295.555 153.291 295.24 152.975 295.24 152.591C295.24 152.206 295.555 151.892 295.94 151.892H303.864C304.249 151.892 304.563 152.206 304.563 152.591C304.563 152.975 304.249 153.291 303.864 153.291Z" fill="#A28AFF"/>
<path d="M303.864 175.504H295.94C295.555 175.504 295.24 175.189 295.24 174.804C295.24 174.42 295.555 174.106 295.94 174.106H303.864C304.249 174.106 304.563 174.42 304.563 174.804C304.563 175.189 304.249 175.504 303.864 175.504Z" fill="#A28AFF"/>
<path d="M85.3116 53.0796H59.5379C59.281 53.0796 59.0723 52.8693 59.0723 52.614V27.6363C59.0723 27.3809 59.281 27.1707 59.5379 27.1707H85.3116C85.5685 27.1707 85.7772 27.3809 85.7772 27.6363V52.614C85.7772 52.8693 85.5685 53.0796 85.3116 53.0796Z" fill="#CABDFC"/>
<path d="M84.1958 51.9575H60.654C60.4211 51.9575 60.2289 51.7653 60.2289 51.531V28.7191C60.2289 28.4848 60.4211 28.2925 60.654 28.2925H84.1958C84.4286 28.2925 84.6208 28.4848 84.6208 28.7191V51.531C84.6208 51.7653 84.4286 51.9575 84.1958 51.9575Z" fill="#DFD7FE"/>
<path d="M71.8721 30.6582C71.8721 30.3518 72.1199 30.104 72.4248 30.104C72.7297 30.104 72.9775 30.3518 72.9775 30.6582C72.9775 30.9631 72.7297 31.2109 72.4248 31.2109C72.1199 31.2109 71.8721 30.9631 71.8721 30.6582Z" fill="#A28AFF"/>
<path d="M76.3359 31.4393C76.4831 31.1734 76.8211 31.0758 77.0869 31.2245C77.3543 31.3732 77.4504 31.7096 77.3032 31.977C77.1545 32.2443 76.8166 32.3405 76.5507 32.1918C76.2834 32.0431 76.1872 31.7066 76.3359 31.4393Z" fill="#A28AFF"/>
<path d="M80.1599 34.4777C80.4167 34.3125 80.7592 34.3861 80.9244 34.6429C81.0896 34.8998 81.016 35.2422 80.7592 35.4074C80.5023 35.5726 80.1599 35.499 79.9947 35.2422C79.8295 34.9854 79.9031 34.6429 80.1599 34.4777Z" fill="#A28AFF"/>
<path d="M82.0538 39.1802C82.3587 39.1802 82.6065 39.428 82.6065 39.7329C82.6065 40.0393 82.3587 40.2871 82.0538 40.2871C81.7489 40.2871 81.5011 40.0393 81.5011 39.7329C81.5011 39.428 81.7489 39.1802 82.0538 39.1802Z" fill="#A28AFF"/>
<path d="M81.0867 44.6384C81.303 44.8532 81.303 45.2047 81.0867 45.4209C80.8704 45.6357 80.5205 45.6357 80.3042 45.4209C80.0879 45.2047 80.0879 44.8532 80.3042 44.6384C80.5205 44.4221 80.8704 44.4221 81.0867 44.6384Z" fill="#A28AFF"/>
<path d="M77.6126 48.1212C77.8289 48.336 77.8289 48.6875 77.6126 48.9022C77.3963 49.1185 77.0463 49.1185 76.8301 48.9022C76.6138 48.6875 76.6138 48.336 76.8301 48.1212C77.0463 47.9049 77.3963 47.9049 77.6126 48.1212Z" fill="#A28AFF"/>
<path d="M71.8721 49.9165C71.8721 49.6101 72.1199 49.3623 72.4248 49.3623C72.7297 49.3623 72.9775 49.6101 72.9775 49.9165C72.9775 50.2214 72.7297 50.4692 72.4248 50.4692C72.1199 50.4692 71.8721 50.2214 71.8721 49.9165Z" fill="#A28AFF"/>
<path d="M68.4972 31.4393C68.3485 31.1734 68.0121 31.0758 67.7447 31.2245C67.4774 31.3732 67.3812 31.7096 67.5299 31.977C67.6786 32.2443 68.0151 32.3405 68.2824 32.1918C68.5483 32.0431 68.6444 31.7066 68.4972 31.4393Z" fill="#A28AFF"/>
<path d="M64.6717 34.4777C64.4163 34.3125 64.0739 34.3861 63.9071 34.6429C63.7419 34.8998 63.8155 35.2422 64.0724 35.4074C64.3292 35.5726 64.6717 35.499 64.8369 35.2422C65.0036 34.9854 64.9285 34.6429 64.6717 34.4777Z" fill="#A28AFF"/>
<path d="M62.7776 39.1802C62.4727 39.1802 62.2249 39.428 62.2249 39.7329C62.2249 40.0393 62.4727 40.2871 62.7776 40.2871C63.084 40.2871 63.3318 40.0393 63.3318 39.7329C63.3318 39.428 63.084 39.1802 62.7776 39.1802Z" fill="#A28AFF"/>
<path d="M63.745 44.6384C63.5287 44.8532 63.5287 45.2047 63.745 45.4209C63.9613 45.6357 64.3112 45.6357 64.5275 45.4209C64.7438 45.2047 64.7438 44.8532 64.5275 44.6384C64.3112 44.4221 63.9613 44.4221 63.745 44.6384Z" fill="#A28AFF"/>
<path d="M67.2191 48.1212C67.0028 48.336 67.0028 48.6875 67.2191 48.9022C67.4354 49.1185 67.7853 49.1185 68.0016 48.9022C68.2179 48.6875 68.2179 48.336 68.0016 48.1212C67.7853 47.9049 67.4354 47.9049 67.2191 48.1212Z" fill="#A28AFF"/>
<path d="M72.276 39.7329C72.276 39.428 72.5238 39.1802 72.8287 39.1802C73.1336 39.1802 73.3815 39.428 73.3815 39.7329C73.3815 40.0393 73.1336 40.2871 72.8287 40.2871C72.5238 40.2871 72.276 40.0393 72.276 39.7329Z" fill="#A28AFF"/>
<path d="M72.904 39.7329H72.7538V32.8224H72.904V39.7329Z" fill="#A28AFF"/>
<path d="M72.8993 39.9014L72.6184 39.5454L76.2832 36.6691L76.5626 37.0266L72.8993 39.9014Z" fill="#A28AFF"/>
<path d="M29.3889 160.891C29.3889 160.891 29.8515 149.546 38.6561 150.261C38.6561 150.261 44.4521 151.466 47.3059 154.459C47.3059 154.459 36.34 157.658 37.061 159.662C37.7819 161.666 49.0226 155.218 49.0226 155.218C49.0226 155.218 58.2222 162.248 59.7226 166.078C59.7226 166.078 47.0175 165.27 48.2101 167.035C49.4026 168.8 62.5824 170.254 62.5824 170.254C62.5824 170.254 69.1925 178.896 64.3172 183.297C59.4418 187.698 55.3594 186.66 54.2885 185.427C53.2176 184.192 48.7327 175.065 47.6738 175.898C46.6165 176.732 47.8406 183.812 50.6342 186.69C50.6342 186.69 39.4175 187.644 37.3779 182.459C35.3382 177.274 37.6227 174.189 36.304 171.006C34.9837 167.825 33.0237 166.006 32.9771 167.956C32.9305 169.905 36.1147 174.806 35.2676 178.346C34.422 181.887 34.1427 184.546 30.8684 180.431C27.5941 176.317 23.9984 167.776 26.6944 164.333C29.3889 160.891 29.3889 160.891 29.3889 160.891Z" fill="#31C5A1"/>
<path d="M60.3384 179.836C60.3384 179.836 39.775 159.172 29.3889 160.891C29.3889 160.891 25.4448 163.041 19.5976 162.9L17.8313 163.797C17.8313 163.797 25.1519 163.339 26.6944 164.333C26.6944 164.333 31.6554 154.851 60.3384 179.836Z" fill="#31C5A1"/>
<path d="M19.5976 162.9C19.5976 162.9 11.87 162.026 5.92371 167.78L6.68519 168.627C6.68519 168.627 13.9667 163.732 18.8842 163.744C23.8031 163.758 19.5976 162.9 19.5976 162.9Z" fill="#582EFF"/>
<path d="M50.2122 152.09C49.4297 152.287 47.2699 152.398 44.7256 152.526H44.7241C39.4597 152.793 32.5521 153.142 32.8195 154.489C33.0192 155.485 35.6942 156.778 39.0481 157.604H39.0496C40.3293 157.916 41.7051 158.163 43.0809 158.299C45.3429 158.523 47.6018 158.45 49.4117 157.888C49.4117 157.888 47.5402 162.511 44.4897 166.626C44.2945 166.892 44.0932 167.154 43.889 167.413C41.8853 169.941 39.4356 172.14 36.7126 172.744C36.0307 172.896 35.3323 172.948 34.6203 172.881C34.5903 172.878 34.5633 172.875 34.5347 172.872C30.7678 172.498 28.1724 171.237 25.981 169.929C23.3271 168.349 21.2648 166.701 18.4276 166.484C13.2308 166.083 9.43234 167.482 12.0322 168.881C14.4249 170.171 22.0744 169.474 26.5473 172.145C26.9318 172.373 27.2922 172.627 27.6227 172.909C31.1988 175.949 34.1938 177.993 30.1895 179.521C29.4911 179.788 28.5809 180.037 27.4229 180.276C19.6277 181.874 5.63539 180.875 2.83722 174.88C2.83722 174.88 2.83723 174.878 2.83573 174.877C2.71557 174.618 2.59992 174.37 2.48878 174.135C2.48878 174.135 2.48875 174.133 2.48725 174.132C2.08022 173.259 1.74078 172.531 1.45691 171.924C1.54102 169.186 1.96308 166.641 2.63446 164.231C5.75254 153.026 14.2326 144.704 18.9849 133.172C22.3793 132.069 25.6761 131.293 27.8224 131.501C27.8224 131.501 18.0281 148.092 21.2258 147.694C24.425 147.293 35.4194 130.503 35.4194 130.503C35.4194 130.503 51.6106 127.505 54.209 137.099C56.8089 146.694 52.6109 151.491 50.2122 152.09Z" fill="#31C5A1"/>
<path d="M2.48716 174.132C2.48866 174.133 2.48869 174.135 2.48869 174.135C2.64789 174.597 2.81461 174.85 2.83563 174.877C2.83714 174.878 2.83713 174.88 2.83713 174.88C2.46164 175.098 2.03809 175.532 1.589 176.107C1.45683 174.661 1.41626 173.27 1.45682 171.924C1.54093 169.186 1.96299 166.642 2.63437 164.231C12.9003 151.24 45.7093 140.458 46.7862 140.108C0.839508 158.698 1.43879 171.062 2.48716 174.132Z" fill="#31C5A1"/>
<path d="M24.7013 122.111C26.376 126.462 28.0101 129.471 21.5712 127.505C21.3699 127.443 21.1641 127.377 20.9584 127.308C21.6463 124.659 22.1119 121.83 22.2681 118.763C23.336 119.771 24.2266 120.881 24.7013 122.111Z" fill="#31C5A1"/>
<path d="M20.0738 88.173C20.0738 88.173 19.2357 89.1988 18.1243 90.6768C18.0026 89.7561 17.8959 88.8414 17.8043 87.9327C18.5808 87.9462 19.3468 88.0183 20.0738 88.173Z" fill="#31C5A1"/>
<path d="M58.9461 106.261C56.995 114.442 51.9334 116.308 49.9088 115.784C47.8841 115.258 36.5278 108.881 36.0156 110.527C35.5034 112.174 41.9333 118.759 46.9679 119.767C46.9679 119.767 35.8248 128.912 29.9101 124.922C25.1879 121.733 24.3468 117.958 22.3147 115.345C22.3147 115.344 22.3147 115.344 22.3147 115.344C22.2381 112.092 21.825 108.583 20.9899 104.759C20.8818 104.265 20.7676 103.766 20.6445 103.262C20.5619 102.913 20.4747 102.562 20.3816 102.209C19.7268 99.6645 19.183 97.1592 18.746 94.699C20.7421 91.2505 22.4363 87.7239 22.4363 87.7239C22.4363 87.7239 37.2427 88.4703 41.6044 91.4247C41.6044 91.4247 27.6136 99.7892 30.1519 100.786C32.6887 101.784 47.6543 93.7558 47.6543 93.7558C47.6543 93.7558 60.8987 98.0799 58.9461 106.261Z" fill="#31C5A1"/>
<path d="M52.2264 105.494C37.8496 103.843 27.887 103.885 20.99 104.759C20.8818 104.265 20.7677 103.766 20.6445 103.262C34.4942 102.215 51.7653 105.408 52.2264 105.494Z" fill="#31C5A1"/>
<path d="M277.756 117.499H260.126V112.027H277.757C277.811 112.027 277.855 112.071 277.855 112.125V117.398C277.855 117.454 277.811 117.499 277.756 117.499Z" fill="#E4FFF8"/>
<path d="M291.078 114.279V115.102C291.078 115.54 290.959 115.954 290.752 116.306C290.338 117.02 289.566 117.499 288.681 117.499H259.651C259.459 117.499 259.304 117.343 259.304 117.151V117.027C259.304 116.837 259.459 116.68 259.651 116.68H277.347C277.442 116.565 277.526 116.44 277.596 116.306C277.762 115.996 277.855 115.64 277.855 115.261V114.214C277.855 114.022 277.831 113.836 277.784 113.659C277.705 113.357 277.562 113.08 277.373 112.846H259.651C259.459 112.846 259.304 112.69 259.304 112.497V112.374C259.304 112.182 259.459 112.027 259.651 112.027H288.827C289.855 112.027 290.722 112.717 290.991 113.659C291.048 113.855 291.078 114.063 291.078 114.279Z" fill="#8B75E6"/>
<path d="M290.991 113.658H277.784C277.705 113.356 277.562 113.08 277.373 112.846H259.651C259.459 112.846 259.304 112.689 259.304 112.497V112.374C259.304 112.182 259.459 112.027 259.651 112.027H288.827C289.855 112.027 290.722 112.716 290.991 113.658Z" fill="#735AD6"/>
<path d="M260.126 114.762L262.275 114.854L260.126 114.909V114.762Z" fill="#8169DE"/>
<path d="M260.126 115.621L265.24 115.713L260.126 115.769V115.621Z" fill="#8169DE"/>
<path d="M263.905 121.581H280.396V117.324H263.771C262.632 117.324 261.71 118.247 261.71 119.385C261.71 120.597 262.692 121.581 263.905 121.581Z" fill="#362C5F"/>
<path d="M277.383 121.581H298.219V117.324H277.382C277.34 117.324 277.307 117.359 277.307 117.4V121.503C277.307 121.547 277.341 121.581 277.383 121.581Z" fill="#E4FFF8"/>
<path d="M276.052 121.581H298.87C299.046 121.581 299.187 121.438 299.187 121.263C299.187 121.087 299.046 120.944 298.87 120.944H276.052C275.877 120.944 275.734 121.087 275.734 121.263C275.734 121.438 275.877 121.581 276.052 121.581Z" fill="#362C5F"/>
<path d="M276.052 117.961H298.87C299.046 117.961 299.187 117.819 299.187 117.643C299.187 117.467 299.046 117.325 298.87 117.325H276.052C275.877 117.325 275.734 117.467 275.734 117.643C275.734 117.819 275.877 117.961 276.052 117.961Z" fill="#362C5F"/>
<path d="M298.218 119.453L295.683 119.523L298.218 119.567V119.453Z" fill="#8169DE"/>
<path d="M298.218 118.474L292.186 118.544L298.218 118.588V118.474Z" fill="#8169DE"/>
<path d="M292.248 118.53C292.248 118.53 292.506 118.714 292.592 119.014C292.607 119.067 292.618 119.122 292.619 119.182C292.634 119.582 292.619 120.484 292.619 120.484L293.382 120.032L294.144 120.484V119.26C294.144 119.029 294.077 118.802 293.957 118.655C293.899 118.584 293.827 118.53 293.745 118.53H292.248Z" fill="#8B75E6"/>
<path d="M292.248 118.531C292.248 118.531 292.506 118.714 292.592 119.014L294.121 119.032C294.121 119.032 294.061 118.601 293.745 118.531H292.248Z" fill="#7159CE"/>
<path d="M167.436 196.367H115.555C115.021 196.367 114.588 195.933 114.588 195.398V139.824C114.588 139.289 115.021 138.855 115.555 138.855H167.436C167.971 138.855 168.403 139.289 168.403 139.824V195.398C168.403 195.933 167.971 196.367 167.436 196.367Z" fill="#E26E3A"/>
<path d="M136.548 196.367H84.6673C84.1326 196.367 83.7001 195.933 83.7001 195.398V139.824C83.7001 139.289 84.1326 138.855 84.6673 138.855H136.548C137.083 138.855 137.516 139.289 137.516 139.824V195.398C137.516 195.933 137.083 196.367 136.548 196.367Z" fill="#FB9D72"/>
<path d="M93.4539 154.845C93.4539 153.881 94.2199 153.1 95.1631 153.1C96.1078 153.1 96.8724 153.881 96.8724 154.845C96.8724 155.809 96.1078 156.592 95.1631 156.592C94.2199 156.592 93.4539 155.809 93.4539 154.845Z" fill="#E26E3A"/>
<path d="M121.143 154.845C121.143 153.881 121.907 153.1 122.852 153.1C123.795 153.1 124.561 153.881 124.561 154.845C124.561 155.809 123.795 156.592 122.852 156.592C121.907 156.592 121.143 155.809 121.143 154.845Z" fill="#E26E3A"/>
<path d="M93.4539 180.375C93.4539 179.411 94.2199 178.63 95.1631 178.63C96.1078 178.63 96.8724 179.411 96.8724 180.375C96.8724 181.34 96.1078 182.122 95.1631 182.122C94.2199 182.122 93.4539 181.34 93.4539 180.375Z" fill="#E26E3A"/>
<path d="M121.143 180.375C121.143 179.411 121.907 178.63 122.852 178.63C123.795 178.63 124.561 179.411 124.561 180.375C124.561 181.34 123.795 182.122 122.852 182.122C121.907 182.122 121.143 181.34 121.143 180.375Z" fill="#E26E3A"/>
<path d="M145.201 154.845C145.201 153.881 145.647 153.1 146.195 153.1C146.744 153.1 147.19 153.881 147.19 154.845C147.19 155.809 146.744 156.592 146.195 156.592C145.647 156.592 145.201 155.809 145.201 154.845Z" fill="#D04E12"/>
<path d="M161.305 154.845C161.305 153.881 161.75 153.1 162.298 153.1C162.848 153.1 163.292 153.881 163.292 154.845C163.292 155.809 162.848 156.592 162.298 156.592C161.75 156.592 161.305 155.809 161.305 154.845Z" fill="#D04E12"/>
<path d="M145.201 180.375C145.201 179.411 145.647 178.63 146.195 178.63C146.744 178.63 147.19 179.411 147.19 180.375C147.19 181.34 146.744 182.122 146.195 182.122C145.647 182.122 145.201 181.34 145.201 180.375Z" fill="#D04E12"/>
<path d="M161.305 180.375C161.305 179.411 161.75 178.63 162.298 178.63C162.848 178.63 163.292 179.411 163.292 180.375C163.292 181.34 162.848 182.122 162.298 182.122C161.75 182.122 161.305 181.34 161.305 180.375Z" fill="#D04E12"/>
<path d="M86.6904 138.855C86.6904 138.855 115.306 134.059 164.503 138.855H86.6904Z" fill="#D04E12"/>
<path d="M153.418 128.504C149.573 135.196 144.736 137.78 144.736 137.78H124.614C124.614 137.78 156.352 123.397 153.418 128.504Z" fill="#472AB9"/>
<path d="M164.07 106.492C164.07 106.492 170.239 108.159 170.874 109.116C171.508 110.074 172.75 113.002 172.697 113.766C172.645 114.529 170.96 112.254 170.329 111.672C169.92 111.295 168.441 111.073 167.714 110.956C165.88 110.657 164.995 109.819 164.309 109.401C163.848 109.121 163.288 109.173 163.288 109.173L164.07 106.492Z" fill="#FFB898"/>
<path d="M170.335 110.794C170.335 110.794 170.71 112.894 170.996 113.271C171.281 113.649 171.55 113.732 171.55 113.732L171.506 111.921L170.335 110.794Z" fill="#FFB898"/>
<path d="M170.874 109.116L173.383 112.515C173.383 112.515 173.117 112.675 172.713 112.439C172.307 112.201 171.463 111.272 171.463 111.272L170.874 109.116Z" fill="#FFB898"/>
<path d="M164.309 109.401C164.309 109.401 164.88 110.789 166.021 111.286C167.164 111.785 168.002 112.531 168.186 112.263C168.369 111.994 167.321 110.58 167.321 110.58L164.309 109.401Z" fill="#FFB898"/>
<path d="M137.963 180.29C137.439 180.89 137.373 181.562 137.631 182.278C137.633 182.281 137.634 182.286 137.637 182.289C138.116 183.615 139.702 185.096 141.544 186.575C141.78 186.765 141.988 186.937 142.172 187.098C142.22 187.14 142.268 187.182 142.313 187.224C142.349 187.256 142.385 187.29 142.421 187.322C144.138 188.905 143.735 188.752 146.82 191.964C150.339 195.625 152.517 196.208 153.207 195.874C153.789 195.589 152.606 193.648 151.293 191.466C151.23 191.361 151.167 191.254 151.102 191.147C150.927 190.858 150.754 190.563 150.58 190.272C149.042 187.645 149.437 186.413 149.802 182.504C150.098 179.328 154.743 164.759 154.743 164.759L148.001 163.598C148.001 163.598 145.97 175.2 143.732 176.985C142.537 177.938 141.197 177.95 140.048 178.656C139.967 178.704 139.887 178.755 139.809 178.806C139.154 179.24 138.489 179.686 137.963 180.29Z" fill="#FFB898"/>
<path d="M192.33 176.078C192.746 178.16 195.714 177.811 199.027 177.002C202.342 176.192 201.388 175.68 206.106 175.157C210.822 174.636 212.417 174.352 212.561 173.651C212.691 173.028 210.36 172.808 207.859 172.52C207.545 172.485 207.229 172.446 206.912 172.407C204.09 172.053 202.024 170.233 199.46 168.737C197.031 167.319 193.407 161.547 193.407 161.547L186.938 162.059C186.938 162.059 190.332 167.215 191.645 169.456C192.417 170.775 192.376 172.519 192.28 173.866C192.231 174.597 192.183 175.345 192.33 176.078Z" fill="#FFB898"/>
<path d="M167.538 134.713L161.491 150.986L153.595 172.233C153.595 172.233 151.454 172.441 149.402 171.85C147.512 171.305 145.345 169.877 145.345 169.877C145.345 169.877 147.538 147.062 151.626 133.966C152.675 130.605 153.849 127.885 155.145 126.354C161.485 118.862 167.538 134.713 167.538 134.713Z" fill="#472AB9"/>
<path d="M161.391 108.87C157.429 107.592 146.128 109.234 134.777 111.455L132.401 107.535L107.883 105.62C107.883 105.62 99.7921 123.562 104.221 134.994C104.873 136.675 106.166 137.751 108.371 137.787C108.373 137.789 108.729 137.786 108.729 137.787C108.729 137.787 123.322 137.778 128.061 137.778C140.254 137.778 153.866 129.398 155.626 129.045C158.508 128.469 159.66 134.232 162.543 140.285C165.425 146.338 189.635 167.089 189.635 167.089C189.635 167.089 193.356 167.127 194.894 166.55C196.546 165.93 197.151 165.125 197.151 165.125C197.151 165.125 170.324 111.752 161.391 108.87Z" fill="#5E42CF"/>
<path d="M131.436 36.1432C128.295 34.4941 123.517 34.2703 122.741 34.1666C113.45 32.917 107.858 46.4182 107.529 50.508C106.922 58.0479 102.934 59.1984 97.3199 63.9206C86.0627 73.389 89.3625 84.3909 95.519 88.4792C99.2124 90.932 105.722 88.4792 105.722 88.4792C105.814 88.5423 123.526 78.5768 132.257 73.7705C145.345 71.9096 139.44 40.3457 131.436 36.1432Z" fill="#472AB9"/>
<path d="M124.94 69.6776C124.977 69.7031 120.642 71.1826 117.745 69.8984C115.019 68.6938 112.954 64.209 112.994 64.2059C114.233 64.1489 115.596 63.0645 116.644 55.9496L117.173 56.1389L126.052 59.3351C126.052 59.3351 125.408 62.1843 124.992 64.8969C124.642 67.1738 124.454 69.3562 124.94 69.6776Z" fill="#FFB898"/>
<path d="M126.053 59.3352C126.053 59.3352 125.408 62.1844 124.992 64.897C119.893 63.9793 117.891 58.8966 117.173 56.139L126.053 59.3352Z" fill="#FFB593"/>
<path d="M127.374 62.1634C127.374 62.1634 115.225 60.5323 116.357 52.9819C117.49 45.4315 116.683 40.1371 124.489 40.858C132.293 41.5805 133.364 44.6865 133.6 47.2984C133.834 49.9104 130.564 62.3917 127.374 62.1634Z" fill="#FFB898"/>
<path d="M133.157 43.1605C133.157 43.1605 125.38 49.8623 120.09 50.403C114.8 50.9422 112.798 49.245 112.798 49.245C112.798 49.245 115.916 46.6556 117.792 42.4771C118.344 41.247 119.513 40.4014 120.859 40.2857C124.635 39.9598 131.796 39.8096 133.157 43.1605Z" fill="#472AB9"/>
<path d="M128.295 42.5598C128.295 42.5598 130.898 45.0756 131.716 46.9411C132.508 48.7419 132.744 53.048 132.114 54.7588C132.114 54.7588 136.168 46.8765 133.873 43.0464C131.44 38.9866 128.295 42.5598 128.295 42.5598Z" fill="#472AB9"/>
<path d="M135.169 87.575C134.802 112.167 135.067 107.028 132.377 109.361C131.73 109.923 129.908 110.258 127.509 110.417C119.968 110.917 106.713 109.675 106.209 108.281C104.469 103.46 105.696 101.961 104.245 94.5786C104.094 93.7931 103.908 92.9445 103.687 92.0178C102.478 86.9471 101.3 85.2229 105.593 77.0777C109.486 69.6986 113.529 63.7102 113.893 63.925C124.165 70.023 124.992 64.8983 124.992 64.8983C124.992 64.8983 135.35 75.5788 135.169 87.575Z" fill="white"/>
<path d="M161.491 150.986L153.595 172.233C153.595 172.233 151.454 172.441 149.402 171.85C147.512 171.305 145.345 169.877 145.345 169.877C145.345 169.877 147.538 147.062 151.626 133.966L161.491 150.986Z" fill="#5E42CF"/>
<path d="M124.992 64.8971C124.992 64.8971 135.56 66.6889 136.802 71.2383C138.043 75.7893 147.118 100.862 147.118 100.862C147.118 100.862 139.973 103.504 137.492 101.021C135.009 98.5396 128.855 77.9942 128.855 77.9942L124.992 64.8971Z" fill="white"/>
<path d="M127.509 110.417C119.968 110.917 106.713 109.675 106.208 108.281C104.469 103.46 105.696 101.961 104.245 94.5786L107.782 86.5251C107.782 86.5251 107.281 95.7427 110.645 98.7421C114.005 101.742 124.415 104.532 126.051 107.039C126.839 108.242 127.358 109.448 127.509 110.417Z" fill="#F2F2F2"/>
<path d="M127.87 106.695C127.87 106.695 129.427 108.705 129.94 108.945C130.45 109.185 130.781 109.125 130.781 109.125L129.729 107.234L127.87 106.695Z" fill="#FFB898"/>
<path d="M127.51 104.624L132.041 106.824C132.041 106.824 131.849 107.14 131.29 107.114C130.733 107.089 129.325 106.575 129.325 106.575L127.51 104.624Z" fill="#FFB898"/>
<path d="M144.983 94.9334L165.01 106.695C165.01 106.695 164.429 109.132 163.837 109.348C160.707 110.497 142.311 108.26 137.491 101.021L144.983 94.9334Z" fill="white"/>
<path d="M122.765 87.9071C122.765 87.9071 122.503 90.7308 122.765 91.4622C123.026 92.1937 130.522 92.3574 130.71 91.671C130.899 90.9846 131.182 88.8999 130.71 88.5349C130.24 88.1684 122.765 87.9071 122.765 87.9071Z" fill="#FFB898"/>
<path d="M127.712 114.118H126.027C121.855 114.118 118.441 110.705 118.441 106.533V99.2647C118.441 95.0923 118.532 91.3839 123.017 90.0066L130.902 90.6029C137.715 92.4834 135.297 95.0923 135.297 99.2647V106.533C135.297 110.705 131.883 114.118 127.712 114.118Z" fill="#FFB898"/>
<path d="M130.719 90.5012C130.719 90.5012 132.577 90.9773 133.906 90.2443C135.821 89.1869 138.115 88.5937 138.514 88.1115C139.193 87.293 142.501 83.9241 142.501 83.9241L144.09 84.9844C144.09 84.9844 142.559 91.2071 141.32 92.3185C140.081 93.43 137.861 97.3772 134.12 97.9359C132.176 98.2258 130.719 90.5012 130.719 90.5012Z" fill="#FFB898"/>
<path d="M142.501 83.924C142.501 83.924 141.919 82.3589 142.4 82.1532C142.878 81.9489 143.158 83.0874 143.158 83.0874C143.158 83.0874 144.405 80.4995 145.674 81.617C146.942 82.7344 144.09 84.9844 144.09 84.9844L142.501 83.924Z" fill="#FFB898"/>
<path d="M122.732 90.0925C122.732 90.0925 120.872 90.5686 119.545 89.8356C117.628 88.7782 115.336 88.1865 114.935 87.7028C114.256 86.8843 110.95 83.5153 110.95 83.5153L109.361 84.5772C109.361 84.5772 110.892 90.7999 112.131 91.9113C113.37 93.0228 115.59 96.9685 119.33 97.5272C121.273 97.8171 122.732 90.0925 122.732 90.0925Z" fill="#FFB898"/>
<path d="M110.95 83.5153C110.95 83.5153 111.53 81.9502 111.051 81.7459C110.572 81.5402 110.292 82.6802 110.292 82.6802C110.292 82.6802 109.044 80.0908 107.776 81.2082C106.507 82.3272 109.361 84.5771 109.361 84.5771L110.95 83.5153Z" fill="#FFB898"/>
<path d="M133.968 103.55C133.968 103.55 138.379 105.486 140.707 106.169C142.879 106.808 145.561 108.331 145.619 108.577C145.674 108.823 145.703 110.977 144.603 111.401C143.502 111.823 131.563 113.529 129.791 112.833C129.791 112.833 131.064 104.274 133.968 103.55Z" fill="#FFB898"/>
<path d="M145.453 104.094C145.453 104.094 143.349 104.241 142.112 105.786C142.112 105.786 141.607 106.459 140.707 106.169C140.707 106.169 137.397 108.284 139.506 112.276C139.506 112.276 143.968 111.998 144.603 111.401C145.237 110.803 145.453 104.094 145.453 104.094Z" fill="white"/>
<path d="M144.603 111.401C144.603 111.401 146.831 110.873 147.232 108.643C147.633 106.413 147.22 104.302 145.752 104.118C144.283 103.931 143.357 104.726 142.954 105.789C142.553 106.853 141.371 111.507 144.603 111.401Z" fill="#C0B1F9"/>
<path d="M127.469 72.8515C127.469 72.8515 131.919 72.6517 133.615 76.8813C135.311 81.1108 135.644 88.3848 131.71 89.5308C129.028 90.3134 126.138 89.7621 123.549 88.7693C122.182 88.2466 121.716 87.0931 120.935 86.1829C115.917 80.3268 117.538 73.3742 127.469 72.8515Z" fill="#FFB898"/>
<path d="M118.441 102.499C118.441 102.499 127.185 104.373 135.288 102.499C135.288 102.499 136.213 104.079 136.333 104.55C136.587 105.551 136.129 107.195 134.327 109.288C131.677 112.364 122.622 114.66 119.445 112.693C116.662 110.967 116.034 105.094 118.441 102.499Z" fill="#B29FFD"/>
<path d="M128.227 106.223C129.852 106.79 132.209 108.104 134.327 109.287C136.303 110.39 138.583 112.468 138.583 112.721C138.583 112.975 138.134 115.08 136.969 115.25C135.802 115.418 123.78 114.441 122.206 113.37C122.206 113.37 120.386 112.848 120.151 110.771C119.809 107.749 121.293 103.808 128.227 106.223Z" fill="#FFB898"/>
<path d="M139.414 108.313C139.414 108.313 137.331 107.992 135.781 109.223C135.781 109.223 135.141 109.768 134.327 109.288C134.327 109.288 130.63 110.615 131.805 114.977C131.805 114.977 136.218 115.692 136.969 115.251C137.72 114.807 139.414 108.313 139.414 108.313Z" fill="white"/>
<path d="M136.969 115.25C136.969 115.25 139.258 115.227 140.143 113.143C141.027 111.056 141.092 108.907 139.701 108.401C138.31 107.896 137.232 108.464 136.604 109.413C135.976 110.361 133.794 114.639 136.969 115.25Z" fill="#C0B1F9"/>
<path d="M129.249 85.5863C129.249 85.5863 130.147 86.6451 131.326 86.2606C132.507 85.8761 132.688 84.5935 132.688 84.5935C132.688 84.5935 130.969 84.5935 129.249 85.5863Z" fill="white"/>
<path d="M123.601 82.889C123.601 82.889 121.876 81.3766 121.327 82.4745C120.779 83.5724 122.033 85.1795 123.052 85.1991C124.071 85.2186 124.28 83.3727 123.601 82.889Z" fill="#FFB593"/>
<path d="M123.857 82.8303C123.857 82.8303 122.539 81.6753 122.12 82.5134C121.701 83.3515 122.66 84.5786 123.438 84.5936C124.217 84.6087 124.375 83.1998 123.857 82.8303Z" fill="#FFB898"/>
<path d="M122.307 75.0711C122.307 75.0711 124.441 77.9744 128.93 77.8677C128.93 77.8677 130.694 77.6124 131.442 76.4709C131.442 76.4709 130.025 77.0386 129.277 76.7983C129.277 76.7983 133.508 76.1525 133.456 75.0215C133.402 73.889 131.182 72.6214 129.561 72.4276C128.271 72.2729 124.372 72.2984 123.191 72.9458C122.011 73.5931 121.975 74.6941 122.307 75.0711Z" fill="#5E42CF"/>
<path d="M124.21 72.6214C124.21 72.6214 119.313 73.4174 118.441 77.3211C118.091 78.8921 118.831 81.1826 118.831 81.1826C118.831 81.1826 118.733 76.5355 122.649 76.3418C125.498 76.1991 127.365 75.9092 127.365 75.9092L124.21 72.6214Z" fill="#5E42CF"/>
<path d="M124.914 96.022C124.914 96.1857 124.783 96.3164 124.621 96.3164C124.459 96.3164 124.327 96.1857 124.327 96.022C124.327 95.8598 124.459 95.7291 124.621 95.7291C124.783 95.7291 124.914 95.8598 124.914 96.022Z" fill="#FFB593"/>
<path d="M132.28 96.022C132.28 96.1857 132.147 96.3164 131.985 96.3164C131.823 96.3164 131.691 96.1857 131.691 96.022C131.691 95.8598 131.823 95.7291 131.985 95.7291C132.147 95.7291 132.28 95.8598 132.28 96.022Z" fill="#FFB593"/>
<path d="M118.869 105.62C118.869 105.62 126.309 103.963 127.509 104.624C128.71 105.283 131.643 107.688 132.011 108.525C132.377 109.361 129.339 107.889 128.349 107.625C127.709 107.454 126.024 108.039 125.189 108.317C121.679 109.487 119.526 108.885 119.526 108.885L118.869 105.62Z" fill="#FFB593"/>
<path d="M113.887 63.9203C113.887 63.9203 103.897 64.5346 100.44 69.3589C95.5716 76.1478 85.9155 105.083 91.4487 108.942C97.6819 113.287 119.815 110.079 119.815 110.079C119.815 110.079 120.551 106.636 119.526 104.971C118.502 103.305 101.848 100.615 101.079 99.8458C100.312 99.0783 108.673 87.9638 107.783 85.837C104.929 79.0226 113.887 63.9203 113.887 63.9203Z" fill="white"/>
<path d="M143.663 188.709C143.663 188.709 147.708 185.083 150.646 187.193C152.005 188.171 155.481 195.651 152.507 196.342C151.353 196.61 149.208 194.77 143.663 188.709Z" fill="#472AB9"/>
<path d="M135.39 182.303C135.267 182.122 135.254 181.878 135.375 181.679C135.542 181.409 135.897 181.325 136.165 181.492C138.172 182.728 143.076 187.256 150.342 194.586C150.565 194.81 150.703 194.949 150.742 194.987C150.963 195.188 152.406 195.637 152.218 195.876C152.022 196.125 151.67 196.232 151.421 196.035C151.383 196.005 150.323 195.442 149.887 195.003C140.305 185.338 136.666 183.148 135.563 182.469C135.493 182.424 135.434 182.369 135.39 182.303Z" fill="#472AB9"/>
<path d="M201.609 177.249C201.609 177.249 200.562 171.92 203.877 170.475C205.413 169.805 213.617 170.643 212.692 173.552C212.331 174.68 209.655 175.584 201.609 177.249Z" fill="#472AB9"/>
<path d="M191.875 181.084C191.655 181.098 191.439 180.984 191.331 180.776C191.184 180.496 191.292 180.149 191.573 180.001C193.662 178.91 200.06 177.013 210.076 174.513C210.382 174.438 210.573 174.39 210.625 174.377C210.911 174.288 212.034 173.279 212.144 173.561C212.258 173.857 212.169 174.214 211.873 174.329C211.827 174.347 210.801 174.97 210.202 175.119C196.996 178.412 193.252 180.419 192.106 181.02C192.032 181.059 191.953 181.08 191.875 181.084Z" fill="#472AB9"/>
<path d="M176.496 114.854H212.347L223.131 88.0359H187.336L176.496 114.854Z" fill="#FB9D72"/>
<path d="M212.767 113.81H165.427V114.854H212.346L212.767 113.81Z" fill="#E26E3A"/>
<path d="M203.297 101.446C203.568 100.502 203.022 99.7379 202.079 99.7379C201.137 99.7379 200.154 100.502 199.883 101.446C199.613 102.387 200.158 103.152 201.101 103.152C202.043 103.152 203.027 102.387 203.297 101.446Z" fill="white"/>
<path d="M239.747 197.372H239.85C240.465 197.372 240.959 196.852 240.945 196.223L239.286 122.404L234.4 121.818L238.566 196.227C238.602 196.87 239.12 197.372 239.747 197.372Z" fill="#C0B1F9"/>
<path d="M156.347 197.372H156.243C155.629 197.372 155.135 196.852 155.149 196.223L156.808 122.404L161.696 121.818L157.528 196.227C157.492 196.87 156.973 197.372 156.347 197.372Z" fill="#C0B1F9"/>
<path d="M242.588 123.762H152.636C150.176 123.762 148.181 121.767 148.181 119.307C148.181 116.848 150.176 114.854 152.636 114.854H242.588C245.049 114.854 247.043 116.848 247.043 119.307C247.043 121.767 245.049 123.762 242.588 123.762Z" fill="#C0B1F9"/>
<path d="M314.863 110.226C314.863 110.226 310.85 111.856 307.998 107.763C307.998 107.763 312.627 106.977 314.863 110.226Z" fill="#582EFF"/>
<path d="M315.146 108.547C315.146 108.547 315.426 107.114 317.109 107.064C317.109 107.064 316.476 108.517 315.146 108.547Z" fill="#582EFF"/>
<path d="M314.298 100.154C314.298 100.154 312.353 100.361 311.625 98.2302C311.625 98.2302 313.732 98.4645 314.298 100.154Z" fill="#582EFF"/>
<path d="M309.681 71.9634C313.608 71.1223 313.675 67.9111 313.675 67.9111C309.051 69.3725 309.681 71.9634 309.681 71.9634Z" fill="#31C5A1"/>
<path d="M309.413 71.2324C309.413 71.2324 306.963 72.2267 305.222 69.7289C305.222 69.7289 308.047 69.2483 309.413 71.2324Z" fill="#31C5A1"/>
<path d="M314.787 119.645L315.294 120.229C315.371 120.318 315.517 120.262 315.517 120.145C315.488 103.615 313.39 88.9283 311.626 80.2635C309.702 70.8071 307.751 65.2168 307.732 65.1612C307.751 65.2168 309.512 70.8972 311.43 80.3266C313.194 89.0064 315.215 100.349 314.702 119.423C314.701 119.504 314.732 119.583 314.787 119.645Z" fill="#21836A"/>
<path d="M307.765 62.9081C308.391 63.4113 310.79 65.5561 308.463 67.2098C308.463 67.2098 306.68 67.7745 306.09 66.4002C305.64 65.3533 305.518 64.1833 305.485 63.6892C305.476 63.56 305.574 63.4504 305.703 63.4383C305.839 63.4263 306.023 63.3963 306.206 63.3242C306.427 63.2386 306.538 62.9066 306.837 62.833C307.023 62.7865 307.214 62.7474 307.43 62.767C307.553 62.7775 307.669 62.83 307.765 62.9081Z" fill="#FB9D72"/>
<path d="M309.096 66.6104C309.096 66.6104 308.387 67.1797 308.65 68.0884L308.656 68.4248C308.656 68.4248 308.468 67.5852 307.597 67.3239C307.597 67.3239 308.382 67.411 309.096 66.6104Z" fill="#21836A"/>
<path d="M309.682 71.9634C313.608 71.1223 313.675 67.9111 313.675 67.9111C313.675 67.9111 310.565 69.6188 309.682 71.9634Z" fill="#31C5A1"/>
<path d="M313.454 69.7645C313.454 69.7645 315.922 70.7092 317.613 68.1769C317.613 68.1769 314.778 67.7534 313.454 69.7645Z" fill="#31C5A1"/>
<path d="M309.051 118.277L308.555 118.87C308.48 118.96 308.333 118.908 308.33 118.79C308.028 102.263 309.832 87.5375 311.421 78.8396C313.156 69.3457 314.994 63.7163 315.012 63.6607C314.994 63.7163 313.348 69.4313 311.619 78.8982C310.028 87.6111 308.237 98.993 309.129 118.051C309.133 118.133 309.103 118.214 309.051 118.277Z" fill="#21836A"/>
<path d="M314.934 61.4095C314.318 61.9247 311.963 64.1175 314.323 65.7246C314.323 65.7246 316.116 66.2533 316.679 64.8685C317.109 63.8111 317.206 62.6396 317.229 62.1439C317.235 62.0148 317.136 61.9081 317.007 61.8991C316.87 61.8886 316.687 61.8631 316.502 61.7955C316.28 61.7144 316.161 61.3824 315.861 61.3164C315.673 61.2728 315.482 61.2382 315.266 61.2608C315.143 61.2743 315.028 61.3299 314.934 61.4095Z" fill="#FB9D72"/>
<path d="M313.677 65.1385C313.677 65.1385 314.397 65.6927 314.154 66.6074L314.153 66.9438C314.153 66.9438 314.325 66.0982 315.191 65.8219C315.191 65.8219 314.408 65.924 313.677 65.1385Z" fill="#21836A"/>
<path d="M312.408 66.8691C312.408 66.8691 309.8 67.3061 308.645 64.4884C308.645 64.4884 311.508 64.6371 312.408 66.8691Z" fill="#31C5A1"/>
<path d="M307.095 115.289L307.462 115.97C307.517 116.073 307.673 116.051 307.699 115.937C311.275 99.798 312.429 85.0081 312.598 76.1676C312.783 66.5174 312.098 60.6372 312.092 60.5787C312.098 60.6357 312.577 66.564 312.393 76.1856C312.223 85.0412 311.72 96.5522 307.062 115.053C307.041 115.133 307.056 115.217 307.095 115.289Z" fill="#21836A"/>
<path d="M312.615 58.3872C313.117 59.0135 314.989 61.6299 312.358 62.7369C312.358 62.7369 310.496 62.8991 310.218 61.4302C310.007 60.3082 310.143 59.1412 310.219 58.6515C310.239 58.5239 310.357 58.4383 310.485 58.4548C310.622 58.4728 310.808 58.4833 311.002 58.4533C311.236 58.4172 311.418 58.1168 311.726 58.1108C311.918 58.1063 312.112 58.1093 312.319 58.1754C312.438 58.213 312.538 58.2896 312.615 58.3872Z" fill="#FB9D72"/>
<path d="M313.106 62.2911C313.106 62.2911 312.29 62.6921 312.347 63.6369L312.281 63.9658C312.281 63.9658 312.28 63.1037 311.487 62.6606C311.487 62.6606 312.235 62.9174 313.106 62.2911Z" fill="#21836A"/>
<path d="M310.255 63.9658C310.255 63.9658 310.255 61.9021 308.477 61.2533C308.477 61.2533 308.085 62.976 310.255 63.9658Z" fill="#31C5A1"/>
<path d="M314.434 60.6479C314.434 60.6479 314.381 59.0724 315.84 58.6188C315.84 58.6188 316.19 60.0847 314.434 60.6479Z" fill="#31C5A1"/>
<path d="M309.653 70.125C309.6 70.1715 308.893 68.593 310.332 67.3238C310.332 67.3238 310.933 69.0135 309.653 70.125Z" fill="#31C5A1"/>
<path d="M308.645 70.0018C308.686 70.0138 308.657 69.2163 307.909 69.1036C307.909 69.1036 307.783 69.766 308.645 70.0018Z" fill="#31C5A1"/>
<path d="M316.098 67.3242C316.098 67.3242 316.729 66.019 318.747 66.2458C318.747 66.2458 318.444 67.6472 316.098 67.3242Z" fill="#31C5A1"/>
<path d="M304.938 121.581H317.881C318.75 121.581 319.417 120.809 319.292 119.948L313.268 78.4281C313.213 78.0405 312.881 77.7522 312.489 77.7522H310.565C310.149 77.7522 309.794 78.0586 309.732 78.4701L303.565 119.989C303.441 120.827 304.09 121.581 304.938 121.581Z" fill="#FB9D72"/>
<path d="M315.013 120.324L311.816 77.7627C312.16 77.8077 312.439 78.0751 312.49 78.428L318.514 119.948C318.641 120.809 317.972 121.581 317.103 121.581H314.516C314.85 121.281 315.051 120.824 315.013 120.324Z" fill="#E26E3A"/>
<path d="M375.474 197.372H0.0180412C0.0090294 197.372 0 197.363 0 197.354V196.394C0 196.383 0.0090294 196.376 0.0180412 196.376H375.474C375.484 196.376 375.492 196.383 375.492 196.394V197.354C375.492 197.363 375.484 197.372 375.474 197.372Z" fill="#342E4A"/>
</svg>
