<svg width="404" height="375" viewBox="0 0 404 375" fill="none" xmlns="http://www.w3.org/2000/svg">
<path d="M356.217 326.26C365.865 319.958 377.132 312.249 380.861 302.962C389.383 281.717 374.345 261.394 370.307 241.534C368.029 230.325 376.672 222.247 381.63 212.938C389.119 198.88 390.118 181.508 391.621 166.272C393.391 148.326 389.603 123.477 374.242 110.423C358.643 97.1658 338.045 96.8908 319.7 88.6517C293.973 77.0968 295.621 54.0107 279.368 36.4302C265.329 21.248 246.178 25.6017 226.307 29.9555C210.942 33.3228 195.147 36.6881 180.952 31.0235C148.534 18.0847 111.242 -11.6674 73.867 4.88803C38.9284 20.3669 29.6413 58.0164 31.9243 89.5349C34.5366 125.592 54.3286 161.241 40.9705 197.586C31.088 224.478 -3.14297 237.204 0.233235 267.826C1.85891 282.579 13.3508 293.766 22.4961 305.622C29.749 315.021 41.2273 328.706 53.7944 332.759C66.5047 336.857 85.1958 336.683 98.7133 336.683C130.78 336.683 162.867 336.696 194.941 336.702C223.711 336.706 252.479 336.706 281.249 336.715C304.369 336.724 330.522 343.276 350.881 329.755C352.555 328.641 354.356 327.477 356.217 326.26Z" fill="#F9F7FF"/>
<path d="M62.3246 283.421C60.7208 282.181 59.8533 280.341 57.9192 279.469C55.057 278.225 51.4973 278.278 48.4306 277.78C41.1289 276.465 35.5928 271.63 30.4615 266.562C33.4993 267.166 36.2744 268.729 39.3691 269.12C42.5706 269.541 45.9468 269.324 49.0606 270.063C51.7786 270.579 55.1342 271.271 57.2023 273.325C59.163 275.349 60.4255 278.67 61.5445 281.263C61.6981 281.534 61.8239 281.912 61.9777 282.183L62.3246 283.421Z" fill="#31C5A1"/>
<path d="M53.9102 264.689C55.8717 268.087 57.6611 271.639 58.9991 275.335C60.3929 279.188 61.2909 283.22 62.1146 287.225C63.8505 295.679 65.0952 304.249 66.2917 312.796C67.5257 321.613 68.388 330.498 69.3357 339.367H71.4049C70.4646 330.391 69.2669 321.421 68.1755 312.542C67.0957 303.74 65.8763 294.951 64.1114 286.258C63.3131 282.323 62.406 278.38 61.0464 274.596C56.7083 262.53 48.4886 251.804 40.675 241.79C40.2036 241.188 39.3446 241.956 39.6616 242.572C43.6696 250.377 49.513 257.069 53.9102 264.689Z" fill="#21836A"/>
<path d="M61.0483 239.13C60.3912 245.697 58.7655 252.457 58.8824 259.123C58.9131 264.85 59.2443 272.969 61.3199 278.816C59.4807 272.593 65.9804 261.184 66.0953 254.924C66.1099 251.955 65.6681 248.976 65.0924 246.073C64.3901 242.792 60.8934 238.859 61.4203 235.685C61.2348 236.779 61.2338 238.038 61.0483 239.13Z" fill="#31C5A1"/>
<path d="M55.4037 265.284C52.2052 263.606 43.8686 260.634 40.4264 260.262C34.5256 259.671 28.3363 257.632 24.6478 252.73C23.4792 251.153 22.4185 249.601 21.4917 247.977C26.0644 250.489 30.0879 251.249 35.2625 251.982C41.3939 252.977 46.4112 255.953 50.4773 260.728L55.4037 265.284Z" fill="#31C5A1"/>
<path d="M52.1723 259.136C48.0902 253.609 47.5925 247.471 47.271 242.806C46.947 239.402 47.1842 236.035 47.4494 232.564C47.5807 229.169 47.2278 225.868 47.358 222.47C47.2974 223.943 48.3111 225.249 48.7637 226.519C49.42 228.301 50.1042 229.975 50.8952 231.679C52.4764 235.087 52.9255 238.869 53.4054 242.546C53.6914 245.256 54.1313 248.234 53.6153 250.953C53.1972 252.895 51.7614 254.791 51.8747 256.879L52.1723 259.136Z" fill="#31C5A1"/>
<path d="M44.8017 249.236C40.3791 246.069 35.2642 243.746 30.8707 240.471C25.1844 236.035 21.6227 229.305 19.1618 222.763C17.9977 219.454 16.057 216.046 15.6225 212.59C17.2726 215.805 20.1791 218.212 22.7344 220.638C25.5819 223.26 28.2928 225.959 31.4715 228.211C36.8473 232.101 41.5604 236.729 43.2151 243.279C43.5817 244.876 43.5121 246.812 44.4243 248.097L44.8017 249.236Z" fill="#31C5A1"/>
<path d="M64.2092 291.95C63.17 289.717 64.1991 286.365 64.382 284.122C64.7142 280.331 65.2482 276.33 66.3145 272.696C68.1364 266.889 72.3419 258.906 76.8667 254.627C73.6319 261.869 75.3407 270.411 73.6968 277.924C72.8787 281.887 72.0133 285.316 68.818 287.912C67.4423 289.066 64.2092 291.95 64.2092 291.95Z" fill="#31C5A1"/>
<path d="M64.3078 293.822C57.9914 284.956 45.745 282.624 36.1713 278.554C37.2909 280.621 39.4652 282.192 40.9069 284.012C42.7625 286.236 44.6128 288.052 47.0303 289.539C49.6116 291.106 52.7618 292.339 55.6209 293.128C57.9908 293.678 64.3078 293.822 64.3078 293.822Z" fill="#31C5A1"/>
<path d="M66.472 307.66C66.804 302.232 67.1608 297.885 69.9415 293.524C73.7512 287.447 80.0112 283.113 85.4012 278.946C83.5269 281.907 83.523 286.27 81.8776 289.557C80.3561 292.536 78.7728 295.667 76.8143 298.385C74.5069 301.766 66.472 307.66 66.472 307.66Z" fill="#31C5A1"/>
<path d="M66.9164 311.729C63.0135 308.302 56.5742 308.197 52.0275 305.672C47.9724 303.385 43.0531 300.172 40.449 296.16C43.2892 294.912 49.7475 297.054 52.4893 298.292C56.499 300.048 63.0522 303.656 64.803 307.96L66.9164 311.729Z" fill="#31C5A1"/>
<path d="M67.8007 316.466C67.5381 312.469 71.3009 306.001 73.9031 303.88C79.0092 299.675 84.4817 295.886 89.8953 292.254C88.829 293.03 88.7207 294.975 88.3023 296.346C87.7973 298.426 87.1492 300.42 86.3599 302.326C84.8292 305.305 83.1004 308.35 80.9634 310.856C79.3956 312.757 77.6296 314.728 75.4293 315.755C74.4779 316.219 73.1862 316.662 72.2252 316.447C71.3046 316.355 67.8007 316.466 67.8007 316.466Z" fill="#31C5A1"/>
<path d="M54.0243 319.021C49.1511 316.332 45.6462 312.088 40.9333 309.075C51.4011 308.611 61.3868 313.083 68.1031 321.131C68.1031 321.131 58.571 321.546 54.0243 319.021Z" fill="#31C5A1"/>
<path d="M69.2154 328.556C69.1584 322.036 75.2807 317.802 79.2417 315.35C81.6122 313.992 84.0527 313.152 86.3399 311.549C88.3349 310.047 89.8817 307.881 91.8216 306.533C89.9533 309.355 88.9214 312.707 86.9128 315.441C85.1143 317.83 82.8405 320.11 80.7771 322.044C77.6525 325.027 69.2154 328.556 69.2154 328.556Z" fill="#31C5A1"/>
<path d="M69.677 333.646C66.8178 332.046 63.5656 332.009 60.6609 330.629C58.7384 329.637 51.6856 325.031 51.6856 325.031C51.6856 325.031 58.3327 324.208 60.8762 324.885C65.2908 326.056 69.677 333.646 69.677 333.646Z" fill="#31C5A1"/>
<path d="M346.862 283.168C348.139 281.986 348.74 280.349 350.326 279.455C352.677 278.174 355.725 277.948 358.308 277.288C364.447 275.61 368.812 271.054 372.811 266.335C370.262 267.083 368.01 268.626 365.393 269.198C362.689 269.802 359.786 269.87 357.181 270.738C354.899 271.39 352.082 272.234 350.47 274.149C348.949 276.027 348.124 278.962 347.363 281.264C347.253 281.507 347.174 281.838 347.064 282.083L346.862 283.168Z" fill="#31C5A1"/>
<path d="M344.855 342.197C345.285 331.132 345.156 320.012 345.691 308.957C346.056 301.438 346.497 293.904 347.324 286.421C347.707 282.957 348.19 279.48 349.065 276.104C351.88 265.263 359.006 256.62 363.158 246.44C363.403 245.834 362.466 245.508 362.143 246.013C356.307 255.191 350.135 264.822 347.303 275.442C346.415 278.769 345.962 282.212 345.567 285.626C344.696 293.105 344.344 300.635 344.082 308.154C343.686 319.421 343.138 330.87 343.37 342.197H344.855Z" fill="#21836A"/>
<path d="M344.582 245.213C345.644 250.776 347.546 256.43 347.954 262.136C348.364 267.033 348.7 273.998 347.369 279.155C348.47 273.695 342.044 264.439 341.471 259.097C341.232 256.559 341.383 253.978 341.653 251.453C342.004 248.597 344.694 244.97 344.002 242.299C344.243 243.218 344.342 244.293 344.582 245.213Z" fill="#31C5A1"/>
<path d="M351.397 267.139C354.003 265.46 360.901 262.284 363.815 261.704C368.814 260.754 373.948 258.539 376.728 254.071C377.607 252.631 378.398 251.226 379.064 249.767C375.349 252.262 371.966 253.216 367.6 254.236C362.433 255.554 358.374 258.481 355.26 262.869L351.397 267.139Z" fill="#31C5A1"/>
<path d="M353.692 261.638C356.76 256.603 356.717 251.318 356.638 247.309C356.655 244.375 356.197 241.515 355.705 238.567C355.336 235.674 355.387 232.827 355.017 229.934C355.181 231.187 354.414 232.382 354.121 233.499C353.698 235.072 353.24 236.555 352.694 238.072C351.601 241.105 351.504 244.373 351.375 247.551C351.336 249.889 351.188 252.47 351.835 254.752C352.342 256.384 353.711 257.894 353.773 259.689L353.692 261.638Z" fill="#31C5A1"/>
<path d="M359.238 252.616C362.777 249.571 366.972 247.197 370.477 244.063C375.001 239.839 377.532 233.817 379.137 228.039C379.881 225.12 381.28 222.06 381.389 219.073C380.223 221.946 377.921 224.224 375.922 226.494C373.69 228.95 371.577 231.464 369.031 233.63C364.733 237.365 361.058 241.678 360.141 247.403C359.947 248.795 360.158 250.446 359.472 251.613L359.238 252.616Z" fill="#31C5A1"/>
<path d="M345.9 290.599C346.617 288.613 345.485 285.826 345.156 283.924C344.584 280.707 343.824 277.329 342.635 274.303C340.637 269.481 336.433 262.976 332.241 259.662C335.557 265.606 334.747 273.037 336.724 279.336C337.725 282.656 338.724 285.523 341.653 287.5C342.917 288.381 345.9 290.599 345.9 290.599Z" fill="#31C5A1"/>
<path d="M345.958 292.209C350.681 284.15 360.972 281.224 368.844 277.018C368.044 278.87 366.306 280.377 365.212 282.042C363.796 284.086 362.352 285.779 360.401 287.234C358.312 288.769 355.714 290.062 353.328 290.954C351.347 291.603 345.958 292.209 345.958 292.209Z" fill="#31C5A1"/>
<path d="M345.16 304.2C344.464 299.586 343.828 295.897 341.12 292.381C337.4 287.477 331.721 284.252 326.795 281.097C328.624 283.487 328.959 287.213 330.616 289.899C332.144 292.327 333.734 294.885 335.615 297.057C337.845 299.773 345.16 304.2 345.16 304.2Z" fill="#31C5A1"/>
<path d="M345.092 307.711C348.165 304.485 353.662 303.905 357.356 301.402C360.648 299.139 364.606 296.019 366.527 292.391C364.007 291.54 358.649 293.861 356.399 295.129C353.105 296.936 347.778 300.516 346.609 304.329L345.092 307.711Z" fill="#31C5A1"/>
<path d="M344.694 311.828C344.617 308.392 340.908 303.149 338.522 301.535C333.838 298.326 328.874 295.505 323.967 292.812C324.939 293.397 325.179 295.049 325.641 296.188C326.23 297.931 326.937 299.584 327.756 301.152C329.29 303.581 331.001 306.054 333.019 308.033C334.502 309.54 336.163 311.087 338.12 311.8C338.969 312.123 340.106 312.404 340.912 312.146C341.692 311.998 344.694 311.828 344.694 311.828Z" fill="#31C5A1"/>
<path d="M356.664 312.96C360.624 310.296 363.295 306.4 367.097 303.466C358.114 303.866 349.92 308.45 344.791 315.838C344.791 315.838 352.97 315.466 356.664 312.96Z" fill="#31C5A1"/>
<path d="M344.404 322.271C343.957 316.692 338.402 313.539 334.833 311.745C332.701 310.763 330.552 310.232 328.476 309.037C326.656 307.903 325.169 306.168 323.409 305.165C325.22 307.434 326.357 310.221 328.283 312.405C330.002 314.311 332.118 316.088 334.029 317.584C336.926 319.894 344.404 322.271 344.404 322.271Z" fill="#31C5A1"/>
<path d="M344.397 326.654C346.72 325.068 349.497 324.789 351.876 323.39C353.442 322.395 359.12 317.923 359.12 317.923C359.12 317.923 353.376 317.723 351.255 318.497C347.569 319.834 344.397 326.654 344.397 326.654Z" fill="#31C5A1"/>
<path d="M259.499 259.803C258.266 257.922 258.018 255.679 256.301 254.069C253.751 251.733 249.996 250.506 246.96 248.88C239.774 244.868 235.708 237.802 232.154 230.637C235.121 232.365 237.468 235.002 240.576 236.53C243.78 238.122 247.401 239.111 250.403 241.01C253.065 242.532 256.336 244.466 257.765 247.365C259.093 250.195 259.22 254.134 259.458 257.258C259.523 257.598 259.518 258.038 259.583 258.378L259.499 259.803Z" fill="#31C5A1"/>
<path d="M258.925 250.435C258.977 254.976 258.463 259.521 257.877 264.015C256.635 273.556 254.825 283.043 252.984 292.486C250.108 307.221 246.266 321.813 243.311 336.537H245.159C249.079 322.232 251.954 307.492 255.025 293.047C257.071 283.428 258.973 273.769 260.266 264.015C260.862 259.517 261.371 254.978 261.345 250.435C261.263 236.151 256.448 221.814 251.84 208.456C251.533 207.564 250.33 207.938 250.461 208.836C251.941 219.054 255.941 228.729 257.756 238.936C258.429 242.723 258.88 246.582 258.925 250.435Z" fill="#21836A"/>
<path d="M274.123 212.881C271.067 219.532 266.926 226.037 264.646 233.071C262.613 239.09 260.034 247.729 260.105 254.607C260.419 247.419 271.348 237.792 273.725 231.268C274.808 228.158 275.421 224.87 275.863 221.619C276.31 217.925 274.058 212.54 275.756 209.402C275.165 210.483 274.712 211.8 274.123 212.881Z" fill="#31C5A1"/>
<path d="M258.777 238.281C256.024 235.369 248.353 229.247 244.876 227.616C238.899 224.872 233.142 220.501 231.039 214.033C230.383 211.957 229.827 209.947 229.442 207.908C233.331 212.191 237.279 214.437 242.443 217.071C248.516 220.325 252.704 225.254 255.251 231.729L258.777 238.281Z" fill="#31C5A1"/>
<path d="M257.602 230.667C255.313 223.399 257.002 216.783 258.345 211.776C259.233 208.086 260.694 204.641 262.224 201.093C263.584 197.58 264.403 193.991 265.763 190.477C265.17 191.997 265.763 193.733 265.78 195.229C265.828 197.333 265.942 199.333 266.157 201.405C266.588 205.552 265.697 209.683 264.874 213.712C264.199 216.656 263.584 219.939 262.065 222.606C260.924 224.493 258.736 225.963 258.104 228.196L257.602 230.667Z" fill="#31C5A1"/>
<path d="M253.439 217.629C249.941 212.71 245.413 208.431 241.983 203.409C237.619 196.709 236.306 188.369 236.082 180.618C236.054 176.728 235.246 172.454 236.037 168.672C236.611 172.639 238.792 176.212 240.597 179.676C242.639 183.452 244.51 187.26 247.031 190.769C251.269 196.786 254.544 203.341 253.92 210.808C253.729 212.613 252.958 214.62 253.452 216.299L253.439 217.629Z" fill="#31C5A1"/>
<path d="M258.403 269.426C258.117 266.71 260.404 263.566 261.405 261.279C263.12 257.42 265.121 253.418 267.551 249.989C271.553 244.556 278.842 237.697 285.13 234.839C279.128 241.268 277.84 250.846 273.411 258.135C271.125 261.993 268.978 265.283 264.693 266.853C262.834 267.569 258.403 269.426 258.403 269.426Z" fill="#31C5A1"/>
<path d="M257.832 271.429C254.402 259.85 242.396 252.991 233.819 245.272C234.249 247.844 235.964 250.275 236.821 252.705C237.967 255.705 239.252 258.277 241.252 260.708C243.395 263.28 246.255 265.71 248.971 267.569C251.258 268.998 257.832 271.429 257.832 271.429Z" fill="#31C5A1"/>
<path d="M255.115 286.72C257.421 281.145 259.362 276.714 263.849 273.141C270.038 268.14 278.163 265.853 285.319 263.423C282.287 265.853 280.711 270.426 277.8 273.285C275.131 275.857 272.341 278.573 269.307 280.716C265.669 283.432 255.115 286.72 255.115 286.72Z" fill="#31C5A1"/>
<path d="M254.116 291.151C251.258 286.146 244.54 283.718 240.681 279.429C237.251 275.572 233.25 270.427 231.963 265.282C235.392 264.997 241.396 269.57 243.825 271.856C247.398 275.144 252.973 281.29 253.256 286.432L254.116 291.151Z" fill="#31C5A1"/>
<path d="M253.336 296.435C254.501 292.148 260.78 286.72 264.274 285.432C271.144 282.86 278.249 280.859 285.237 279.001C283.84 279.428 283.026 281.431 282.093 282.718C280.812 284.719 279.413 286.576 277.9 288.293C275.221 290.865 272.309 293.437 269.165 295.296C266.836 296.723 264.274 298.154 261.594 298.44C260.43 298.582 258.917 298.582 257.984 298.01C257.051 297.582 253.336 296.435 253.336 296.435Z" fill="#31C5A1"/>
<path d="M237.967 294.151C233.819 289.578 231.677 283.862 227.817 279.001C238.966 282.289 247.826 290.579 251.971 301.442C251.971 301.442 241.824 298.44 237.967 294.151Z" fill="#31C5A1"/>
<path d="M250.465 309.63C252.754 302.77 260.7 300.533 265.738 299.39C268.716 298.816 271.578 298.816 274.555 297.959C277.189 297.104 279.592 295.387 282.112 294.673C279.136 296.96 276.845 300.106 273.753 302.248C271.005 304.105 267.801 305.678 264.938 306.965C260.587 308.966 250.465 309.63 250.465 309.63Z" fill="#31C5A1"/>
<path d="M249.113 315.133C246.692 312.423 243.294 311.213 240.743 308.72C239.084 306.986 233.347 299.615 233.347 299.615C233.347 299.615 240.616 301.145 243.038 302.772C247.248 305.592 249.113 315.133 249.113 315.133Z" fill="#31C5A1"/>
<path d="M104.399 331.805C103.805 334.261 103.084 336.793 102.383 339.367H102.974C104.149 335.099 105.443 330.911 106.336 326.936C107.758 320.59 109.1 314.081 108.608 307.556C108.114 300.974 106.045 294.237 104.004 287.992C103.92 287.735 103.563 287.844 103.605 288.102C104.73 295.099 107.356 301.675 107.893 308.798C108.465 316.384 106.17 324.477 104.399 331.805Z" fill="#21836A"/>
<path d="M104.823 292.802C102.787 284.821 99.5587 277.011 100.069 268.519C103.974 275.481 104.823 292.802 104.823 292.802Z" fill="#31C5A1"/>
<path d="M105.633 294.669C103.595 288.727 105.633 276.839 109.198 271.574H109.369C109.539 278.028 105.633 294.669 105.633 294.669Z" fill="#31C5A1"/>
<path d="M106.975 301.183C108.757 295.155 111.784 289.613 119.104 284.421L106.975 301.183Z" fill="#31C5A1"/>
<path d="M105.051 294.838C102.674 292.462 101.146 289.236 99.278 286.35C97.9186 284.311 95.5417 279.048 95.5417 279.048C95.5417 279.048 103.721 287.053 105.561 295.689L105.051 294.838Z" fill="#31C5A1"/>
<path d="M93.3439 287.367C98.6082 288.218 104.551 295.69 107.099 300.102C107.099 300.102 96.2315 291.443 93.3439 287.367Z" fill="#31C5A1"/>
<path d="M106.526 299.122C104.998 292.329 109.753 284.009 115.187 280.102C112.809 285.536 106.526 299.122 106.526 299.122Z" fill="#31C5A1"/>
<path d="M97.2288 294.057C103.002 296.603 105.549 301.868 108.096 307.301C108.096 307.301 97.5672 297.452 97.2288 294.057Z" fill="#31C5A1"/>
<path d="M108.388 306.811C107.858 305.001 109.143 302.586 110.048 301.075C112.086 297.907 114.652 294.736 117.822 292.548C116.237 297.454 108.388 306.811 108.388 306.811Z" fill="#31C5A1"/>
<path d="M98.5757 301.378C98.5757 301.378 102.425 303.566 103.482 304.698C105.293 306.587 107.481 309.001 108.161 311.642C108.161 311.642 101.194 307.084 98.5757 301.378Z" fill="#31C5A1"/>
<path d="M108.359 308.828C111.453 304.601 116.312 299.792 121.595 298.358C120.463 299.338 119.935 300.774 119.104 301.982C117.972 303.415 116.508 304.848 114.978 305.596C112.866 306.621 108.359 308.828 108.359 308.828Z" fill="#31C5A1"/>
<path d="M108.071 315.118C108.675 312.249 111.92 309.458 114.034 307.721C116.449 305.833 119.015 304.098 121.883 303.041C120.45 305.08 118.637 306.89 116.902 308.701C115.091 310.588 108.071 315.118 108.071 315.118Z" fill="#31C5A1"/>
<path d="M103.632 313.377C101.972 311.19 100.387 309 99.2546 306.509C100.991 306.587 102.953 308.925 104.085 310.059C105.822 311.793 106.727 313.414 108.085 315.378C108.085 315.378 104.613 314.662 103.632 313.377Z" fill="#31C5A1"/>
<path d="M107.099 319.341C109.59 319.188 112.004 318.509 114.119 317.151C116.458 315.718 120.889 308.723 120.889 308.723C120.889 308.723 115.483 311.699 111.778 315.189L107.099 319.341Z" fill="#31C5A1"/>
<path d="M107.099 319.674C105.136 319.523 102.948 318.868 101.74 317.51C100.909 316.455 100.155 315.397 99.4755 314.265C98.8728 313.36 97.4379 310.945 97.4379 310.945C97.4379 310.945 101.061 312.301 102.269 313.661C103.854 315.47 107.099 319.674 107.099 319.674Z" fill="#31C5A1"/>
<path d="M106.199 324.774C110.651 323.943 114.652 321.076 117.671 317.756C115.406 318.132 112.636 319.368 110.425 320.924C108.214 322.484 106.199 324.774 106.199 324.774Z" fill="#31C5A1"/>
<path d="M104.537 324.81C102.877 323.529 101.746 322.094 100.538 320.433C99.708 319.302 97.8208 316.734 97.8208 316.734C97.8208 316.734 105.745 322.397 106.199 325.792L104.537 324.81Z" fill="#31C5A1"/>
<path d="M105.066 328.719C107.481 328.719 109.669 328.57 111.934 327.513C114.123 326.531 117.142 324.04 117.822 321.625C114.877 322.379 105.066 328.719 105.066 328.719Z" fill="#31C5A1"/>
<path d="M105.464 329.815C103.577 329.815 96.0295 320.532 96.0295 320.532C96.0295 320.532 98.5957 321.364 99.653 322.266C101.387 323.852 105.464 329.815 105.464 329.815Z" fill="#31C5A1"/>
<path d="M103.369 335.551C106.161 334.872 108.652 334.496 111.067 332.759C112.501 331.777 113.859 330.645 115.218 329.439C116.275 328.457 118.765 326.946 118.765 326.946C118.765 326.946 114.839 328.154 113.406 328.835C110.388 330.116 107.746 331.93 105.255 334.042L103.369 335.551Z" fill="#31C5A1"/>
<path d="M104.73 332.355C102.692 332.506 100.514 330.761 99.0049 329.628C97.2687 328.345 94.4012 324.421 94.4012 324.421C94.4012 324.421 97.7213 325.627 99.0807 326.759C100.591 328.044 104.73 332.355 104.73 332.355Z" fill="#31C5A1"/>
<path d="M312.011 329.503C312.928 333.599 313.698 337.902 313.893 342.197H314.843C314.678 331.738 310.741 320.94 308.351 311.192C306.034 301.748 303.497 291.682 303.862 281.909C304.214 272.417 308.061 263.649 309.505 254.366C309.559 254.026 309.095 253.882 308.983 254.22C306.426 261.994 304.193 270.13 303.118 278.251C301.928 287.244 303.991 296.362 305.89 305.119C307.67 313.315 310.178 321.322 312.011 329.503Z" fill="#21836A"/>
<path d="M307.908 260.526C310.58 250.061 314.811 239.819 314.142 228.69C309.022 237.816 307.908 260.526 307.908 260.526Z" fill="#31C5A1"/>
<path d="M306.847 262.974C309.518 255.184 306.847 239.597 302.171 232.697H301.949C301.726 241.158 306.847 262.974 306.847 262.974Z" fill="#31C5A1"/>
<path d="M305.089 271.513C302.751 263.613 298.782 256.343 289.185 249.54L305.089 271.513Z" fill="#31C5A1"/>
<path d="M307.61 263.197C310.726 260.081 312.728 255.85 315.178 252.066C316.96 249.395 320.078 242.492 320.078 242.492C320.078 242.492 309.355 252.99 306.941 264.311L307.61 263.197Z" fill="#31C5A1"/>
<path d="M322.957 253.4C316.057 254.514 308.265 264.311 304.926 270.098C304.926 270.098 319.173 258.745 322.957 253.4Z" fill="#31C5A1"/>
<path d="M305.676 268.811C307.678 259.905 301.447 248.997 294.321 243.876C297.437 251 305.676 268.811 305.676 268.811Z" fill="#31C5A1"/>
<path d="M317.867 262.171C310.296 265.51 306.956 272.41 303.619 279.536C303.619 279.536 317.422 266.623 317.867 262.171Z" fill="#31C5A1"/>
<path d="M303.237 278.894C303.929 276.519 302.246 273.354 301.06 271.374C298.386 267.218 295.021 263.062 290.865 260.193C292.945 266.625 303.237 278.894 303.237 278.894Z" fill="#31C5A1"/>
<path d="M316.1 271.768C316.1 271.768 311.054 274.639 309.668 276.123C307.294 278.597 304.423 281.767 303.533 285.229C303.533 285.229 312.666 279.252 316.1 271.768Z" fill="#31C5A1"/>
<path d="M303.273 281.536C299.216 275.996 292.844 269.691 285.918 267.809C287.403 269.096 288.095 270.978 289.185 272.562C290.667 274.44 292.586 276.321 294.596 277.298C297.364 278.646 303.273 281.536 303.273 281.536Z" fill="#31C5A1"/>
<path d="M303.649 289.784C302.858 286.024 298.603 282.364 295.831 280.088C292.666 277.613 289.301 275.337 285.542 273.951C287.42 276.622 289.797 278.999 292.073 281.373C294.447 283.847 303.649 289.784 303.649 289.784Z" fill="#31C5A1"/>
<path d="M309.471 287.505C311.648 284.634 313.726 281.767 315.208 278.501C312.935 278.598 310.362 281.666 308.875 283.151C306.6 285.425 305.413 287.554 303.632 290.129C303.632 290.129 308.183 289.188 309.471 287.505Z" fill="#31C5A1"/>
<path d="M304.926 295.322C301.659 295.125 298.492 294.233 295.722 292.451C292.655 290.571 286.844 281.399 286.844 281.399C286.844 281.399 293.932 285.304 298.79 289.877L304.926 295.322Z" fill="#31C5A1"/>
<path d="M304.926 295.759C307.498 295.563 310.367 294.704 311.951 292.922C313.038 291.538 314.029 290.152 314.92 288.667C315.711 287.479 317.592 284.314 317.592 284.314C317.592 284.314 312.842 286.095 311.256 287.874C309.181 290.251 304.926 295.759 304.926 295.759Z" fill="#31C5A1"/>
<path d="M306.105 302.443C300.267 301.354 295.021 297.595 291.065 293.242C294.033 293.736 297.666 295.354 300.563 297.398C303.462 299.441 306.105 302.443 306.105 302.443Z" fill="#31C5A1"/>
<path d="M308.282 302.493C310.459 300.811 311.944 298.93 313.528 296.753C314.615 295.269 317.091 291.905 317.091 291.905C317.091 291.905 306.699 299.328 306.105 303.778L308.282 302.493Z" fill="#31C5A1"/>
<path d="M307.59 307.62C304.423 307.62 301.554 307.42 298.584 306.036C295.715 304.749 291.757 301.485 290.865 298.317C294.727 299.308 307.59 307.62 307.59 307.62Z" fill="#31C5A1"/>
<path d="M307.068 309.057C309.544 309.057 319.437 296.883 319.437 296.883C319.437 296.883 316.072 297.972 314.688 299.159C312.413 301.239 307.068 309.057 307.068 309.057Z" fill="#31C5A1"/>
<path d="M309.817 316.575C306.155 315.683 302.888 315.189 299.723 312.913C297.843 311.628 296.061 310.143 294.28 308.56C292.894 307.272 289.629 305.293 289.629 305.293C289.629 305.293 294.776 306.877 296.657 307.769C300.613 309.451 304.077 311.826 307.343 314.596L309.817 316.575Z" fill="#31C5A1"/>
<path d="M308.031 312.383C310.704 312.58 313.558 310.294 315.537 308.809C317.813 307.126 321.571 301.982 321.571 301.982C321.571 301.982 317.22 303.565 315.438 305.05C313.459 306.731 308.031 312.383 308.031 312.383Z" fill="#31C5A1"/>
<path d="M150.114 311.612C151.781 319.378 153.175 327.647 153.239 335.828H154.61C154.692 329.431 153.93 322.973 152.841 316.683C150.438 302.79 146.094 289.325 142.81 275.634C138.951 259.538 134.64 242.381 135.414 225.738C136.192 209.064 142.914 193.701 145.375 177.365C145.466 176.765 144.649 176.51 144.45 177.109C139.678 191.567 135.372 206.861 133.818 222.035C132.187 237.961 136.109 254.302 139.585 269.752C142.746 283.796 147.092 297.538 150.114 311.612Z" fill="#21836A"/>
<path d="M142.552 188.258C147.274 169.762 154.75 151.661 153.569 131.988C144.519 148.12 142.552 188.258 142.552 188.258Z" fill="#31C5A1"/>
<path d="M140.676 192.584C145.397 178.814 140.676 151.268 132.412 139.069H132.019C131.625 154.023 140.676 192.584 140.676 192.584Z" fill="#31C5A1"/>
<path d="M137.567 207.674C133.437 193.712 126.424 180.864 109.459 168.838L137.567 207.674Z" fill="#31C5A1"/>
<path d="M142.024 192.979C147.532 187.469 151.073 179.991 155.402 173.303C158.55 168.582 164.059 156.382 164.059 156.382C164.059 156.382 145.107 174.936 140.843 194.947L142.024 192.979Z" fill="#31C5A1"/>
<path d="M169.152 175.664C156.953 177.633 143.181 194.947 137.279 205.176C137.279 205.176 162.462 185.107 169.152 175.664Z" fill="#31C5A1"/>
<path d="M138.607 202.898C142.148 187.162 131.13 167.879 118.538 158.828C124.047 171.419 138.607 202.898 138.607 202.898Z" fill="#31C5A1"/>
<path d="M160.151 191.162C146.772 197.063 140.87 209.261 134.968 221.852C134.968 221.852 159.365 199.032 160.151 191.162Z" fill="#31C5A1"/>
<path d="M134.294 220.722C135.52 216.523 132.545 210.927 130.446 207.428C125.723 200.083 119.777 192.738 112.432 187.664C116.105 199.035 134.294 220.722 134.294 220.722Z" fill="#31C5A1"/>
<path d="M157.03 208.129C157.03 208.129 148.11 213.2 145.662 215.824C141.465 220.195 136.393 225.793 134.819 231.913C134.819 231.913 150.959 221.349 157.03 208.129Z" fill="#31C5A1"/>
<path d="M134.358 225.391C127.188 215.596 115.929 204.453 103.687 201.131C106.311 203.405 107.535 206.727 109.459 209.527C112.082 212.849 115.474 216.172 119.023 217.899C123.915 220.28 134.358 225.391 134.358 225.391Z" fill="#31C5A1"/>
<path d="M135.025 239.968C133.627 233.321 126.105 226.851 121.209 222.828C115.613 218.455 109.666 214.432 103.02 211.984C106.343 216.708 110.541 220.904 114.562 225.101C118.761 229.472 135.025 239.968 135.025 239.968Z" fill="#31C5A1"/>
<path d="M145.312 235.936C149.16 230.865 152.833 225.793 155.456 220.021C151.433 220.195 146.886 225.617 144.263 228.243C140.24 232.261 138.141 236.022 134.993 240.571C134.993 240.571 143.037 238.91 145.312 235.936Z" fill="#31C5A1"/>
<path d="M137.279 249.755C131.508 249.402 125.911 247.829 121.013 244.681C115.592 241.359 105.323 225.147 105.323 225.147C105.323 225.147 117.85 232.048 126.435 240.134L137.279 249.755Z" fill="#31C5A1"/>
<path d="M137.279 250.527C141.826 250.177 146.899 248.66 149.697 245.514C151.62 243.064 153.37 240.614 154.943 237.99C156.342 235.893 159.665 230.297 159.665 230.297C159.665 230.297 151.271 233.445 148.472 236.594C144.8 240.79 137.279 250.527 137.279 250.527Z" fill="#31C5A1"/>
<path d="M139.365 262.342C129.047 260.416 119.777 253.77 112.781 246.074C118.028 246.949 124.448 249.811 129.572 253.422C134.695 257.032 139.365 262.342 139.365 262.342Z" fill="#31C5A1"/>
<path d="M143.213 262.429C147.061 259.457 149.685 256.134 152.483 252.286C154.405 249.662 158.778 243.716 158.778 243.716C158.778 243.716 140.414 256.833 139.365 264.702L143.213 262.429Z" fill="#31C5A1"/>
<path d="M141.989 271.488C136.393 271.488 131.32 271.14 126.073 268.69C121.002 266.417 114.006 260.645 112.432 255.049C119.253 256.798 141.989 271.488 141.989 271.488Z" fill="#31C5A1"/>
<path d="M141.068 274.023C145.44 274.023 162.929 252.513 162.929 252.513C162.929 252.513 156.983 254.436 154.534 256.535C150.512 260.208 141.068 274.023 141.068 274.023Z" fill="#31C5A1"/>
<path d="M145.925 287.315C139.453 285.742 133.681 284.868 128.085 280.845C124.761 278.571 121.613 275.95 118.466 273.15C116.018 270.876 110.246 267.38 110.246 267.38C110.246 267.38 119.341 270.175 122.664 271.751C129.659 274.725 135.78 278.922 141.551 283.819L145.925 287.315Z" fill="#31C5A1"/>
<path d="M142.768 279.91C147.491 280.256 152.535 276.216 156.033 273.59C160.056 270.618 166.702 261.526 166.702 261.526C166.702 261.526 159.007 264.324 155.86 266.945C152.361 269.919 142.768 279.91 142.768 279.91Z" fill="#31C5A1"/>
<path d="M223.025 309.071C223.418 318.153 221.42 327.458 219.305 336.537H220.427C222.61 327.913 224.226 318.98 224.284 310.324C224.325 304.486 223.208 298.673 221.88 293.017C220.468 287.002 219.052 280.69 216.853 274.914C216.735 274.598 216.176 274.611 216.217 275C216.797 280.4 218.708 285.697 220.062 290.943C221.596 296.896 222.757 302.919 223.025 309.071Z" fill="#6CA886"/>
<path d="M217.131 275.861C216.409 273.654 215.873 271.488 215.407 269.216C215.373 269.051 215.117 269.09 215.119 269.255C215.147 271.567 215.648 273.974 216.75 276.02C216.862 276.226 217.204 276.084 217.131 275.861Z" fill="#31C5A1"/>
<path d="M218.351 279.719C218.201 276.079 217.67 272.832 218.979 269.297C219.043 269.125 218.794 269.047 218.701 269.179C216.714 272 217.066 276.599 217.898 279.781C217.962 280.031 218.362 279.981 218.351 279.719Z" fill="#31C5A1"/>
<path d="M219.039 281.739C219.338 281.653 219.724 277.626 219.808 277.19C220.126 275.582 220.586 274.001 220.874 272.387C220.902 272.228 220.704 272.135 220.612 272.277C219.417 274.082 219.224 276.889 218.888 278.975C218.848 279.231 218.343 282.285 219.103 281.98C219.249 281.922 219.196 281.694 219.039 281.739Z" fill="#31C5A1"/>
<path d="M218.491 283.963C217.513 279.399 213.939 274.175 210.095 271.527C209.979 271.446 209.85 271.624 209.947 271.721C213.651 275.363 215.923 279.491 218.237 284.071C218.313 284.219 218.523 284.111 218.491 283.963Z" fill="#31C5A1"/>
<path d="M217.408 278.822C216.396 276.772 215.244 274.902 213.651 273.252C213.604 273.205 213.54 273.274 213.581 273.323C215.04 275.036 216.078 277.008 217.139 278.979C217.236 279.157 217.496 279.001 217.408 278.822Z" fill="#31C5A1"/>
<path d="M219.604 286.09C219.484 283.896 219.92 281.777 219.926 279.596C219.929 279.452 219.699 279.413 219.671 279.562C219.26 281.648 218.811 284.031 219.237 286.142C219.28 286.348 219.615 286.301 219.604 286.09Z" fill="#31C5A1"/>
<path d="M220.47 287.859C220.88 284.442 221.158 281.147 224.087 278.885C224.19 278.805 224.136 278.594 223.988 278.652C220.805 279.938 219.834 284.807 220.133 287.859C220.154 288.076 220.442 288.073 220.47 287.859Z" fill="#31C5A1"/>
<path d="M219.23 286.155C217.734 284.876 216.378 283.572 214.745 282.452C213.05 281.29 210.866 279.444 208.795 279.149C208.655 279.13 208.539 279.323 208.69 279.396C210.733 280.363 212.611 281.638 214.472 282.919C215.519 283.638 216.535 284.419 217.451 285.3C217.949 285.779 218.394 286.237 219.056 286.454C219.222 286.509 219.366 286.271 219.23 286.155Z" fill="#31C5A1"/>
<path d="M211.947 278.878C214.713 279.381 216.282 282.132 218.254 283.849C218.383 283.961 218.538 283.795 218.437 283.666C216.924 281.715 214.694 278.741 211.975 278.668C211.855 278.663 211.825 278.857 211.947 278.878Z" fill="#31C5A1"/>
<path d="M219.221 286.09C219.473 283.161 221.145 281.07 222.395 278.541C222.477 278.38 222.277 278.21 222.142 278.345C220.339 280.131 218.594 283.49 218.858 286.09C218.88 286.324 219.202 286.327 219.221 286.09Z" fill="#31C5A1"/>
<path d="M211.631 286.013C215.158 286.707 217.393 289.623 220.025 291.791C220.148 291.892 220.302 291.74 220.199 291.619C217.9 288.925 215.317 286.363 211.689 285.796C211.55 285.774 211.487 285.983 211.631 286.013Z" fill="#31C5A1"/>
<path d="M220.36 289.692C219.232 288.573 218.42 287.531 217.062 286.645C215.74 285.786 214.152 284.978 212.543 284.982C212.431 284.982 212.401 285.158 212.517 285.18C214.122 285.506 215.504 286.065 216.856 286.998C218.033 287.81 218.88 289.394 220.152 289.963C220.322 290.038 220.509 289.838 220.36 289.692Z" fill="#31C5A1"/>
<path d="M221.183 293.232C219.228 293.249 217.487 293.453 215.835 294.581C215.725 294.656 215.818 294.811 215.938 294.757C217.636 293.992 219.346 293.816 221.183 293.713C221.493 293.696 221.497 293.227 221.183 293.232Z" fill="#31C5A1"/>
<path d="M220.322 292.888C217.193 291.082 212.433 291.835 209.289 293.221C209.214 293.255 209.268 293.375 209.345 293.354C213.035 292.245 216.482 292.376 220.195 293.188C220.373 293.227 220.487 292.984 220.322 292.888Z" fill="#31C5A1"/>
<path d="M221.295 291.785C217.537 290.973 214.023 290.263 210.179 291.278C210.054 291.312 210.078 291.518 210.209 291.508C211.958 291.336 213.682 291.213 215.439 291.276C217.412 291.346 219.318 292.159 221.246 292.137C221.444 292.135 221.495 291.83 221.295 291.785Z" fill="#31C5A1"/>
<path d="M220.395 290.803C221.029 287.586 223.416 285.628 225.303 283.149C225.402 283.02 225.204 282.818 225.073 282.919C222.752 284.696 220.148 287.696 220.077 290.758C220.072 290.938 220.358 290.984 220.395 290.803Z" fill="#31C5A1"/>
<path d="M220.775 291.986C222.29 289.096 224.667 287.396 227.845 286.734C228.013 286.7 227.963 286.459 227.807 286.451C224.665 286.272 221.349 288.9 220.438 291.845C220.378 292.044 220.679 292.173 220.775 291.986Z" fill="#31C5A1"/>
<path d="M221.596 294.966C222.067 292.733 223.803 291.115 225.258 289.471C225.359 289.357 225.228 289.157 225.088 289.249C224.16 289.866 223.393 290.754 222.733 291.641C222.043 292.563 221.229 293.715 221.269 294.923C221.278 295.103 221.557 295.157 221.596 294.966Z" fill="#31C5A1"/>
<path d="M222.26 296.754C224.521 294.53 226.807 294.53 229.762 294.368C229.99 294.358 230.044 294.035 229.816 293.969C227.095 293.174 223.732 294.278 222.002 296.498C221.86 296.676 222.088 296.926 222.26 296.754Z" fill="#31C5A1"/>
<path d="M222.481 298.134C219.148 297.251 215.068 297.816 213.355 301.186C213.305 301.283 213.437 301.358 213.499 301.272C214.591 299.72 215.869 298.779 217.724 298.339C219.353 297.952 220.883 298.612 222.481 298.394C222.619 298.377 222.602 298.167 222.481 298.134Z" fill="#31C5A1"/>
<path d="M221.783 296.45C219.219 295.602 215.783 296.919 213.404 297.873C213.31 297.91 213.344 298.056 213.447 298.028C214.629 297.716 215.796 297.351 216.987 297.08C218.585 296.715 220.15 296.854 221.753 296.676C221.878 296.661 221.91 296.493 221.783 296.45Z" fill="#31C5A1"/>
<path d="M221.688 294.89C217.537 294.727 213.026 293.747 209.407 296.358C209.317 296.427 209.394 296.569 209.498 296.513C211.687 295.326 214.07 295.112 216.52 295.12C218.252 295.127 220.023 295.511 221.731 295.202C221.912 295.167 221.86 294.897 221.688 294.89Z" fill="#31C5A1"/>
<path d="M221.781 295.154C222.359 292.561 226.36 293.304 228.236 292.84C228.423 292.795 228.425 292.507 228.236 292.462C226.259 291.98 221.768 292.565 221.465 295.111C221.446 295.292 221.74 295.329 221.781 295.154Z" fill="#31C5A1"/>
<path d="M223.167 302.41C224.16 298.269 228.29 298.691 231.629 298.155C231.769 298.132 231.769 297.895 231.629 297.874C228.46 297.393 223.13 298.431 222.853 302.365C222.84 302.548 223.126 302.582 223.167 302.41Z" fill="#31C5A1"/>
<path d="M222.967 300.329C223.249 299.88 223.208 299.416 223.612 298.973C224.061 298.481 224.684 298.139 225.266 297.834C226.249 297.316 227.342 297.065 228.322 296.562C228.447 296.497 228.393 296.276 228.249 296.291C226.928 296.411 225.514 297.116 224.39 297.782C223.818 298.124 221.981 299.53 222.823 300.348C222.866 300.389 222.935 300.38 222.967 300.329Z" fill="#31C5A1"/>
<path d="M222.963 297.931C224.02 296.629 225.737 296.429 227.069 295.567C227.198 295.483 227.155 295.262 226.986 295.264C226.175 295.281 225.294 295.797 224.583 296.152C223.904 296.491 222.993 296.964 222.632 297.673C222.527 297.877 222.804 298.124 222.963 297.931Z" fill="#31C5A1"/>
<path d="M223.822 308.388C223.231 306.555 221.265 304.892 219.757 303.772C218.426 302.79 216.467 301.555 214.928 302.797C214.829 302.878 214.958 303.003 215.055 302.96C217 302.124 218.71 303.553 220.103 304.772C221.347 305.863 222.703 307.097 223.605 308.481C223.676 308.59 223.865 308.522 223.822 308.388Z" fill="#31C5A1"/>
<path d="M223.397 305.822C222.621 304.249 221.04 303.325 219.598 302.425C218.482 301.726 216.856 300.744 215.487 301.219C215.407 301.247 215.416 301.372 215.508 301.37C218.196 301.331 221.596 303.893 223.135 305.975C223.251 306.13 223.485 306.001 223.397 305.822Z" fill="#31C5A1"/>
<path d="M223.122 302.886C221.665 301.571 218.897 299.86 216.911 301.023C216.819 301.077 216.881 301.218 216.984 301.193C218.989 300.709 221.366 301.835 222.905 303.103C223.055 303.228 223.272 303.021 223.122 302.886Z" fill="#31C5A1"/>
<path d="M222.232 300.364C221.171 299.814 219.821 299.44 218.624 299.649C218.491 299.672 218.495 299.885 218.624 299.911C219.772 300.16 220.923 300.536 222.08 300.727C222.286 300.764 222.447 300.476 222.232 300.364Z" fill="#31C5A1"/>
<path d="M223.556 311.341C221.113 310.019 217.855 309.34 215.394 310.986C215.289 311.057 215.381 311.203 215.493 311.154C218.175 310.008 220.797 310.726 223.401 311.704C223.616 311.783 223.751 311.446 223.556 311.341Z" fill="#31C5A1"/>
<path d="M223.367 310.317C222.114 308.257 218.22 307.979 216.127 308.508C216.084 308.517 216.093 308.594 216.138 308.587C218.762 308.257 221.035 309.067 223.206 310.479C223.307 310.543 223.429 310.416 223.367 310.317Z" fill="#31C5A1"/>
<path d="M223.537 308.531C221.676 307.414 219.529 307.199 217.399 307.061C217.29 307.053 217.268 307.225 217.373 307.253C219.374 307.751 221.484 307.923 223.373 308.813C223.56 308.899 223.719 308.641 223.537 308.531Z" fill="#31C5A1"/>
<path d="M223.741 307.636C226.835 305.95 229.588 305.554 233.043 305.26C233.233 305.243 233.304 304.946 233.091 304.903C229.91 304.267 226.113 305.402 223.549 307.31C223.358 307.454 223.522 307.757 223.741 307.636Z" fill="#31C5A1"/>
<path d="M223.837 306.226C224.865 304.034 227.585 304.316 229.491 303.532C229.655 303.465 229.644 303.214 229.446 303.209C227.607 303.179 224.082 304.015 223.562 306.11C223.522 306.271 223.764 306.388 223.837 306.226Z" fill="#31C5A1"/>
<path d="M223.519 304.305C224.405 303.716 225.176 303.018 226.117 302.504C227.278 301.872 228.574 301.593 229.857 301.344C229.994 301.318 229.955 301.116 229.827 301.111C227.557 301.021 224.645 302.195 223.343 304.129C223.272 304.236 223.414 304.374 223.519 304.305Z" fill="#31C5A1"/>
<path d="M223.317 314.731C225.38 311.951 228.801 311.237 231.883 310.135C232.025 310.083 232.014 309.834 231.844 309.853C229.042 310.182 224.321 311.792 223.087 314.598C223.019 314.755 223.214 314.869 223.317 314.731Z" fill="#31C5A1"/>
<path d="M223.876 312.123C225.413 310.492 227.233 310.009 229.227 309.171C229.341 309.123 229.345 308.915 229.195 308.93C227.317 309.13 224.613 310.226 223.642 311.941C223.558 312.087 223.758 312.248 223.876 312.123Z" fill="#31C5A1"/>
<path d="M224.231 309.759C224.856 309.353 225.447 308.91 226.098 308.538C226.758 308.164 227.478 307.913 228.137 307.546C228.299 307.453 228.18 307.236 228.019 307.264C226.648 307.483 224.963 308.482 224.033 309.503C223.915 309.636 224.069 309.862 224.231 309.759Z" fill="#31C5A1"/>
<path d="M223.137 317.723C222.793 316.124 221.035 314.97 219.578 314.48C219.434 314.433 219.37 314.633 219.482 314.712C220.124 315.164 220.805 315.542 221.42 316.038C222.034 316.537 222.484 317.156 222.903 317.822C222.982 317.947 223.169 317.863 223.137 317.723Z" fill="#31C5A1"/>
<path d="M223.292 315.712C222.6 314.631 221.338 314.179 220.139 313.932C220.03 313.909 219.944 314.07 220.057 314.126C221.125 314.639 222.084 315.187 223.017 315.924C223.161 316.04 223.41 315.894 223.292 315.712Z" fill="#31C5A1"/>
<path d="M223.139 313.612C222.398 313.157 221.581 312.819 220.82 312.392C220.01 311.938 219.191 311.519 218.308 311.229C218.203 311.192 218.138 311.354 218.233 311.405C219.714 312.241 221.345 313.636 223.077 313.84C223.206 313.855 223.234 313.67 223.139 313.612Z" fill="#31C5A1"/>
<path d="M216.454 305.974C219.338 306.067 221.244 307.642 223.653 308.957C223.762 309.015 223.874 308.873 223.786 308.785C221.953 306.939 219.108 305.328 216.434 305.824C216.346 305.839 216.37 305.972 216.454 305.974Z" fill="#31C5A1"/>
<path d="M212.901 280.424C215.272 281.29 216.516 283.703 218.28 285.338C218.358 285.409 218.484 285.317 218.426 285.224C217.734 284.092 216.886 283.075 215.966 282.119C215.171 281.294 214.122 280.359 212.921 280.273C212.831 280.269 212.824 280.398 212.901 280.424Z" fill="#31C5A1"/>
<path d="M218.093 282.748C218.175 279.503 219.144 276.57 220.277 273.568C220.317 273.454 220.143 273.387 220.085 273.486C218.532 276.207 217.651 279.615 217.842 282.748C217.853 282.909 218.087 282.909 218.093 282.748Z" fill="#31C5A1"/>
<path d="M219.724 288.205C219.956 286.69 220.356 285.306 221.042 283.927C221.734 282.536 222.795 281.429 223.597 280.121C223.7 279.951 223.474 279.809 223.339 279.921C221.067 281.795 219.445 285.235 219.486 288.173C219.486 288.306 219.703 288.347 219.724 288.205Z" fill="#31C5A1"/>
<path d="M213.615 283.641C216.355 283.697 218.499 286.643 220.225 288.439C220.311 288.53 220.453 288.413 220.395 288.308C219.148 286.007 216.4 283.327 213.615 283.37C213.441 283.372 213.441 283.636 213.615 283.641Z" fill="#31C5A1"/>
<path d="M220.874 293.588C221.386 292.291 222.047 291.25 223.047 290.273C224.074 289.267 225.307 288.809 226.451 288.021C226.595 287.92 226.556 287.664 226.356 287.67C224.963 287.724 223.588 288.938 222.619 289.843C221.609 290.786 220.571 292.108 220.479 293.535C220.464 293.78 220.797 293.784 220.874 293.588Z" fill="#31C5A1"/>
<path d="M221.852 295.823C218.742 294.39 215.762 294.156 212.353 294.491C212.205 294.506 212.205 294.71 212.353 294.725C214.212 294.891 216.08 294.837 217.93 295.106C219.254 295.299 220.449 296.27 221.753 296.195C221.931 296.184 222.045 295.911 221.852 295.823Z" fill="#31C5A1"/>
<path d="M221.6 297.018L221.603 297.028C221.71 297.379 222.26 297.228 222.153 296.876L222.142 296.835C222.062 296.575 221.695 296.575 221.615 296.835L221.603 296.876C221.495 297.228 222.045 297.379 222.153 297.028L222.157 297.018C222.299 296.553 221.459 296.553 221.6 297.018Z" fill="#31C5A1"/>
<path d="M222.43 297.735C223.427 295.665 226.186 294.911 228.215 294.273C228.333 294.236 228.316 294.045 228.185 294.054C226.953 294.109 225.778 294.602 224.676 295.128C223.711 295.588 222.267 296.413 222.062 297.58C222.026 297.791 222.325 297.954 222.43 297.735Z" fill="#31C5A1"/>
<path d="M222.144 295.969C222.703 293.803 225.86 292.851 227.708 292.116C227.822 292.071 227.781 291.899 227.656 291.927C226.317 292.23 225.052 292.769 223.872 293.466C223.021 293.966 221.807 294.813 221.86 295.93C221.867 296.092 222.103 296.135 222.144 295.969Z" fill="#31C5A1"/>
<path d="M222.105 297.368C219.765 296.882 217.625 296.313 215.192 296.609C215.01 296.633 215.012 296.869 215.192 296.893C216.344 297.041 217.513 297.058 218.667 297.19C219.812 297.318 220.96 297.843 222.105 297.647C222.249 297.624 222.243 297.396 222.105 297.368Z" fill="#31C5A1"/>
<path d="M211.52 288.856C215.362 287.839 218.031 290.994 221.138 292.604C221.226 292.651 221.334 292.528 221.25 292.462C218.435 290.246 215.259 287.362 211.421 288.499C211.195 288.568 211.29 288.918 211.52 288.856Z" fill="#31C5A1"/>
<path d="M220.212 292.684C220.7 291.747 221.194 290.847 221.815 289.989C222.505 289.041 223.365 288.27 224.119 287.387C224.216 287.273 224.093 287.084 223.953 287.172C222.185 288.281 220.517 290.567 219.868 292.538C219.8 292.742 220.113 292.875 220.212 292.684Z" fill="#31C5A1"/>
<path d="M228.842 340.398C268.015 341.215 306.785 343.802 345.672 346.181C365.087 347.369 384.49 348.65 403.743 350.324C377.324 344.797 328.747 335.142 301.509 332.763C274.26 330.384 247.093 327.797 219.647 326.98C154.857 325.048 90.4022 330.786 29.6688 347.745C25.5847 348.887 21.6408 350.064 17.775 351.278C86.3654 341.993 157.459 338.907 228.842 340.398Z" fill="#31C5A1"/>
<path d="M210.093 371.896C204.718 371.896 199.468 370.389 194.268 368.99C190.484 367.972 186.631 366.895 182.726 366.895C182.154 366.895 181.581 366.919 181.008 366.968C177.48 367.273 173.905 367.51 170.336 367.51C167.679 367.51 165.025 367.378 162.4 367.047C158.408 366.545 149.21 364.875 151.322 357.949C152.18 355.132 154.248 353.7 156.598 352.555C159.945 350.922 163.52 349.871 167.088 349.029C169.47 348.466 171.875 347.976 174.293 347.6C174.309 347.804 174.322 347.95 174.331 348.038C174.655 349.938 175.982 350.593 177.661 350.593C181.414 350.593 186.925 347.318 186.925 347.318C186.925 347.318 186.927 346.987 186.927 346.373C189.123 345.893 191.36 345.549 193.619 345.341C193.625 346.499 193.63 347.14 193.63 347.14C193.63 347.14 197.47 348.743 200.796 348.743C203.057 348.743 205.079 348.004 205.505 345.522C207.525 345.773 209.523 346.136 211.475 346.617C216.873 347.943 225.664 350.232 227.845 356.814C228.928 360.074 227.329 363.409 225.148 365.575C221.233 369.465 216.288 371.702 211.032 371.88C210.718 371.889 210.407 371.896 210.093 371.896Z" fill="#E0E0E0"/>
<path d="M157.322 173.868C157.456 173.507 157.597 173.129 157.734 172.727C158.687 169.923 159.034 168.071 160.117 163.558C160.812 160.661 161.467 157.923 161.983 156.073C162.276 155.024 162.503 153.473 162.765 151.679C163.714 145.184 166.723 136.346 173.158 136.346C173.401 136.346 176.786 139.23 175.428 146.134C174.24 152.168 167.954 172.467 165.211 178.775C164.628 180.118 163.323 181.549 161.408 181.549C160.401 181.549 159.391 181.145 158.404 180.341C155.722 178.162 156.498 176.078 157.322 173.868Z" fill="#582EFF"/>
<path d="M222.832 173.868C222.698 173.507 222.557 173.129 222.419 172.727C221.467 169.923 221.119 168.071 220.038 163.558C219.342 160.661 218.686 157.923 218.168 156.073C217.878 155.024 217.651 153.473 217.388 151.679C216.441 145.184 213.073 136.346 206.639 136.346C206.397 136.346 203.367 139.23 204.727 146.134C205.913 152.168 212.199 172.467 214.941 178.775C215.525 180.118 216.83 181.549 218.744 181.549C219.752 181.549 220.764 181.145 221.749 180.341C224.433 178.162 223.655 176.078 222.832 173.868Z" fill="#582EFF"/>
<path d="M207.478 117.216C202.206 110.501 201.804 97.1041 191.418 89.7095C184.982 85.128 170.695 90.8205 168.41 98.965C165.104 110.752 172.112 123.669 171.022 128.163C171.022 128.163 175.419 128.685 189.757 124.378C204.095 120.074 207.478 117.216 207.478 117.216Z" fill="#B47B61"/>
<path d="M169.298 127.153C170.089 124.808 169.603 122.348 169.103 119.964C168.541 117.293 167.797 114.652 167.77 111.904C167.741 108.908 167.595 105.96 168.049 102.977C168.263 101.578 168.584 100.198 169.002 98.8467C169.426 97.4822 170.213 96.2229 170.543 94.8475C170.606 94.5854 170.277 94.4715 170.13 94.6735C166.83 99.1712 166.427 105.644 166.82 111.036C167.013 113.687 167.615 116.223 168.343 118.772C169.1 121.424 169.925 124.374 169.256 127.142C169.249 127.17 169.289 127.181 169.298 127.153Z" fill="#B47B61"/>
<path d="M181.621 87.7988C184.355 87.3754 187.55 87.7945 190.118 88.783C192.875 89.8467 195.016 91.9054 196.787 94.222C198.428 96.3731 199.72 98.7691 200.902 101.197C202.082 103.626 203.098 106.215 204.662 108.429C204.793 108.616 205.051 108.457 204.963 108.252C203.82 105.547 202.432 102.91 201.078 100.306C199.767 97.7828 198.34 95.3007 196.488 93.1281C194.678 91.0071 192.547 89.3138 189.869 88.4499C187.112 87.5624 184.449 87.7558 181.612 87.7365C181.568 87.7365 181.574 87.8052 181.621 87.7988Z" fill="#B47B61"/>
<path d="M201.813 105.987C202.539 107.719 203.257 109.451 204.19 111.087C205.028 112.552 206.102 114.463 207.572 115.365C207.688 115.436 207.813 115.299 207.753 115.187C207.342 114.439 206.717 113.85 206.186 113.191C205.561 112.413 204.996 111.587 204.48 110.737C203.541 109.187 202.726 107.558 201.88 105.959C201.86 105.923 201.796 105.949 201.813 105.987Z" fill="#B47B61"/>
<path d="M200.713 134.697C199.507 134.697 194.917 132.23 194.476 128.549C194.476 128.549 190.359 132.019 190.047 132.071C189.736 132.019 185.616 128.549 185.616 128.549C185.176 132.23 180.586 134.697 179.38 134.697C179.38 134.697 179.527 147.636 190.047 147.636C200.569 147.636 200.713 134.697 200.713 134.697Z" fill="#FF9362"/>
<path d="M196.825 114.627C194.825 118.512 193.793 135.818 194.079 139.564C191.616 143.258 184.177 142.456 183.598 141.678C183.128 141.044 187.55 127.291 184.548 123.55C181.982 120.354 180.68 119.063 182.571 117.419C185.973 114.46 190.6 113.574 194.986 112.611L196.825 114.627Z" fill="#FF9362"/>
<path d="M195.607 131.257C195.607 131.257 195.605 131.257 195.602 131.255C195.171 130.664 194.825 130.008 194.627 129.299C194.934 130.167 195.607 131.257 195.607 131.257ZM194.476 128.549C194.633 126.583 194.833 124.569 195.07 122.689C195.082 122.685 195.095 122.68 195.108 122.676C194.872 124.483 194.657 126.473 194.476 128.549Z" fill="#B0BEBA"/>
<path d="M195.07 122.689C195.106 122.395 195.145 122.103 195.183 121.815C195.201 121.785 195.218 121.753 195.237 121.722C195.192 122.034 195.149 122.352 195.108 122.677C195.095 122.681 195.082 122.685 195.07 122.689Z" fill="#A94E4C"/>
<path d="M195.603 131.255C195.562 131.212 195.119 130.761 194.352 130.206C194.391 129.66 194.431 129.108 194.476 128.549C194.459 128.743 194.522 129.009 194.627 129.299C194.825 130.008 195.171 130.664 195.603 131.255Z" fill="#D89171"/>
<path d="M185.599 127.757C185.599 127.748 185.599 127.742 185.599 127.733C185.599 127.742 185.599 127.748 185.599 127.757ZM185.556 126.786C185.541 126.62 185.522 126.461 185.5 126.308C185.502 126.311 185.507 126.311 185.509 126.313C185.526 126.465 185.543 126.624 185.556 126.786Z" fill="#B0BEBA"/>
<path d="M194.352 130.206C193.348 129.482 191.786 128.581 189.83 128.182C188.232 127.855 187.067 128.023 185.599 127.756C185.599 127.748 185.599 127.741 185.599 127.733C185.597 127.4 185.582 127.081 185.556 126.785C185.543 126.624 185.526 126.465 185.509 126.312C185.754 126.405 186.001 126.493 186.246 126.579C186.955 126.789 187.621 126.886 188.249 126.886C188.93 126.886 189.564 126.772 190.153 126.566C191.322 126.271 192.433 125.603 193.423 124.423C194.049 123.604 194.653 122.728 195.183 121.814C195.145 122.102 195.106 122.395 195.07 122.689C194.833 124.569 194.633 126.583 194.476 128.549C194.431 129.108 194.39 129.66 194.352 130.206Z" fill="#D89171"/>
<path d="M184.92 349.076C184.914 349.048 184.967 347.825 185.062 345.7H179.487L179.601 346.942C179.351 349.076 175.271 351.607 170.834 354.197L170.832 354.199C168.962 355.306 167.476 356.391 167.36 356.924C167.016 358.486 169.563 358.591 170.758 358.458C173.804 358.127 176.594 356.786 179.465 356.133C180.931 355.8 184.159 355.364 185.098 354.036C186.106 352.617 185.797 350.451 184.92 349.076Z" fill="#120D24"/>
<path d="M209.263 354.199L209.261 354.197C204.821 351.607 200.741 349.076 200.496 346.942L200.612 345.7H195.044C195.132 347.825 195.181 349.048 195.175 349.076C194.296 350.451 193.986 352.617 194.996 354.036C195.936 355.364 199.165 355.8 200.629 356.133C203.502 356.786 206.289 358.127 209.336 358.458C210.529 358.591 213.078 358.486 212.736 356.924C212.62 356.391 211.133 355.306 209.263 354.199Z" fill="#120D24"/>
<path d="M174.331 348.038C175.377 354.182 186.925 347.318 186.925 347.318C186.925 347.318 187.114 280.828 187.688 276.021C187.645 273.661 192.263 211.812 192.263 211.812V196.802H174.61C172.584 203.519 168.451 211.488 168.451 226.167C168.451 248.862 173.958 344.54 174.331 348.038Z" fill="#2E2458"/>
<path d="M205.505 345.519C204.458 351.661 193.63 347.14 193.63 347.14C193.63 347.14 193.31 280.828 192.734 276.02C192.777 273.661 188.159 211.812 188.159 211.812L173.775 200.008L174.61 196.802H205.812C207.839 203.519 211.973 211.488 211.973 226.167C211.973 248.862 205.877 342.023 205.505 345.519Z" fill="#2E2458"/>
<path d="M193.03 101.053C189.259 96.5102 184.75 97.157 184.75 97.157C183.813 97.2172 182.889 97.3247 181.991 97.4837L181.96 97.3848C181.791 97.4493 181.623 97.5181 181.453 97.589C181.274 97.6234 181.095 97.6577 180.919 97.6986L180.948 97.7953C180.11 98.1606 179.279 98.5796 178.464 99.046C178.464 99.046 174.346 100.989 173.7 106.857C173.289 110.601 174.476 111.922 175.611 114.989C176.69 117.909 176.772 118.535 178.035 120.791C179.648 123.671 183.01 125.452 186.246 126.578C187.722 127.017 189.018 126.963 190.153 126.565C191.322 126.271 192.433 125.603 193.423 124.423C195.504 121.7 197.328 118.363 197.087 115.071C196.898 112.49 196.623 111.922 195.914 108.892C195.171 105.708 195.435 103.95 193.03 101.053Z" fill="#FF9362"/>
<path d="M216.892 227.948C216.742 225.329 214.101 210.909 212.815 200.721C210.555 182.786 202.427 168.526 206.036 161.445C212.422 148.91 206.639 136.345 206.639 136.345C204.671 135.645 203.021 135.907 198.409 133.638C198.409 133.638 196.318 138.731 190.047 139.161C183.775 138.731 181.686 133.638 181.686 133.638C177.074 135.907 175.126 135.645 173.158 136.345C173.158 136.345 167.568 152.284 173.22 161.445C177.258 167.991 167.861 183.119 166.125 201.282C165.091 212.091 162.479 225.357 162.3 227.948C162.3 227.948 168.873 234.559 191.259 234.559C213.645 234.559 216.892 227.948 216.892 227.948Z" fill="#582EFF"/>
<path d="M185.298 120.532C187.946 120.929 191.036 118.948 191.036 118.948C191.036 118.948 191.294 121.116 188.747 121.881C186.201 122.646 185.298 120.532 185.298 120.532Z" fill="#F2F2F0"/>
<path d="M188.425 123.216C188.343 123.216 188.266 123.123 188.318 123.037C188.526 122.687 188.926 122.292 189.362 122.292C189.45 122.292 189.54 122.309 189.628 122.343C189.717 122.38 189.717 122.489 189.628 122.524C189.431 122.603 189.22 122.651 189.035 122.762C188.844 122.876 188.659 123.02 188.504 123.181C188.481 123.205 188.453 123.216 188.425 123.216Z" fill="#D89171"/>
<path d="M191.171 111.741C191.154 111.685 191.148 111.635 191.148 111.59C191.148 111.455 191.206 111.35 191.3 111.27C191.395 111.188 191.528 111.141 191.655 111.143C191.749 111.143 191.84 111.167 191.911 111.219C191.984 111.268 192.044 111.345 192.082 111.466C192.104 111.545 192.188 111.588 192.265 111.565C192.343 111.541 192.388 111.459 192.364 111.382C192.31 111.203 192.207 111.064 192.078 110.976C191.951 110.888 191.801 110.847 191.655 110.847C191.459 110.849 191.264 110.918 191.111 111.044C190.961 111.169 190.851 111.363 190.853 111.59C190.853 111.666 190.864 111.745 190.888 111.825C190.911 111.902 190.993 111.947 191.072 111.923C191.15 111.9 191.193 111.818 191.171 111.741Z" fill="#4C0F11"/>
<path d="M188.958 109.349C189.59 109.265 189.916 108.577 190.576 108.444C191.15 108.328 192.057 108.608 192.467 108.124C192.562 108.012 192.615 107.832 192.521 107.696C192.108 107.097 190.855 107.204 190.23 107.415C189.618 107.621 188.599 108.363 188.696 109.087C188.713 109.211 188.803 109.368 188.958 109.349Z" fill="#9F4947"/>
<path d="M194.33 111.536C192.216 111.1 188.898 115.727 192.231 116.451C195.564 117.177 196.451 111.975 194.33 111.536Z" fill="#F78E84"/>
<path d="M180.227 115.026C180.211 114.972 180.204 114.923 180.204 114.877C180.205 114.742 180.263 114.637 180.358 114.555C180.454 114.476 180.587 114.428 180.714 114.428C180.808 114.428 180.897 114.454 180.969 114.504C181.041 114.555 181.101 114.63 181.138 114.751C181.161 114.828 181.243 114.873 181.321 114.849C181.399 114.826 181.444 114.744 181.42 114.667C181.367 114.488 181.265 114.351 181.137 114.261C181.009 114.173 180.86 114.134 180.714 114.134C180.517 114.134 180.322 114.203 180.169 114.329C180.017 114.456 179.909 114.65 179.91 114.877C179.91 114.953 179.921 115.03 179.945 115.11C179.968 115.189 180.05 115.232 180.128 115.208C180.206 115.187 180.25 115.103 180.227 115.026Z" fill="#4C0F11"/>
<path d="M181.749 111.186C181.359 110.563 180.308 110.46 179.635 110.602C178.987 110.737 177.912 111.322 177.794 112.009C177.752 112.259 177.893 112.424 178.135 112.456C178.743 112.538 179.246 111.921 179.783 111.694C180.402 111.429 181.003 111.786 181.591 111.573C181.745 111.517 181.845 111.341 181.749 111.186Z" fill="#9F4947"/>
<path d="M178.388 116.324C179.914 114.794 185.232 116.829 182.848 119.268C180.466 121.709 176.86 117.856 178.388 116.324Z" fill="#F78E84"/>
<path d="M184.836 113.103C184.828 113.103 184.817 113.098 184.81 113.09C184.189 112.314 183.356 111.835 182.653 111.153L182.659 111.147C183.439 111.583 184.507 112.179 184.873 113.04C184.886 113.068 184.862 113.103 184.836 113.103Z" fill="#BA7E63"/>
<path d="M186.807 117.914C186.607 117.914 186.435 117.86 186.321 117.725C186.136 117.504 186.207 116.915 186.203 116.657C186.19 115.952 186.087 115.29 185.82 114.635C185.814 114.618 185.829 114.605 185.846 114.605C185.855 114.605 185.861 114.607 185.866 114.615C186.25 115.355 186.338 116.057 186.373 116.872C186.392 117.325 186.375 117.691 186.906 117.693C186.908 117.693 186.91 117.693 186.912 117.693C187.335 117.693 187.828 117.564 188.178 117.325C188.182 117.321 188.186 117.321 188.193 117.321C188.217 117.321 188.236 117.355 188.214 117.373C187.959 117.581 187.303 117.914 186.807 117.914Z" fill="#BA7E63"/>
<path d="M177.34 102.994C177.755 103.822 178.943 104.451 179.662 105.023C180.42 105.623 181.205 106.175 182.102 106.549C184.271 107.451 186.674 106.858 188.874 107.752C189.025 107.812 189.119 107.598 189.022 107.497C187.473 105.863 184.813 106.802 182.868 106.164C181.653 105.767 180.669 104.877 179.688 104.093C179.075 103.603 178.241 102.782 177.403 102.885C177.347 102.891 177.313 102.941 177.34 102.994Z" fill="#B47B61"/>
<path d="M194.081 92.1785C186.749 82.9445 169.262 88.1965 168.267 100.067C167.689 106.955 171.478 116.204 173.844 116.423C174.697 116.502 173.643 114.908 175.542 115.495C180.121 116.906 173.69 109.49 177.403 102.958C184.828 108.824 190.761 102.655 195.411 110.625C196.413 112.34 197.672 109.602 198.34 109.067C200.193 107.582 198.379 97.5917 194.081 92.1785Z" fill="#B47B61"/>
<path d="M176.985 116.157C175.826 114.195 171.987 113.256 172.57 116.714C173.05 119.563 177.916 124.282 177.774 118.673L176.985 116.157Z" fill="#FF9362"/>
<path d="M195.411 110.625C195.295 108.347 197.984 105.451 199.402 108.657C200.571 111.298 199.11 117.917 196.138 113.159L195.411 110.625Z" fill="#FF9362"/>
<path d="M178.727 121.107C179.359 119.809 179.227 118.258 179.098 116.857C178.962 115.393 178.636 113.968 178.235 112.557C177.831 111.132 177.356 109.739 177.141 108.267C176.843 106.224 177.343 104.395 177.547 102.383C177.558 102.276 177.39 102.233 177.343 102.328C175.902 105.235 176.337 108.852 177.266 111.826C177.697 113.203 178.074 114.592 178.382 116.003C178.756 117.725 178.71 119.347 178.659 121.09C178.658 121.124 178.711 121.139 178.727 121.107Z" fill="#B47B61"/>
<path d="M206.098 161.446H173.22C173.22 172.751 166.284 174.926 165.166 191.342C164.047 207.758 175.827 220.159 189.665 220.159C203.502 220.159 213.697 207.725 214.101 191.116C214.47 175.915 206.098 171.052 206.098 161.446Z" fill="#582EFF"/>
<path d="M189.613 216.37C175.604 216.37 169.532 207.815 169.532 207.815C169.532 207.815 177.371 212.792 189.596 212.792C201.822 212.792 209.661 207.884 209.661 207.884C209.661 207.884 203.625 216.37 189.613 216.37Z" fill="#411BD7"/>
<path d="M173.22 161.517C173.199 161.493 173.179 161.469 173.158 161.445C173.179 161.465 173.2 161.484 173.22 161.504C173.22 161.508 173.22 161.512 173.22 161.517Z" fill="#B0BEBA"/>
<path d="M190.664 161.445H188.53C188.949 161.237 189.306 161.108 189.592 161.108H189.596H189.6C189.888 161.108 190.243 161.237 190.664 161.445Z" fill="#6F6AA2"/>
<path d="M198.108 165.851C194.39 165.851 191.408 163.257 189.596 162.72C187.785 163.257 184.802 165.851 181.085 165.851C178.723 165.851 176.064 164.804 173.22 161.516C173.22 161.512 173.22 161.508 173.22 161.503C175.709 163.869 178.061 164.671 180.181 164.671C183.798 164.671 186.74 162.333 188.53 161.445H190.664C192.452 162.333 195.394 164.671 199.013 164.671C201.149 164.671 203.523 163.854 206.036 161.445C203.167 164.789 200.487 165.851 198.108 165.851Z" fill="#411BD7"/>
<path d="M212.414 194.913C207.836 200.348 205.937 201.394 204.108 201.437C202 201.485 200.276 201.833 198.435 202.849C197.756 203.225 196.561 204.108 196.713 204.605C196.982 205.475 197.676 205.17 198.828 204.558C199.142 204.388 200.205 204.199 200.822 203.82C199.316 205.398 195.42 206.352 193.737 208.389C192.716 209.625 192.418 210.676 193.855 211.679C195.617 212.908 196.593 211.404 198.375 211.277C199.09 211.228 200.238 211.849 202.288 210.706C203.435 210.065 205.558 207.551 206.498 206.661C207.701 205.522 211.309 203.537 213.692 199.542L212.414 194.913Z" fill="#FF9362"/>
<path d="M206.639 199.872C206.639 199.872 214.689 187.647 215.044 177.087C215.231 171.594 222.66 174.697 223.302 175.213C223.302 175.213 226.034 181.159 219.479 192.792C215.861 199.217 210.957 203.923 210.151 204.682C208.522 203.358 207.576 201.725 206.639 199.872Z" fill="#582EFF"/>
<path d="M167.74 194.913C172.318 200.348 174.217 201.394 176.046 201.437C178.155 201.485 179.876 201.833 181.717 202.849C182.4 203.225 183.592 204.108 183.439 204.605C183.173 205.475 182.477 205.17 181.326 204.558C181.011 204.388 179.949 204.199 179.331 203.82C180.838 205.398 184.735 206.352 186.416 208.389C187.437 209.625 187.737 210.676 186.3 211.679C184.538 212.908 183.558 211.404 181.779 211.277C181.064 211.228 179.914 211.849 177.865 210.706C176.719 210.065 174.594 207.551 173.654 206.661C172.454 205.522 168.844 203.537 166.462 199.542L167.74 194.913Z" fill="#FF9362"/>
<path d="M173.515 199.872C173.515 199.872 165.464 187.647 165.108 177.087C164.923 171.594 157.492 174.697 156.851 175.213C156.851 175.213 154.121 181.159 160.673 192.792C164.293 199.217 169.197 203.923 170.003 204.682C171.63 203.358 172.579 201.725 173.515 199.872Z" fill="#582EFF"/>
<path d="M78.1702 374.35C77.8567 374.35 77.5432 374.343 77.2288 374.332C71.9716 374.156 67.0278 371.919 63.1102 368.03C60.9306 365.866 59.3305 362.53 60.4129 359.268C62.596 352.686 71.3871 350.397 76.7835 349.072C80.893 348.062 85.2009 347.561 89.5158 347.561C94.3475 347.561 99.1884 348.186 103.777 349.424C104.444 349.291 105.146 349.241 105.854 349.241C107.197 349.241 108.56 349.418 109.749 349.529C113.585 349.886 117.408 350.593 121.172 351.483C124.738 352.325 128.314 353.376 131.661 355.009C134.01 356.155 136.078 357.586 136.938 360.405C139.049 367.329 129.85 368.999 125.859 369.502C123.234 369.833 120.58 369.964 117.923 369.964C114.355 369.964 110.78 369.729 107.253 369.422C106.679 369.371 106.106 369.349 105.535 369.349C101.631 369.349 97.7757 370.428 93.9923 371.444C88.7938 372.841 83.5452 374.35 78.1702 374.35Z" fill="#E0E0E0"/>
<path d="M101.239 79.5209C106.136 83.952 109.624 89.6253 110.379 96.4396C110.736 99.6694 110.851 102.768 109.724 105.811C108.804 108.287 106.744 110.736 107.629 113.646C108.324 115.93 110.772 117.665 111.715 120.013C112.783 122.676 112.861 125.534 112.314 128.315C111.085 134.555 105.591 138.892 104.991 145.246C104.345 152.108 107.432 159.266 110.053 165.517C112.213 170.664 115.406 175.366 114.62 181.106C113.733 187.578 107.98 190.679 109.057 197.736C110.04 204.181 108.621 209.786 102.667 213.394C97.0569 216.795 91.0196 216.088 85.7244 212.39C79.9152 208.331 79.01 203.607 77.6921 197.066C75.9108 188.238 75.4185 179.548 75.4402 170.554C75.469 159.741 77.1164 148.68 71.7614 139.072C66.5481 129.714 75.5814 123.89 78.1793 115.696C80.2356 109.211 76.3907 102.628 78.0976 96.1C79.696 89.9906 84.7144 84.4076 90.3225 81.6656C91.2766 81.1971 100.697 79.0309 101.239 79.5209Z" fill="#D23140"/>
<path d="M103.999 126.31C111.97 125.19 112.32 140.179 113.864 145.106C115.335 149.802 116.585 161.413 117.006 163.774L123.129 179.509C119.861 179.068 111.863 166.016 111.016 164.223C108.051 157.955 103.159 140.983 101.816 135.137C100.357 128.787 103.999 126.31 103.999 126.31Z" fill="#C57D5D"/>
<path d="M95.2195 295.789C94.3542 283.052 97.1637 279.104 96.5248 270.276C96.836 264.938 99.061 263.57 101.827 263.224C105.386 262.777 108.132 268.534 108.132 268.534C107.09 276.343 109.557 282.859 109.39 295.967C109.202 311.048 100.705 349.437 100.705 349.437C100.96 351.642 105.174 354.255 109.758 356.93C109.758 356.93 112.204 359.232 111.979 359.752C111.396 361.11 110.772 361.018 109.537 360.882C106.391 360.539 103.728 359.208 100.763 358.536C99.2492 358.192 96.2422 357.846 95.2703 356.475C94.0862 354.805 95.1435 352.944 95.3046 350.901L95.1778 348.853C95.1744 348.818 96.0847 308.521 95.2195 295.789Z" fill="#C57D5D"/>
<path d="M77.5509 356.93C82.1346 354.255 86.3489 351.642 86.6044 349.437C86.6044 349.437 86.6476 349.147 86.702 348.681C86.7003 348.67 80.2266 311.046 80.0349 295.967C79.8718 282.859 82.3373 276.343 81.2946 268.534C81.2946 268.534 84.0407 262.777 87.5981 263.224C90.3661 263.57 92.5907 264.938 92.9021 270.276C92.2632 279.104 95.0727 283.052 94.2076 295.789C93.3422 308.523 92.1076 349.235 92.1076 349.235L92.0045 350.901C92.1657 352.944 93.2227 354.805 92.0369 356.475C91.0667 357.846 88.0597 358.192 86.5464 358.536C83.5811 359.208 80.9181 360.539 77.7718 360.882C76.539 361.018 75.9128 361.11 75.3278 359.752C75.1035 359.232 77.5509 356.93 77.5509 356.93Z" fill="#C57D5D"/>
<path d="M102.891 356.091C104.57 356.69 107.991 358.235 109.758 356.931C111.689 358.074 113.227 359.196 113.346 359.748C113.701 361.36 111.07 361.469 109.838 361.334C106.689 360.99 103.811 359.604 100.844 358.929C99.3289 358.585 95.9961 358.134 95.0239 356.765C93.9849 355.3 94.3015 353.063 95.2105 351.642C96.9937 354.058 100.152 355.104 102.891 356.091Z" fill="#2E2458"/>
<path d="M84.4174 356.091C82.7393 356.69 79.3178 358.235 77.5509 356.931C75.6195 358.074 74.0823 359.196 73.9611 359.748C73.608 361.36 76.2386 361.469 77.4731 361.334C80.6194 360.99 83.4979 359.604 86.4647 358.929C87.9782 358.585 91.3128 358.134 92.2849 356.765C93.3259 355.3 93.0055 353.063 92.0984 351.642C90.3154 354.058 87.1565 355.104 84.4174 356.091Z" fill="#2E2458"/>
<path d="M84.7178 103.312C86.4739 107.198 87.3791 124.503 87.1274 128.249C89.2871 131.943 95.8115 131.141 96.3182 130.365C96.7328 129.729 92.8533 115.976 95.4855 112.237C97.7376 109.039 98.8781 107.748 97.2178 106.102C94.2344 103.145 90.1794 102.259 86.3308 101.297L84.7178 103.312Z" fill="#C57D5D"/>
<path d="M110.545 158.423C115.122 180.394 118.31 240.736 121.579 267.873C121.579 267.873 121.474 275.695 94.3741 275.695C67.2758 275.695 63.15 267.873 63.15 267.873C64.0895 239.995 66.6367 199.653 73.2101 180.17C77.7065 166.843 70.9253 128.671 71.6351 126.55C72.265 124.674 75.0745 124.362 79.8989 123.842C79.8989 123.842 100.658 125.024 103.185 125.488C104.461 125.721 105.651 126.507 105.651 126.507C106.976 132.354 110.545 136.338 114.327 145.461C117.119 152.191 110.545 158.423 110.545 158.423Z" fill="#99A5DB"/>
<path d="M86.7746 117.147C86.3328 120.828 81.1046 123.845 79.8988 123.843C79.8988 123.843 90.0401 132.768 98.4056 133.616C105.605 134.347 103.185 125.489 103.185 125.489C99.5043 124.634 94.9932 120.957 94.5585 117.8C94.5585 117.8 92.2432 117.768 90.1326 117.418L86.7746 117.147Z" fill="#C57D5D"/>
<path d="M94.8935 113.586C94.9775 113.274 95.0794 112.986 95.2008 112.731C95.2015 112.731 95.2015 112.731 95.2019 112.731C95.0809 112.986 94.9797 113.274 94.8954 113.586C94.8948 113.586 94.8942 113.586 94.8935 113.586Z" fill="#BB2D3A"/>
<path d="M86.7746 117.147C86.5586 114.105 86.258 110.963 85.8794 108.378C87.6755 110.903 90.2005 113.178 93.0444 113.178C93.7456 113.178 94.467 113.039 95.2008 112.731C95.0794 112.987 94.9776 113.275 94.8935 113.587C93.607 113.853 92.1016 113.572 90.699 113.898C87.6054 114.618 86.7746 117.147 86.7746 117.147Z" fill="#B15D37"/>
<path d="M75.6194 124.628C67.6161 123.762 67.741 138.753 66.356 143.728C65.0327 148.466 62.7881 159.054 61.2131 163.689C60.2373 166.554 59.0444 168.258 61.604 170.336C64.1619 172.416 66.2528 170.92 67.0439 169.102C69.8085 162.744 76.9228 139.264 78.0815 133.381C79.3375 126.987 75.6194 124.628 75.6194 124.628Z" fill="#C57D5D"/>
<path d="M109.559 157.253C109.559 157.253 124.749 172.345 122.959 190.258C121.51 204.762 113.375 209.941 113.179 219.102L109.559 157.253Z" fill="#99A5DB"/>
<path d="M118.442 233.588C118.422 233.573 118.402 233.558 118.383 233.543C118.234 231.727 118.084 229.887 117.933 228.037C117.974 228.069 118.017 228.104 118.058 228.136C118.205 230.19 118.336 232.062 118.442 233.588ZM117.46 220.004C117.396 219.959 117.331 219.912 117.268 219.867C117.183 218.827 117.097 217.789 117.012 216.749C117.08 216.794 117.149 216.837 117.218 216.882C117.299 217.907 117.38 218.954 117.46 220.004Z" fill="#B0BEBA"/>
<path d="M117.218 216.881C117.149 216.836 117.08 216.793 117.012 216.748C116.809 214.279 116.603 211.809 116.396 209.349C116.493 209.291 116.546 209.256 116.565 209.256C116.571 209.256 116.573 209.261 116.574 209.265C116.775 211.416 116.996 214.068 117.218 216.881Z" fill="#31C5A1"/>
<path d="M118.058 228.136C118.017 228.104 117.974 228.069 117.933 228.037C117.713 225.336 117.492 222.607 117.268 219.867C117.331 219.912 117.396 219.959 117.46 220.004C117.672 222.787 117.877 225.6 118.058 228.136Z" fill="#31C5A1"/>
<path d="M118.711 237.526C118.602 236.213 118.492 234.881 118.383 233.542C118.402 233.557 118.422 233.572 118.442 233.587C118.594 235.79 118.694 237.268 118.711 237.526Z" fill="#31C5A1"/>
<path d="M118.713 237.567C115.569 222.288 112.307 216.54 94.3741 211.303C97.6717 211.608 100.501 211.733 102.921 211.733C107.488 211.733 110.603 211.288 112.692 210.777L113.179 219.102C113.255 215.571 114.51 212.631 116.107 209.522C116.229 209.453 116.324 209.395 116.396 209.35C116.603 211.81 116.809 214.279 117.012 216.748C117.097 217.789 117.183 218.826 117.268 219.867C117.492 222.606 117.713 225.336 117.933 228.037C118.084 229.887 118.234 231.727 118.383 233.542C118.492 234.881 118.602 236.214 118.711 237.527C118.713 237.554 118.713 237.567 118.713 237.567Z" fill="#9185BF"/>
<path d="M113.179 219.102L112.692 210.777C113.067 210.684 113.409 210.59 113.721 210.495C114.938 210.128 115.685 209.758 116.107 209.522C114.51 212.631 113.255 215.571 113.179 219.102Z" fill="#9185BF"/>
<path d="M88.3083 161.415C86.0023 161.415 83.4044 160.482 80.625 157.547C83.0602 159.664 85.3608 160.379 87.4328 160.379C91.7634 160.379 95.0936 157.253 96.5553 157.253C98.1773 157.253 102.427 159.236 106.555 159.236C107.609 159.236 108.656 159.105 109.648 158.78L109.655 158.901C108.626 159.371 106.74 160.023 104.177 160.023C102.303 160.023 100.067 159.674 97.5404 158.654C97.4142 158.602 97.2756 158.578 97.125 158.578C96.2942 158.578 95.0955 159.288 93.6018 159.997C92.1079 160.706 90.3193 161.415 88.3083 161.415Z" fill="#9185BF"/>
<path d="M109.655 158.901L109.648 158.781C109.953 158.682 110.252 158.564 110.545 158.424C110.545 158.424 110.238 158.635 109.655 158.901Z" fill="#A69BCE"/>
<path d="M102.348 90.8401C103.739 94.1172 103.022 95.6387 102.828 98.7246C102.645 101.662 102.743 102.251 102.211 104.643C101.534 107.688 98.972 110.215 96.3454 112.117C92.0369 114.945 88.0616 111.614 85.6105 107.989C80.8023 100.884 81.1807 93.5778 82.9003 89.7011C85.3153 84.0988 90.6721 83.8453 95.9074 85.0573C95.9074 85.0573 100.167 85.6977 102.348 90.8401Z" fill="#C57D5D"/>
<path d="M83.7476 99.9065C82.9746 97.8929 79.5423 96.4166 79.5423 99.7324C79.5423 102.464 83.3387 107.63 84.0899 102.378L83.7476 99.9065Z" fill="#FF9362"/>
<path d="M98.7249 99.8499C98.7262 99.6866 98.7831 99.5835 98.8682 99.5083C98.9538 99.4352 99.0758 99.3944 99.2005 99.3944C99.3249 99.3944 99.4469 99.4352 99.5325 99.5083C99.6176 99.5835 99.6745 99.6866 99.6758 99.8499C99.6758 99.9316 99.7418 99.9961 99.8232 99.9961C99.9044 99.9961 99.9704 99.9316 99.9704 99.8499C99.9717 99.6114 99.8731 99.4116 99.7246 99.2848C99.5765 99.158 99.3872 99.1 99.2005 99.1C99.0135 99.1 98.8242 99.158 98.6761 99.2848C98.5276 99.4116 98.429 99.6114 98.4303 99.8499C98.4303 99.9316 98.4962 99.9961 98.5777 99.9961C98.6589 99.9961 98.7249 99.9316 98.7249 99.8499Z" fill="#4C0F11"/>
<path d="M88.3536 99.9105C88.3549 99.7472 88.4119 99.6462 88.4972 99.571C88.5827 99.4958 88.7052 99.4549 88.8301 99.4549C88.9547 99.4549 89.0772 99.4958 89.1627 99.571C89.248 99.6462 89.305 99.7472 89.3063 99.9105C89.3063 99.9922 89.3722 100.057 89.4537 100.057C89.5349 100.057 89.6009 99.9922 89.6009 99.9105C89.6022 99.672 89.5033 99.4721 89.3546 99.3475C89.2063 99.2207 89.017 99.1605 88.8301 99.1605C88.6429 99.1605 88.4536 99.2207 88.3053 99.3475C88.1568 99.4721 88.0577 99.672 88.0592 99.9105C88.0592 99.9922 88.125 100.057 88.2064 100.057C88.2877 100.057 88.3536 99.9922 88.3536 99.9105Z" fill="#4C0F11"/>
<path d="M91.1101 97.1789C90.8976 96.4762 89.9346 96.0701 89.2478 96.0207C88.5793 95.9755 87.4191 96.2205 87.0834 96.848C86.9657 97.0693 87.081 97.2778 87.2944 97.368C87.8697 97.6066 88.5026 97.166 89.092 97.1037C89.7578 97.035 90.228 97.5335 90.8567 97.512C91.0224 97.5056 91.1612 97.3466 91.1101 97.1789Z" fill="#96222B"/>
<path d="M97.4914 97.5112C97.7916 97.5198 98.0559 97.4124 98.323 97.3049C98.6142 97.1868 98.9082 97.0686 99.2552 97.1029C99.8479 97.1631 100.475 97.6058 101.054 97.3673C101.267 97.277 101.382 97.0686 101.265 96.8472C100.928 96.2176 99.766 95.9748 99.0998 96.0199C98.4113 96.0693 97.4501 96.4776 97.238 97.1781C97.1868 97.3458 97.3255 97.5048 97.4914 97.5112Z" fill="#96222B"/>
<path d="M85.3679 101.476C87.2704 100.449 91.7799 103.928 88.7946 105.581C85.8095 107.233 83.465 102.505 85.3679 101.476Z" fill="#CC6852"/>
<path d="M102.689 101.414C102.625 102.463 102.535 103.252 102.213 104.698C102.153 104.977 102.07 105.248 101.977 105.517C101.268 105.979 100.37 106.116 99.3994 105.581C96.4848 103.967 100.717 100.613 102.689 101.414Z" fill="#CC6852"/>
<path d="M96.0182 99.7422C95.9989 99.7422 95.9811 99.7315 95.983 99.7057C96.049 98.8805 96.6195 98.0531 97.1836 97.4794L97.1916 97.4858C97.0089 97.8382 96.7826 98.1627 96.5907 98.5108C96.3765 98.8998 96.2323 99.3081 96.0619 99.7164C96.0544 99.7336 96.0357 99.7422 96.0182 99.7422Z" fill="#BA7E63"/>
<path d="M95.0038 105.044C94.8046 105.044 94.6124 105.012 94.471 104.958C94.4388 104.945 94.4472 104.9 94.4777 104.9C94.4805 104.9 94.4837 104.9 94.4869 104.9C94.6019 104.932 94.7261 104.949 94.8501 104.949C95.3209 104.949 95.7886 104.711 95.7363 104.171C95.7106 103.903 95.6025 103.634 95.5395 103.374C95.3846 102.732 95.3644 102.139 95.4888 101.49C95.4909 101.477 95.5012 101.47 95.512 101.47C95.5253 101.47 95.5391 101.479 95.5378 101.496C95.4806 102.147 95.5438 102.779 95.7159 103.409C95.8014 103.72 96.0062 104.152 95.956 104.487C95.8947 104.896 95.4327 105.044 95.0038 105.044Z" fill="#BA7E63"/>
<path d="M93.7505 109.877C93.7305 109.877 93.7093 109.868 93.6878 109.853C93.5045 109.716 93.2977 109.598 93.0846 109.512C92.8817 109.43 92.6621 109.411 92.4502 109.366C92.3713 109.348 92.3606 109.232 92.4278 109.196C92.5523 109.125 92.681 109.095 92.8095 109.095C93.2017 109.095 93.5898 109.376 93.8317 109.666C93.8969 109.744 93.8369 109.877 93.7505 109.877Z" fill="#B15D37"/>
<path d="M93.9364 108.558C93.875 108.558 93.8122 108.555 93.7477 108.549C92.4008 108.433 91.6007 107.754 91.1662 107.178C90.8735 106.787 90.6221 106.368 90.525 106.2C91.296 107.04 92.8409 107.741 94.2072 107.741C94.9638 107.741 95.6655 107.526 96.1511 107.002C96.074 107.135 95.8922 107.429 95.6521 107.694C95.2591 108.126 94.7242 108.558 93.9364 108.558ZM94.3423 107.612C93.0156 107.612 91.6087 106.798 90.5417 106.142C90.7745 106.2 91.6742 106.404 93.0435 106.404C93.3078 106.404 93.7477 106.432 94.0737 106.896C94.2725 106.768 94.4423 106.647 94.663 106.647C94.7537 106.647 94.8527 106.669 94.966 106.716C95.4269 106.914 95.9603 106.931 96.1339 106.931C96.1455 106.931 96.1556 106.931 96.164 106.931C95.6074 107.421 94.9842 107.612 94.3423 107.612Z" fill="#B15D37"/>
<path d="M96.1511 107.002C96.1775 106.957 96.1915 106.929 96.1915 106.929L96.2042 106.942C96.1868 106.963 96.1689 106.983 96.1511 107.002ZM96.164 106.931C96.1689 106.925 96.1739 106.92 96.1788 106.916L96.1915 106.929C96.1915 106.929 96.182 106.929 96.164 106.931ZM90.5249 106.2C90.5058 106.179 90.4873 106.16 90.4693 106.138L90.491 106.11C90.5077 106.121 90.5247 106.132 90.5417 106.142C90.5022 106.132 90.482 106.125 90.482 106.125C90.482 106.125 90.497 106.153 90.5249 106.2Z" fill="#F47268"/>
<path d="M94.2071 107.741C92.8408 107.741 91.296 107.041 90.5249 106.2C90.497 106.153 90.4819 106.125 90.4819 106.125C90.4819 106.125 90.5022 106.132 90.5417 106.142C91.6086 106.798 93.0156 107.612 94.3423 107.612C94.9842 107.612 95.6074 107.421 96.164 106.931C96.182 106.929 96.1915 106.929 96.1915 106.929C96.1915 106.929 96.1775 106.957 96.1511 107.002C95.6654 107.526 94.9638 107.741 94.2071 107.741Z" fill="#B15D37"/>
<path d="M65.3587 150.965C64.2253 148.362 63.3563 145.373 63.2714 142.734C62.9617 133.109 70.6212 126.254 71.6512 116.979C72.1998 112.015 69.6327 108.504 69.4066 103.716C69.1891 99.13 69.9494 94.8364 71.3905 90.7298C72.5817 87.3387 74.8426 77.4149 86.4123 75.1736C93.9974 73.7015 102.636 76.1213 104.711 87.5536C105.122 89.4017 106.011 91.5399 105.493 93.3257C105.02 94.9524 104.557 96.3041 103.167 97.3958C103.306 96.259 103.464 95.0126 102.714 94.153C101.452 92.7111 100.106 92.6466 99.1063 91.989C98.1159 91.3358 96.6352 89.0944 95.9527 87.4311C95.1725 95.3199 92.7484 92.2727 89.0263 96.0914C80.6918 104.642 91.1137 118.589 90.234 122.917C89.3018 127.507 85.3006 130.99 85.4964 135.888C85.5886 138.196 85.1848 140.441 86.0575 142.674C87.0243 145.154 88.8002 147.217 90.2176 149.439C92.7538 153.419 95.7101 158.516 93.2008 163.196C91.5246 166.325 87.6832 167.086 86.4196 170.438C85.0819 173.991 86.8792 177.083 87.1906 180.586C87.5349 184.462 84.7251 187.634 80.7154 187.443C76.6114 187.25 75.9706 182.644 75.9452 179.397C75.9325 177.644 76.6801 175.684 76.4431 173.982C76.139 171.796 73.7458 170.202 72.5856 168.442C71.0357 166.087 71.1969 163.368 70.6012 160.779C69.9604 157.99 67.8044 155.707 66.4647 153.236C66.0809 152.529 65.7081 151.766 65.3587 150.965Z" fill="#D23140"/>
<path d="M60.3839 165.838C63.3221 161.168 67.256 165.584 70.0979 167.722C73.9574 170.626 90.2956 181.185 91.6405 181.656C92.9855 182.125 94.3922 182.823 96.2168 182.885C98.3277 182.956 100.046 183.322 101.876 184.359C102.553 184.742 103.735 185.64 103.578 186.132C103.301 187 102.607 186.689 101.465 186.064C101.152 185.892 100.091 185.687 99.4772 185.305C100.967 186.897 104.854 187.894 106.514 189.949C107.519 191.195 107.808 192.25 106.358 193.239C104.584 194.449 103.623 192.934 101.845 192.785C101.128 192.727 99.9734 193.338 97.9366 192.173C96.7964 191.52 95.5128 190.598 94.5841 189.695C93.3964 188.546 91.8543 186.938 90.815 186.201C89.776 185.462 69.2345 177.068 65.641 174.382C61.3814 171.201 59.2037 167.716 60.3839 165.838Z" fill="#C57D5D"/>
<path d="M121.836 178.311C127.15 182.587 125.167 187.452 122.486 189.133C118.035 191.926 114.879 188.267 117.589 186.543C122.399 183.487 122.607 181.717 122.607 181.717L121.836 178.311Z" fill="#C57D5D"/>
<path d="M296.446 371.311C291.071 371.311 285.824 369.804 280.625 368.405C276.843 367.389 272.986 366.31 269.083 366.31C268.512 366.31 267.938 366.334 267.364 366.383C263.836 366.69 260.26 366.927 256.693 366.927C254.037 366.927 251.383 366.796 248.759 366.465C244.764 365.96 235.569 364.292 237.679 357.366C238.536 354.549 240.606 353.118 242.954 351.972C246.302 350.339 249.878 349.286 253.446 348.444C257.211 347.554 261.031 346.847 264.867 346.488C266.056 346.379 267.42 346.202 268.761 346.202C269.47 346.202 270.173 346.252 270.839 346.385C275.427 345.149 280.269 344.524 285.099 344.524C289.415 344.524 293.721 345.023 297.832 346.033C303.23 347.361 312.021 349.649 314.203 356.229C315.286 359.491 313.687 362.827 311.504 364.993C307.588 368.88 302.646 371.117 297.387 371.296C297.073 371.306 296.76 371.311 296.446 371.311Z" fill="#E0E0E0"/>
<path d="M255.489 159.443C255.476 159.602 255.463 159.748 255.453 159.866L250.901 179.018C254.125 178.323 260.752 161.701 261.461 159.849C261.511 159.72 261.56 159.58 261.609 159.443H255.489Z" fill="#F8C5AE"/>
<path d="M265.845 340.578C266.365 342.639 265.727 346.942 265.727 346.942C265.48 349.075 261.399 351.607 256.961 354.196C256.961 354.196 254.595 356.427 254.81 356.928C255.375 358.243 255.981 358.155 257.174 358.024C260.223 357.691 262.798 356.403 265.671 355.75C267.139 355.417 270.046 355.082 270.987 353.756C272.135 352.138 271.112 350.337 270.955 348.36L271.527 339.19L265.845 340.578Z" fill="#F8C5AE"/>
<path d="M263.608 353.382C261.985 353.965 258.672 355.46 256.961 354.197C255.09 355.304 253.602 356.391 253.486 356.924C253.145 358.486 255.691 358.591 256.884 358.458C259.933 358.127 262.72 356.786 265.594 356.133C267.059 355.8 270.287 355.364 271.228 354.036C272.234 352.617 271.927 350.451 271.048 349.076C269.32 351.416 266.262 352.43 263.608 353.382Z" fill="#2E2458"/>
<path d="M292.393 340.578C291.873 342.639 292.513 346.942 292.513 346.942C292.76 349.075 296.839 351.607 301.279 354.196C301.279 354.196 303.647 356.427 303.43 356.928C302.865 358.243 302.257 358.155 301.064 358.024C298.017 357.691 295.44 356.403 292.567 355.75C291.101 355.417 288.192 355.082 287.253 353.756C286.105 352.138 287.126 350.337 287.283 348.36L286.715 339.19L292.393 340.578Z" fill="#F8C5AE"/>
<path d="M294.63 353.382C296.255 353.965 299.566 355.46 301.277 354.197C303.149 355.304 304.636 356.391 304.754 356.924C305.095 358.486 302.547 358.591 301.354 358.458C298.307 358.127 295.52 356.786 292.647 356.133C291.183 355.8 287.953 355.364 287.012 354.036C286.004 352.617 286.314 350.451 287.193 349.076C288.918 351.416 291.976 352.43 294.63 353.382Z" fill="#2E2458"/>
<path d="M262.707 269.345C263.752 275.489 265.864 276.574 270.607 276.853C275.354 277.133 273.239 276.108 273.815 271.303C273.775 268.941 277.707 231.046 278.019 228.689C280.337 211.106 281.337 199.455 281.337 199.455V184.444H263.681C261.657 191.162 258.7 199.13 258.7 213.812C258.7 236.507 262.334 265.846 262.707 269.345Z" fill="#2E2458"/>
<path d="M268.731 263.466C265.284 263.036 262.626 268.608 262.626 268.608C263.636 276.173 261.246 282.478 261.407 295.171C261.59 309.771 265.407 343.765 265.407 343.765C267.691 344.184 270.452 345.199 272.416 342.863C272.416 342.863 274.29 307.328 275.128 294.997C275.966 282.667 273.246 278.844 273.865 270.297C273.562 265.127 271.409 263.801 268.731 263.466Z" fill="#2E2458"/>
<path d="M295.861 269.345C294.815 275.489 292.705 276.574 287.96 276.853C283.215 277.133 285.327 276.108 284.751 271.303C284.794 268.941 280.86 231.046 280.55 228.689C278.234 211.106 277.23 199.455 277.23 199.455L262.847 187.651L263.681 184.444H294.886C296.912 191.162 299.867 199.13 299.867 213.812C299.867 236.507 296.233 265.846 295.861 269.345Z" fill="#19253F"/>
<path d="M289.838 263.466C293.285 263.036 295.943 268.608 295.943 268.608C294.933 276.173 297.321 282.478 297.162 295.171C296.977 309.771 293.16 343.765 293.16 343.765C290.876 344.184 288.114 345.199 286.15 342.863C286.15 342.863 284.279 307.328 283.441 294.997C282.602 282.667 285.323 278.844 284.704 270.297C285.005 265.127 287.158 263.801 289.838 263.466Z" fill="#19253F"/>
<path d="M266.346 125.173C258.225 125.177 257.329 156.567 254.23 163.914C253.052 166.704 258.397 168.268 259.207 166.459C262.046 160.132 269.934 140.317 271.159 134.446C272.492 128.068 266.346 125.173 266.346 125.173Z" fill="#FC834D"/>
<path d="M268.333 77.9524C264.921 82.6586 264.134 92.1161 264.134 96.3409C264.134 104.43 266.028 112.239 268.628 119.878C273.957 135.529 282.781 147.793 296.1 157.418C305.149 163.957 323.411 170.443 331.25 156.116C335.995 147.438 330.515 130.597 315.051 119.979C306.656 114.216 307.025 102.122 304.038 92.606C301.571 84.7581 296.362 79.2353 290.988 74.8923C288.931 73.2333 270.828 74.5184 268.333 77.9524Z" fill="#E87A48"/>
<path d="M299.678 84.9621C302.809 89.2471 304.504 94.2628 306.004 99.302C307.461 104.189 308.725 109.232 311.4 113.633C312.849 116.019 314.727 118.312 317.256 119.586C317.42 119.67 317.594 119.466 317.456 119.326C315.593 117.467 313.749 115.647 312.314 113.416C310.925 111.257 309.877 108.893 308.981 106.495C307.188 101.705 306.03 96.6932 304.047 91.972C302.979 89.4255 301.606 86.9692 299.742 84.9127C299.712 84.8783 299.65 84.9235 299.678 84.9621Z" fill="#E87A48"/>
<path d="M308.321 112.269C309.071 115.396 311.525 117.944 313.859 120.018C316.489 122.354 319.429 124.299 322.016 126.689C324.582 129.059 326.894 131.685 328.882 134.558C330.889 137.455 332.572 140.549 334.345 143.59C334.437 143.749 334.652 143.609 334.583 143.452C331.919 137.195 328.012 131.511 323.043 126.858C320.499 124.475 317.622 122.548 314.953 120.317C312.208 118.022 309.991 115.462 308.474 112.205C308.433 112.117 308.302 112.181 308.321 112.269Z" fill="#E87A48"/>
<path d="M266.311 83.1551C265.374 84.9839 265.215 87.3563 264.985 89.3763C264.715 91.753 264.601 94.1448 264.612 96.5366C264.631 101.26 265.015 106.001 265.703 110.672C266.245 114.351 266.911 118.118 268.235 121.608C270.233 126.875 272.427 132.089 275.017 137.098C277.825 142.53 281.141 148.165 285.695 152.327C285.826 152.446 286.075 152.284 285.955 152.125C282.665 147.748 279.484 143.399 276.807 138.606C274.082 133.726 271.791 128.614 269.7 123.435C266.522 115.568 265.368 106.907 265.23 98.4599C265.187 95.8339 265.254 93.1993 265.482 90.5819C265.6 89.2302 265.765 87.8828 266 86.5462C266.195 85.4351 266.511 84.3542 266.582 83.2282C266.591 83.0863 266.376 83.0283 266.311 83.1551Z" fill="#E87A48"/>
<path d="M293.697 123.383C298.52 123.903 301.328 124.675 301.958 126.551C302.669 128.672 294.297 145.885 293.45 166.478C293.152 173.737 300.626 203.571 300.492 204.766C300.299 206.547 269.141 214.93 257.902 204.224C256.804 203.176 264.401 153.926 264.401 153.926C264.401 153.926 260.445 151.567 259.523 146.259C258.055 137.796 265.51 125.908 266.346 125.173C266.346 125.173 268.086 124.767 269.361 124.533C271.888 124.069 272.419 127.722 274.931 128.384C278.81 129.407 282.727 130.144 286.75 130.161L293.697 123.383Z" fill="#FF9362"/>
<path d="M296.51 186.006C296.315 185.08 296.124 184.151 295.934 183.227C296.124 184.151 296.315 185.082 296.51 186.006ZM293.45 166.491C293.45 166.487 293.45 166.483 293.45 166.478C293.596 162.935 293.964 159.492 294.471 156.211C293.964 159.492 293.596 162.935 293.45 166.478C293.45 166.483 293.45 166.487 293.45 166.491Z" fill="#B0BEBA"/>
<path d="M294.471 156.21C296.788 141.191 301.997 129.514 302.001 126.885C301.997 129.514 296.788 141.191 294.471 156.21ZM301.958 126.55C301.949 126.518 301.936 126.486 301.926 126.456C301.936 126.486 301.949 126.518 301.958 126.55Z" fill="#D26F47"/>
<path d="M296.51 186.006C294.819 182.905 293.459 179.63 292.367 176.237C291.475 173.462 290.846 170.615 290.248 167.766C289.604 164.69 288.652 161.787 288.783 158.605C288.91 155.588 291.516 152.242 292.709 149.495C293.854 146.859 294.686 144.14 295.5 141.387C297.106 135.951 300.151 131.107 301.309 125.545C301.588 125.816 301.795 126.117 301.926 126.456C301.936 126.487 301.949 126.519 301.958 126.551C301.988 126.637 302.003 126.749 302.001 126.886C301.997 129.514 296.788 141.192 294.471 156.211C293.964 159.492 293.596 162.935 293.45 166.478C293.45 166.483 293.45 166.487 293.45 166.491C293.33 169.468 294.51 176.213 295.934 183.227C296.124 184.151 296.315 185.08 296.51 186.006Z" fill="#FF9362"/>
<path d="M293.697 123.383C292.569 123.385 287.601 121.135 286.606 117.828C286.939 111.342 287.726 103.015 288.877 100.465L287.263 98.4488C283.417 99.4115 279.36 100.297 276.375 103.254C274.718 104.9 275.859 106.191 278.109 109.389C279.267 111.033 279.166 114.617 278.724 118.167L278.719 118.174C278.285 121.331 272.848 124.614 269.73 124.455C267.094 124.324 263.803 137.57 274.262 137.57C284.723 137.57 292.423 127.363 293.059 125.977C293.79 124.395 293.697 123.383 293.697 123.383Z" fill="#F8C5AE"/>
<path d="M286.7 116.159C286.7 116.159 286.7 116.157 286.7 116.155C286.993 111.307 287.517 105.838 288.241 102.582C287.517 105.838 286.993 111.311 286.7 116.159ZM278.702 110.74H278.7C278.558 110.213 278.365 109.755 278.113 109.394C278.367 109.755 278.56 110.211 278.702 110.74Z" fill="#D26F47"/>
<path d="M286.7 116.154C286.677 116.019 285.94 111.758 282.897 111.051C281.494 110.724 279.989 111.008 278.702 110.739C278.56 110.21 278.367 109.755 278.113 109.394C278.64 109.551 279.16 109.624 279.669 109.624C282.656 109.624 285.295 107.109 287.104 104.434C287.521 103.817 287.9 103.198 288.241 102.582C287.517 105.837 286.993 111.306 286.7 116.154Z" fill="#DB9F90"/>
<path d="M270.364 87.2853C268.974 90.5645 269.689 92.0838 269.885 95.1697C270.068 98.1095 269.971 98.7004 270.502 101.088C271.179 104.133 273.74 106.662 276.366 108.564C280.675 111.392 284.65 108.061 287.104 104.434C291.91 97.3294 291.531 90.023 289.812 86.1485C287.397 80.544 282.039 80.2905 276.805 81.5046C276.805 81.5046 272.545 82.1428 270.364 87.2853Z" fill="#F8C5AE"/>
<path d="M272.631 96.1879C272.631 95.9493 272.532 95.7495 272.384 95.6227C272.236 95.4981 272.047 95.4379 271.86 95.4379C271.673 95.4379 271.484 95.4981 271.338 95.6227C271.187 95.7495 271.088 95.9493 271.091 96.1879C271.091 96.2695 271.157 96.334 271.239 96.334C271.318 96.334 271.385 96.2695 271.385 96.1879C271.387 96.0245 271.443 95.9214 271.529 95.8462C271.615 95.7731 271.737 95.7323 271.86 95.7323C271.984 95.7323 272.107 95.7731 272.193 95.8462C272.279 95.9214 272.335 96.0245 272.337 96.1879C272.337 96.2695 272.401 96.334 272.483 96.334C272.565 96.334 272.631 96.2695 272.631 96.1879Z" fill="#692D21"/>
<path d="M282.779 96.1879C282.781 95.9493 282.682 95.7495 282.534 95.6227C282.385 95.4959 282.196 95.4379 282.009 95.4379C281.822 95.4379 281.631 95.4959 281.483 95.6227C281.335 95.7495 281.236 95.9493 281.238 96.1879C281.238 96.2695 281.305 96.334 281.384 96.334C281.466 96.334 281.532 96.2695 281.532 96.1879C281.534 96.0245 281.59 95.9214 281.676 95.8462C281.762 95.7731 281.885 95.7323 282.009 95.7323C282.134 95.7323 282.256 95.7731 282.34 95.8462C282.426 95.9214 282.484 96.0245 282.484 96.1879C282.484 96.2695 282.551 96.334 282.633 96.334C282.714 96.334 282.779 96.2695 282.779 96.1879Z" fill="#692D21"/>
<path d="M280.178 93.8753C280.806 93.8968 281.279 93.3982 281.943 93.467C282.536 93.5272 283.163 93.9677 283.741 93.7292C283.954 93.6411 284.07 93.4305 283.952 93.2113C283.617 92.5795 282.454 92.3367 281.788 92.3839C281.1 92.4334 280.138 92.8417 279.925 93.5422C279.875 93.7098 280.013 93.8689 280.178 93.8753Z" fill="#D25E37"/>
<path d="M273.798 93.5422C273.586 92.8395 272.623 92.4312 271.937 92.3839C271.267 92.3367 270.106 92.5817 269.771 93.2113C269.653 93.4305 269.769 93.6411 269.982 93.7292C270.558 93.9677 271.192 93.5272 271.78 93.467C272.447 93.3961 272.915 93.8968 273.545 93.8753C273.71 93.8689 273.848 93.7098 273.798 93.5422Z" fill="#D25E37"/>
<path d="M285.669 97.8411C283.763 96.8139 279.257 100.293 282.241 101.946C285.226 103.596 287.571 98.8683 285.669 97.8411Z" fill="#F8A69C"/>
<path d="M270.022 97.7761C270.087 98.8377 270.177 99.6263 270.502 101.088C270.592 101.492 270.717 101.885 270.865 102.27C271.179 102.231 271.503 102.128 271.838 101.945C274.133 100.673 271.997 98.3241 270.022 97.7761Z" fill="#F8A69C"/>
<path d="M275.017 96.1064C274.997 96.1064 274.98 96.0978 274.972 96.0807C274.802 95.6724 274.66 95.264 274.445 94.8751C274.254 94.527 274.026 94.2025 273.843 93.8501L273.852 93.8436C274.415 94.4174 274.987 95.2447 275.051 96.0699C275.053 96.0957 275.036 96.1064 275.017 96.1064Z" fill="#BC8779"/>
<path d="M276.031 101.408C275.603 101.408 275.141 101.26 275.079 100.854C275.027 100.497 275.253 100.029 275.341 99.6955C275.502 99.0895 275.554 98.4835 275.498 97.8603C275.496 97.8431 275.511 97.8345 275.524 97.8345C275.535 97.8345 275.545 97.841 275.547 97.8539C275.672 98.5028 275.651 99.0959 275.496 99.7363C275.436 99.9942 275.32 100.271 275.3 100.536C275.259 101.067 275.715 101.314 276.188 101.314C276.308 101.314 276.433 101.296 276.549 101.264C276.553 101.262 276.555 101.262 276.557 101.262C276.59 101.262 276.596 101.309 276.564 101.322C276.424 101.376 276.231 101.408 276.031 101.408Z" fill="#BC8779"/>
<path d="M274.729 103.027C276.863 103.345 280.555 102.489 280.555 102.489C280.84 105.485 276.927 107.002 276.274 105.386C275.582 103.673 274.729 103.027 274.729 103.027Z" fill="#F2F2F0"/>
<path d="M277.449 106.996C277.355 106.996 277.275 106.871 277.361 106.794C277.617 106.562 277.986 106.349 278.345 106.349C278.509 106.349 278.672 106.394 278.818 106.502C278.891 106.558 278.868 106.669 278.771 106.676C278.311 106.708 277.918 106.751 277.505 106.981C277.488 106.99 277.469 106.996 277.449 106.996Z" fill="#DB9F90"/>
<path d="M288.965 96.3516C289.735 94.3402 293.171 92.8617 293.171 96.1797C293.171 98.911 289.374 104.077 288.622 98.825L288.965 96.3516Z" fill="#F8C5AE"/>
<path d="M294.525 79.8845C293.635 75.8553 288.978 72.8725 283.958 71.8668C278.941 70.859 268.514 71.7959 266.438 83.2283C265.793 86.1358 267.429 91.9057 269.526 93.8441C270.807 90.1264 272.017 86.2239 276.723 82.6588C283.9 87.812 283.722 97.6563 288.965 96.3519C290.79 95.8984 290.599 94.5726 291.351 94.2674C293.433 93.4272 295.937 86.2647 294.525 79.8845Z" fill="#E87A48"/>
<path d="M276.435 82.5555C276.697 83.3334 277.428 83.9566 277.913 84.6056C278.569 85.4802 279.106 86.4021 279.514 87.4164C279.957 88.5188 280.346 89.6427 280.81 90.7365C281.766 92.9865 283.282 96.2034 285.95 96.7321C286.11 96.7643 286.217 96.5494 286.064 96.4635C283.41 94.942 281.992 92.2623 280.95 89.4815C280.537 88.3834 280.258 87.223 279.74 86.1657C279.128 84.9215 277.948 82.8843 276.521 82.4695C276.472 82.4545 276.418 82.5039 276.435 82.5555Z" fill="#E87A48"/>
<path d="M264.401 153.926C261.171 158.819 250.56 164.236 252.107 178.166C253.005 186.246 258.981 193.728 260.604 195.08L264.401 153.926Z" fill="#FF9362"/>
<path d="M258.315 197.142L258.324 197.07C258.319 197.094 258.317 197.118 258.315 197.142Z" fill="#B0BEBA"/>
<path d="M268.907 198.639C263.206 198.639 258.382 197.162 258.315 197.141C258.317 197.117 258.319 197.094 258.324 197.07L258.807 193.118C259.57 194.074 260.213 194.753 260.604 195.08L260.694 194.1C263.081 195.065 267.291 195.989 272.462 195.989C275.199 195.989 278.208 195.729 281.358 195.08C277.761 197.841 273.098 198.641 268.907 198.639Z" fill="#FF9362"/>
<path d="M260.604 195.08C260.213 194.753 259.57 194.074 258.807 193.118L258.818 193.041C259.155 193.367 259.794 193.737 260.694 194.1L260.604 195.08Z" fill="#FF9362"/>
<path d="M281.289 156.784C279.087 156.784 276.865 156.118 275.014 155.452C273.166 154.786 271.694 154.117 270.992 154.117C270.901 154.117 270.826 154.128 270.762 154.152C269.395 154.64 268.269 154.827 267.347 154.827C264.324 154.827 263.483 152.817 263.483 152.817C264.545 153.587 265.611 153.847 266.612 153.847C268.669 153.847 270.454 152.753 271.402 152.753C272.341 152.753 277.421 155.658 282.155 155.658C284.521 155.658 286.801 154.932 288.437 152.753C286.541 155.824 283.93 156.784 281.289 156.784Z" fill="#FF9362"/>
<path d="M298.292 124.674C306.415 124.773 306.039 139.657 307.425 144.63C308.746 149.372 310.788 155.888 312.363 160.523C313.337 163.39 314.617 164.507 311.407 166.491C306.479 169.536 304.322 166.746 303.531 164.928C300.767 158.57 294.78 139.655 293.624 133.769C292.367 127.376 298.292 124.674 298.292 124.674Z" fill="#FF9362"/>
<path d="M311.858 163.343C308.723 158.807 304.984 163.388 302.235 165.649C298.507 168.718 286.15 178.218 284.829 178.747C283.505 179.273 282.13 180.034 280.307 180.174C278.204 180.335 276.504 180.778 274.72 181.893C274.06 182.305 272.917 183.253 273.098 183.739C273.411 184.594 274.09 184.252 275.204 183.578C275.511 183.393 276.56 183.144 277.157 182.733C275.737 184.388 271.899 185.557 270.332 187.68C269.38 188.969 269.137 190.035 270.629 190.959C272.453 192.09 273.349 190.536 275.12 190.312C275.831 190.22 277.013 190.781 278.996 189.528C280.105 188.828 281.347 187.85 282.237 186.909C283.374 185.705 284.846 184.033 285.849 183.249C286.855 182.469 303.507 174.95 306.98 172.111C311.095 168.746 313.12 165.168 311.858 163.343Z" fill="#F8C5AE"/>
<path d="M252.014 177.131C247.05 181.807 249.829 187.368 252.633 188.834C257.286 191.273 260.15 187.381 257.314 185.875C252.281 183.199 252.758 181.184 252.758 181.184L252.014 177.131Z" fill="#F8C5AE"/>
</svg>
