<svg width="476" height="257" viewBox="0 0 476 257" fill="none" xmlns="http://www.w3.org/2000/svg">
<path d="M435.199 253.737C435.199 253.737 488.438 193.284 444.203 127.834C404.955 69.7619 359.194 73.7317 325.621 97.297C311.322 107.335 270.096 98.5347 235.008 39.4441C187.156 -41.1382 21.2859 7.73495 51.5278 131.715C66.1638 191.712 6.98663 193.892 37.1399 253.865L435.199 253.737Z" fill="#F9F7FF"/>
<path d="M475.662 256.264L448.138 256.216L424.528 256.169L65.2346 255.518L41.5302 255.483H41.5183L22.9592 255.447L6.41111 255.411H0L1.23019 254.075L66.7486 182.678H413.349V182.69L475.662 256.264Z" fill="#9B8ECF"/>
<path d="M475.662 256.258L413.38 182.725C413.369 182.708 413.362 182.696 413.357 182.689L475.662 256.258ZM363.697 256.059L22.9617 255.453C22.9932 255.45 23.0239 255.449 23.0554 255.447L41.5183 255.482H41.5302L65.2346 255.518L363.697 256.059Z" fill="#C0C3CA"/>
<path d="M475.662 256.258L448.14 256.209L448.398 255.625L436.486 250.385L436.308 249.683L460.33 249.726L461.61 249.728L432.197 215.002C423.957 199.516 413.978 183.676 413.38 182.725L475.658 256.258H475.662ZM424.527 256.167L363.697 256.059L65.2346 255.518L65.8163 253.233C92.3311 251.916 124.974 250.399 156.921 249.183L295.684 249.432C312.977 250.619 335.968 251.274 358.631 251.274C378.723 251.274 398.554 250.759 413.936 249.643L422.876 249.659L424.527 256.167ZM41.5301 255.482H41.5183L23.0554 255.447C28.7415 255.14 35.8891 254.76 44.1416 254.333L41.5301 255.482ZM459.053 248.541L436.008 248.501L435.633 247.025C439.832 246.127 442.408 245.076 442.881 243.862C444.227 240.404 440.173 230.562 434.674 219.758L459.053 248.541ZM281.829 248.225L189.308 248.059C211.509 247.372 232.124 246.934 248.576 246.934C262.733 246.934 273.803 247.258 280.149 248.028C280.695 248.095 281.255 248.16 281.829 248.225Z" fill="#7C6CBE"/>
<path d="M5.59556 255.489C5.30117 255.489 4.99954 255.464 4.69322 255.416C4.68216 255.415 4.67119 255.414 4.66014 255.411H6.41113H6.43889C6.42875 255.414 6.41913 255.415 6.409 255.416C6.4004 255.426 6.38326 255.426 6.37471 255.426C6.12212 255.468 5.86179 255.489 5.59556 255.489ZM1.23165 254.074C1.23015 254.073 1.22871 254.072 1.22723 254.071L51.7506 199.021L1.23021 254.075" fill="#C0C3CA"/>
<path d="M6.43875 255.411H4.65999C3.58144 255.246 2.43569 254.783 1.23151 254.074L51.7504 199.021L66.7464 182.682H109.791L109.672 183.152C105.419 184.271 94.0722 187.082 85.638 187.554C84.1081 187.64 82.3171 188.215 80.3312 189.189H69.6058L14.7763 248.93L20.4267 248.94C16.3836 252.555 12.5063 254.408 6.43875 255.411ZM21.6906 247.759L17.4634 247.752L70.1262 190.372H78.1469C66.3658 197.297 49.206 215.541 37.5943 229.291C30.3098 237.916 25.7954 243.767 21.6906 247.759Z" fill="#7C6CBE"/>
<path d="M448.398 255.625L448.137 256.216L424.528 256.169L421.452 244.045L406.631 237.539L402.645 221.842L387.835 215.336L383.849 199.651L369.039 193.146L366.378 182.678H379.804L380.088 183.789L394.897 190.295L398.883 205.98L413.692 212.486L417.679 228.182L432.5 234.688L436.486 250.385L448.398 255.625Z" fill="#8878C6"/>
<path d="M123.218 182.678L120.557 193.146L105.748 199.651L101.773 215.336L86.9518 221.842L82.9659 237.539L68.1561 244.045L65.2346 255.518L41.5302 255.483L53.1103 250.385L57.1084 234.688L71.9177 228.182L75.9037 212.486L90.713 205.98L94.6997 190.295L109.509 183.789L109.793 182.678H123.218Z" fill="#8878C6"/>
<path d="M17.4636 247.752L459.054 248.541L409.785 190.372H70.1264L17.4636 247.752ZM461.61 249.728L460.33 249.726L14.7765 248.93L69.606 189.189H410.333L410.51 189.399L461.61 249.728Z" fill="#6D56C6"/>
<path d="M199.989 236.116C189.065 236.116 178.607 235.552 168.952 234.523C171.178 231.697 173.36 228.464 174.98 225.052C174.98 225.052 168.818 222.289 161.329 218.667C167.088 220.085 183.9 223.495 183.9 223.495L183.939 223.222C199.061 226.547 212.859 228.428 230.628 228.428C233.439 228.428 236.351 228.381 239.381 228.285C268.227 227.374 275.431 224.415 278.163 207.109C278.191 206.936 278.218 206.772 278.236 206.599C278.423 205.029 278.308 203.592 277.946 202.278C278.255 201.47 278.521 200.68 278.745 199.91C284.747 203.285 288.126 207.099 288.126 211.136C288.126 224.932 248.666 236.116 199.989 236.116ZM120.706 222.061C116.842 219.813 114.135 217.377 112.801 214.814L113.09 213.536L112.305 213.685C112.006 212.847 111.852 211.996 111.852 211.136C111.852 202.481 127.383 194.853 150.978 190.372H158.991C159.205 191.032 159.46 191.724 159.77 192.438C159.534 192.415 159.301 192.405 159.072 192.405C154.574 192.405 151.278 196.46 144.862 196.474C138.045 196.49 128.588 196.862 124.898 199.357C121.195 201.849 117.379 206.781 118.707 207.974C118.801 208.063 118.909 208.141 119.017 208.218C119.105 208.287 119.198 208.355 119.297 208.421C117.17 210.708 115.773 213.161 116.658 213.955C116.752 214.044 116.859 214.121 116.967 214.199C117.277 214.443 117.653 214.667 118.084 214.874C120.336 215.982 124.118 216.842 128.127 217.378C128.049 217.441 127.971 217.505 127.891 217.568C125.862 219.219 123.482 220.779 120.706 222.061ZM158.641 189.189H157.862C158.11 189.151 158.36 189.113 158.61 189.075C158.621 189.113 158.631 189.151 158.641 189.189Z" fill="#A382C8"/>
<path d="M158.991 190.372H150.978C153.202 189.949 155.5 189.554 157.862 189.189H158.641C158.744 189.57 158.86 189.965 158.991 190.372Z" fill="#7967C2"/>
<path d="M378.921 217.119C375.337 217.119 365.593 216.408 354.414 209.598C340.284 200.99 339.309 200.582 339.309 200.582L342.368 198.044C344.235 199.596 346.878 201.684 350.068 203.907C350.535 204.245 351.029 204.583 351.549 204.92C359.336 210.19 369.899 215.874 380.361 217.053L380.385 217.069C380.385 217.069 379.868 217.119 378.921 217.119Z" fill="#7563C0"/>
<path d="M396.247 197.28C391.128 208.064 380.395 217.056 380.395 217.056C369.922 215.887 359.345 210.195 351.549 204.92C351.029 204.583 350.535 204.245 350.068 203.907C343.545 199.359 339.309 195.383 339.309 195.383C343.259 193.954 346.507 191.953 349.158 189.795C350.431 188.782 351.549 187.743 352.51 186.729C352.537 186.729 352.537 186.729 352.537 186.729C356.954 182.155 358.799 177.868 358.799 177.868C360.93 179.427 364.127 181.35 367.791 183.351C379.615 189.822 396.247 197.28 396.247 197.28Z" fill="white"/>
<path d="M350.068 203.907C343.545 199.359 339.309 195.383 339.309 195.383C343.259 193.954 346.507 191.953 349.158 189.796C346.377 194.733 341.752 195.877 341.752 195.877L350.068 203.907Z" fill="#F3F5F6"/>
<path d="M352.537 186.729C356.954 182.155 358.799 177.868 358.799 177.868C360.93 179.427 364.127 181.35 367.791 183.351C364.517 183.351 359.293 181.09 359.293 181.09C358.124 183.689 354.849 185.612 352.537 186.729Z" fill="#F3F5F6"/>
<path d="M379.59 212.81C379.376 212.81 379.167 212.705 379.043 212.512C378.849 212.21 378.935 211.808 379.238 211.614C382.179 209.721 389.627 198.943 389.702 198.835C389.907 198.539 390.312 198.468 390.605 198.669C390.901 198.873 390.976 199.277 390.772 199.573C390.46 200.025 383.1 210.674 379.941 212.707C379.832 212.777 379.711 212.81 379.59 212.81Z" fill="#E6DDD9"/>
<path d="M376.414 211.292C376.201 211.292 375.992 211.188 375.868 210.994C375.674 210.693 375.76 210.291 376.062 210.096C379.004 208.203 386.451 197.426 386.526 197.317C386.731 197.021 387.136 196.949 387.429 197.151C387.725 197.355 387.8 197.759 387.597 198.056C387.284 198.507 379.925 209.156 376.765 211.19C376.657 211.26 376.535 211.292 376.414 211.292Z" fill="#E6DDD9"/>
<path d="M373.27 210.281C373.057 210.281 372.848 210.176 372.723 209.983C372.529 209.681 372.616 209.279 372.918 209.085C375.86 207.192 383.308 196.415 383.382 196.306C383.586 196.01 383.992 195.938 384.286 196.14C384.581 196.344 384.655 196.748 384.452 197.044C384.14 197.496 376.78 208.145 373.621 210.178C373.512 210.248 373.391 210.281 373.27 210.281Z" fill="#E6DDD9"/>
<path d="M369.738 208.902C369.525 208.902 369.315 208.797 369.191 208.604C368.997 208.303 369.084 207.901 369.386 207.706C372.327 205.813 379.775 195.036 379.85 194.927C380.055 194.631 380.459 194.56 380.753 194.761C381.049 194.965 381.124 195.369 380.92 195.666C380.608 196.117 373.248 206.766 370.089 208.799C369.98 208.87 369.859 208.902 369.738 208.902Z" fill="#E6DDD9"/>
<path d="M367.067 207.449C366.852 207.449 366.644 207.345 366.52 207.151C366.325 206.85 366.412 206.448 366.715 206.253C369.656 204.36 377.104 193.583 377.178 193.474C377.382 193.178 377.787 193.107 378.082 193.308C378.377 193.512 378.452 193.916 378.248 194.213C377.936 194.664 370.576 205.313 367.417 207.347C367.308 207.417 367.187 207.449 367.067 207.449Z" fill="#E6DDD9"/>
<path d="M322.096 238.199C319.09 238.199 310.915 237.602 301.539 231.89C289.685 224.668 288.868 224.326 288.868 224.326L291.434 222.197C293.001 223.5 295.218 225.25 297.893 227.116C298.285 227.399 298.699 227.683 299.135 227.966C305.668 232.386 314.529 237.155 323.304 238.143L323.324 238.157C323.324 238.157 322.89 238.199 322.096 238.199Z" fill="#7563C0"/>
<path d="M336.63 221.556C332.336 230.603 323.333 238.146 323.333 238.146C314.548 237.165 305.675 232.391 299.135 227.966C298.699 227.683 298.285 227.399 297.893 227.116C292.421 223.301 288.868 219.965 288.868 219.965C292.181 218.766 294.906 217.088 297.13 215.278C298.198 214.428 299.135 213.556 299.942 212.706C299.964 212.706 299.964 212.706 299.964 212.706C303.67 208.869 305.217 205.273 305.217 205.273C307.005 206.581 309.686 208.194 312.76 209.872C322.678 215.3 336.63 221.556 336.63 221.556Z" fill="white"/>
<path d="M297.893 227.116C292.421 223.3 288.868 219.965 288.868 219.965C290.423 219.403 291.849 218.733 293.154 217.996C293.244 218.034 293.497 218.191 294.171 218.688C292.452 220 290.917 220.379 290.917 220.379L297.893 227.116ZM295.18 216.734C295.388 216.592 295.594 216.447 295.796 216.301C295.806 216.312 295.815 216.322 295.826 216.333L295.18 216.734Z" fill="#F3F5F6"/>
<path d="M322.657 234.583C322.478 234.583 322.303 234.495 322.198 234.333C322.035 234.079 322.109 233.743 322.362 233.58C324.831 231.992 331.077 222.952 331.14 222.861C331.31 222.611 331.649 222.55 331.898 222.722C332.146 222.892 332.208 223.232 332.037 223.478C331.775 223.858 325.602 232.791 322.952 234.496C322.86 234.555 322.758 234.583 322.657 234.583Z" fill="#E6DDD9"/>
<path d="M319.993 233.31C319.814 233.31 319.638 233.223 319.535 233.061C319.372 232.808 319.445 232.471 319.698 232.308C322.167 230.72 328.413 221.68 328.476 221.589C328.647 221.34 328.985 221.277 329.234 221.449C329.482 221.62 329.544 221.959 329.374 222.207C329.112 222.587 322.938 231.519 320.288 233.224C320.197 233.283 320.094 233.31 319.993 233.31Z" fill="#E6DDD9"/>
<path d="M317.356 232.463C317.177 232.463 317.001 232.374 316.897 232.213C316.734 231.959 316.808 231.623 317.061 231.46C319.53 229.871 325.776 220.832 325.839 220.741C326.009 220.493 326.348 220.429 326.597 220.601C326.844 220.771 326.907 221.111 326.736 221.359C326.474 221.738 320.301 230.671 317.65 232.376C317.559 232.435 317.457 232.463 317.356 232.463Z" fill="#E6DDD9"/>
<path d="M314.393 231.305C314.214 231.305 314.038 231.217 313.934 231.055C313.771 230.801 313.844 230.466 314.098 230.303C316.566 228.714 322.813 219.675 322.875 219.584C323.046 219.334 323.385 219.272 323.634 219.444C323.881 219.615 323.944 219.954 323.773 220.201C323.511 220.581 317.337 229.514 314.687 231.218C314.596 231.278 314.494 231.305 314.393 231.305Z" fill="#E6DDD9"/>
<path d="M312.152 230.087C311.973 230.087 311.797 229.999 311.693 229.838C311.53 229.584 311.604 229.247 311.856 229.084C314.324 227.496 320.572 218.455 320.634 218.364C320.806 218.117 321.144 218.053 321.392 218.225C321.641 218.395 321.703 218.735 321.532 218.982C321.271 219.361 315.097 228.296 312.447 230C312.355 230.06 312.253 230.087 312.152 230.087Z" fill="#E6DDD9"/>
<path d="M299.964 222.455L300.313 222.674L309.455 228.382L313.502 224.108L304.212 218.815L299.964 222.455Z" fill="#E6DDD9"/>
<path d="M305.448 217.653L314.59 222.437L318.636 218.176L309.738 213.594L305.448 217.653Z" fill="#E6DDD9"/>
<path d="M293.154 217.996C293.154 217.995 293.153 217.995 293.152 217.994L295.18 216.734C294.539 217.171 293.865 217.594 293.154 217.996Z" fill="#CBBDE4"/>
<path d="M323.927 234.877C323.927 234.877 313.956 234.511 303.16 225.788C297.881 221.522 295.365 219.57 294.171 218.689C294.839 218.178 295.537 217.526 296.182 216.701C297.314 217.863 298.658 219.184 300.177 220.574C300.482 220.863 300.803 221.154 301.141 221.447L299.964 222.455L300.312 222.674L309.455 228.382L309.682 228.141C310.319 228.571 310.967 228.992 311.625 229.402C311.587 229.545 311.607 229.703 311.693 229.838C311.797 229.999 311.973 230.087 312.152 230.087C312.253 230.087 312.355 230.06 312.447 230.001C312.472 229.984 312.497 229.967 312.523 229.95C312.961 230.212 313.403 230.469 313.849 230.719C313.84 230.834 313.867 230.952 313.934 231.055C314.038 231.218 314.213 231.305 314.393 231.305C314.494 231.305 314.596 231.278 314.687 231.218C314.698 231.212 314.709 231.205 314.72 231.198C315.492 231.612 316.274 232.007 317.064 232.378C317.103 232.403 317.143 232.422 317.186 232.435C318.842 233.206 320.533 233.873 322.247 234.398C322.353 234.518 322.504 234.583 322.657 234.583C322.706 234.583 322.754 234.576 322.802 234.563C323.17 234.669 323.54 234.768 323.909 234.861L323.927 234.877Z" fill="#F3F5F6"/>
<path d="M294.171 218.689C293.497 218.192 293.244 218.034 293.154 217.996C293.865 217.594 294.539 217.172 295.18 216.734L295.826 216.333C295.942 216.453 296.061 216.576 296.182 216.701C295.537 217.527 294.839 218.178 294.171 218.689Z" fill="#EDF0F2"/>
<path d="M322.657 234.583C322.504 234.583 322.353 234.518 322.247 234.399C322.432 234.455 322.617 234.51 322.802 234.563C322.754 234.576 322.706 234.583 322.657 234.583Z" fill="#E8E6E3"/>
<path d="M317.185 232.436C317.143 232.422 317.102 232.403 317.064 232.379C317.104 232.398 317.145 232.416 317.185 232.436Z" fill="#E8E6E3"/>
<path d="M314.393 231.305C314.213 231.305 314.038 231.217 313.934 231.055C313.867 230.951 313.84 230.833 313.849 230.719C314.138 230.881 314.428 231.04 314.72 231.198C314.709 231.205 314.698 231.212 314.687 231.218C314.596 231.278 314.494 231.305 314.393 231.305Z" fill="#E8E6E3"/>
<path d="M312.152 230.087C311.973 230.087 311.797 229.999 311.693 229.838C311.607 229.702 311.587 229.545 311.625 229.402C311.923 229.587 312.222 229.769 312.523 229.95C312.497 229.967 312.472 229.984 312.447 230C312.355 230.06 312.253 230.087 312.152 230.087Z" fill="#E8E6E3"/>
<path d="M309.455 228.382L300.313 222.674L299.964 222.455L301.141 221.447C301.192 221.492 301.244 221.536 301.296 221.581C303.745 223.761 306.585 226.053 309.682 228.141L309.455 228.382Z" fill="#E8E6E3"/>
<path d="M293.12 218.015C293.12 218.015 293.095 217.984 293.117 217.984C293.125 217.984 293.136 217.987 293.153 217.994L293.12 218.015Z" fill="#CBBDE4"/>
<path d="M339.309 220.179C333.857 228.579 323.937 234.867 323.937 234.867C315.359 232.735 307.194 226.831 301.296 221.581C300.901 221.243 300.528 220.906 300.177 220.574C295.257 216.07 292.175 212.294 292.175 212.294C295.618 211.544 298.541 210.239 300.984 208.74C302.155 208.038 303.199 207.298 304.111 206.561C304.133 206.564 304.133 206.564 304.133 206.564C308.312 203.25 310.322 199.89 310.322 199.89C311.921 201.422 314.366 203.375 317.191 205.445C326.306 212.136 339.309 220.179 339.309 220.179Z" fill="white"/>
<path d="M300.177 220.574C298.658 219.184 297.314 217.863 296.182 216.701C296.061 216.576 295.942 216.453 295.826 216.333C293.51 213.93 292.175 212.294 292.175 212.294C295.197 211.636 297.819 210.55 300.066 209.28C300.111 209.327 300.186 209.41 300.312 209.552C297.541 212.602 294.152 212.976 294.152 212.976L300.177 220.574ZM300.458 209.055C300.636 208.951 300.811 208.846 300.984 208.74C300.941 208.796 300.899 208.852 300.855 208.907L300.458 209.055Z" fill="#F3F5F6"/>
<path d="M308.619 202.198C309.762 200.827 310.322 199.89 310.322 199.89C310.708 200.26 311.143 200.654 311.621 201.069C310.987 201.347 310.315 201.614 309.607 201.861C309.283 201.977 308.954 202.09 308.619 202.198Z" fill="#F3F5F6"/>
<path d="M323.81 231.251C323.605 231.251 323.409 231.136 323.316 230.938C323.188 230.666 323.305 230.342 323.578 230.214C326.235 228.965 333.62 220.829 333.694 220.747C333.896 220.525 334.242 220.508 334.464 220.709C334.687 220.911 334.704 221.256 334.502 221.479C334.193 221.82 326.893 229.86 324.041 231.2C323.966 231.235 323.887 231.251 323.81 231.251Z" fill="#E6DDD9"/>
<path d="M321.338 229.639C321.133 229.639 320.937 229.523 320.844 229.326C320.716 229.054 320.833 228.729 321.105 228.601C323.762 227.351 331.148 219.216 331.222 219.133C331.425 218.911 331.769 218.894 331.992 219.096C332.215 219.298 332.232 219.642 332.03 219.865C331.721 220.207 324.421 228.246 321.57 229.587C321.494 229.623 321.415 229.639 321.338 229.639Z" fill="#E6DDD9"/>
<path d="M318.835 228.449C318.631 228.449 318.435 228.333 318.342 228.136C318.214 227.864 318.33 227.54 318.604 227.412C321.259 226.163 328.645 218.027 328.72 217.945C328.921 217.723 329.268 217.707 329.489 217.907C329.713 218.109 329.729 218.453 329.527 218.676C329.218 219.018 321.919 227.057 319.067 228.397C318.992 228.433 318.913 228.449 318.835 228.449Z" fill="#E6DDD9"/>
<path d="M316.051 226.911C315.847 226.911 315.65 226.796 315.557 226.599C315.429 226.326 315.546 226.002 315.819 225.874C318.474 224.625 325.861 216.489 325.935 216.407C326.137 216.185 326.483 216.168 326.705 216.369C326.928 216.571 326.945 216.916 326.743 217.139C326.434 217.481 319.134 225.52 316.282 226.86C316.208 226.895 316.128 226.911 316.051 226.911Z" fill="#E6DDD9"/>
<path d="M313.99 225.407C313.786 225.407 313.59 225.292 313.497 225.094C313.369 224.823 313.486 224.498 313.758 224.37C316.414 223.121 323.801 214.985 323.875 214.903C324.077 214.68 324.422 214.664 324.644 214.864C324.868 215.066 324.885 215.411 324.683 215.634C324.373 215.976 317.074 224.015 314.222 225.356C314.147 225.392 314.068 225.407 313.99 225.407Z" fill="#E6DDD9"/>
<path d="M302.845 216.228L303.162 216.491L311.47 223.357L316.046 219.654L307.537 213.181L302.845 216.228Z" fill="#E6DDD9"/>
<path d="M308.915 212.193L317.346 218.142L321.919 214.452L313.704 208.734L308.915 212.193Z" fill="#E6DDD9"/>
<path d="M326.052 231.727C325.533 231.617 324.861 231.449 324.065 231.188C324.218 231.115 324.383 231.023 324.56 230.914C325.053 231.198 325.55 231.469 326.052 231.727ZM323.311 230.927C321.359 230.213 318.826 228.993 316.051 226.912C316.128 226.912 316.208 226.895 316.282 226.86C316.68 226.673 317.165 226.355 317.705 225.946C318.167 226.349 318.634 226.742 319.11 227.129C318.926 227.244 318.757 227.339 318.604 227.412C318.33 227.54 318.214 227.864 318.342 228.136C318.435 228.333 318.631 228.449 318.835 228.449C318.913 228.449 318.992 228.433 319.067 228.397C319.341 228.268 319.657 228.077 320.004 227.837C320.351 228.105 320.703 228.369 321.057 228.627C320.819 228.769 320.724 229.07 320.844 229.326C320.937 229.523 321.133 229.639 321.338 229.639C321.415 229.639 321.494 229.623 321.57 229.587C321.717 229.517 321.877 229.43 322.047 229.326C322.521 229.651 323.001 229.967 323.486 230.269C323.284 230.417 323.206 230.691 323.311 230.927ZM315.524 226.508C315.074 226.156 314.617 225.781 314.157 225.382C314.179 225.375 314.201 225.366 314.222 225.356C314.674 225.143 315.237 224.763 315.867 224.271C316.2 224.588 316.537 224.902 316.879 225.211C316.477 225.505 316.118 225.733 315.819 225.874C315.576 225.988 315.457 226.258 315.524 226.508Z" fill="#F3F5F6"/>
<path d="M324.065 231.188C323.825 231.11 323.573 231.023 323.312 230.927C323.206 230.691 323.284 230.417 323.486 230.269C323.841 230.49 324.199 230.705 324.56 230.914C324.383 231.023 324.218 231.115 324.065 231.188Z" fill="#E8E6E3"/>
<path d="M321.338 229.639C321.133 229.639 320.936 229.523 320.844 229.326C320.724 229.07 320.819 228.769 321.057 228.627C321.384 228.866 321.714 229.098 322.047 229.326C321.877 229.43 321.717 229.517 321.569 229.587C321.494 229.623 321.415 229.639 321.338 229.639Z" fill="#E8E6E3"/>
<path d="M318.835 228.449C318.631 228.449 318.435 228.333 318.342 228.136C318.214 227.864 318.33 227.54 318.604 227.412C318.757 227.339 318.926 227.244 319.11 227.128C319.405 227.367 319.704 227.604 320.004 227.837C319.657 228.077 319.341 228.268 319.067 228.397C318.992 228.433 318.913 228.449 318.835 228.449Z" fill="#E8E6E3"/>
<path d="M316.051 226.911C315.876 226.78 315.701 226.645 315.524 226.507C315.457 226.258 315.576 225.988 315.819 225.874C316.118 225.733 316.477 225.505 316.879 225.211C317.152 225.458 317.427 225.704 317.705 225.946C317.165 226.355 316.68 226.673 316.282 226.86C316.208 226.895 316.128 226.911 316.051 226.911Z" fill="#E8E6E3"/>
<path d="M313.455 224.758C312.896 224.248 312.333 223.701 311.766 223.117L313.401 221.794C313.948 222.372 314.507 222.945 315.081 223.51C314.572 223.9 314.121 224.199 313.758 224.37C313.595 224.447 313.487 224.593 313.455 224.758Z" fill="#F3F5F6"/>
<path d="M300.066 209.28C300.022 209.233 300.01 209.222 300.01 209.222L300.458 209.054C300.329 209.131 300.199 209.206 300.066 209.28Z" fill="#CBBDE4"/>
<path d="M304.845 214.929C301.962 211.452 300.783 210.084 300.312 209.552C300.496 209.349 300.678 209.134 300.855 208.907L302.942 208.131C303.88 209.622 305.048 211.387 306.42 213.287C306.518 213.427 306.619 213.568 306.722 213.711L304.845 214.929Z" fill="#F3F5F6"/>
<path d="M300.312 209.552C300.186 209.41 300.11 209.327 300.066 209.28C300.199 209.206 300.329 209.131 300.458 209.055L300.855 208.907C300.678 209.134 300.496 209.349 300.312 209.552Z" fill="#EDF0F2"/>
<path d="M314.157 225.381C313.924 225.18 313.69 224.972 313.455 224.758C313.487 224.593 313.595 224.447 313.758 224.37C314.121 224.199 314.572 223.9 315.08 223.51C315.34 223.765 315.603 224.019 315.867 224.271C315.237 224.763 314.674 225.143 314.222 225.356C314.201 225.366 314.179 225.374 314.157 225.381Z" fill="#E8E6E3"/>
<path d="M311.766 223.117C311.005 222.331 310.239 221.475 309.474 220.544C307.579 218.234 306.061 216.394 304.845 214.929L306.722 213.711C306.91 213.97 307.107 214.233 307.313 214.499C309.068 216.859 311.114 219.372 313.401 221.794L311.766 223.117Z" fill="#E8E6E3"/>
<path d="M344.822 220.824C337.782 227.947 326.794 232.095 326.794 232.095C318.825 228.27 312.025 220.835 307.313 214.499C306.994 214.088 306.697 213.683 306.42 213.287C302.514 207.88 300.261 203.558 300.261 203.558C303.784 203.52 306.911 202.835 309.607 201.861C310.895 201.411 312.068 200.897 313.11 200.361C313.131 200.368 313.131 200.368 313.131 200.368C317.895 197.969 320.544 195.085 320.544 195.085C321.799 196.91 323.798 199.317 326.146 201.916C333.717 210.314 344.822 220.824 344.822 220.824Z" fill="white"/>
<path d="M306.42 213.286C302.514 207.879 300.261 203.558 300.261 203.558C303.784 203.519 306.911 202.834 309.607 201.861C306.727 204.394 303.579 204.639 302.472 204.639C302.207 204.639 302.059 204.625 302.059 204.625L306.42 213.286Z" fill="#F3F5F6"/>
<path d="M326.146 201.916C323.553 201.009 320.042 197.773 320.042 197.773C318.397 199.507 315.271 200.123 313.131 200.368C317.895 197.969 320.544 195.085 320.544 195.085C321.799 196.91 323.798 199.317 326.146 201.916Z" fill="#F3F5F6"/>
<path d="M327.511 228.539C327.265 228.539 327.041 228.372 326.982 228.121C326.911 227.828 327.092 227.534 327.384 227.464C330.238 226.779 339.119 220.308 339.208 220.243C339.451 220.064 339.792 220.118 339.97 220.361C340.148 220.604 340.094 220.945 339.851 221.123C339.479 221.394 330.704 227.789 327.638 228.524C327.596 228.535 327.553 228.539 327.511 228.539Z" fill="#E6DDD9"/>
<path d="M325.416 226.458C325.17 226.458 324.947 226.291 324.887 226.041C324.817 225.748 324.997 225.454 325.29 225.384C328.143 224.7 337.025 218.228 337.114 218.162C337.357 217.984 337.697 218.038 337.875 218.281C338.053 218.524 338.001 218.865 337.757 219.042C337.385 219.314 328.608 225.709 325.544 226.443C325.501 226.454 325.459 226.458 325.416 226.458Z" fill="#E6DDD9"/>
<path d="M323.207 224.788C322.96 224.788 322.737 224.621 322.678 224.37C322.607 224.077 322.787 223.784 323.08 223.714C325.934 223.03 334.815 216.557 334.904 216.492C335.146 216.314 335.488 216.367 335.665 216.61C335.843 216.854 335.791 217.194 335.547 217.371C335.175 217.643 326.399 224.038 323.334 224.773C323.292 224.784 323.249 224.788 323.207 224.788Z" fill="#E6DDD9"/>
<path d="M320.791 222.718C320.545 222.718 320.322 222.55 320.262 222.3C320.192 222.007 320.372 221.713 320.665 221.643C323.519 220.958 332.4 214.487 332.489 214.421C332.731 214.243 333.072 214.297 333.251 214.54C333.428 214.783 333.375 215.123 333.132 215.301C332.76 215.573 323.984 221.968 320.919 222.703C320.877 222.713 320.834 222.718 320.791 222.718Z" fill="#E6DDD9"/>
<path d="M319.078 220.828C318.832 220.828 318.609 220.66 318.549 220.41C318.478 220.117 318.659 219.823 318.952 219.753C321.805 219.069 330.687 212.597 330.776 212.531C331.017 212.353 331.359 212.407 331.537 212.65C331.715 212.893 331.662 213.234 331.419 213.411C331.046 213.683 322.27 220.078 319.206 220.813C319.163 220.823 319.121 220.828 319.078 220.828Z" fill="#E6DDD9"/>
<path d="M309.913 209.571L310.171 209.892L316.916 218.297L322.146 215.599L315.125 207.537L309.913 209.571Z" fill="#E6DDD9"/>
<path d="M316.675 206.848L323.726 214.38L328.952 211.694L322.064 204.431L316.675 206.848Z" fill="#E6DDD9"/>
<path d="M222.899 107.912C222.899 107.912 228.521 108.316 228.224 114.171C227.927 120.025 233.461 139.893 233.461 139.893L247.755 170.35L239.668 173.894L215.601 135.326C215.601 135.326 214.354 112.478 215.601 110.196C216.848 107.914 222.899 107.912 222.899 107.912Z" fill="#F0B482"/>
<path d="M185.949 217.514C185.949 217.514 169.094 214.094 163.356 212.68C160.976 212.093 154.273 210.763 154.273 210.763L161.193 197.715C161.193 197.715 183.768 202.709 188.038 203.204L185.949 217.514Z" fill="#DF8F6A"/>
<path d="M118.707 207.974C118.801 208.063 118.909 208.14 119.017 208.217C119.326 208.461 119.702 208.686 120.133 208.892C125.55 211.557 139.818 212.794 144.81 211.502C146.215 211.133 147.651 210.961 149.105 210.961C155.038 210.96 158.843 211.855 160.128 211.964C159.105 210.483 159.123 204.499 161.691 201.824C163.715 199.708 165.173 201.695 169.527 199.524C169.527 199.524 167.551 196.738 164.78 194.664C164.028 194.084 163.205 193.573 162.355 193.176C161.566 192.813 160.753 192.549 159.933 192.455C154.975 191.881 151.679 196.459 144.862 196.474C138.044 196.49 128.588 196.862 124.898 199.356C121.195 201.849 117.378 206.781 118.707 207.974Z" fill="#CC5A26"/>
<path d="M120.133 208.892C121.142 207.464 122.725 205.453 124.958 203.102C128.433 199.441 137.004 199.187 142.684 199.026L144.106 198.97C150.205 198.768 153.536 198.024 155.983 196.294C159.046 194.17 162.789 194.356 164.78 194.664C164.028 194.085 163.205 193.573 162.355 193.176C160.213 193.175 157.579 193.61 155.247 195.249C153.015 196.808 149.886 197.484 144.059 197.693L142.651 197.738C136.413 197.911 127.866 198.168 124.022 202.215C121.688 204.658 120.072 206.73 119.016 208.217L120.133 208.892Z" fill="white"/>
<path d="M228.224 114.171L227.441 114.426L219.024 117.167L215.172 118.416C215.172 118.416 213.751 114.945 211.875 110.008C207.439 98.296 200.445 78.3037 203.805 76.7097C203.805 76.7097 219.936 80.9268 224.49 93.3683C226.493 98.8422 227.459 103.524 227.905 107.049C228.479 111.548 228.224 114.171 228.224 114.171Z" fill="#F0B482"/>
<path d="M277.944 202.282L233.461 193.147L247.578 174.321L260.685 172.954L262.834 172.727C262.834 172.727 286.278 180.487 277.944 202.282Z" fill="#F0B482"/>
<path d="M277.945 202.274C274.421 189.511 247.578 188.283 247.578 188.283C246.078 188.217 244.699 188.187 243.429 188.187C242.825 188.187 242.245 188.194 241.691 188.206C242.641 186.911 243.635 185.714 244.654 184.61H258.382C259.724 186.286 261.812 187.595 264.455 188.192C278.115 191.274 277.953 201.95 277.945 202.274Z" fill="#EEA86E"/>
<path d="M278.236 206.599C278.218 206.772 278.191 206.936 278.163 207.109C275.431 224.414 268.226 227.374 239.381 228.285C216.083 229.023 199.889 226.873 181.29 222.629C176.864 221.618 172.3 220.488 167.473 219.25L169.933 206.034C169.933 206.034 200.881 204.377 210.072 205.897C219.271 207.409 230.201 190.104 230.201 190.104C230.201 190.104 233.99 187.682 247.578 188.283C247.578 188.283 280.24 189.776 278.236 206.599Z" fill="#F0B482"/>
<path d="M221.304 26.5681C221.304 26.5681 230.707 31.1792 227.851 44.6748C227.069 48.3756 224.228 48.8315 224.608 51.4113C224.988 53.991 227.683 56.8631 224.407 58.5111C221.132 60.1592 219.697 62.6145 220.19 64.5541C220.683 66.4944 221.006 68.8658 219.135 70.0223C217.266 71.1788 215.13 72.1526 215.524 74.28C215.917 76.4067 217.18 83.2356 214.261 84.3544C211.342 85.4732 187.342 83.0428 187.342 83.0428L221.304 26.5681Z" fill="#EF7F4D"/>
<path d="M221.304 26.568C221.304 26.568 216.116 14.8905 202.126 17.5022C199.587 17.9767 195.09 19.4803 193.909 22.1731C193.635 22.7969 193.557 23.5153 193.151 24.0623C192.219 25.3191 190.303 24.9599 188.756 25.1882C186.934 25.4563 185.312 26.8006 184.709 28.5404C184.139 30.1877 184.435 32.0683 183.707 33.6523C182.928 35.3458 180.966 36.0692 179.101 36.0649C171.495 36.0478 175.007 41.6462 171.66 45.4501C169.733 47.6394 165.146 49.1494 164.883 52.4916C164.668 55.2343 166.733 58.361 164.371 60.5283C160.721 63.8784 158.194 63.8079 160.164 69.9696C160.729 71.7357 156.66 76.3803 156.66 76.3803C156.66 76.3803 155.253 79.9146 158.842 81.7731C162.432 83.6317 188.822 80.5846 188.822 80.5846L221.304 26.568Z" fill="#EF7F4D"/>
<path d="M262.834 172.726C262.77 172.744 262.707 172.763 262.643 172.78C260.321 173.527 237.587 181.433 233.916 207.792C233.916 207.792 207.731 214.395 183.14 208.475C158.548 202.555 158.775 188.438 157.637 184.794C156.498 181.151 158.092 153.827 166.745 137.66C169.213 133.043 170.498 128.352 171.072 123.998C172.501 113.133 169.478 104.416 169.478 104.416C169.478 104.416 179.041 102.822 178.813 90.7541C178.585 78.686 167.884 68.4395 164.923 67.9843C164.923 67.9843 177.565 65.2423 180.635 64.3412C181.036 64.2224 181.436 64.0766 181.846 63.913C182.183 63.7764 182.529 63.6306 182.867 63.4663C184.524 62.6832 186.218 61.5722 187.857 60.2421C189.424 58.9853 190.936 57.5187 192.32 55.9709C195.499 52.4096 197.967 48.3561 198.732 44.9861L210.072 55.6153C210.072 55.6153 205.335 60.2329 203.806 65.3611C203.387 66.7637 203.213 68.1934 203.432 69.5868C203.559 70.4431 203.842 71.281 204.316 72.0826C205.427 73.9682 207.284 75.8168 209.38 77.8482C216.302 84.5881 225.81 93.2955 219.344 111.475C219.344 111.475 219.936 112.195 220.883 113.461C224.809 118.67 234.873 133.124 235.055 144.491C235.283 158.608 230.501 169.311 230.501 169.311C230.501 169.311 243.708 167.033 262.834 172.726Z" fill="#6CC7B1"/>
<path d="M207.833 154.488C208.309 153.866 208.542 153.337 208.369 153.164C208.186 152.982 207.607 153.248 206.937 153.782C206.582 153.001 206.187 152.501 205.941 152.58C205.696 152.66 205.668 153.292 205.837 154.126C204.987 154.077 204.365 154.194 204.322 154.447C204.28 154.688 204.772 154.988 205.522 155.223C205.047 155.846 204.814 156.374 204.987 156.546C205.17 156.73 205.749 156.464 206.419 155.929C206.774 156.711 207.169 157.211 207.415 157.131C207.66 157.051 207.688 156.42 207.519 155.585C208.369 155.635 208.991 155.518 209.034 155.265C209.076 155.023 208.584 154.723 207.833 154.488Z" fill="white"/>
<path d="M177.95 148.965C178.426 148.342 178.658 147.814 178.485 147.642C178.302 147.459 177.723 147.725 177.053 148.26C176.698 147.478 176.303 146.978 176.058 147.058C175.812 147.136 175.784 147.768 175.954 148.603C175.103 148.554 174.482 148.67 174.438 148.924C174.396 149.165 174.888 149.465 175.639 149.7C175.163 150.323 174.93 150.851 175.103 151.024C175.286 151.206 175.865 150.941 176.536 150.406C176.89 151.187 177.285 151.687 177.531 151.608C177.776 151.529 177.804 150.897 177.635 150.062C178.485 150.112 179.107 149.995 179.151 149.741C179.193 149.5 178.701 149.2 177.95 148.965Z" fill="white"/>
<path d="M193.321 173.527C193.797 172.904 194.029 172.375 193.856 172.203C193.673 172.02 193.094 172.285 192.424 172.82C192.069 172.039 191.674 171.539 191.428 171.618C191.183 171.698 191.155 172.33 191.325 173.165C190.474 173.115 189.853 173.231 189.809 173.485C189.767 173.726 190.259 174.026 191.01 174.261C190.534 174.884 190.301 175.412 190.474 175.585C190.657 175.768 191.237 175.502 191.907 174.967C192.261 175.749 192.656 176.249 192.902 176.169C193.147 176.089 193.175 175.458 193.006 174.623C193.856 174.672 194.478 174.556 194.522 174.303C194.564 174.061 194.072 173.761 193.321 173.527Z" fill="white"/>
<path d="M201.625 198.019C202.101 197.395 202.333 196.868 202.16 196.695C201.978 196.512 201.398 196.777 200.728 197.313C200.374 196.531 199.978 196.031 199.732 196.111C199.487 196.19 199.46 196.821 199.628 197.656C198.778 197.607 198.157 197.723 198.113 197.977C198.071 198.218 198.563 198.519 199.314 198.753C198.838 199.376 198.605 199.904 198.778 200.077C198.961 200.26 199.541 199.994 200.211 199.459C200.565 200.241 200.96 200.741 201.207 200.661C201.451 200.582 201.479 199.95 201.31 199.115C202.16 199.165 202.781 199.048 202.825 198.795C202.867 198.553 202.375 198.253 201.625 198.019Z" fill="white"/>
<path d="M176.811 187.251C177.287 186.628 177.52 186.099 177.347 185.927C177.164 185.744 176.585 186.009 175.914 186.544C175.56 185.763 175.165 185.263 174.919 185.343C174.674 185.422 174.646 186.054 174.815 186.889C173.965 186.839 173.343 186.955 173.299 187.209C173.257 187.45 173.749 187.75 174.501 187.985C174.024 188.608 173.792 189.136 173.965 189.309C174.148 189.492 174.727 189.226 175.398 188.691C175.752 189.473 176.147 189.973 176.393 189.893C176.638 189.813 176.666 189.182 176.496 188.347C177.347 188.396 177.968 188.28 178.012 188.027C178.054 187.785 177.562 187.485 176.811 187.251Z" fill="white"/>
<path d="M222.043 170.765C222.519 170.142 222.751 169.614 222.579 169.441C222.396 169.258 221.816 169.524 221.146 170.059C220.792 169.277 220.396 168.777 220.15 168.857C219.906 168.937 219.878 169.568 220.047 170.403C219.197 170.353 218.575 170.469 218.531 170.723C218.49 170.964 218.982 171.265 219.732 171.499C219.256 172.122 219.024 172.65 219.197 172.823C219.379 173.006 219.959 172.741 220.63 172.206C220.983 172.987 221.379 173.487 221.625 173.407C221.869 173.328 221.897 172.696 221.729 171.861C222.579 171.911 223.2 171.795 223.244 171.541C223.286 171.299 222.794 170.999 222.043 170.765Z" fill="white"/>
<path d="M251.269 172.359C251.745 171.736 251.978 171.208 251.805 171.035C251.622 170.852 251.042 171.118 250.372 171.653C250.018 170.871 249.623 170.371 249.376 170.451C249.132 170.53 249.104 171.162 249.273 171.997C248.423 171.948 247.801 172.064 247.757 172.317C247.716 172.559 248.207 172.859 248.958 173.093C248.482 173.717 248.25 174.244 248.423 174.417C248.605 174.6 249.185 174.335 249.855 173.799C250.209 174.581 250.605 175.081 250.851 175.001C251.096 174.922 251.123 174.291 250.955 173.456C251.805 173.505 252.426 173.389 252.47 173.135C252.512 172.894 252.02 172.593 251.269 172.359Z" fill="white"/>
<path d="M226.415 193.033C226.892 192.41 227.124 191.882 226.952 191.71C226.769 191.527 226.189 191.792 225.518 192.328C225.165 191.546 224.769 191.046 224.523 191.126C224.278 191.205 224.251 191.836 224.419 192.671C223.569 192.621 222.948 192.738 222.904 192.992C222.862 193.233 223.354 193.533 224.105 193.768C223.629 194.391 223.397 194.919 223.569 195.092C223.752 195.274 224.331 195.008 225.002 194.474C225.356 195.255 225.751 195.755 225.997 195.676C226.242 195.597 226.27 194.965 226.101 194.13C226.952 194.18 227.572 194.063 227.617 193.809C227.659 193.568 227.166 193.268 226.415 193.033Z" fill="white"/>
<path d="M163.437 168.003C163.913 167.381 164.145 166.852 163.973 166.679C163.79 166.497 163.211 166.763 162.54 167.297C162.186 166.516 161.791 166.016 161.545 166.095C161.299 166.175 161.272 166.807 161.441 167.641C160.59 167.592 159.969 167.709 159.925 167.962C159.883 168.203 160.375 168.503 161.126 168.738C160.65 169.361 160.418 169.889 160.59 170.062C160.774 170.245 161.353 169.979 162.023 169.444C162.378 170.226 162.772 170.726 163.018 170.646C163.264 170.566 163.292 169.935 163.122 169.101C163.973 169.15 164.594 169.033 164.638 168.78C164.68 168.539 164.188 168.238 163.437 168.003Z" fill="white"/>
<path d="M195.679 137.242C196.156 136.62 196.388 136.091 196.216 135.918C196.033 135.736 195.453 136.002 194.782 136.536C194.429 135.755 194.033 135.255 193.787 135.334C193.542 135.414 193.515 136.046 193.683 136.88C192.833 136.831 192.212 136.948 192.168 137.201C192.126 137.442 192.618 137.742 193.369 137.977C192.892 138.6 192.661 139.128 192.833 139.301C193.016 139.484 193.595 139.218 194.266 138.683C194.62 139.465 195.016 139.965 195.261 139.885C195.506 139.805 195.534 139.174 195.365 138.34C196.216 138.389 196.836 138.272 196.881 138.019C196.923 137.778 196.43 137.477 195.679 137.242Z" fill="white"/>
<path d="M226.415 139.526C226.892 138.903 227.124 138.375 226.952 138.202C226.769 138.019 226.189 138.285 225.518 138.82C225.165 138.039 224.769 137.539 224.523 137.618C224.278 137.697 224.251 138.329 224.419 139.164C223.569 139.114 222.948 139.231 222.904 139.485C222.862 139.726 223.354 140.026 224.105 140.261C223.629 140.884 223.397 141.412 223.569 141.584C223.752 141.767 224.331 141.501 225.002 140.966C225.356 141.748 225.751 142.248 225.997 142.168C226.242 142.089 226.27 141.458 226.101 140.623C226.952 140.673 227.572 140.556 227.617 140.302C227.659 140.061 227.166 139.761 226.415 139.526Z" fill="white"/>
<path d="M211.684 123.631C212.161 123.008 212.393 122.48 212.22 122.308C212.037 122.125 211.458 122.39 210.787 122.925C210.433 122.143 210.038 121.643 209.792 121.723C209.547 121.803 209.519 122.434 209.688 123.269C208.838 123.219 208.217 123.336 208.173 123.59C208.131 123.831 208.623 124.131 209.374 124.366C208.897 124.988 208.665 125.517 208.838 125.69C209.021 125.872 209.6 125.606 210.271 125.072C210.624 125.853 211.02 126.353 211.266 126.274C211.511 126.194 211.538 125.563 211.37 124.728C212.22 124.777 212.841 124.661 212.886 124.407C212.928 124.166 212.435 123.866 211.684 123.631Z" fill="white"/>
<path d="M198.25 107.545C198.725 106.922 198.958 106.394 198.785 106.221C198.602 106.039 198.023 106.304 197.353 106.839C196.998 106.057 196.603 105.557 196.357 105.638C196.112 105.716 196.084 106.348 196.254 107.183C195.403 107.133 194.782 107.25 194.738 107.504C194.696 107.745 195.188 108.044 195.939 108.28C195.463 108.902 195.23 109.431 195.403 109.604C195.586 109.786 196.166 109.52 196.836 108.985C197.19 109.767 197.585 110.267 197.831 110.187C198.076 110.108 198.104 109.477 197.935 108.642C198.785 108.691 199.407 108.575 199.451 108.321C199.493 108.08 199.001 107.78 198.25 107.545Z" fill="white"/>
<path d="M184.022 96.728C184.497 96.1057 184.73 95.5772 184.557 95.4043C184.374 95.2215 183.795 95.4876 183.125 96.0224C182.77 95.2407 182.375 94.7407 182.129 94.8204C181.884 94.9 181.856 95.5317 182.025 96.366C181.175 96.3169 180.553 96.4335 180.509 96.6868C180.468 96.9279 180.96 97.228 181.711 97.4635C181.235 98.0858 181.002 98.6143 181.175 98.7864C181.358 98.9699 181.938 98.7039 182.608 98.169C182.962 98.9507 183.357 99.4507 183.603 99.3711C183.848 99.2914 183.876 98.6598 183.706 97.8248C184.557 97.8746 185.179 97.7579 185.222 97.504C185.264 97.2629 184.772 96.9634 184.022 96.728Z" fill="white"/>
<path d="M212.84 94.9509C213.316 94.3285 213.548 93.8 213.376 93.6272C213.193 93.4444 212.614 93.7104 211.943 94.2453C211.589 93.4636 211.194 92.9636 210.948 93.0432C210.703 93.1229 210.675 93.7538 210.844 94.5888C209.993 94.5398 209.372 94.6564 209.328 94.9096C209.286 95.1507 209.779 95.4509 210.53 95.6863C210.053 96.3087 209.821 96.8372 209.993 97.0093C210.176 97.1921 210.756 96.9268 211.427 96.3919C211.781 97.1736 212.176 97.6736 212.422 97.5932C212.667 97.5143 212.694 96.8827 212.526 96.0476C213.376 96.0974 213.997 95.9808 214.041 95.7269C214.083 95.4857 213.591 95.1863 212.84 94.9509Z" fill="white"/>
<path d="M197.624 83.1449C198.1 82.5225 198.333 81.9941 198.16 81.8212C197.977 81.6384 197.398 81.9044 196.727 82.4393C196.373 81.6576 195.978 81.1576 195.732 81.2373C195.486 81.3169 195.459 81.9485 195.628 82.7828C194.778 82.7338 194.156 82.8504 194.112 83.1036C194.07 83.3448 194.562 83.6449 195.314 83.8803C194.837 84.5027 194.605 85.0312 194.778 85.204C194.961 85.3868 195.54 85.1208 196.21 84.5859C196.565 85.3676 196.959 85.8676 197.206 85.788C197.451 85.7083 197.479 85.0767 197.309 84.2417C198.16 84.2915 198.781 84.1748 198.825 83.9216C198.867 83.6798 198.375 83.3803 197.624 83.1449Z" fill="white"/>
<path d="M177.95 72.6389C178.426 72.0158 178.658 71.488 178.485 71.3152C178.302 71.1324 177.723 71.3984 177.053 71.9333C176.698 71.1516 176.303 70.6516 176.058 70.7313C175.812 70.8102 175.784 71.4418 175.954 72.2768C175.103 72.2271 174.482 72.3437 174.438 72.5976C174.396 72.8387 174.888 73.1389 175.639 73.3736C175.163 73.9967 174.93 74.5245 175.103 74.6973C175.286 74.8801 175.865 74.6141 176.536 74.0799C176.89 74.8609 177.285 75.3609 177.531 75.2812C177.776 75.2023 177.804 74.5707 177.635 73.7356C178.485 73.7854 179.107 73.6688 179.151 73.4149C179.193 73.1737 178.701 72.8736 177.95 72.6389Z" fill="white"/>
<path d="M182.972 121.646C183.449 121.023 183.681 120.494 183.508 120.322C183.325 120.139 182.746 120.405 182.075 120.94C181.721 120.158 181.326 119.658 181.08 119.738C180.835 119.817 180.807 120.449 180.977 121.284C180.126 121.234 179.505 121.351 179.461 121.605C179.419 121.846 179.911 122.145 180.662 122.381C180.186 123.003 179.953 123.531 180.126 123.704C180.309 123.887 180.888 123.621 181.559 123.086C181.913 123.868 182.308 124.368 182.554 124.288C182.799 124.209 182.827 123.578 182.658 122.743C183.508 122.792 184.13 122.676 184.174 122.422C184.216 122.181 183.723 121.881 182.972 121.646Z" fill="white"/>
<path d="M183.9 223.495C183.9 223.495 167.045 220.076 161.306 218.661C158.927 218.074 152.224 216.744 152.224 216.744L159.144 203.697C159.144 203.697 181.718 208.69 185.989 209.185L183.9 223.495Z" fill="#F0B482"/>
<path d="M116.658 213.955C116.752 214.044 116.859 214.121 116.967 214.198C117.277 214.442 117.653 214.667 118.084 214.873C123.5 217.539 137.768 218.775 142.761 217.483C144.166 217.114 145.602 216.943 147.055 216.942C152.989 216.941 156.793 217.835 158.079 217.945C157.056 216.464 157.074 210.481 159.642 207.805C161.666 205.69 163.124 207.676 167.477 205.505C167.477 205.505 165.502 202.719 162.73 200.645C161.979 200.066 161.156 199.554 160.306 199.157C159.517 198.794 158.703 198.531 157.884 198.436C152.926 197.861 149.63 202.44 142.813 202.455C135.994 202.471 126.539 202.843 122.849 205.337C119.146 207.83 115.329 212.762 116.658 213.955Z" fill="#BD592C"/>
<path d="M118.084 214.873C119.093 213.445 120.676 211.434 122.909 209.083C126.383 205.422 134.955 205.168 140.635 205.007L142.056 204.951C148.156 204.749 151.487 204.005 153.933 202.275C156.997 200.151 160.74 200.337 162.73 200.645C161.979 200.066 161.156 199.554 160.306 199.157C158.164 199.157 155.529 199.591 153.198 201.23C150.966 202.789 147.837 203.465 142.01 203.674L140.602 203.719C134.363 203.892 125.817 204.149 121.972 208.196C119.639 210.639 118.023 212.711 116.967 214.198L118.084 214.873Z" fill="white"/>
<path d="M203.368 67.711C203.313 68.3391 203.332 68.9678 203.432 69.5866C203.559 70.443 203.842 71.2809 204.315 72.0825C205.426 73.968 207.284 75.8166 209.38 77.848C206.793 78.7584 201.81 79.4782 193.832 76.7093C187.202 74.414 184.214 68.5396 182.866 63.4662C184.524 62.6831 186.218 61.572 187.857 60.242C189.424 58.9852 190.936 57.5185 192.32 55.9708C195.498 52.4095 197.967 48.356 198.732 44.986L210.072 55.6152C210.072 55.6152 205.335 60.2327 203.805 65.361C203.732 65.6064 203.66 65.8617 203.614 66.1171C203.55 66.3624 203.504 66.6085 203.468 66.8546C203.432 67.046 203.404 67.2458 203.386 67.4372C203.377 67.5289 203.368 67.6192 203.368 67.711Z" fill="#F0B482"/>
<path d="M203.432 69.587C203.377 69.2485 203.347 68.9071 203.34 68.5642C203.348 68.9071 203.378 69.2485 203.432 69.587Z" fill="#31C5A1"/>
<path d="M203.667 65.8647C203.675 65.8292 203.684 65.7943 203.693 65.7595C203.719 65.662 203.746 65.5653 203.774 65.4679C203.784 65.4323 203.795 65.3967 203.805 65.3612C203.932 64.9358 204.081 64.5141 204.247 64.0987C204.016 64.6776 203.818 65.268 203.667 65.8647Z" fill="#482818"/>
<path d="M203.693 65.7596C203.719 65.6615 203.746 65.5648 203.774 65.468C203.746 65.5655 203.719 65.6622 203.693 65.7596Z" fill="#31C5A1"/>
<path d="M203.432 69.587C199.643 67.6744 195.4 65.18 193.127 62.4217C193.24 61.8904 193.466 61.3939 193.855 60.948C194.512 59.9906 195.452 59.2495 196.345 58.2167C196.541 57.9862 196.73 57.7337 196.9 57.4649C199.3 59.5852 202.566 61.8655 204.777 62.9061C204.586 63.2966 204.409 63.6949 204.247 64.0989C204.081 64.5143 203.932 64.9361 203.805 65.3614C203.795 65.397 203.784 65.4325 203.774 65.4681C203.746 65.5648 203.719 65.6615 203.693 65.7597C203.685 65.7946 203.675 65.8294 203.667 65.865C203.44 66.7597 203.317 67.6673 203.34 68.5642C203.347 68.9071 203.377 69.2485 203.432 69.587ZM192.253 61.1763C191.283 59.4948 191.136 57.738 192.32 55.9712C192.86 55.3659 193.38 54.7471 193.873 54.1191C194.013 54.3325 194.158 54.5451 194.306 54.7549C194.659 55.2521 195.168 55.8219 195.781 56.4257C195.639 56.7323 195.455 57.0267 195.225 57.3098C194.529 58.2032 193.519 59.0837 192.795 60.2253C192.604 60.507 192.451 60.7886 192.285 61.1101C192.274 61.1315 192.264 61.1535 192.253 61.1763Z" fill="#E8924A"/>
<path d="M215.112 32.4955C215.112 32.4955 221.056 44.0281 218.098 52.4523C215.14 60.8773 209.644 64.0979 206.263 63.4435C203.625 62.9329 196.351 57.6367 194.306 54.7547C189.024 47.3063 189.645 37.6828 189.645 37.6828L200.614 27.7201L215.112 32.4955Z" fill="#F0B482"/>
<path d="M207.127 32.3734C207.127 32.3734 217.044 40.9407 218.987 51.9575C218.987 51.9575 221.871 48.5648 220.665 39.6334C219.46 30.7027 208.291 24.9855 208.291 24.9855L207.127 32.3734Z" fill="#EF7F4D"/>
<path d="M215.601 33.5263C215.601 33.5263 209.598 42.5751 195.198 47.1542C186.637 49.8763 188.41 53.0386 188.41 53.0386C188.41 53.0386 179.969 44.9394 183.812 38.3587C186.281 34.1316 193.857 25.7067 201.265 25.9798C205.39 26.132 212.752 29.157 215.601 33.5263Z" fill="#EF7F4D"/>
<path d="M197.684 46.3228C197.799 45.8975 197.056 44.8868 196.86 44.6243C195.91 43.3533 194.363 42.78 192.896 43.7011C192.27 44.0937 191.745 44.6784 191.296 45.3114C189.636 47.6493 189.402 51.3465 190.765 53.6659C191.215 54.4327 194.124 55.5366 194.983 54.5038C195.714 53.6247 197.68 46.3392 197.684 46.3228Z" fill="#F0B482"/>
<path d="M205.609 210.94C198.514 210.94 190.752 210.308 183.14 208.475C169.779 205.258 163.744 199.622 160.836 194.561C160.598 194.147 160.382 193.737 160.183 193.333C158.343 189.579 158.107 186.296 157.637 184.795C157.429 184.131 157.313 182.681 157.313 180.658C157.313 171.568 159.668 150.883 166.745 137.66C169.213 133.043 170.498 128.352 171.071 123.998C171.153 136.54 170.616 154.391 167.473 166.123C162.191 185.86 179.396 202.209 194.324 205.26C200.344 206.494 207.17 207.059 213.275 207.059C222.306 207.059 229.763 205.824 230.719 203.694C231.763 201.374 231.617 192.805 240.095 184.61H244.654C239.73 189.952 235.356 197.452 233.916 207.792C233.916 207.792 221.431 210.939 205.609 210.94ZM162.023 169.444C162.353 170.171 162.718 170.655 162.965 170.655C162.984 170.655 163.001 170.652 163.019 170.646C163.264 170.566 163.292 169.935 163.122 169.1C163.25 169.108 163.374 169.111 163.491 169.111C164.147 169.111 164.601 168.995 164.638 168.78C164.68 168.539 164.188 168.238 163.437 168.003C163.913 167.381 164.145 166.852 163.973 166.679C163.934 166.641 163.877 166.622 163.805 166.622C163.539 166.622 163.068 166.876 162.54 167.297C162.211 166.57 161.846 166.087 161.598 166.087C161.58 166.087 161.562 166.09 161.545 166.095C161.299 166.175 161.272 166.807 161.441 167.641C161.313 167.634 161.189 167.63 161.072 167.63C160.416 167.63 159.963 167.747 159.925 167.962C159.883 168.203 160.375 168.503 161.127 168.738C160.65 169.361 160.418 169.889 160.59 170.062C160.629 170.1 160.686 170.12 160.758 170.12C161.024 170.12 161.496 169.865 162.023 169.444Z" fill="#2BB191"/>
<path d="M162.965 170.655C162.718 170.655 162.353 170.171 162.023 169.444C161.496 169.865 161.024 170.12 160.758 170.12C160.686 170.12 160.629 170.101 160.59 170.062C160.418 169.889 160.65 169.361 161.126 168.739C160.375 168.503 159.883 168.203 159.925 167.962C159.963 167.747 160.416 167.63 161.072 167.63C161.189 167.63 161.313 167.634 161.441 167.641C161.272 166.807 161.299 166.175 161.545 166.096C161.562 166.09 161.58 166.088 161.598 166.088C161.846 166.088 162.21 166.571 162.54 167.298C163.068 166.877 163.539 166.623 163.805 166.623C163.877 166.623 163.934 166.641 163.973 166.68C164.145 166.852 163.913 167.381 163.437 168.003C164.188 168.239 164.68 168.539 164.638 168.78C164.601 168.995 164.147 169.111 163.491 169.111C163.374 169.111 163.25 169.108 163.122 169.101C163.292 169.935 163.264 170.567 163.018 170.646C163.001 170.652 162.984 170.655 162.965 170.655Z" fill="white"/>
<path d="M160.901 139.893C156.074 144.282 147.254 147.88 144.275 142.742C135.477 127.569 147.317 88.4043 150.35 79.5967C153.147 71.4726 163.174 68.4575 164.723 68.0386C164.851 68.0023 164.923 67.9845 164.923 67.9845C167.884 68.4397 178.585 78.6863 178.813 90.7544C179.041 102.822 169.478 104.416 169.478 104.416C167.355 109.809 165.534 121.949 165.534 121.949C165.634 121.958 165.926 135.326 160.901 139.893Z" fill="#F0B482"/>
<path d="M165.723 121.997C165.645 121.997 165.581 121.98 165.535 121.95C165.534 121.949 165.533 121.949 165.533 121.949C165.634 121.958 165.77 121.968 165.925 121.968C165.85 121.987 165.782 121.997 165.723 121.997Z" fill="#848B91"/>
<path d="M165.535 121.95C165.534 121.95 165.533 121.949 165.533 121.949C165.533 121.949 165.534 121.949 165.535 121.95Z" fill="#E8924A"/>
<path d="M165.533 121.949C163.402 120.583 164.24 110.564 171.754 97.093C177.247 87.2569 169.359 74.3054 164.723 68.0384C164.851 68.0021 164.923 67.9843 164.923 67.9843C167.883 68.4395 178.585 78.6861 178.813 90.7542C178.816 90.8957 178.817 91.0358 178.817 91.1738C178.818 102.859 169.477 104.416 169.477 104.416C167.355 109.808 165.533 121.949 165.533 121.949Z" fill="#EA946D"/>
<path d="M223.965 31.3454C226.87 34.0098 228.753 37.8044 229.594 41.678C230.054 43.5842 230.54 45.6142 230.114 47.8227C229.902 48.913 229.342 50.0027 228.524 50.7986L228.213 51.0895L228.074 51.2218C228.06 51.2396 228.046 51.2545 228.03 51.268C227.982 51.3385 227.929 51.4039 227.903 51.5397C227.836 51.7951 227.862 52.2119 227.932 52.6337C228.071 53.4964 228.349 54.441 228.566 55.4332C228.765 56.4262 228.996 57.513 228.685 58.7541C228.519 59.3658 228.134 59.9761 227.632 60.3865C227.138 60.8083 226.505 61.0323 226.203 61.1881C225.451 61.5651 224.78 62.1661 224.199 62.8432C223.623 63.5296 223.152 64.3241 222.818 65.1648C222.497 65.997 222.276 66.9223 222.443 67.7325C222.685 68.6642 222.79 69.8933 222.224 70.8194C221.682 71.7419 220.837 72.3159 220.01 72.8323C220.722 72.168 221.429 71.4453 221.764 70.5989C222.099 69.7375 221.926 68.8762 221.573 67.9736C221.233 66.8747 221.41 65.79 221.674 64.7793C221.968 63.7679 222.451 62.8269 223.064 61.9648C223.682 61.1077 224.456 60.3225 225.433 59.7777C225.991 59.4782 226.293 59.3537 226.537 59.1233C226.778 58.8992 226.928 58.6411 227.008 58.306C227.172 57.6296 227.038 56.7249 226.826 55.8251C226.619 54.9097 226.309 53.9822 226.136 52.9139C226.066 52.3741 225.991 51.7937 226.163 51.0959C226.242 50.7524 226.434 50.3782 226.7 50.0774L226.916 49.8668L227.044 49.7481L227.271 49.5411C227.871 48.9813 228.231 48.2537 228.443 47.4414C228.868 45.7913 228.513 43.8666 228.203 41.9753C227.624 38.1771 226.287 34.5319 223.965 31.3454Z" fill="#EF7F4D"/>
<path d="M214.701 70.0443C215.279 69.5599 215.839 69.0414 216.261 68.4333C216.682 67.8252 216.881 67.0968 216.793 66.3806C216.75 66.0221 216.664 65.6693 216.541 65.3258C216.415 64.9538 216.339 64.5391 216.339 64.1451C216.328 63.347 216.496 62.5703 216.751 61.832C217.272 60.3618 218.146 58.9983 219.384 57.9855C219.688 57.7287 220.029 57.5103 220.382 57.3169C220.758 57.1106 221.08 56.9954 221.332 56.8033C221.864 56.4306 222.163 55.8552 222.211 55.1774C222.315 53.8075 221.783 52.36 221.438 50.8742C221.278 50.1196 221.091 49.3315 221.295 48.4246C221.355 48.2013 221.443 47.9694 221.592 47.7688C221.721 47.5625 221.958 47.3847 222.056 47.2852C222.326 47.0632 222.555 46.8043 222.775 46.5362C223.616 45.4252 223.85 43.9472 223.832 42.4812C223.796 41.0039 223.549 39.5053 223.364 38.001C223.816 39.4455 224.265 40.9029 224.415 42.445C224.493 43.2138 224.512 44.0041 224.378 44.7957C224.231 45.5809 223.929 46.3626 223.449 47.0298C223.2 47.3549 222.936 47.6678 222.629 47.936C222.463 48.1031 222.384 48.1529 222.313 48.2703C222.236 48.3713 222.19 48.5028 222.152 48.6415C222.015 49.2226 222.173 49.9638 222.32 50.6729C222.619 52.1168 223.183 53.5863 223.046 55.2627C222.992 56.0921 222.53 56.9861 221.798 57.4634C221.44 57.7209 221.038 57.8589 220.753 58.0161C220.444 58.1804 220.14 58.3667 219.865 58.5929C218.738 59.4656 217.844 60.6869 217.307 62.039C217.038 62.7147 216.853 63.4295 216.832 64.1443C216.815 64.5071 216.871 64.8414 216.957 65.1949C217.063 65.5712 217.13 65.9609 217.149 66.3557C217.192 67.1523 216.905 67.9503 216.42 68.5499C215.939 69.1588 215.321 69.6154 214.701 70.0443Z" fill="#C96E40"/>
<path d="M210.395 21.1266C207.638 20.3435 204.7 19.7709 201.83 19.5476C200.391 19.4416 198.95 19.426 197.566 19.591C196.186 19.7475 194.849 20.1059 193.806 20.7674C193.57 20.9182 193.265 21.1451 192.964 21.372L192.057 22.0527C191.456 22.5008 190.722 23.0257 189.89 23.3457C189.079 23.663 188.33 23.8358 187.591 24.0207C186.85 24.2014 186.101 24.3622 185.472 24.5528C184.824 24.7512 184.248 25.0208 183.857 25.3956C183.458 25.7591 183.189 26.2876 182.938 26.9782C182.43 28.3616 181.882 29.9349 180.697 31.2152C180.104 31.849 179.326 32.3269 178.56 32.6179C177.791 32.9102 177.051 33.0823 176.361 33.2985C175.671 33.5105 175.025 33.7666 174.427 34.1193C173.871 34.4287 173.457 34.9081 173.13 35.5049C172.485 36.7119 172.216 38.1928 171.87 39.6601C171.696 40.3984 171.508 41.1502 171.21 41.8914C170.928 42.624 170.445 43.3872 169.776 43.8794C168.46 44.8687 166.953 45.2258 165.61 45.8176C164.945 46.1106 164.285 46.447 163.851 46.972C163.637 47.233 163.487 47.5388 163.422 47.8731C163.357 48.2302 163.318 48.6001 163.287 48.9699C163.171 50.4543 163.173 51.9701 162.967 53.4687C162.757 54.9268 162.373 56.5577 161.125 57.481C162.326 56.5044 162.624 54.8955 162.77 53.4459C162.909 51.9565 162.841 50.4593 162.892 48.9457C162.908 48.5666 162.93 48.1868 162.984 47.802C163.039 47.3945 163.208 46.9947 163.455 46.664C163.957 45.9954 164.672 45.6035 165.351 45.2592C166.719 44.5842 168.185 44.1248 169.243 43.2264C170.281 42.3701 170.581 40.8849 170.877 39.446C171.175 37.9915 171.369 36.4544 172.089 34.9629C172.448 34.231 173.023 33.5027 173.771 33.051C174.451 32.61 175.198 32.28 175.933 32.0204C176.668 31.7579 177.385 31.5538 178.011 31.2828C178.634 31.0104 179.149 30.6533 179.565 30.1725C179.983 29.6945 180.301 29.1028 180.585 28.4555C180.867 27.8147 181.069 27.1432 181.309 26.4021C181.538 25.6794 181.888 24.7882 182.578 24.0961C183.254 23.4034 184.081 23.0157 184.849 22.739C185.647 22.4616 186.363 22.2824 187.074 22.0747C187.783 21.8677 188.493 21.6615 189.07 21.4026C189.636 21.1572 190.126 20.7802 190.707 20.3094L191.574 19.6002C191.863 19.3627 192.148 19.1237 192.538 18.8576C194.02 17.8725 195.666 17.4365 197.252 17.2096C198.848 16.9806 200.427 16.965 201.984 17.0404C205.11 17.2132 208.113 17.7189 211.155 18.502L210.395 21.1266Z" fill="#EF7F4D"/>
<path d="M207.854 36.9559C206.843 37.542 205.894 38.2077 205.106 38.9773C204.717 39.3643 204.372 39.7768 204.091 40.2121C203.83 40.6068 203.598 41.1915 203.335 41.7676C203.076 42.3395 202.833 42.9227 202.481 43.5536C202.13 44.1938 201.639 44.7863 201.174 45.25C200.704 45.7266 200.238 46.1547 199.773 46.5801L199.078 47.2131C198.878 47.4144 198.652 47.6064 198.472 47.8134C198.079 48.2188 197.781 48.6491 197.592 49.0752C197.407 49.5027 197.353 49.9415 197.398 50.4892C197.516 51.581 197.824 52.9623 197.784 54.2945C197.762 54.9858 197.671 55.6992 197.426 56.3863C197.186 57.0741 196.785 57.6993 196.345 58.2164C195.452 59.2492 194.512 59.9903 193.855 60.9477C192.323 62.706 193.301 65.2466 193.961 67.6109C194.281 68.82 194.683 70.1081 194.415 71.5214C194.081 72.9105 193.183 73.9077 192.396 74.8665C191.612 75.8189 190.715 76.7528 190.485 77.8766C190.362 78.4335 190.57 78.9776 190.82 79.5552C191.063 80.1214 191.34 80.6804 191.616 81.2409C192.166 82.3619 192.732 83.4899 193.123 84.6877C193.505 85.8641 193.74 87.2113 193.203 88.3721C193.686 87.1899 193.393 85.8855 192.968 84.7418C192.53 83.5788 191.923 82.4885 191.324 81.3931C191.023 80.8447 190.721 80.2956 190.446 79.7245C190.179 79.1811 189.875 78.5068 189.989 77.8033C190.216 76.4199 191.135 75.4298 191.858 74.4355C192.599 73.4525 193.362 72.4404 193.552 71.3507C193.725 70.2696 193.356 69.0697 192.989 67.9039C192.614 66.726 192.166 65.534 191.952 64.216C191.85 63.5595 191.808 62.8603 191.945 62.1497C192.01 61.7955 192.121 61.4413 192.285 61.1099C192.451 60.7884 192.604 60.5067 192.795 60.225C193.519 59.0835 194.529 58.2029 195.225 57.3096C195.943 56.4255 196.21 55.429 196.185 54.3002C196.166 53.1209 195.867 52.0554 195.651 50.6741C195.555 49.9821 195.595 49.1378 195.883 48.4045C196.164 47.6747 196.587 47.0573 197.038 46.5438C197.259 46.2714 197.501 46.0466 197.733 45.7955L198.396 45.1369C198.836 44.6995 199.272 44.2621 199.662 43.831C200.06 43.3929 200.353 42.9988 200.586 42.5308C200.825 42.0592 201.046 41.4789 201.277 40.902L201.625 40.0257C201.734 39.7441 201.903 39.3557 202.07 39.0463C202.42 38.4026 202.844 37.8208 203.305 37.2923C204.236 36.2432 205.298 35.3918 206.398 34.6436L207.854 36.9559Z" fill="#EF7F4D"/>
<path d="M167.036 63.3312C168.132 62.425 168.46 60.9747 168.625 59.6368C168.781 58.2684 168.745 56.8864 168.762 55.4951C168.779 54.7917 168.775 54.1131 168.935 53.3699C169.135 52.6074 169.726 52.0341 170.328 51.6493C171.559 50.8726 172.912 50.4871 174.099 49.8512C174.69 49.5382 175.244 49.1691 175.645 48.6904C176.044 48.2189 176.288 47.6008 176.488 46.9692C176.884 45.6903 177.066 44.309 177.419 42.9377C177.769 41.5991 178.29 40.0805 179.626 39.1772C180.856 38.3536 182.295 37.9894 183.558 37.5669C183.935 37.4488 184.286 37.2959 184.609 37.1103C184.304 37.5548 184.037 37.9737 183.812 38.3585C183.799 38.382 183.785 38.4055 183.772 38.4282C182.44 38.8529 181.172 39.1765 180.093 39.8842C179.059 40.5528 178.544 41.8509 178.203 43.1432C177.851 44.4527 177.658 45.8333 177.224 47.2039C176.998 47.8824 176.703 48.578 176.19 49.1606C175.678 49.7346 175.038 50.1229 174.401 50.4409C173.122 51.0746 171.761 51.4288 170.62 52.1102C170.059 52.4495 169.579 52.9061 169.406 53.5029C169.256 54.1138 169.225 54.8322 169.177 55.5101C169.096 56.8878 169.07 58.2861 168.848 59.6681C168.631 61.0188 168.194 62.4969 167.036 63.3312ZM187.015 34.0539C187.356 33.2154 187.62 32.322 188.038 31.3938C188.363 30.7117 188.936 30.0993 189.586 29.718C190.237 29.3318 190.929 29.0822 191.619 28.9029C192.257 28.7251 192.907 28.5729 193.54 28.405C192.87 28.8233 192.215 29.282 191.581 29.7671C190.385 30.1263 189.288 30.696 188.808 31.7765C188.713 31.9884 188.624 32.2103 188.539 32.4394C188 32.9749 187.491 33.5176 187.015 34.0539ZM197.205 26.6276C197.747 26.2129 198.292 25.7726 198.87 25.3793C200.059 24.5734 201.411 24.035 202.798 23.7526C203.662 23.5713 204.539 23.4916 205.414 23.4916C205.946 23.4916 206.476 23.5208 207.001 23.5741C208.392 23.7164 209.767 24.003 211.069 24.4902C209.547 24.0905 207.973 23.87 206.412 23.87C205.229 23.87 204.054 23.9966 202.914 24.2676C201.597 24.5905 200.347 25.151 199.27 25.9448C199.174 26.0138 199.08 26.0842 198.987 26.156C198.39 26.267 197.795 26.4263 197.205 26.6276Z" fill="#C96E40"/>
<path d="M183.772 38.4282C183.785 38.4055 183.799 38.382 183.813 38.3585C184.037 37.9737 184.304 37.5548 184.609 37.1103C185.386 36.6629 186.005 36.0227 186.453 35.2069C186.675 34.8363 186.854 34.4515 187.015 34.0539C187.491 33.5176 188 32.9749 188.539 32.4393C188.157 33.4629 187.83 34.6244 187.236 35.6465C186.881 36.2859 186.416 36.9004 185.82 37.377C185.228 37.8599 184.527 38.1786 183.85 38.4041C183.824 38.4119 183.798 38.4204 183.772 38.4282ZM191.581 29.7671C192.215 29.282 192.87 28.8233 193.541 28.405C194.235 28.2201 194.91 28.0153 195.528 27.7336C196.105 27.4427 196.654 27.0486 197.205 26.6276C197.795 26.4263 198.39 26.267 198.987 26.156C198.002 26.9135 197.088 27.8083 195.87 28.4377C194.524 29.0608 193.158 29.3083 191.836 29.6938C191.75 29.7173 191.666 29.7415 191.581 29.7671Z" fill="#C96E40"/>
<path d="M168.468 66.8151C169.328 66.0746 169.719 64.9821 169.909 63.9053C170.107 62.8184 170.126 61.7053 170.13 60.5929C170.147 59.479 170.116 58.3616 170.251 57.2137C170.327 56.6013 170.65 55.9974 171.099 55.5827C171.541 55.151 172.062 54.8636 172.573 54.6069C173.602 54.0912 174.656 53.7263 175.607 53.2249C176.078 52.9724 176.508 52.6751 176.872 52.328C177.218 51.9745 177.465 51.5328 177.672 51.0541C178.444 49.0732 178.469 46.753 179.443 44.5758C179.711 44.041 180.044 43.5182 180.501 43.0836C180.982 42.6561 181.494 42.3517 182.024 42.112C182.284 41.9861 182.55 41.8766 182.817 41.7777C182.804 42.085 182.809 42.3915 182.83 42.6974C182.684 42.7593 182.539 42.8247 182.398 42.8958C181.912 43.1206 181.463 43.4094 181.115 43.7273C180.763 44.0701 180.491 44.5019 180.265 44.9677C179.364 46.8811 179.3 49.1813 178.438 51.3713C178.198 51.914 177.888 52.4574 177.442 52.9005C176.994 53.3223 176.491 53.6523 175.974 53.9212C174.943 54.4582 173.863 54.7932 172.876 55.2385C171.887 55.6638 170.971 56.2933 170.82 57.299C170.651 58.3666 170.641 59.4911 170.576 60.6078C170.503 61.7252 170.416 62.8554 170.144 63.9551C170.023 64.5077 169.818 65.0426 169.565 65.5476C169.291 66.0455 168.916 66.4808 168.468 66.8151Z" fill="#A35F3C"/>
<path d="M182.829 42.6975C182.809 42.3917 182.804 42.0851 182.817 41.7778C183.634 41.4748 184.465 41.2714 185.221 40.9983C186.238 40.6569 187.065 40.0416 187.657 39.171C188.233 38.2876 188.657 37.2798 189.025 36.2328C189.218 35.7079 189.413 35.1581 189.727 34.6417C190.037 34.1232 190.491 33.6815 190.998 33.3721C192.015 32.7412 193.165 32.5264 194.235 32.2682C195.316 32.0064 196.422 31.8009 197.393 31.2966C198.352 30.7653 199.223 30.0384 200.142 29.4075C199.278 30.118 198.479 30.8983 197.511 31.505C196.522 32.0961 195.411 32.3692 194.348 32.6985C193.269 33.0058 192.183 33.2583 191.31 33.8529C190.406 34.4148 190.005 35.3906 189.685 36.4583C189.355 37.528 188.953 38.6177 188.308 39.6113C187.97 40.1 187.569 40.5594 187.086 40.9314C186.603 41.3041 186.054 41.5666 185.511 41.7729C184.58 42.1178 183.668 42.3433 182.829 42.6975Z" fill="#B86D46"/>
<path d="M200.364 182.929C199.273 182.92 198.182 182.881 197.096 182.844C195.413 182.658 193.74 182.481 192.083 182.16C193.745 181.781 195.39 181.545 197.026 181.299C198.657 180.995 200.28 180.725 201.893 180.467C205.101 179.827 208.292 179.234 211.394 178.353C214.5 177.505 217.573 176.541 220.525 175.251C221.978 174.571 223.461 173.911 224.859 173.086C226.292 172.303 227.663 171.413 228.976 170.351C228.192 171.867 227.014 173.151 225.772 174.324C225.154 174.927 224.462 175.426 223.794 175.973C223.112 176.498 222.375 176.933 221.661 177.419C220.62 178.058 219.544 178.631 218.44 179.146L201.835 182.077C201.206 182.077 200.657 182.42 200.364 182.929Z" fill="#1DB38E"/>
<path d="M205.889 114.216C191.308 114.216 191.664 110.336 191.664 110.336C193.941 111.8 197.772 112.45 201.778 112.45C208.364 112.45 215.426 110.695 216.848 107.914C219.134 103.442 216.93 82.9126 202.221 81.2091C197.165 80.6237 193.357 79.3982 190.49 77.8547C190.652 77.0922 191.121 76.4165 191.649 75.7629C192.329 76.1228 193.056 76.4407 193.832 76.7096C193.87 76.7231 193.907 76.7359 193.945 76.7487C193.986 76.7629 194.028 76.7772 194.07 76.7914C194.074 76.7928 194.077 76.7942 194.082 76.7956C198.183 78.1919 201.481 78.662 204.061 78.6634C204.064 78.6634 204.068 78.6634 204.071 78.6634C204.072 78.6634 204.072 78.6634 204.073 78.6634C206.357 78.6634 208.077 78.295 209.29 77.8789C209.294 77.8782 209.298 77.8768 209.301 77.8753C209.304 77.8746 209.307 77.8732 209.309 77.8725C209.333 77.8647 209.356 77.8561 209.38 77.8483C214.679 83.0086 221.495 89.3218 221.497 100.157C221.498 103.474 220.86 107.214 219.344 111.475C219.344 111.475 219.936 112.195 220.883 113.461C217.923 113.916 213.642 114.116 207.138 114.208C206.711 114.213 206.293 114.216 205.889 114.216ZM190.028 77.5994C180.888 72.3879 181.846 63.9131 181.846 63.9131C182.183 63.7766 182.529 63.6308 182.866 63.4665C184.012 67.781 186.344 72.6753 191.094 75.4542C190.632 76.0901 190.208 76.7743 190.028 77.5994Z" fill="#2BB191"/>
<path d="M204.071 78.6635C204.072 78.6635 204.072 78.6635 204.073 78.6635C204.072 78.6635 204.072 78.6635 204.071 78.6635ZM204.061 78.6635C201.481 78.662 198.183 78.1919 194.082 76.7957C198.182 78.1919 201.482 78.662 204.061 78.6635ZM209.29 77.8789C209.294 77.8782 209.298 77.8768 209.301 77.8754C209.298 77.8768 209.294 77.8782 209.29 77.8789ZM209.309 77.8725C209.333 77.8647 209.356 77.8562 209.38 77.8483C209.356 77.8562 209.333 77.8647 209.309 77.8725ZM194.07 76.7914C194.028 76.7772 193.986 76.7629 193.945 76.7487C193.986 76.7629 194.028 76.7772 194.07 76.7914Z" fill="#F08352"/>
<path d="M190.49 77.8546C190.333 77.7707 190.179 77.6846 190.028 77.5993C190.208 76.7742 190.632 76.09 191.094 75.4541C191.277 75.5601 191.461 75.6632 191.649 75.7628C191.121 76.4164 190.652 77.0921 190.49 77.8546Z" fill="#4C2C19"/>
<path d="M230.628 228.428C212.859 228.428 199.061 226.547 183.939 223.222L184 222.806C193.342 223.4 213.682 224.55 231.467 224.55C244.598 224.55 256.335 223.923 261.222 221.983C270.376 218.348 275.822 210.77 278.236 206.599C278.218 206.772 278.191 206.936 278.163 207.109C275.431 224.415 268.227 227.374 239.381 228.285C236.351 228.381 233.439 228.428 230.628 228.428Z" fill="#EEA86E"/>
<path d="M183.939 223.222C183.061 223.029 182.178 222.832 181.29 222.629C182.042 222.679 182.952 222.739 184 222.805L183.939 223.222Z" fill="#EEA86E"/>
<path d="M198.667 40.7471C199.696 40.4085 200.721 40.0863 201.736 39.7541C201.694 39.8509 201.657 39.9433 201.625 40.0259L201.448 40.4725C200.529 40.6333 199.602 40.7371 198.667 40.7471ZM204.416 39.7527C204.624 39.4846 204.856 39.2257 205.106 38.9774C205.38 38.71 205.674 38.4539 205.983 38.2107C206.952 37.8145 207.893 37.3607 208.784 36.8315C209.8 36.2198 210.772 35.5214 211.53 34.537C211.104 35.717 210.177 36.6708 209.181 37.4212C208.178 38.1894 207.051 38.7584 205.898 39.2242C205.409 39.4163 204.915 39.5934 204.416 39.7527Z" fill="#A35F3C"/>
<path d="M201.448 40.4727L201.625 40.026C201.657 39.9435 201.694 39.851 201.736 39.7543C203.031 39.3296 204.309 38.8894 205.558 38.3801C205.7 38.3246 205.842 38.2684 205.983 38.2108C205.674 38.4541 205.38 38.7101 205.106 38.9776C204.856 39.2258 204.624 39.4847 204.416 39.7529C203.734 39.9712 203.042 40.1562 202.342 40.2998C202.044 40.3624 201.746 40.4207 201.448 40.4727Z" fill="#A35F3C"/>
<path d="M190.768 38.4719C192.232 38.0252 193.681 37.5821 195.114 37.0977C196.542 36.6055 197.959 36.0963 199.331 35.4945C200.713 34.9177 202.052 34.2456 203.297 33.4361C204.537 32.6225 205.693 31.6629 206.567 30.3969C206.028 31.8521 204.916 33.04 203.707 34.0044C202.494 34.9931 201.105 35.7179 199.69 36.331C198.267 36.9306 196.805 37.4285 195.307 37.7678C193.813 38.1191 192.301 38.3951 190.768 38.4719Z" fill="#A35F3C"/>
<path d="M172.65 62.8911C174.096 62.3861 175.526 61.8847 176.937 61.3427C178.344 60.7922 179.74 60.2274 181.085 59.5702C182.444 58.9379 183.754 58.2117 184.966 57.3525C186.171 56.4904 187.288 55.4847 188.11 54.1845C187.63 55.6596 186.567 56.8916 185.398 57.9037C184.226 58.9414 182.868 59.7217 181.479 60.391C180.081 61.0482 178.641 61.6044 177.157 62.0042C175.679 62.4153 174.179 62.7524 172.65 62.8911Z" fill="#A35F3C"/>
<path d="M201.835 182.077L246.037 174.274L243.245 179.356L241.451 183.309H201.549L201.835 182.077Z" fill="#D1C9CA"/>
<path d="M234.419 180.933H215.046L235.435 177.279L234.419 180.933Z" fill="#E2DDDE"/>
<path d="M201.835 182.077H247.646C248.11 182.077 248.485 182.452 248.485 182.916V183.77C248.485 184.234 248.11 184.609 247.646 184.609H200.98C200.517 184.609 200.141 184.234 200.141 183.77C200.141 182.835 200.899 182.077 201.835 182.077Z" fill="#B3A7AE"/>
<path d="M233.398 184.609L243.925 146.732C244.862 143.369 247.45 141.111 250.364 141.111H296.544C297.699 141.111 298.747 141.766 299.42 142.911C300.092 144.05 300.265 145.468 299.895 146.798L290.272 181.412C289.741 183.323 288.268 184.609 286.611 184.609H233.398Z" fill="#B3A7AE"/>
<path d="M298.884 146.381L289.39 180.532C288.929 182.192 287.65 183.309 286.211 183.309H234.886L244.934 147.149C245.725 144.317 247.905 142.411 250.364 142.411H296.546C298.236 142.411 299.426 144.432 298.884 146.381Z" fill="#D1C9CA"/>
<path d="M286.058 182.077H236.459C236.459 182.077 251.523 174.787 266.835 166.438C267.315 167.608 268.303 168.41 269.444 168.41C271.056 168.41 272.363 166.807 272.363 164.829C272.363 164.358 272.289 163.91 272.155 163.498C284.776 156.417 296.381 149.104 298.433 145.148L288.843 179.644C288.439 181.098 287.318 182.077 286.058 182.077Z" fill="#C3B9B9"/>
<path d="M266.834 166.438C266.636 165.954 266.524 165.407 266.524 164.829C266.524 162.85 267.831 161.247 269.443 161.247C270.672 161.247 271.724 162.179 272.155 163.498C270.392 164.486 268.613 165.469 266.834 166.438Z" fill="#E2DDDE"/>
<path d="M269.443 168.411C268.303 168.411 267.315 167.608 266.834 166.438C268.613 165.469 270.392 164.487 272.155 163.498C272.288 163.91 272.362 164.359 272.362 164.829C272.362 166.807 271.056 168.411 269.443 168.411Z" fill="#DAD4D4"/>
<path d="M245.326 154.613C245.531 152.817 246.367 151.124 247.491 149.684C248.612 148.229 250.07 147.006 251.714 146.147C252.551 145.76 253.387 145.337 254.285 145.126C254.731 145.013 255.169 144.869 255.62 144.792C256.072 144.724 256.526 144.671 256.978 144.626C257.301 144.576 257.625 144.56 257.95 144.56C258.53 144.56 259.111 144.613 259.68 144.624C260.572 144.745 261.454 144.924 262.306 145.174C261.432 145.447 260.583 145.577 259.752 145.778L258.522 146.101C258.114 146.198 257.709 146.282 257.319 146.432C255.725 146.883 254.244 147.526 252.81 148.23C249.978 149.73 247.514 151.822 245.326 154.613Z" fill="#DBD6D7"/>
<path d="M212.93 187.051C208.978 187.504 203.889 187.167 201.182 182.689C197.943 177.332 196.592 174.187 194.98 172.27C194.009 171.123 191.67 169.669 189.951 168.685C188.197 168.106 166.36 160.791 152.888 151.036C145.707 145.821 140.966 140.039 143.063 134.484C149.258 118.074 172.613 137.81 172.613 137.81C172.67 137.894 172.749 138.005 172.847 138.125C172.847 138.125 172.852 138.132 172.858 138.139C173.762 139.247 176.212 141.574 177.651 142.904C184.616 149.352 190.058 156.266 194.391 159.623C196.637 161.364 200.312 163.061 203.066 165.967C203.066 165.967 209.647 173.549 211.244 176.442C212.841 179.336 209.922 177.112 209.029 176.277C208.667 175.949 207.19 174.498 205.541 172.881C205.639 173.189 205.737 173.497 205.833 173.771C205.972 174.187 206.121 174.571 206.287 174.905C207.392 177.095 209.203 178.917 213.146 182.164C215.691 184.261 217.654 183.287 217.259 184.561C217.045 185.264 215.297 186.78 212.93 187.051Z" fill="#F0B482"/>
<path d="M108.27 234.835L83.7383 234.497L86.9518 221.843L101.773 215.337L101.787 215.279L110.428 214.042L112.305 213.685C112.441 214.064 112.606 214.44 112.801 214.814L108.27 234.835ZM58.3414 234.147L51.6895 234.055L72.7577 224.874L71.9177 228.182L58.3414 234.147Z" fill="#7563C0"/>
<path d="M83.7385 234.497L58.3416 234.147L71.9179 228.182L72.7579 224.874L91.3483 216.773L101.788 215.279L101.773 215.337L86.952 221.843L83.7385 234.497Z" fill="#554BA9"/>
<path d="M112.801 214.814C112.606 214.44 112.441 214.064 112.305 213.685L113.09 213.536L112.801 214.814Z" fill="#6E57C8"/>
<path d="M51.5571 220.84L51.6895 234.055L107.194 233.499L107.062 220.284L51.5571 220.84Z" fill="#C15997"/>
<path d="M71.5438 222.515L71.6384 231.98L104.318 231.652L104.224 222.188L71.5438 222.515Z" fill="white"/>
<path d="M92.4522 223.809L92.5169 230.268L102.506 230.168L102.442 223.709L92.4522 223.809Z" fill="#C15997"/>
<path d="M61.3277 223.377C59.1333 223.399 57.3721 225.196 57.3941 227.39C57.4161 229.584 59.2128 231.345 61.4073 231.323C63.6017 231.302 65.3628 229.504 65.3408 227.31C65.3189 225.116 63.5221 223.355 61.3277 223.377Z" fill="white"/>
<path d="M61.3392 224.54C59.7875 224.556 58.5422 225.826 58.5578 227.378C58.5733 228.93 59.8438 230.175 61.3955 230.159C62.9472 230.144 64.1924 228.873 64.1769 227.322C64.1614 225.77 62.8909 224.525 61.3392 224.54Z" fill="#C15997"/>
<path d="M107.062 220.284L109.082 207.057L58.5276 208.279L51.5571 220.84L107.062 220.284Z" fill="#C05D30"/>
<path d="M107.194 233.499L110.428 214.042L109.082 207.056L107.062 220.284L107.194 233.499Z" fill="#C2C5B7"/>
<path d="M58.2854 206.547L58.1675 219.762L113.672 220.258L113.79 207.043L58.2854 206.547Z" fill="#ECB975"/>
<path d="M78.2366 208.601L78.152 218.066L110.832 218.357L110.917 208.892L78.2366 208.601Z" fill="white"/>
<path d="M99.1168 210.29L99.0591 216.749L109.049 216.838L109.107 210.38L99.1168 210.29Z" fill="#E2A553"/>
<path d="M68.006 209.269C65.8115 209.249 64.0167 211.012 63.9972 213.206C63.9775 215.4 65.7406 217.196 67.9351 217.215C70.1295 217.235 71.9243 215.471 71.9442 213.277C71.9634 211.083 70.2004 209.288 68.006 209.269Z" fill="white"/>
<path d="M67.9956 210.432C66.4439 210.418 65.1748 211.665 65.1609 213.217C65.147 214.768 66.3937 216.038 67.9454 216.051C69.4971 216.065 70.7662 214.819 70.7801 213.267C70.7939 211.715 69.5473 210.446 67.9956 210.432Z" fill="#E2A553"/>
<path d="M113.79 207.043L116.061 193.856L65.4924 194.121L58.2853 206.547L113.79 207.043Z" fill="#FABA66"/>
<path d="M113.672 220.258L117.275 200.865L116.061 193.856L113.79 207.043L113.672 220.258Z" fill="#C2C5B7"/>
<path d="M300.438 239.858L300.601 239.149L300.753 238.495L300.906 237.816L273.971 231.628L273.865 232.088L273.647 233.046L273.508 233.681L300.438 239.858Z" fill="#974925"/>
<path d="M300.908 237.808L304.227 239.651L300.436 239.861L300.908 237.808Z" fill="#974925"/>
<path d="M300.437 239.858L279.573 234.388L300.601 239.149L300.437 239.858Z" fill="#FD9566"/>
<path d="M273.976 233.788L273.508 233.681L273.647 233.046L274.125 233.154L273.976 233.788Z" fill="#FD9566"/>
<path d="M300.439 239.858L300.437 239.858L300.6 239.149H300.601L300.439 239.858Z" fill="#FD9566"/>
<path d="M300.75 238.494L273.865 232.087L273.971 231.628L300.906 237.815L300.892 237.879L300.75 238.494Z" fill="#BC7A3A"/>
<path d="M300.753 238.495L300.75 238.494L300.892 237.879L300.753 238.495Z" fill="#BC7A3A"/>
<path d="M300.437 239.858L273.642 235.21L273.976 233.788L300.437 239.858Z" fill="#7563C0"/>
<path d="M279.573 234.388L274.125 233.154L274.168 232.97L279.573 234.388Z" fill="#672D1E"/>
<path d="M300.438 239.858L300.437 239.858L300.438 239.858Z" fill="#672D1E"/>
<path d="M300.437 239.858L273.976 233.788L274.125 233.154L279.573 234.388L300.437 239.858Z" fill="#92563B"/>
<path d="M300.438 239.858L300.437 239.858L300.438 239.858Z" fill="#92563B"/>
<path d="M300.195 236.801L300.481 236.133L300.749 235.515L301.02 234.874L275.624 223.975L275.437 224.408L275.052 225.312L274.802 225.912L300.195 236.801Z" fill="#974925"/>
<path d="M301.023 234.868L303.96 237.273L300.193 236.803L301.023 234.868Z" fill="#974925"/>
<path d="M300.194 236.8L280.646 227.692L300.481 236.133L300.194 236.8Z" fill="#FD9566"/>
<path d="M275.243 226.101L274.802 225.912L275.052 225.312L275.503 225.503L275.243 226.101Z" fill="#FD9566"/>
<path d="M300.195 236.801L300.194 236.801L300.481 236.133H300.481L300.195 236.801Z" fill="#FD9566"/>
<path d="M300.746 235.514L275.437 224.408L275.624 223.975L301.02 234.874L301.003 234.913L300.746 235.514Z" fill="#BC7A3A"/>
<path d="M300.749 235.515L300.746 235.514L301.003 234.913L300.749 235.515Z" fill="#BC7A3A"/>
<path d="M300.194 236.8L274.661 227.44L275.243 226.101L300.194 236.8Z" fill="#7563C0"/>
<path d="M280.646 227.692L275.503 225.503L275.578 225.331L280.646 227.692Z" fill="#672D1E"/>
<path d="M300.195 236.801L300.194 236.801L300.195 236.801Z" fill="#672D1E"/>
<path d="M300.194 236.8L275.243 226.101L275.503 225.503L280.646 227.692L300.194 236.8Z" fill="#92563B"/>
<path d="M300.195 236.801L300.194 236.801L300.195 236.801Z" fill="#92563B"/>
<path d="M157.654 244.891C154.07 244.891 144.326 244.18 133.147 237.369C119.017 228.762 118.042 228.353 118.042 228.353L121.101 225.815C122.968 227.367 125.611 229.455 128.801 231.678C129.269 232.016 129.762 232.354 130.282 232.692C138.07 237.962 148.632 243.646 159.094 244.824L159.118 244.841C159.118 244.841 158.601 244.891 157.654 244.891Z" fill="#7563C0"/>
<path d="M174.98 225.051C169.861 235.836 159.128 244.828 159.128 244.828C148.655 243.658 138.079 237.967 130.282 232.692C129.762 232.354 129.269 232.016 128.801 231.678C122.278 227.13 118.042 223.154 118.042 223.154C121.993 221.725 125.241 219.724 127.891 217.567C129.165 216.554 130.282 215.514 131.244 214.5C131.27 214.5 131.27 214.5 131.27 214.5C135.687 209.927 137.532 205.639 137.532 205.639C139.663 207.198 142.86 209.121 146.524 211.122C158.348 217.593 174.98 225.051 174.98 225.051Z" fill="white"/>
<path d="M128.801 231.679C122.278 227.131 118.042 223.155 118.042 223.155C121.993 221.725 125.241 219.724 127.891 217.568C125.111 222.505 120.485 223.648 120.485 223.648L128.801 231.679Z" fill="#F3F5F6"/>
<path d="M131.27 214.501C135.687 209.927 137.532 205.639 137.532 205.639C139.663 207.198 142.86 209.121 146.524 211.122C143.25 211.122 138.026 208.862 138.026 208.862C136.857 211.461 133.583 213.383 131.27 214.501Z" fill="#F3F5F6"/>
<path d="M158.323 240.581C158.109 240.581 157.9 240.476 157.777 240.283C157.582 239.981 157.669 239.579 157.971 239.385C160.913 237.492 168.36 226.715 168.435 226.606C168.64 226.31 169.044 226.238 169.338 226.439C169.634 226.644 169.709 227.048 169.505 227.344C169.193 227.796 161.833 238.445 158.674 240.479C158.565 240.548 158.444 240.581 158.323 240.581Z" fill="#E6DDD9"/>
<path d="M155.147 239.064C154.933 239.064 154.724 238.96 154.601 238.766C154.406 238.465 154.493 238.063 154.795 237.868C157.737 235.975 165.184 225.198 165.259 225.089C165.464 224.794 165.868 224.721 166.163 224.923C166.458 225.127 166.533 225.531 166.329 225.828C166.017 226.279 158.658 236.928 155.498 238.962C155.389 239.032 155.268 239.064 155.147 239.064Z" fill="#E6DDD9"/>
<path d="M152.003 238.053C151.79 238.053 151.581 237.948 151.457 237.755C151.263 237.453 151.349 237.052 151.651 236.857C154.593 234.965 162.04 224.187 162.115 224.079C162.32 223.783 162.724 223.712 163.018 223.912C163.314 224.116 163.389 224.52 163.186 224.816C162.873 225.268 155.514 235.917 152.354 237.95C152.246 238.02 152.124 238.053 152.003 238.053Z" fill="#E6DDD9"/>
<path d="M148.471 236.673C148.257 236.673 148.048 236.569 147.924 236.375C147.73 236.074 147.817 235.672 148.119 235.478C151.06 233.584 158.508 222.807 158.583 222.698C158.788 222.402 159.192 222.331 159.487 222.532C159.782 222.737 159.857 223.141 159.653 223.437C159.341 223.888 151.981 234.537 148.822 236.571C148.713 236.641 148.592 236.673 148.471 236.673Z" fill="#E6DDD9"/>
<path d="M145.799 235.221C145.586 235.221 145.377 235.117 145.252 234.923C145.058 234.622 145.145 234.22 145.447 234.025C148.388 232.132 155.837 221.355 155.911 221.246C156.116 220.951 156.52 220.879 156.815 221.081C157.111 221.284 157.185 221.688 156.981 221.985C156.67 222.436 149.309 233.085 146.151 235.119C146.041 235.189 145.92 235.221 145.799 235.221Z" fill="#E6DDD9"/>
</svg>
