<svg width="577" height="314" viewBox="0 0 577 314" fill="none" xmlns="http://www.w3.org/2000/svg">
<path d="M562.497 313.076H0.758072C0.758072 313.076 0.208631 302.399 0.0437988 292.804C-0.755636 244.361 9.30186 191.797 37.359 155.566C59.2926 127.238 93.8387 106.491 148.049 107.097C158.945 107.216 169.073 106.897 178.527 106.192H178.54C181.414 105.98 184.224 105.727 186.977 105.443L187.004 105.44C249.624 98.9507 281 74.7524 309.524 51.1519C323.31 39.7435 336.183 28.7094 351.556 19.7214C369.391 9.30257 390.498 1.7366 419.665 0.105581C434.678 -0.738952 448.961 3.45759 460.826 13.6123C482.694 32.3342 493.562 68.9596 487.872 114.683C484.021 145.65 492.721 162.439 507.619 173.415C548.86 203.803 603.452 200.486 562.497 313.076Z" fill="#F9F7FF"/>
<path d="M190.291 105.411V308.264V312.398H180.739V308.264V106.163L190.291 105.411Z" fill="#DDC7B6"/>
<path d="M93.5992 267.793C93.5992 267.793 100.459 259.788 94.0226 254.702C94.0226 254.702 89.3209 251.855 85.4864 252.084C85.4864 252.084 90.9191 261.198 89.1614 262.103C87.4037 263.008 83.8389 251.513 83.8389 251.513C83.8389 251.513 73.1389 250.474 69.696 252.131C69.696 252.131 78.8443 259.62 76.9154 260.063C74.9895 260.51 65.1103 253.161 65.1103 253.161C65.1103 253.161 55.1529 254.855 55.6837 260.934C56.2145 267.01 59.6458 268.887 61.154 268.727C62.6623 268.565 71.4857 265.196 71.6771 266.432C71.8685 267.668 66.5577 271.707 62.8392 271.899C62.8392 271.899 69.8614 279.643 74.5254 277.408C79.1894 275.174 79.5897 271.629 82.4989 270.3C85.4081 268.971 87.891 268.974 86.6901 270.329C85.4893 271.684 80.2249 273.001 78.5629 275.946C76.9009 278.888 75.4072 280.876 80.2336 280.147C85.0601 279.422 92.9088 275.888 93.254 271.84C93.5992 267.793 93.5992 267.793 93.5992 267.793Z" fill="#31C5A1"/>
<path d="M60.5765 261.099C60.5765 261.099 87.6238 260.058 93.5989 267.796C93.5989 267.796 94.9186 271.753 98.9851 275.357L99.6174 277.083C99.6174 277.083 94.9302 272.139 93.2537 271.841C93.2537 271.841 95.8758 262.254 60.5765 261.099Z" fill="#31C5A1"/>
<path d="M98.9853 275.354C98.9853 275.354 104.792 279.648 105.195 287.323L104.142 287.418C104.142 287.418 102.289 279.483 98.936 276.381C95.583 273.277 98.9853 275.354 98.9853 275.354Z" fill="#31C5A1"/>
<path d="M117.583 257.725C117.583 257.725 106.671 251.612 111.764 243.316C111.764 243.316 115.84 238.221 120.202 236.913C120.202 236.913 117.873 249.285 120.202 249.575C122.531 249.865 121.803 235.601 121.803 235.601C121.803 235.601 133.298 230.071 137.808 230.507C137.808 230.507 130.679 242.588 133.008 242.295C135.337 242.005 143.339 229.778 143.339 229.778C143.339 229.778 155.124 227.596 157.015 234.58C158.906 241.567 155.852 245.06 154.106 245.495C152.36 245.931 141.155 245.786 141.448 247.242C141.738 248.699 149.306 251.026 153.526 249.717C153.526 249.717 148.871 261.216 142.759 260.632C136.648 260.049 134.757 256.266 130.975 255.975C127.192 255.685 124.428 256.704 126.319 257.722C128.21 258.741 134.612 258.056 137.669 260.656C140.723 263.255 143.197 264.854 137.524 266.02C131.85 267.184 121.664 266.456 119.628 262.092C117.583 257.725 117.583 257.725 117.583 257.725Z" fill="#31C5A1"/>
<path d="M151.629 236.768C151.629 236.768 121.075 246.665 117.583 257.728C117.583 257.728 117.728 262.678 114.674 268.353V270.535C114.674 270.535 117.876 263.113 119.622 262.095C119.619 262.092 112.783 252.485 151.629 236.768Z" fill="#31C5A1"/>
<path d="M114.674 268.35C114.674 268.35 109.961 275.508 112.649 284.221L113.862 283.896C113.862 283.896 112.684 274.298 115.15 269.473C117.615 264.645 114.674 268.35 114.674 268.35Z" fill="#31C5A1"/>
<path d="M100.223 249.296C100.223 249.296 114.607 241.239 107.895 230.303C107.895 230.303 102.524 223.589 96.7718 221.863C96.7718 221.863 99.8406 238.172 96.7718 238.555C93.7031 238.938 94.6632 220.137 94.6632 220.137C94.6632 220.137 79.5109 212.845 73.5648 213.423C73.5648 213.423 82.9625 229.346 79.8938 228.963C76.825 228.58 66.2759 212.462 66.2759 212.462C66.2759 212.462 50.7407 209.584 48.2463 218.793C45.7518 228.002 49.7806 232.607 52.0837 233.182C54.3867 233.756 69.1532 233.565 68.7703 235.485C68.3874 237.403 58.4126 240.473 52.8523 238.747C52.8523 238.747 58.9898 253.904 67.0445 253.135C75.0992 252.366 77.5937 247.378 82.5796 246.995C87.5656 246.612 91.2116 247.956 88.7171 249.296C86.2227 250.64 77.7851 249.737 73.7563 253.161C69.7275 256.588 66.4673 258.697 73.9477 260.232C81.4281 261.767 94.8546 260.806 97.5376 255.053C100.223 249.296 100.223 249.296 100.223 249.296Z" fill="#31C5A1"/>
<path d="M55.3412 221.668C55.3412 221.668 95.6177 234.713 100.221 249.296C100.221 249.296 100.029 255.819 104.058 263.301V266.18C104.058 266.18 99.838 256.396 97.5379 255.053C97.5379 255.05 106.553 242.388 55.3412 221.668Z" fill="#31C5A1"/>
<path d="M104.058 263.302C104.058 263.302 110.268 272.737 106.73 284.221L105.131 283.792C105.131 283.792 106.683 271.141 103.432 264.778C100.183 258.415 104.058 263.302 104.058 263.302Z" fill="#31C5A1"/>
<path d="M100.708 309.127C85.1464 309.127 72.5292 296.509 72.5292 280.939H128.883C128.883 296.509 116.269 309.127 100.708 309.127Z" fill="#FF9362"/>
<path d="M108.046 308.912C106.901 309.055 105.732 309.127 104.545 309.127C88.9842 309.127 76.3698 296.506 76.3698 280.939H83.3688C83.3717 295.322 94.1384 307.189 108.046 308.912Z" fill="#FFB973"/>
<path d="M72.1406 310.563H129.275C129.275 308.643 127.717 307.084 125.797 307.084H75.6183C73.6952 307.084 72.1406 308.643 72.1406 310.563Z" fill="#FF9362"/>
<path d="M71.8882 281.806H129.811V280.941H71.8882V281.806Z" fill="#D86713"/>
<path d="M150.092 42.7412H459.93C464.449 42.7412 468.113 46.4058 468.113 50.9262V228.771C468.113 233.292 464.449 236.956 459.93 236.956H150.092C145.573 236.956 141.909 233.292 141.909 228.771V50.9262C141.909 46.4058 145.573 42.7412 150.092 42.7412Z" fill="white"/>
<path d="M307.282 236.956H302.743V310.186H307.282V236.956Z" fill="#1C468A"/>
<path d="M450.895 47.1226H159.13C157.343 47.1226 155.896 45.6748 155.896 43.8875C155.896 42.1002 157.343 40.6523 159.13 40.6523H450.895C452.682 40.6523 454.129 42.1002 454.129 43.8875C454.129 45.6748 452.682 47.1226 450.895 47.1226Z" fill="#1C468A"/>
<path d="M352.791 306.855H257.234C256.169 306.855 255.305 307.72 255.305 308.785C255.305 309.85 256.169 310.714 257.234 310.714H352.791C353.855 310.714 354.72 309.85 354.72 308.785C354.72 307.72 353.855 306.855 352.791 306.855Z" fill="#233862"/>
<path d="M301.975 140.646H371.844C371.844 179.244 340.564 210.538 301.975 210.538C263.389 210.538 232.105 179.248 232.105 140.646C232.105 102.043 263.385 70.7529 301.975 70.7529V140.646Z" fill="#EBEBEB"/>
<path d="M301.974 140.646V70.7529C340.56 70.7529 371.844 102.043 371.844 140.646H301.974Z" fill="#582EFF"/>
<path d="M134.98 282.843L138.771 298.807L144.444 298.772L144.653 282.843H134.98Z" fill="#B07053"/>
<path d="M182.716 283.525L193.495 298.807L197.698 293.41L191.209 281.424L182.716 283.525Z" fill="#B07053"/>
<path d="M154.689 73.0907C152.731 71.9765 150.382 71.8547 148.74 71.9533C149.163 71.5181 149.996 71.3585 149.996 71.3585C148.978 71.2077 146.704 72.2174 146.704 72.2174C132.541 66.7568 130.313 87.6212 130.612 92.4666C130.908 97.3121 125.852 98.8963 118.482 102.715C104.42 110 103.187 119.758 103.187 119.758C103.298 119.822 103.411 119.897 103.533 119.981C104.229 118.8 105.667 116.578 106.877 116.244C106.83 116.351 105.447 119.302 104.928 120.991C109.075 124.148 116.834 131.14 122.244 136.102C122.221 135.133 122.258 133.757 122.612 133.029L123.279 137.053C126.174 139.714 128.17 141.585 128.17 141.585C127.813 137.668 145.877 116.998 155.304 110.81C157.598 107.429 158.413 101.461 158.474 100.991C158.077 105.723 157.268 108.378 156.545 109.875C164.53 102.526 159.884 76.0444 154.689 73.0907Z" fill="#163560"/>
<path d="M154.747 111.117C154.794 111.137 150.196 113.525 146.739 112.579C143.485 111.692 141.359 107.473 141.405 107.464C142.783 107.191 143.18 105.297 143.151 97.1582L143.775 97.2801L154.248 99.3546C154.248 99.3546 154.011 102.651 154.002 105.758C153.993 108.364 154.15 110.839 154.747 111.117Z" fill="#B07053"/>
<path d="M154.245 99.3548C154.245 99.3548 154.007 102.651 153.999 105.758C148.137 105.593 145.042 100.246 143.771 97.2803L154.245 99.3548Z" fill="#7C4A33"/>
<path d="M142.689 96.1398C142.689 96.1398 139.617 91.2856 138.881 87.1336C138.356 84.1712 139.864 73.1863 150.898 74.7676C150.898 74.7676 154.103 75.0839 157.113 77.1178C159.509 78.7368 162.967 82.2302 159.1 91.8166L158.097 95.0546L142.689 96.1398Z" fill="#163560"/>
<path d="M195.986 289.22L190.435 289.388L184.425 289.571C184.425 289.571 170.546 274.112 162.761 249.334C162.578 248.756 162.387 248.176 162.187 247.584C157.926 235.157 149.094 219.556 144.439 205.438C143.699 203.189 143.032 201.071 142.434 199.069C142.243 198.428 142.057 197.798 141.88 197.177C138.449 185.255 137.457 177.427 136.54 169.062L170.152 169.332C170.152 169.332 175.578 226.444 195.986 289.22Z" fill="#582EFF"/>
<path d="M165.447 150.011C165.363 166.01 167.793 172.875 167.793 172.875C167.793 172.875 153.401 180.189 136.297 174.804C136.097 174.74 123.096 171.772 123.096 171.772C123.384 171.125 127.795 160.384 128.074 159.789C131.685 152.03 131.598 148.369 132.027 145.984C132.822 141.53 132.839 136.926 132.442 132.579C131.398 121.078 128.294 111.529 128.294 111.529C132.955 110.467 137.318 108.604 142.17 106.785C143.287 108.175 146.698 109.629 149.656 109.562C153.065 109.486 154.17 108.027 153.993 106.434C157.624 108.456 160.522 110.366 160.522 110.366C163.608 115.727 169.867 120.936 170.32 129.158C170.43 131.184 165.45 149.561 165.447 150.011Z" fill="#E7F1FD"/>
<path d="M182.563 136.85C179.63 129.849 170.943 113.998 158.854 108.5L163.245 133.139C163.245 133.139 162.691 136.955 165.223 140.097C171.425 147.792 180.686 153.29 180.686 153.29C180.686 153.29 188.404 152.512 199.835 148.706C203.423 147.51 211.136 141.031 211.136 141.031L211.24 135.98C211.24 135.98 201.019 138.04 197.474 138.443C195.456 138.672 190.783 139.27 187.488 139.694C185.394 139.963 183.381 138.8 182.563 136.85Z" fill="#FF9362"/>
<path d="M156.203 102.294C156.203 102.294 142.338 102.523 142.327 93.8825C142.318 85.242 140.523 79.4536 149.375 78.9429C158.227 78.4322 159.95 81.7254 160.655 84.6094C161.36 87.4935 159.808 102.012 156.203 102.294Z" fill="#B07053"/>
<path d="M155.69 78.7314C155.69 78.7314 151.893 88.8662 146.066 90.3663C140.239 91.8663 137.712 90.3025 137.712 90.3025C137.712 90.3025 138.542 81.4733 139.47 75.2729C139.47 75.2758 152.824 73.9092 155.69 78.7314Z" fill="#163560"/>
<path d="M154.746 79.5551C154.746 79.5551 157.58 81.8183 158.273 84.0176C158.967 86.2169 159.277 90.7461 160.594 90.5923C160.594 90.5923 163.454 83.7042 160.24 79.8047C156.832 75.673 154.746 79.5551 154.746 79.5551Z" fill="#163560"/>
<path d="M211.24 135.983C211.24 135.983 215.257 129.872 222.326 133.191C223.086 133.728 225.244 135.51 222.81 137.651C221.018 139.229 220.838 138.06 218.161 140.094C215.487 142.128 213.305 142.081 211.136 141.037L211.24 135.983Z" fill="#B07053"/>
<path d="M138.58 297.913C138.58 297.913 139.038 301.076 137.857 304.459C137.857 304.459 136.929 308.692 141.097 308.77C145.265 308.849 146.286 308.454 145.816 305.86C145.343 303.263 144.447 298.775 144.447 298.775L138.58 297.913Z" fill="#B07053"/>
<path d="M146.207 310.578C146.207 310.578 146.117 310.633 145.946 310.717H137.787C137.631 310.633 137.558 310.578 137.558 310.578C137.088 308.454 137.857 304.456 137.857 304.456C142.579 308.782 145.532 304.348 145.532 304.348C146.297 306.2 146.207 310.578 146.207 310.578Z" fill="#9E322A"/>
<path d="M207.739 306.284C207.739 306.284 200.056 297.751 197.695 293.41L191.981 296.338L204.755 308.338L207.742 307.944L207.739 306.284Z" fill="#B07053"/>
<path d="M212.507 310.717H201.993C200.981 309.96 200.035 308.207 198.858 305.857C198.231 304.604 196.824 303.91 195.377 303.53V310.636H193.196L191.131 303.083C189.773 300.582 191.023 298.313 191.98 296.337C193.094 296.335 196.088 297.098 201.764 303.495C203.632 305.596 205.691 306.347 207.736 306.284C207.765 306.301 207.794 306.318 207.82 306.327C211.249 307.868 212.229 309.78 212.507 310.717Z" fill="#9E322A"/>
<path d="M153.993 106.437C153.993 106.437 162.015 126.263 162.25 130.272C162.485 134.285 163.193 195.88 163.193 195.88C163.193 195.88 162.72 198.712 168.147 197.531C173.574 196.35 174.989 195.172 174.989 195.172C174.989 195.172 169.8 157.175 171.216 143.959C172.448 132.454 163.257 114.567 160.855 110.131C160.498 109.472 159.93 108.955 159.242 108.662L153.993 106.437Z" fill="#FF9362"/>
<path d="M190.435 289.392L184.425 289.574C184.425 289.574 170.546 274.115 162.761 249.337C162.578 248.759 162.387 248.179 162.187 247.587C157.926 235.16 149.094 219.559 144.439 205.441C143.699 203.192 143.032 201.074 142.434 199.072C142.243 198.431 142.057 197.801 141.88 197.18L146.832 193.423C146.832 193.423 161.694 217.496 166.294 240.148C170.288 259.823 186.293 283.502 190.435 289.392Z" fill="#2807AE"/>
<path d="M147.344 242.255C147.429 253.271 146.872 278.598 145.439 289.084H140.116C137.175 289.084 135.708 289.041 135.708 289.041C132.111 270.808 129.55 255.723 127.685 242.725C126.156 232.056 124.796 222.914 123.752 215.039C122.699 207.115 121.968 200.482 121.707 194.877C121.666 193.995 121.637 193.136 121.62 192.303C121.602 191.465 121.599 190.652 121.605 189.86L150.648 187.028C150.283 206.335 147.298 235.854 147.344 242.255Z" fill="#582EFF"/>
<path d="M140.116 289.087C137.175 289.087 135.707 289.043 135.707 289.043C132.111 270.811 129.55 255.726 127.685 242.727C126.156 232.059 124.796 222.916 123.752 215.042C122.699 207.118 121.968 200.485 121.707 194.879L132.363 201.149C132.363 201.149 125.562 203.549 128.157 221.721C130.753 239.896 136.505 286.513 140.116 289.087Z" fill="#2807AE"/>
<path d="M141.489 194.702C141.489 194.702 139.444 202.095 132.366 201.152C125.289 200.209 115.224 195.962 115.224 195.962C115.224 195.962 118.25 186.401 122.009 173.841C126.562 158.634 132.198 139.032 134.855 126.669C135.6 123.205 136.111 120.312 136.3 118.24L142.173 106.843C142.173 106.843 150.927 126.501 151.4 131.456C151.869 136.409 141.489 194.702 141.489 194.702Z" fill="#FF9362"/>
<path d="M134.42 130.714L142.17 106.84C142.15 106.849 132.381 109.748 127.468 112.231C127.468 112.231 124.396 116.192 122.496 125.328C122.496 125.328 120.489 147.266 124.97 155.289C124.97 155.289 139.125 158.121 161.775 150.333V145.142C161.775 145.142 137.002 146.439 131.932 147.031L134.42 130.714Z" fill="#B07053"/>
<path d="M141.175 141.838C140.859 149.863 138.971 165.438 122.142 173.777C122.098 173.797 122.052 173.821 122.008 173.841C126.562 158.634 132.198 139.032 134.855 126.669C137.944 131.288 141.346 137.419 141.175 141.838Z" fill="#EC662A"/>
<path d="M142.17 106.84C142.17 106.84 127.804 107.853 124.344 115.562C120.883 123.271 119.781 148.917 124.187 156.47C124.187 156.47 130.249 158.196 140.975 156.191C141.106 156.168 141.239 156.142 141.373 156.116C141.373 156.116 144.792 147.736 141.726 146.085C141.726 146.085 132.683 146.558 133.625 143.567C134.568 140.578 142.17 106.84 142.17 106.84Z" fill="#FF9362"/>
<path d="M159.24 146.521C159.24 146.521 161.212 144.127 161.633 141.687C162.053 139.244 163.359 137.433 166.767 136.984C170.172 136.537 171.637 136.487 171.628 137.448C171.619 138.408 168.844 145.113 163.956 149.117C159.069 153.124 159.24 146.521 159.24 146.521Z" fill="#B07053"/>
<path d="M215.466 138.556C215.576 138.591 215.698 138.6 215.82 138.568L276.644 124.017C276.995 123.933 277.212 123.579 277.128 123.228C277.044 122.877 276.69 122.659 276.339 122.743L215.515 137.297C215.165 137.381 214.947 137.735 215.031 138.086C215.086 138.315 215.257 138.489 215.466 138.556Z" fill="#233862"/>
</svg>
