<svg width="477" height="330" viewBox="0 0 477 330" fill="none" xmlns="http://www.w3.org/2000/svg">
<path d="M447.748 329.758C447.748 329.758 506.353 251.193 457.66 166.134C414.456 90.663 364.082 95.8221 327.125 126.448C311.384 139.494 266.003 128.056 227.378 51.2618C174.702 -53.4635 -7.88678 10.0524 25.4035 171.177C41.5148 249.15 -23.6273 251.983 9.56525 329.925L447.748 329.758Z" fill="#F9F7FF"/>
<path d="M278.967 320.014V326.818C278.967 327.357 278.77 327.86 278.432 328.278C278.077 328.719 277.566 329.066 276.967 329.261C276.784 329.32 276.593 329.367 276.396 329.394C276.217 329.422 276.033 329.437 275.845 329.437H146.83C145.167 329.437 143.796 328.329 143.712 326.951C143.71 326.908 143.708 326.861 143.708 326.818V320.014C143.708 319.971 143.71 319.924 143.712 319.881C143.796 318.5 145.167 317.391 146.83 317.391H275.845C276.033 317.391 276.217 317.407 276.396 317.434C276.593 317.465 276.784 317.508 276.967 317.571C277.566 317.766 278.077 318.109 278.432 318.55C278.77 318.968 278.967 319.472 278.967 320.014Z" fill="#FFB93E"/>
<path d="M215.614 329.437H146.496C145.011 329.437 143.788 328.329 143.712 326.951C143.71 326.908 143.708 326.861 143.708 326.818V320.014C143.708 319.971 143.71 319.924 143.712 319.881C143.788 318.5 145.011 317.391 146.496 317.391H207.126C208.094 320.939 210.351 325.842 215.614 329.437Z" fill="#FFA412"/>
<path d="M263.268 329.437H261.802V317.395H263.268V329.437Z" fill="#FFA412"/>
<path d="M258.305 329.437H256.838V317.395H258.305V329.437Z" fill="#FFA412"/>
<path d="M252.353 329.437H250.886V317.395H252.353V329.437Z" fill="#FFA412"/>
<path d="M243.229 329.437H241.763V317.395H243.229V329.437Z" fill="#FFA412"/>
<path d="M233.582 329.437H232.115V317.395H233.582V329.437Z" fill="#FFA412"/>
<path d="M218.791 329.437H217.325V317.395H218.791V329.437Z" fill="#FFA412"/>
<path d="M204.943 329.437H203.477V317.395H204.943V329.437Z" fill="#FFA412"/>
<path d="M192.577 329.437H191.111V317.395H192.577V329.437Z" fill="#FFA412"/>
<path d="M267.993 329.437H266.527V317.395H267.993V329.437Z" fill="#FFA412"/>
<path d="M271.114 329.437H269.648V317.395H271.114V329.437Z" fill="#FFA412"/>
<path d="M274.128 329.437H272.662V317.395H274.128V329.437Z" fill="#FFA412"/>
<path d="M276.396 317.434V329.394C276.217 329.422 276.034 329.437 275.845 329.437H274.929V317.391H275.845C276.034 317.391 276.217 317.407 276.396 317.434Z" fill="#FFA412"/>
<path d="M278.432 318.551V328.279C278.077 328.72 277.566 329.067 276.967 329.262V317.571C277.566 317.767 278.077 318.11 278.432 318.551Z" fill="#FFA412"/>
<path d="M265.173 307.973V314.773C265.173 315.315 264.976 315.819 264.638 316.236C264.283 316.677 263.772 317.021 263.173 317.216C262.99 317.279 262.799 317.322 262.602 317.353C262.423 317.38 262.24 317.392 262.051 317.392H133.036C131.373 317.392 130.003 316.287 129.918 314.905C129.916 314.862 129.915 314.819 129.915 314.773V307.973C129.915 307.926 129.916 307.879 129.918 307.836C130.003 306.458 131.373 305.35 133.036 305.35H262.051C262.135 305.35 262.217 305.354 262.299 305.357C262.333 305.361 262.369 305.361 262.404 305.365C262.441 305.369 262.481 305.373 262.519 305.381C262.547 305.381 262.574 305.389 262.602 305.393C262.799 305.42 262.99 305.467 263.173 305.525C263.201 305.537 263.226 305.545 263.254 305.553C263.28 305.564 263.308 305.572 263.334 305.584C263.385 305.603 263.439 305.623 263.491 305.646C263.52 305.658 263.551 305.674 263.58 305.689C263.608 305.701 263.634 305.713 263.66 305.728C263.71 305.752 263.758 305.779 263.806 305.806C263.861 305.838 263.915 305.873 263.967 305.908C264.008 305.931 264.048 305.959 264.088 305.99C264.089 305.99 264.093 305.99 264.095 305.994C264.12 306.013 264.148 306.033 264.174 306.052C264.253 306.115 264.329 306.181 264.4 306.251C264.422 306.271 264.443 306.29 264.462 306.31C264.483 306.329 264.502 306.353 264.522 306.372C264.562 306.419 264.602 306.462 264.638 306.509C264.976 306.927 265.173 307.43 265.173 307.973Z" fill="#FFB93E"/>
<path d="M201.82 317.392H132.702C131.216 317.392 129.994 316.287 129.918 314.905C129.916 314.862 129.915 314.819 129.915 314.773V307.973C129.915 307.926 129.916 307.879 129.918 307.836C129.994 306.458 131.216 305.35 132.702 305.35H193.33C193.358 305.447 193.385 305.545 193.415 305.646C194.427 309.163 196.7 313.898 201.82 317.392Z" fill="#FFA412"/>
<path d="M249.474 317.392H248.008V305.35H249.474V317.392Z" fill="#FFA412"/>
<path d="M244.51 317.392H243.044V305.35H244.51V317.392Z" fill="#FFA412"/>
<path d="M238.559 317.392H237.092V305.35H238.559V317.392Z" fill="#FFA412"/>
<path d="M229.435 317.392H227.968V305.35H229.435V317.392Z" fill="#FFA412"/>
<path d="M219.787 317.392H218.321V305.35H219.787V317.392Z" fill="#FFA412"/>
<path d="M204.997 317.392H203.531V305.35H204.997V317.392Z" fill="#FFA412"/>
<path d="M191.149 317.392H189.683V305.35H191.149V317.392Z" fill="#FFA412"/>
<path d="M178.783 317.392H177.317V305.35H178.783V317.392Z" fill="#FFA412"/>
<path d="M254.199 317.392H252.732V305.35H254.199V317.392Z" fill="#FFA412"/>
<path d="M257.32 317.392H255.854V305.35H257.32V317.392Z" fill="#FFA412"/>
<path d="M260.334 317.392H258.867V305.35H260.334V317.392Z" fill="#FFA412"/>
<path d="M262.602 305.393V317.353C262.422 317.38 262.239 317.392 262.051 317.392H261.135V305.35H262.051C262.239 305.35 262.422 305.365 262.602 305.393Z" fill="#FFA412"/>
<path d="M264.638 306.509V316.236C264.283 316.677 263.772 317.021 263.173 317.216V305.525C263.772 305.72 264.283 306.068 264.638 306.509Z" fill="#FFA412"/>
<path d="M271.839 296.223V303.027C271.839 303.566 271.642 304.069 271.304 304.487C270.949 304.928 270.438 305.276 269.839 305.471C269.656 305.529 269.464 305.576 269.268 305.603C269.089 305.631 268.905 305.646 268.717 305.646H139.702C139.184 305.646 138.694 305.541 138.263 305.35C137.35 304.948 136.698 304.179 136.594 303.277C136.589 303.238 136.586 303.199 136.584 303.16C136.582 303.117 136.58 303.07 136.58 303.027V296.223C136.58 296.18 136.582 296.134 136.584 296.087C136.668 294.709 138.038 293.6 139.702 293.6H268.717C268.905 293.6 269.089 293.616 269.268 293.643C269.464 293.674 269.656 293.717 269.839 293.78C270.438 293.971 270.949 294.319 271.304 294.76C271.642 295.177 271.839 295.681 271.839 296.223Z" fill="#FFB93E"/>
<path d="M208.486 305.646H139.367C138.905 305.646 138.468 305.541 138.083 305.35C137.267 304.948 136.686 304.179 136.594 303.277C136.589 303.238 136.586 303.199 136.584 303.16C136.582 303.117 136.58 303.07 136.58 303.027V296.223C136.58 296.18 136.582 296.134 136.584 296.087C136.66 294.709 137.883 293.6 139.367 293.6H199.998C200.94 297.051 203.1 301.786 208.061 305.35C208.201 305.451 208.342 305.549 208.486 305.646Z" fill="#FFA412"/>
<path d="M256.14 305.646H254.674V293.6H256.14V305.646Z" fill="#FFA412"/>
<path d="M251.176 305.646H249.71V293.6H251.176V305.646Z" fill="#FFA412"/>
<path d="M245.224 305.646H243.758V293.6H245.224V305.646Z" fill="#FFA412"/>
<path d="M236.101 305.646H234.635V293.6H236.101V305.646Z" fill="#FFA412"/>
<path d="M226.453 305.646H224.987V293.6H226.453V305.646Z" fill="#FFA412"/>
<path d="M211.663 305.646H210.197V293.6H211.663V305.646Z" fill="#FFA412"/>
<path d="M197.815 305.646H196.349V293.6H197.815V305.646Z" fill="#FFA412"/>
<path d="M185.449 305.646H183.983V293.6H185.449V305.646Z" fill="#FFA412"/>
<path d="M260.865 305.646H259.398V293.6H260.865V305.646Z" fill="#FFA412"/>
<path d="M263.986 305.646H262.52V293.6H263.986V305.646Z" fill="#FFA412"/>
<path d="M267 305.646H265.534V293.6H267V305.646Z" fill="#FFA412"/>
<path d="M269.268 293.643V305.603C269.089 305.631 268.906 305.646 268.717 305.646H267.801V293.6H268.717C268.906 293.6 269.089 293.616 269.268 293.643Z" fill="#FFA412"/>
<path d="M271.304 294.759V304.487C270.949 304.928 270.438 305.275 269.839 305.47V293.78C270.438 293.971 270.949 294.318 271.304 294.759Z" fill="#FFA412"/>
<path d="M274.929 284.177V290.981C274.929 291.523 274.732 292.027 274.394 292.444C274.039 292.886 273.528 293.229 272.929 293.424C272.746 293.487 272.555 293.53 272.358 293.561C272.179 293.588 271.996 293.6 271.808 293.6H142.792C141.129 293.6 139.759 292.495 139.674 291.113C139.673 291.07 139.671 291.024 139.671 290.981V284.177C139.671 284.134 139.673 284.087 139.674 284.044C139.752 282.768 140.93 281.726 142.423 281.577C142.544 281.562 142.666 281.558 142.792 281.558H271.808C271.996 281.558 272.179 281.573 272.358 281.601C272.555 281.628 272.746 281.675 272.929 281.733C273.528 281.929 274.039 282.276 274.394 282.717C274.732 283.135 274.929 283.638 274.929 284.177Z" fill="#FFB93E"/>
<path d="M211.576 293.6H142.457C140.974 293.6 139.75 292.495 139.674 291.113C139.673 291.07 139.671 291.024 139.671 290.981V284.177C139.671 284.134 139.673 284.087 139.674 284.044C139.743 282.768 140.796 281.726 142.128 281.577C142.235 281.562 142.345 281.558 142.457 281.558H203.088C203.09 281.562 203.091 281.569 203.093 281.577C204.064 285.118 206.322 290.013 211.576 293.6Z" fill="#FFA412"/>
<path d="M259.23 293.6H257.764V281.558H259.23V293.6Z" fill="#FFA412"/>
<path d="M254.267 293.6H252.801V281.558H254.267V293.6Z" fill="#FFA412"/>
<path d="M248.315 293.6H246.848V281.558H248.315V293.6Z" fill="#FFA412"/>
<path d="M239.191 293.6H237.725V281.558H239.191V293.6Z" fill="#FFA412"/>
<path d="M229.544 293.6H228.077V281.558H229.544V293.6Z" fill="#FFA412"/>
<path d="M214.753 293.6H213.287V281.558H214.753V293.6Z" fill="#FFA412"/>
<path d="M200.905 293.6H199.439V281.558H200.905V293.6Z" fill="#FFA412"/>
<path d="M188.54 293.6H187.073V281.558H188.54V293.6Z" fill="#FFA412"/>
<path d="M263.955 293.6H262.489V281.558H263.955V293.6Z" fill="#FFA412"/>
<path d="M267.076 293.6H265.61V281.558H267.076V293.6Z" fill="#FFA412"/>
<path d="M270.09 293.6H268.624V281.558H270.09V293.6Z" fill="#FFA412"/>
<path d="M272.358 281.601V293.561C272.179 293.588 271.996 293.6 271.808 293.6H270.892V281.558H271.808C271.996 281.558 272.179 281.569 272.358 281.601Z" fill="#FFA412"/>
<path d="M274.395 282.713V292.444C274.039 292.885 273.528 293.229 272.929 293.424V281.733C273.528 281.928 274.039 282.276 274.395 282.713Z" fill="#FFA412"/>
<path d="M265.444 272.155V278.955C265.444 279.498 265.247 280.001 264.909 280.419C264.554 280.86 264.043 281.207 263.444 281.402C263.261 281.461 263.07 281.508 262.873 281.535C262.813 281.543 262.752 281.551 262.692 281.559C262.659 281.562 262.624 281.562 262.59 281.566C262.557 281.57 262.523 281.57 262.488 281.574C262.433 281.574 262.378 281.578 262.323 281.578H133.307C131.644 281.578 130.273 280.469 130.189 279.092C130.187 279.045 130.185 279.002 130.185 278.955V272.155C130.185 272.108 130.187 272.065 130.189 272.019C130.191 271.983 130.194 271.944 130.198 271.909C130.322 270.801 131.281 269.883 132.538 269.614C132.569 269.606 132.601 269.602 132.632 269.594C132.85 269.555 133.076 269.532 133.307 269.532H262.323C262.418 269.532 262.51 269.536 262.602 269.544C262.644 269.548 262.685 269.552 262.726 269.555H262.728C262.776 269.559 262.825 269.567 262.873 269.575C263.07 269.602 263.261 269.649 263.444 269.708C264.043 269.903 264.554 270.25 264.909 270.691C265.247 271.109 265.444 271.613 265.444 272.155Z" fill="#FFB93E"/>
<path d="M202.091 281.578H132.973C131.488 281.578 130.265 280.469 130.189 279.092C130.187 279.045 130.185 279.002 130.185 278.955V272.155C130.185 272.108 130.187 272.065 130.189 272.019C130.191 271.983 130.194 271.944 130.198 271.909C130.31 270.773 131.202 269.844 132.36 269.598C132.4 269.587 132.439 269.579 132.479 269.575C132.639 269.548 132.803 269.532 132.973 269.532H193.603C193.61 269.563 193.618 269.591 193.627 269.618C194.605 273.151 196.862 277.995 202.063 281.559C202.072 281.562 202.082 281.57 202.091 281.578Z" fill="#FFA412"/>
<path d="M249.745 281.578H248.279V269.532H249.745V281.578Z" fill="#FFA412"/>
<path d="M244.782 281.578H243.315V269.532H244.782V281.578Z" fill="#FFA412"/>
<path d="M238.829 281.578H237.363V269.532H238.829V281.578Z" fill="#FFA412"/>
<path d="M229.706 281.578H228.24V269.532H229.706V281.578Z" fill="#FFA412"/>
<path d="M220.058 281.578H218.592V269.532H220.058V281.578Z" fill="#FFA412"/>
<path d="M205.268 281.578H203.802V269.532H205.268V281.578Z" fill="#FFA412"/>
<path d="M191.42 281.578H189.954V269.532H191.42V281.578Z" fill="#FFA412"/>
<path d="M179.054 281.578H177.588V269.532H179.054V281.578Z" fill="#FFA412"/>
<path d="M254.47 281.578H253.003V269.532H254.47V281.578Z" fill="#FFA412"/>
<path d="M257.591 281.578H256.125V269.532H257.591V281.578Z" fill="#FFA412"/>
<path d="M260.605 281.578H259.139V269.532H260.605V281.578Z" fill="#FFA412"/>
<path d="M262.873 269.575V281.535C262.693 281.562 262.51 281.578 262.323 281.578H261.406V269.532H262.323C262.51 269.532 262.693 269.548 262.873 269.575Z" fill="#FFA412"/>
<path d="M264.909 270.69V280.418C264.554 280.859 264.043 281.206 263.444 281.397V269.707C264.043 269.902 264.554 270.249 264.909 270.69Z" fill="#FFA412"/>
<path d="M265.173 260.194V266.998C265.173 267.536 264.976 268.04 264.638 268.458C264.283 268.899 263.772 269.246 263.173 269.441C263.03 269.488 262.88 269.527 262.728 269.554H262.724C262.683 269.562 262.644 269.57 262.602 269.574C262.423 269.601 262.24 269.617 262.051 269.617H133.036C132.9 269.617 132.763 269.609 132.632 269.594C132.581 269.59 132.529 269.582 132.479 269.574C131.076 269.359 129.992 268.352 129.918 267.13C129.916 267.088 129.915 267.041 129.915 266.998V260.194C129.915 260.151 129.916 260.104 129.918 260.061C130.003 258.679 131.373 257.571 133.036 257.571H262.051C262.135 257.571 262.217 257.575 262.299 257.583C262.333 257.587 262.369 257.587 262.404 257.59C262.441 257.594 262.481 257.598 262.519 257.602C262.547 257.606 262.574 257.61 262.602 257.614C262.799 257.645 262.99 257.688 263.173 257.75C263.201 257.758 263.226 257.766 263.254 257.778C263.28 257.786 263.308 257.797 263.334 257.805C263.387 257.825 263.439 257.848 263.491 257.871C263.548 257.895 263.605 257.922 263.66 257.95C263.71 257.977 263.758 258 263.806 258.028C263.861 258.063 263.915 258.094 263.967 258.129C264.008 258.156 264.048 258.184 264.088 258.211C264.089 258.215 264.093 258.215 264.095 258.219C264.12 258.238 264.148 258.258 264.174 258.277C264.253 258.336 264.329 258.406 264.4 258.473C264.422 258.492 264.443 258.512 264.462 258.535C264.483 258.555 264.502 258.574 264.522 258.597C264.562 258.64 264.602 258.687 264.638 258.73C264.976 259.148 265.173 259.651 265.173 260.194Z" fill="#FFB93E"/>
<path d="M201.82 269.617H132.702C132.646 269.617 132.591 269.617 132.538 269.613C132.477 269.609 132.419 269.605 132.36 269.597C131.031 269.445 129.987 268.403 129.918 267.13C129.916 267.088 129.915 267.041 129.915 266.998V260.194C129.915 260.151 129.916 260.104 129.918 260.061C129.994 258.679 131.216 257.571 132.702 257.571H193.33C193.358 257.672 193.385 257.77 193.415 257.871C194.419 261.361 196.664 266.045 201.696 269.531C201.737 269.562 201.778 269.59 201.82 269.617Z" fill="#FFA412"/>
<path d="M249.474 269.617H248.008V257.575H249.474V269.617Z" fill="#FFA412"/>
<path d="M244.51 269.617H243.044V257.575H244.51V269.617Z" fill="#FFA412"/>
<path d="M238.559 269.617H237.092V257.575H238.559V269.617Z" fill="#FFA412"/>
<path d="M229.435 269.617H227.968V257.575H229.435V269.617Z" fill="#FFA412"/>
<path d="M219.787 269.617H218.321V257.575H219.787V269.617Z" fill="#FFA412"/>
<path d="M204.997 269.617H203.531V257.575H204.997V269.617Z" fill="#FFA412"/>
<path d="M191.149 269.617H189.683V257.575H191.149V269.617Z" fill="#FFA412"/>
<path d="M178.783 269.617H177.317V257.575H178.783V269.617Z" fill="#FFA412"/>
<path d="M254.199 269.617H252.732V257.575H254.199V269.617Z" fill="#FFA412"/>
<path d="M257.32 269.617H255.854V257.575H257.32V269.617Z" fill="#FFA412"/>
<path d="M260.334 269.617H258.867V257.575H260.334V269.617Z" fill="#FFA412"/>
<path d="M262.602 257.614V269.574C262.422 269.601 262.239 269.617 262.051 269.617H261.135V257.575H262.051C262.239 257.575 262.422 257.587 262.602 257.614Z" fill="#FFA412"/>
<path d="M264.638 258.73V268.457C264.283 268.899 263.772 269.246 263.173 269.441V257.75C263.772 257.945 264.283 258.289 264.638 258.73Z" fill="#FFA412"/>
<path d="M271.839 248.449V255.248C271.839 255.791 271.642 256.294 271.304 256.712C270.949 257.153 270.438 257.501 269.839 257.692C269.656 257.754 269.464 257.797 269.268 257.829C269.089 257.856 268.905 257.871 268.717 257.871H139.702C139.184 257.871 138.694 257.762 138.263 257.571C137.35 257.173 136.698 256.4 136.594 255.502C136.589 255.463 136.586 255.424 136.584 255.385C136.582 255.338 136.58 255.295 136.58 255.248V248.449C136.58 248.402 136.582 248.359 136.584 248.312C136.668 246.934 138.038 245.825 139.702 245.825H268.717C268.905 245.825 269.089 245.841 269.268 245.868C269.464 245.896 269.656 245.943 269.839 246.001C270.438 246.196 270.949 246.544 271.304 246.985C271.642 247.402 271.839 247.906 271.839 248.449Z" fill="#FFB93E"/>
<path d="M208.486 257.871H139.367C138.905 257.871 138.468 257.762 138.083 257.571C137.267 257.173 136.686 256.4 136.594 255.502C136.589 255.463 136.586 255.424 136.584 255.385C136.582 255.338 136.58 255.295 136.58 255.248V248.449C136.58 248.402 136.582 248.359 136.584 248.312C136.66 246.934 137.883 245.825 139.367 245.825H199.998C200.94 249.276 203.1 254.007 208.061 257.571C208.201 257.672 208.342 257.77 208.486 257.871Z" fill="#FFA412"/>
<path d="M256.14 257.871H254.674V245.825H256.14V257.871Z" fill="#FFA412"/>
<path d="M251.176 257.871H249.71V245.825H251.176V257.871Z" fill="#FFA412"/>
<path d="M245.224 257.871H243.758V245.825H245.224V257.871Z" fill="#FFA412"/>
<path d="M236.101 257.871H234.635V245.825H236.101V257.871Z" fill="#FFA412"/>
<path d="M226.453 257.871H224.987V245.825H226.453V257.871Z" fill="#FFA412"/>
<path d="M211.663 257.871H210.197V245.825H211.663V257.871Z" fill="#FFA412"/>
<path d="M197.815 257.871H196.349V245.825H197.815V257.871Z" fill="#FFA412"/>
<path d="M185.449 257.871H183.983V245.825H185.449V257.871Z" fill="#FFA412"/>
<path d="M260.865 257.871H259.398V245.825H260.865V257.871Z" fill="#FFA412"/>
<path d="M263.986 257.871H262.52V245.825H263.986V257.871Z" fill="#FFA412"/>
<path d="M267 257.871H265.534V245.825H267V257.871Z" fill="#FFA412"/>
<path d="M269.268 245.868V257.829C269.089 257.856 268.906 257.871 268.717 257.871H267.801V245.825H268.717C268.906 245.825 269.089 245.841 269.268 245.868Z" fill="#FFA412"/>
<path d="M271.304 246.985V256.712C270.949 257.153 270.438 257.501 269.839 257.692V246.001C270.438 246.196 270.949 246.544 271.304 246.985Z" fill="#FFA412"/>
<path d="M282.382 236.402V243.206C282.382 243.745 282.185 244.248 281.847 244.666C281.491 245.107 280.981 245.454 280.382 245.649C280.199 245.708 280.008 245.755 279.811 245.782C279.631 245.809 279.449 245.825 279.261 245.825H150.245C148.582 245.825 147.211 244.716 147.127 243.339C147.125 243.292 147.123 243.249 147.123 243.206V236.402C147.123 236.359 147.125 236.312 147.127 236.266C147.204 234.993 148.383 233.951 149.876 233.799C149.997 233.787 150.121 233.779 150.245 233.779H279.261C279.449 233.779 279.631 233.795 279.811 233.822C280.008 233.853 280.199 233.896 280.382 233.959C280.981 234.15 281.491 234.497 281.847 234.938C282.185 235.356 282.382 235.86 282.382 236.402Z" fill="#FFB93E"/>
<path d="M219.028 245.825H149.91C148.426 245.825 147.203 244.716 147.127 243.339C147.125 243.292 147.123 243.249 147.123 243.206V236.402C147.123 236.359 147.125 236.312 147.127 236.266C147.196 234.993 148.249 233.951 149.58 233.799C149.687 233.787 149.798 233.779 149.91 233.779H210.541C210.542 233.787 210.544 233.795 210.546 233.799C211.517 237.343 213.774 242.234 219.028 245.825Z" fill="#FFA412"/>
<path d="M266.684 245.825H265.217V233.783H266.684V245.825Z" fill="#FFA412"/>
<path d="M261.72 245.825H260.254V233.783H261.72V245.825Z" fill="#FFA412"/>
<path d="M255.768 245.825H254.302V233.783H255.768V245.825Z" fill="#FFA412"/>
<path d="M246.644 245.825H245.178V233.783H246.644V245.825Z" fill="#FFA412"/>
<path d="M236.997 245.825H235.531V233.783H236.997V245.825Z" fill="#FFA412"/>
<path d="M222.207 245.825H220.74V233.783H222.207V245.825Z" fill="#FFA412"/>
<path d="M208.358 245.825H206.892V233.783H208.358V245.825Z" fill="#FFA412"/>
<path d="M195.993 245.825H194.526V233.783H195.993V245.825Z" fill="#FFA412"/>
<path d="M271.408 245.825H269.942V233.783H271.408V245.825Z" fill="#FFA412"/>
<path d="M274.53 245.825H273.064V233.783H274.53V245.825Z" fill="#FFA412"/>
<path d="M277.544 245.825H276.077V233.783H277.544V245.825Z" fill="#FFA412"/>
<path d="M279.811 233.822V245.782C279.632 245.809 279.449 245.825 279.261 245.825H278.345V233.779H279.261C279.449 233.779 279.632 233.795 279.811 233.822Z" fill="#FFA412"/>
<path d="M281.848 234.939V244.667C281.492 245.108 280.981 245.455 280.383 245.65V233.959C280.981 234.151 281.492 234.498 281.848 234.939Z" fill="#FFA412"/>
<path d="M265.444 224.376V231.18C265.444 231.722 265.247 232.222 264.909 232.644C264.554 233.085 264.043 233.428 263.444 233.623C263.261 233.686 263.07 233.729 262.873 233.76C262.813 233.768 262.752 233.776 262.692 233.779C262.644 233.787 262.595 233.791 262.547 233.791C262.523 233.795 262.498 233.795 262.474 233.799C262.424 233.799 262.374 233.799 262.323 233.799H133.307C131.644 233.799 130.273 232.694 130.189 231.313C130.187 231.27 130.185 231.223 130.185 231.18V224.376C130.185 224.333 130.187 224.286 130.189 224.243C130.273 222.862 131.644 221.757 133.307 221.757H262.323C262.378 221.757 262.433 221.757 262.488 221.761C262.619 221.765 262.747 221.78 262.873 221.796C263.07 221.827 263.261 221.87 263.444 221.933C263.537 221.964 263.629 221.995 263.715 222.034C263.771 222.057 263.824 222.081 263.876 222.108C263.881 222.108 263.888 222.112 263.893 222.116C263.946 222.139 263.998 222.167 264.05 222.198C264.06 222.202 264.069 222.21 264.076 222.214C264.124 222.237 264.171 222.268 264.216 222.299C264.326 222.366 264.429 222.444 264.526 222.526C264.557 222.549 264.586 222.577 264.614 222.604C264.619 222.608 264.625 222.612 264.63 222.616C264.649 222.631 264.666 222.647 264.683 222.666C264.687 222.67 264.69 222.674 264.693 222.674C264.725 222.705 264.755 222.737 264.785 222.772C264.828 222.819 264.869 222.865 264.909 222.912C265.247 223.334 265.444 223.834 265.444 224.376Z" fill="#FFB93E"/>
<path d="M202.091 233.799H132.973C131.488 233.799 130.265 232.694 130.189 231.313C130.187 231.27 130.185 231.223 130.185 231.18V224.376C130.185 224.333 130.187 224.286 130.189 224.243C130.265 222.862 131.488 221.757 132.973 221.757H193.603C193.627 221.847 193.653 221.94 193.682 222.034C194.688 225.547 196.956 230.282 202.063 233.779C202.072 233.787 202.082 233.795 202.091 233.799Z" fill="#FFA412"/>
<path d="M249.745 233.799H248.279V221.757H249.745V233.799Z" fill="#FFA412"/>
<path d="M244.782 233.799H243.315V221.757H244.782V233.799Z" fill="#FFA412"/>
<path d="M238.829 233.799H237.363V221.757H238.829V233.799Z" fill="#FFA412"/>
<path d="M229.706 233.799H228.24V221.757H229.706V233.799Z" fill="#FFA412"/>
<path d="M220.058 233.799H218.592V221.757H220.058V233.799Z" fill="#FFA412"/>
<path d="M205.268 233.799H203.802V221.757H205.268V233.799Z" fill="#FFA412"/>
<path d="M191.42 233.799H189.954V221.757H191.42V233.799Z" fill="#FFA412"/>
<path d="M179.054 233.799H177.588V221.757H179.054V233.799Z" fill="#FFA412"/>
<path d="M254.47 233.799H253.003V221.757H254.47V233.799Z" fill="#FFA412"/>
<path d="M257.591 233.799H256.125V221.757H257.591V233.799Z" fill="#FFA412"/>
<path d="M260.605 233.799H259.139V221.757H260.605V233.799Z" fill="#FFA412"/>
<path d="M262.873 221.796V233.76C262.693 233.787 262.51 233.799 262.323 233.799H261.406V221.757H262.323C262.51 221.757 262.693 221.769 262.873 221.796Z" fill="#FFA412"/>
<path d="M264.909 222.913V232.644C264.554 233.085 264.043 233.428 263.444 233.624V221.933C264.043 222.128 264.554 222.475 264.909 222.913Z" fill="#FFA412"/>
<path d="M274.929 212.61V219.414C274.929 219.953 274.732 220.456 274.394 220.874C274.039 221.315 273.528 221.662 272.929 221.857C272.746 221.916 272.555 221.963 272.358 221.99C272.179 222.018 271.996 222.033 271.808 222.033H142.792C142.292 222.033 141.817 221.932 141.398 221.756C140.458 221.358 139.785 220.573 139.683 219.652C139.679 219.621 139.676 219.582 139.674 219.547C139.673 219.5 139.671 219.457 139.671 219.414V212.61C139.671 212.563 139.673 212.52 139.674 212.474C139.752 211.197 140.93 210.159 142.423 210.007C142.544 209.995 142.666 209.987 142.792 209.987H271.808C271.996 209.987 272.179 210.003 272.358 210.03C272.555 210.061 272.746 210.104 272.929 210.167C273.528 210.358 274.039 210.705 274.394 211.146C274.732 211.564 274.929 212.068 274.929 212.61Z" fill="#FFB93E"/>
<path d="M211.576 222.033H142.457C142.011 222.033 141.588 221.932 141.213 221.756C140.373 221.358 139.774 220.573 139.683 219.652C139.679 219.621 139.676 219.582 139.674 219.547C139.673 219.5 139.671 219.457 139.671 219.414V212.61C139.671 212.563 139.673 212.52 139.674 212.474C139.743 211.201 140.796 210.159 142.128 210.007C142.235 209.995 142.345 209.987 142.457 209.987H203.088C203.09 209.995 203.091 210.003 203.093 210.007C204.039 213.461 206.208 218.196 211.179 221.756C211.308 221.85 211.441 221.943 211.576 222.033Z" fill="#FFA412"/>
<path d="M259.23 222.033H257.764V209.987H259.23V222.033Z" fill="#FFA412"/>
<path d="M254.267 222.033H252.801V209.987H254.267V222.033Z" fill="#FFA412"/>
<path d="M248.315 222.033H246.848V209.987H248.315V222.033Z" fill="#FFA412"/>
<path d="M239.191 222.033H237.725V209.987H239.191V222.033Z" fill="#FFA412"/>
<path d="M229.544 222.033H228.077V209.987H229.544V222.033Z" fill="#FFA412"/>
<path d="M214.753 222.033H213.287V209.987H214.753V222.033Z" fill="#FFA412"/>
<path d="M200.905 222.033H199.439V209.987H200.905V222.033Z" fill="#FFA412"/>
<path d="M188.54 222.033H187.073V209.987H188.54V222.033Z" fill="#FFA412"/>
<path d="M263.955 222.033H262.489V209.987H263.955V222.033Z" fill="#FFA412"/>
<path d="M267.076 222.033H265.61V209.987H267.076V222.033Z" fill="#FFA412"/>
<path d="M270.09 222.033H268.624V209.987H270.09V222.033Z" fill="#FFA412"/>
<path d="M272.358 210.03V221.99C272.179 222.018 271.996 222.033 271.808 222.033H270.892V209.987H271.808C271.996 209.987 272.179 210.003 272.358 210.03Z" fill="#FFA412"/>
<path d="M274.395 211.148V220.875C274.039 221.316 273.528 221.664 272.929 221.859V210.168C273.528 210.359 274.039 210.707 274.395 211.148Z" fill="#FFA412"/>
<path d="M278.967 200.586V207.389C278.967 207.932 278.77 208.432 278.432 208.853C278.077 209.29 277.566 209.638 276.967 209.833C276.784 209.895 276.592 209.938 276.396 209.97C276.336 209.977 276.275 209.985 276.215 209.989C276.182 209.993 276.147 209.997 276.113 210.001C276.08 210.001 276.046 210.005 276.011 210.005C275.956 210.009 275.901 210.009 275.845 210.009H146.83C145.167 210.009 143.796 208.904 143.712 207.522C143.71 207.479 143.708 207.432 143.708 207.389V200.586C143.708 200.543 143.71 200.496 143.712 200.453C143.796 199.071 145.167 197.967 146.83 197.967H275.845C276.033 197.967 276.217 197.978 276.396 198.006C276.592 198.037 276.784 198.08 276.967 198.142C277.566 198.337 278.077 198.681 278.432 199.122C278.77 199.544 278.967 200.043 278.967 200.586Z" fill="#FFB93E"/>
<path d="M215.614 210.009H146.496C145.011 210.009 143.788 208.904 143.712 207.522C143.71 207.479 143.708 207.432 143.708 207.389V200.586C143.708 200.543 143.71 200.496 143.712 200.453C143.788 199.071 145.011 197.967 146.496 197.967H207.126C208.092 201.507 210.342 206.398 215.586 209.989C215.595 209.997 215.605 210.005 215.614 210.009Z" fill="#FFA412"/>
<path d="M263.268 210.009H261.802V197.967H263.268V210.009Z" fill="#FFA412"/>
<path d="M258.305 210.009H256.838V197.967H258.305V210.009Z" fill="#FFA412"/>
<path d="M252.353 210.009H250.886V197.967H252.353V210.009Z" fill="#FFA412"/>
<path d="M243.229 210.009H241.763V197.967H243.229V210.009Z" fill="#FFA412"/>
<path d="M233.582 210.009H232.115V197.967H233.582V210.009Z" fill="#FFA412"/>
<path d="M218.791 210.009H217.325V197.967H218.791V210.009Z" fill="#FFA412"/>
<path d="M204.943 210.009H203.477V197.967H204.943V210.009Z" fill="#FFA412"/>
<path d="M192.578 197.967V210.009H191.111V197.967H192.578Z" fill="#FFA412"/>
<path d="M267.993 210.009H266.527V197.967H267.993V210.009Z" fill="#FFA412"/>
<path d="M271.114 210.009H269.648V197.967H271.114V210.009Z" fill="#FFA412"/>
<path d="M274.128 210.009H272.662V197.967H274.128V210.009Z" fill="#FFA412"/>
<path d="M276.396 198.006V209.966C276.217 209.997 276.034 210.009 275.846 210.009H274.929V197.967H275.846C276.034 197.967 276.217 197.978 276.396 198.006Z" fill="#FFA412"/>
<path d="M278.432 199.121V208.852C278.077 209.289 277.566 209.637 276.967 209.832V198.141C277.566 198.336 278.077 198.68 278.432 199.121Z" fill="#FFA412"/>
<path d="M74.9112 268.154C74.9112 234.287 102.363 206.838 136.227 206.838C170.091 206.838 197.543 234.287 197.543 268.154C197.543 302.016 170.091 329.469 136.227 329.469C102.363 329.469 74.9112 302.016 74.9112 268.154Z" fill="#E2810E"/>
<path d="M69.5625 268.154C69.5625 234.287 97.0143 206.838 130.878 206.838C164.742 206.838 192.194 234.287 192.194 268.154C192.194 302.016 164.742 329.469 130.878 329.469C97.0143 329.469 69.5625 302.016 69.5625 268.154Z" fill="#FFB93E"/>
<path d="M130.878 216.343C101.911 216.343 78.3456 239.912 78.3456 268.876C78.3456 297.843 101.911 321.408 130.878 321.408C159.845 321.408 183.411 297.843 183.411 268.876C183.411 239.912 159.845 216.343 130.878 216.343ZM130.878 324.742C115.956 324.742 101.927 318.93 91.3757 308.379C80.8239 297.828 75.0128 283.799 75.0128 268.876C75.0128 253.953 80.8239 239.928 91.3757 229.373C101.927 218.822 115.956 213.009 130.878 213.009C145.801 213.009 159.83 218.822 170.381 229.373C180.933 239.928 186.744 253.953 186.744 268.876C186.744 283.799 180.933 297.828 170.381 308.379C159.83 318.93 145.801 324.742 130.878 324.742Z" fill="#FFA412"/>
<path d="M138.569 285.091C138.713 283.885 138.668 282.808 138.437 281.848C138.206 280.891 137.749 279.99 137.066 279.154C136.382 278.315 135.468 277.511 134.323 276.734C133.178 275.957 131.762 275.165 130.073 274.353C127.172 272.932 124.555 271.496 122.224 270.04C119.89 268.584 117.935 266.995 116.355 265.266C114.775 263.537 113.62 261.597 112.888 259.442C112.157 257.291 111.959 254.808 112.292 251.998C112.582 249.558 113.277 247.388 114.381 245.483C115.483 243.578 116.926 241.974 118.709 240.674C120.492 239.37 122.558 238.387 124.908 237.719C127.257 237.056 129.837 236.755 132.647 236.829L133.739 227.621L141.151 228.499L140.043 237.836C142.657 238.496 144.983 239.483 147.018 240.803C149.054 242.118 150.728 243.715 152.041 245.588C153.352 247.458 154.281 249.597 154.826 252.006C155.369 254.41 155.472 257.049 155.132 259.918L141.745 258.329C142.153 254.886 141.694 252.22 140.369 250.331C139.042 248.446 137.098 247.349 134.535 247.044C133.145 246.881 131.925 246.931 130.876 247.201C129.826 247.466 128.937 247.899 128.209 248.497C127.48 249.094 126.907 249.832 126.489 250.714C126.072 251.596 125.8 252.568 125.674 253.63C125.548 254.691 125.588 255.671 125.795 256.565C126.001 257.463 126.44 258.322 127.11 259.145C127.779 259.965 128.701 260.773 129.875 261.565C131.05 262.362 132.522 263.213 134.294 264.122C137.155 265.594 139.745 267.065 142.061 268.533C144.376 270.001 146.323 271.605 147.901 273.35C149.479 275.091 150.634 277.042 151.365 279.193C152.095 281.344 152.296 283.811 151.966 286.594C151.666 289.12 150.958 291.333 149.839 293.238C148.721 295.139 147.272 296.728 145.493 298C143.713 299.273 141.636 300.217 139.261 300.838C136.886 301.459 134.293 301.732 131.483 301.662L130.467 310.222L123.102 309.351L124.113 300.83C121.58 300.268 119.168 299.413 116.878 298.269C114.586 297.126 112.611 295.635 110.95 293.792C109.29 291.954 108.05 289.733 107.231 287.133C106.412 284.533 106.207 281.516 106.615 278.073L120.002 279.662C119.76 281.695 119.844 283.432 120.254 284.861C120.663 286.29 121.298 287.472 122.158 288.402C123.019 289.334 124.039 290.037 125.22 290.513C126.4 290.986 127.623 291.298 128.89 291.45C130.341 291.622 131.637 291.587 132.778 291.345C133.918 291.099 134.898 290.693 135.718 290.119C136.538 289.549 137.186 288.835 137.664 287.972C138.141 287.113 138.443 286.153 138.569 285.091Z" fill="#FFA412"/>
<path d="M243.628 183.96C237.349 194.89 229.453 199.105 229.453 199.105H196.601C196.601 199.105 248.417 175.626 243.628 183.96Z" fill="#233862"/>
<path d="M218.396 268.509C217.54 269.489 217.431 270.585 217.855 271.756C217.855 271.76 217.858 271.768 217.863 271.772C218.647 273.939 221.235 276.355 224.242 278.771C224.626 279.079 224.968 279.36 225.266 279.622C225.344 279.692 225.422 279.759 225.496 279.829C225.556 279.883 225.615 279.938 225.673 279.989C228.477 282.573 227.422 283.166 232.459 288.413C238.203 294.389 242.158 294.494 243.283 293.951C244.234 293.487 242.301 290.317 240.158 286.754C240.054 286.582 239.952 286.41 239.846 286.234C239.561 285.762 239.277 285.282 238.994 284.806C236.483 280.516 237.127 278.506 237.723 272.123C238.206 266.94 245.79 243.156 245.79 243.156L234.782 241.259C234.782 241.259 231.467 260.198 227.815 263.114C225.862 264.668 223.676 264.687 221.799 265.839C221.666 265.921 221.536 266.003 221.408 266.089C220.341 266.795 219.255 267.525 218.396 268.509Z" fill="#FFB27D"/>
<path d="M218.396 268.509C217.54 269.489 217.431 270.585 217.855 271.756C217.855 271.76 217.858 271.768 217.863 271.772C218.823 273.935 221.346 276.339 224.253 278.748C224.633 279.064 224.968 279.353 225.266 279.622C225.344 279.692 225.422 279.759 225.496 279.829C225.556 279.883 225.615 279.938 225.673 279.989C228.477 282.573 227.422 283.166 232.459 288.413C238.203 294.389 242.158 294.494 243.283 293.951C244.234 293.487 242.301 290.317 240.158 286.754C239.04 286.344 233.846 284.236 229.919 279.208C226.46 274.797 224.154 269.126 221.799 265.839C221.666 265.921 221.536 266.003 221.408 266.089C220.341 266.795 219.255 267.525 218.396 268.509Z" fill="#233862"/>
<path d="M307.155 261.631C307.835 265.031 312.679 264.465 318.089 263.142C323.5 261.819 322.215 263.392 329.917 262.537C337.614 261.686 339.949 258.813 340.183 257.669C340.394 256.654 336.588 256.295 332.509 255.827C331.993 255.768 331.478 255.702 330.963 255.639C326.353 255.062 322.98 252.087 318.796 249.648C314.83 247.333 308.912 237.91 308.912 237.91L298.351 238.745C298.351 238.745 303.893 247.165 306.037 250.822C307.298 252.977 307.231 255.823 307.074 258.02C306.992 259.215 306.914 260.437 307.155 261.631Z" fill="#FFB27D"/>
<path d="M318.089 263.142C323.499 261.819 322.215 263.392 329.917 262.537C337.614 261.686 339.949 258.813 340.183 257.669C340.394 256.654 336.588 256.295 332.509 255.827L332.47 255.905C332.47 255.905 327.852 259.18 321.442 259.332C316.216 259.457 310.681 257.962 307.074 258.02C306.992 259.215 306.914 260.437 307.155 261.631C307.835 265.031 312.679 264.465 318.089 263.142Z" fill="#233862"/>
<path d="M266.681 194.101L256.808 220.668L243.918 255.358C243.918 255.358 240.42 255.693 237.07 254.729C233.986 253.839 230.448 251.505 230.448 251.505C230.448 251.505 234.027 214.262 240.704 192.879C242.415 187.391 244.332 182.952 246.448 180.454C256.799 168.221 266.681 194.101 266.681 194.101Z" fill="#233862"/>
<path d="M256.643 151.909C250.174 149.821 231.727 152.502 213.195 156.129L209.315 149.727L169.287 146.604C169.287 146.604 156.078 175.896 163.31 194.558C164.372 197.302 167.003 198.458 170.603 198.516C170.605 198.516 170.606 198.52 170.608 198.52C170.608 198.52 194.492 199.106 202.228 199.106C222.135 199.106 244.357 185.42 247.232 184.846C251.938 183.906 253.819 193.317 258.525 203.196C263.23 213.08 302.755 246.958 302.755 246.958C302.755 246.958 308.83 247.017 311.34 246.076C314.038 245.065 315.025 243.749 315.025 243.749C315.025 243.749 271.229 156.613 256.643 151.909Z" fill="#2B478B"/>
<path d="M205.062 32.1862C202.061 30.3984 199.137 30.1408 197.366 30.1993C196.087 30.2383 194.81 30.1173 193.542 29.9456C178.374 27.908 169.245 49.9508 168.708 56.6296C167.719 68.9372 161.207 70.8147 152.041 78.524C133.662 93.9817 139.052 111.945 149.101 118.616C155.131 122.621 165.759 118.616 165.759 118.616C165.909 118.722 194.826 102.452 209.079 94.6062C230.448 91.5655 213.647 37.2958 205.062 32.1862Z" fill="#233862"/>
<path d="M197.132 87.9234C197.195 87.9663 190.119 90.3786 185.388 88.2864C180.937 86.319 177.565 78.9962 177.631 78.9922C179.656 78.8986 181.879 77.1264 183.591 65.5098L184.453 65.822L198.95 71.037C198.95 71.037 197.899 75.69 197.22 80.1165C196.648 83.8365 196.341 87.4003 197.132 87.9234Z" fill="#FFB27D"/>
<path d="M198.95 71.0371C198.95 71.0371 197.899 75.6901 197.22 80.1166C188.893 78.6177 185.625 70.3228 184.453 65.8221L198.95 71.0371Z" fill="#ED975D"/>
<path d="M201.109 75.6547C201.109 75.6547 181.275 72.9925 183.123 60.6654C184.97 48.3383 183.655 39.6961 196.397 40.875C209.139 42.0499 210.888 47.1244 211.272 51.387C211.656 55.6495 206.316 76.0294 201.109 75.6547Z" fill="#FFB27D"/>
<path d="M210.549 44.6303C210.549 44.6303 197.852 55.5716 189.216 56.4538C180.579 57.336 177.31 54.5645 177.31 54.5645C177.31 54.5645 182.4 50.3371 185.464 43.5178C186.367 41.5075 188.274 40.1257 190.47 39.9383C196.637 39.4035 208.327 39.1615 210.549 44.6303Z" fill="#233862"/>
<path d="M202.612 43.6509C202.612 43.6509 206.86 47.7573 208.197 50.8059C209.488 53.7452 209.875 60.7753 208.847 63.5663C208.847 63.5663 215.466 50.6966 211.719 44.4472C207.746 37.8152 202.612 43.6509 202.612 43.6509Z" fill="#233862"/>
<path d="M213.834 117.141C213.234 157.292 213.669 148.903 209.278 152.713C208.219 153.63 205.244 154.177 201.329 154.434C189.018 155.25 167.376 153.224 166.553 150.948C163.713 143.075 165.718 140.628 163.349 128.578C163.102 127.294 162.796 125.908 162.437 124.397C160.462 116.118 158.54 113.304 165.548 100.005C171.903 87.9585 178.505 78.1803 179.099 78.5316C195.867 88.4854 197.219 80.1203 197.219 80.1203C197.219 80.1203 214.128 97.5571 213.834 117.141Z" fill="white"/>
<path d="M256.808 220.668L243.918 255.358C243.918 255.358 240.42 255.693 237.07 254.729C233.986 253.839 230.448 251.505 230.448 251.505C230.448 251.505 234.027 214.262 240.704 192.879L256.808 220.668Z" fill="#2B478B"/>
<path d="M197.22 80.1159C197.22 80.1159 214.473 83.0435 216.499 90.4717C218.525 97.9 230.448 141.572 230.448 141.572C230.448 141.572 221.677 143.145 217.625 139.093C213.573 135.041 203.526 101.499 203.526 101.499L197.22 80.1159Z" fill="white"/>
<path d="M201.329 154.434C189.018 155.25 167.376 153.224 166.553 150.948C163.713 143.075 165.718 140.628 163.349 128.578L169.287 111.855C169.287 111.855 168.305 130.475 173.796 135.374C179.282 140.273 196.279 144.828 198.948 148.919C200.235 150.882 201.082 152.853 201.329 154.434Z" fill="#EBF3FF"/>
<path d="M187.223 146.604C187.223 146.604 199.369 143.899 201.329 144.976C203.289 146.054 208.079 149.981 208.678 151.347C209.278 152.713 204.315 150.309 202.701 149.875C201.655 149.594 198.903 150.551 197.542 151.007C191.809 152.916 188.297 151.932 188.297 151.932L187.223 146.604Z" fill="#FFB27D"/>
<path d="M179.089 78.5244C179.089 78.5244 162.78 79.5276 157.135 87.4048C149.188 98.4867 133.422 145.726 142.457 152.026C152.633 159.123 188.767 153.884 188.767 153.884C188.767 153.884 189.969 148.263 188.296 145.543C186.623 142.826 159.436 138.435 158.181 137.178C156.926 135.925 173.866 112.707 173.866 108.944C173.866 105.181 179.089 78.5244 179.089 78.5244Z" fill="white"/>
<path d="M201.917 148.357C201.917 148.357 204.462 151.639 205.296 152.03C206.13 152.424 206.669 152.326 206.669 152.326L204.954 149.239L201.917 148.357Z" fill="#FFB27D"/>
<path d="M201.329 144.976L208.728 148.567C208.728 148.567 208.413 149.082 207.502 149.043C206.591 149 204.293 148.161 204.293 148.161L201.329 144.976Z" fill="#FFB27D"/>
<path d="M205.296 157.061H263.824L281.431 113.276H222.993L205.296 157.061Z" fill="#F99746"/>
<path d="M264.511 155.355H187.223V157.061H263.824L264.511 155.355Z" fill="#ED7D2B"/>
<path d="M249.05 135.167C249.491 133.629 248.601 132.383 247.062 132.383C245.523 132.383 243.918 133.629 243.476 135.167C243.035 136.708 243.925 137.954 245.464 137.954C247.003 137.954 248.609 136.708 249.05 135.167Z" fill="white"/>
</svg>
