<svg width="367" height="365" viewBox="0 0 367 365" fill="none" xmlns="http://www.w3.org/2000/svg">
<path d="M188.882 364.421C166.298 364.421 148.165 361.27 138.77 359.521C102.402 352.753 71.7006 347.977 45.3233 324.147C7.50383 289.978 -5.29075 232.389 1.92154 176.964C8.63441 235.874 42.1321 298.626 145.455 323.818C145.886 323.924 146.314 323.974 146.729 323.974C149.841 323.974 152.368 321.194 151.959 318.016C159.958 323.365 168.639 328.466 178.006 333.251L178.474 342.917H198.902C202.791 344.543 206.771 346.117 210.87 347.648C210.87 347.648 210.682 346.003 210.283 342.917H281.957C249.501 359.878 215.988 364.421 188.882 364.421ZM358.362 251.123L363.141 152.94C369.136 185.734 367.786 220.16 358.362 251.123ZM169.589 159.424C154.16 110.997 133.621 61.2035 106.727 20.8045C106.395 20.3061 106.041 19.8433 105.665 19.4148C121.083 10.7422 138.724 3.9845 158.33 1.42126C160.118 1.18732 161.45 1.05505 162.619 0.93045C165.473 0.62912 172.081 -0.000244141 181.276 -0.000244141C208.485 -0.000244141 258.393 5.50388 301.085 41.2697C309.26 48.119 322.417 60.4736 334.618 79.3178C346.164 97.1486 354.732 117.516 360.105 138.919L334.333 110.449L176.696 109.484C176.678 109.484 176.658 109.483 176.64 109.483C171.486 109.483 167.374 113.798 167.63 118.954L169.589 159.424ZM65.1487 107.614C57.9305 96.5268 50.238 85.8607 42.079 75.8976C50.0958 65.4577 63.5961 49.7871 81.8652 35.4147C75.6479 53.9142 68.7157 79.1499 65.1487 107.614Z" fill="#F9F7FF"/>
<path d="M1.92142 176.964C-3.07855 133.085 6.78089 91.3357 13.7165 68.8399C15.2232 63.9538 19.7785 61.1871 24.3804 61.1871C27.3138 61.1871 30.2662 62.3111 32.4596 64.7281C35.7376 68.3415 38.9418 72.0656 42.0788 75.8977C37.8787 81.3662 35.1857 85.398 34.1005 87.056C17.1996 112.879 6.13932 144.55 1.92142 176.964Z" fill="#31C5A1"/>
<path d="M146.729 323.974C146.313 323.974 145.886 323.924 145.455 323.819C42.1319 298.626 8.6342 235.874 1.92133 176.964C6.13924 144.549 17.1996 112.879 34.1004 87.0558C35.1856 85.3979 37.8786 81.3661 42.0788 75.8976C50.2378 85.8607 57.9303 96.5268 65.1485 107.614C56.6584 175.364 67.2371 261.354 151.959 318.016C152.368 321.194 149.84 323.974 146.729 323.974ZM29.6833 115.793C29.4927 115.793 29.2947 115.942 29.3374 116.177C51.7074 240.189 118.635 302.732 136.026 315.482C136.122 315.552 136.221 315.581 136.316 315.581C136.691 315.581 136.994 315.114 136.661 314.791C70.5414 250.856 37.9031 144.783 29.9849 116.022C29.9411 115.863 29.814 115.793 29.6833 115.793Z" fill="#31C5A1"/>
<path d="M136.316 315.581C136.221 315.581 136.122 315.552 136.026 315.482C118.635 302.732 51.7075 240.189 29.3375 116.177C29.2948 115.942 29.4928 115.793 29.6834 115.793C29.8141 115.793 29.9412 115.863 29.9849 116.022C37.9031 144.784 70.5415 250.857 136.661 314.791C136.994 315.114 136.691 315.581 136.316 315.581Z" fill="#D0FEF3"/>
<path d="M334.333 110.449L176.696 109.484C171.516 109.452 167.373 113.779 167.63 118.954L178.474 342.917H353.894L363.633 142.818L334.333 110.449Z" fill="#A893FB"/>
<path d="M340.887 141.858C335.753 141.677 331.805 137.252 332.209 132.13L333.899 110.744L363.665 142.687L340.887 141.858Z" fill="#7D97F4"/>
<path d="M321.72 149.77C321.669 149.77 321.62 149.768 321.569 149.767L194.737 146.779C192.293 146.722 190.255 145.279 190.035 143.452L189.978 142.989C189.731 140.944 191.829 139.23 194.536 139.23C194.596 139.23 194.657 139.232 194.718 139.233C216.564 139.847 300.43 142.113 321.607 142.684C324.278 142.756 326.402 144.47 326.3 146.469C326.203 148.332 324.194 149.77 321.72 149.77Z" fill="#E7E1FF"/>
<path d="M281.287 165.442C281.255 165.442 281.223 165.442 281.191 165.441L194.153 162.387C193.429 162.361 192.768 162.046 192.421 161.563C190.642 159.078 192.945 156.158 196.622 156.158C196.677 156.158 196.73 156.159 196.785 156.16L281.448 158.137C282.587 158.164 283.499 158.895 283.454 159.747L283.234 164.038C283.194 164.832 282.337 165.442 281.287 165.442Z" fill="#E7E1FF"/>
<path d="M319.796 188.76C319.745 188.76 319.696 188.76 319.645 188.759L192.813 185.77C190.369 185.713 188.331 184.269 188.11 182.442L188.054 181.98C187.807 179.935 189.905 178.221 192.612 178.221C192.672 178.221 192.733 178.223 192.793 178.224C214.639 178.838 298.506 181.104 319.683 181.674C322.354 181.747 324.478 183.461 324.375 185.46C324.279 187.322 322.269 188.76 319.796 188.76Z" fill="#E7E1FF"/>
<path d="M279.147 204.249C279.115 204.249 279.083 204.249 279.052 204.248L192.013 201.194C191.29 201.168 190.627 200.853 190.282 200.37C188.502 197.885 190.805 194.965 194.482 194.965C194.536 194.965 194.591 194.966 194.645 194.967L279.307 196.945C280.448 196.971 281.358 197.702 281.315 198.554L281.095 202.845C281.054 203.639 280.197 204.249 279.147 204.249Z" fill="#E7E1FF"/>
<path d="M322.503 228.359C322.454 228.359 322.403 228.359 322.353 228.358L195.52 225.37C193.078 225.312 191.039 223.87 190.818 222.042L190.762 221.579C190.516 219.534 192.613 217.822 195.32 217.822C195.38 217.822 195.441 217.822 195.501 217.824C217.347 218.437 301.214 220.703 322.391 221.275C325.063 221.346 327.186 223.061 327.083 225.059C326.988 226.923 324.978 228.359 322.503 228.359Z" fill="#E7E1FF"/>
<path d="M322.962 245.982C322.885 245.982 322.807 245.981 322.728 245.977L195.384 240.853C194.325 240.81 193.351 240.479 192.832 239.986C190.212 237.494 193.374 234.674 198.607 234.674C198.765 234.674 198.925 234.676 199.085 234.681L322.929 238.671C324.597 238.726 325.946 239.478 325.902 240.332L325.682 244.621C325.642 245.4 324.454 245.982 322.962 245.982Z" fill="#E7E1FF"/>
<path d="M298.188 264.627C298.14 264.627 298.091 264.626 298.043 264.625L196.05 260.783C195.643 258.849 195.225 256.891 194.799 254.916C195.564 254.664 196.447 254.521 197.413 254.521C197.503 254.521 197.595 254.522 197.686 254.525L298.277 257.32C299.631 257.359 300.721 258.097 300.676 258.95L300.456 263.242C300.415 264.029 299.421 264.627 298.188 264.627Z" fill="#E7E1FF"/>
<path d="M267.247 311.039C267.765 304.433 270.004 297.958 273.521 292.278C275.288 289.441 277.364 286.783 279.743 284.414C280.354 283.839 280.949 283.246 281.573 282.684C282.215 282.144 282.843 281.583 283.5 281.059C284.173 280.556 284.838 280.038 285.528 279.559L286.582 278.863L287.11 278.516L287.374 278.343C287.47 278.284 287.598 278.207 287.713 278.146C289.565 277.124 292.224 277.076 294.019 278.88C294.456 279.313 294.762 279.835 294.988 280.346C295.091 280.603 295.191 280.863 295.251 281.116C295.329 281.376 295.371 281.625 295.414 281.875C295.573 282.876 295.527 283.805 295.434 284.703C295.387 285.152 295.313 285.592 295.235 286.022L294.994 287.232C294.84 288.042 294.66 288.845 294.483 289.649C294.127 291.257 293.725 292.854 293.303 294.445C291.584 300.802 289.307 307.008 286.492 312.96L285.414 315.18C285.036 315.911 284.669 316.647 284.284 317.374L283.7 318.461L283.408 319.005L283.086 319.573C282.641 320.327 282.142 321.059 281.564 321.757C280.983 322.45 280.324 323.117 279.504 323.679C278.692 324.234 277.667 324.684 276.53 324.74C276.248 324.768 275.967 324.738 275.686 324.708C275.401 324.693 275.141 324.6 274.87 324.536C274.333 324.391 273.823 324.131 273.376 323.815C272.476 323.176 271.828 322.292 271.428 321.339C271.04 320.398 270.871 319.415 270.863 318.46C270.852 317.505 270.996 316.595 271.191 315.738C271.392 314.877 271.64 314.072 271.915 313.284L272.319 312.095L272.774 310.925C273.996 307.809 275.614 304.861 277.502 302.11C279.383 299.353 281.605 296.839 284.051 294.577L284.509 294.151L284.985 293.747L285.939 292.94C286.265 292.679 286.598 292.43 286.927 292.174C287.257 291.921 287.582 291.659 287.928 291.428C288.61 290.95 289.285 290.464 289.999 290.032L290.526 289.699L290.791 289.532C290.838 289.504 290.872 289.48 290.929 289.447L291.104 289.349C291.573 289.102 292.086 288.937 292.617 288.881C293.673 288.756 294.814 289.072 295.635 289.821C296.058 290.193 296.398 290.728 296.552 291.278C296.715 291.831 296.708 292.361 296.661 292.839C296.61 293.32 296.507 293.76 296.398 294.174L296.067 295.358L295.409 297.705C294.537 300.835 293.63 303.955 292.743 307.082L292.74 307.088L291.368 306.843C291.47 305.791 291.753 304.73 292.334 303.775C292.629 303.302 292.99 302.863 293.444 302.498C293.898 302.127 294.425 301.868 294.98 301.704C295.538 301.547 296.135 301.491 296.731 301.589C297.029 301.639 297.326 301.721 297.606 301.854C297.749 301.912 297.882 301.995 298.015 302.074L298.292 302.248C298.964 302.625 299.802 302.697 300.491 302.393C300.665 302.323 300.824 302.224 300.976 302.114C301.048 302.053 301.125 302 301.189 301.93L301.293 301.829L301.419 301.696L302.418 300.629L304.418 298.497L306.418 296.364L307.418 295.297C307.663 295.039 308.015 294.811 308.408 294.732C308.8 294.648 309.207 294.704 309.552 294.862C309.899 295.018 310.2 295.275 310.404 295.611C310.609 295.945 310.698 296.365 310.651 296.749C310.646 296.848 310.625 296.938 310.6 297.029C310.577 297.114 310.545 297.226 310.528 297.266L310.408 297.603L310.182 298.281C309.888 299.187 309.64 300.108 309.433 301.037C309.227 301.968 309.063 302.908 308.946 303.852C308.933 303.969 308.915 304.094 308.906 304.203L308.898 304.492C308.885 304.589 308.903 304.683 308.915 304.775C308.933 304.867 308.926 304.966 308.961 305.054C309.04 305.421 309.236 305.749 309.476 306.038C309.716 306.33 310.049 306.544 310.398 306.693C310.572 306.777 310.761 306.81 310.946 306.857C311.134 306.873 311.322 306.903 311.51 306.878C311.883 306.849 312.254 306.753 312.571 306.54L312.695 306.47L312.806 306.379L313.032 306.194L313.549 305.688C314.924 304.338 316.24 302.925 317.489 301.457C319.983 298.515 322.215 295.353 324.147 292.015L324.855 290.755L325.198 290.118L325.369 289.799L325.411 289.72L325.412 289.714L325.41 289.73C325.409 289.784 325.431 289.794 325.426 289.79C325.426 289.79 325.437 289.797 325.458 289.794C325.478 289.79 325.508 289.785 325.508 289.78H325.505L325.443 289.842L325.32 289.967C325.237 290.05 325.157 290.135 325.077 290.221C324.915 290.39 324.761 290.566 324.608 290.741C323.996 291.451 323.44 292.21 322.951 293.008C322.707 293.409 322.477 293.817 322.263 294.235C322.157 294.444 322.054 294.655 321.957 294.867L321.813 295.189L321.743 295.349L321.696 295.494C321.419 296.249 321.414 297.082 321.759 297.798C322.096 298.51 322.711 299.115 323.458 299.384C323.823 299.547 324.221 299.58 324.61 299.59C324.999 299.554 325.393 299.491 325.756 299.306L326.03 299.18L326.341 298.999C326.545 298.877 326.755 298.763 326.957 298.634C327.367 298.388 327.77 298.131 328.17 297.868C331.361 295.76 334.221 293.148 336.597 290.154L336.599 290.153C336.839 289.85 337.279 289.799 337.581 290.039C337.884 290.28 337.935 290.72 337.695 291.022C335.223 294.135 332.254 296.847 328.941 299.035C328.526 299.307 328.107 299.574 327.682 299.831C327.472 299.963 327.255 300.084 327.041 300.21L326.718 300.397L326.332 300.58C325.819 300.834 325.236 300.946 324.658 300.989C324.079 300.985 323.487 300.918 322.953 300.689C321.864 300.285 320.983 299.43 320.489 298.384C319.982 297.336 319.985 296.066 320.386 295.006L320.455 294.803L320.531 294.629L320.686 294.283C320.792 294.053 320.903 293.826 321.017 293.599C321.247 293.149 321.495 292.708 321.759 292.277C322.287 291.414 322.887 290.595 323.548 289.827C323.715 289.638 323.883 289.447 324.058 289.264C324.143 289.171 324.231 289.078 324.32 288.989L324.454 288.853L324.521 288.786C324.563 288.746 324.611 288.707 324.658 288.669C324.852 288.521 325.112 288.407 325.379 288.398C325.644 288.384 325.898 288.451 326.112 288.571C326.533 288.8 326.847 289.292 326.805 289.836C326.792 289.963 326.768 290.098 326.721 290.206C326.699 290.261 326.674 290.323 326.651 290.369L326.606 290.45L326.432 290.776L326.082 291.427L325.359 292.714C323.384 296.126 321.103 299.357 318.554 302.362C317.279 303.864 315.934 305.306 314.528 306.686L314 307.203L313.662 307.484L313.49 307.622L313.297 307.735C312.797 308.061 312.197 308.231 311.604 308.274C311.304 308.305 311.008 308.271 310.712 308.236C310.423 308.171 310.132 308.109 309.863 307.985C309.32 307.756 308.812 307.42 308.426 306.961C308.041 306.51 307.733 305.971 307.601 305.382C307.552 305.24 307.551 305.088 307.527 304.941C307.507 304.792 307.486 304.644 307.499 304.497L307.515 304.056L307.559 303.679C307.681 302.69 307.852 301.707 308.067 300.735C308.283 299.762 308.543 298.8 308.851 297.851L309.088 297.143L309.213 296.791C309.241 296.718 309.234 296.709 309.246 296.678C309.255 296.651 309.264 296.624 309.261 296.6C309.273 296.501 309.256 296.419 309.208 296.336C309.158 296.254 309.072 296.178 308.975 296.136C308.768 296.055 308.614 296.084 308.439 296.254L307.438 297.32L305.438 299.453L303.439 301.587L302.439 302.652L302.314 302.786L302.158 302.941C302.053 303.048 301.933 303.138 301.817 303.232C301.575 303.41 301.316 303.566 301.037 303.679C299.93 304.163 298.627 304.044 297.603 303.465L297.261 303.251C297.184 303.208 297.11 303.158 297.027 303.126C296.866 303.049 296.689 303 296.507 302.97C296.141 302.908 295.744 302.942 295.366 303.049C294.596 303.265 293.966 303.788 293.524 304.508C293.088 305.223 292.844 306.09 292.76 306.974L291.388 306.728L291.39 306.721C292.177 303.568 292.945 300.411 293.747 297.261L294.345 294.899L294.638 293.728C294.727 293.354 294.797 292.998 294.821 292.669C294.847 292.341 294.83 292.042 294.751 291.816C294.674 291.587 294.557 291.414 294.369 291.252C293.973 290.912 293.408 290.76 292.854 290.843C292.579 290.879 292.306 290.976 292.062 291.112L291.972 291.167L291.854 291.245L291.607 291.41L291.113 291.741C290.445 292.168 289.814 292.65 289.177 293.119C288.854 293.348 288.553 293.606 288.244 293.854C287.939 294.105 287.627 294.35 287.326 294.605L286.44 295.396L285.995 295.79L285.568 296.202C283.28 298.388 281.209 300.806 279.47 303.447C277.724 306.08 276.24 308.891 275.138 311.845L274.726 312.953L274.365 314.077C274.116 314.827 273.898 315.581 273.743 316.306C273.422 317.757 273.41 319.15 273.903 320.285C274.141 320.822 274.509 321.285 274.944 321.578C275.161 321.725 275.389 321.84 275.639 321.895C275.891 321.96 276.136 322 276.384 321.974C276.875 321.946 277.404 321.742 277.925 321.381C278.446 321.019 278.943 320.521 279.399 319.968C279.854 319.411 280.268 318.793 280.643 318.146L280.918 317.65L281.199 317.119L281.758 316.054C282.128 315.342 282.481 314.623 282.843 313.907L283.875 311.734C286.557 305.91 288.764 299.864 290.421 293.671C290.828 292.121 291.216 290.566 291.558 288.999C291.727 288.216 291.901 287.434 292.048 286.646L292.28 285.467C292.346 285.097 292.404 284.735 292.441 284.375C292.515 283.662 292.537 282.951 292.434 282.345C292.332 281.737 292.135 281.247 291.854 280.974C291.723 280.819 291.545 280.721 291.345 280.618C291.121 280.537 290.894 280.45 290.643 280.44C290.151 280.395 289.607 280.511 289.12 280.772C289.055 280.807 289.008 280.834 288.932 280.881L288.685 281.041L288.193 281.36L287.209 282C286.561 282.44 285.945 282.926 285.306 283.378C284.683 283.854 284.088 284.366 283.477 284.858C282.882 285.371 282.317 285.915 281.733 286.441C279.475 288.625 277.429 291.044 275.672 293.666C272.141 298.901 269.712 304.906 268.636 311.209C268.571 311.59 268.21 311.847 267.828 311.784C267.47 311.723 267.222 311.395 267.247 311.039Z" fill="white"/>
<path d="M340.011 289.779C339.778 289.779 339.551 289.662 339.417 289.45C339.213 289.123 339.312 288.692 339.638 288.486L346.625 284.11C346.952 283.905 347.384 284.004 347.589 284.331C347.793 284.659 347.694 285.09 347.368 285.295L340.382 289.671C340.267 289.744 340.138 289.779 340.011 289.779Z" fill="white"/>
<path d="M210.87 347.647C210.87 347.647 187.399 141.987 106.727 20.804C101.304 12.6578 89.6603 13.9788 86.2173 23.1612C63.1929 84.5607 11.5715 273.211 210.87 347.647Z" fill="#31C5A1"/>
<path d="M193.135 333.188C193.015 333.188 192.89 333.14 192.779 333.027C175.4 315.513 109.867 232.084 98.2476 81.5717C98.2273 81.306 98.4205 81.1585 98.6112 81.1585C98.7676 81.1585 98.9228 81.2577 98.9571 81.4738C104.579 116.75 129 247.316 193.527 332.291C193.838 332.701 193.515 333.188 193.135 333.188Z" fill="#D0FEF3"/>
<path d="M203.097 348.309H171.432L185.655 0.243317L187.621 0.488708L203.097 348.309Z" fill="#582EFF"/>
<path d="M261.195 318.583H112.9V303.721H261.195V318.583Z" fill="#623AFF"/>
<path d="M274.937 333.446H100.302V318.583H274.937V333.446Z" fill="#6C47FF"/>
<path d="M287.535 348.309H86.5608V333.445H287.535V348.309Z" fill="#582EFF"/>
<path d="M310.464 83.1143H75.5561V77.2224H310.464V83.1143Z" fill="#643EFF"/>
<path d="M7.72825 174.156L5.96475 172.834L79.5587 74.6286L135.11 172.953L133.191 174.037L79.2993 78.6502L7.72825 174.156Z" fill="#724FFE"/>
<path d="M87.2433 79.0978C87.2433 83.4131 83.7443 86.9121 79.429 86.9121C75.1137 86.9121 71.6149 83.4131 71.6149 79.0978C71.6149 74.7825 75.1137 71.2847 79.429 71.2847C83.7443 71.2847 87.2433 74.7825 87.2433 79.0978Z" fill="#6C47FF"/>
<path d="M235.607 176.243L233.844 174.922L307.438 76.7163L362.989 175.04L361.07 176.123L307.178 80.7366L235.607 176.243Z" fill="#714DFE"/>
<path d="M209.51 83.7172C209.51 96.2015 199.389 106.322 186.906 106.322C174.421 106.322 164.301 96.2015 164.301 83.7172C164.301 71.2328 174.421 61.1134 186.906 61.1134C199.389 61.1134 209.51 71.2328 209.51 83.7172Z" fill="#704BFF"/>
<path d="M313.227 79.5514C313.227 83.8667 309.728 87.3657 305.412 87.3657C301.097 87.3657 297.598 83.8667 297.598 79.5514C297.598 75.2361 301.097 71.7384 305.412 71.7384C309.728 71.7384 313.227 75.2361 313.227 79.5514Z" fill="url(#paint0_linear_2_13361)"/>
<path d="M298.377 239.234C333.532 239.234 362.03 210.736 362.03 175.582H234.725C234.725 210.736 263.223 239.234 298.377 239.234Z" fill="#582EFF"/>
<path d="M365.65 178.72H229.548C228.805 178.72 228.197 178.112 228.197 177.369V170.376C228.197 169.634 228.805 169.026 229.548 169.026H365.65C366.392 169.026 367 169.634 367 170.376V177.369C367 178.112 366.392 178.72 365.65 178.72Z" fill="url(#paint1_linear_2_13361)"/>
<path d="M70.4984 237.146C105.653 237.146 134.151 208.65 134.151 173.495H6.84629C6.84629 208.65 35.3443 237.146 70.4984 237.146Z" fill="#582EFF"/>
<path d="M137.771 176.633H1.66836C0.925708 176.633 0.318081 176.026 0.318081 175.283V168.29C0.318081 167.548 0.925708 166.94 1.66836 166.94H137.771C138.513 166.94 139.121 167.548 139.121 168.29V175.283C139.121 176.026 138.513 176.633 137.771 176.633Z" fill="url(#paint2_linear_2_13361)"/>
<path d="M190.575 357.581C186.583 357.469 184.517 356.998 183.45 356.562C183.447 356.959 183.45 357.363 183.463 357.782C183.477 358.229 183.807 358.587 184.215 358.584L206.136 358.442C206.837 358.438 207.245 357.627 206.943 356.984C204.068 357.222 196.747 357.754 190.575 357.581Z" fill="url(#paint3_linear_2_13361)"/>
<path d="M184.386 349.175C184.888 347.393 186.533 346.184 188.385 346.242L190.215 346.299C199.959 348.636 204.889 354.022 206.826 356.728C206.864 356.78 206.887 356.837 206.912 356.893C204.039 357.131 196.718 357.662 190.546 357.489C186.552 357.378 184.488 356.907 183.421 356.471C183.439 353.353 183.899 350.905 184.386 349.175Z" fill="url(#paint4_linear_2_13361)"/>
<path d="M193.294 340.008L191.763 347.378C191.65 347.919 191.235 348.323 190.733 348.37C190.118 348.429 189.242 348.462 188.36 348.333C187.571 348.216 187.02 347.414 187.16 346.553L188.224 340.008H193.294Z" fill="url(#paint5_linear_2_13361)"/>
<path d="M161.57 357.581C165.562 357.469 167.627 356.998 168.695 356.562C168.697 356.959 168.695 357.363 168.682 357.782C168.668 358.229 168.338 358.587 167.93 358.584L146.007 358.442C145.308 358.438 144.9 357.627 145.202 356.984C148.077 357.222 155.398 357.754 161.57 357.581Z" fill="url(#paint6_linear_2_13361)"/>
<path d="M145.202 356.984C145.229 356.928 145.252 356.871 145.289 356.819C147.225 354.113 152.156 348.727 161.9 346.39L166.574 346.243C166.574 346.243 168.655 349.86 168.695 356.562C167.627 356.998 165.562 357.468 161.57 357.58C155.398 357.753 148.077 357.222 145.202 356.984Z" fill="url(#paint7_linear_2_13361)"/>
<path d="M167.441 339.16C167.389 339.508 166.748 344.802 166.5 346.856C166.442 347.344 166.088 347.722 165.642 347.775C164.846 347.87 163.558 347.957 162.432 347.725C161.824 347.601 161.384 347.017 161.384 346.338V338.025L167.441 339.16Z" fill="url(#paint8_linear_2_13361)"/>
<path d="M171.191 242.52C171.191 242.52 159.917 285.365 160.12 339.282C160.124 340.265 160.814 341.113 161.777 341.317C163.195 341.614 165.277 341.969 167.003 341.921C167.923 341.895 168.694 341.212 168.849 340.305C170.429 331.033 179.501 278.809 184.669 270.331C184.669 270.331 188.07 316.844 186.983 340.976C186.957 341.576 187.395 342.096 187.993 342.165C188.898 342.27 190.345 342.349 192.189 342.153C192.888 342.08 193.452 341.551 193.552 340.854C194.678 333.009 201.159 286.308 200.883 252.666C200.868 250.769 195.866 242.52 195.866 242.52H171.191Z" fill="#16016A"/>
<path d="M206.335 205.256C209.4 196.87 208.288 186.743 208.276 186.641L207.432 186.738C207.444 186.837 208.531 196.771 205.536 204.965L206.335 205.256Z" fill="url(#paint9_linear_2_13361)"/>
<path d="M127.78 208.764C125.25 194.999 128.881 172.314 128.881 172.314L133.825 177.439C133.825 177.439 134.661 195.958 138.181 203.622C135.865 203.898 131.373 204.933 127.78 208.764Z" fill="url(#paint10_linear_2_13361)"/>
<path d="M138.181 203.622C138.846 205.069 139.607 206.129 140.475 206.605C143.654 208.351 149.822 198.391 154.418 189.758C157.724 183.555 160.219 178.038 160.219 178.038C163.525 174.304 171.713 173.79 179.331 174.266C187.259 174.758 194.559 176.319 195.088 176.435C195.108 176.44 195.119 176.44 195.119 176.44C198.768 176.922 201.937 177.324 204.227 177.615C206.903 177.953 209.353 179.275 211.119 181.317C218.117 189.415 233.478 211.593 215.398 233.941C213.088 232.656 209.797 230.598 207.564 228.212C209.564 222.574 209.728 215.37 205.539 206.531C205.397 207.234 205.216 207.927 205.005 208.61C199.224 226.911 198.917 242.145 198.932 245.651C198.932 246.133 198.646 246.562 198.203 246.736C190.602 249.782 175.961 247.968 171.052 247.238C170.148 247.106 169.545 246.265 169.666 245.36C171.132 234.745 167.134 219.967 163.04 208.388C139.015 232.195 130.434 223.206 127.78 208.764C131.373 204.933 135.865 203.898 138.181 203.622Z" fill="#FF9362"/>
<path d="M194.136 243.575C196.223 242.404 204.314 237.379 207.567 228.212C209.799 230.596 213.086 232.654 215.4 233.939C211.946 238.209 207.27 242.486 201.081 246.672C200.862 251.434 197.201 253.197 196.364 254.741C195.526 256.283 196.716 255.931 196.187 257.87C195.658 259.809 190.105 254.784 188.782 253.638C187.46 252.493 188.253 249.319 188.253 249.319C188.253 249.319 188.166 248.658 187.812 247.335C187.46 246.016 194.11 243.585 194.136 243.575Z" fill="url(#paint11_linear_2_13361)"/>
<path d="M191.114 162.683L192.58 177.655C192.58 177.655 184.157 180.192 178.031 175.87L182.337 162.262L191.114 162.683Z" fill="url(#paint12_linear_2_13361)"/>
<path d="M176.818 149.924C176.718 150.184 176.294 168.585 176.294 168.585L186.807 168.604L189.8 151.223C189.8 151.223 178.493 145.575 176.818 149.924Z" fill="url(#paint13_linear_2_13361)"/>
<path d="M186.197 153.395C186.539 153.717 186.711 154.173 186.668 154.64L185.823 163.779C185.81 163.918 185.779 164.052 185.729 164.182C185.449 164.897 184.375 167.101 182.137 165.878C180.23 164.836 178.464 163.904 177.028 163.859C176.19 163.832 175.499 164.507 175.482 165.345C175.449 167.072 175.453 170.557 175.89 173.654C175.999 174.43 176.695 174.985 177.477 174.936C179.542 174.806 183.565 174.431 186.795 173.392C187.327 173.222 187.718 172.776 187.819 172.228C188.265 169.814 189.54 163.058 190.194 161.206C190.802 159.485 193.163 158.889 194.265 158.702C194.683 158.631 195.051 158.392 195.284 158.037C195.982 156.973 196.989 154.674 194.219 152.931C193.531 152.499 193.333 151.576 193.751 150.879C194.503 149.629 195.042 147.701 192.853 146.052C190.636 144.383 188.489 145.169 187.174 146.01C186.592 146.383 185.809 146.361 185.295 145.899C185.066 145.694 184.753 145.576 184.326 145.684C183.523 145.887 182.72 145.448 182.512 144.646C182.155 143.27 181.183 141.726 178.647 141.587C173.992 141.333 172.352 146.181 172.87 149.358C173.388 152.537 178.45 152.527 181.197 151.61C183.215 150.937 185.256 152.513 186.197 153.395Z" fill="url(#paint14_linear_2_13361)"/>
<path d="M189.848 164.579C189.848 164.579 189.183 159.002 191.362 158.171C193.543 157.34 196.195 158.635 194.726 162.23C192.898 166.701 189.848 164.579 189.848 164.579Z" fill="url(#paint15_linear_2_13361)"/>
<path d="M162.864 207.885L162.897 207.883C163.042 207.865 163.145 207.733 163.127 207.588C163.112 207.472 161.688 195.913 162.461 192.583C162.494 192.441 162.405 192.299 162.264 192.266C162.121 192.23 161.979 192.32 161.946 192.463C161.151 195.884 162.542 207.175 162.602 207.654C162.619 207.787 162.733 207.885 162.864 207.885Z" fill="url(#paint16_linear_2_13361)"/>
<path d="M134.251 181.281C147.478 194.83 148.781 212.92 145.403 235.174L141.335 235.062C141.946 218.962 139.014 205.429 129.815 191.464L134.251 181.281Z" fill="#B2ECDD"/>
<path d="M130.826 148.791C130.826 148.791 121.496 150.36 118.653 154.479C116.372 157.784 107.209 155.601 104.199 162.535C102.646 166.116 99.0207 168.282 95.153 167.761C85.5205 166.462 69.9065 167.068 62.9249 182.403C57.596 194.109 62.4607 200.573 68.5243 204.099C72.9779 206.689 74.7945 212.296 72.3973 216.857C70.0986 221.23 69.9062 227.012 76.7081 233.631C91.9527 248.462 119.412 221.684 119.412 221.684L139.585 166.758L130.826 148.791Z" fill="url(#paint17_linear_2_13361)"/>
<path d="M77.9095 349.032L77.2458 354.484C77.1199 355.518 76.3062 356.335 75.2712 356.453C73.5236 356.653 70.7193 356.858 67.9755 356.568C66.7712 356.441 65.9894 355.22 66.3562 354.067C67.0251 351.963 68.2486 348.803 70.0129 346.944H76.0595C77.1784 346.944 78.0442 347.922 77.9095 349.032Z" fill="url(#paint18_linear_2_13361)"/>
<path d="M125.273 285.176L126.292 291.18C126.292 291.18 122.875 325.801 122.267 339.65C122.171 341.82 122.733 343.966 123.873 345.816L129.815 355.468L114.712 346.555L114.411 344.711L116.884 341.311L113.644 302.527C113.454 300.249 113.925 297.964 114.999 295.946L118.123 290.077L125.273 285.176Z" fill="url(#paint19_linear_2_13361)"/>
<path d="M130.811 356.866H125.991C125.088 356.866 124.238 356.452 123.687 355.737C122.184 353.784 119.072 349.975 117.583 349.876C115.578 349.741 115.835 356.866 115.835 356.866H114.712L113.288 348.013C112.931 345.786 114.038 343.578 116.038 342.534C116.038 342.534 116.497 345.923 118.98 347.422C121.464 348.92 129.089 354.286 129.089 354.286C129.089 354.286 130.023 354.153 131.047 354.339C132.568 354.613 132.356 356.866 130.811 356.866Z" fill="url(#paint20_linear_2_13361)"/>
<path d="M104.583 288.028C104.583 288.028 84.5606 326.01 81.3769 334.682C78.1944 343.355 77.0794 350.588 77.0362 351.273C76.97 352.344 75.6388 353.371 71.9683 353.371C70.0742 353.371 69.1466 352.611 68.6925 351.876C68.305 351.249 68.285 350.465 68.6115 349.805C69.7697 347.46 73.4453 339.969 74.8073 336.571C76.4322 332.516 79.9287 314.132 81.8461 307.739C83.7634 301.347 85.9299 294.414 94.2808 288.028C94.2808 288.028 100.013 282.414 104.583 288.028Z" fill="url(#paint21_linear_2_13361)"/>
<path d="M117.233 225.791C122.398 203.905 110.057 191.158 110.057 191.158C118.312 183.233 132.612 179.995 132.612 179.995C132.612 179.995 146.966 190.488 145.263 198.703C144.265 203.517 135.174 227.54 135.174 227.54C135.174 227.54 126.766 231.518 117.233 225.791Z" fill="#E0F7F1"/>
<path d="M105.781 236.626C107.883 230.294 117.233 225.791 117.233 225.791C126.766 231.518 135.174 227.539 135.174 227.539C135.174 227.539 137.059 234.746 135.758 241.442C134.456 248.139 126.292 291.179 126.292 291.179C113.429 293.785 93.6452 288.557 93.6452 288.557C101.838 274.009 103.679 242.959 105.781 236.626Z" fill="#582EFF"/>
<path d="M127.041 164.975C126.858 165.73 126.703 166.493 126.535 167.251C125.841 170.366 125.148 173.482 124.454 176.597C124.122 178.09 123.79 179.581 123.457 181.074C123.206 182.201 122.33 184.062 124.015 184.338C126.417 184.732 130.563 184.749 132.49 182.979C133.242 182.287 133.195 181.462 133.331 180.473L135.135 167.393C135.277 166.356 134.717 165.348 133.759 164.923L130.278 163.379C128.938 162.786 127.386 163.55 127.041 164.975Z" fill="url(#paint22_linear_2_13361)"/>
<path d="M138.752 149.816C138.752 149.816 142.188 153.981 141.855 161.916C141.523 169.853 137.747 171.624 134.724 170.558C131.703 169.492 127.53 167.233 125.234 160.794C122.938 154.355 134.176 144.614 138.752 149.816Z" fill="url(#paint23_linear_2_13361)"/>
<path d="M130.001 158.957C130.001 158.957 131.547 147.9 139.866 152.109L141.099 154.484C141.099 154.484 146.831 150.902 143.145 145.834C139.459 140.768 132.572 139.762 126.951 145.358C121.33 150.953 118.623 155.252 120.469 160.3C122.315 165.349 125.667 162.471 125.667 162.471C125.667 162.471 125.317 158.469 126.937 157.272C128.557 156.076 129.345 158.953 129.345 158.953L130.001 158.957Z" fill="url(#paint24_linear_2_13361)"/>
<path d="M129.654 160.567C129.654 160.567 130.481 154.889 127.239 155.628C123.997 156.367 126.745 161.015 127.909 162.664L129.654 160.567Z" fill="url(#paint25_linear_2_13361)"/>
<path d="M129.031 234.874C130.927 236.695 133.003 238.327 135.196 239.777C137.388 241.227 139.464 241.267 141.886 240.121C143.529 239.343 144.97 238.205 146.478 237.191C146.868 236.927 147.405 236.674 147.773 236.967C149 237.942 145.575 242.982 144.877 243.828C144.391 244.418 143.874 244.988 143.267 245.452C138.96 248.743 130.976 243.849 126.953 241.53C125.088 240.454 123.302 239.241 121.625 237.895C122.806 235.666 124.436 233.651 126.255 231.899C127.122 232.94 128.051 233.933 129.031 234.874Z" fill="url(#paint26_linear_2_13361)"/>
<path d="M108.671 195.291C108.73 195.002 109.735 191.188 110.057 191.158C120.413 190.201 120.075 204.024 120.075 204.024C118.939 208.664 118.638 213.523 119.56 218.227C120.558 223.32 122.967 227.953 126.255 231.899C124.436 233.651 122.806 235.667 121.625 237.896C119.72 236.367 117.956 234.667 116.385 232.791C110.007 225.176 107.41 215.285 107.575 205.486C107.634 202.066 108.002 198.646 108.671 195.291Z" fill="#B8E8DB"/>
<path d="M155.084 224.153C155.084 224.153 115.594 191.972 108.267 194.846C100.939 197.72 95.3971 212.382 116.075 231.697C136.751 251.011 172.99 245.469 155.084 224.153Z" fill="white"/>
<path d="M105.431 208.145C105.749 207.795 106.218 207.626 106.768 207.612C105.93 203.077 107.126 198.487 110.454 196.641C113.781 194.795 118.309 196.209 121.713 199.32C122.016 198.861 122.408 198.553 122.873 198.468C124.261 198.214 125.754 200.009 126.206 202.477C126.448 203.802 126.339 205.047 125.975 205.959C127.341 210.609 125.553 214.896 121.753 217.006C117.953 219.114 113.368 218.362 110.146 214.743C109.178 214.568 108.064 214.001 107.069 213.095C105.214 211.405 104.48 209.189 105.431 208.145Z" fill="url(#paint27_linear_2_13361)"/>
<path d="M171.895 130.912C171.895 138.754 165.538 145.11 157.697 145.11C149.854 145.11 143.498 138.754 143.498 130.912C143.498 123.071 149.854 116.715 157.697 116.715C165.538 116.715 171.895 123.071 171.895 130.912Z" fill="white"/>
<path d="M156.286 142.056C155.512 142.107 154.793 141.747 154.392 141.105L147.669 130.308C147.04 129.296 147.379 127.911 148.427 127.213C149.474 126.517 150.835 126.771 151.464 127.782L156.127 135.277L162.279 122.747C162.831 121.622 164.158 121.105 165.242 121.594C166.325 122.082 166.756 123.388 166.204 124.512L158.254 140.717C157.889 141.459 157.165 141.97 156.363 142.05C156.338 142.052 156.312 142.055 156.286 142.056Z" fill="#FF9362"/>
<defs>
<linearGradient id="paint0_linear_2_13361" x1="308.463" y1="72.355" x2="302.362" y2="86.7472" gradientUnits="userSpaceOnUse">
<stop stop-color="#4F52FF"/>
<stop offset="1" stop-color="#4042E2"/>
</linearGradient>
<linearGradient id="paint1_linear_2_13361" x1="297.485" y1="170.257" x2="293.458" y2="42.0644" gradientUnits="userSpaceOnUse">
<stop stop-color="#4F52FF"/>
<stop offset="1" stop-color="#4042E2"/>
</linearGradient>
<linearGradient id="paint2_linear_2_13361" x1="68.0316" y1="181.567" x2="91.2538" y2="47.0129" gradientUnits="userSpaceOnUse">
<stop stop-color="#4F52FF"/>
<stop offset="1" stop-color="#4042E2"/>
</linearGradient>
<linearGradient id="paint3_linear_2_13361" x1="195.246" y1="306.747" x2="195.246" y2="354.15" gradientUnits="userSpaceOnUse">
<stop stop-color="#4F52FF"/>
<stop offset="1" stop-color="#4042E2"/>
</linearGradient>
<linearGradient id="paint4_linear_2_13361" x1="204.514" y1="357.163" x2="151.978" y2="339.84" gradientUnits="userSpaceOnUse">
<stop stop-color="#09005D"/>
<stop offset="1" stop-color="#1A0F91"/>
</linearGradient>
<linearGradient id="paint5_linear_2_13361" x1="189.008" y1="332.913" x2="192.125" y2="360.12" gradientUnits="userSpaceOnUse">
<stop stop-color="#FEBBBA"/>
<stop offset="1" stop-color="#FF928E"/>
</linearGradient>
<linearGradient id="paint6_linear_2_13361" x1="156.898" y1="306.747" x2="156.898" y2="354.15" gradientUnits="userSpaceOnUse">
<stop stop-color="#4F52FF"/>
<stop offset="1" stop-color="#4042E2"/>
</linearGradient>
<linearGradient id="paint7_linear_2_13361" x1="166.971" y1="355.268" x2="118.044" y2="339.135" gradientUnits="userSpaceOnUse">
<stop stop-color="#09005D"/>
<stop offset="1" stop-color="#1A0F91"/>
</linearGradient>
<linearGradient id="paint8_linear_2_13361" x1="163.614" y1="335.825" x2="166.731" y2="363.031" gradientUnits="userSpaceOnUse">
<stop stop-color="#FEBBBA"/>
<stop offset="1" stop-color="#FF928E"/>
</linearGradient>
<linearGradient id="paint9_linear_2_13361" x1="206.495" y1="194.623" x2="195.564" y2="163.24" gradientUnits="userSpaceOnUse">
<stop stop-color="#4F52FF"/>
<stop offset="1" stop-color="#4042E2"/>
</linearGradient>
<linearGradient id="paint10_linear_2_13361" x1="133.708" y1="210.753" x2="152.048" y2="324.932" gradientUnits="userSpaceOnUse">
<stop stop-color="#FEBBBA"/>
<stop offset="1" stop-color="#FF928E"/>
</linearGradient>
<linearGradient id="paint11_linear_2_13361" x1="215.4" y1="243.261" x2="187.799" y2="243.261" gradientUnits="userSpaceOnUse">
<stop stop-color="#FEBBBA"/>
<stop offset="1" stop-color="#FF928E"/>
</linearGradient>
<linearGradient id="paint12_linear_2_13361" x1="182.12" y1="158.678" x2="194.023" y2="210.115" gradientUnits="userSpaceOnUse">
<stop stop-color="#FEBBBA"/>
<stop offset="1" stop-color="#FF928E"/>
</linearGradient>
<linearGradient id="paint13_linear_2_13361" x1="180.641" y1="151.528" x2="190.307" y2="185.185" gradientUnits="userSpaceOnUse">
<stop stop-color="#FEBBBA"/>
<stop offset="1" stop-color="#FF928E"/>
</linearGradient>
<linearGradient id="paint14_linear_2_13361" x1="193.28" y1="163.583" x2="169.741" y2="154.518" gradientUnits="userSpaceOnUse">
<stop stop-color="#09005D"/>
<stop offset="1" stop-color="#1A0F91"/>
</linearGradient>
<linearGradient id="paint15_linear_2_13361" x1="201.552" y1="183.287" x2="191.991" y2="160.984" gradientUnits="userSpaceOnUse">
<stop stop-color="#FEBBBA"/>
<stop offset="1" stop-color="#FF928E"/>
</linearGradient>
<linearGradient id="paint16_linear_2_13361" x1="199.098" y1="106.562" x2="154.918" y2="219.546" gradientUnits="userSpaceOnUse">
<stop stop-color="#FDF53F"/>
<stop offset="1" stop-color="#D93C65"/>
</linearGradient>
<linearGradient id="paint17_linear_2_13361" x1="145.562" y1="138.997" x2="73.3209" y2="221.559" gradientUnits="userSpaceOnUse">
<stop stop-color="#09005D"/>
<stop offset="1" stop-color="#1A0F91"/>
</linearGradient>
<linearGradient id="paint18_linear_2_13361" x1="77.9234" y1="351.828" x2="66.2655" y2="351.828" gradientUnits="userSpaceOnUse">
<stop stop-color="#09005D"/>
<stop offset="1" stop-color="#1A0F91"/>
</linearGradient>
<linearGradient id="paint19_linear_2_13361" x1="127.185" y1="397.802" x2="110.408" y2="201.726" gradientUnits="userSpaceOnUse">
<stop stop-color="#FEBBBA"/>
<stop offset="1" stop-color="#FF928E"/>
</linearGradient>
<linearGradient id="paint20_linear_2_13361" x1="132.085" y1="349.7" x2="113.221" y2="349.7" gradientUnits="userSpaceOnUse">
<stop stop-color="#09005D"/>
<stop offset="1" stop-color="#1A0F91"/>
</linearGradient>
<linearGradient id="paint21_linear_2_13361" x1="93.4366" y1="400.719" x2="76.6555" y2="204.59" gradientUnits="userSpaceOnUse">
<stop stop-color="#FEBBBA"/>
<stop offset="1" stop-color="#FF928E"/>
</linearGradient>
<linearGradient id="paint22_linear_2_13361" x1="133" y1="203.776" x2="129.862" y2="180.818" gradientUnits="userSpaceOnUse">
<stop stop-color="#FEBBBA"/>
<stop offset="1" stop-color="#FF928E"/>
</linearGradient>
<linearGradient id="paint23_linear_2_13361" x1="133.955" y1="178.037" x2="132.259" y2="121.932" gradientUnits="userSpaceOnUse">
<stop stop-color="#FEBBBA"/>
<stop offset="1" stop-color="#FF928E"/>
</linearGradient>
<linearGradient id="paint24_linear_2_13361" x1="144.497" y1="138.066" x2="72.2555" y2="220.627" gradientUnits="userSpaceOnUse">
<stop stop-color="#09005D"/>
<stop offset="1" stop-color="#1A0F91"/>
</linearGradient>
<linearGradient id="paint25_linear_2_13361" x1="128.367" y1="179.298" x2="126.671" y2="123.194" gradientUnits="userSpaceOnUse">
<stop stop-color="#FEBBBA"/>
<stop offset="1" stop-color="#FF928E"/>
</linearGradient>
<linearGradient id="paint26_linear_2_13361" x1="148.015" y1="239.412" x2="121.61" y2="239.09" gradientUnits="userSpaceOnUse">
<stop stop-color="#FEBBBA"/>
<stop offset="1" stop-color="#FF928E"/>
</linearGradient>
<linearGradient id="paint27_linear_2_13361" x1="112.134" y1="186.336" x2="120.125" y2="231.617" gradientUnits="userSpaceOnUse">
<stop stop-color="#FEBBBA"/>
<stop offset="1" stop-color="#FF928E"/>
</linearGradient>
</defs>
</svg>
