<svg width="410" height="258" viewBox="0 0 410 258" fill="none" xmlns="http://www.w3.org/2000/svg">
<path d="M378.124 255.77L18.6001 255.897C13.8083 245.258 11.514 236.424 10.914 228.76C10.7685 226.881 10.7239 225.075 10.7685 223.326C10.8611 219.77 11.3256 216.465 12.0644 213.333C15.4959 198.779 24.8284 187.968 30.0583 172.988C30.9046 170.569 31.6418 168.04 32.2303 165.371C32.9873 161.929 33.4997 158.256 33.6716 154.272V154.27C33.7328 152.832 33.7526 151.355 33.7229 149.831C33.7229 149.829 33.7229 149.829 33.7229 149.829C33.6386 145.605 33.184 141.048 32.265 136.08C32.146 135.438 32.0203 134.791 31.8848 134.135C31.7939 133.682 31.698 133.226 31.5955 132.767C30.8748 129.462 30.2765 126.208 29.7955 123.012C29.5327 121.252 29.3046 119.514 29.1112 117.789V117.787C28.9773 116.591 28.8599 115.403 28.7591 114.223C19.3026 3.10573 156.301 -37.3196 197.312 39.7598C229.004 99.3228 266.24 108.194 279.154 98.0761C309.477 74.3203 350.807 70.3207 386.255 128.856C426.208 194.83 378.124 255.77 378.124 255.77Z" fill="#F9F7FF"/>
<path d="M366.426 147.359C366.426 147.359 369.686 146.177 371.793 149.479C373.899 152.783 372.76 152.469 373.785 154.121C374.811 155.772 375.303 160.466 375.657 163.003C379.27 188.883 336.05 190.98 352.927 157.993C354.51 154.899 355.849 153.039 357.273 149.737C358.697 146.435 364.717 146.562 366.426 147.359Z" fill="#C26941"/>
<path d="M357.179 171.535L352.82 170.012C352.82 170.012 351.09 172.224 350.571 177.755C350.052 183.286 350.571 186.538 350.571 186.538H355.502L357.179 171.535Z" fill="#4F3B9C"/>
<path d="M365.911 168.567C364.434 168.719 353.433 167.674 352.82 170.013C349.526 182.587 354.057 199.945 355.214 201.104C356.372 202.262 375.276 198.49 375.276 198.49C375.276 198.49 378.242 167.295 365.911 168.567Z" fill="#654DC1"/>
<path d="M380.925 155.676C380.925 155.676 379.71 155.098 378.607 153.052C377.898 151.739 375.792 150.057 376.667 149.786C377.544 149.514 378.888 151.733 379.14 151.096C379.391 150.461 376.883 145.656 377.678 145.41C378.472 145.163 380.553 149.837 380.778 149.268C381.002 148.699 378.654 144.616 379.776 144.267C380.9 143.92 382.114 149.294 382.716 149.107C383.319 148.919 382.44 144.819 383.344 144.539C384.248 144.258 384.121 149.609 384.446 149.455C384.622 149.372 385.424 146.78 385.916 146.975C386.47 147.194 384.971 152.516 385.637 153.688C386.302 154.861 391.629 169.44 389.807 171.262C387.824 173.246 375.196 177.797 372.554 177.015C369.912 176.232 368.398 173.62 369.033 172.015C369.668 170.409 382.153 166.801 382.351 166.298C382.55 165.794 380.925 155.676 380.925 155.676Z" fill="#ECB9A2"/>
<path d="M381.937 151.071C382.319 151.056 382.695 151.14 383.057 151.274C383.11 151.312 384.306 151.661 384.822 152.984C384.253 152.307 383.621 151.559 381.937 151.071Z" fill="#E9A07F"/>
<path d="M210.265 248.013C210.056 246.512 210.526 243.931 211.701 239.891C209.374 239.896 207.418 238.867 205.04 238.903C204.39 242.7 203.384 248.937 203.384 248.937L203.277 253.867L219.835 253.992C219.835 253.992 219.697 254.062 214.815 250.978C214.455 250.751 210.468 249.463 210.265 248.013Z" fill="#ECB9A2"/>
<path d="M203.197 255.135H220.291C220.923 255.078 221.077 254.562 220.857 254.245C220.406 253.589 217.072 252.018 214.831 250.976C210.9 251.389 203.989 249.77 203.37 248.86C202.291 251.876 202.846 255.058 203.197 255.135Z" fill="#459682"/>
<path d="M189.639 248.013C189.428 246.512 189.073 244.632 189.595 239.627C187.267 239.634 185.054 239.197 182.676 239.233C182.676 243.14 182.757 248.937 182.757 248.937L182.649 253.867L199.207 253.992C199.207 253.992 199.071 254.062 194.189 250.978C193.827 250.751 189.84 249.463 189.639 248.013Z" fill="#ECB9A2"/>
<path d="M182.57 255.135H199.663C200.295 255.078 200.449 254.562 200.231 254.245C199.78 253.589 196.446 252.018 194.205 250.976C190.272 251.389 183.363 249.77 182.742 248.86C181.663 251.876 182.218 255.058 182.57 255.135Z" fill="#459682"/>
<path d="M201.672 105.025L207.899 98.4536C207.899 98.4536 214.567 102.121 222.339 105.624C224.475 101.905 227.961 89.6722 228.15 89.089C228.337 88.5043 224.065 81.1563 225.021 80.9709C225.976 80.787 227.218 84.8956 228.227 84.4791C229.238 84.0625 231.836 74.5314 232.444 75.0516C233.58 76.0246 231.077 80.9803 231.677 81.3402C232.276 81.7017 233.797 75.8485 234.956 76.0984C236.112 76.3483 233 81.4267 233.341 81.9155C233.682 82.4028 236.938 77.6387 237.609 78.7421C237.975 79.341 234.608 82.8916 235.3 83.2877C235.993 83.6853 239.026 81.4503 239.39 82.1733C239.751 82.8979 236.557 83.6523 235.671 85.4866C234.784 87.3192 233.172 88.0328 232.637 91.4986C232.104 94.9596 230.64 113.486 226.864 114.973C223.567 116.271 201.672 105.025 201.672 105.025Z" fill="#ECB9A2"/>
<path d="M205.696 140.467L200.644 143.285L190.377 158.982L208.739 202.199C208.739 202.199 206.67 208.698 205.997 211.946C205.292 215.342 203.563 244.502 203.563 244.502L211.396 244.632C211.396 244.632 218.837 213.591 220.096 203.516C221.627 191.282 212.31 162.143 212.31 162.143C210.573 156.199 206.827 143.969 206.827 143.969C206.827 143.969 205.911 140.989 205.696 140.467Z" fill="#4F3B9C"/>
<path d="M188.116 134.571C188.116 134.571 188.637 138.265 186.548 142.475C185.275 145.044 183.075 147.057 181.5 150.202C178.52 156.156 176.901 164.611 178.019 170.046C178.019 170.046 184.181 193.58 183.938 202.18C183.847 205.352 182.759 211.067 182.063 214.93C181.447 218.346 181.663 243.681 181.663 243.681L189.986 243.843L196.685 202.287L199.517 165.348L205.694 140.468L188.116 134.571Z" fill="#654DC1"/>
<path d="M207.561 79.6709C206.753 75.8562 205.92 72.0274 202.129 69.28C199.061 67.0575 195.765 66.4209 192.271 67.6894C182.369 71.2808 187.694 79.1381 175.408 87.5124C171.59 90.1153 170.141 91.0222 167.401 94.4895C163.566 99.3446 161.469 105.856 163.396 111.219C167.384 122.308 179.738 125.511 186.2 123.16C198.228 118.784 208.25 103.529 208.916 99.3666C209.628 94.9107 208.082 82.1276 207.561 79.6709Z" fill="#2C1B71"/>
<path d="M208.479 109.152C211.266 110.441 216.315 112.376 216.315 112.376L219.186 103.293C202.953 94.0588 204.226 95.5488 192.043 95.7296C182.309 95.8679 178.231 94.0101 169.849 116.636C169.849 116.636 176.23 119.502 178.514 120.424C179.496 117.626 181.272 112.048 182.308 115.227C183.872 120.032 185.018 124.883 185.786 129.876C186.273 132.836 187.336 136.625 186.776 139.64C186.776 139.64 193.406 141.006 198.469 141.227C198.483 141.227 198.499 141.229 198.513 141.227C200.958 141.164 203.465 140.949 205.696 140.468C205.696 140.468 206.687 119.479 207.219 118.602C207.807 117.632 210.287 114.5 208.176 109.813C207.803 108.984 207.904 108.887 208.479 109.152Z" fill="#4CC1A5"/>
<path d="M193.568 86.3867C193.568 86.3867 192.793 92.6454 192.336 94.8192C191.858 97.0935 191.138 104.254 195.853 105.418C200.569 106.579 199.112 97.6247 199.19 95.3127C199.267 93.0006 200.605 84.9391 200.605 84.9391L193.568 86.3867Z" fill="#ECB9A2"/>
<path d="M193.312 88.3848C193.361 88.4131 193.405 88.4446 193.453 88.4713C196.059 89.966 198.327 89.7303 200.031 88.5672C200.335 86.5663 200.605 84.9395 200.605 84.9395L193.568 86.3871C193.568 86.3871 193.464 87.2202 193.312 88.3848Z" fill="#EC7C49"/>
<path d="M194.986 70.0862C194.986 70.0862 192.223 70.8627 190.629 73.607C189.037 76.3497 188.241 84.2305 194.107 87.5941C199.971 90.9561 204.135 85.5681 203.957 80.529C203.78 75.4884 202.375 68.821 194.986 70.0862Z" fill="#ECB9A2"/>
<path d="M205.253 78.3664C205.319 79.6757 204.757 80.7681 204.001 80.8073C203.244 80.8451 202.579 79.814 202.513 78.5047C202.449 77.1939 203.008 76.1015 203.766 76.0622C204.522 76.0245 205.188 77.0556 205.253 78.3664Z" fill="#ECB9A2"/>
<path d="M195.816 69.879C195.816 69.879 192.655 78.1213 189.56 78.9999C186.465 79.8786 186.714 83.9321 186.714 83.9321C186.714 83.9321 186.317 74.5613 189.144 72.2634C191.97 69.9655 195.816 69.879 195.816 69.879Z" fill="#2C1B71"/>
<path d="M190.887 80.6125C191.364 81.8997 191.052 83.209 190.189 83.5344C189.326 83.8597 188.238 83.0786 187.76 81.7897C187.284 80.5025 187.597 79.1932 188.46 78.8678C189.323 78.5425 190.41 79.3236 190.887 80.6125Z" fill="#ECB9A2"/>
<path d="M196.293 145.584C196.408 145.6 196.925 145.532 197.348 145.543C197.933 145.553 198.444 145.642 198.444 145.642C198.444 145.642 198.675 145.444 199.113 145.24C199.295 145.157 199.593 145.125 199.797 145.031C200.006 144.932 200.184 144.754 200.382 144.666C200.899 144.442 201.373 144.388 201.531 144.66C201.661 144.885 198.783 146.645 198.783 146.645C196.121 146.661 193.332 148.019 187.16 143.992C183.634 142.452 166.516 133.997 166.172 132.154C165.979 131.119 168.605 123.114 170.752 117.036C172.407 117.777 175.927 119.344 177.896 120.169C176.088 123.996 173.959 129.073 174.182 129.694C174.24 129.856 174.454 130.148 186.027 137.725C186.319 137.914 186.616 138.112 186.919 138.31C187.734 138.843 188.606 139.412 189.53 140.012L192.831 139.668C192.831 139.668 198.059 140.028 198.214 140.624C198.282 140.896 197.849 141.031 197.317 141.109H197.301C197.222 141.12 197.144 141.13 197.065 141.141C197.06 141.141 197.056 141.141 197.056 141.141C196.48 141.208 195.875 141.219 195.729 141.271C195.561 141.328 195.228 141.46 194.94 141.658C198.198 142.989 197.948 142.515 199.03 142.447C199.3 142.425 199.588 142.504 199.844 142.483C200.283 142.447 200.633 142.185 200.971 142.164C201.468 142.139 201.87 142.368 201.96 142.463C202.074 142.577 201.859 142.744 201.443 142.933C198.925 144.024 196.84 143.605 196.172 143.767C195.723 143.877 196.543 144.044 197.823 143.909C198.142 143.877 198.56 143.992 198.983 143.893C199.264 143.83 199.52 143.648 199.797 143.579C200.053 143.517 200.314 143.522 200.528 143.48C200.811 143.428 201.202 143.214 201.427 143.187C202.261 143.095 202.668 143.241 202.763 143.318C202.956 143.491 199.16 144.948 199.16 144.948C199.16 144.948 196.543 145.323 195.959 145.323C195.959 145.323 195.608 145.481 196.293 145.584Z" fill="#ECB9A2"/>
<path d="M408.132 255.134H1.15682C0.517897 255.134 0 255.636 0 256.252C0 256.87 0.517897 257.369 1.15682 257.369H408.132C408.771 257.369 409.289 256.87 409.289 256.252C409.289 255.636 408.771 255.134 408.132 255.134Z" fill="#3E2992"/>
<path d="M23.6342 172.48C23.6342 172.48 21.8842 194.067 21.8842 195.942C21.8842 197.817 29.3329 198.347 29.3329 198.347L31.6102 176.196L23.6342 172.48Z" fill="#654DC1"/>
<path d="M34.744 167.226C34.744 167.226 29.9111 164.637 25.9269 167.009C21.9428 169.381 20.8578 183.313 20.8578 183.313L33.6207 184.842L34.744 167.226Z" fill="#A693F0"/>
<path d="M64.2568 238.29C64.2568 238.29 61.8146 248.25 59.9944 249.814C58.1741 251.378 52.2384 254.369 53.7916 254.691C55.3448 255.012 66.8395 255.279 66.5244 253.363C66.2093 251.446 65.8786 250.223 65.8786 250.223L68.9191 243.109L64.2568 238.29Z" fill="#EC7C49"/>
<path d="M53.0188 255.098C55.8222 255.378 64.0075 255.672 66.3925 255.367C66.3925 255.367 66.8396 255.279 66.5245 253.363C66.4475 252.893 66.3695 252.467 66.2956 252.088C64.1327 252.657 59.4222 251.447 57.556 251.199C55.5289 252.17 53.2441 253.619 52.5071 253.74C51.4395 253.916 51.4405 254.941 53.0188 255.098Z" fill="#2C1B71"/>
<path d="M91.0616 246.639C91.0616 246.639 91.3179 249.158 91.3179 250.27C91.3179 251.379 90.2835 254.512 90.7628 254.991C91.2418 255.471 104.933 255.411 104.933 254.96C104.933 254.509 102.514 253.143 99.2258 252.203C95.9375 251.263 94.8196 247.621 95.6737 245.529L91.0616 246.639Z" fill="#EC7C49"/>
<path d="M105.154 254.991C105.154 254.57 102.909 253.281 100.001 252.392C96.9023 253.438 92.5992 252.575 90.9859 252.267C90.4921 253.558 90.3344 254.782 90.5884 255.035C91.0677 255.515 105.154 255.442 105.154 254.991Z" fill="#2C1B71"/>
<path d="M76.2006 204.533L73.745 206.712C73.745 206.712 70.9808 214.196 70.8198 214.69C70.596 215.377 61.6417 244.231 61.6417 244.231L67.8798 246.477C67.8798 246.477 74.0652 234.427 75.0901 230.241C76.1151 226.057 86.3642 208.548 86.3642 208.548L76.2006 204.533Z" fill="#A693F0"/>
<path d="M87.0472 208.975L90.0367 247.219H96.9548C96.9548 247.219 99.4316 218.597 98.5775 208.547L87.0472 208.975Z" fill="#A693F0"/>
<path d="M49.9799 182.328C49.9799 182.328 52.0821 192.605 53.9274 194.451C54.9776 195.501 57.84 199.751 60.0422 199.751C61.7948 199.751 62.8386 199.879 63.133 199.879C63.8163 199.879 63.0475 204.063 62.407 204.705C62.407 204.705 62.1934 205.344 60.9123 205.344C59.6311 205.344 52.8411 200.69 50.7914 198.641C48.7415 196.591 44.9407 185.402 44.9407 185.402L49.9799 182.328Z" fill="#ECB9A2"/>
<path d="M83.7163 169.431C83.7163 169.431 81.0687 172.505 77.567 177.716C74.0651 182.925 65.1156 197.39 64.1578 198.347C63.926 198.579 63.2 199.046 63.2 199.046C63.2 199.046 61.9433 198.776 61.2672 199.024C60.6064 199.268 59.7165 200.547 60.0297 200.862C60.3428 201.174 61.5509 200.128 61.9199 200.139C62.2893 200.151 62.3215 200.15 62.3215 200.349C62.3215 200.547 60.8268 201.374 60.3997 201.487C59.9728 201.602 58.8473 203.331 59.0617 203.908C59.2761 204.483 59.261 204.676 59.802 204.676C60.3428 204.676 60.4283 205.104 60.8837 205.104C61.3393 205.104 61.4533 204.533 61.9657 204.761C62.4782 204.989 62.6205 204.932 64.2147 203.964C65.8091 202.996 68.7841 199.395 70.2787 197.9C71.7733 196.406 85.4247 181.53 85.4247 181.53L83.7163 169.431Z" fill="#EC7C49"/>
<path d="M89.51 146.527C89.51 146.527 86.2502 145.345 84.1434 148.647C82.0368 151.95 83.1755 151.637 82.1506 153.287C81.1256 154.939 78.4495 154.598 78.4495 157.16C78.4495 159.722 79.6453 160.121 79.6453 160.121C79.6453 160.121 78.5635 162.114 79.7591 164.164C80.9548 166.213 83.9365 167.978 86.4314 167.694C86.4314 167.694 90.179 169.748 93.9369 168.778C97.6951 167.807 96.3854 167.807 97.9227 167.807C99.4602 167.807 103.617 165.701 102.933 162.627C102.933 162.627 105.466 159.617 103.009 157.16C100.551 154.702 100.086 152.206 98.663 148.904C97.2395 145.601 91.2184 145.729 89.51 146.527Z" fill="#3E2992"/>
<path d="M43.1473 168.267C43.6312 168.435 45.6107 169.845 46.7636 172.065C47.9166 174.285 50.9621 183.566 50.9621 183.566L45.9499 185.402L43.1473 168.267Z" fill="#4CC1A5"/>
<path d="M17.9232 244.789C17.9232 244.789 17.0975 247.722 16.4427 248.378C15.7879 249.031 13.6172 251.573 14.1509 252.832C14.6847 254.092 27.9125 255.897 28.4142 255.394C28.9159 254.892 26.1295 252.767 24.5496 251.466C22.9695 250.163 21.8378 248.561 22.4997 246.619C23.1615 244.676 23.1615 244.868 23.1615 244.676C23.1615 244.483 17.9232 244.789 17.9232 244.789Z" fill="#ECB9A2"/>
<path d="M28.4143 255.393C29.013 254.946 27.1546 252.938 24.4612 251.392C23.3338 251.39 21.8302 251.313 20.5568 250.996C18.563 250.497 17.0345 248.77 16.581 248.209C16.5398 248.267 13.3333 251.356 13.959 252.832C14.4926 254.092 27.2187 256.291 28.4143 255.393Z" fill="#4F3B9C"/>
<path d="M39.8712 246.213C39.8712 246.213 40.1155 249.225 39.6194 250.007C39.1232 250.789 37.3872 253.886 38.3548 254.855C39.2271 255.727 51.3441 255.166 51.7243 254.567C52.1045 253.968 50.0309 252.18 48.2048 251.254C46.3786 250.326 44.9247 249.011 45.147 246.969C45.3691 244.929 45.4109 245.116 45.3691 244.929C45.3271 244.742 39.8712 246.213 39.8712 246.213Z" fill="#ECB9A2"/>
<path d="M53.2292 255.049C53.8611 254.649 51.0682 252.123 48.1025 251.2C47.0017 251.444 45.5178 251.698 44.2054 251.665C42.151 251.614 40.2826 250.262 39.7177 249.814C39.6901 249.878 36.9299 253.877 38.167 254.897C39.133 255.694 52.2694 255.659 53.2292 255.049Z" fill="#4F3B9C"/>
<path d="M40.7558 203.565L32.9325 226.233L23.9588 247.219L16.4428 245.33C16.4428 245.33 19.1554 230.783 21.7033 226.214C23.6314 222.756 24.9776 202.914 24.9776 202.914L40.7558 203.565Z" fill="#EC7C49"/>
<path d="M36.9992 207.38L39.7097 247.219H46.1154C46.1154 247.219 48.9131 205.479 47.8882 201.509C46.8634 197.537 36.1916 198.435 36.1916 198.435L36.9992 207.38Z" fill="#C26941"/>
<path d="M43.1474 168.266C43.1474 168.266 34.892 165.793 33.6208 165.953C32.2291 166.127 28.847 167.919 28.847 167.919C28.847 167.919 29.0548 182.252 28.457 186.304C27.8591 190.356 23.674 203.337 23.674 203.337C23.674 203.337 29.5673 206.754 39.4748 205.645C49.3822 204.533 48.699 202.143 48.699 202.143C48.699 202.143 47.7594 187.794 46.8198 181.472C45.8803 175.152 43.1474 168.266 43.1474 168.266Z" fill="#A1DBCD"/>
<path d="M99.1754 170.456C99.1754 170.456 94.7769 169.302 89.7801 169.024C87.1931 168.881 83.7164 169.431 83.7164 169.431C83.7164 169.431 80.5563 176.52 79.6167 182.327C78.6775 188.135 73.5527 206.754 73.5527 206.754C73.5527 206.754 83.9726 214.783 99.1754 209.487V170.456Z" fill="#ECB9A2"/>
<path d="M87.332 164.106C87.332 164.106 87.4688 168.642 87.043 169.066C86.6172 169.492 86.0224 170.2 86.6488 171.281C87.2751 172.362 89.9939 171.672 91.2609 171.053C92.4769 170.459 93.2616 169.352 93.2616 169.352L92.6274 162.171L87.332 164.106Z" fill="#EC7C49"/>
<path d="M89.1398 165.986C90.0129 165.679 91.5386 165.09 92.7162 163.177L92.6274 162.171L87.332 164.106C87.332 164.106 87.3653 165.212 87.3478 166.383C88.0897 166.353 88.7233 166.132 89.1398 165.986Z" fill="#C26941"/>
<path d="M15.8075 148.16C15.8075 148.16 15.3722 150.177 17.4757 150.886C19.5792 151.595 20.8847 144.195 22.0813 142.731C23.278 141.27 26.9047 140.87 28.7905 143.791C29.8273 145.396 30.1515 146.095 30.2332 146.398C30.3004 146.647 30.2048 146.631 30.2048 146.631L29.6361 147.695C29.6361 147.695 27.8113 146.587 27.1223 148.61C26.4332 150.633 28.4641 153.943 26.7233 156.69C24.9825 159.438 21.7913 157.495 21.7913 157.495C19.1438 159.274 16.0976 156.558 15.1186 153.988C14.1394 151.417 15.8075 148.16 15.8075 148.16Z" fill="#EBB46C"/>
<path d="M36.5683 158.404L36.281 161.379L33.6207 165.953C33.6207 165.953 38.8659 172.303 40.4855 170.786C40.8471 170.446 41.76 163.726 41.76 163.726L36.5683 158.404Z" fill="#ECB9A2"/>
<path d="M36.2811 161.379L35.725 162.394C37.3607 163.862 39.4584 165.182 41.4415 165.942C41.6266 164.709 41.7601 163.725 41.7601 163.725L36.5684 158.403L36.2811 161.379Z" fill="#E9A07F"/>
<path d="M41.97 148.635C41.97 148.635 43.3568 149.893 43.8664 150.603C46.8991 154.83 44.4426 163.161 42.8593 163.855C40.4619 164.905 37.3418 163.493 33.8255 161.109C30.3093 158.724 29.1981 154.863 32.4177 151.504C35.6371 148.146 41.97 148.635 41.97 148.635Z" fill="#ECB9A2"/>
<path d="M30.3031 147.89L31.2612 146.974C35.0171 146.974 38.0118 144.709 42.2274 146.986C45.0098 148.489 43.8665 150.603 43.8665 150.603C33.5634 150.603 37.2801 158.723 36.0175 161.954C34.7553 165.186 26.877 158.198 30.3031 147.89Z" fill="#EBB46C"/>
<path d="M37.5104 157.035C37.5104 157.035 37.3648 154.37 35.7308 154.899C34.0965 155.427 35.37 159.442 36.7265 159.301C38.083 159.16 37.5104 157.035 37.5104 157.035Z" fill="#ECB9A2"/>
<path d="M93.5601 157.042C93.5601 157.042 93.689 154.377 95.3261 154.894C96.9638 155.413 95.7156 159.436 94.3583 159.303C93.0009 159.171 93.5601 157.042 93.5601 157.042Z" fill="#EC7C49"/>
<path d="M30.0335 145.883C30.0335 145.883 31.5856 146.845 32.2115 146.765C32.8374 146.685 31.2533 148.714 30.4136 148.924C29.5738 149.135 29.8696 148.327 29.6921 148.05C29.5147 147.772 28.8613 147.989 28.7104 147.783C28.3668 147.318 29.3001 145.971 30.0335 145.883Z" fill="#4CC1A5"/>
<path d="M58.9852 204.533C58.9852 204.533 60.4213 202.312 60.8909 202.205C61.3607 202.099 60.7842 203.722 60.7842 204.021C60.7842 204.319 61.6383 201.737 62.1081 201.737C62.5777 201.737 62.6419 202.078 62.4496 202.74C62.2574 203.402 61.8092 204.257 62.0226 204.257C62.2362 204.257 62.8448 201.383 63.197 201.737C63.5493 202.089 63.4141 204.437 62.7486 205.104C62.0831 205.769 60.1253 205.352 58.9852 204.533Z" fill="#ECB9A2"/>
<path d="M80.518 182.434C80.7584 182.18 81.4572 181.183 82.6475 181.578C83.678 181.92 84.0841 182.983 84.3762 183.462C84.2925 182.978 84.0972 182.145 84.3256 181.2C84.9329 178.687 88.009 178.913 87.9538 181.244C87.9321 182.159 87.6027 182.719 87.1392 183.699C87.3282 183.492 87.8944 182.807 88.6729 182.406C90.943 181.236 92.163 184.088 90.5566 185.6C89.7261 186.382 88.6699 186.403 88.025 186.478C88.5844 186.635 88.9192 186.683 89.4669 187.03C92.304 188.828 88.3566 193.683 86.2238 189.009C86.2211 189.004 86.2098 189.004 86.2029 189.001C86.3005 189.663 86.4885 190.472 86.2159 191.409C85.4777 193.946 82.1036 193.499 82.6887 190.628C82.8718 189.73 83.4682 188.779 83.5043 188.705C83.098 189.139 82.4981 189.861 81.6304 190.199C79.3962 191.073 78.331 187.918 80.3892 186.588C81.3104 185.993 82.2249 186.079 82.548 185.993C81.7845 185.809 81.0656 185.595 80.5441 184.955C79.8383 184.089 80.2173 183.234 80.1948 183.118C80.3026 182.89 80.4103 182.662 80.518 182.434ZM84.5179 187.33C85.1003 187.634 85.8354 187.244 86.1326 186.681C86.5441 185.905 86.2846 185.105 85.7019 184.831C85.0937 184.547 84.3935 184.82 84.0219 185.559C83.6774 186.244 83.9114 187.074 84.5179 187.33Z" fill="#EBB46C"/>
<path d="M88.4139 148.335C88.4139 148.335 85.8517 148.278 84.542 150.27C83.2324 152.263 81.809 157.957 83.9725 161.887C86.1364 165.815 88.8978 164.846 90.0367 164.449C91.1754 164.049 93.4246 163.168 94.5634 159.495C95.7021 155.821 94.8765 147.566 88.4139 148.335Z" fill="#EC7C49"/>
<path d="M30.1711 167.256C30.1711 167.256 32.0278 166.976 33.6208 173.004C35.4263 179.834 33.4823 186.909 30.4956 188.701C27.509 190.492 26.2784 190.147 26.2784 190.147L26.7473 194.361C26.7473 194.361 35.5713 192.385 36.7731 184.842C38.7427 172.48 32.9325 166.113 32.9325 166.113C32.9325 166.113 31.8398 166.287 31.5005 166.426C31.1377 166.573 30.1711 167.256 30.1711 167.256Z" fill="#654DC1"/>
<path d="M25.61 181.53C25.61 181.53 25.61 188.819 25.61 190.356C25.61 191.893 27.3751 202.301 29.5388 205.866C31.7024 209.431 34.6354 213.406 35.2424 213.634C35.8494 213.862 37.1687 214.698 37.852 214.014C38.5352 213.33 39.076 213.643 39.9303 213.274C40.7844 212.903 39.8164 211.68 38.6207 210.484C37.4249 209.288 37.1687 209.003 37.368 208.804C37.5672 208.604 38.5352 209.715 39.0478 209.544C39.5602 209.373 38.7347 207.579 37.3963 206.954C36.0584 206.327 33.9232 205.104 33.7239 204.448C33.5246 203.793 33.5246 203.964 33.5246 203.793C33.5246 203.623 32.0159 193.289 32.0159 191.266C32.0159 189.245 31.418 182.668 31.418 182.668L25.61 181.53Z" fill="#ECB9A2"/>
<path d="M29.6461 167.568C28.8697 167.666 26.7629 168.434 26.0228 170.94C25.2826 173.445 23.3324 180.562 23.6739 184.036C23.6739 184.036 31.9871 185.117 31.9871 184.776C31.9871 184.433 33.8057 175.523 32.8981 171.622C32.1066 168.221 30.9958 167.4 29.6461 167.568Z" fill="#4CC1A5"/>
<path d="M41.8547 167.887L47.6338 188.657C47.379 185.944 47.0994 183.354 46.8198 181.472C45.8803 175.152 43.1474 168.266 43.1474 168.266C43.1474 168.266 42.6387 168.114 41.8547 167.887Z" fill="#654DC1"/>
<path d="M75.543 209.753H91.5345V187.798L75.543 188.653V209.753Z" fill="#459682"/>
<path d="M75.543 186.942H90.8238C91.2163 186.942 91.5345 187.325 91.5345 187.799C91.5345 188.27 91.2163 188.654 90.8238 188.654H75.543L75.556 188.649C76.6119 188.171 76.6061 187.417 75.543 186.942Z" fill="#459682"/>
<path d="M75.98 187.195H90.298C90.5743 187.195 90.7983 187.465 90.7983 187.799C90.7983 188.13 90.5743 188.401 90.298 188.401H75.9804C76.4654 188.028 76.4646 187.568 75.98 187.195Z" fill="#F7D09C"/>
<path d="M99.1755 170.456C99.1755 170.456 97.978 171.655 96.6968 176.206C95.4158 180.756 94.7626 191.409 93.6525 192.519C92.542 193.63 85.2822 199.409 83.9726 199.21C82.6632 199.01 79.7308 195.595 78.8198 195.595C77.9086 195.595 78.0226 196.42 78.4782 196.876C78.9336 197.33 79.4887 197.858 79.2184 198.129C78.9479 198.399 78.9479 198.399 78.9479 198.399C78.9479 198.399 74.891 197.33 74.2077 197.729C73.5245 198.129 74.8625 199.067 74.8625 199.751C74.8625 200.434 74.6953 200.422 74.777 201.175C74.8589 201.927 75.0475 202.526 75.4034 202.883C75.7594 203.238 80.2432 204.533 84.6274 203.936C89.0118 203.337 94.364 201.231 98.3214 196.334C102.279 191.438 101.486 176.047 101.396 174.513C101.168 170.626 99.1755 170.456 99.1755 170.456Z" fill="#EC7C49"/>
<path d="M318.064 86.9955L321.392 86.3337L322.203 82.9733L325.986 82.4955L325.744 78.6463L329.999 77.917L330.212 74.3475L334.189 72.9769L334.712 74.4811L331.74 75.5059L331.514 79.2734L327.424 79.9744L327.671 83.8881L323.495 84.4146L322.704 87.6965L319.619 88.311L319.551 90.5759L317.957 90.5225L318.064 86.9955Z" fill="#4CC1A5"/>
<path d="M299.11 114.661L301.094 111.03L299.226 107.338C299.014 106.917 299.376 106.436 299.839 106.523L303.906 107.288L306.84 104.371C307.173 104.039 307.744 104.234 307.804 104.703L308.333 108.805L312.014 110.694C312.432 110.909 312.423 111.513 311.997 111.714L308.258 113.486L307.599 117.569C307.524 118.034 306.947 118.212 306.623 117.869L303.785 114.861L299.696 115.494C299.231 115.567 298.884 115.075 299.11 114.661Z" fill="#EC7C49"/>
<path d="M32.0203 103.076L34.458 99.7343L33.0866 95.8316C32.9304 95.3868 33.3518 94.9562 33.7997 95.1023L37.7318 96.388L41.0199 93.8764C41.3943 93.5919 41.9342 93.8591 41.9334 94.3306L41.9259 98.4675L45.3295 100.819C45.717 101.086 45.6293 101.682 45.181 101.828L41.2442 103.098L40.0596 107.062C39.9247 107.513 39.3307 107.614 39.0544 107.232L36.629 103.881L32.4931 103.98C32.0222 103.991 31.7427 103.456 32.0203 103.076Z" fill="#EBB46C"/>
<path d="M109.483 77.0179C109.324 74.7231 111.055 72.7333 113.35 72.5745C115.645 72.4158 117.634 74.1463 117.793 76.4411C117.952 78.7358 116.221 80.7241 113.927 80.8844C111.632 81.0432 109.643 79.3127 109.483 77.0179Z" fill="#EBB46C"/>
<path d="M116.546 88.7775C116.298 87.5704 116.147 86.2768 115.735 85.1122C115.381 84.1109 113.818 84.4174 113.897 85.4925C113.994 86.8097 114.405 88.1441 114.681 89.4345C114.793 89.9563 115.484 90.1999 115.942 90.0396C116.501 89.8432 116.654 89.304 116.546 88.7775Z" fill="#EBB46C"/>
<path d="M123.684 83.6189C122.303 82.8047 121.1 81.7956 119.827 80.8337C118.832 80.0824 117.759 81.376 118.577 82.2687C119.753 83.5529 121.296 84.5556 122.785 85.4342C123.257 85.7124 123.912 85.4405 124.142 84.9753C124.4 84.455 124.156 83.8971 123.684 83.6189Z" fill="#EBB46C"/>
<path d="M121.07 76.1627C120.757 76.4141 120.695 76.7741 120.888 77.1246C121.355 77.9702 122.539 77.9293 123.381 77.901C124.259 77.8696 125.137 77.692 125.968 77.4091C127.196 76.9894 126.529 75.0844 125.298 75.5057C122.889 76.3277 121.977 75.4349 121.07 76.1627Z" fill="#EBB46C"/>
<path d="M119.743 68.0649C118.531 69.8378 117.541 70.4367 117.695 71.4127C117.785 71.9833 118.236 72.2568 118.787 72.131C119.438 71.9833 119.793 71.2933 120.183 70.8092C120.558 70.3439 120.925 69.8787 121.259 69.3836C121.562 68.9341 121.605 68.3525 121.161 67.9659C120.788 67.6421 120.051 67.6138 119.743 68.0649Z" fill="#EBB46C"/>
<path d="M115.021 67.7572C114.633 66.6837 114.548 66.2923 114.046 65.7925C113.609 65.3587 112.686 65.6353 112.625 66.275C112.554 67.0216 112.71 67.2983 113.118 68.4283C113.302 68.9392 113.887 69.2252 114.404 69.0445C114.916 68.8653 115.206 68.2728 115.021 67.7572Z" fill="#EBB46C"/>
<path d="M109.92 70.3582C108.173 69.0316 107.817 68.6575 107.131 68.7298C106.728 68.7722 106.276 69.1589 106.364 69.61C106.528 70.4493 107.016 70.6772 108.623 71.8498C109.053 72.1641 109.645 72.1798 110.017 71.7523C110.35 71.3704 110.347 70.6835 109.92 70.3582Z" fill="#EBB46C"/>
<path d="M102.901 76.4442C102.212 76.8089 102.489 78.0003 103.235 78.0977C103.95 78.1904 104.225 78.0757 107.695 77.4423C108.23 77.3448 108.672 76.9535 108.631 76.3672C108.596 75.869 108.094 75.333 107.555 75.4304C103.952 76.0811 103.592 76.078 102.901 76.4442Z" fill="#EBB46C"/>
<path d="M108.336 82.1196C106.434 83.9586 106.156 83.6348 105.405 84.7586C105.062 85.2742 105.628 86.0946 106.226 85.9846C106.993 85.8431 107.199 85.7143 108.199 84.9221C108.78 84.4616 109.336 83.968 109.87 83.4541C110.265 83.0721 110.159 82.357 109.77 82.019C109.326 81.6324 108.732 81.7361 108.336 82.1196Z" fill="#EBB46C"/>
<path d="M76.9595 77.9434L80.2663 75.7508L78.9712 73.1149L82.1589 70.8406L81.2952 68.0994L83.4689 66.0844L82.6158 65.2577L79.7085 67.9533L80.5269 70.5498L77.2108 72.9169L78.4847 75.5103L75.4879 77.4954L76.9595 77.9434Z" fill="#A693F0"/>
<path d="M340.917 98.6216L337.052 97.7288L336.031 100.483L332.186 99.7344L330.791 102.246L327.832 102.054L327.82 103.243L331.776 103.499L333.098 101.118L337.098 101.897L338.102 99.189L341.606 99.9985L340.917 98.6216Z" fill="#EBB46C"/>
<path d="M72.1909 99.7611C72.1909 99.7611 73.404 98.4031 75.5219 98.6075C77.4104 98.7898 78.5671 100.417 78.3984 102.164C78.2029 104.187 76.1978 106.41 71.3912 108.046C66.9863 105.522 65.4432 102.955 65.6385 100.932C65.8075 99.1843 67.2537 97.809 69.1421 97.9913C71.2602 98.1957 72.1909 99.7611 72.1909 99.7611Z" fill="#E9A07F"/>
<path d="M56.5017 99.0525C58.3074 99.5271 59.7831 99.8179 61.2467 100.035C61.7292 100.106 62.5453 100.373 62.9408 100.008C63.1463 99.8179 63.2124 99.5601 63.0508 99.3134C62.7545 98.8591 62.0041 98.9094 61.518 98.8371C60.0355 98.6171 58.3687 98.298 56.7026 97.8768C56.3904 97.7982 56.0657 98.0638 56.0143 98.364C55.9559 98.7051 56.1893 98.9707 56.5017 99.0525Z" fill="#E9A07F"/>
<path d="M80.6801 106.54C81.3875 106.658 82.0967 106.762 82.8059 106.869C83.4843 106.969 84.2681 107.208 84.9452 107.073C85.4449 106.974 85.5829 106.35 85.1106 106.097C84.4998 105.768 83.6916 105.768 83.0112 105.668C82.3015 105.564 81.5923 105.459 80.8813 105.364C80.1216 105.265 79.9198 106.414 80.6801 106.54Z" fill="#E9A07F"/>
<path d="M61.6448 109.319C62.7598 107.961 63.9128 107.664 64.8271 107.216C65.3159 106.977 65.1699 106.285 64.6148 106.288C63.0938 106.298 61.6317 107.439 60.7229 108.571C60.2445 109.165 61.1585 109.911 61.6448 109.319Z" fill="#E9A07F"/>
<path d="M69.25 114.3C69.333 113.563 69.5527 112.863 69.9259 112.222C70.1544 111.829 71.1759 110.79 70.3765 110.446C69.6236 110.121 69.0059 111.347 68.7362 111.862C68.3747 112.554 68.1493 113.322 68.0693 114.097C67.9909 114.859 69.1633 115.067 69.25 114.3Z" fill="#E9A07F"/>
<path d="M75.9384 110.751C76.2888 111.097 76.6394 111.443 76.9899 111.789C77.3395 112.134 77.6532 112.607 78.1883 112.579C78.4891 112.565 78.6477 112.29 78.6544 112.021C78.6665 111.532 78.0812 111.154 77.7601 110.841C77.4077 110.497 77.0553 110.154 76.7029 109.81C76.4686 109.582 76.0431 109.66 75.8501 109.898C75.6272 110.173 75.7044 110.52 75.9384 110.751Z" fill="#E9A07F"/>
<path d="M67.9773 94.6751C67.0237 90.8243 67.056 90.8117 66.7974 90.4659C66.5327 90.1138 65.9307 90.2348 65.8606 90.6859C65.791 91.1323 65.8103 91.06 66.8288 95.1073C66.9098 95.4279 67.3337 95.5725 67.619 95.4657C67.9596 95.3368 68.0576 94.9988 67.9773 94.6751Z" fill="#E9A07F"/>
<path d="M74.4495 95.6198C74.7768 95.0539 75.0401 94.4598 75.2401 93.8374C75.4258 93.259 75.7886 92.3976 75.3006 91.901C75.1959 91.7941 74.9739 91.7627 74.8411 91.8255C74.2858 92.0912 74.2674 92.9148 74.0939 93.4476C73.9047 94.0276 73.6529 94.5887 73.3678 95.1294C73.218 95.4139 73.3835 95.7879 73.6633 95.9153C73.9795 96.0599 74.288 95.898 74.4495 95.6198Z" fill="#E9A07F"/>
<path d="M83.4854 97.6029C83.6331 97.3436 83.451 97.0497 83.2281 96.9192C82.7693 96.6504 82.0559 97.0277 81.6087 97.2068C81.0878 97.4159 80.5922 97.6752 80.1119 97.9644C79.835 98.1326 79.8013 98.5554 79.9797 98.8022C80.1885 99.0898 80.5325 99.0914 80.8162 98.9342C82.669 97.9031 83.1209 98.2442 83.4854 97.6029Z" fill="#E9A07F"/>
<path d="M132.791 100.123L130.328 105.743L124.079 105.628L124.109 103.994L129.267 104.087L131.812 98.2804L138.791 99.552L140.006 95.4843L141.535 96.0831L139.938 101.426L132.791 100.123Z" fill="#EBB46C"/>
<path d="M166.928 59.2145C166.498 62.6048 170.029 65.2957 173.17 65.0835C176.64 64.8493 179.586 62.0013 180.093 58.5905C180.643 54.8969 178.424 51.9451 174.991 51.6732C171.65 51.4107 169.512 54.3845 170.477 57.3866C171.17 59.5383 173.134 60.3399 174.124 59.7458C174.894 59.2837 174.848 58.1159 173.915 57.91C173.541 57.8282 173.154 58.0357 172.956 58.3233C172.139 57.9996 171.361 56.5111 171.889 54.9048C172.563 52.852 175.156 52.7357 176.769 53.6929C178.819 54.911 179.142 57.5343 178.39 59.6247C177.6 61.8189 175.444 63.5479 173.097 63.7145C170.44 63.9031 168.099 61.8661 167.887 59.2177C167.837 58.5921 167.005 58.6078 166.928 59.2145Z" fill="#A693F0"/>
<path d="M283.782 93.7241C283.451 90.3228 279.411 88.4791 276.395 89.3829C273.063 90.3794 270.822 93.809 271.081 97.248C271.364 100.971 274.181 103.359 277.588 102.862C280.905 102.38 282.332 99.0068 280.725 96.2924C279.573 94.3481 277.481 94.0007 276.648 94.7992C275.998 95.4216 276.302 96.5485 277.258 96.5423C277.642 96.5407 277.972 96.2515 278.102 95.9277C278.97 96.0629 280.057 97.3407 279.899 99.0256C279.696 101.176 277.192 101.864 275.408 101.287C273.138 100.555 272.244 98.0669 272.515 95.8633C272.799 93.5465 274.517 91.3837 276.769 90.7016C279.32 89.9283 282.054 91.3979 282.846 93.9331C283.034 94.532 283.842 94.3324 283.782 93.7241Z" fill="#A693F0"/>
<path d="M304.399 245.562C304.399 245.562 304.769 248.75 304.769 249.292C304.769 249.833 304.769 249.833 304.769 249.833L304.504 250.383L304.399 250.601L306.306 253.278C306.306 253.278 313.965 253.391 314.135 253.391C314.306 253.391 313.11 251.541 313.11 251.541C313.11 251.541 310.576 249.633 310.12 248.296C309.666 246.957 310.509 244.167 310.509 244.167L304.399 245.562Z" fill="#ECB9A2"/>
<path d="M267.483 226.483C267.483 226.483 264.756 228.176 264.332 228.512C263.909 228.848 263.909 228.848 263.909 228.848L263.642 229.397L263.537 229.615L260.255 229.785C260.255 229.785 255.404 223.858 255.299 223.724C255.192 223.591 256.693 223.926 256.693 223.926C256.693 223.926 259.755 224.339 261.086 223.864C262.417 223.388 265.111 220.737 265.111 220.737L267.483 226.483Z" fill="#ECB9A2"/>
<path d="M292.27 196.566L262.891 221.59L267.417 227.996C267.417 227.996 297.609 209.248 299.189 209.036C300.768 208.822 302.049 209.549 302.35 210.701C302.648 211.854 303.409 246.45 303.409 246.45H311.252L315.343 202.894L292.27 196.566Z" fill="#4CC1A5"/>
<path d="M334.599 160.875C336.773 159.449 341.879 153.97 343.61 152.104C343.627 151.886 343.792 150.617 345.183 149.008C346.166 147.87 346.911 145.273 347.555 146.01C348.198 146.746 346.599 148.808 347.332 148.821C348.064 148.835 351.697 144.751 352.281 145.418C352.864 146.084 349.175 149.715 349.831 149.726C350.485 149.739 353.481 146.062 354.306 147.005C355.131 147.947 350.379 151.004 350.823 151.51C351.266 152.015 354.21 150.011 354.875 150.77C355.54 151.529 350.722 153.316 351.107 153.324C351.492 153.33 354.271 153.255 354.292 153.791C354.315 154.396 347.261 155.337 346.397 156.384C344.553 159.319 341.273 164.68 337.95 167.031C333.884 169.909 324.488 176.015 324.488 176.015L319.821 169.985C319.821 169.985 332.021 162.564 334.599 160.875Z" fill="#ECB9A2"/>
<path d="M347.332 150.119C347.512 150.474 347.591 150.862 347.616 151.252C347.602 151.315 347.773 152.576 346.698 153.534C347.118 152.755 347.579 151.889 347.332 150.119Z" fill="#E9A07F"/>
<path d="M291.528 154.277C289.802 152.333 286.307 145.71 285.125 143.456C285.164 143.241 285.335 141.974 284.414 140.055C283.764 138.7 283.724 136.001 282.91 136.542C282.096 137.084 283.1 139.492 282.39 139.314C281.681 139.135 279.242 134.244 278.503 134.734C277.764 135.225 280.377 139.695 279.742 139.534C279.107 139.376 277.176 135.042 276.134 135.737C275.091 136.432 278.877 140.624 278.317 140.996C277.758 141.369 275.44 138.664 274.6 139.223C273.761 139.781 277.942 142.766 277.568 142.672C277.195 142.579 274.531 141.779 274.372 142.29C274.192 142.868 280.754 145.622 281.315 146.859C282.325 150.174 284.091 156.206 286.682 159.345C289.854 163.186 297.326 171.535 297.326 171.535L303.409 166.935C303.409 166.935 293.573 156.583 291.528 154.277Z" fill="#ECB9A2"/>
<path d="M282.05 140.565C281.783 140.863 281.607 141.216 281.48 141.586C281.477 141.65 280.981 142.823 281.769 144.028C281.569 143.167 281.349 142.21 282.05 140.565Z" fill="#E9A07F"/>
<path d="M304.512 168.01C305.397 166.69 306.922 165.94 308.508 166.049C313.173 166.366 322.633 167.113 323.531 168.01C324.727 169.206 328.313 177.007 324.896 187.94C321.481 198.872 319.601 197.734 316.811 197.734C314.021 197.734 300.869 191.527 300.869 191.527L304.512 168.01Z" fill="#4F3B9C"/>
<path d="M296.456 158.729L290.97 165.885L297.779 176.015C297.779 176.015 297.139 183.541 296.157 185.89C295.175 188.239 289.494 197.889 289.494 197.889C289.494 197.889 303.288 206.345 316.783 205.107C316.783 205.107 320.584 185.548 321.651 183.67C322.718 181.79 333.012 172.48 333.012 172.48L328.015 164.409L319.388 169.192C319.388 169.192 303.621 166.644 302.862 165.885C302.101 165.126 296.456 158.729 296.456 158.729Z" fill="#EBB46C"/>
<path d="M314.249 144.096C314.249 144.096 308.926 141.278 307.104 145.948C307.104 145.948 302.321 145.463 303.147 150.418C303.147 150.418 298.334 152.837 301.381 159.072C301.381 159.072 300.044 164.936 306.905 165.307C306.905 165.307 307.929 167.385 311.06 166.901C314.193 166.417 314.99 165.591 314.99 165.591C314.99 165.591 320.541 167.214 322.221 162.203C322.221 162.203 326.036 161.293 323.474 156.395C323.474 156.395 326.805 150.047 320.94 148.139C320.94 148.139 320.257 141.649 314.249 144.096Z" fill="#EC7C49"/>
<path d="M316.399 157.851C315.967 159.058 316.278 160.273 317.094 160.565C317.91 160.857 318.922 160.115 319.354 158.908C319.787 157.701 319.475 156.486 318.66 156.194C317.844 155.902 316.832 156.643 316.399 157.851Z" fill="#ECB9A2"/>
<path d="M302.04 154.886C301.979 156.167 302.633 157.239 303.497 157.28C304.363 157.32 305.114 156.316 305.176 155.035C305.235 153.754 304.583 152.682 303.717 152.641C302.851 152.6 302.1 153.605 302.04 154.886Z" fill="#ECB9A2"/>
<path d="M308.129 163.37C308.129 163.453 307.437 166.427 307.07 167.997C306.933 168.584 307.23 169.184 307.777 169.434C309.242 170.102 312.12 171.034 314.11 169.233C314.29 169.068 314.388 168.83 314.38 168.585L314.135 161.492L308.129 163.37Z" fill="#ECB9A2"/>
<path d="M307.758 165.035C309.306 165.816 311.255 165.831 313.44 164.55C313.717 164.387 313.978 164.216 314.223 164.033L314.135 161.492L308.129 163.37C308.129 163.411 307.967 164.128 307.758 165.035Z" fill="#E9A07F"/>
<path d="M312.389 146.989C312.389 146.989 315.01 147.682 316.551 150.233C318.091 152.784 318.941 160.157 313.44 163.383C307.939 166.608 303.937 161.613 304.041 156.888C304.145 152.163 306.245 146.123 312.389 146.989Z" fill="#ECB9A2"/>
<path d="M303.412 166.132C300.88 168.046 298.229 177.862 297.224 180.424L296.416 185.13L306.722 166.926C306.722 166.926 303.958 165.719 303.412 166.132Z" fill="#654DC1"/>
<path d="M315.925 168.615C315.925 168.615 315.615 180.709 316.527 184.864C317.439 189.022 319.821 190.474 319.821 190.474L320.994 185.638C320.994 185.638 319.821 174.957 319.388 169.192C319.323 168.317 315.925 168.615 315.925 168.615Z" fill="#654DC1"/>
<path d="M303.004 255.237C301.834 255.087 303.854 251.032 304.505 250.383L313.11 251.541C313.11 251.541 317.253 253.462 318.235 254.444C318.468 254.677 318.5 255.086 317.487 255.237C314.24 255.719 305.599 255.565 303.004 255.237Z" fill="#2C1B71"/>
<path d="M260.69 233.653C261.699 234.26 263.538 230.31 263.642 229.397L256.693 223.926C256.693 223.926 251.332 222.388 250.25 223.47C249.266 224.452 258.395 232.275 260.69 233.653Z" fill="#2C1B71"/>
<path d="M157.155 73.6713L152.158 80.1061L162.92 81.9985L157.155 73.6713Z" fill="#A1DBCD"/>
<path d="M222.977 43.0079L235.361 60.0049L243.561 51.0364L222.977 43.0079Z" fill="#654DC1"/>
<path d="M244.671 46.34L243.561 51.0364L222.977 43.0078L244.671 46.34Z" fill="#B5A4F7"/>
<path d="M243.561 52.8298L222.977 43.0079L242.109 60.0049L243.561 52.8298Z" fill="#B5A4F7"/>
<path d="M242.492 61.2796C242.492 61.2812 242.492 61.2843 242.492 61.2859C242.492 61.2843 242.492 61.2827 242.492 61.2796ZM256.063 73.1983C255.91 73.1841 252.294 72.8116 247.709 69.9557C243.105 67.0904 241.383 62.0891 241.383 61.2859C241.383 60.9794 241.631 60.7311 241.937 60.7311C242.241 60.7311 242.487 60.9731 242.492 61.2749C242.542 61.8109 244.014 66.3485 248.295 69.0142C252.641 71.7208 256.133 72.0902 256.168 72.0933C256.473 72.1232 256.698 72.3935 256.668 72.6984C256.638 73.0034 256.368 73.2266 256.063 73.1983Z" fill="#EBB46C"/>
<path d="M278.559 78.2265C272.144 76.9392 266.006 74.5706 260.316 71.1834C255.631 68.3951 251.852 64.1451 247.072 61.7843C246.797 61.6476 246.684 61.3159 246.821 61.0408C246.956 60.7658 247.289 60.6526 247.564 60.7878C252.512 63.2319 256.261 67.4788 260.885 70.2294C266.466 73.5521 272.486 75.8751 278.779 77.1373C281.092 77.6009 283.833 77.7707 286.924 77.6418C287.232 77.6308 287.49 77.8681 287.503 78.1746C287.515 78.4811 287.278 78.7389 286.972 78.7515C284.224 78.8662 281.268 78.7687 278.559 78.2265Z" fill="#EBB46C"/>
<path d="M128.536 168.134C128.813 168.115 130.905 171.493 132.216 176.675C133.525 181.856 136.315 191.421 136.315 191.421C136.315 191.421 140.842 200.561 142.066 201.786C143.29 203.01 144.477 201.743 145.709 202.127C146.09 202.245 147.265 203.266 147.265 203.266C147.265 203.266 149.383 207.85 149.07 208.162C148.756 208.475 145.482 209.358 143.204 208.618C140.927 207.878 130.336 195.466 130.336 195.466C130.336 195.466 121.703 168.593 128.536 168.134Z" fill="#E9A07F"/>
<path d="M169.908 172.257L168.884 171.194C168.884 171.194 167.005 174.569 164.841 179.35C162.678 184.133 160.086 190.027 159.205 190.909C158.321 191.792 150.892 202.012 148.642 203.008C146.393 204.005 147.089 203.568 145.282 203.351C143.927 203.189 144.075 204.17 144.957 204.626C145.196 204.748 145.466 204.83 146.007 205.214C147.082 205.976 148.001 207.059 148.675 207.691C148.936 207.934 148.391 208.381 148.084 208.076C147.77 207.76 146.698 206.105 146.25 206.105C145.802 206.105 146.101 207.236 146.293 207.599C146.486 207.963 146.058 207.856 145.675 206.96C145.29 206.062 145.012 205.166 144.457 205.294C144.009 205.397 144.284 206.638 144.406 207.115C144.278 206.661 143.922 205.529 143.581 205.529C143.154 205.529 142.962 205.572 142.962 206.414C142.962 207.258 143.261 208.162 144.243 208.906C145.225 209.649 147.976 209.154 149.106 208.703C149.878 208.396 150.646 207.142 151.42 206.724C154.874 204.861 158.423 202.636 162.82 196.775C168.2 189.6 170.3 183.195 170.3 183.195L169.908 172.257Z" fill="#EFCAB9"/>
<path d="M167.915 253.657C167.915 253.657 167.346 251.267 167.915 248.362C168.486 245.457 171.56 230.653 171.56 227.579C171.56 224.504 173.041 220.006 173.041 220.006L163.987 217.728L163.076 226.554C163.076 226.554 162.592 247.138 161.767 247.963C160.941 248.789 157.45 250.008 156.357 250.008C155.134 250.008 153.197 250.091 153.197 250.707C153.197 251.323 153.369 251.721 153.369 251.721L167.915 253.657Z" fill="#EFCAB9"/>
<path d="M178.696 218.707L179.817 226.326C179.817 226.326 182.481 248.654 181.866 249.269C181.252 249.883 178.46 251.681 177.178 251.824C175.897 251.966 174.094 252.832 174.094 253.514C174.094 254.896 188.499 253.775 188.499 253.775C188.499 253.775 188.955 252.745 188.499 251.237C188.043 249.728 188.043 247.593 188.043 247.251C188.043 246.909 188.073 247.194 188.073 246.653C188.073 246.113 188.073 245.941 188.073 245.941C188.073 245.941 189.808 235.294 187.958 228.575L187.303 215.536L178.696 218.707Z" fill="#EFCAB9"/>
<path d="M118.792 144.206C118.792 144.206 115.461 144.166 113.155 145.466C110.857 146.763 110.239 149.856 110.196 152.273C110.141 155.395 111.165 158.538 113.112 160.989C115.061 163.441 118.493 164.544 118.493 164.544L128.148 158.389C128.148 158.389 129.297 155.522 128.486 151.679C127.673 147.835 127.887 143.607 118.792 144.206Z" fill="#3E2992"/>
<path d="M135.062 243.742C135.062 243.742 138.25 248.326 138.478 248.951C138.706 249.578 140.271 253.736 140.271 253.736L152.514 247.785L143.148 244.938L141.269 240.838L135.062 243.742Z" fill="#E9A07F"/>
<path d="M119.005 211.295L128.999 232.133L135.575 245.287C135.575 245.287 141.411 243.038 142.863 241.586L138.137 225.016L132.757 205.828L121.445 204.799L119.005 211.295Z" fill="#4F3B9C"/>
<path d="M109.582 245.856C109.582 245.856 110.037 248.931 110.037 249.13C110.037 249.33 109.354 252.29 109.24 253.088C109.126 253.885 109.24 254.51 109.24 254.51L120.841 251.735C120.841 251.735 119.119 250.611 117.582 249.756C116.044 248.902 115.817 244.832 115.817 244.832L109.582 245.856Z" fill="#E9A07F"/>
<path d="M107.959 205.828C107.959 205.828 109.946 218.328 109.667 222.511C109.266 228.517 107.674 230.824 108.813 246.573H116.898C116.898 246.573 117.468 238.112 118.72 231.564C119.973 225.016 122.706 214.027 122.706 214.027L127.205 203.889L107.959 205.828Z" fill="#A693F0"/>
<path d="M112.637 158.833C113.027 160.054 114.013 160.83 114.839 160.566C115.664 160.304 116.017 159.1 115.627 157.879C115.237 156.656 114.251 155.879 113.426 156.143C112.6 156.407 112.247 157.611 112.637 158.833Z" fill="#E9A07F"/>
<path d="M126.367 156.225C126.476 157.503 127.263 158.479 128.128 158.405C128.991 158.333 129.604 157.237 129.495 155.959C129.387 154.681 128.598 153.705 127.735 153.778C126.87 153.852 126.259 154.947 126.367 156.225Z" fill="#E9A07F"/>
<path d="M245.04 160.134C246.866 158.157 250.714 149.924 252.016 147.587C251.987 147.353 251.884 145.99 252.907 143.994C253.63 142.582 253.814 139.7 254.598 140.325C255.381 140.951 254.249 143.467 254.967 143.316C255.687 143.167 258.384 138.081 259.095 138.648C259.805 139.214 256.957 143.84 257.6 143.705C258.243 143.571 260.402 139.054 261.407 139.855C262.411 140.657 258.405 144.918 258.945 145.349C259.483 145.778 261.943 143.022 262.752 143.667C263.56 144.313 259.224 147.261 259.602 147.181C259.98 147.103 262.683 146.403 262.815 146.958C262.964 147.585 256.262 150.15 255.637 151.439C254.449 154.922 252.361 161.266 249.604 164.471C246.231 168.392 236.527 179.266 236.527 179.266L232.496 171.619C232.496 171.619 242.873 162.479 245.04 160.134Z" fill="#9B7564"/>
<path d="M255.241 144.674C255.491 145.007 255.648 145.394 255.755 145.796C255.755 145.866 256.185 147.147 255.335 148.39C255.582 147.48 255.852 146.471 255.241 144.674Z" fill="#78594C"/>
<path d="M108.721 170.402C108.721 170.402 109.661 194.639 108.721 199.166C107.782 203.692 107.351 206.63 107.351 206.63C107.351 206.63 120.337 209.159 132.807 205.828C132.807 205.828 130.927 197.372 130.074 188.575C129.22 179.778 128.536 168.134 128.536 168.134C128.536 168.134 123.808 167.782 120.166 168.115C111.888 168.875 108.721 170.402 108.721 170.402Z" fill="#F7D09C"/>
<path d="M116.443 161.971L116.077 168.603C116.077 168.603 116.699 172.262 120.329 172.475C123.959 172.689 122.891 164.874 122.891 164.874L122.678 161.971H116.443Z" fill="#E9A07F"/>
<path d="M122.775 166.967C122.862 166.967 122.949 166.965 123.035 166.961C123.015 165.777 122.891 164.875 122.891 164.875L122.678 161.972H116.443L116.388 162.967C117.17 164.298 119.472 166.967 122.775 166.967Z" fill="#EA9D7B"/>
<path d="M109.461 250.647C109.461 250.647 109.888 250.22 111.382 250.347C112.877 250.476 120.372 251.309 120.692 251.309C121.012 251.309 125.3 254.564 125.493 255.155C125.685 255.746 116.229 255.359 116.229 255.359H109.03C109.03 255.359 108.35 253.209 109.461 250.647Z" fill="#459682"/>
<path d="M139.162 250.49C139.162 250.49 138.723 250.784 138.723 251.183C138.723 251.447 139.169 253.247 139.687 254.528C139.987 255.274 140.873 255.589 141.579 255.201L154.563 248.041C154.563 248.041 155.509 247.221 149.386 246.834L139.162 250.49Z" fill="#459682"/>
<path d="M108.721 170.402C108.721 170.402 106.877 171.209 105.795 173.714C104.714 176.22 101.24 187.55 103.575 194.326C103.575 194.326 104.626 199.477 110.036 203.009C115.445 206.539 124.877 207.388 125.411 206.853C125.945 206.319 125.966 205.393 125.966 204.799C125.966 204.205 127.205 203.906 127.205 203.095C127.205 202.284 125.112 202.141 122.706 202.141C122.706 202.141 122.279 202.099 122.806 201.699C123.333 201.302 124.002 200.803 123.888 200.049C123.774 199.295 123.283 199.329 122.82 199.793C122.357 200.255 120.827 201.501 119.603 201.145C118.379 200.789 111.148 194.853 109.952 192.975C109.952 192.975 110.43 170.806 108.721 170.402Z" fill="#E9A07F"/>
<path d="M168.884 171.195C168.884 171.195 172.782 169.032 176.918 168.548C181.055 168.062 186.99 169.615 186.99 169.615L190.414 219.03C190.414 219.03 175.04 226.332 163.51 219.03C163.51 219.03 166.606 198.282 166.606 195.365C166.606 192.448 166.606 192.448 166.606 192.448L168.884 171.195Z" fill="#4CC1A5"/>
<path d="M153.204 251.137C152.793 251.09 152.407 251.332 152.269 251.721C152.108 252.169 152.179 252.569 152.514 252.904C153.127 253.516 163.81 255.266 167.538 255.183C167.934 255.175 168.5 253.998 167.915 253.657C167.004 253.123 156.022 251.455 153.204 251.137Z" fill="#2C1B71"/>
<path d="M156.357 250.007L157.24 251.807L159.205 252.347C159.205 252.347 158.293 249.13 157.496 249.271C156.699 249.415 156.357 250.007 156.357 250.007Z" fill="#2C1B71"/>
<path d="M174.092 253.63C173.718 253.629 173.38 253.866 173.264 254.223C173.171 254.509 173.14 254.837 173.354 255.053C173.81 255.507 189.107 255.194 189.107 255.194C189.107 255.194 189.477 254.056 188.812 253.828C188.372 253.676 176.753 253.636 174.092 253.63Z" fill="#2C1B71"/>
<path d="M178.702 251.18C178.566 250.93 177.511 251.194 177.178 251.824L178.536 253.773L180.13 253.767L178.702 251.18Z" fill="#2C1B71"/>
<path d="M212.758 241.301C212.758 241.301 212.142 246.653 211.14 248.987C210.139 251.323 206.837 252.796 203.932 253.369C201.028 253.942 201.996 254.399 202.422 254.825C202.846 255.249 215.435 255.537 217.654 255.135C217.654 255.135 216.8 250.752 216.8 250.07C216.8 249.387 220.274 238.625 220.274 238.625L212.758 241.301Z" fill="#9B7564"/>
<path d="M217.654 255.135C217.654 255.135 217.481 254.243 217.289 253.201C214.861 253.527 209.306 252.958 206.523 252.634C205.671 252.956 204.635 253.052 203.783 253.22C200.88 253.792 201.097 254.555 201.826 255.084C202.312 255.438 215.434 255.537 217.654 255.135Z" fill="#EC7C49"/>
<path d="M237.522 240.047C237.522 240.047 237.183 246.625 237.887 248.987C238.613 251.422 239.654 251.84 242.505 252.634C245.304 253.412 244.242 254.658 243.816 255.084C243.39 255.509 233.593 255.537 231.372 255.135C231.372 255.135 232.227 250.753 232.227 250.07C232.227 249.387 231.19 238.326 231.19 238.326L237.522 240.047Z" fill="#9B7564"/>
<path d="M231.372 255.135C231.372 255.135 231.546 254.243 231.738 253.201C234.165 253.527 239.721 252.958 242.505 252.634C243.467 252.867 244.246 253.06 245.095 253.369C247.875 254.385 247.627 254.658 247.201 255.084C246.777 255.509 233.593 255.537 231.372 255.135Z" fill="#EC7C49"/>
<path d="M186.99 169.615C186.99 169.615 183.66 173.543 185.368 180.12C187.077 186.697 191.204 197.172 196.3 203.005C197.125 203.948 199.033 205.941 199.888 206.51C200.742 207.081 204.357 207.479 204.357 207.479C204.357 207.479 205.952 202.582 205.496 202.127C205.04 201.671 201.212 201.628 200.173 200.589C199.132 199.551 189.04 169.615 186.99 169.615Z" fill="#EFCAB9"/>
<path d="M219.21 169.528C219.21 169.528 218.249 170.127 217.567 171.892C216.884 173.657 213.339 188.177 212.827 190.283C212.431 191.91 208.836 196.687 207.052 198.988C206.526 199.667 206.122 200.233 205.866 200.233C204.3 200.233 201.7 201.102 201.7 201.751C201.7 202.399 202.315 202.468 203.34 202.241C204.364 202.014 203.588 203.123 203.219 203.493C202.848 203.863 201.271 205.974 201.831 206.532C202.389 207.09 203.731 207.479 204.357 207.479C204.698 207.479 205.388 207.441 206.65 206.411C207.711 205.545 209.272 203.774 210.417 202.752C214.535 199.081 217.922 191.365 218.55 189.6C219.175 187.835 219.21 169.528 219.21 169.528Z" fill="#9B7564"/>
<path d="M206.015 203.906C206.015 203.906 206.442 203.949 206.442 204.782C206.442 205.615 205.716 206.896 205.226 207.388C204.734 207.878 200.237 206.684 200.237 206.684C200.237 206.684 201.873 206.724 202.431 206.031C202.681 205.722 203.154 204.269 203.624 204.269C204.094 204.269 203.582 206.234 203.582 206.234C203.582 206.234 204.479 203.65 204.948 203.65C205.418 203.65 205.46 204.12 205.246 204.911C205.033 205.7 205.726 203.678 206.015 203.906Z" fill="#EFCAB9"/>
<path d="M209.628 241.833C209.628 241.833 216.291 243.626 223.848 243.626C231.407 243.626 246.268 239.783 246.268 239.783C246.268 239.783 242.169 229.876 240.759 222.275C239.349 214.674 238.326 201.608 238.326 201.608H215.774L214.364 210.654L209.628 241.833Z" fill="#654DC1"/>
<path d="M219.21 169.528C219.21 169.528 217.737 171.237 217.737 176.532C217.737 181.827 217.481 189.771 217.055 192.504C216.627 195.238 215.346 202.028 215.346 202.028C215.346 202.028 219.104 205.144 228.842 204.291C238.577 203.436 239.089 202.127 239.089 202.127C239.089 202.127 237.724 180.12 237.724 177.813C237.724 175.507 235.633 168.837 235.633 168.837C235.633 168.837 230.008 168.255 227.446 168.453C224.884 168.65 219.21 169.528 219.21 169.528Z" fill="#F7D09C"/>
<path d="M214.784 148.745C214.784 148.745 210.688 149.907 211.027 154.113C211.34 157.99 213.246 157.794 213.246 157.794C213.246 157.794 211.852 163.292 216.065 164.887C220.038 166.39 221.531 164.887 221.531 164.887C221.531 164.887 223.255 169.452 229.148 167.69C235.042 165.928 234.514 162.354 234.514 162.354C234.514 162.354 237.024 163.341 239.929 158.729C242.832 154.116 241.175 150.795 237.332 148.745C237.332 148.745 238.611 142.873 232.735 141.933C226.859 140.993 225.418 144.219 225.418 144.219C225.418 144.219 224.373 140.619 218.116 143.095C214.015 144.718 214.784 148.745 214.784 148.745Z" fill="#2C1B71"/>
<path d="M231.018 157.547C230.586 158.754 230.897 159.969 231.713 160.261C232.529 160.554 233.541 159.813 233.973 158.605C234.407 157.399 234.096 156.182 233.28 155.89C232.464 155.598 231.452 156.34 231.018 157.547Z" fill="#9B7564"/>
<path d="M217.658 158.745C217.857 160.012 218.712 160.931 219.567 160.797C220.423 160.664 220.958 159.527 220.76 158.261C220.563 156.994 219.708 156.074 218.851 156.208C217.995 156.341 217.46 157.478 217.658 158.745Z" fill="#9B7564"/>
<path d="M224.684 164.291L224.912 169.272C224.912 169.272 225.025 171.209 227.047 171.465C229.069 171.721 230.919 170.157 230.919 168.59C230.919 168.39 229.923 161.558 229.923 161.558L224.684 164.291Z" fill="#9B7564"/>
<path d="M229.923 161.558L224.684 164.292L224.766 166.063C225.714 166.069 227.117 165.994 228.243 165.323C229.189 164.758 229.717 164.042 230.14 163.053C230.014 162.179 229.923 161.558 229.923 161.558Z" fill="#78594C"/>
<path d="M144.957 203.219C144.957 203.219 146.233 204.044 146.99 203.864C147.748 203.681 147.376 203.295 147.019 202.939C146.664 202.583 145.71 202.127 145.71 202.127L144.957 203.219Z" fill="#E9A07F"/>
<path d="M119.736 147.686C117.668 147.991 116.155 149.455 115.056 151.244C112.878 154.788 114.649 160.007 115.247 161.201C115.845 162.397 118.236 165.472 121.781 165.472C125.325 165.472 127.802 162.226 128.101 159.067C128.502 154.836 127.369 149.562 123.342 148.093C122.244 147.692 120.944 147.506 119.736 147.686Z" fill="#E9A07F"/>
<path d="M176.785 147.793C176.785 147.793 175.034 147.708 173.069 148.646C171.104 149.586 169.055 153.811 169.055 157.569C169.055 159.856 168.043 160.799 167.25 161.189C166.825 161.396 166.71 161.95 167.023 162.305C167.797 163.185 168.604 164.153 169.621 164.744C173.475 166.986 177.355 167.055 181.686 166.259C185.17 165.621 188.458 164.053 190.929 161.481C191.394 160.997 191.267 160.199 190.676 159.881C189.859 159.441 188.894 158.495 188.527 156.463C187.845 152.66 186.435 145.957 176.785 147.793Z" fill="#2C1B71"/>
<path d="M182.005 158.162C181.726 159.414 182.187 160.582 183.032 160.769C183.88 160.958 184.791 160.095 185.069 158.844C185.348 157.591 184.887 156.425 184.04 156.236C183.194 156.047 182.283 156.91 182.005 158.162Z" fill="#EFCAB9"/>
<path d="M169.487 156.492C169.487 157.775 170.19 158.814 171.056 158.814C171.923 158.814 172.626 157.775 172.626 156.492C172.626 155.21 171.923 154.171 171.056 154.171C170.19 154.171 169.487 155.21 169.487 156.492Z" fill="#EFCAB9"/>
<path d="M174.806 164.747L174.378 170.611C174.378 170.611 174.578 171.949 176.172 172.233C177.767 172.518 181.154 170.155 181.154 168.903L180.357 162.127L174.806 164.747Z" fill="#EFCAB9"/>
<path d="M174.597 167.608C177.115 167.733 179.142 166.599 180.64 164.53L180.357 162.127L174.806 164.747L174.597 167.608Z" fill="#ECB9A2"/>
<path d="M170.891 159.495C171.276 161.672 171.915 165.505 175.332 165.9C178.748 166.294 181.311 164.447 182.934 161.117C184.557 157.786 184.172 153.387 183.275 151.21C182.563 149.479 179.487 149.561 177.976 149.588C172.912 149.673 170.04 154.671 170.891 159.495Z" fill="#EFCAB9"/>
<path d="M175.887 148.888C175.887 148.888 175.834 151.689 178.165 154.02C180.496 156.351 185.183 157.569 185.183 157.569L185.737 158.885C185.737 158.885 186.478 154.697 184.713 151.906C182.948 149.116 175.887 148.888 175.887 148.888Z" fill="#2C1B71"/>
<path d="M227.377 148.14C227.377 148.14 229.857 148.849 231.341 151.351C232.826 153.853 233.722 161.042 228.578 164.112C223.435 167.18 219.996 162.253 219.636 157.67C219.21 152.248 221.575 147.219 227.377 148.14Z" fill="#9B7564"/>
<path d="M391.679 239.121C391.679 239.121 394.122 249.081 395.942 250.645C397.762 252.209 403.697 255.2 402.144 255.522C400.591 255.845 389.097 256.112 389.411 254.194C389.727 252.277 390.057 251.056 390.057 251.056L387.017 243.94L391.679 239.121Z" fill="#F2AA89"/>
<path d="M402.917 255.931C400.113 256.21 391.929 256.505 389.543 256.2C389.543 256.2 389.097 256.112 389.411 254.195C389.488 253.726 389.567 253.299 389.64 252.921C391.803 253.489 396.514 252.28 398.379 252.032C400.407 253.003 402.692 254.452 403.43 254.573C404.497 254.748 404.495 255.774 402.917 255.931Z" fill="#2C1B71"/>
<path d="M364.874 247.472C364.874 247.472 364.618 249.991 364.618 251.103C364.618 252.212 365.652 255.343 365.173 255.823C364.693 256.302 351.002 256.244 351.002 255.793C351.002 255.342 353.422 253.974 356.711 253.036C359.999 252.096 361.116 248.454 360.263 246.362L364.874 247.472Z" fill="#F2AA89"/>
<path d="M350.782 255.823C350.782 255.403 353.026 254.113 355.936 253.225C359.034 254.272 363.337 253.407 364.95 253.099C365.443 254.391 365.602 255.614 365.347 255.869C364.868 256.348 350.782 256.274 350.782 255.823Z" fill="#2C1B71"/>
<path d="M379.735 205.366L382.19 207.545C382.19 207.545 384.955 215.028 385.115 215.523C385.34 216.21 394.294 245.064 394.294 245.064L388.056 247.309C388.056 247.309 381.871 235.259 380.845 231.074C379.822 226.888 369.572 209.38 369.572 209.38L379.735 205.366Z" fill="#F7D09C"/>
<path d="M368.889 209.806L365.899 248.05H358.982C358.982 248.05 356.505 219.43 357.358 209.38L368.889 209.806Z" fill="#F7D09C"/>
<path d="M356.761 171.287C356.761 171.287 361.159 170.135 366.155 169.857C368.742 169.714 372.219 170.262 372.219 170.262C372.219 170.262 375.38 177.351 376.318 183.159C377.258 188.968 382.384 207.587 382.384 207.587C382.384 207.587 371.963 215.614 356.761 210.32V171.287Z" fill="#4CC1A5"/>
<path d="M368.604 164.939C368.604 164.939 368.467 169.473 368.893 169.899C369.319 170.325 369.913 171.031 369.288 172.114C368.661 173.195 365.942 172.505 364.675 171.886C363.46 171.292 362.674 170.185 362.674 170.185L363.309 163.002L368.604 164.939Z" fill="#F2AA89"/>
<path d="M366.797 166.819C365.923 166.512 364.396 165.923 363.219 164.009L363.309 163.003L368.604 164.939C368.604 164.939 368.571 166.046 368.588 167.217C367.846 167.185 367.213 166.964 366.797 166.819Z" fill="#C26941"/>
<path d="M362.375 157.876C362.375 157.876 362.246 155.21 360.61 155.727C358.972 156.244 360.22 160.268 361.578 160.136C362.935 160.004 362.375 157.876 362.375 157.876Z" fill="#F2AA89"/>
<path d="M367.523 149.166C367.523 149.166 370.085 149.11 371.394 151.103C372.703 153.096 374.127 158.79 371.963 162.718C369.8 166.647 367.039 165.679 365.899 165.28C364.761 164.882 362.512 163.999 361.372 160.327C360.234 156.654 361.06 148.398 367.523 149.166Z" fill="#F2AA89"/>
<path d="M357.25 171.168C358.419 173.805 361.292 179.484 361.16 185.748C361.022 192.308 356.088 196.566 356.088 196.566V199.809C356.088 199.809 361.533 198.95 363.615 190.474C365.696 181.997 360.687 170.481 360.687 170.481C360.687 170.481 359.974 169.972 358.556 170.366C357.611 170.63 357.25 171.168 357.25 171.168Z" fill="#4F3B9C"/>
<path d="M369.212 169.834C369.212 169.834 373.304 191.857 378.612 193.284L377.687 189.529C377.687 189.529 372.219 171.712 372.219 170.263C372.219 168.815 369.212 169.834 369.212 169.834Z" fill="#4F3B9C"/>
<path d="M380.284 207.52H364.406V189.425L380.284 190.131V207.52Z" fill="#EC7C49"/>
<path d="M380.284 188.721H365.112C364.722 188.721 364.406 189.037 364.406 189.425C364.406 189.815 364.722 190.131 365.112 190.131H380.284L380.271 190.126C379.223 189.733 379.228 189.111 380.284 188.721Z" fill="#C26941"/>
<path d="M379.85 188.929H365.635C365.36 188.929 365.137 189.152 365.137 189.425C365.137 189.7 365.36 189.922 365.635 189.922H379.85C379.368 189.615 379.369 189.237 379.85 188.929Z" fill="#F7D09C"/>
<path d="M373.324 189.031H372.325C372.109 189.031 371.936 189.205 371.936 189.421V189.455H373.324V189.031Z" fill="#2C1B71"/>
<path d="M372.365 189.032C372.604 189.032 372.961 189.235 373.162 189.484L375.534 192.424H376.927L374.671 189.627C374.407 189.298 373.936 189.031 373.621 189.032H372.365Z" fill="#4F3B9C"/>
<path d="M356.761 171.287C356.761 171.287 357.959 172.488 359.24 177.038C360.521 181.589 361.173 192.242 362.284 193.352C363.394 194.461 370.654 200.241 371.963 200.043C373.272 199.843 376.205 196.426 377.117 196.426C378.027 196.426 377.914 197.251 377.458 197.707C377.002 198.163 376.447 198.689 376.718 198.96C376.988 199.23 376.988 199.23 376.988 199.23C376.988 199.23 381.045 198.163 381.728 198.562C382.412 198.96 381.073 199.9 381.073 200.583C381.073 201.266 381.241 201.255 381.159 202.006C381.078 202.759 380.889 203.359 380.532 203.714C380.177 204.071 375.693 205.366 371.309 204.767C366.924 204.17 361.572 202.064 357.614 197.166C353.657 192.27 354.45 176.88 354.54 175.344C354.768 171.459 356.761 171.287 356.761 171.287Z" fill="#F2AA89"/>
<path d="M353.946 121.351C355.456 125.337 359.909 127.342 363.894 125.833C367.878 124.323 369.884 119.869 368.375 115.883C366.866 111.898 362.411 109.891 358.427 111.402C354.443 112.912 352.437 117.366 353.946 121.351Z" fill="#EBB46C"/>
<path d="M365.451 118.298C366.257 120.43 365.184 122.811 363.054 123.619C360.924 124.425 358.543 123.353 357.737 121.222L365.451 118.298Z" fill="#EFEFEF"/>
</svg>
