<svg width="300" height="302" viewBox="0 0 300 302" fill="none" xmlns="http://www.w3.org/2000/svg">
<path d="M139.682 215.368H120.985V253.118H139.682V215.368Z" fill="#1F444D"/>
<path d="M228.997 213.067C228.997 215.785 226.844 217.989 224.19 217.989H44.2449C41.5912 217.989 39.4381 215.785 39.4381 213.067V88.4133C39.4381 85.6953 41.5912 83.4907 44.2449 83.4907H224.19C226.844 83.4907 228.997 85.6953 228.997 88.4133V213.067Z" fill="#1F444D"/>
<path d="M221.145 213.067C221.145 215.785 218.979 217.989 216.314 217.989H35.5058C32.8401 217.989 30.6749 215.785 30.6749 213.067V88.4133C30.6749 85.6953 32.8401 83.4907 35.5058 83.4907H216.314C218.979 83.4907 221.145 85.6953 221.145 88.4133V213.067Z" fill="#2E5B66"/>
<path d="M215.704 89.0293H36.109V212.451H215.704V89.0293Z" fill="white"/>
<path d="M58.0202 182.65L76.2825 172.382L94.5388 152.437L112.795 160.356L131.051 131.285L149.308 146.186L167.564 161.739L185.82 112.157" stroke="#1F444D" stroke-width="1.12687" stroke-miterlimit="10"/>
<path d="M184.94 260.264C183.486 254.145 177.998 249.591 171.448 249.591H89.2193C82.6634 249.591 77.1751 254.145 75.7276 260.264H184.94Z" fill="#2E5B66"/>
<path d="M45.2522 105.44C45.2522 117.375 45.2522 129.304 45.2522 141.239C45.2522 159.293 45.2522 177.346 45.2522 195.4C45.2522 198.432 45.2522 201.464 45.2522 204.496C45.2522 204.659 45.3909 204.798 45.5537 204.798C54.2205 204.798 62.8933 204.798 71.56 204.798C90.2445 204.798 108.935 204.798 127.62 204.798C145.345 204.798 163.071 204.798 180.796 204.798C186.912 204.798 193.033 204.798 199.149 204.798C199.535 204.798 199.535 204.194 199.149 204.194C190.482 204.194 181.809 204.194 173.143 204.194C154.458 204.194 135.774 204.194 117.083 204.194C99.3576 204.194 81.632 204.194 63.9065 204.194C57.7909 204.194 51.6693 204.194 45.5537 204.194C45.6563 204.297 45.7528 204.393 45.8553 204.496C45.8553 192.561 45.8553 180.632 45.8553 168.697C45.8553 150.643 45.8553 132.59 45.8553 114.536C45.8553 111.504 45.8553 108.472 45.8553 105.44C45.8553 105.047 45.2522 105.047 45.2522 105.44Z" fill="black"/>
<path d="M188.058 120.739H183.583V199.664H188.058V120.739Z" fill="#31C5A1"/>
<path d="M169.801 170.267H165.326V199.664H169.801V170.267Z" fill="#31C5A1"/>
<path d="M151.545 154.702H147.07V199.664H151.545V154.702Z" fill="#31C5A1"/>
<path d="M133.289 139.971H128.814V199.664H133.289V139.971Z" fill="#31C5A1"/>
<path d="M115.032 168.643H110.557V199.664H115.032V168.643Z" fill="#31C5A1"/>
<path d="M96.7702 161.008H92.2951V199.664H96.7702V161.008Z" fill="#31C5A1"/>
<path d="M78.5139 181.091H74.0388V199.664H78.5139V181.091Z" fill="#31C5A1"/>
<path d="M60.2577 191.208H55.7826V199.664H60.2577V191.208Z" fill="#31C5A1"/>
<path d="M58.02 184.763C59.1858 184.763 60.1309 183.817 60.1309 182.649C60.1309 181.482 59.1858 180.535 58.02 180.535C56.8542 180.535 55.9091 181.482 55.9091 182.649C55.9091 183.817 56.8542 184.763 58.02 184.763Z" fill="#582EFF"/>
<path d="M76.2825 174.495C77.4483 174.495 78.3934 173.549 78.3934 172.381C78.3934 171.214 77.4483 170.267 76.2825 170.267C75.1166 170.267 74.1716 171.214 74.1716 172.381C74.1716 173.549 75.1166 174.495 76.2825 174.495Z" fill="#582EFF"/>
<path d="M94.5387 154.551C95.7045 154.551 96.6496 153.605 96.6496 152.437C96.6496 151.27 95.7045 150.323 94.5387 150.323C93.3729 150.323 92.4278 151.27 92.4278 152.437C92.4278 153.605 93.3729 154.551 94.5387 154.551Z" fill="#582EFF"/>
<path d="M112.795 162.47C113.961 162.47 114.906 161.523 114.906 160.356C114.906 159.188 113.961 158.242 112.795 158.242C111.629 158.242 110.684 159.188 110.684 160.356C110.684 161.523 111.629 162.47 112.795 162.47Z" fill="#582EFF"/>
<path d="M131.051 133.399C132.217 133.399 133.162 132.452 133.162 131.285C133.162 130.117 132.217 129.171 131.051 129.171C129.885 129.171 128.94 130.117 128.94 131.285C128.94 132.452 129.885 133.399 131.051 133.399Z" fill="#582EFF"/>
<path d="M149.307 148.3C150.473 148.3 151.418 147.353 151.418 146.186C151.418 145.018 150.473 144.072 149.307 144.072C148.142 144.072 147.197 145.018 147.197 146.186C147.197 147.353 148.142 148.3 149.307 148.3Z" fill="#582EFF"/>
<path d="M167.564 163.853C168.73 163.853 169.675 162.907 169.675 161.739C169.675 160.571 168.73 159.625 167.564 159.625C166.398 159.625 165.453 160.571 165.453 161.739C165.453 162.907 166.398 163.853 167.564 163.853Z" fill="#582EFF"/>
<path d="M185.82 114.27C186.986 114.27 187.931 113.324 187.931 112.156C187.931 110.989 186.986 110.042 185.82 110.042C184.654 110.042 183.709 110.989 183.709 112.156C183.709 113.324 184.654 114.27 185.82 114.27Z" fill="#582EFF"/>
<path d="M215.704 89.0293H36.109V95.6008H215.704V89.0293Z" fill="#B1E0DC"/>
<path d="M41.8807 92.3151C41.8807 92.9493 41.3681 93.4627 40.7348 93.4627C40.1015 93.4627 39.5889 92.9493 39.5889 92.3151C39.5889 91.6809 40.1015 91.1675 40.7348 91.1675C41.3681 91.1735 41.8807 91.6809 41.8807 92.3151Z" fill="white"/>
<path d="M47.2726 92.3151C47.2726 92.9493 46.76 93.4627 46.1267 93.4627C45.4935 93.4627 44.9808 92.9493 44.9808 92.3151C44.9808 91.6809 45.4935 91.1675 46.1267 91.1675C46.76 91.1735 47.2726 91.6809 47.2726 92.3151Z" fill="#31C5A1"/>
<path d="M52.6705 92.3151C52.6705 92.9493 52.1578 93.4627 51.5245 93.4627C50.8913 93.4627 50.3786 92.9493 50.3786 92.3151C50.3786 91.6809 50.8913 91.1675 51.5245 91.1675C52.1578 91.1735 52.6705 91.6809 52.6705 92.3151Z" fill="#2E5B66"/>
<path d="M247.845 239.728C248.098 242.247 249.853 253.016 250.209 257.896C250.559 262.777 248.454 264.19 245.185 266.455C250.058 268.569 256.342 264.842 256.24 264.691C255.836 261.623 255.438 254.574 255.938 249.543C256.439 244.512 256.391 238.472 256.391 238.472L247.845 239.728Z" fill="#A66537"/>
<path d="M269.207 237.064C269.858 239.076 274.635 253.022 274.834 257.951C275.033 262.885 274.936 264.897 274.532 265.452C274.128 266.008 272.524 267.717 272.524 267.717L276.191 266.008L281.42 257.25C281.42 257.25 279.261 253.88 278.959 250.304C278.658 246.728 276.293 233.495 276.293 233.495L269.207 237.064Z" fill="#A66537"/>
<path d="M243.575 165.84C241.765 171.729 239.202 184.564 241.614 202.986C244.027 221.408 247.495 238.018 247.495 240.434C253.828 240.887 256.542 239.83 256.542 239.83C258.049 233.186 257.145 222.465 255.335 216.425C253.526 210.385 256.089 199.664 256.089 199.664C258.954 215.821 268.152 235.602 269.358 238.169C272.874 236.255 276.897 234.998 276.897 234.998C277.801 226.995 269.81 216.274 269.81 206.61C269.81 196.946 272.826 180.94 264.985 168.407C264.231 166.746 264.081 163.424 264.081 163.424L243.575 165.84Z" fill="#1F444D"/>
<path d="M255.975 127.372C257.712 127.336 259.593 128.048 259.859 131.902C249.835 136.698 246.288 130.923 246.964 129.975C247.639 129.027 252.621 128.054 255.975 127.372Z" fill="#F7CABC"/>
<path d="M237.495 104.988C235.686 107.905 236.241 110.877 238.804 111.734C239.51 107.555 239.154 104.082 239.154 104.082L237.495 104.988Z" fill="black"/>
<path d="M254.732 120.54C254.732 120.54 263.441 110.393 255.148 102.988C251.698 97.9327 240.113 99.0501 238.394 104.939C236.681 110.828 239.66 112.543 238.255 113.16C236.44 113.951 235.945 114.277 235.945 114.277L238.593 115.956C238.593 115.956 240.601 125.88 247.235 123.814C247.646 125.705 248.448 129.455 248.997 131.944C245.945 134.547 243.792 140.43 244.208 140.472C244.63 140.521 256.318 135.399 256.692 130.875L256.885 130.76L254.732 120.54Z" fill="#A66537"/>
<path d="M272.524 170.22C272.825 172.334 273.579 179.431 273.356 180.56C273.133 181.69 270.57 185.622 270.793 185.694C271.016 185.767 277.427 186.147 277.427 186.147C277.427 186.147 278.03 174.744 277.88 170.516C276.818 169.767 272.524 170.22 272.524 170.22Z" fill="#A66537"/>
<path d="M271.721 167.15C271.769 168.056 271.974 171.076 271.974 171.076C273.229 171.632 278.108 171.831 278.506 171.028C278.808 169.518 278.506 167.658 278.506 167.658L271.721 167.15Z" fill="#582EFF"/>
<path d="M271.42 167.151C271.493 168.462 271.583 169.767 271.674 171.077C271.686 171.222 271.764 171.319 271.897 171.367C273.592 172.032 275.811 171.989 277.578 171.742C279.544 171.464 279.032 169.078 278.802 167.574C278.778 167.435 278.634 167.363 278.513 167.351C276.251 167.181 273.99 167.012 271.728 166.849C271.342 166.819 271.342 167.423 271.728 167.453C273.037 167.55 274.345 167.647 275.654 167.743C276.408 167.798 277.156 167.852 277.91 167.912C278.091 167.924 278.278 167.936 278.459 167.955C278.338 167.949 278.199 167.514 278.26 168.027C278.296 168.335 278.314 168.649 278.332 168.957C278.362 169.519 278.489 170.872 277.831 171.071C277.391 171.204 276.909 171.222 276.456 171.246C275.316 171.307 274.152 171.228 273.031 171.047C272.657 170.987 272.253 170.697 272.277 171.047C272.259 170.757 272.241 170.467 272.216 170.171C272.15 169.163 272.084 168.154 272.023 167.151C271.999 166.759 271.396 166.759 271.42 167.151Z" fill="#582EFF"/>
<path d="M248.273 129.298C246.765 129.751 243.574 131.062 242.567 131.817C241.56 132.572 224.07 132.071 222.966 132.016C220.807 136.697 220.656 140.726 220.656 140.726C224.076 142.133 235.33 146.464 238.146 146.663C238.249 151.598 239.154 153.96 239.401 157.384C239.654 160.809 239.901 165.436 240.86 165.943C241.819 166.45 247.446 166.094 250.914 166.952C254.382 167.809 260.739 165.75 263.278 164.838C263.984 164.584 264.587 164.584 264.683 164.185C264.78 163.787 265.287 153.917 265.287 153.917C265.287 153.917 268.803 161.516 269.255 166.855C270.262 168.317 277.898 168.317 279.056 167.864C280.214 167.411 279.96 157.898 279.158 154.98C278.356 152.063 272.476 146.826 269.81 142.798C267.85 139.838 264.418 134.1 259.672 131.986C258.176 131.322 258.043 129.703 256.994 129.534C252.621 134.215 250.908 133.84 244.931 139.174C245.402 137.084 248.291 132.421 248.797 131.968C248.743 130.5 248.273 129.298 248.273 129.298Z" fill="#F7CABC"/>
<path d="M241.988 113.546C242.314 113.154 242.284 112.386 241.837 112.078C241.445 111.807 240.981 111.982 240.873 112.447C240.788 112.827 240.909 113.347 241.222 113.6C241.596 113.902 242.103 113.709 242.199 113.238C242.29 112.803 242.109 112.272 241.795 111.964C241.421 111.607 240.873 111.807 240.746 112.284C240.625 112.743 240.891 113.286 241.258 113.546C241.711 113.872 242.169 113.407 242.211 112.96C242.254 112.513 241.892 111.758 241.337 112.097C240.782 112.435 241.174 113.19 241.657 113.365C241.795 113.419 242.006 113.311 242.03 113.154C242.067 112.882 242.049 112.67 241.856 112.465C241.59 112.181 241.162 112.61 241.427 112.894C241.433 112.93 241.439 112.96 241.445 112.996C241.572 112.924 241.693 112.858 241.819 112.785C241.747 112.761 241.675 112.634 241.669 112.556C241.681 112.701 241.518 112.574 241.548 112.622C241.578 112.67 241.596 112.737 241.602 112.791C241.614 112.888 241.614 112.978 241.572 113.033C241.548 113.057 241.536 113.027 241.602 113.039C241.566 113.033 241.542 112.996 241.518 112.978C241.379 112.839 241.289 112.58 241.337 112.392C241.355 112.332 241.337 112.368 241.361 112.38C241.439 112.423 241.5 112.55 241.53 112.628C241.578 112.737 241.681 113.051 241.596 113.154C241.608 113.141 241.482 112.912 241.47 112.845C241.451 112.767 241.439 112.676 241.458 112.598C241.47 112.507 241.5 112.537 241.427 112.537C241.614 112.525 241.644 113.003 241.56 113.105C241.313 113.419 241.741 113.848 241.988 113.546Z" fill="black"/>
<path d="M242.537 107.259C241.789 106.902 241.023 106.473 240.173 106.498C239.787 106.51 239.781 107.114 240.173 107.102C240.909 107.083 241.584 107.47 242.236 107.778C242.579 107.947 242.887 107.422 242.537 107.259Z" fill="black"/>
<path d="M239.172 118.716C240.728 118.988 242.139 118.433 243.424 117.581C243.749 117.37 243.448 116.844 243.122 117.061C241.982 117.816 240.722 118.384 239.335 118.137C238.955 118.07 238.792 118.65 239.172 118.716Z" fill="black"/>
<path d="M243.02 117.212C242.555 118.396 241.584 119.242 240.722 120.136C240.487 120.377 240.788 120.794 241.09 120.613C241.168 120.565 241.216 120.504 241.271 120.432C241.5 120.118 240.975 119.816 240.752 120.13C240.764 120.118 240.776 120.106 240.782 120.1C240.903 120.257 241.023 120.414 241.15 120.577C242.097 119.598 243.098 118.68 243.605 117.388C243.743 117.013 243.158 116.856 243.02 117.212Z" fill="black"/>
<path d="M246.705 124.279C248.327 124.213 250.275 123.361 251.439 122.226C251.717 121.954 251.294 121.525 251.011 121.797C249.962 122.812 248.152 123.609 246.699 123.669C246.313 123.687 246.313 124.291 246.705 124.279Z" fill="black"/>
<path d="M241.415 103.024C242.067 105.44 243.122 111.982 245.034 112.586C246.946 113.19 246.288 110.52 245.74 108.358C247.398 111.933 248.556 113.443 249.358 113.087C248.604 115.503 248.954 120.637 251.017 117.418C251.572 120.788 252.476 122.25 253.882 122.147C255.287 122.044 255.794 119.985 255.794 119.985C256.698 123.506 258.556 124.013 259.816 123.409C261.071 122.805 260.824 119.985 260.166 118.275C263.435 121.797 266.903 121.398 264.285 115.056C268.809 118.982 272.476 115.557 265.492 111.178C270.063 111.281 271.269 110.17 267.554 107.705C271.07 107.959 270.672 104.637 267.452 104.033C270.516 103.834 269.008 100.862 266.547 100.814C270.769 100.711 265.992 97.4435 260.968 97.7455C265.443 96.8879 265.492 96.7912 265.19 96.0845C264.889 95.3779 261.825 93.4149 257 95.5289C258.055 91.1982 255.745 88.1782 254.937 94.5745C252.072 89.8452 248.152 88.6372 250.215 92.9619C245.589 90.3465 241.216 91.2525 241.922 92.9619C236.801 91.7841 236.361 95.7463 240.836 95.9335C233.949 95.5832 230.764 98.0475 231.313 99.8052C231.868 101.569 236.844 99.8535 236.844 99.8535C230.01 102.469 230.209 105.289 230.614 105.893C231.018 106.497 234.383 104.583 234.383 104.583C230.511 107.953 232.393 109.675 233.478 109.366C236.289 108.563 238.4 103.677 241.415 103.024Z" fill="black"/>
<path d="M242.03 136.281C241.97 135.496 242.151 134.602 242.591 133.943C242.435 133.961 242.278 133.986 242.115 134.004C242.555 134.457 242.748 135.073 243.044 135.616C243.345 136.184 243.798 136.698 244.268 137.139C244.551 137.404 244.98 136.981 244.696 136.71C244.171 136.214 243.731 135.659 243.412 135.006C243.158 134.499 242.947 133.992 242.549 133.575C242.404 133.43 242.181 133.478 242.073 133.635C241.578 134.378 241.361 135.393 241.427 136.281C241.451 136.667 242.055 136.667 242.03 136.281Z" fill="black"/>
<path d="M241.868 136.758C242.205 136.359 242.7 136.148 243.128 135.864C243.448 135.647 243.146 135.121 242.827 135.345C242.362 135.665 241.819 135.9 241.445 136.335C241.186 136.625 241.614 137.054 241.868 136.758Z" fill="black"/>
<path d="M242.284 133.72C242.664 132.711 243.755 132.27 244.63 131.787C245.661 131.219 246.524 130.186 247.652 129.818C248.019 129.697 247.863 129.111 247.489 129.238C246.156 129.673 245.094 130.857 243.864 131.521C242.947 132.016 242.085 132.548 241.705 133.563C241.56 133.925 242.145 134.082 242.284 133.72Z" fill="black"/>
<path d="M245.293 139.288C246.264 138.316 247.35 137.549 248.478 136.77C249.165 136.299 249.907 135.677 250.86 136.498C251.337 136.909 251.644 137.664 251.946 138.213C252.024 138.352 252.223 138.407 252.356 138.322C253.918 137.307 255.438 136.317 256.849 135.097C257.826 134.251 259.539 133.043 259.883 131.726C259.979 131.352 259.4 131.189 259.304 131.563C259.135 132.222 258.405 132.741 257.953 133.212C257.338 133.846 256.692 134.438 256.023 135.018C254.792 136.087 253.411 136.921 252.054 137.803C252.193 137.839 252.332 137.875 252.464 137.911C251.976 137.023 251.138 135.157 249.805 135.459C247.995 135.87 246.144 137.585 244.865 138.866C244.594 139.137 245.022 139.566 245.293 139.288Z" fill="black"/>
<path d="M256.879 128.387C257.108 128.495 256.97 129.033 256.897 129.184C256.753 129.486 256.481 129.721 256.252 129.951C255.975 130.229 256.403 130.652 256.68 130.38C257.066 129.993 257.506 129.571 257.585 129.003C257.639 128.61 257.591 128.054 257.187 127.867C256.831 127.704 256.529 128.224 256.879 128.387Z" fill="black"/>
<path d="M244.328 139.488C244.063 141.807 243.098 143.988 242.573 146.259C242.115 148.234 242.121 150.239 242.525 152.22C242.965 154.376 243.538 156.484 243.93 158.653C244.34 160.93 244.811 163.195 245.547 165.393C245.673 165.762 246.252 165.605 246.125 165.23C244.744 161.129 244.268 156.768 243.225 152.577C242.615 150.136 242.778 147.793 243.412 145.377C243.93 143.408 244.696 141.523 244.931 139.488C244.974 139.101 244.37 139.107 244.328 139.488Z" fill="black"/>
<path d="M250.173 137.603C248.098 141.807 246.614 146.132 246.572 150.867C246.548 153.398 247.223 155.826 247.832 158.26C248.14 159.486 248.363 160.743 248.641 161.981C248.906 163.165 249.316 164.403 249.31 165.617C249.31 166.009 249.913 166.003 249.913 165.617C249.925 163.696 249.196 161.661 248.773 159.8C248.182 157.221 247.416 154.63 247.217 151.979C246.843 147.032 248.55 142.272 250.703 137.911C250.866 137.555 250.347 137.253 250.173 137.603Z" fill="#582EFF"/>
<path d="M255.377 136.166C254.328 138.262 253.622 140.521 252.875 142.738C252.036 145.226 251.294 147.739 251.216 150.372C251.144 152.685 251.644 155.005 252.103 157.258C252.657 159.958 253.544 162.845 253.526 165.611C253.526 165.998 254.129 165.998 254.129 165.611C254.141 163.449 253.502 161.359 253.116 159.245C252.639 156.642 251.988 154.087 251.837 151.435C251.686 148.85 252.356 146.398 253.116 143.958C253.9 141.439 254.72 138.836 255.902 136.474C256.071 136.124 255.552 135.816 255.377 136.166Z" fill="#582EFF"/>
<path d="M260.727 133.75C259.364 136.088 258.562 138.673 257.645 141.203C256.644 143.964 255.896 146.845 255.48 149.75C255.094 152.456 255.468 155.053 256.113 157.687C256.777 160.386 257.223 163.249 258.158 165.871C258.29 166.233 258.869 166.076 258.737 165.708C257.917 163.413 257.615 160.972 256.982 158.623C256.143 155.536 255.685 152.553 256.143 149.363C256.505 146.815 257.241 144.32 258.049 141.886C258.93 139.228 259.834 136.486 261.246 134.058C261.445 133.72 260.926 133.412 260.727 133.75Z" fill="#582EFF"/>
<path d="M259.871 147.038C259.304 149.84 259.141 152.619 259.672 155.445C260.003 157.233 260.19 159.051 260.383 160.863C260.534 162.283 260.896 163.823 260.866 165.242C260.86 165.635 261.463 165.629 261.469 165.242C261.493 163.968 261.173 162.681 261.041 161.413C260.902 160.102 260.769 158.786 260.588 157.481C260.365 155.868 260.015 154.274 259.925 152.643C259.828 150.819 260.088 148.983 260.444 147.201C260.528 146.814 259.949 146.651 259.871 147.038Z" fill="#582EFF"/>
<path d="M262.343 150.36C262.928 155.005 262.681 159.692 262.91 164.355C262.928 164.741 263.532 164.741 263.513 164.355C263.278 159.686 263.525 155.005 262.946 150.36C262.904 149.979 262.295 149.973 262.343 150.36Z" fill="#582EFF"/>
<path d="M259.147 141.457C261.662 145.437 265.425 148.355 267.771 152.474C269.092 154.787 270.087 157.239 270.847 159.794C271.185 160.936 271.493 162.077 271.848 163.213C272.138 164.137 272.838 165.55 272.753 166.523C272.717 166.909 273.32 166.909 273.356 166.523C273.417 165.798 273.067 165.14 272.819 164.481C272.361 163.267 272.054 161.908 271.716 160.652C271.064 158.224 270.208 155.856 269.074 153.609C267.97 151.423 266.662 149.43 265.051 147.587C263.206 145.473 261.179 143.547 259.666 141.155C259.46 140.823 258.936 141.125 259.147 141.457Z" fill="#582EFF"/>
<path d="M260.052 138.286C261.614 140.394 263.308 142.393 264.816 144.549C266.457 146.905 267.922 149.309 269.442 151.743C270.956 154.165 272.391 156.436 273.308 159.166C273.766 160.537 274.158 161.932 274.617 163.31C274.761 163.738 275.871 166.022 275.666 166.444C275.497 166.795 276.016 167.097 276.185 166.746C276.426 166.251 276.257 165.852 276.046 165.369C275.443 163.974 274.997 162.53 274.538 161.081C273.646 158.26 272.675 155.717 271.095 153.199C269.49 150.656 268.037 148.022 266.288 145.57C264.448 142.985 262.47 140.527 260.576 137.978C260.341 137.67 259.816 137.972 260.052 138.286Z" fill="#582EFF"/>
<path d="M261.831 136.003C265.685 140.623 268.966 145.691 272.572 150.499C274.363 152.891 275.533 155.192 276.245 158.109C276.945 160.972 277.662 163.895 278.03 166.819C278.217 166.771 278.404 166.716 278.591 166.668C278.471 166.499 278.386 166.462 278.181 166.444C277.795 166.408 277.795 167.012 278.181 167.048C278.145 167.024 278.109 167 278.073 166.976C278.223 167.187 278.676 167.151 278.633 166.825C278.278 164.004 277.566 161.244 276.951 158.472C276.287 155.482 275.226 153.048 273.398 150.595C269.677 145.606 266.258 140.364 262.265 135.586C262.006 135.278 261.583 135.707 261.831 136.003Z" fill="#582EFF"/>
<path d="M243.237 137.676C240.951 141.644 239.968 146.319 239.998 150.855C240.016 153.374 240.396 155.887 240.806 158.363C241.174 160.61 241.222 163.111 242.073 165.237C242.187 165.527 242.7 165.52 242.664 165.158C242.646 164.953 242.61 164.868 242.441 164.747C242.121 164.518 241.825 165.043 242.139 165.267C242.115 165.231 242.091 165.194 242.067 165.158C242.266 165.134 242.459 165.104 242.658 165.08C241.928 163.255 241.916 161.238 241.578 159.317C241.15 156.895 240.788 154.461 240.643 152.003C240.354 147.219 241.349 142.158 243.755 137.978C243.954 137.646 243.436 137.338 243.237 137.676Z" fill="#582EFF"/>
<path d="M222.839 134.723C225.957 135.351 229.311 135.453 232.483 135.689C234.136 135.816 235.782 135.93 237.435 136.118C237.965 136.178 239.039 136.444 239.497 136.075C239.799 135.834 239.371 135.405 239.069 135.647C238.792 135.87 236.946 135.453 236.566 135.405C235.022 135.212 233.454 135.151 231.898 135.037C228.979 134.819 225.867 134.716 223.002 134.137C222.616 134.064 222.459 134.644 222.839 134.723Z" fill="#582EFF"/>
<path d="M222.013 136.879C224.365 137.924 227.007 138.069 229.51 138.534C231 138.812 232.507 138.908 233.997 139.192C235.215 139.422 236.536 139.609 237.773 139.567C238.159 139.554 238.165 138.95 237.773 138.963C235.306 139.047 232.61 138.437 230.179 138.044C227.598 137.628 224.733 137.428 222.321 136.359C221.965 136.202 221.657 136.722 222.013 136.879Z" fill="#582EFF"/>
<path d="M221.404 139.101C223.835 140.05 226.362 140.811 228.877 141.517C230.149 141.88 231.392 142.351 232.646 142.768C233.864 143.172 235.179 143.335 236.337 143.903C236.687 144.072 236.988 143.553 236.639 143.384C235.758 142.949 234.841 142.78 233.901 142.52C232.435 142.121 231.012 141.566 229.57 141.1C226.898 140.237 224.184 139.542 221.567 138.521C221.205 138.376 221.048 138.962 221.404 139.101Z" fill="#582EFF"/>
<path d="M239.727 138.66C239.678 140.146 239.081 141.711 238.834 143.184C238.581 144.688 238.345 146.222 238.002 147.714C237.917 148.095 238.496 148.252 238.581 147.877C238.961 146.21 239.214 144.495 239.503 142.81C239.739 141.433 240.281 140.05 240.33 138.66C240.348 138.268 239.745 138.274 239.727 138.66Z" fill="black"/>
<path d="M261.378 135.423C259.02 138.195 257.832 142.321 259.135 145.824C260.739 150.143 265.027 152.879 266.807 157.161C266.951 157.517 267.536 157.36 267.386 156.998C265.95 153.537 263.188 151.018 261.047 148.022C258.345 144.241 258.821 139.355 261.807 135.846C262.054 135.556 261.632 135.127 261.378 135.423Z" fill="black"/>
<path d="M239.582 151.115C241.234 151.218 242.64 152.13 244.105 152.812C245.878 153.64 247.688 154.383 249.461 155.228C249.811 155.398 250.118 154.872 249.762 154.709C247.869 153.803 245.933 153 244.033 152.118C242.573 151.435 241.234 150.62 239.588 150.517C239.19 150.487 239.19 151.091 239.582 151.115Z" fill="black"/>
<path d="M242.211 153.296C243.454 153.7 244.443 154.582 245.607 155.15C245.957 155.319 246.258 154.8 245.908 154.631C244.696 154.039 243.671 153.133 242.368 152.71C242 152.595 241.844 153.175 242.211 153.296Z" fill="black"/>
<path d="M245.456 141.602C245.432 141.602 245.408 141.602 245.384 141.602C244.998 141.602 244.998 142.206 245.384 142.206C245.408 142.206 245.432 142.206 245.456 142.206C245.848 142.206 245.848 141.602 245.456 141.602Z" fill="#582EFF"/>
<path d="M244.178 146.06C244.564 146.06 244.564 145.456 244.178 145.456C243.792 145.456 243.792 146.06 244.178 146.06Z" fill="#582EFF"/>
<path d="M243.804 150.589C244.19 150.589 244.19 149.985 243.804 149.985C243.412 149.985 243.412 150.589 243.804 150.589Z" fill="#582EFF"/>
<path d="M245.082 157.687C245.468 157.687 245.468 157.083 245.082 157.083C244.696 157.083 244.696 157.687 245.082 157.687Z" fill="#582EFF"/>
<path d="M246.059 161.987C246.445 161.987 246.445 161.383 246.059 161.383C245.673 161.383 245.673 161.987 246.059 161.987Z" fill="#582EFF"/>
<path d="M246.892 165.007C247.278 165.007 247.278 164.403 246.892 164.403C246.506 164.403 246.506 165.007 246.892 165.007Z" fill="#582EFF"/>
<path d="M217.894 138.359C216.688 137.048 206.085 122.353 205.228 121.247C204.372 120.142 201.459 118.831 200.657 117.877C199.855 116.923 199.499 115.111 199.65 114.857C199.8 114.603 200.301 113.498 200.301 113.498C198.781 111.39 196.694 108.998 196.791 107.941C196.857 107.24 199.999 109.874 201.405 111.632C203.365 111.632 205.578 112.085 206.332 113.746C207.086 115.407 207.388 117.321 208.546 118.68C209.704 120.039 222.218 131.866 222.266 132.017C222.315 132.168 217.894 138.359 217.894 138.359Z" fill="#A66537"/>
<path d="M223.52 131.865C223.17 131.611 222.718 131.514 222.416 131.261C221.222 132.016 219.992 134.341 218.882 135.905C218.43 136.558 217.447 137.766 217.604 138.623C217.827 139.729 218.816 140.158 219.051 140.623C219.552 141.48 220.107 142.084 221.011 142.537C221.011 142.187 221.114 141.831 221.162 141.48C221.21 141.178 221.114 140.828 221.162 140.526C221.21 139.771 221.361 139.064 221.415 138.261C221.518 136.854 221.868 135.241 222.471 133.93C222.772 133.375 223.327 132.571 223.424 132.118" fill="#582EFF"/>
<path d="M223.672 131.606C223.304 131.394 222.924 131.225 222.568 131.002C222.483 130.947 222.345 130.941 222.266 131.002C221.235 131.744 220.541 132.844 219.854 133.895C219.112 135.03 218.039 136.22 217.538 137.482C217.128 138.515 217.369 139.276 218.117 140.08C219.022 141.058 219.667 142.133 220.867 142.798C221.084 142.919 221.295 142.761 221.319 142.538C221.518 140.66 221.591 138.757 221.898 136.885C222.055 135.918 222.357 134.982 222.737 134.088C223.02 133.436 223.485 132.886 223.72 132.204C223.846 131.835 223.267 131.678 223.141 132.04C222.857 132.844 222.29 133.502 221.995 134.299C221.639 135.254 221.398 136.214 221.235 137.217C220.952 138.974 220.909 140.768 220.716 142.538C220.867 142.453 221.018 142.363 221.169 142.278C220.192 141.735 219.878 140.992 219.148 140.237C218.81 139.886 218.449 139.584 218.159 139.186C217.508 138.292 218.268 137.338 218.744 136.637C219.383 135.701 220.011 134.758 220.632 133.81C221.012 133.23 221.416 132.675 221.868 132.149C222.393 131.545 222.791 131.787 223.382 132.119C223.708 132.318 224.009 131.793 223.672 131.606Z" fill="#582EFF"/>
<path d="M199.607 113.021C200.066 114.108 201.145 114.851 201.465 115.992C201.574 116.367 202.153 116.21 202.044 115.829C201.712 114.663 200.645 113.957 200.186 112.858C200.042 112.507 199.457 112.658 199.607 113.021Z" fill="black"/>
<path d="M201.163 116.463C201.302 116.161 201.393 115.841 201.568 115.557C201.773 115.225 201.254 114.923 201.049 115.255C200.874 115.539 200.79 115.859 200.645 116.161C200.482 116.512 201.001 116.814 201.163 116.463Z" fill="black"/>
<path d="M200.995 111.734C201.537 112.465 202.333 112.954 202.852 113.697C203.075 114.011 203.594 113.715 203.371 113.395C202.846 112.646 202.056 112.163 201.513 111.432C201.284 111.118 200.765 111.42 200.995 111.734Z" fill="black"/>
<path d="M203.166 112.09C203.895 112.435 204.281 113.25 204.764 113.854C205.005 114.156 205.433 113.727 205.192 113.425C204.667 112.773 204.263 111.939 203.473 111.565C203.117 111.408 202.81 111.927 203.166 112.09Z" fill="black"/>
<path d="M205.017 112.737C205.168 113.039 205.295 113.347 205.439 113.649C205.572 113.921 205.711 114.283 205.976 114.452C206.302 114.664 206.603 114.138 206.278 113.933C206.181 113.872 206.006 113.443 205.922 113.274C205.789 112.997 205.669 112.707 205.53 112.429C205.367 112.085 204.848 112.393 205.017 112.737Z" fill="black"/>
<path d="M261.783 169.464C263.278 171.778 264.044 174.502 264.883 177.099C265.353 178.542 265.787 179.998 266.131 181.478C266.396 182.632 266.776 184.214 266.427 185.386C266.318 185.76 266.897 185.917 267.005 185.549C267.301 184.564 267.06 183.519 266.939 182.523C266.734 180.807 266.155 179.11 265.636 177.473C264.744 174.653 263.918 171.663 262.301 169.156C262.096 168.836 261.571 169.138 261.783 169.464Z" fill="black"/>
<path d="M287.668 204.122C287.964 202.068 288.766 195.865 288.766 192.06C288.76 188.255 288.706 186.684 288.307 186.564C287.909 186.449 277.693 185.676 272.343 185.658C266.999 185.633 263.501 185.211 263.333 185.766C263.17 186.322 262.928 192.996 262.76 195.63C262.591 198.257 262.337 201.47 262.331 202.074C262.325 202.678 262.156 202.974 263.441 203.005C264.726 203.035 271.179 203.989 275.672 204.279C280.165 204.569 284.514 204.575 285.376 204.569C286.245 204.569 287.584 204.702 287.668 204.122Z" fill="#31C5A1"/>
<path d="M286.082 202.062C286.251 200.709 286.396 193.727 286.595 191.68C286.794 189.632 286.607 188.285 286.353 188.152C286.106 188.019 277.464 187.717 273.236 187.584C269.008 187.452 267.06 187.264 266.981 187.536C266.903 187.802 266.131 199.048 266.197 200.003C266.264 200.957 266.125 201.036 267.06 201.193C267.995 201.356 281.595 202.382 282.982 202.382C284.375 202.376 285.992 202.564 286.082 202.062Z" fill="white"/>
<path d="M264.774 198.342C265.805 198.42 267.789 199.23 268.296 196.487C268.803 193.739 268.821 192.06 268.025 191.396C267.229 190.731 265.16 190.858 264.991 191.148C264.816 191.444 264.575 194.615 264.509 195.286C264.442 195.95 264.183 198.293 264.774 198.342Z" fill="#4C8491"/>
<path d="M264.889 196.542C264.406 196.917 262.518 197.744 262.277 197.786C262.036 197.829 261.765 197.575 261.897 196.639C262.03 195.696 262.175 193.063 262.241 192.532C262.307 192.006 262.35 191.179 263.146 191.819C263.936 192.459 265.16 192.991 265.16 192.991L264.84 196.409" fill="#4C8491"/>
<path d="M272.373 185.217C272.572 186.425 272.222 190.828 272.446 193.208C273.881 196.983 275.286 192.628 275.835 190.562C275.871 192.223 275.907 193.341 276.366 193.244C276.818 193.141 277.699 186.527 277.445 185.168C276.848 183.054 272.373 185.217 272.373 185.217Z" fill="#A66537"/>
<path d="M273.694 187.198C273.706 188.394 273.477 189.566 273.278 190.738C273.139 191.547 273.073 192.598 272.578 193.274C272.349 193.588 272.874 193.89 273.097 193.576C273.634 192.839 273.706 191.764 273.857 190.895C274.068 189.668 274.309 188.442 274.297 187.198C274.291 186.812 273.688 186.812 273.694 187.198Z" fill="black"/>
<path d="M274.834 187.736C274.78 189.674 274.134 191.492 273.839 193.395C273.778 193.776 274.363 193.939 274.418 193.558C274.719 191.607 275.377 189.729 275.431 187.742C275.449 187.343 274.846 187.343 274.834 187.736Z" fill="black"/>
<path d="M276.076 187.693C275.763 188.769 275.883 189.964 275.473 191.015C275.334 191.378 275.913 191.535 276.052 191.179C276.462 190.128 276.342 188.926 276.655 187.857C276.77 187.476 276.185 187.319 276.076 187.693Z" fill="black"/>
<path d="M272.029 184.341C272.132 184.837 272.174 185.404 272.029 185.894C271.921 186.268 272.5 186.425 272.608 186.057C272.783 185.459 272.735 184.788 272.608 184.184C272.536 183.798 271.951 183.961 272.029 184.341Z" fill="black"/>
<path d="M247.959 166.668C247.458 168.613 247.567 170.636 247.549 172.629C247.531 174.985 247.712 177.383 247.869 179.733C247.887 179.98 248.11 180.089 248.321 179.992C249.027 179.684 249.491 178.947 250.112 178.482C250.51 178.186 250.51 177.594 250.559 177.153C250.691 175.994 250.504 174.756 250.51 173.584C250.522 172.321 250.746 171.095 250.806 169.839C250.824 169.452 250.221 169.452 250.203 169.839C250.118 171.627 249.871 173.36 249.913 175.166C249.931 175.909 250.275 177.606 249.563 178.138C249.039 178.531 248.616 179.201 248.013 179.467C248.164 179.551 248.315 179.642 248.466 179.726C248.327 177.715 248.237 175.698 248.164 173.686C248.08 171.452 247.971 168.993 248.532 166.819C248.635 166.451 248.056 166.288 247.959 166.668Z" fill="black"/>
<path d="M243.647 169.604C246.922 170.51 250.359 170.262 253.713 170.081C255.588 169.984 257.464 169.827 259.328 169.579C260.908 169.368 262.38 168.861 263.936 168.547C264.316 168.468 264.153 167.888 263.773 167.967C262.084 168.311 260.492 168.824 258.767 169.054C257.09 169.277 255.401 169.386 253.713 169.483C250.42 169.67 247.024 169.918 243.804 169.024C243.43 168.915 243.273 169.501 243.647 169.604Z" fill="black"/>
<path d="M244.708 167.236C244.727 167.23 244.739 167.224 244.757 167.218C244.654 167.218 244.552 167.218 244.455 167.218C244.371 167.036 244.322 167.024 244.316 167.169C244.298 167.236 244.28 167.308 244.262 167.375C244.226 167.519 244.196 167.658 244.184 167.803C244.135 168.383 244.111 168.957 244.111 169.543C244.111 169.929 244.714 169.929 244.714 169.543C244.714 168.794 244.72 168.057 244.901 167.332C244.992 166.964 244.877 166.517 244.413 166.716C244.045 166.861 244.353 167.387 244.708 167.236Z" fill="black"/>
<path d="M255.564 167.351C255.564 168.057 255.564 168.758 255.564 169.465C255.564 169.851 256.168 169.851 256.168 169.465C256.168 168.758 256.168 168.057 256.168 167.351C256.168 166.958 255.564 166.958 255.564 167.351Z" fill="black"/>
<path d="M257.38 170.147C258.055 173.403 260.208 178.839 264.454 176.894C264.629 176.815 264.653 176.537 264.515 176.417C264.388 176.308 264.316 176.272 264.153 176.254C263.767 176.205 263.773 176.809 264.153 176.858C264.135 176.851 264.111 176.851 264.092 176.845C264.111 176.688 264.135 176.531 264.153 176.368C260.365 178.102 258.538 172.762 257.959 169.978C257.886 169.604 257.301 169.767 257.38 170.147Z" fill="black"/>
<path d="M256.692 170.37C256.759 172.394 257.374 174.749 258.688 176.344C260.16 178.132 262.289 178.379 264.46 177.908C264.84 177.824 264.677 177.244 264.297 177.328C262.024 177.818 260.039 177.401 258.755 175.384C257.832 173.934 257.35 172.08 257.295 170.376C257.283 169.978 256.68 169.978 256.692 170.37Z" fill="black"/>
<path d="M246.596 185.76C247.356 185.652 248.098 185.766 248.852 185.845C249.793 185.947 250.709 185.79 251.638 186.062C252.012 186.171 252.169 185.585 251.801 185.482C250.957 185.235 250.1 185.277 249.226 185.265C248.279 185.253 247.386 185.041 246.439 185.18C246.053 185.235 246.216 185.815 246.596 185.76Z" fill="black"/>
<path d="M247.199 187.27C248.194 187.053 249.195 186.986 250.209 186.98C250.595 186.98 250.595 186.376 250.209 186.376C249.141 186.383 248.08 186.461 247.036 186.691C246.656 186.769 246.819 187.355 247.199 187.27Z" fill="black"/>
<path d="M252.621 188.037C252.73 190.018 253.689 191.849 254.286 193.721C255.028 196.046 255.468 198.45 256.101 200.806C256.204 201.18 256.783 201.023 256.68 200.643C256.095 198.462 255.667 196.246 255.028 194.083C254.443 192.102 253.339 190.121 253.224 188.037C253.2 187.651 252.597 187.645 252.621 188.037Z" fill="black"/>
<path d="M267.548 203.742C267.542 206.297 267.361 208.906 267.88 211.419C268.465 214.245 269.858 217.006 270.92 219.681C272.675 224.103 274.195 228.482 274.949 233.193C275.009 233.579 275.594 233.416 275.528 233.03C274.804 228.506 273.374 224.296 271.704 220.038C270.697 217.477 269.569 214.928 268.736 212.3C267.868 209.564 268.139 206.574 268.151 203.742C268.151 203.349 267.548 203.349 267.548 203.742Z" fill="black"/>
<path d="M254.129 194.15C254.123 195.02 253.852 195.847 253.797 196.711C253.737 197.653 253.737 198.589 253.653 199.538C253.49 201.452 253.393 203.367 253.279 205.288C253.05 209.045 252.712 212.765 253.243 216.51C253.797 220.43 255.022 224.211 255.353 228.161C255.516 230.076 255.426 232.033 255.365 233.954C255.317 235.409 254.817 236.877 255.124 238.327C255.203 238.707 255.788 238.544 255.703 238.164C255.384 236.641 255.932 234.908 255.981 233.356C256.041 231.447 256.065 229.526 255.908 227.624C255.619 224.175 254.618 220.817 253.996 217.416C253.297 213.569 253.592 209.727 253.846 205.856C253.972 203.941 254.057 202.026 254.208 200.118C254.286 199.163 254.382 198.215 254.394 197.261C254.401 196.204 254.726 195.207 254.732 194.156C254.738 193.763 254.135 193.763 254.129 194.15Z" fill="black"/>
<path d="M247.447 263.839C248.351 263.791 249.859 264.999 249.907 266.056C253.025 264.395 256.041 262.988 256.041 262.988C256.596 265.253 256.885 266.823 255.239 267.264C252.766 267.929 245.034 268.973 243.176 269.227C241.319 269.481 237.097 269.783 240.161 268.321C243.225 266.859 244.938 266.509 245.788 265.754C246.638 264.999 247.447 263.839 247.447 263.839Z" fill="#582EFF"/>
<path d="M274.345 261.556C275.033 260.964 276.963 261.013 277.644 261.822C279.116 258.609 280.66 255.655 280.66 255.655C282.469 257.117 283.651 258.192 282.614 259.545C281.046 261.574 277.753 266.684 276.094 267.566C271.921 269.783 267.675 269.372 270.666 267.765C273.483 266.255 273.965 265.205 274.189 264.081C274.406 262.964 274.345 261.556 274.345 261.556Z" fill="#582EFF"/>
<path d="M246.855 239.643C248.261 239.945 255.474 239.631 257.036 238.924C257.289 239.782 257.277 241.745 257.223 242.095C257.175 242.446 250.215 243.303 247.446 243.05C246.843 242.953 246.855 239.643 246.855 239.643Z" fill="#4C8491"/>
<path d="M268.236 236.472C269.671 236.394 275.962 234.425 277.283 233.337C277.747 234.098 278.248 235.941 278.29 236.297C278.332 236.647 272.192 239.154 269.454 239.637C268.851 239.697 268.236 236.472 268.236 236.472Z" fill="#4C8491"/>
<path d="M248.996 167.749C248.852 168.057 248.731 168.456 249.021 168.715C249.25 168.921 249.539 168.818 249.69 168.583C249.962 168.148 249.678 167.399 249.099 167.743C248.767 167.942 249.069 168.462 249.401 168.262C249.551 168.172 249.208 168.244 249.195 168.118C249.202 168.178 249.195 168.196 249.177 168.256C249.171 168.269 249.153 168.287 249.195 168.256C249.28 168.287 249.364 168.287 249.443 168.256C249.455 168.19 249.479 168.118 249.509 168.057C249.678 167.707 249.159 167.399 248.996 167.749Z" fill="black"/>
<path d="M244.437 169.936C243.918 171.343 243.695 172.823 243.357 174.285C243.194 174.985 242.941 175.903 242.465 176.447C242.386 176.537 241.662 177.359 241.765 177.407C241.409 177.256 241.102 177.776 241.463 177.927C242.048 178.174 242.802 177.154 243.032 176.713C244.123 174.623 244.22 172.291 245.022 170.099C245.155 169.73 244.576 169.573 244.437 169.936Z" fill="black"/>
<path d="M254.431 260.518C254.418 261.273 254.201 261.955 253.87 262.632C253.701 262.982 254.219 263.284 254.388 262.934C254.768 262.16 255.016 261.381 255.034 260.518C255.04 260.125 254.437 260.125 254.431 260.518Z" fill="black"/>
<path d="M278.64 254.786C278.851 255.299 278.923 255.818 278.929 256.368C278.935 256.755 279.538 256.761 279.532 256.368C279.526 255.77 279.448 255.184 279.219 254.629C279.08 254.266 278.495 254.423 278.64 254.786Z" fill="black"/>
<path d="M245.456 266.473C245.939 266.636 246.282 267.077 246.765 267.258C247.151 267.403 247.718 267.3 247.971 266.962C248.212 266.636 248.08 266.249 247.844 265.966C247.495 265.549 246.892 265.44 246.439 265.168C246.107 264.969 245.8 265.488 246.138 265.688C246.27 265.766 247.778 266.394 247.464 266.63C247.157 266.866 246.747 266.606 246.493 266.425C246.21 266.219 245.957 266.008 245.619 265.893C245.245 265.76 245.088 266.346 245.456 266.473Z" fill="black"/>
<path d="M274.261 263.417C274.906 263.109 275.684 263.429 276.372 263.38C276.269 263.278 276.173 263.181 276.07 263.078C276.106 263.38 275.95 263.676 275.919 263.984C276.022 263.882 276.118 263.785 276.221 263.682C275.521 263.767 274.846 263.906 274.183 264.148C274.279 264.317 274.376 264.486 274.478 264.655C274.46 264.661 274.436 264.661 274.418 264.667C274.798 264.619 274.804 264.015 274.418 264.063C274.255 264.081 274.177 264.117 274.056 264.226C273.833 264.419 274.068 264.83 274.351 264.733C274.961 264.51 275.588 264.371 276.233 264.293C276.408 264.268 276.517 264.172 276.535 263.991C276.565 263.67 276.722 263.411 276.685 263.085C276.667 262.928 276.559 262.77 276.384 262.783C275.552 262.837 274.762 262.517 273.971 262.897C273.604 263.066 273.911 263.586 274.261 263.417Z" fill="black"/>
<path d="M264.738 192.755C264.557 194.029 264.738 195.418 264.37 196.65C264.255 197.025 264.84 197.182 264.949 196.814C265.323 195.569 265.142 194.198 265.317 192.918C265.371 192.537 264.786 192.374 264.738 192.755Z" fill="black"/>
<path d="M111.667 113.516C112.421 115.479 113.326 118.879 113.326 118.879L119.128 117.744L118.223 112.537L111.667 113.516Z" fill="#31C5A1"/>
<path d="M128.102 113.969C128.03 114.198 127.65 122.727 127.65 122.727L133.15 120.54L135.333 113.969H128.102Z" fill="#31C5A1"/>
<path d="M107.976 115.811C110.992 115.708 119.031 113.594 119.031 113.594C117.927 108.961 110.588 85.1034 110.286 84.1008C114.61 83.0921 123.959 83.6961 123.959 83.6961C122.65 88.4254 123.555 112.99 122.855 115.811C127.179 115.913 135.623 115.509 135.623 115.509C137.432 109.97 139.742 89.6395 142.559 86.3175C145.375 82.9955 153.011 83.4968 153.011 83.4968C154.114 75.4455 153.915 66.6875 153.915 66.6875C153.915 66.6875 132.909 65.4795 126.576 65.2802C120.243 65.0808 102.253 67.6962 96.4204 72.0268C90.5883 76.3575 94.008 85.1155 98.6338 94.4775C103.248 103.827 107.976 115.811 107.976 115.811Z" fill="#582EFF"/>
<path d="M108.428 76.9011C110.165 79.0936 112.578 83.1706 113.326 85.4356C114.074 87.7006 116.04 94.1211 116.872 93.5896C117.246 97.0626 118.006 96.4586 118.229 96.3076C119.134 96.9841 119.966 96.7123 119.888 94.4714C120.111 93.0641 120.895 91.4514 120.69 88.9328C120.491 86.4141 116.118 75.0891 113.103 71.1631C111.293 72.0691 108.428 76.9011 108.428 76.9011Z" fill="#F7CFB2"/>
<path d="M153.21 77.1003C153.21 79.9693 152.908 83.696 152.908 84.2456C152.908 84.8013 159.042 85.4536 161.551 85.955C164.066 86.4563 165.574 85.351 161.653 84.3966C167.884 84.0463 169.192 84.0946 169.192 83.7926C169.192 83.4906 166.979 82.5363 163.36 82.5363C159.741 82.5363 160.345 81.3766 160.345 76.9493C160.345 72.522 153.21 77.1003 153.21 77.1003Z" fill="#F7CFB2"/>
<path d="M107.469 76.4482C107.469 76.4482 113.802 72.1175 114.508 72.0209C113.103 68.2942 109.882 64.2716 109.984 63.1602C110.087 62.0489 117.324 51.3822 118.73 50.1742C121.546 57.8269 124.26 64.3682 127.776 65.2742C133.91 65.4735 148.885 68.7955 152.703 66.5849C152.703 72.6249 152.806 78.2602 152.806 78.2602L161.352 77.2515C161.352 77.2515 162.057 56.2142 161.551 47.5528C161.05 38.8975 158.837 21.0795 135.719 25.1022C123.156 27.8202 111.191 31.2448 104.761 44.8348C98.3262 58.4249 96.2153 63.5588 98.8328 66.1742C101.438 68.7955 107.469 76.4482 107.469 76.4482Z" fill="#31C5A1"/>
<path d="M127.65 42.2436C127.638 43.059 127.354 44.5388 128.313 44.9374C128.765 45.1247 129.26 44.5569 129.531 44.2912C130.11 43.7234 130.605 43.1013 131.105 42.4611C131.341 42.1591 130.919 41.7302 130.677 42.0322C130.068 42.8114 129.423 43.7294 128.603 44.3032C128.168 44.6113 128.247 42.5033 128.253 42.2436C128.259 41.8571 127.656 41.8571 127.65 42.2436Z" fill="black"/>
<path d="M133.832 41.2227C134.67 41.7603 135.309 42.5274 136.172 43.0347C136.292 43.1072 136.437 43.0831 136.54 42.9864C137.722 41.8449 138.566 40.51 139.356 39.0785C140.243 37.4658 141.129 35.9015 141.594 34.1076C142.07 32.2896 142.764 28.279 140.098 27.832C139.718 27.7716 139.555 28.3515 139.935 28.4119C141.913 28.7441 141.395 31.595 141.196 32.9781C140.966 34.615 140.291 36.0646 139.507 37.496C138.759 38.8732 138.053 40.2563 137.088 41.4945C136.491 42.2677 136.31 42.5032 135.49 41.7905C135.044 41.3979 134.634 41.0113 134.133 40.6912C133.807 40.4919 133.506 41.0113 133.832 41.2227Z" fill="black"/>
<path d="M114.104 27.524C114.104 31.9513 116.016 35.98 119.128 38.094C122.246 40.208 123.549 42.5213 127.873 42.5213C132.197 42.5213 137.722 37.8886 137.722 32.054C140.737 31.45 141.745 25.5127 138.626 25.9113C136.111 19.068 130.382 12.8226 120.334 16.7486C114.309 20.3726 113.905 23.7973 114.104 27.524Z" fill="#F7C9A8"/>
<path d="M114.08 29.9401C116.341 32.9601 124.103 32.9601 126.896 29.8676C129.688 26.7751 131.492 26.3946 132.251 27.6811C133.011 28.9677 133.808 31.2327 135.466 31.9091C135.768 32.0601 136.672 30.7011 136.672 30.7011C135.695 28.6596 137.402 25.9718 138.632 25.9175C136.696 19.6781 133.156 14.0126 122.903 15.7521C112.723 17.5581 113.175 26.6906 114.08 29.9401Z" fill="black"/>
<path d="M119.484 37.2967C120.014 36.9826 120.648 36.9705 121.221 36.7712C121.588 36.6444 121.432 36.0645 121.058 36.1914C120.43 36.4028 119.761 36.433 119.176 36.7772C118.844 36.9766 119.152 37.496 119.484 37.2967Z" fill="black"/>
<path d="M127.022 35.4363C127.8 35.086 128.633 34.8866 129.483 34.8746C129.869 34.8685 129.875 34.2645 129.483 34.2706C128.518 34.2887 127.595 34.5182 126.715 34.9168C126.365 35.0739 126.673 35.5933 127.022 35.4363Z" fill="black"/>
<path d="M124.568 37.1701C125.014 38.3056 125.231 39.5136 125.756 40.6129C125.84 40.7941 126.1 40.8001 126.232 40.6733C126.769 40.1478 127.059 39.4653 127.384 38.8009C127.553 38.4506 127.035 38.1486 126.866 38.4989C126.564 39.115 126.305 39.7613 125.81 40.2505C125.967 40.2686 126.124 40.2928 126.287 40.3109C125.786 39.2599 125.587 38.0942 125.159 37.0131C125.014 36.6507 124.429 36.8017 124.568 37.1701Z" fill="black"/>
<path d="M122.861 38.686C122.77 38.5954 122.68 38.4988 122.608 38.3961C122.571 38.535 122.535 38.6739 122.499 38.8068C122.565 38.7766 122.849 38.9699 122.849 39.0001C122.951 38.8974 123.048 38.8008 123.15 38.6981C122.915 38.7162 122.728 38.529 122.608 38.3417C122.59 38.4625 122.577 38.5833 122.559 38.7102C122.529 38.7404 122.499 38.7041 122.596 38.7343C122.638 38.7464 122.698 38.7826 122.722 38.8189C122.909 38.7283 122.957 38.6437 122.855 38.5773C122.825 38.5531 122.801 38.5229 122.776 38.4867C122.752 38.4565 122.698 38.384 122.692 38.3478C122.59 38.4505 122.493 38.5471 122.39 38.6498C122.457 38.6437 122.487 38.6619 122.541 38.6981C122.571 38.7162 122.596 38.7343 122.614 38.7585C122.722 38.8612 122.463 38.686 122.728 38.5954C122.656 38.6196 122.511 38.4746 122.469 38.4203C122.384 38.3055 122.288 38.5713 122.396 38.5954C122.481 38.6196 122.559 38.6981 122.62 38.7585C122.644 38.7826 122.668 38.8128 122.68 38.843C122.704 38.9216 122.734 38.8793 122.789 38.7102C122.704 38.6981 122.632 38.6135 122.602 38.5411C122.439 38.1907 121.92 38.4927 122.083 38.843C122.21 39.1148 122.535 39.3323 122.837 39.3081C123.169 39.2779 123.362 38.9638 123.259 38.6558C123.169 38.3719 122.885 38.1364 122.614 38.0337C122.378 37.9431 121.926 37.9914 121.872 38.3115C121.787 38.8431 122.457 39.3262 122.945 39.1571C123.699 38.9035 122.915 38.0035 122.396 38.0397C122.246 38.0518 122.077 38.1726 122.095 38.3417C122.143 38.8068 122.909 39.6584 123.277 38.9638C123.591 38.3719 122.541 37.8767 122.131 38.2813C122.041 38.3719 122.011 38.535 122.083 38.6498C122.318 39.0061 122.698 39.3323 123.15 39.3021C123.301 39.29 123.476 39.1692 123.452 39.0001C123.386 38.4505 122.698 38.0579 122.191 38.2874C122.053 38.3538 121.992 38.5773 122.083 38.6981C122.185 38.8491 122.306 38.982 122.433 39.1088C122.71 39.3866 123.138 38.9639 122.861 38.686Z" fill="black"/>
<path d="M129.399 36.9223C129.308 36.8317 129.218 36.7351 129.145 36.6324C129.109 36.7713 129.073 36.9103 129.037 37.0431C129.103 37.0129 129.387 37.2062 129.387 37.2364C129.489 37.1337 129.586 37.0371 129.688 36.9344C129.453 36.9525 129.266 36.7653 129.145 36.5781C129.127 36.6989 129.115 36.8197 129.097 36.9465C129.067 36.9767 129.037 36.9405 129.133 36.9707C129.176 36.9827 129.236 37.019 129.26 37.0552C129.447 36.9646 129.495 36.8801 129.393 36.8136C129.363 36.7895 129.338 36.7593 129.314 36.723C129.29 36.6928 129.236 36.6203 129.23 36.5841C129.127 36.6868 129.031 36.7834 128.928 36.8861C128.995 36.8801 129.025 36.8982 129.079 36.9344C129.109 36.9525 129.133 36.9707 129.152 36.9948C129.26 37.0975 129.001 36.9223 129.266 36.8317C129.194 36.8559 129.049 36.7109 129.007 36.6566C128.922 36.5418 128.826 36.8076 128.934 36.8317C129.019 36.8559 129.097 36.9344 129.158 36.9948C129.182 37.019 129.206 37.0492 129.218 37.0794C129.242 37.1579 129.272 37.1156 129.326 36.9465C129.242 36.9344 129.17 36.8499 129.139 36.7774C128.977 36.4271 128.458 36.7291 128.621 37.0794C128.747 37.3512 129.073 37.5686 129.375 37.5445C129.706 37.5143 129.899 37.2002 129.797 36.8921C129.706 36.6083 129.423 36.3727 129.152 36.27C128.916 36.1794 128.464 36.2277 128.41 36.5479C128.325 37.0794 128.995 37.5626 129.483 37.3935C130.237 37.1398 129.453 36.2398 128.928 36.2761C128.778 36.2882 128.609 36.4089 128.627 36.5781C128.675 37.0431 129.441 37.8948 129.809 37.2002C130.123 36.6083 129.073 36.113 128.663 36.5177C128.573 36.6083 128.542 36.7713 128.615 36.8861C128.85 37.2425 129.23 37.5686 129.682 37.5384C129.833 37.5263 130.008 37.4055 129.984 37.2364C129.917 36.6868 129.23 36.2942 128.723 36.5237C128.585 36.5901 128.524 36.8136 128.615 36.9344C128.717 37.0854 128.838 37.2183 128.965 37.3451C129.242 37.629 129.67 37.2002 129.399 36.9223Z" fill="black"/>
<path d="M130.894 45.1124C131.081 46.7975 131.775 48.1686 132.475 49.6786C133.446 51.7684 134.374 53.8764 135.369 55.9602C136.919 59.2037 138.331 63.2203 141.292 65.4551C141.606 65.6907 141.901 65.1652 141.594 64.9357C138.759 62.8035 137.384 58.7567 135.888 55.6582C135.128 54.0878 134.392 52.4993 133.675 50.9047C132.83 49.0323 131.721 47.1841 131.491 45.1124C131.455 44.7318 130.852 44.7258 130.894 45.1124Z" fill="black"/>
<path d="M117.741 47.9877C118.157 48.634 118.326 49.5098 118.561 50.2406C118.802 51.0016 119.031 51.7627 119.291 52.5177C119.417 52.8801 120.002 52.723 119.87 52.3546C119.568 51.4909 119.309 50.6211 119.031 49.7514C118.808 49.0568 118.651 48.2957 118.253 47.6797C118.054 47.3535 117.529 47.6555 117.741 47.9877Z" fill="black"/>
<path d="M150.116 43.6027C150.188 48.3985 150.839 53.1519 151.913 57.8148C153.047 62.7253 152.052 67.7385 152.987 72.6732C153.059 73.0537 153.638 72.8907 153.566 72.5101C152.667 67.7627 153.632 62.9367 152.613 58.2074C151.569 53.3754 150.785 48.5615 150.707 43.5967C150.713 43.2161 150.11 43.2161 150.116 43.6027Z" fill="black"/>
<path d="M123.947 84.6807C124.489 81.3043 125.225 78.3931 128.319 76.4784C131.256 74.6603 134.869 74.455 138.204 74.1047C138.584 74.0624 138.59 73.4584 138.204 73.5007C134.531 73.8872 130.852 74.2013 127.632 76.1945C124.616 78.0548 123.892 81.2439 123.361 84.5236C123.301 84.9042 123.886 85.0672 123.947 84.6807Z" fill="black"/>
<path d="M114.448 87.0183C115.805 88.7819 116.444 91.3308 116.667 93.5113C116.709 93.8918 117.312 93.8978 117.27 93.5113C117.035 91.2402 116.39 88.5645 114.966 86.7163C114.737 86.4082 114.212 86.7102 114.448 87.0183Z" fill="black"/>
<path d="M116.733 87.8515C117.336 90.642 118.03 93.4023 118.078 96.2773C118.084 96.6276 118.567 96.676 118.669 96.3558C118.687 96.3075 118.699 96.2532 118.718 96.2048C118.838 95.8364 118.259 95.6794 118.139 96.0418C118.12 96.0901 118.108 96.1444 118.09 96.1928C118.289 96.2169 118.488 96.2471 118.681 96.2713C118.633 93.3479 117.927 90.5272 117.312 87.6824C117.228 87.314 116.649 87.471 116.733 87.8515Z" fill="black"/>
<path d="M118.289 87.4468C118.639 89.0232 119.158 90.4184 119.333 92.0492C119.459 93.2331 119.894 94.8277 119.592 95.9934C119.496 96.3679 120.075 96.5309 120.171 96.1565C120.497 94.876 120.026 93.3539 119.93 92.0492C119.803 90.358 119.224 88.9205 118.862 87.2897C118.784 86.9092 118.205 87.0723 118.289 87.4468Z" fill="black"/>
<path d="M119.496 85.5383C119.743 86.5651 120.135 87.5074 120.322 88.5583C120.533 89.7301 120.539 90.9139 120.539 92.1038C120.539 92.4964 121.142 92.4964 121.142 92.1038C121.142 91.0227 121.16 89.9234 120.979 88.8543C120.774 87.6463 120.358 86.5591 120.075 85.3813C119.984 85.0008 119.405 85.1578 119.496 85.5383Z" fill="black"/>
<path d="M106.565 76.0435C107.27 74.1832 111.239 71.3625 115.262 70.4565C116.365 72.1175 117.174 73.0719 117.572 73.1745C113 75.3369 109.327 77.4509 108.175 78.4595C107.976 78.5139 106.565 76.0435 106.565 76.0435Z" fill="#0FA896"/>
<path d="M152.305 76.6717C154.344 76.6717 160.676 76.3697 162.932 75.6147C163.233 76.4483 163.004 78.4837 162.86 78.7857C162.715 79.0877 155.924 80.4467 152.154 79.9213C152.154 79.1663 152.305 76.6717 152.305 76.6717Z" fill="#0FA896"/>
<path d="M127.626 118.124C125.967 118.275 125.919 118.728 125.865 121.144C125.816 123.56 123.856 126.278 120.937 129.25C118.024 132.221 120.636 132.469 123.699 130.258C126.763 128.042 130.985 123.916 130.985 123.916C130.985 123.916 130.937 125.124 131.238 125.076C131.54 125.028 134.103 123.113 134.405 122.509C134.706 121.905 134.857 119.036 134.658 118.13C134.459 117.224 132.046 118.535 129.531 120.244C128.681 118.529 128.38 118.124 127.626 118.124Z" fill="#1F444D"/>
<path d="M113.609 115.781C111.963 115.545 111.806 115.974 111.203 118.317C110.6 120.655 108.067 122.853 104.55 125.07C101.034 127.287 103.519 128.138 107.011 126.683C110.503 125.233 115.557 122.189 115.557 122.189C115.557 122.189 115.232 123.355 115.539 123.373C115.841 123.391 118.778 122.123 119.212 121.603C119.646 121.084 119.574 118.094 119.586 117.17C119.598 116.24 117.825 117.194 114.984 118.281C114.544 116.415 114.345 115.95 113.609 115.781Z" fill="#1F444D"/>
<path d="M138.506 48.664C139.875 48.7123 141.208 48.5915 142.553 48.3197C143.825 48.06 144.917 47.2809 146.201 47.0695C146.587 47.0091 146.425 46.4232 146.039 46.4896C144.923 46.6708 143.928 47.2567 142.872 47.6251C141.515 48.0963 139.923 48.1144 138.506 48.0661C138.12 48.0479 138.12 48.6519 138.506 48.664Z" fill="black"/>
<path d="M138.216 48.5191C138.367 49.5943 138.838 50.6271 139.248 51.6237C139.622 52.5357 139.995 53.4478 140.58 54.2511C140.81 54.5591 141.334 54.2632 141.099 53.9491C140.478 53.0975 140.098 52.125 139.7 51.1526C139.332 50.2526 138.928 49.3225 138.795 48.3621C138.741 47.9695 138.162 48.1386 138.216 48.5191Z" fill="black"/>
<path d="M140.544 54.3597C141.485 54.9757 142.402 55.3502 143.494 55.5918C144.175 55.7428 145.104 56.0207 145.749 55.6462C146.087 55.4529 145.779 54.9274 145.448 55.1267C144.875 55.4589 143.855 55.0603 143.258 54.9274C142.372 54.7341 141.606 54.3355 140.852 53.8463C140.52 53.6228 140.219 54.1483 140.544 54.3597Z" fill="black"/>
<path d="M145.906 46.9308C146.135 47.9757 146.503 48.9542 146.967 49.9145C147.347 50.6937 147.944 51.7688 148.095 52.6446C148.246 52.5298 148.391 52.4151 148.542 52.3064C148.517 52.2882 148.487 52.2701 148.463 52.252C148.144 52.0285 147.842 52.554 148.162 52.7714C148.186 52.7896 148.216 52.8077 148.24 52.8258C148.481 52.9949 148.723 52.7171 148.68 52.4876C148.566 51.793 148.119 50.9896 147.842 50.3434C147.329 49.1535 146.774 48.0482 146.491 46.7677C146.401 46.3932 145.822 46.5502 145.906 46.9308Z" fill="black"/>
<path d="M148.349 52.1373C147.818 52.8923 147.269 53.5869 146.612 54.2392C146.443 54.4083 146.262 54.5714 146.081 54.7284C145.966 54.8311 145.592 55.2479 145.442 55.2358C145.056 55.2056 145.056 55.8096 145.442 55.8398C145.912 55.876 146.509 55.1633 146.811 54.8794C147.607 54.1486 148.246 53.3271 148.867 52.4453C149.09 52.1191 148.572 51.8171 148.349 52.1373Z" fill="black"/>
<path d="M139.561 50.0595C140.466 50.736 141.503 51.5635 142.667 51.7145C143.421 51.8111 143.898 51.4367 144.44 50.9414C144.863 50.5548 146.642 48.7549 145.671 48.1811C145.333 47.9818 145.031 48.5073 145.369 48.7005C145.55 48.8093 144.012 50.5186 143.849 50.6635C142.601 51.8051 140.936 50.3374 139.869 49.5341C139.555 49.2985 139.254 49.824 139.561 50.0595Z" fill="black"/>
<path d="M129.007 65.6485C130.756 65.6908 132.444 66.0773 134.157 66.3914C135.918 66.7176 137.71 66.8565 139.477 67.1464C141.171 67.4242 142.884 67.7625 144.525 68.2759C145.683 68.6383 146.799 69.0007 148.017 68.8074C148.403 68.747 148.24 68.1672 147.854 68.2276C146.352 68.4692 144.844 67.696 143.415 67.3397C141.811 66.935 140.188 66.6451 138.554 66.3914C136.974 66.1438 135.376 66.0109 133.801 65.7149C132.203 65.419 130.641 65.0807 129.007 65.0445C128.621 65.0384 128.621 65.6424 129.007 65.6485Z" fill="black"/>
<path d="M139.037 67.0075C139.923 67.0377 140.725 67.4183 141.6 67.527C142.667 67.6538 143.759 67.6659 144.838 67.7082C145.846 67.7444 146.859 67.5632 147.866 67.5149C148.686 67.4787 149.47 67.527 150.279 67.376C150.659 67.3035 150.496 66.7237 150.116 66.7961C148.457 67.1042 146.527 67.08 144.838 67.1102C143.94 67.1283 143.029 67.0257 142.13 66.9713C141.063 66.9049 140.098 66.4458 139.037 66.4096C138.644 66.3915 138.644 66.9955 139.037 67.0075Z" fill="black"/>
<path d="M129.296 84.0164C128.663 88.7276 128.404 93.4871 128.078 98.2225C127.758 102.825 127.173 107.476 127.077 112.084C127.071 112.477 127.674 112.471 127.68 112.084C127.776 107.675 128.331 103.218 128.639 98.8144C128.977 93.9341 129.23 89.0296 129.881 84.1795C129.93 83.7989 129.345 83.6359 129.296 84.0164Z" fill="black"/>
<path d="M109.291 80.3557C109.611 81.8778 110.081 83.3636 110.395 84.8857C110.473 85.2662 111.058 85.1032 110.974 84.7226C110.654 83.2006 110.183 81.7147 109.87 80.1927C109.791 79.8121 109.212 79.9752 109.291 80.3557Z" fill="black"/>
<path d="M98.3685 88.2742C100.329 92.4962 102.488 96.6215 104.43 100.856C105.425 103.024 106.33 105.234 107.132 107.481C107.439 108.351 107.717 109.221 108.085 110.066C108.41 110.815 108.923 111.643 109.05 112.47C109.176 112.344 109.297 112.223 109.417 112.096C109.399 112.09 109.381 112.09 109.363 112.084C108.983 112.017 108.82 112.603 109.2 112.664C109.218 112.67 109.237 112.67 109.255 112.676C109.496 112.718 109.665 112.543 109.629 112.301C109.55 111.782 109.267 111.268 109.062 110.791C108.579 109.638 108.115 108.502 107.705 107.312C106.969 105.18 106.094 103.102 105.172 101.049C103.199 96.6275 100.926 92.3512 98.8811 87.9601C98.7243 87.6219 98.1996 87.9239 98.3685 88.2742Z" fill="black"/>
<path d="M106.981 75.7718C107.27 74.5699 109.152 73.7484 110.123 73.1142C111.541 72.1901 113.115 71.7794 114.61 71.0425C114.96 70.8734 114.653 70.3479 114.309 70.5231C113.434 70.9519 112.451 71.1331 111.595 71.5801C110.678 72.0572 109.822 72.6008 108.965 73.1686C108.036 73.7847 106.691 74.4249 106.402 75.6087C106.311 75.9893 106.89 76.1523 106.981 75.7718Z" fill="black"/>
<path d="M109.936 63.3535C108.097 62.2724 106.112 61.62 103.977 61.4992C103.591 61.4751 103.591 62.0791 103.977 62.1032C106.004 62.218 107.886 62.8462 109.629 63.873C109.966 64.0723 110.268 63.5468 109.936 63.3535Z" fill="black"/>
</svg>
