<svg width="520" height="331" viewBox="0 0 520 331" fill="none" xmlns="http://www.w3.org/2000/svg">
<path d="M515.548 329.72C394.594 330.102 241.05 330.092 110.027 330.081C86.6054 330.079 63.9055 330.077 42.2391 330.077C-35.903 218.666 13.4454 158.453 39.2999 109.443C76.8481 45.2211 129.547 9.37921 186.254 10.2666C215.662 8.82297 240.281 13.2477 259.852 22.9206C307.146 46.0055 318.775 91.0442 366.109 98.1958C380.925 99.9006 402.659 100.936 415.453 104.993C450.462 114.588 466.498 135.344 491.893 183.972C535.303 270.258 515.463 329.483 515.548 329.72Z" fill="#F9F7FF"/>
<path d="M203.098 99.6309C202.843 99.6309 199.742 99.6309 197.905 103.242C196.068 106.852 196.638 108.878 196.638 108.878L211.269 114.071L203.098 99.6309Z" fill="#FF9362"/>
<path d="M354.094 241.697H350.04V202.173H354.094V241.697Z" fill="#693D28"/>
<path d="M400.342 262.869H346.344V252.654H400.342V262.869Z" fill="#572F1C"/>
<path d="M340.141 317.231H337.588L346.344 262.869H353.276L340.141 317.231Z" fill="#572F1C"/>
<path d="M408.734 317.231H406.179L393.043 262.869H399.976L408.734 317.231Z" fill="#572F1C"/>
<path d="M383.192 202.304H333.666V202.227C333.666 198.038 337.062 194.642 341.25 194.642H384.834L383.192 202.304Z" fill="#31C5A1"/>
<path d="M403.261 252.655H337.924V241.579H403.261V252.655Z" fill="#8B3C18"/>
<path d="M433.905 248.275L382.828 246.086L403.617 152.536C405.102 145.849 411.131 141.16 417.977 141.363L438.183 141.967C447.012 142.233 453.487 150.373 451.753 159.036L433.905 248.275Z" fill="#60CBB1"/>
<path d="M423.265 248.275L372.188 246.086L392.977 152.536C394.462 145.849 400.491 141.16 407.337 141.363L427.543 141.967C436.372 142.233 442.847 150.373 441.113 159.036L423.265 248.275Z" fill="#31C5A1"/>
<path d="M422.169 229.994C418.032 236.066 412.791 239.925 386.857 240.755C364.34 241.473 353.422 228.529 353.325 231.554C353.024 241.184 351.03 255.576 345.794 263.667C332.479 284.247 330.027 300.979 330.547 303.877C330.962 306.175 329.906 308.633 328.676 309.932C325.165 313.617 317.02 313.476 312.207 313.731C305.807 314.069 308.09 311.276 306.634 310.438C307.229 310.052 319.266 301.634 320.096 299.517C322.224 294.064 323.858 289.243 326.341 279.312C327.752 273.649 330.015 259.118 331.946 247.221C333.154 239.728 337.932 222.544 339.474 217.076C339.84 215.777 340.501 214.61 341.445 213.646C342.204 212.868 343.337 211.786 345.01 210.318C345.442 209.932 346.169 209.657 347.119 209.468C347.119 209.468 419.4 197.958 424.101 207.926C430.999 222.547 426.307 223.926 422.169 229.994Z" fill="#DCAE99"/>
<path d="M332.201 308.594C332.081 310.013 331.755 312.282 331.392 314.23C330.985 316.376 330.619 318.202 330.619 318.202H324.379C324.379 318.202 321.461 315.526 318.906 316.013C316.351 316.499 313.069 317.715 311.893 318.202C310.757 318.728 295.556 318.891 295.556 318.891C295.556 318.891 294.746 318.768 293.936 318.405H293.893C292.964 317.998 291.991 317.229 292.354 316.013C293.044 313.741 296.529 313.621 298.434 313.458C300.463 313.298 308.731 308.92 308.731 308.92C308.731 308.92 318.216 308.674 322.837 307.661C327.457 306.648 330.459 301.581 330.459 301.581C330.459 301.581 332.444 305.555 332.201 308.594Z" fill="#5A46AA"/>
<path d="M331.391 314.23C330.985 316.376 330.618 318.202 330.618 318.202H324.378C324.378 318.202 321.46 315.526 318.905 316.013C316.35 316.499 313.068 317.715 311.892 318.202C310.756 318.728 295.555 318.891 295.555 318.891C295.555 318.891 294.746 318.768 293.936 318.405C299.163 318.161 310.23 318.038 311.123 317.512C312.299 316.863 317.203 315.16 320.041 315C321.946 314.877 327.743 314.471 331.391 314.23Z" fill="#3C271E"/>
<path d="M422.169 229.994C418.032 236.066 412.791 239.925 386.857 240.755C364.34 241.473 353.422 228.529 353.325 231.554C353.024 241.184 351.03 255.576 345.794 263.667C332.479 284.247 330.027 300.979 330.547 303.877C330.962 306.175 329.906 308.633 328.676 309.932C325.165 313.617 317.02 313.476 312.207 313.731C305.807 314.069 308.09 311.276 306.634 310.438C307.229 310.052 319.266 301.634 320.096 299.517C322.224 294.064 323.858 289.243 326.341 279.312C327.752 273.649 330.015 259.118 331.946 247.221C333.154 239.728 337.932 222.544 339.474 217.076C339.84 215.777 340.501 214.61 341.445 213.646C342.204 212.868 343.337 211.786 345.01 210.318C345.442 209.932 346.169 209.657 347.119 209.468C347.119 209.468 419.4 197.958 424.101 207.926C430.999 222.547 426.307 223.926 422.169 229.994Z" fill="#FEBA9A"/>
<path d="M332.201 308.594C332.081 310.013 331.755 312.282 331.392 314.23C330.985 316.376 330.619 318.202 330.619 318.202H324.379C324.379 318.202 321.461 315.526 318.906 316.013C316.351 316.499 313.069 317.715 311.893 318.202C310.757 318.728 295.556 318.891 295.556 318.891C295.556 318.891 294.746 318.768 293.936 318.405H293.893C292.964 317.998 291.991 317.229 292.354 316.013C293.044 313.741 296.529 313.621 298.434 313.458C300.463 313.298 308.731 308.92 308.731 308.92C308.731 308.92 318.216 308.674 322.837 307.661C327.457 306.648 330.459 301.581 330.459 301.581C330.459 301.581 332.444 305.555 332.201 308.594Z" fill="#6F3115"/>
<path d="M331.391 314.23C330.985 316.376 330.618 318.202 330.618 318.202H324.378C324.378 318.202 321.46 315.526 318.905 316.013C316.35 316.499 313.068 317.715 311.892 318.202C310.756 318.728 295.555 318.891 295.555 318.891C295.555 318.891 294.746 318.768 293.936 318.405C299.163 318.161 310.23 318.038 311.123 317.512C312.299 316.863 317.203 315.16 320.041 315C321.946 314.877 327.743 314.471 331.391 314.23Z" fill="#3C271E"/>
<path d="M421.231 202.343C428.496 206.397 430.862 239.926 404.928 240.756C382.411 241.474 361.536 221.109 361.442 224.13C361.139 233.761 364.232 251.729 361.442 260.95C353.671 286.623 354.856 304.021 355.376 306.917C355.791 309.217 354.736 311.672 353.502 312.971C349.995 316.659 341.849 316.519 337.037 316.774C330.633 317.108 332.919 314.316 331.463 313.478C332.058 313.094 344.095 304.677 344.922 302.557C347.053 297.106 339.145 227.171 342.187 211.97C342.453 210.645 414.817 198.763 421.231 202.343Z" fill="#FEBA9A"/>
<path d="M357.03 311.635C356.907 313.054 356.584 315.323 356.221 317.268C355.814 319.417 355.448 321.24 355.448 321.24H349.205C349.205 321.24 346.287 318.564 343.735 319.051C341.18 319.537 337.898 320.753 336.722 321.24C335.586 321.769 320.385 321.929 320.385 321.929C320.385 321.929 319.575 321.809 318.763 321.443H318.723C317.793 321.039 316.817 320.267 317.183 319.051C317.873 316.782 321.358 316.659 323.263 316.499C325.289 316.336 333.56 311.958 333.56 311.958C333.56 311.958 343.045 311.715 347.666 310.702C352.287 309.689 355.288 304.622 355.288 304.622C355.288 304.622 357.274 308.593 357.03 311.635Z" fill="#6F3115"/>
<path d="M374.42 141.28C374.42 141.28 373.39 139.092 372.005 140.551C370.624 142.01 355.577 179.874 355.577 179.874C355.577 179.874 341.131 156.027 339.523 155.443C337.918 154.859 333.472 160.845 333.472 160.845C333.472 160.845 348.879 196.492 355.305 195.47C361.728 194.449 372.375 173.11 376.463 166.684C380.552 160.261 374.42 141.28 374.42 141.28Z" fill="#D5EDE7"/>
<path d="M411.137 241.857C405.786 243.682 375.264 241.857 372.709 241.857C372.709 241.857 369.67 262.165 363.144 264.68C361.319 265.367 357.104 265.043 352.2 264.274C341.497 262.531 327.391 258.6 326.742 257.667C326.742 257.667 332.945 209.875 341.334 208.416C349.725 206.957 387.95 199.741 387.95 199.741L391.438 194.227C391.438 194.227 399.747 198.808 408.748 197.915C409.881 197.795 410.936 197.672 411.866 197.512C418.272 196.416 419.975 194.594 419.975 194.594C419.975 194.594 422.893 191.835 427.88 210.604C432.824 229.331 416.447 240.034 411.137 241.857Z" fill="#D5EDE7"/>
<path d="M394.396 225.157C389.086 226.983 358.563 225.157 355.968 225.157C355.968 225.157 354.632 246.155 352.2 264.275C341.497 262.532 327.391 258.601 326.742 257.669C326.742 257.669 332.945 209.876 341.334 208.417C349.725 206.958 387.95 199.742 387.95 199.742L391.438 194.229C391.438 194.229 399.747 198.809 408.748 197.917C409.881 197.796 410.936 197.673 411.866 197.513C413.975 214.01 399.383 223.415 394.396 225.157Z" fill="#E0F7F1"/>
<path d="M382.74 141.863C387.249 141.439 387.838 131.929 396.004 128.244L395.683 128.195C392.098 127.643 390.994 114.676 390.994 114.676L380.236 125.989L380.511 136.472L378.909 137.605C379.049 139.545 379.778 142.14 382.74 141.863Z" fill="#F1B093"/>
<path d="M424.653 187.785C422.996 183.648 423.549 177.302 421.343 165.717C419.134 154.13 418.585 153.303 414.445 141.715C410.416 130.434 399.87 128.832 396.004 128.245C387.839 131.93 387.249 141.441 382.74 141.864C379.779 142.142 379.049 139.547 378.909 137.607L373.891 141.163C373.891 141.163 374.995 144.473 374.995 148.336C374.995 152.199 376.374 167.096 376.374 167.096C376.374 167.096 387.41 181.165 388.789 183.648C390.168 186.132 385.753 199.65 385.753 199.65C385.753 199.65 428.516 218.686 429.068 210.408C429.617 202.134 426.307 191.925 424.653 187.785Z" fill="#6A54C0"/>
<path d="M380.343 136.777C380.343 136.777 378.363 148.29 378.363 154.567C378.363 160.844 387.115 181.23 387.115 181.23L375.004 166.833L373.316 140.259L380.343 136.777Z" fill="#E0F7F1"/>
<path d="M429.3 213.116C426.948 215.022 424.433 216.927 422.164 218.549C421.151 218.426 420.341 218.183 420.055 217.94C411.827 210.481 403.275 207.279 396.545 205.943C389.126 204.521 383.979 205.374 383.979 205.374C383.979 205.374 384.872 193.417 385.722 186.405C386.614 179.392 381.71 170.434 381.71 170.434C382.926 170.96 389.169 145.462 391.275 135.451C392.128 131.557 394.763 129.857 397.598 129.168L397.924 129.125C399.627 128.721 401.329 128.801 402.951 129.248C405.91 129.977 408.545 131.883 410.287 134.518C413.409 139.302 417.786 146.111 418.679 148.22C419.569 150.246 421.638 162.162 423.826 172.866C425.205 180.038 426.665 186.648 427.798 189.443C429.743 194.39 429.543 206.47 429.3 213.116Z" fill="#E0F7F1"/>
<path d="M429.299 213.116C426.947 215.022 424.432 216.927 422.164 218.549C421.151 218.426 420.341 218.183 420.055 217.94C411.826 210.481 403.274 207.279 396.545 205.943C396.382 205.334 396.465 204.847 396.748 204.521C399.463 201.483 398.937 184.416 398.937 179.878C398.937 175.338 395.409 172.093 398.247 169.055C401.126 166.013 395.209 149.476 395.046 138.003C394.966 132.979 396.342 130.424 397.924 129.125C399.95 127.425 402.302 127.869 402.302 127.869L402.951 129.248L423.826 172.866C425.205 180.038 426.664 186.648 427.797 189.443C429.743 194.39 429.542 206.47 429.299 213.116Z" fill="#D5EDE7"/>
<path d="M368.48 97.639C368.48 97.639 362.503 101.665 363.965 107.086C365.702 113.518 364.709 114.42 364.606 115.023C364.506 115.624 363.645 118.374 362.904 119.967C361.779 122.382 366.48 121.901 366.48 121.901C366.48 121.901 367.516 123.481 367.069 125.146C366.958 125.566 367.55 125.652 368.345 125.724C369.138 125.795 368.2 126.536 368.437 127.063C368.755 127.764 370.168 127.861 370.022 129.452C369.876 131.04 368.935 133.818 374.199 132.416C379.467 131.011 388.848 129.037 389.275 114.09C389.701 99.1439 388.004 92.5977 386.107 91.7164C384.208 90.8381 368.48 97.639 368.48 97.639Z" fill="#FEC2A7"/>
<path d="M396.019 129.453C394.033 130.182 392.331 130.749 391.398 131.278C387.101 133.71 381.994 129.533 381.994 129.533C381.994 129.533 387.95 124.629 388.44 120.615C388.843 117.21 386.411 113.968 385.601 112.995C386.128 113.765 387.464 116.197 385.805 119.968C383.736 124.629 376.803 126.211 376.803 126.211C376.803 126.211 380.371 119.845 380.088 115.914C379.805 112.022 372.306 108.901 366.752 105.213C361.199 101.522 360.103 97.7111 371.736 89.7658C377.25 86.0377 382.723 85.0649 387.344 85.5112C392.491 85.9575 396.585 88.1464 398.614 90.2121C400.276 91.9173 405.057 102.132 410.367 113.642C414.545 122.683 403.195 126.898 396.019 129.453Z" fill="#F05B18"/>
<path d="M338.261 157.193L333.6 161.871L330.095 156.529L315.483 155.144L312.943 152.183L324.788 150.692L320.021 146.821C320.021 146.821 315.921 145.07 315.641 144.492C315.343 143.914 316.061 142.3 316.061 142.3L320.951 143.931L322.65 144.492L327.469 145.665C327.469 145.665 333.88 149.608 334.756 151.639C335.631 153.691 338.261 157.193 338.261 157.193Z" fill="#FEC2A7"/>
<path d="M324.788 150.694L329.52 163.16L308.745 174.813L295.063 144.917L315.332 135.289L320.951 143.933L316.061 142.302C316.061 142.302 315.343 143.916 315.641 144.494C315.921 145.072 320.021 146.822 320.021 146.822L324.788 150.694Z" fill="#E8F7F3"/>
<path d="M356.091 317.393C355.688 319.542 355.322 321.368 355.322 321.368H349.079C349.079 321.368 346.16 318.692 343.608 319.179C341.053 319.665 337.769 320.881 336.593 321.368C335.46 321.894 320.258 322.057 320.258 322.057C320.258 322.057 319.449 321.934 318.636 321.571C323.866 321.328 334.933 321.205 335.823 320.678C336.999 320.029 341.903 318.326 344.741 318.166C346.647 318.043 352.443 317.637 356.091 317.393Z" fill="#6F3115"/>
<path d="M433.906 252.655H368.569V252.543C368.569 246.489 373.479 241.579 379.533 241.579H433.906V252.655Z" fill="#60CBB1"/>
<path d="M442.068 202.304H377.335V202.227C377.335 198.038 381.775 194.642 387.249 194.642H444.214L442.068 202.304Z" fill="#60CBB1"/>
<path d="M426.61 262.869H372.612V252.654H426.61V262.869Z" fill="#693D28"/>
<path d="M366.411 317.231H363.856L372.611 262.869H379.544L366.411 317.231Z" fill="#693D28"/>
<path d="M435.002 317.231H432.447L419.314 262.869H426.244L435.002 317.231Z" fill="#693D28"/>
<path d="M267.717 218.357H264.069L277.568 179.683H281.216L267.717 218.357Z" fill="#6F3115"/>
<path d="M272.045 239.549H203.65V227.902H272.045V239.549Z" fill="#542815"/>
<path d="M195.793 301.54H192.56L203.65 239.547H212.431L195.793 301.54Z" fill="#542815"/>
<path d="M282.675 301.54H279.442L262.804 239.547H271.585L282.675 301.54Z" fill="#542815"/>
<path d="M141.116 241.343L152.062 250.098L289.244 227.844L278.297 217.627L129.806 234.777L141.116 241.343Z" fill="#31C5A1"/>
<path d="M55.7433 164.723L59.0256 153.05L209.16 141.92L199.126 224.558L70.3362 249.367L55.7433 164.723Z" fill="#31C5A1"/>
<path d="M208.611 172.838C208.611 172.838 289.244 171.15 291.432 177.23C293.621 183.31 291.796 185.676 291.796 185.676H209.341L208.611 172.838Z" fill="#31C5A1"/>
<path d="M290.337 227.562H212.259V210.332H278.686C285.121 210.332 290.337 214.644 290.337 219.96V227.562Z" fill="#31C5A1"/>
<path d="M195.144 138.375C195.144 138.375 206.864 141.786 210.838 155.834C214.809 169.882 218.889 188.714 218.889 188.714L225.678 224.904L216.337 226.561L188.243 145.431C188.243 145.431 190.538 137.477 195.144 138.375Z" fill="#31C5A1"/>
<path d="M251.66 287.017C251.618 287.208 251.575 287.454 251.523 287.809C251.211 289.949 264.198 295.837 264.198 295.837L261.875 291.737C261.875 291.737 263.983 291.288 266.049 290.925L262.676 287.005C262.676 287.005 262.676 284.261 263.815 273.489C264.433 267.635 252.213 267.289 252.213 270.502C252.213 273.712 253.042 281.386 251.844 285.666C251.703 286.17 251.598 286.653 251.523 287.114L251.66 287.017Z" fill="#F8A783"/>
<path d="M252.238 292.359C252.238 292.359 260.267 297.177 264.284 298.782C268.298 300.387 270.973 296.642 270.973 296.642L266.049 290.926C263.983 291.289 261.875 291.738 261.875 291.738L264.198 295.838C264.198 295.838 251.211 289.95 251.523 287.81C251.574 287.455 251.617 287.209 251.66 287.017L251.523 287.115C250.997 290.485 252.238 292.359 252.238 292.359Z" fill="#BD9481"/>
<path d="M264.638 302.082C267.136 301.816 280.875 302.262 280.875 302.262L280.81 301.893C281.016 302.165 281.176 302.456 281.053 302.62C280.787 302.974 280.787 303.063 277.931 303.243C275.076 303.421 264.638 303.332 264.103 303.063C263.932 302.977 263.565 302.519 263.156 301.947C263.551 302.087 264.023 302.15 264.638 302.082Z" fill="#161412"/>
<path d="M249.889 296.507L250.276 297.085C251.429 298.238 257.062 298.407 259.466 299.268L259.377 300.833L249.635 300.21C249.635 300.21 249.577 298.047 249.889 296.507Z" fill="#161412"/>
<path d="M249.895 296.512L250.281 297.09C251.425 298.235 257.067 298.406 259.465 299.262L260 299.499C261.476 300.3 261.949 301.511 263.159 301.948C263.554 302.089 264.026 302.143 264.635 302.077C267.141 301.811 280.875 302.26 280.875 302.26L280.812 301.897C280.66 301.136 280.211 299.465 279.184 299.047C279.184 299.047 275.877 296.555 274.538 295.216C273.198 293.877 270.887 290.933 269.902 290.57C269.453 290.409 267.762 290.633 266.049 290.924C263.983 291.288 261.874 291.737 261.874 291.737L264.197 295.837C264.197 295.837 251.211 289.949 251.523 287.809C251.574 287.454 251.617 287.208 251.66 287.016L251.523 287.113C251.116 287.422 250.504 288.204 250.281 290.132C249.969 292.678 249.262 295.099 249.895 296.512Z" fill="#543BB5"/>
<path d="M213.504 196.743C213.504 196.743 237.326 197.818 248.564 200.599C259.806 203.383 268.369 205.789 270.778 208.467C273.187 211.143 268.083 273.813 268.083 273.813L251.757 273.009C251.757 273.009 250.169 253.696 251.777 244.598C253.383 235.497 256.327 226.933 253.383 225.328C250.438 223.723 209.224 223.188 199.587 219.706C189.954 216.23 184.066 190.892 184.066 190.892L203.47 183.31L213.504 196.743Z" fill="#25597E"/>
<path d="M266.838 136.989L271.219 127.596L279.979 123.556L285.45 118.883C285.45 118.883 286.86 120.345 284.297 123.264C281.733 126.185 279.979 127.596 279.979 127.596L287.384 126.766L292.245 125.307C292.245 125.307 294.723 124.048 297.08 122.866C299.441 121.684 299.521 123.842 299.521 123.842L294.199 127.644L289.324 129.035L295.455 127.753L298.085 126.185C298.085 126.185 298.96 128.52 298.085 129.982C297.209 131.441 290.629 137.281 285.45 136.989C280.271 136.697 274.14 136.551 274.14 136.551L270.635 138.82L266.838 136.989Z" fill="#F8A783"/>
<path d="M227.474 124.431C227.474 124.431 228.058 119.982 230.101 122.611C232.147 125.238 250.343 155.385 250.343 155.385C250.343 155.385 257.785 148.376 260.998 143.12C263.138 139.621 265.018 137.154 266.037 135.898C266.546 135.269 266.838 134.943 266.838 134.943L272.105 138.447C272.105 138.447 260.998 179.588 246.982 174.203C232.965 168.815 219.881 147.431 219.881 147.431L227.474 124.431Z" fill="#FF9362"/>
<path d="M201.69 175.742L199.702 178.337C200.108 176.392 200.391 175.056 200.391 174.812C200.391 174.649 200.675 174.083 201.161 173.23C201.364 174.203 201.567 175.056 201.69 175.742Z" fill="#BAEADD"/>
<path d="M208.154 99.0251C208.154 99.0251 202.265 95.5288 195.227 92.7535C188.189 89.9753 183.371 58.8062 209.948 61.4384C221.069 62.5399 208.803 70.6284 209.25 75.89C209.693 81.1545 206.466 92.7535 206.466 92.7535L204.872 119.076L182.069 117.557C182.069 117.557 193.722 102.862 193.977 99.3141C193.977 99.3141 187.39 83.8611 193.722 76.0073C200.057 68.1535 208.154 99.0251 208.154 99.0251Z" fill="#B84E1F"/>
<path d="M202.265 95.5279L200.391 112.924L209.947 136.94C209.947 136.94 221.083 124.709 218.056 121.221C214.405 117.018 216.039 101.227 216.039 101.227L202.265 95.5279Z" fill="#F8A783"/>
<path d="M203.87 119.612L208.153 119.346C208.153 119.346 210.829 119.881 210.829 128.714C210.829 137.546 210.56 147.179 208.153 155.746C205.744 164.309 199.856 174.211 199.856 174.211L198.786 148.249L199.587 124.431L203.87 119.612Z" fill="#B95122"/>
<path d="M221.844 158.344C219.686 161.66 208.943 167.514 208.943 167.514L209.472 191.35L194.961 199.012C194.961 199.012 196.134 193.905 197.432 188.391C194.028 195.081 189.567 203.023 186.203 205.538C180.043 210.079 155.964 192.929 155.964 192.929C155.964 192.929 174.448 154.421 175.785 148.261C177.124 142.098 180.569 114.534 180.569 114.534L197.026 111.332C197.026 111.332 198.88 107.33 199.487 107.167C200.297 106.883 204.322 115.75 204.322 116.562C204.322 117.372 209.672 137.194 209.672 137.194L216.445 124.951L218.307 114.128L229.191 122.368C229.191 122.368 226.854 150.65 221.844 158.344Z" fill="#E46830"/>
<path d="M200.391 94.1722C200.391 94.1722 204.405 101.451 206.814 101.969C209.223 102.487 213.772 104.993 216.983 104.944C220.196 104.896 223.077 101.348 224.038 94.7243C224.754 89.8089 224.479 89.5171 224.479 89.5171L223.675 86.161L224.479 76.8823C224.479 76.8823 225.014 71.4405 216.983 70.3704C208.954 69.3003 203.87 74.3502 202.531 77.5804C201.195 80.8078 202.336 90.9534 202.336 90.9534C202.336 90.9534 197.744 83.2341 196.002 83.0996C194.262 82.9651 196.44 93.4969 197.776 93.7401C199.115 93.9833 200.391 94.1722 200.391 94.1722Z" fill="#FEBA9A"/>
<path d="M200.926 124.429L208.153 119.345C208.153 119.345 203.967 106.833 200.926 103.824C197.776 100.705 196.637 108.876 196.637 108.876L200.926 124.429Z" fill="#FF9362"/>
<path d="M215.647 106.234C215.647 106.234 222.872 116.938 222.071 119.882C221.267 122.826 213.238 133.756 213.238 133.756L209.948 136.94C209.948 136.94 215.976 126.305 215.275 120.686C214.577 115.064 215.647 106.234 215.647 106.234Z" fill="#FF9362"/>
<path d="M233.404 279.716L238.139 294.113C238.139 294.113 243.312 300.894 245.186 300.717C247.06 300.537 251.503 293.896 251.503 293.896L242.193 272.629L233.404 279.716Z" fill="#FEBA9A"/>
<path d="M242.192 305.077C242.536 305.666 242.845 306.201 243.102 306.65C244.976 306.779 259.611 307.014 260.541 305.698C260.927 305.143 260.853 304.522 260.627 303.975C259.771 305.74 244.559 305.526 243.005 305.26C242.727 305.217 242.45 305.151 242.192 305.077Z" fill="#18181C"/>
<path d="M243.099 306.647L243.005 306.638C242.355 306.581 241.68 305.688 241.128 304.71C241.44 304.836 241.797 304.965 242.195 305.076C242.538 305.66 242.845 306.203 243.099 306.647Z" fill="#18181C"/>
<path d="M235.715 296.716L235.781 297.025C236.316 298.301 236.316 304.486 236.316 304.486L240.061 304.189C240.061 304.189 240.49 304.443 241.134 304.712C240.427 303.471 239.924 302.089 239.924 302.089L240.17 302.1C239.526 301.308 238.819 300.592 238.061 300.089C236.796 299.242 236.101 297.926 235.715 296.716Z" fill="#18181C"/>
<path d="M235.715 296.716C236.102 297.926 236.797 299.242 238.062 300.089C238.82 300.593 239.527 301.308 240.17 302.1C240.951 303.053 241.635 304.123 242.193 305.076C242.451 305.15 242.728 305.216 243.006 305.259C244.559 305.525 259.772 305.74 260.627 303.975L260.67 303.771C260.404 301.78 257.457 300.335 257.457 300.335L251.572 288.173C251.572 288.173 249.429 287.06 246.754 287.328C244.076 287.595 243.275 287.595 243.275 289.469C243.275 291.343 245.415 297.551 243.81 296.993C242.205 296.427 238.19 290.004 238.19 290.004C238.19 290.004 235.621 295.014 235.715 296.716Z" fill="#6A54C0"/>
<path d="M239.924 302.09C239.924 302.09 240.428 303.472 241.134 304.713C241.443 304.842 241.798 304.971 242.193 305.077C241.635 304.124 240.951 303.054 240.17 302.101L239.924 302.09Z" fill="#18181C"/>
<path d="M223.861 86.444C224.024 83.889 224.347 71.2429 216.525 71.6892C212.228 71.9324 209.229 71.0797 209.229 71.0797V71.0397C209.593 70.4332 217.052 57.1775 223.335 65.9726C229.741 74.9709 223.861 86.8904 223.861 86.8904C223.861 86.8904 223.861 86.7273 223.861 86.444Z" fill="#B84E1F"/>
<path d="M174.899 187.653C174.899 187.653 169.546 192.322 168.744 201.495C167.94 210.668 167.673 218.696 181.056 224.584C194.434 230.473 215.979 235.826 215.979 235.826C215.979 235.826 216.113 247.333 219.326 255.362C222.536 263.39 230.244 282.25 230.244 282.25L246.876 277.676C246.876 277.676 241.271 251.347 238.327 235.557C235.383 219.766 242.876 217.626 230.565 213.343C218.253 209.063 197.112 193.538 197.112 193.538L174.899 187.653Z" fill="#452F9C"/>
<path d="M179.88 148.489C179.88 148.489 185.405 136.982 185.94 128.418C186.475 119.852 184.066 113.698 181.256 113.698C178.446 113.698 164.53 135.643 163.727 139.391C162.923 143.136 149.799 185.286 150.603 191.174C151.405 197.062 169.615 196.931 169.615 196.931L186.996 191.995L167.841 177.767L179.88 148.489Z" fill="#FF9362"/>
<path d="M190.543 193.424L202.866 193.639L210.254 198.016C210.254 198.016 214.359 204.586 215.727 205.678C217.095 206.771 222.021 209.784 216.82 208.963C211.621 208.142 205.069 205.555 204.377 204.248C203.687 202.943 191.919 199.112 191.919 199.112L190.543 193.424Z" fill="#F8A783"/>
<path d="M190.543 193.424C190.543 193.424 198.886 199.158 200.451 199.158C202.016 199.158 206.448 201.246 206.969 202.811C207.492 204.374 206.969 205.678 206.969 205.678C206.969 205.678 201.232 202.811 197.584 202.548C193.933 202.288 186.632 198.637 186.632 198.637L190.543 193.424Z" fill="#FECEB8"/>
<path d="M146.955 293.148C146.955 293.148 140.022 307.013 142.941 308.106C145.86 309.202 156.44 305.917 156.44 304.095C156.44 302.269 157.17 289.866 157.17 289.866L146.955 293.148Z" fill="#37314E"/>
<path d="M159.187 135.738C159.187 135.738 165.926 129.884 165.926 141.375C165.926 152.868 153.338 191.176 153.338 191.176L186.72 189.533L187.816 198.838C187.816 198.838 152.79 210.331 139.657 208.689C126.523 207.046 151.354 145.42 159.187 135.738Z" fill="#543BB5"/>
<path d="M120.559 125.98C136.044 119.439 149.628 119.354 149.628 119.354C149.628 119.354 165.321 128.727 163.926 135.702C162.531 142.675 151.722 180.728 144.747 189.449C137.772 198.166 137.772 200.607 137.772 200.607C137.772 200.607 102.753 199.766 93.6876 197.194C93.6876 197.194 93.824 137.27 120.559 125.98Z" fill="#543BB5"/>
<path d="M185.373 284.825C185.373 284.825 180.663 292.41 181.45 296.069C182.234 299.731 170.726 308.801 169.156 304.266C167.587 299.731 163.779 296.965 166.468 291.94C169.156 286.916 170.988 280.902 170.988 280.902L185.373 284.825Z" fill="#37314E"/>
<path d="M134.633 199.212C136.726 198.517 194.615 199.521 204.377 204.248C214.142 208.977 214.84 218.711 214.84 218.711L200.194 290.58L166.018 287.092L187.639 229.334C187.639 229.334 145.792 227.111 131.146 225.02C116.499 222.925 103.935 222.877 104.632 214.708C105.329 206.54 134.633 199.212 134.633 199.212Z" fill="#211941"/>
<path d="M190.735 308.887C182.736 305.951 183.119 312.58 179.846 310.784C177.429 309.459 167.462 308.475 162.414 308.051C162.102 311.651 161.701 315.095 161.701 315.095L173.733 316.266L174.16 311.874C174.16 311.874 179.918 311.739 182.473 314.16C186.532 317.999 186.109 317.301 193.362 318.663C200.615 320.025 203.845 318.025 203.845 318.025C203.845 318.025 204.189 317.101 204.42 315.891C201.224 317.115 195.376 310.589 190.735 308.887Z" fill="#37231A"/>
<path d="M179.845 310.785C183.119 312.582 183.37 315.068 191.762 316.539C196.703 317.406 201.39 316.656 204.42 315.892C204.729 314.264 204.835 312.116 203.63 310.963C201.527 308.951 188.755 305.249 186.432 300.428C184.111 295.607 182.721 293.009 182.721 293.009C182.721 293.009 177.257 291.822 174.858 294.546C172.46 297.267 170.482 299.043 169.422 298.119C168.363 297.198 166.849 290.812 165.779 291.693C165.779 291.693 162.855 298.139 162.769 302.399C162.739 303.936 162.59 306.019 162.413 308.053C167.462 308.476 177.429 309.461 179.845 310.785Z" fill="#6F3115"/>
<path d="M142.389 305.709C142.741 304.007 143.078 302.645 143.078 302.645C143.078 302.645 141.729 304.768 142.389 305.709Z" fill="#272527"/>
<path d="M152.047 320.307C153.871 321.56 158.205 325.303 163.659 324.061C166.974 323.306 173.802 321.143 178.653 319.561C178.203 318.616 176.731 315.778 174.578 314.299C171.972 312.511 164.658 308.64 161.658 303.512C158.66 298.385 161.086 300.437 156.323 299.275C151.559 298.113 147.29 305.73 143.952 306.122C143.089 306.225 142.618 306.036 142.389 305.71C142.048 307.346 141.693 309.295 141.61 310.651C141.478 312.808 143.085 316.857 143.794 318.522C145.403 319.386 147.36 320.156 148.765 319.781C151.582 319.028 150.222 319.054 152.047 320.307Z" fill="#6F3115"/>
<path d="M178.652 319.56C173.802 321.142 166.973 323.305 163.658 324.06C158.204 325.302 153.87 321.56 152.046 320.307C150.221 319.054 151.581 319.028 148.765 319.78C147.36 320.155 145.403 319.385 143.793 318.521C143.991 318.988 144.123 319.28 144.123 319.28L144.654 322.135L151.958 323.505C151.958 323.505 150.231 321.554 151.55 321.308C152.869 321.062 154.402 324.415 156.583 325.148C158.766 325.88 164.327 326.438 172.557 324.226C180.786 322.015 178.799 319.88 178.799 319.88L178.652 319.56Z" fill="#37231A"/>
<path d="M133.363 126.737L152.79 132.754C152.79 132.754 151.141 135.035 151.706 134.196C153.108 132.085 156.037 127.899 159.113 124.929C160.746 123.358 162.399 122.125 163.904 121.707C169.386 120.179 162.419 104.088 162.419 104.088L141.621 108.294L133.363 126.737Z" fill="#F8A783"/>
<path d="M173.59 95.4829C173.59 95.4829 179.199 87.8093 178.413 85.7407C177.625 83.6721 176.256 80.5363 168.149 77.3547C160.042 74.1731 150.061 73.9357 146.151 77.4807C142.243 81.0227 135.811 86.8137 135.46 98.51C135.108 110.206 139.165 115.559 141.914 115.276C144.664 114.996 156.618 106.335 156.618 106.335L173.59 95.4829Z" fill="#6F3115"/>
<path d="M177.718 88.1656C177.718 88.1656 180.489 97.8677 179.288 99.1981C178.087 100.526 176.953 101.478 177.467 102.92C177.981 104.362 180.432 111.158 179.737 111.807C179.044 112.454 176.315 113.701 176.315 113.701C176.315 113.701 177.19 116.365 176.595 116.451C176.002 116.537 174.681 117.458 174.681 117.458C174.681 117.458 176.788 118.605 176.249 119.475C175.709 120.339 173.934 122.722 174.108 123.91C174.282 125.097 175.962 125.398 173.895 126.184C171.826 126.974 162.258 123.338 161.478 123.392C160.697 123.446 155.723 108.102 155.723 108.102C155.723 108.102 149.886 108.408 149.505 106.219C149.125 104.031 147.755 95.4987 151.679 96.1997C155.601 96.8978 159.126 99.8419 159.126 99.8419L167.77 91.3586L177.718 88.1656Z" fill="#FEBA9A"/>
<path d="M93.4835 196.422C93.4835 196.422 88.6007 221.363 96.9707 231.125C105.339 240.89 157.717 233.863 157.717 233.863C157.717 233.863 146.225 250.28 137.468 269.435C129.718 286.385 132.543 304.458 132.543 304.458L158.346 298.948C158.346 298.948 194.394 215.062 186.721 210.877C179.05 206.694 105.34 196.422 93.4835 196.422Z" fill="#291F53"/>
<path d="M184.807 192.381C184.807 192.381 195.496 186.384 198.886 187.689C202.277 188.991 212.969 196.292 212.969 196.292C212.969 196.292 217.14 204.114 217.921 204.114C218.705 204.114 215.836 205.94 212.445 203.333C209.058 200.724 207.753 198.118 207.753 198.118L199.67 195.511C199.67 195.511 190.543 199.159 187.673 199.159C184.807 199.159 184.807 192.381 184.807 192.381Z" fill="#FECEB8"/>
<path d="M138.288 115.926C138.288 115.926 138.7 123.997 144.993 127.557C151.286 131.113 152.791 132.753 152.791 132.753L144.172 141.236C144.172 141.236 136.236 136.996 133.5 132.481C130.765 127.966 129.669 122.767 129.669 122.767L138.288 115.926Z" fill="#6A54C0"/>
<path d="M152.791 132.754L158.401 139.323L159.905 132.07L156.758 126.871L152.791 132.754Z" fill="#6A54C0"/>
<path d="M119.408 128.789C119.408 128.789 99.159 130.977 109.557 151.226C119.956 171.474 125.022 193.559 145.541 192.955C154.844 192.681 165.379 139.323 165.379 139.323L155.664 137.134L153.612 139.461L141.846 167.78C141.846 167.78 130.627 129.06 119.408 128.789Z" fill="#6A54C0"/>
<path d="M156.896 135.764C156.896 135.764 155.254 125.916 156.212 124.958C157.17 123.999 161.001 122.769 162.369 123.453C163.737 124.137 172.766 125.095 172.63 127.009C172.493 128.926 172.63 134.125 171.398 134.534C170.167 134.946 164.831 140.417 164.831 140.417L156.896 135.764Z" fill="#FECEB8"/>
<path d="M156.076 133.577L153.612 139.459L164.557 143.288L166.883 137.542L156.076 133.577Z" fill="#6A54C0"/>
<path d="M59.0255 153.05C59.0255 153.05 69.9716 158.886 71.4314 174.574C72.8897 190.261 73.6195 211.059 73.6195 211.059L73.9852 249.367H64.4985L51 159.25C51 159.25 54.6479 151.224 59.0255 153.05Z" fill="#60CBB1"/>
<path d="M133.771 263.044H65.3755V249.368H133.771V263.044Z" fill="#6F3115"/>
<path d="M57.5183 330H54.2838L65.3752 263.043H74.1552L57.5183 330Z" fill="#9A441C"/>
<path d="M144.399 330H141.165L124.528 263.043H133.308L144.399 330Z" fill="#9A441C"/>
<path d="M131.63 238.787H127.981L141.481 200.113H145.129L131.63 238.787Z" fill="#6F3115"/>
<path d="M70.3368 190.995C70.3368 190.995 150.967 189.169 153.157 195.736C155.346 202.305 153.522 204.857 153.522 204.857H71.0663L70.3368 190.995Z" fill="#60CBB1"/>
<path d="M147.276 250.14L73.9851 249.368V231.491H140.411C146.846 231.491 152.061 236.146 152.061 241.889L147.276 250.14Z" fill="#60CBB1"/>
<path d="M357.471 39.9491C357.471 70.0854 337.706 79.8992 313.327 79.8992C288.944 79.8992 270.275 74.792 269.179 39.9491C268.487 17.8955 288.944 -0.000862122 313.327 -0.000862122C337.706 -0.000862122 357.471 11.6754 357.471 39.9491Z" fill="#BEF2E5"/>
<path d="M302.915 38.2657L302.929 38.2542C303.315 37.9023 303.29 37.2501 302.875 36.7952L300.812 34.5405C300.397 34.0856 299.748 34.0026 299.364 34.3546L299.35 34.3689C298.967 34.718 298.992 35.3731 299.407 35.828L301.467 38.0827C301.882 38.5347 302.531 38.6205 302.915 38.2657Z" fill="#FAB89A"/>
<path d="M303.959 36.4801L303.973 36.4657C304.408 36.068 304.379 35.3327 303.91 34.8206L301.587 32.2799C301.118 31.7678 300.388 31.6734 299.953 32.0711L299.939 32.0855C299.504 32.4803 299.533 33.2185 300.002 33.7306L302.325 36.2713C302.794 36.7834 303.524 36.8778 303.959 36.4801Z" fill="#FAB89A"/>
<path d="M305.458 35.0026L305.475 34.9911C305.907 34.5934 305.879 33.8553 305.412 33.3432L303.089 30.8025C302.62 30.2904 301.888 30.196 301.455 30.5937L301.438 30.6079C301.006 31.0028 301.035 31.7409 301.501 32.2531L303.825 34.7937C304.294 35.3059 305.026 35.4003 305.458 35.0026Z" fill="#FAB89A"/>
<path d="M307.973 34.7262L307.99 34.7118C308.422 34.317 308.393 33.5788 307.927 33.0667L305.601 30.526C305.135 30.0139 304.402 29.9195 303.97 30.3172L303.953 30.3314C303.521 30.7262 303.55 31.4644 304.016 31.9766L306.339 34.5174C306.808 35.0295 307.541 35.1239 307.973 34.7262Z" fill="#FAB89A"/>
<path d="M307.214 35.6363L307.243 35.6393C308.041 35.7222 308.754 35.1471 308.84 34.3488L308.954 33.253C309.04 32.4547 308.462 31.7424 307.664 31.6566H307.635C306.84 31.5707 306.124 32.1487 306.041 32.9441L305.924 34.0427C305.841 34.8381 306.419 35.5534 307.214 35.6363Z" fill="#FAB89A"/>
<path d="M320.988 46.574L330.51 44.3136L328.636 36.4169L319.02 36.9004L320.988 46.574Z" fill="#F1895A"/>
<path d="M313.343 28.3931C315.191 36.1697 322.994 40.9793 330.77 39.1338C338.547 37.2884 343.356 29.4862 341.511 21.7068C339.666 13.9302 331.863 9.12062 324.084 10.966C316.307 12.8143 311.498 20.6166 313.343 28.3931Z" fill="#FBA883"/>
<path d="M311.601 32.5952C313.306 38.9154 314.442 38.2488 317.495 38.532C333.105 39.9883 324.227 33.2046 322.404 30.0316C320.879 27.3736 318.705 25.202 315.721 25.9116C312.737 26.6212 310.802 29.6339 311.601 32.5952Z" fill="#FBA883"/>
<path d="M314.587 24.0032C314.587 24.0032 313.168 26.2892 311.366 26.3178C311.148 26.3207 310.851 27.1046 311.045 27.5595C311.489 28.5895 312.954 29.8113 312.954 29.8113L315.474 29.0102L314.587 24.0032Z" fill="#FBA883"/>
<path d="M323.924 63.339C323.924 63.339 337.783 47.5942 328.052 42.3927L326.799 41.6602C321.434 38.5301 314.648 39.3084 310.13 43.5657L293.673 59.0759L295.913 63.8626C301.324 73.1184 318.319 70.0684 323.924 63.339Z" fill="#FBA883"/>
<path d="M308.053 58.231C305.787 56.3684 301.584 49.2699 299.413 48.5832C297.241 47.8937 291.728 45.3873 291.728 45.3873L291.23 41.5905L293.007 37.6565L292.981 34.7009C292.978 34.3776 292.755 34.1001 292.44 34.0257L291.805 33.8769C291.404 33.7825 291.012 34.0486 290.952 34.4549L290.6 36.8239L290.042 34.7868C289.937 34.4063 289.539 34.186 289.158 34.3033L289.007 34.3519C288.683 34.4492 288.477 34.7668 288.517 35.1044L288.729 36.8325L288.065 35.1759C287.928 34.8354 287.553 34.6581 287.204 34.7696L287.19 34.7724C286.844 34.884 286.641 35.2388 286.721 35.5936L287.133 37.4448L286.266 36.02C286.054 35.6709 285.588 35.5765 285.256 35.8169L285.127 35.9112C284.849 36.1143 284.761 36.4892 284.915 36.7954L285.585 38.1143L284.646 37.4648C284.343 37.256 283.928 37.3161 283.699 37.6051L283.633 37.6909C283.416 37.9627 283.433 38.3518 283.674 38.6065L284.417 39.3933L283.994 46.5118C283.834 49.2041 285.384 51.7047 287.865 52.7576L291.914 54.4771L294.898 64.2193C295.805 67.1863 298.34 69.3665 301.41 69.8185C303.307 70.0989 306.342 69.9587 306.322 69.8758C306.279 69.6841 314.185 63.2694 308.053 58.231Z" fill="#FFB796"/>
<path d="M324.481 31.873L324.401 31.9847L324.192 32.3137L324.004 32.9145C323.969 33.1606 324.041 33.5096 324.304 33.7385C324.822 34.1991 325.606 34.2506 326.333 34.1448C326.713 34.0875 327.059 34.0075 327.463 33.8559C327.777 33.7271 328.21 33.5124 328.504 33.2149C328.822 32.9345 329.056 32.5626 329.211 32.1678C329.345 31.7673 329.394 31.3323 329.302 30.9432L329.28 30.7973L329.257 30.6971L329.231 30.6371L329.137 30.3966L328.859 29.9103C328.639 29.6128 328.378 29.4039 328.112 29.2494C327.843 29.1063 327.577 29.009 327.334 28.9833L326.716 28.9604C326.378 29.0204 326.201 29.0834 326.201 29.0834C326.201 29.0834 326.398 29.0777 326.716 29.0892L327.274 29.2208L327.903 29.5641L328.447 30.1793L328.627 30.5741L328.702 30.8201L328.722 30.8831V30.9145L328.73 31.0289C328.79 31.3351 328.713 31.6499 328.616 31.9475C328.493 32.2365 328.313 32.5197 328.058 32.7343C327.818 32.9775 327.566 33.1148 327.202 33.2779C326.911 33.3895 326.553 33.5182 326.235 33.5755C325.592 33.7185 324.936 33.7128 324.547 33.4553C324.155 33.1892 324.218 32.6484 324.31 32.3623C324.398 32.0504 324.481 31.873 324.481 31.873Z" fill="#FAB89A"/>
<path d="M306.036 33.3578C306.036 33.3578 310.719 39.9757 310.948 42.6308C311.174 45.286 314.156 47.6893 314.156 47.6893C314.156 47.6893 321.194 41.4033 323.872 41.2689C326.55 41.1344 330.607 40.4735 331.165 45.3575C331.723 50.2443 327.614 51.1198 320.57 53.9952C313.526 56.8735 309.091 57.2226 305.08 50.044C301.066 42.8683 301.798 37.0745 301.798 37.0745L306.036 33.3578Z" fill="#FAB89A"/>
<path d="M277.388 78.2605C277.388 85.4849 272.649 87.8396 266.801 87.8396C260.956 87.8396 256.478 86.615 256.218 78.2605C256.049 72.9703 260.956 68.6815 266.801 68.6815C272.649 68.6815 277.388 71.4796 277.388 78.2605Z" fill="#BEF2E5"/>
<path d="M250.57 89.2033C250.57 92.3191 248.528 93.3376 246.004 93.3376C243.483 93.3376 241.552 92.8084 241.438 89.2033C241.366 86.923 243.483 85.0718 246.004 85.0718C248.528 85.0718 250.57 86.2792 250.57 89.2033Z" fill="#BEF2E5"/>
<path d="M399.278 130.829C399.278 130.829 404.316 127.896 409.403 130.829C416.516 134.934 426.942 156.33 429.652 161.477C432.387 166.676 446.226 184.852 439.98 193.047C438.493 195.001 436.212 196.16 433.755 196.228L404.145 197.044C400.811 197.135 398.334 194.858 396.491 192.077L396.468 192.042C395.59 190.864 394.131 187.797 394.131 187.797L419.38 182.661C419.38 182.661 388.766 135.501 399.278 130.829Z" fill="#ECF9F5"/>
<path d="M399.189 193.559C399.189 193.559 388.296 198.457 386.271 197.699C384.242 196.938 381.455 199.387 381.455 199.387C381.455 199.387 380.317 201.667 379.301 203.187C378.288 204.709 376.706 204.202 376.706 204.202L378.417 197.951L380.611 196.346L377.739 197.276C377.739 197.276 375.081 200.105 374.995 200.529C374.912 200.949 374.131 203.819 373.284 204.328C372.44 204.835 371.321 204.454 371.321 204.454L373.35 199.387L375.458 195.756L379.175 194.403L375.29 194.912L372.84 198.037C372.84 198.037 370.752 201.561 369.739 202.237C368.726 202.912 367.333 202.869 367.333 202.869L370.646 196.177L375.121 192.04C375.121 192.04 385.761 190.603 388.379 190.352C390.997 190.097 392.857 188.915 396.488 189.845C400.119 190.772 399.189 193.559 399.189 193.559Z" fill="#FEC2A7"/>
<path d="M390.577 241.697H386.523V202.173H390.577V241.697Z" fill="#693D28"/>
<path d="M184.266 188.492L190.008 189.507C190.008 189.507 187.136 191.702 187.642 193.727C188.149 195.756 188.658 199.301 188.658 199.301L184.266 199.976C184.266 199.976 182.744 195.249 182.575 192.883C182.406 190.52 184.266 188.492 184.266 188.492Z" fill="#6A54C0"/>
<path d="M224.024 86.1609L223.111 79.6146C223.275 77.0625 222.225 71.8267 216.525 71.6893C212.222 71.5863 209.229 71.0799 209.229 71.0799V71.0398C209.959 70.9197 210.809 70.7165 211.781 70.4332C216.202 69.0942 216.282 65.9728 220.823 68.2416C225.403 70.5134 225.32 82.9164 224.024 86.1609Z" fill="#A4471D"/>
<path d="M198.452 65.535C198.452 65.535 194.652 67.5606 193.133 71.9525C191.614 76.3443 192.034 79.6375 192.034 79.6375C192.034 79.6375 192.541 77.0195 193.722 75.0768C194.907 73.1341 195.582 72.9653 195.582 72.9653C195.582 72.9653 194.569 75.9209 194.569 78.37C194.569 80.8191 199.299 74.5704 201.324 71.4461C203.35 68.3217 205.21 64.3533 205.21 64.3533C205.21 64.3533 201.748 65.9556 200.48 67.306C199.213 68.6593 199.888 65.535 201.155 64.6051C202.423 63.6752 198.452 65.535 198.452 65.535Z" fill="#D3541A"/>
<path d="M368.408 112.233C367.968 112.51 368.028 114.387 369.104 114.198C370.182 114.007 372.714 113.437 372.714 113.437C372.714 113.437 369.355 111.638 368.408 112.233Z" fill="#ECF9F5"/>
<path d="M367.966 112.107C367.966 112.107 367.966 113.752 368.283 113.818C368.598 113.881 369.233 112.296 369.233 112.296L367.966 112.107Z" fill="#693D28"/>
<path d="M367.522 111.029C367.522 111.029 367.267 112.234 368.915 112.425C370.563 112.614 372.715 113.438 372.715 113.438C372.715 113.438 371.513 112.171 370.435 112.045C369.359 111.919 367.84 111.221 367.522 111.029Z" fill="#693D28"/>
<path d="M365.874 108.685C365.874 108.685 365.748 109.446 366.572 109.446C367.396 109.446 367.396 108.877 369.865 108.559C372.334 108.244 373.221 109.257 373.221 109.257C373.221 109.257 370.752 107.294 369.296 107.294C367.839 107.294 365.874 108.685 365.874 108.685Z" fill="#693D28"/>
<path d="M213.613 80.1863C213.613 80.1863 211.172 80.3551 209.873 80.8186C207.51 81.6626 205.63 83.7742 205.63 83.7742C205.63 83.7742 208.271 81.7713 210.254 81.4538C211.779 81.2077 212.68 81.9516 213.864 81.4538C215.052 80.9531 213.613 80.1863 213.613 80.1863Z" fill="#A4471D"/>
<path d="M220.433 92.9928C220.433 92.9928 220.388 92.2403 219.904 92.3204C219.421 92.4034 218.989 92.6351 218.557 92.7439C218.122 92.8497 217.813 92.4434 217.813 92.4434C217.813 92.4434 218.073 93.0786 218.416 92.9613C218.76 92.8412 219.664 92.618 219.947 92.8183C220.23 93.0185 220.433 92.9928 220.433 92.9928Z" fill="#F1895A"/>
<path d="M221.607 92.8015C221.607 92.8015 221.753 91.9832 222.047 92.0948C222.342 92.2093 222.219 92.5927 222.219 92.5927L221.607 92.8015Z" fill="#F1895A"/>
<path d="M222.923 96.5252L221.541 96.1819L220.385 96.222L219.601 96.1791L217.549 96.6512L214.222 97.0345C214.222 97.0345 216.654 98.3135 219.109 97.4694C219.607 97.2978 219.655 97.2806 220.348 97.3321C221.04 97.3836 221.469 97.4637 221.973 96.9687C222.259 96.6855 222.923 96.5252 222.923 96.5252Z" fill="#F1895A"/>
<path d="M221.733 98.7573C221.733 98.7573 221.1 99.1893 220.388 99.3381C219.676 99.4897 218.809 99.3066 218.809 99.3066L218.176 99.1206C218.176 99.1206 219.784 99.0434 220.282 98.9318C220.78 98.8174 221.733 98.7573 221.733 98.7573Z" fill="#F1895A"/>
<path d="M220.03 79.8055C220.03 79.8055 220.113 81.073 220.957 81.073C221.804 81.073 222.816 80.5638 223.492 80.9042C224.167 81.2418 224.253 80.7325 224.253 80.7325C224.253 80.7325 223.915 79.8685 222.224 79.8685C220.536 79.8685 220.03 79.8055 220.03 79.8055Z" fill="#A4471D"/>
<path d="M211.458 85.6339C211.458 85.6339 211.289 87.2361 212.557 87.2361C213.821 87.2361 214.159 85.3792 213.652 84.9558C213.146 84.5352 211.879 84.4494 211.458 85.6339Z" fill="#A4471D"/>
<path d="M214.497 85.3796C214.497 85.3796 213.907 84.281 212.133 85.1278C210.359 85.9719 208.671 86.5613 208.417 86.5613L207.741 86.2236C207.741 86.2236 207.996 86.5613 209.684 85.5484C211.375 84.5356 213.738 83.9433 214.497 85.3796Z" fill="#A4471D"/>
<path d="M221.423 84.4483C221.423 84.4483 221.255 86.0535 222.519 86.0535C223.787 86.0535 224.124 84.1966 223.618 83.7732C223.111 83.3526 221.844 83.2667 221.423 84.4483Z" fill="#A4471D"/>
<path d="M223.873 84.5346C223.873 84.5346 223.873 83.0983 222.099 83.9424C220.325 84.7864 220.58 85.3787 220.325 85.3787C220.074 85.3787 220.795 83.3244 222.732 82.9725C224.125 82.7178 223.682 83.0984 223.873 84.5346Z" fill="#A4471D"/>
<path d="M168.768 101.467C168.768 101.467 172.062 99.0603 173.076 99.1862C174.089 99.3121 176.876 99.1862 177.255 98.8057C177.635 98.4252 177.509 97.1577 177.509 97.1577L172.189 97.7929L168.768 101.467Z" fill="#6F3115"/>
<path d="M170.606 103.683L172.822 101.972C172.822 101.972 174.28 101.592 175.04 101.529C175.8 101.466 176.243 101.403 176.243 101.403L176.053 102.035L174.353 102.293L173.138 102.479L170.606 103.683Z" fill="#6F3115"/>
<path d="M174.913 104.062C175.156 104.342 176.306 103.936 176.18 102.986C176.054 102.036 176.054 102.036 176.054 102.036L174.85 101.973C174.85 101.973 174.026 103.049 174.913 104.062Z" fill="#6F3115"/>
<path d="M396.018 129.453C396.425 128.843 396.868 128.157 397.437 127.427C401.492 122.117 399.706 121.101 397.437 115.264C395.126 109.428 397.437 108.941 395.409 97.7942C394.519 92.9303 391.031 88.7129 387.343 85.5113C392.49 85.9577 396.585 88.1465 398.613 90.2122C400.276 91.9174 405.057 102.132 410.367 113.642C414.544 122.683 403.194 126.898 396.018 129.453Z" fill="#F15A15"/>
</svg>
