<svg width="410" height="332" viewBox="0 0 410 332" fill="none" xmlns="http://www.w3.org/2000/svg">
<path d="M11.5746 197.32C-13.6751 101.984 86.3338 -2.08856 219.709 0.0319519C333.031 1.83151 431.715 121.442 393.52 202.038C358.431 276.08 285.691 251.161 204.105 250.12C115.79 248.991 32.3 275.574 11.5746 197.32Z" fill="#F9F7FF"/>
<path d="M409.352 296.886C409.352 305.116 317.717 311.789 204.676 311.789C91.6366 311.789 -2.67029e-05 305.116 -2.67029e-05 296.886C-2.67029e-05 288.656 91.6366 281.984 204.676 281.984C317.717 281.984 409.352 288.656 409.352 296.886Z" fill="#FFDECF"/>
<path d="M182.344 201.716L181.916 209.147L192.617 207.348V200.629L182.344 201.716Z" fill="#C57D5D"/>
<path d="M228.755 197.114C228.755 197.114 223.549 147.205 233.506 140.431C241.622 134.907 256.327 192.285 256.327 192.285L228.755 197.114Z" fill="#F3A27D"/>
<path d="M356.605 166.087C356.605 166.087 348.506 139.492 344.103 129.426C339.137 118.074 326.43 116.511 326.43 116.511L333.902 198.369L356.605 166.087Z" fill="#F3A27D"/>
<path d="M334.586 190.617L337.571 185.719L330.545 153.883L334.586 190.617Z" fill="#FF8954"/>
<path d="M326.433 116.509L286.174 112.431L260.848 121.758L233.506 140.429L254.91 228.409L304.458 248.039L334.729 191.934L326.433 116.509Z" fill="#F3A27D"/>
<path d="M271.165 85.5485L286.173 112.432L290.937 112.914C290.937 112.914 288.429 123.144 273.339 126.774C262.39 129.408 257.141 124.291 257.141 124.291L260.847 121.761L254.319 110.981L271.165 85.5485Z" fill="#EBAF94"/>
<path d="M256.474 114.613L258.813 118.403C258.813 118.403 270.397 116.728 269.499 104.24C268.62 92.0142 256.474 114.613 256.474 114.613Z" fill="#D2977C"/>
<path d="M271.541 88.1329C271.541 88.1329 274.073 110.905 259.521 115.237C239.661 121.149 226.41 83.6638 226.41 83.6638L248.154 63.562L266.261 78.3419L271.541 88.1329Z" fill="#EBAF94"/>
<path d="M259.08 100.551C260.009 101.038 259.953 102.947 259.333 104.341C258.71 105.736 257.186 106.834 256.358 106.103C255.604 105.437 255.867 103.501 256.622 102.258C257.378 101.015 258.684 100.344 259.08 100.551Z" fill="#D2977C"/>
<path d="M218.96 73.494C218.96 73.494 212.456 75.742 213.402 80.5899C214.348 85.4378 226.418 87.2118 236.289 79.288C246.158 71.3661 248.154 66.9902 248.154 66.9902C248.154 66.9902 250.06 73.494 256.091 76.45C262.121 79.4079 270.104 78.9339 270.104 78.9339C270.104 78.9339 271.819 58.0042 260.939 52.4463C250.06 46.8884 240.364 55.1663 240.364 55.1663C240.364 55.1663 237.29 51.6183 232.678 53.5103C228.066 55.4023 230.668 60.7242 230.668 60.7242C230.668 60.7242 220.38 50.5258 213.994 59.1862C208.036 67.2642 218.96 73.494 218.96 73.494Z" fill="#2D2842"/>
<path d="M264.198 78.2184C262.867 82.0674 264.48 86.116 267.795 87.2621C271.114 88.4081 274.879 86.2158 276.209 82.3688C277.537 78.5198 275.927 74.4712 272.61 73.3252C269.294 72.1791 265.528 74.3714 264.198 78.2184Z" fill="#EBAF94"/>
<path d="M272.175 79.699C271.69 79.876 271.206 80.0549 270.753 80.2662C270.302 80.4832 269.883 80.7345 269.537 81.0447C269.185 81.3512 268.896 81.7071 268.658 82.0916C268.414 82.4723 268.214 82.8796 268.035 83.2926C267.976 83.4297 267.801 83.4982 267.643 83.4468C267.521 83.4068 267.447 83.3078 267.447 83.2032V83.1994C267.441 82.4399 267.533 81.6881 267.725 80.9534C267.818 80.586 267.936 80.2244 268.071 79.8665C268.147 79.6895 268.22 79.5106 268.302 79.3374L268.566 78.8196C268.949 78.142 269.442 77.4987 270.083 76.9753C270.715 76.4518 271.518 76.0616 272.369 75.955C271.56 76.2063 270.883 76.6536 270.346 77.1942C269.811 77.7366 269.4 78.3628 269.074 79.0195L268.85 79.5182C268.779 79.6876 268.72 79.8589 268.656 80.0283C268.534 80.3709 268.427 80.7173 268.344 81.0695C268.178 81.7699 268.062 82.4856 268.056 83.1956L267.468 83.1023C267.677 82.6759 267.91 82.2553 268.193 81.8556C268.482 81.4597 268.829 81.0828 269.25 80.7763C269.67 80.4699 270.15 80.2358 270.649 80.0721C271.145 79.9008 271.661 79.7942 272.175 79.699Z" fill="#2D2842"/>
<path d="M229.471 90.8969C230.211 92.4063 236.344 88.8678 235.28 86.6199C234.214 84.3739 228.311 88.5328 229.471 90.8969Z" fill="#2D2842"/>
<path d="M241.536 82.7655C242.777 85.1219 253.153 80.9268 252.087 78.8274C251.021 76.7298 240.295 80.4091 241.536 82.7655Z" fill="#2D2842"/>
<path d="M233.506 94.0703C233.333 93.5221 233.336 92.913 233.506 92.3344C233.673 91.7558 234.052 91.2076 234.575 90.8574C235.099 90.5072 235.714 90.3606 236.3 90.3435C236.89 90.3244 237.465 90.4348 237.998 90.6423C237.427 90.6975 236.877 90.7337 236.355 90.8403C235.832 90.9449 235.344 91.1181 234.933 91.3884C234.526 91.6663 234.2 92.0489 233.97 92.5133C233.744 92.9797 233.597 93.5069 233.506 94.0703Z" fill="#2D2842"/>
<path d="M238.057 93.5042C238.692 94.6082 238.555 95.8796 237.748 96.3459C236.941 96.8104 235.771 96.2946 235.135 95.1906C234.497 94.0885 234.636 92.8171 235.443 92.3507C236.25 91.8844 237.419 92.4021 238.057 93.5042Z" fill="#2D2842"/>
<path d="M245.712 88.1333C245.613 87.4024 245.758 86.6296 246.11 85.9444C246.458 85.2573 247.058 84.6787 247.764 84.3437C248.468 83.9953 249.251 83.8906 249.997 83.9059C250.747 83.9268 251.478 84.0829 252.163 84.3475C251.428 84.3437 250.712 84.3341 250.014 84.4046C249.319 84.4807 248.642 84.6254 248.044 84.9185C247.444 85.2078 246.925 85.6399 246.538 86.2014C246.15 86.761 245.878 87.4195 245.712 88.1333Z" fill="#2D2842"/>
<path d="M250.558 87.5317C251.236 88.7061 251.089 90.0594 250.231 90.5543C249.37 91.0511 248.126 90.501 247.448 89.3266C246.77 88.1522 246.917 86.7989 247.775 86.304C248.634 85.8072 249.881 86.3573 250.558 87.5317Z" fill="#2D2842"/>
<path d="M241.437 91.2605C241.763 92.8137 242.086 94.3593 242.454 95.8915C242.644 96.6547 242.827 97.4199 243.055 98.1679C243.278 98.916 243.514 99.6621 243.826 100.359C243.978 100.709 244.146 101.052 244.349 101.354C244.448 101.505 244.559 101.647 244.677 101.765C244.734 101.832 244.8 101.872 244.861 101.923C244.922 101.973 245.012 102.009 245.084 102.053C245.701 102.399 246.456 102.517 247.204 102.574C247.958 102.62 248.725 102.591 249.49 102.521C250.256 102.454 251.021 102.34 251.786 102.207C251.055 102.477 250.297 102.675 249.532 102.827C248.763 102.972 247.983 103.071 247.187 103.067C246.397 103.063 245.577 102.964 244.812 102.584C244.717 102.531 244.62 102.496 244.528 102.426C244.437 102.355 244.338 102.287 244.266 102.205C244.104 102.051 243.972 101.88 243.853 101.706C243.613 101.358 243.428 100.991 243.263 100.618C242.631 99.1196 242.271 97.5608 241.983 95.9943C241.702 94.4278 241.509 92.848 241.437 91.2605Z" fill="#2D2842"/>
<path d="M111.535 129.171C108.01 130.829 103.656 131.658 101.272 130.103C98.8879 128.548 99.1989 125.541 99.1989 125.541C99.1989 125.541 95.1561 127.096 92.8757 123.158C90.595 119.218 94.0158 117.145 94.0158 117.145C94.0158 117.145 88.9364 116.315 88.3146 113.207C87.6926 110.097 91.0098 107.712 91.0098 107.712C91.0098 107.712 85.6194 106.261 85.5156 101.699C85.4121 97.1385 90.906 96.3086 90.906 96.3086C90.906 96.3086 85.8267 94.2358 85.9304 90.6079C86.0339 86.9801 90.2842 86.7726 90.2842 86.7726C90.2842 86.7726 87.8998 83.6625 88.9364 80.4495C89.9732 77.2366 94.4306 76.8217 94.4306 76.8217C94.4306 76.8217 91.8389 72.4667 94.4306 69.0463C97.022 65.6259 101.065 67.181 101.065 67.181C101.065 67.181 100.754 62.8279 104.693 61.0654C108.632 59.3028 111.535 62.1008 111.535 62.1008C111.535 62.1008 113.089 57.3328 117.754 57.23C122.419 57.1254 124.077 60.5458 124.077 60.5458C124.077 60.5458 125.114 58.1627 128.016 58.473C130.919 58.7851 131.541 60.6504 131.541 60.6504C131.541 60.6504 134.547 56.4002 139.523 57.9552C144.499 59.5103 143.98 63.1382 143.98 63.1382C143.98 63.1382 148.956 60.7532 151.237 63.1382C153.517 65.5231 151.237 68.5286 151.237 68.5286C151.237 68.5286 154.968 66.4558 157.456 69.151C159.943 71.8462 158.078 75.1619 158.078 75.1619C158.078 75.1619 160.671 74.9544 162.121 76.717C163.571 78.4795 161.603 80.9672 161.603 80.9672C161.603 80.9672 167.096 79.8271 168.029 82.627C168.962 85.425 165.024 87.2903 165.024 87.2903C165.024 87.2903 168.315 88.7426 168.172 92.8882C168.029 97.0357 163.883 97.2432 163.883 97.2432C163.883 97.2432 167.096 103.359 163.054 106.987C159.011 110.614 156.523 110.304 156.523 110.304C156.523 110.304 159.943 112.48 158.388 116.315C156.833 120.151 153.724 118.803 153.724 118.803C153.724 118.803 155.175 123.78 152.688 125.646C150.2 127.511 146.468 126.268 146.468 126.268C146.468 126.268 147.09 128.548 145.431 130.103C143.773 131.658 141.803 130.311 141.803 130.311C141.803 130.311 141.285 136.219 136.102 137.049C130.919 137.877 128.12 133.419 128.12 133.419L111.535 129.171Z" fill="#2D2842"/>
<path d="M138.422 114.17C132.662 114.17 127.976 118.854 127.976 124.614C127.976 130.373 132.662 135.06 138.422 135.06C144.181 135.06 148.867 130.373 148.867 124.614C148.867 118.854 144.181 114.17 138.422 114.17ZM138.422 135.954C132.169 135.954 127.082 130.866 127.082 124.614C127.082 118.361 132.169 113.275 138.422 113.275C144.674 113.275 149.761 118.361 149.761 124.614C149.761 130.866 144.674 135.954 138.422 135.954Z" fill="#FD9C71"/>
<path d="M270.892 233.048C270.892 233.048 308.429 243.971 323.591 209.147C323.591 209.147 319.896 252.021 305.718 251.305C291.542 250.589 270.892 233.048 270.892 233.048Z" fill="#2D2842"/>
<path d="M61.5932 188.957L48.0616 286.373L15.7266 295.585C15.7266 295.585 15.7266 297.559 18.8898 298.547C22.0531 299.533 57.1998 298.547 57.1998 298.547L80.406 194.367L61.5932 188.957Z" fill="#C57D5D"/>
<path d="M171.139 171.464C171.244 171.774 178.81 179.072 181.92 179.361C185.03 179.652 201.409 173.847 201.409 173.847L202.237 189.293C202.237 189.293 182.645 200.281 179.122 199.969C175.597 199.659 154.865 185.72 154.865 185.72L171.139 171.464Z" fill="#C57D5D"/>
<path d="M110.758 296.145L104.836 301.345L105.763 304.589L107.721 303.186C107.721 303.186 104.176 328.507 108.879 330.72C114.598 333.414 118.147 319.932 118.147 319.932L110.758 296.145Z" fill="#2D2842"/>
<path d="M127.708 280.353L110.758 296.145C110.758 296.145 107.245 323.107 113.138 325.069C119.031 327.032 122.526 301.477 122.526 301.477L136.883 291.337L127.708 280.353Z" fill="#C57D5D"/>
<path d="M248.466 223.923C248.466 223.923 251.822 242.485 248.938 254.313C246.877 262.764 242.296 269.805 242.296 269.805C242.296 269.805 256.377 265.375 256.535 265.849C256.693 266.325 262.055 282.812 262.055 282.812C262.055 282.812 222.993 298.283 207.33 300.973C193.148 303.409 185.654 293.639 185.654 293.639C185.654 293.639 175.212 295.797 169.517 290.791C163.822 285.784 160.973 276.607 176.162 253.984C191.351 231.36 197.996 223.923 197.996 223.923H248.466Z" fill="#592EFF"/>
<path d="M242.296 269.804C240.375 271.167 238.415 272.463 236.439 273.739C235.457 274.382 234.457 275.001 233.468 275.633L230.472 277.488L227.455 279.312C226.442 279.906 225.437 280.513 224.415 281.095C222.382 282.274 220.334 283.429 218.246 284.52C220.167 283.157 222.127 281.859 224.103 280.585C225.085 279.94 226.084 279.321 227.076 278.689L230.07 276.834L233.087 275.012C234.101 274.418 235.106 273.811 236.127 273.229C238.161 272.05 240.208 270.895 242.296 269.804Z" fill="#2D2842"/>
<path d="M228.755 147.176C228.755 147.176 228.29 123.287 216.781 109.255C210.869 102.049 201.416 102.329 194.402 104.181C189.113 105.576 175.759 111.088 176.057 121.707C176.187 126.271 175.519 130.231 171.438 135.943C167.005 142.15 174.925 146.211 175.898 151.21C176.655 155.11 174.809 157.923 174.371 158.593C188.19 162.202 222.468 153.962 228.755 147.176Z" fill="#2D2842"/>
<path d="M198.696 162.643C198.696 162.643 187.371 168.104 185.753 170.303C182.666 174.492 178.888 201.653 178.888 201.653L191.113 203.18L189.187 236.75C208.758 244.234 235.285 241.375 252.465 235.043L241.473 163.519L221.56 157.497L198.696 162.643Z" fill="#F9D5C5"/>
<path d="M236.085 202.359L229.581 203.275L230.011 182.697L236.231 195.804L236.085 202.359Z" fill="#E1AA91"/>
<path d="M221.56 157.497C221.56 157.497 214.651 166.877 205.223 167.01C197.829 167.113 198.697 162.644 198.697 162.644L201.586 160.47L201.312 149.149L211.917 135.954C211.917 135.954 216.362 152.32 218.319 156.397L221.56 157.497Z" fill="#C57D5D"/>
<path d="M208.025 144.405C208.025 144.405 207.81 152.304 201.454 155.015L201.327 150.892C201.329 150.89 201.508 150.901 201.508 150.901L208.025 144.405Z" fill="#B15D37"/>
<path d="M184.36 123.041C184.36 123.041 178.264 153.101 195.567 153.87C208.703 154.453 212.247 135.94 212.247 135.94C214.445 130.409 211.693 113.338 199.972 113.539C188.253 113.739 184.826 120.641 184.36 123.041Z" fill="#C57D5D"/>
<path d="M198.744 144.083C200.469 145.26 197.347 149.805 194.311 147.001C192.282 145.128 197.397 143.162 198.744 144.083Z" fill="#B15D37"/>
<path d="M214.845 130.229C214.169 129.85 209.904 130.543 204.825 125.626C200.99 121.911 200.973 118.117 200.973 118.117C200.973 118.117 197.758 116.981 195.543 118.681C193.028 120.609 194.583 121.875 192.088 123.955C189.77 125.887 187.586 124.081 185.753 125.822C184.505 127.008 182.954 131.203 182.954 131.203C182.954 131.203 175.393 127.899 178.265 122.234C181.14 116.568 191.475 106.539 200.341 107.877C209.207 109.217 213.884 116.111 214.236 121.079C214.588 126.049 214.845 130.229 214.845 130.229Z" fill="#2D2842"/>
<path d="M184.962 132.43C185.2 131.993 185.55 131.625 185.969 131.33C186.387 131.047 186.92 130.835 187.497 130.896C188.076 130.953 188.58 131.323 188.865 131.755C189.162 132.187 189.32 132.672 189.368 133.165C189.071 132.767 188.801 132.379 188.479 132.078C188.165 131.77 187.809 131.574 187.428 131.532C187.044 131.488 186.623 131.597 186.212 131.77C185.795 131.945 185.388 132.179 184.962 132.43Z" fill="#2D2842"/>
<path d="M188.509 134.117C188.34 135.051 187.699 135.718 187.076 135.603C186.454 135.491 186.086 134.644 186.254 133.71C186.423 132.775 187.065 132.109 187.687 132.221C188.31 132.333 188.677 133.182 188.509 134.117Z" fill="#2D2842"/>
<path d="M195.594 132.185C195.908 131.723 196.334 131.346 196.825 131.056C197.315 130.771 197.899 130.571 198.521 130.619C198.83 130.643 199.138 130.731 199.408 130.881C199.679 131.032 199.911 131.235 200.095 131.466C200.465 131.926 200.674 132.463 200.752 133.013C200.429 132.562 200.107 132.138 199.734 131.81C199.361 131.481 198.931 131.291 198.472 131.256C198.011 131.22 197.52 131.329 197.041 131.506C196.559 131.687 196.083 131.923 195.594 132.185Z" fill="#2D2842"/>
<path d="M199.899 134.137C199.715 135.159 199.012 135.886 198.333 135.764C197.651 135.64 197.248 134.713 197.433 133.691C197.617 132.669 198.318 131.94 198.999 132.064C199.681 132.188 200.084 133.114 199.899 134.137Z" fill="#2D2842"/>
<path d="M191.724 134.357C191.74 134.943 191.732 135.527 191.679 136.114C191.627 136.7 191.532 137.29 191.359 137.865C191.197 138.443 190.942 138.997 190.637 139.517C190.325 140.033 189.956 140.509 189.545 140.941L189.524 140.566C189.907 140.935 190.285 141.31 190.653 141.698C191.02 142.083 191.382 142.477 191.724 142.894C191.275 142.599 190.843 142.283 190.419 141.957C189.994 141.635 189.579 141.302 189.17 140.962L188.976 140.802L189.147 140.587C189.503 140.145 189.838 139.692 190.12 139.209C190.411 138.731 190.639 138.221 190.837 137.694C191.03 137.166 191.178 136.616 191.313 136.055C191.446 135.495 191.57 134.924 191.724 134.357Z" fill="#2D2842"/>
<path d="M195.31 125.898C195.107 127.665 202.4 129.265 202.604 127.708C202.808 126.151 195.516 124.132 195.31 125.898Z" fill="#2D2842"/>
<path d="M182.08 127.526C182.666 129.205 189.929 127.467 189.435 125.977C188.94 124.484 181.495 125.847 182.08 127.526Z" fill="#2D2842"/>
<path d="M302.738 245.463C302.738 245.463 241.788 218.821 228.134 225.131C214.48 231.443 209.989 252.356 216.857 262.642C223.73 272.929 319.913 301.362 319.913 301.362L328.106 268.624L302.738 245.463Z" fill="#2D2842"/>
<path d="M371.703 279.146C371.703 279.146 393.901 178.596 387.559 166.705C381.218 154.814 363.249 152.909 355.056 159.939C346.865 166.968 302.737 245.464 302.737 245.464L317.683 282.65C317.683 282.65 327.308 282.947 333.608 281.03C340.708 278.87 345.72 274.734 345.72 274.734L371.703 279.146Z" fill="#2D2842"/>
<path d="M342.242 274.153L337.702 298.102C337.702 298.102 375.926 314.208 378.145 309.952C380.361 305.696 357.443 288.669 357.443 288.669L360.445 277.235L342.242 274.153Z" fill="#EBAF94"/>
<path d="M378.145 309.952C375.926 314.208 337.702 298.102 337.702 298.102L340.005 286.503L357.443 288.669C357.443 288.669 380.361 305.696 378.145 309.952Z" fill="#2D2842"/>
<path d="M360.17 290.755C360.061 291.055 359.913 291.32 359.753 291.579C359.593 291.836 359.416 292.079 359.226 292.312C359.037 292.544 358.831 292.764 358.612 292.974C358.389 293.179 358.156 293.379 357.884 293.543C357.991 293.242 358.142 292.976 358.299 292.719C358.462 292.462 358.639 292.218 358.828 291.986C359.02 291.754 359.224 291.533 359.442 291.324C359.665 291.118 359.898 290.918 360.17 290.755Z" fill="#504A67"/>
<path d="M363.195 293.156C363.095 293.458 362.951 293.727 362.797 293.989C362.643 294.248 362.471 294.496 362.288 294.732C362.1 294.968 361.902 295.194 361.687 295.405C361.471 295.617 361.244 295.82 360.975 295.99C361.075 295.689 361.217 295.419 361.369 295.158C361.525 294.899 361.696 294.652 361.885 294.416C362.068 294.179 362.268 293.953 362.481 293.74C362.701 293.53 362.926 293.327 363.195 293.156Z" fill="#504A67"/>
<path d="M365.925 295.49C365.817 295.791 365.669 296.058 365.509 296.317C365.349 296.572 365.17 296.815 364.98 297.047C364.79 297.281 364.586 297.502 364.367 297.71C364.143 297.917 363.912 298.115 363.638 298.281C363.747 297.98 363.897 297.714 364.054 297.455C364.217 297.2 364.394 296.956 364.584 296.724C364.776 296.492 364.98 296.269 365.199 296.062C365.421 295.854 365.652 295.656 365.925 295.49Z" fill="#504A67"/>
<path d="M368.882 297.999C368.78 298.302 368.637 298.57 368.485 298.831C368.329 299.092 368.158 299.338 367.972 299.575C367.788 299.811 367.588 300.036 367.374 300.249C367.158 300.46 366.93 300.664 366.66 300.833C366.759 300.531 366.906 300.262 367.057 300.002C367.213 299.741 367.384 299.494 367.568 299.259C367.756 299.023 367.952 298.797 368.168 298.584C368.386 298.372 368.612 298.169 368.882 297.999Z" fill="#504A67"/>
<path d="M339.621 296.991C341.076 297.63 342.544 298.232 344.024 298.795C345.5 299.374 346.99 299.918 348.478 300.463C351.462 301.538 354.465 302.553 357.482 303.525L359.741 304.256L362.014 304.957C363.524 305.442 365.05 305.87 366.566 306.338L371.133 307.676C372.654 308.12 374.184 308.539 375.708 308.994C374.157 308.651 372.613 308.28 371.067 307.918C369.529 307.524 367.988 307.144 366.457 306.723C363.396 305.885 360.344 304.995 357.323 304.012C354.301 303.028 351.298 301.989 348.337 300.836C347.601 300.541 346.859 300.257 346.125 299.954C345.391 299.644 344.655 299.349 343.929 299.026C342.476 298.384 341.026 297.735 339.621 296.991Z" fill="#504A67"/>
<path d="M357.459 288.753C356.586 289.783 355.588 290.71 354.482 291.5C354.203 291.7 353.921 291.888 353.622 292.057C353.473 292.145 353.323 292.229 353.169 292.305L352.937 292.423C352.853 292.457 352.771 292.501 352.682 292.528C352.335 292.651 351.942 292.701 351.559 292.619C351.178 292.539 350.79 292.312 350.59 291.926C350.491 291.736 350.448 291.513 350.467 291.302C350.484 291.089 350.561 290.891 350.662 290.719C350.872 290.377 351.173 290.143 351.484 289.96C351.795 289.779 352.13 289.652 352.455 289.551C352.783 289.444 353.116 289.362 353.444 289.286C354.772 288.989 356.114 288.82 357.459 288.753ZM357.459 288.753C356.14 289.029 354.827 289.307 353.545 289.671C353.227 289.768 352.909 289.865 352.6 289.975C352.287 290.084 351.995 290.207 351.732 290.375C351.472 290.54 351.229 290.737 351.094 290.976C350.952 291.212 350.928 291.477 351.043 291.69C351.154 291.909 351.395 292.071 351.667 292.13C351.94 292.195 352.241 292.16 352.528 292.069C352.6 292.05 352.668 292.016 352.74 291.991L352.962 291.886C353.111 291.82 353.258 291.745 353.403 291.665C353.55 291.591 353.692 291.507 353.832 291.424C353.976 291.344 354.118 291.256 354.258 291.168C355.381 290.459 356.439 289.631 357.459 288.753Z" fill="#504A67"/>
<path d="M357.459 288.756C358.066 287.552 358.82 286.417 359.714 285.389C359.937 285.13 360.169 284.881 360.421 284.647C360.544 284.527 360.671 284.411 360.803 284.301L360.999 284.131C361.073 284.078 361.144 284.017 361.224 283.969C361.533 283.768 361.903 283.629 362.297 283.619C362.681 283.608 363.112 283.739 363.398 284.066C363.538 284.23 363.631 284.436 363.663 284.645C363.695 284.856 363.668 285.068 363.609 285.256C363.487 285.638 363.247 285.937 362.99 286.187C362.728 286.436 362.431 286.638 362.138 286.811C361.844 286.994 361.543 287.148 361.237 287.302C360.02 287.898 358.754 288.378 357.459 288.756ZM357.459 288.756C358.678 288.18 359.89 287.601 361.051 286.95C361.339 286.783 361.623 286.613 361.898 286.432C362.177 286.255 362.434 286.065 362.649 285.842C362.862 285.62 363.056 285.374 363.132 285.107C363.212 284.847 363.173 284.584 363.012 284.401C362.852 284.215 362.583 284.114 362.304 284.12C362.023 284.122 361.739 284.224 361.481 284.381C361.415 284.417 361.357 284.466 361.293 284.506L361.1 284.66C360.97 284.759 360.847 284.866 360.725 284.976C360.6 285.083 360.48 285.197 360.363 285.313C360.24 285.424 360.125 285.542 360.008 285.662C359.082 286.613 358.247 287.664 357.459 288.756Z" fill="#504A67"/>
<path d="M326.43 275.307L349.532 284.52C349.532 284.52 342.252 325.353 337.475 324.898C332.695 324.443 330.877 295.95 330.877 295.95L321.951 293.209L326.43 275.307Z" fill="#EBAF94"/>
<path d="M210.399 131.309C208.729 133.654 209.015 136.721 211.036 138.158C213.056 139.597 216.046 138.862 217.715 136.517C219.384 134.172 219.099 131.106 217.078 129.669C215.058 128.23 212.066 128.964 210.399 131.309Z" fill="#C57D5D"/>
<path d="M215.498 133.969C215.186 133.83 214.853 133.788 214.531 133.788C214.207 133.798 213.889 133.857 213.596 133.973C213.301 134.085 213.027 134.247 212.791 134.454C212.551 134.654 212.348 134.901 212.18 135.174C212.098 135.307 211.929 135.345 211.803 135.259C211.7 135.189 211.657 135.059 211.687 134.941L211.691 134.932C211.824 134.428 211.982 133.923 212.214 133.447C212.331 133.207 212.458 132.975 212.605 132.753C212.755 132.532 212.922 132.322 213.111 132.132C213.486 131.751 213.96 131.456 214.47 131.34C214.978 131.217 215.502 131.264 215.97 131.422C215.477 131.422 214.995 131.485 214.567 131.668C214.141 131.85 213.775 132.142 213.474 132.498C213.322 132.675 213.187 132.869 213.065 133.074C212.94 133.276 212.827 133.489 212.728 133.71C212.53 134.152 212.355 134.612 212.218 135.09L211.727 134.848C211.942 134.544 212.201 134.266 212.5 134.047C212.801 133.832 213.138 133.674 213.49 133.59C213.84 133.51 214.202 133.491 214.548 133.554C214.894 133.611 215.231 133.746 215.498 133.969Z" fill="#2D2842"/>
<path d="M249.747 197.114C249.747 197.114 251.559 207.66 250.762 211.713C250.198 214.572 241.959 222.617 239.661 224.606C237.608 226.384 233.363 226.154 233.363 226.154C233.363 226.154 232.276 232.879 230.957 232.795C229.638 232.713 229.922 227.604 229.922 227.604C229.922 227.604 228.732 236.752 227.167 236.586C225.601 236.421 225.601 230.817 225.601 230.817C225.601 230.817 225.051 236.994 223.403 236.742C221.756 236.493 221.815 229.563 221.815 229.563C221.815 229.563 221.556 235.642 219.668 235.362C217.778 235.083 217.658 228.185 218.027 225.927C218.933 220.379 229.922 221.176 229.922 221.176L237.469 210.71L235.573 199.255L249.747 197.114Z" fill="#C57D5D"/>
<path d="M252.465 198.018C252.465 198.018 249.924 178.255 248.154 172.29C246.384 166.327 241.473 163.519 241.473 163.519C241.473 163.519 230.479 175.448 230.011 182.698C229.545 189.95 231.064 201.716 231.064 201.716L252.465 198.018Z" fill="#F9D5C5"/>
<path d="M225.586 158.654C225.586 158.654 227.074 149.82 229.398 149.82C231.722 149.82 230.607 157.539 230.607 157.539C230.607 157.539 233.49 154.284 234.792 154.657C236.094 155.028 236.188 156.516 236.188 156.516C236.188 156.516 238.144 155.028 239.258 155.399C240.371 155.772 240.185 158.096 240.185 158.096C240.185 158.096 242.417 156.888 243.255 157.539C244.09 158.19 243.999 160.236 243.999 160.236C243.999 160.236 245.354 159.556 246.323 160.236C248.183 161.538 244.934 171.489 242.887 170.558C240.841 169.629 242.138 166.281 242.138 166.281C242.138 166.281 239.977 170.187 238.675 169.024C237.373 167.861 238.325 163.864 238.325 163.864C238.325 163.864 236.279 168.42 234.977 167.49C233.675 166.559 234.606 162.189 234.606 162.189C234.606 162.189 232.839 167.49 231.258 165.816C229.676 164.141 230.514 160.219 230.514 160.219L225.586 158.654Z" fill="#C57D5D"/>
<path d="M139.523 220.328L144.06 230.311C144.06 230.311 191.425 197.651 202.945 200.85C214.464 204.048 222.535 216.39 219.211 224.774C216.263 232.218 202.945 245.86 184.686 263.202C162.562 284.217 132.036 301.981 132.036 301.981L115.424 276.826L123.976 222.161L139.523 220.328Z" fill="#FF8954"/>
<path d="M145.058 298.055L120.86 267.892L111.923 274.327L131.783 304.292L145.058 298.055Z" fill="#E26C37"/>
<path d="M147.3 287.489L154.423 290.861V294.234L152.156 293.425C152.156 293.425 162.526 316.795 158.615 320.216C153.856 324.378 146.736 312.391 146.736 312.391L147.3 287.489Z" fill="#2D2842"/>
<path d="M126.66 276.967L147.3 287.489C147.3 287.489 158.091 312.446 152.965 315.954C147.839 319.46 137.452 295.853 137.452 295.853L120.86 290.053L126.66 276.967Z" fill="#C57D5D"/>
<path d="M87.5429 220.327L83.8389 229.679C83.8389 229.679 35.7781 218.287 29.1331 223.034C22.4882 227.781 18.7652 251.002 20.9801 256.383C23.1951 261.762 46.8313 275.145 73.0581 285.505C96.0517 294.588 122.526 301.477 122.526 301.477L132.985 270.973L123.976 222.16L87.5429 220.327Z" fill="#FF8954"/>
<path d="M68.118 236.64C70.869 237.978 73.5987 239.358 76.3365 240.72C79.07 242.095 81.7903 243.492 84.516 244.879L88.6012 246.966L92.6741 249.076C95.3916 250.479 98.0972 251.905 100.805 253.327C103.513 254.748 106.214 256.184 108.912 257.625C111.613 259.058 114.302 260.516 116.993 261.97C118.339 262.693 119.68 263.43 121.019 264.168L125.037 266.384L129.05 268.607L133.047 270.861L133.147 270.918L133.104 271.021L131.839 273.998L130.561 276.967L131.707 273.942L132.867 270.925L132.924 271.083L116.676 262.562L100.452 253.997L92.3486 249.695L88.2992 247.542L84.2586 245.37L76.1763 241.029C73.4913 239.563 70.7959 238.119 68.118 236.64Z" fill="#FFD4C0"/>
<path d="M83.8389 229.679C86.1077 230.018 88.3545 230.475 90.5889 230.981C91.7075 231.23 92.8187 231.508 93.9303 231.786C95.0411 232.066 96.1451 232.374 97.2502 232.677C99.4549 233.303 101.644 233.986 103.81 234.738C105.975 235.492 108.115 236.326 110.203 237.273L103.627 235.309C102.527 234.999 101.437 234.66 100.336 234.356L98.6903 233.88L97.041 233.415L90.4421 231.559C88.2401 230.945 86.0382 230.328 83.8389 229.679Z" fill="#FFD4C0"/>
<path d="M144.06 230.311C143.228 231.076 142.352 231.776 141.461 232.456C141.019 232.802 140.562 233.126 140.113 233.459L138.74 234.426C137.818 235.06 136.878 235.669 135.923 236.255C134.968 236.841 133.998 237.405 132.985 237.905C133.818 237.14 134.694 236.44 135.585 235.76C136.477 235.081 137.382 234.422 138.306 233.792L139.702 232.859C140.175 232.561 140.641 232.25 141.122 231.963C142.077 231.379 143.047 230.813 144.06 230.311Z" fill="#FFD4C0"/>
<path d="M183.772 210.061C181.275 212.33 178.777 214.597 176.314 216.902L174.453 218.617L172.605 220.341L170.757 222.067L168.922 223.809L165.258 227.298C164.045 228.467 162.814 229.62 161.613 230.804L157.987 234.327L154.401 237.892C153.194 239.069 152.023 240.281 150.838 241.48C149.655 242.681 148.468 243.876 147.311 245.102L143.813 248.751C142.673 249.992 141.527 251.227 140.377 252.459C139.214 253.681 138.12 254.962 136.995 256.216L135.317 258.108C134.756 258.736 134.233 259.397 133.686 260.038L132.052 261.968C131.509 262.613 130.952 263.247 130.443 263.919C129.407 265.248 128.361 266.571 127.31 267.892C128.294 266.523 129.284 265.155 130.283 263.794C130.769 263.103 131.305 262.45 131.826 261.786L133.395 259.798C133.925 259.142 134.44 258.47 134.987 257.828L136.628 255.898C137.728 254.619 138.798 253.31 139.937 252.065C141.06 250.803 142.186 249.545 143.32 248.292L146.785 244.598C147.933 243.361 149.123 242.162 150.302 240.955C151.485 239.75 152.653 238.53 153.858 237.348C158.634 232.574 163.535 227.928 168.52 223.379L170.393 221.673L172.277 219.985C173.534 218.856 174.794 217.735 176.063 216.624C178.612 214.412 181.161 212.2 183.772 210.061Z" fill="#FFD4C0"/>
<path d="M149.785 146.999C157.787 149.641 175.182 170.531 175.182 170.531L153.377 197.114L144.06 189.751L139.523 161.201L149.785 146.999Z" fill="white"/>
<path d="M148.514 193.414L152.519 196.436C152.519 196.436 153.174 176.234 147.492 166.915C143.799 160.856 148.514 193.414 148.514 193.414Z" fill="#CFCAE6"/>
<path d="M55.3504 193.128L83.1314 199.969L72.3508 147.553C65.8267 151.807 55.3504 193.128 55.3504 193.128Z" fill="white"/>
<path d="M80.4059 199.299L76.7546 198.399L76.5203 167.826L80.4059 199.299Z" fill="#CFCAE6"/>
<path d="M72.3508 147.553L98.8879 138.396L133.2 140.676L149.785 146.999L144.498 159.957C144.498 159.957 152.273 174.054 150.303 188.775C148.334 203.494 145.721 220.447 140.331 222.105C134.94 223.763 124.528 225.154 115.424 225.08C107.012 225.012 88.8313 223.333 85.5143 220.327C82.197 217.322 72.3508 147.553 72.3508 147.553Z" fill="white"/>
<path d="M114.249 109.417L105.729 136.011L98.8879 138.396C98.8879 138.396 103.242 146.894 117.029 147.517C130.815 148.139 133.2 140.676 133.2 140.676L129.053 138.914L129.364 130.103L114.249 109.417Z" fill="#C57D5D"/>
<path d="M129.364 130.103L129.165 135.756C129.165 135.756 119.213 135.374 117.455 123.906C115.861 113.511 129.364 130.103 129.364 130.103Z" fill="#B15D37"/>
<path d="M114.644 105.639C114.644 105.639 111.679 122.606 120.657 128.858C129.634 135.111 142.944 130.931 150.511 111.859C158.078 92.7851 148.956 78.7914 133.614 78.3765C118.272 77.9615 115.098 100.458 114.644 105.639Z" fill="#C57D5D"/>
<path d="M132.502 96.9192C132.133 99.3365 140.956 101.196 141.31 99.0644C141.664 96.9306 132.871 94.5019 132.502 96.9192Z" fill="#2D2842"/>
<path d="M147.42 102.602C146.036 104.597 151.956 108.53 153.199 106.776C154.442 105.025 148.804 100.608 147.42 102.602Z" fill="#2D2842"/>
<path d="M126.577 115.913C128.551 114.682 132.923 120.106 131.099 121.324C127.43 123.772 123.751 117.674 126.577 115.913Z" fill="#B15D37"/>
<path d="M117.34 99.2111C117.34 99.2111 121.901 103.359 125.529 101.286C129.157 99.2111 128.016 96.6206 128.016 96.6206C128.016 96.6206 130.401 98.6896 132.785 97.1897C135.169 95.688 133.698 93.4077 133.698 93.4077C133.698 93.4077 135.141 93.9844 136.102 93.4077C137.822 92.3742 137.346 90.6078 137.346 90.6078C137.346 90.6078 136.413 94.9209 139.108 96.2361C141.803 97.5533 144.291 95.0655 144.291 95.0655C144.291 95.0655 142.218 98.2785 144.291 100.456C146.364 102.633 150.407 100.456 150.407 100.456C150.407 100.456 148.127 105.949 153.724 108.957C159.323 111.962 162.121 99.5233 159.426 93.7179C156.731 87.9126 149.889 74.2291 134.547 74.5413C119.205 74.8515 114.353 89.7798 114.343 92.9928C114.333 96.2057 117.34 99.2111 117.34 99.2111Z" fill="#2D2842"/>
<path d="M119.536 101.274C120.686 104.601 119.293 108.102 116.425 109.093C113.557 110.083 110.3 108.189 109.15 104.86C108.001 101.533 109.394 98.0327 112.262 97.041C115.13 96.0513 118.387 97.9452 119.536 101.274Z" fill="#C57D5D"/>
<path d="M141.285 107.712C140.948 108.431 140.641 109.153 140.388 109.889C140.138 110.624 139.948 111.374 139.845 112.131C139.75 112.887 139.729 113.65 139.857 114.389C139.971 115.127 140.232 115.835 140.628 116.465L140.85 116.819L140.459 116.903C140.091 116.983 139.721 117.055 139.351 117.124C138.981 117.196 138.611 117.267 138.239 117.328C137.497 117.459 136.751 117.575 135.998 117.663C136.711 117.406 137.43 117.177 138.153 116.962C138.513 116.852 138.876 116.747 139.239 116.646C139.601 116.543 139.964 116.444 140.328 116.349L140.159 116.789C139.667 116.111 139.366 115.306 139.227 114.492C139.099 113.673 139.119 112.839 139.274 112.04C139.42 111.239 139.685 110.468 140.029 109.743C140.37 109.017 140.795 108.336 141.285 107.712Z" fill="#2D2842"/>
<path d="M132.163 103.773C132.569 103.299 133.076 102.925 133.628 102.626C134.181 102.333 134.792 102.112 135.441 102.047C136.086 101.98 136.775 102.083 137.353 102.403C137.939 102.708 138.378 103.216 138.642 103.773C138.164 103.378 137.682 103.037 137.149 102.858C136.622 102.668 136.063 102.633 135.505 102.685C134.945 102.74 134.384 102.888 133.829 103.083C133.275 103.279 132.725 103.515 132.163 103.773Z" fill="#2D2842"/>
<path d="M137.727 106.284C137.221 107.405 136.219 108.048 135.488 107.719C134.757 107.388 134.576 106.212 135.082 105.09C135.588 103.967 136.591 103.326 137.321 103.655C138.052 103.985 138.234 105.161 137.727 106.284Z" fill="#2D2842"/>
<path d="M143.68 108.022C144.108 107.64 144.618 107.362 145.16 107.164C145.703 106.968 146.29 106.85 146.892 106.88C147.49 106.909 148.106 107.099 148.588 107.474C149.078 107.836 149.405 108.365 149.558 108.911C149.169 108.49 148.775 108.123 148.317 107.895C147.866 107.653 147.369 107.55 146.859 107.52C146.348 107.493 145.821 107.548 145.292 107.643C144.762 107.742 144.231 107.876 143.68 108.022Z" fill="#2D2842"/>
<path d="M148.384 111.063C147.771 112.011 146.773 112.457 146.156 112.057C145.538 111.659 145.534 110.567 146.147 109.617C146.76 108.669 147.758 108.223 148.376 108.623C148.993 109.023 148.997 110.114 148.384 111.063Z" fill="#2D2842"/>
<path d="M113.201 103.172C113.654 103.202 114.108 103.246 114.554 103.349C115.001 103.444 115.439 103.608 115.834 103.838C116.228 104.07 116.565 104.371 116.854 104.695C117.137 105.024 117.377 105.374 117.599 105.732L117.024 105.888C116.953 105.266 116.785 104.649 116.582 104.047C116.479 103.747 116.356 103.452 116.221 103.162C116.149 103.02 116.084 102.873 116.01 102.73L115.772 102.311C115.437 101.763 115.032 101.249 114.528 100.815C114.024 100.387 113.408 100.048 112.691 99.8884C113.436 99.896 114.169 100.164 114.767 100.566C115.373 100.968 115.862 101.491 116.257 102.056L116.535 102.488C116.622 102.635 116.702 102.785 116.784 102.936C116.933 103.24 117.069 103.551 117.185 103.867C117.419 104.498 117.565 105.155 117.63 105.829L117.63 105.833C117.645 105.981 117.521 106.113 117.354 106.13C117.225 106.143 117.108 106.082 117.055 105.985C116.864 105.637 116.658 105.298 116.415 104.984C116.18 104.666 115.903 104.38 115.577 104.141C114.931 103.65 114.063 103.404 113.201 103.172Z" fill="#2D2842"/>
<path d="M45.6015 291.475C44.3104 291.84 43.0129 292.179 41.7184 292.531C40.4222 292.875 39.1254 293.218 37.8257 293.549C35.2288 294.219 32.6259 294.866 30.0205 295.502L30.2108 295.291C30.177 295.637 30.2009 296.029 30.2771 296.387C30.3572 296.749 30.4948 297.09 30.6863 297.396C31.0834 298.001 31.7284 298.416 32.4603 298.586L33.0172 298.681C33.2039 298.707 33.3971 298.706 33.5871 298.721C33.7749 298.734 33.9733 298.734 34.1722 298.73L34.7666 298.728L37.1443 298.717C38.7295 298.713 40.3148 298.715 41.9003 298.726C43.4859 298.747 45.0714 298.755 46.6577 298.793C45.0735 298.877 43.4887 298.928 41.904 298.993C40.3192 299.048 38.7342 299.094 37.1491 299.136L34.7714 299.191L34.1769 299.206C33.9796 299.21 33.7816 299.216 33.5738 299.204C33.3686 299.191 33.1628 299.198 32.9578 299.17L32.343 299.065L31.7414 298.873C31.5527 298.774 31.3534 298.694 31.1751 298.576C31.0026 298.447 30.8165 298.334 30.6732 298.171C30.5995 298.093 30.5148 298.022 30.4512 297.935L30.2607 297.672C30.0302 297.308 29.8646 296.907 29.7776 296.492C29.6937 296.073 29.6657 295.666 29.7114 295.222L29.7289 295.053L29.9019 295.013C32.5098 294.387 35.1204 293.772 37.7369 293.182C39.0439 292.881 40.3538 292.594 41.6643 292.308C42.9765 292.028 44.2857 291.737 45.6015 291.475Z" fill="#B15D37"/>
<path d="M115.138 106.638C119.132 108.522 121.856 112.672 121.644 117.419C121.391 123.104 116.865 127.781 111.188 128.207C104.544 128.706 98.9775 123.441 98.9775 116.901C98.9775 110.946 103.607 106.048 109.448 105.597C109.604 105.9 109.757 106.183 109.929 106.461C104.052 106.678 99.398 111.775 99.91 117.809C100.34 122.87 104.441 126.932 109.507 127.317C115.63 127.779 120.762 122.929 120.762 116.901C120.762 112.66 118.221 109 114.581 107.367C114.316 107.247 114.271 106.891 114.501 106.712C114.683 106.573 114.929 106.541 115.138 106.638Z" fill="#FD9C71"/>
<path d="M87.631 197.946C89.0548 200.365 90.7871 202.554 92.6547 204.596C93.6016 205.607 94.5742 206.591 95.6078 207.509C96.6305 208.437 97.6956 209.319 98.8116 210.131C99.3561 210.556 99.9292 210.942 100.494 211.338C101.072 211.715 101.647 212.1 102.241 212.452C102.823 212.827 103.428 213.16 104.03 213.502C104.329 213.676 104.642 213.824 104.947 213.988C105.253 214.148 105.554 214.323 105.868 214.467C108.353 215.699 110.942 216.729 113.604 217.629C110.829 217.182 108.107 216.367 105.502 215.261C102.898 214.151 100.421 212.722 98.1433 211.028C95.8666 209.33 93.7946 207.358 91.9984 205.167C90.2157 202.975 88.6421 200.578 87.631 197.946Z" fill="#CFCAE6"/>
<path d="M95.9902 200.489C97.0435 201.819 98.2231 202.997 99.441 204.126C99.7408 204.411 100.066 204.672 100.373 204.95C100.679 205.23 101.004 205.489 101.328 205.746C101.96 206.283 102.63 206.772 103.294 207.267C103.974 207.741 104.64 208.237 105.342 208.681C105.69 208.907 106.026 209.157 106.384 209.366C106.743 209.577 107.096 209.798 107.449 210.023C107.797 210.253 108.164 210.451 108.526 210.66L109.611 211.298C110.339 211.717 111.087 212.101 111.813 212.554C110.994 212.333 110.181 212.078 109.379 211.795C108.597 211.469 107.789 211.182 107.033 210.79C106.262 210.422 105.51 210.019 104.778 209.577C104.033 209.157 103.338 208.656 102.634 208.169C102.291 207.916 101.96 207.642 101.623 207.379C101.284 207.116 100.958 206.838 100.642 206.549C100.324 206.262 100.006 205.976 99.7081 205.668C99.4039 205.365 99.0992 205.066 98.8226 204.737C97.6882 203.462 96.6499 202.065 95.9902 200.489Z" fill="#CFCAE6"/>
<path d="M341.316 273.988L338.013 273.459L334.709 272.916L334.599 272.899L334.613 272.785L335.224 267.6L335.862 262.417C336.292 258.964 336.703 255.508 337.15 252.055L338.492 241.701C338.943 238.248 339.376 234.795 339.853 231.348L341.26 221.001L341.962 215.828L342.693 210.658L344.171 200.319C344.685 196.878 345.181 193.432 345.719 189.991C345.34 193.453 344.919 196.908 344.517 200.367L343.247 210.731L342.607 215.913L341.936 221.091L340.594 231.445C340.157 234.898 339.673 238.345 339.21 241.796L337.805 252.143C337.337 255.592 336.83 259.035 336.343 262.482L335.609 267.651L334.847 272.817L334.749 272.686L338.034 273.329L341.316 273.988Z" fill="#504A67"/>
<path d="M253.53 231.778L262.917 236.249L272.283 240.766C275.409 242.266 278.525 243.785 281.639 245.306L290.974 249.885C297.193 252.946 303.401 256.029 309.6 259.13L318.884 263.814L323.523 266.161L328.15 268.533L328.223 268.571L328.203 268.649C327.733 270.43 327.251 272.21 326.762 273.988C327.171 272.189 327.583 270.394 328.007 268.599L328.061 268.715L323.363 266.488L318.676 264.237L309.31 259.722C303.073 256.692 296.849 253.639 290.637 250.564L281.326 245.937C278.226 244.392 275.125 242.839 272.036 241.268L262.761 236.567L258.139 234.186C256.598 233.394 255.056 232.596 253.53 231.778Z" fill="#504A67"/>
<path d="M191.113 203.18L189.964 188.257L189.187 202.94L191.113 203.18Z" fill="#E1AA91"/>
<path d="M221.773 231.778C221.636 231.146 221.556 230.511 221.503 229.875C221.448 229.237 221.427 228.6 221.423 227.96C221.431 227.321 221.452 226.681 221.526 226.041C221.608 225.408 221.703 224.751 221.986 224.165C221.91 224.802 221.931 225.431 221.925 226.062L221.935 227.962C221.929 228.594 221.927 229.23 221.903 229.865C221.88 230.501 221.847 231.137 221.773 231.778Z" fill="#B15D37"/>
<path d="M225.426 233.048C225.342 232.302 225.314 231.555 225.308 230.809C225.298 230.065 225.323 229.319 225.363 228.575C225.411 227.831 225.472 227.088 225.582 226.348C225.631 225.977 225.698 225.607 225.778 225.24C225.822 225.057 225.858 224.873 225.919 224.692C225.949 224.602 225.972 224.511 226.006 224.423L226.122 224.165C226.092 224.353 226.067 224.532 226.058 224.718C226.041 224.903 226.035 225.088 226.027 225.274C226.006 225.644 225.995 226.013 225.98 226.384C225.951 227.124 225.913 227.865 225.873 228.605C225.824 229.346 225.778 230.086 225.706 230.826C225.637 231.567 225.553 232.307 225.426 233.048Z" fill="#B15D37"/>
<path d="M229.629 230.231C229.539 229.719 229.505 229.207 229.491 228.697C229.48 228.187 229.49 227.677 229.524 227.166C229.56 226.658 229.621 226.15 229.712 225.644C229.811 225.143 229.925 224.627 230.169 224.165C230.131 224.681 230.133 225.181 230.11 225.688C230.093 226.194 230.074 226.698 230.036 227.203C230.002 227.707 229.952 228.211 229.889 228.716C229.826 229.222 229.75 229.727 229.629 230.231Z" fill="#B15D37"/>
<path d="M126.846 113.907C126.757 114.8 126.813 115.687 127.021 116.524C127.233 117.36 127.604 118.148 128.148 118.804C128.683 119.467 129.372 120.002 130.128 120.432C130.885 120.864 131.71 121.191 132.559 121.486C131.665 121.399 130.776 121.172 129.946 120.786L129.635 120.641L129.336 120.468C129.133 120.36 128.949 120.219 128.757 120.089C128.388 119.808 128.051 119.484 127.751 119.126C127.161 118.401 126.774 117.516 126.63 116.604C126.484 115.696 126.548 114.758 126.846 113.907Z" fill="#2D2842"/>
<path d="M192.933 146.992C193.652 146.969 194.353 146.866 195.023 146.687C195.689 146.501 196.325 146.229 196.881 145.84C197.44 145.458 197.914 144.959 198.301 144.388C198.683 143.813 198.98 143.172 199.239 142.496C199.188 143.218 198.988 143.935 198.645 144.592C198.302 145.25 197.788 145.829 197.172 146.261C196.549 146.684 195.838 146.962 195.107 147.076C194.38 147.192 193.633 147.18 192.933 146.992Z" fill="#2D2842"/>
<path d="M254.649 106.973C255.37 106.511 256.01 105.957 256.562 105.332C256.691 105.169 256.836 105.02 256.956 104.851C257.075 104.681 257.205 104.522 257.313 104.345C257.418 104.166 257.528 103.992 257.635 103.817L257.903 103.26L257.972 103.121L258.025 102.976L258.134 102.687L258.24 102.395C258.275 102.298 258.292 102.196 258.32 102.097L258.478 101.495C258.507 101.29 258.539 101.084 258.575 100.878L258.627 100.57L258.644 100.256L258.688 99.6241C258.701 99.2035 258.674 98.779 258.69 98.345C258.787 98.7619 258.882 99.1864 258.939 99.6146L258.979 100.264L258.996 100.591L258.973 100.918C258.958 101.135 258.943 101.354 258.922 101.573L258.79 102.218C258.768 102.325 258.747 102.435 258.714 102.54L258.606 102.852L258.497 103.164L258.442 103.321L258.37 103.471C258.016 104.28 257.481 105.007 256.847 105.61C256.213 106.212 255.465 106.701 254.649 106.973Z" fill="#2D2842"/>
<path d="M185.654 293.639C184.764 292.874 184.048 291.918 183.452 290.904C182.855 289.885 182.398 288.785 182.063 287.649C181.412 285.367 181.307 282.946 181.602 280.593C181.893 278.235 182.588 275.947 183.477 273.758L184.206 272.146L184.573 271.339L184.984 270.556L185.811 268.994C186.088 268.474 186.404 267.977 186.699 267.467C187.008 266.967 187.295 266.451 187.621 265.962L188.589 264.488L189.075 263.752L189.585 263.032L190.607 261.595C190.948 261.117 191.315 260.659 191.667 260.19C192.027 259.726 192.373 259.252 192.741 258.795C193.481 257.884 194.203 256.957 194.973 256.072C198.002 252.489 201.228 249.075 204.675 245.902C203.063 247.6 201.474 249.316 199.945 251.087C199.557 251.522 199.18 251.972 198.797 252.411C198.415 252.853 198.034 253.296 197.663 253.747L196.538 255.091L195.436 256.454C195.067 256.905 194.701 257.362 194.349 257.826L193.274 259.208C192.916 259.667 192.577 260.143 192.227 260.611C191.884 261.081 191.526 261.542 191.195 262.023L190.194 263.455L189.692 264.17L189.216 264.903L188.262 266.367C187.942 266.854 187.662 267.364 187.36 267.861C186.13 269.841 185.101 271.925 184.147 274.04C183.237 276.168 182.546 278.393 182.194 280.675C181.859 282.955 181.876 285.304 182.424 287.554C182.967 289.794 184.018 291.96 185.654 293.639Z" fill="#2D2842"/>
<path d="M321.876 198.051C319.778 201.614 317.225 204.842 314.472 207.851C313.076 209.341 311.643 210.79 310.119 212.143C308.611 213.512 307.042 214.81 305.398 216.009C304.594 216.633 303.75 217.202 302.917 217.789C302.065 218.345 301.219 218.908 300.342 219.429C299.485 219.98 298.593 220.471 297.706 220.975C297.267 221.232 296.805 221.449 296.356 221.693C295.904 221.929 295.461 222.185 294.999 222.399C291.337 224.213 287.519 225.731 283.598 227.06C287.685 226.398 291.698 225.199 295.536 223.567C299.376 221.932 303.027 219.827 306.383 217.328C309.738 214.829 312.791 211.922 315.439 208.693C318.066 205.46 320.385 201.928 321.876 198.051Z" fill="#FF8954"/>
<path d="M309.556 201.796C308.004 203.757 306.265 205.495 304.471 207.158C304.028 207.581 303.55 207.963 303.097 208.372C302.646 208.785 302.166 209.166 301.688 209.545C300.759 210.335 299.771 211.058 298.791 211.787C297.788 212.486 296.808 213.216 295.773 213.871C295.259 214.204 294.766 214.57 294.237 214.88C293.71 215.192 293.187 215.518 292.669 215.847C292.155 216.188 291.615 216.481 291.08 216.789L289.48 217.728C288.407 218.344 287.307 218.913 286.238 219.58C287.444 219.252 288.642 218.879 289.823 218.46C290.976 217.979 292.165 217.556 293.28 216.978C294.417 216.437 295.526 215.843 296.605 215.192C297.703 214.572 298.727 213.835 299.764 213.118C300.27 212.741 300.759 212.339 301.254 211.951C301.753 211.566 302.236 211.157 302.699 210.729C303.169 210.306 303.639 209.884 304.077 209.429C304.526 208.985 304.974 208.542 305.38 208.058C307.054 206.178 308.582 204.12 309.556 201.796Z" fill="#FF8954"/>
<path d="M319.906 215.472C318.968 217.419 317.966 219.33 316.941 221.228C316.436 222.181 315.904 223.12 315.387 224.064L313.794 226.879L312.164 229.673C311.608 230.598 311.067 231.529 310.498 232.446C309.376 234.289 308.227 236.116 307.015 237.905C307.95 235.956 308.953 234.045 309.977 232.148C310.483 231.196 311.015 230.257 311.534 229.311L313.127 226.496L314.757 223.704C315.313 222.779 315.856 221.848 316.425 220.931C317.547 219.09 318.694 217.261 319.906 215.472Z" fill="#504A67"/>
<path d="M270.891 233.048C273.446 233.576 275.98 234.175 278.511 234.801C279.776 235.108 281.035 235.441 282.298 235.761L286.075 236.762L289.84 237.801C291.091 238.163 292.346 238.509 293.594 238.884C296.094 239.619 298.585 240.38 301.058 241.216C298.5 240.691 295.966 240.091 293.438 239.465C292.17 239.158 290.913 238.823 289.648 238.505L285.873 237.502L282.108 236.461C280.858 236.101 279.601 235.753 278.354 235.378C275.854 234.643 273.361 233.882 270.891 233.048Z" fill="#504A67"/>
<path d="M387.736 169.879C389.101 168.961 392.085 168.647 393.059 171.464C394.034 174.281 391.19 175.496 391.19 175.496C391.19 175.496 396.341 177.626 396.434 179.36C396.527 181.092 394.767 181.828 394.767 181.828C394.767 181.828 397.387 183.577 397.403 185.081C397.419 186.587 394.525 187.335 394.525 187.335C394.525 187.335 396.923 189.533 396.485 190.82C396.044 192.105 393.529 192.849 393.529 192.849C393.529 192.849 394.918 194.208 394.501 195.666C393.702 198.464 379.762 198.268 380.033 195.399C380.304 192.531 385.426 193.125 385.426 193.125C385.426 193.125 378.599 191.743 378.443 189.51C378.268 186.979 386.761 187.495 386.761 187.495C386.761 187.495 377.638 186.792 377.617 184.742C377.593 181.916 387.274 181.387 387.274 181.387C387.274 181.387 379.587 181.387 379.707 178.853C379.81 176.592 387.882 175.618 387.882 175.618C386.063 173.031 386.374 170.794 387.736 169.879Z" fill="#EBAF94"/>
<path d="M229.922 221.176C230.487 221.085 231.054 221.07 231.618 221.079C232.181 221.089 232.742 221.138 233.302 221.201C233.862 221.277 234.417 221.365 234.966 221.492C235.516 221.616 236.06 221.768 236.591 221.976C236.02 221.98 235.462 221.938 234.905 221.888C234.347 221.841 233.793 221.776 233.239 221.709C232.133 221.567 231.033 221.412 229.922 221.176Z" fill="#B15D37"/>
<path d="M234.524 162.563C234.56 162.031 234.646 161.513 234.747 160.999C234.849 160.485 234.969 159.975 235.108 159.472C235.245 158.968 235.403 158.469 235.578 157.974C235.754 157.481 235.946 156.992 236.188 156.516C236.151 157.047 236.066 157.567 235.963 158.081C235.86 158.595 235.742 159.103 235.601 159.608C235.464 160.112 235.306 160.611 235.131 161.104C234.956 161.598 234.764 162.088 234.524 162.563Z" fill="#B15D37"/>
<path d="M238.255 164.015C238.314 163.49 238.422 162.98 238.548 162.473C238.673 161.969 238.814 161.47 238.976 160.977C239.136 160.482 239.317 159.995 239.513 159.514C239.709 159.032 239.924 158.556 240.185 158.096C240.126 158.623 240.017 159.133 239.893 159.637C239.768 160.144 239.625 160.642 239.463 161.135C239.303 161.628 239.123 162.116 238.927 162.597C238.731 163.079 238.515 163.555 238.255 164.015Z" fill="#B15D37"/>
<path d="M242.138 166.281C242.193 165.746 242.294 165.226 242.414 164.71C242.532 164.197 242.669 163.686 242.823 163.182C242.977 162.68 243.152 162.181 243.342 161.688C243.533 161.195 243.742 160.708 243.999 160.236C243.946 160.77 243.843 161.292 243.725 161.806C243.605 162.32 243.47 162.83 243.314 163.334C243.158 163.837 242.985 164.335 242.794 164.828C242.602 165.32 242.395 165.809 242.138 166.281Z" fill="#B15D37"/>
<path d="M386.641 181.43C387.322 181.358 388.003 181.335 388.681 181.331C389.362 181.323 390.038 181.346 390.716 181.373C391.391 181.411 392.07 181.455 392.745 181.529C393.418 181.599 394.094 181.687 394.767 181.828C394.083 181.9 393.405 181.923 392.724 181.929C392.046 181.936 391.368 181.913 390.692 181.885C390.014 181.847 389.338 181.803 388.663 181.729C387.987 181.658 387.312 181.571 386.641 181.43Z" fill="#D2977C"/>
<path d="M384.468 187.457C385.302 187.341 386.14 187.274 386.976 187.226C387.815 187.175 388.654 187.154 389.492 187.139C390.328 187.133 391.17 187.135 392.006 187.165C392.845 187.192 393.686 187.238 394.525 187.335C393.686 187.451 392.85 187.518 392.011 187.565C391.175 187.615 390.336 187.638 389.498 187.651C388.659 187.657 387.823 187.655 386.984 187.624C386.143 187.597 385.307 187.552 384.468 187.457Z" fill="#D2977C"/>
<path d="M384.466 192.902C385.222 192.792 385.977 192.733 386.729 192.691C387.485 192.645 388.242 192.63 388.995 192.62C389.75 192.62 390.505 192.626 391.26 192.662C392.018 192.697 392.773 192.746 393.529 192.849C392.773 192.959 392.018 193.02 391.263 193.062C390.508 193.108 389.755 193.123 388.998 193.132C388.242 193.13 387.487 193.125 386.735 193.089C385.977 193.054 385.222 193.005 384.466 192.902Z" fill="#D2977C"/>
<path d="M337.475 324.898C342.252 325.353 349.532 284.52 349.532 284.52L338.547 280.138L330.877 295.95C330.877 295.95 332.695 324.443 337.475 324.898Z" fill="#2D2842"/>
<path d="M331.144 299.374C331.433 299.235 331.726 299.147 332.018 299.073C332.314 299.002 332.611 298.951 332.911 298.919C333.208 298.884 333.51 298.867 333.812 298.871C334.114 298.879 334.418 298.898 334.729 298.972C334.443 299.111 334.15 299.199 333.855 299.273C333.562 299.343 333.265 299.394 332.968 299.427C332.668 299.461 332.368 299.476 332.064 299.473C331.762 299.465 331.458 299.446 331.144 299.374Z" fill="#504A67"/>
<path d="M331.512 303.218C331.803 303.085 332.096 303.005 332.39 302.938C332.687 302.873 332.985 302.83 333.283 302.803C333.583 302.775 333.883 302.765 334.185 302.776C334.487 302.79 334.79 302.816 335.099 302.896C334.81 303.03 334.517 303.11 334.221 303.178C333.924 303.243 333.628 303.287 333.328 303.313C333.03 303.34 332.728 303.349 332.426 303.338C332.124 303.325 331.821 303.298 331.512 303.218Z" fill="#504A67"/>
<path d="M331.986 306.78C332.273 306.641 332.566 306.554 332.86 306.48C333.156 306.409 333.452 306.36 333.75 306.325C334.05 306.291 334.35 306.276 334.653 306.28C334.956 306.285 335.261 306.306 335.57 306.379C335.286 306.52 334.992 306.605 334.696 306.68C334.403 306.75 334.107 306.801 333.809 306.834C333.508 306.868 333.208 306.883 332.905 306.879C332.603 306.872 332.298 306.853 331.986 306.78Z" fill="#504A67"/>
<path d="M332.483 310.624C332.772 310.493 333.066 310.413 333.36 310.345C333.659 310.28 333.955 310.236 334.254 310.209C334.552 310.181 334.853 310.173 335.156 310.183C335.459 310.196 335.762 310.223 336.07 310.303C335.78 310.436 335.486 310.516 335.192 310.584C334.896 310.649 334.598 310.693 334.299 310.72C334.001 310.746 333.7 310.756 333.397 310.744C333.096 310.731 332.793 310.704 332.483 310.624Z" fill="#504A67"/>
<path d="M339.424 281.129C339.256 282.199 339.238 283.275 339.357 284.325C339.483 285.374 339.765 286.396 340.238 287.327C340.462 287.799 340.756 288.235 341.073 288.648C341.386 289.069 341.764 289.436 342.146 289.796C342.937 290.494 343.844 291.075 344.8 291.579C343.76 291.273 342.767 290.776 341.892 290.102C341.017 289.43 340.285 288.553 339.781 287.557C339.284 286.56 339.009 285.458 338.96 284.357C338.913 283.257 339.049 282.15 339.424 281.129Z" fill="#504A67"/>
<path d="M347.555 285.526C347.414 287.108 347.17 288.678 346.919 290.247C346.794 291.031 346.642 291.811 346.503 292.594C346.357 293.374 346.195 294.151 346.04 294.931C345.396 298.043 344.633 301.128 343.818 304.197C342.998 307.267 342.084 310.31 341.121 313.337C340.642 314.85 340.122 316.35 339.617 317.855C339.079 319.35 338.551 320.846 337.996 322.332C338.443 320.809 338.924 319.296 339.378 317.777L340.74 313.219C341.172 311.692 341.642 310.179 342.056 308.649L342.704 306.361L343.324 304.065C344.149 301.005 344.931 297.931 345.652 294.845C346.003 293.3 346.357 291.754 346.674 290.201C347.008 288.65 347.299 287.093 347.555 285.526Z" fill="#504A67"/>
<path d="M330.944 295.998C332.234 295.62 333.504 295.184 334.71 294.628C334.861 294.559 335.012 294.487 335.156 294.409C335.305 294.337 335.451 294.262 335.593 294.179C335.737 294.101 335.881 294.019 336.018 293.931L336.224 293.8C336.286 293.754 336.352 293.714 336.407 293.665C336.641 293.474 336.833 293.24 336.927 292.976C337.025 292.715 337.021 292.426 336.897 292.216C336.78 292.001 336.545 291.877 336.27 291.868C335.996 291.851 335.7 291.95 335.419 292.075C335.135 292.207 334.872 292.384 334.611 292.587C334.351 292.785 334.097 293 333.843 293.214C332.841 294.091 331.891 295.043 330.944 295.998ZM330.944 295.998C331.731 294.906 332.603 293.872 333.573 292.921C333.817 292.686 334.065 292.452 334.335 292.235C334.595 292.016 334.886 291.803 335.206 291.642C335.529 291.482 335.89 291.354 336.291 291.367C336.487 291.373 336.696 291.419 336.883 291.52C337.073 291.619 337.236 291.775 337.343 291.961C337.556 292.34 337.538 292.789 337.396 293.151C337.256 293.518 337.002 293.821 336.709 294.045C336.638 294.104 336.558 294.15 336.483 294.201L336.259 294.331C336.11 294.42 335.957 294.5 335.803 294.576C335.501 294.735 335.186 294.872 334.868 294.995C333.6 295.496 332.282 295.829 330.944 295.998Z" fill="#504A67"/>
<path d="M330.941 296.012C329.595 296.079 328.26 296.208 326.957 296.465C326.795 296.497 326.633 296.532 326.474 296.574C326.312 296.612 326.152 296.65 325.995 296.696C325.835 296.737 325.676 296.785 325.523 296.838L325.289 296.916C325.222 296.947 325.148 296.969 325.08 297.006C324.811 297.137 324.57 297.32 324.417 297.556C324.258 297.786 324.195 298.068 324.269 298.302C324.332 298.536 324.53 298.713 324.795 298.785C325.06 298.865 325.37 298.841 325.674 298.781C325.979 298.721 326.276 298.61 326.577 298.473C326.878 298.34 327.175 298.191 327.471 298.043C328.649 297.423 329.795 296.72 330.941 296.012ZM330.941 296.012C329.919 296.892 328.831 297.693 327.665 298.391C327.373 298.563 327.076 298.732 326.766 298.879C326.46 299.031 326.13 299.172 325.777 299.254C325.426 299.333 325.047 299.373 324.66 299.267C324.467 299.215 324.278 299.124 324.118 298.982C323.959 298.841 323.835 298.65 323.777 298.445C323.655 298.026 323.781 297.594 324.002 297.276C324.222 296.95 324.541 296.716 324.878 296.566C324.961 296.526 325.051 296.499 325.136 296.465L325.384 296.393C325.55 296.341 325.714 296.3 325.883 296.261C326.215 296.178 326.552 296.119 326.889 296.071C328.238 295.881 329.6 295.866 330.941 296.012Z" fill="#504A67"/>
<path d="M136.883 270.981L125.933 304.292L113.356 302.764L126.034 263.247L136.883 270.981Z" fill="#FFD4C0"/>
</svg>
