<svg width="451" height="314" viewBox="0 0 451 314" fill="none" xmlns="http://www.w3.org/2000/svg">
<path d="M440.444 312.367L30.6261 311.872C30.6261 311.872 -36.7375 221.471 28.7887 172.263C90.7643 125.718 45.7138 103.353 81.5187 43.1003C83.1016 40.436 84.8528 37.8936 86.7553 35.4695C91.109 29.9298 96.2637 25.0252 102.055 20.7685C145.996 -11.5508 226.641 -6.74814 272.598 39.3841C306.003 72.9173 356.082 52.4727 389.51 94.532C422.94 136.588 376.894 169.706 400.231 190.516C423.57 211.329 470.564 247.189 440.444 312.367Z" fill="#F9F7FF"/>
<path d="M152.281 269.81V82.8917H303.84V269.81H152.281Z" fill="#582EFF"/>
<path d="M296.457 260.65H163.202V92.0458H296.457V260.65Z" fill="#C4C2C1"/>
<path d="M291.584 260.65H158.341V92.0458H291.584V260.65Z" fill="white"/>
<path d="M217.891 79.1262C217.891 76.0308 220.382 73.5177 223.503 73.5177C226.586 73.5177 229.105 76.0308 229.105 79.1262C229.105 81.5307 227.575 83.5723 225.438 84.3674H221.545C219.407 83.5723 217.891 81.5307 217.891 79.1262ZM251.766 84.3674H239.663V84.0404C239.663 75.1203 232.427 67.8857 223.469 67.8857C214.538 67.8857 207.309 75.1203 207.309 84.0404V84.3674H195.978C189.214 84.3674 183.752 89.6949 183.444 96.374H264.297C263.983 89.6949 258.518 84.3674 251.766 84.3674Z" fill="#FBC707"/>
<path d="M197.098 105.472H212.939V110.325H207.639V125.887H202.229V110.325H197.098V105.472Z" fill="#FF9362"/>
<path d="M222.087 117.716L220.609 112.25L218.909 117.716H222.087ZM217.347 105.472H223.732L229.926 125.887H224.374L223.175 122.317H217.682L216.51 125.887H210.961L217.347 105.472Z" fill="#FF9362"/>
<path d="M236.785 105.472L239.715 111.135L242.642 105.472H248.638L242.419 115.762L248.498 125.887H242.503L239.715 120.421L236.869 125.887H230.873L236.98 115.762L230.79 105.472H236.785Z" fill="#FF9362"/>
<path d="M180.224 141.665C181.645 141.665 181.729 140.941 181.729 139.491C181.729 138.264 181.45 137.538 180.224 137.538H177.24V141.665H180.224ZM171.801 132.936H180.921C184.545 132.936 187.168 134.414 187.168 139.491C187.168 144.342 185.578 145.068 184.156 145.626L187.669 153.351H181.506L178.884 146.128L177.211 145.738V153.351H171.801V132.936Z" fill="#FF9362"/>
<path d="M188.954 137.678C188.954 133.472 192.169 132.936 194.14 132.936C194.14 132.936 199.998 132.936 203.261 133.383V137.928H195.815C194.364 137.928 194.364 138.737 194.364 139.491V140.718L201.866 141.024V145.515L194.364 145.766V146.992C194.364 148.47 195.284 148.442 196.094 148.442H203.261V152.96C200.388 153.351 194.419 153.435 194.419 153.435C192.615 153.49 188.954 153.128 188.954 148.861V137.678Z" fill="#FF9362"/>
<path d="M204.211 132.936H220.051V137.789H214.753V153.351H209.342V137.789H204.211V132.936Z" fill="#FF9362"/>
<path d="M221.836 132.936H227.247V144.426C227.247 147.048 227.302 148.638 229.952 148.638C232.434 148.638 232.491 146.936 232.491 144.426V132.936H237.928V144.426C237.928 153.435 233.326 153.49 229.952 153.49C226.159 153.49 221.836 153.713 221.836 144.426V132.936Z" fill="#FF9362"/>
<path d="M248.499 141.665C249.922 141.665 250.006 140.941 250.006 139.491C250.006 138.264 249.727 137.538 248.499 137.538H245.516V141.665H248.499ZM240.078 132.936H249.198C252.822 132.936 255.445 134.414 255.445 139.491C255.445 144.342 253.855 145.068 252.433 145.626L255.946 153.351H249.783L247.161 146.128L245.488 145.738V153.351H240.078V132.936Z" fill="#FF9362"/>
<path d="M257.369 132.936H262.835L268.664 143.367V132.936H274.074V153.351H268.664L262.808 143.199V153.351H257.369V132.936Z" fill="#FF9362"/>
<path d="M172.636 251.814H166.684V167.403H172.636V251.814Z" fill="#E3E3E2"/>
<path d="M207.175 250.014H201.228V165.596H207.175V250.014Z" fill="#E3E3E2"/>
<path d="M247.094 250.014H241.137V165.596H247.094V250.014Z" fill="#E3E3E2"/>
<path d="M283.356 250.014H277.399V165.596H283.356V250.014Z" fill="#E3E3E2"/>
<path d="M283.356 163.274V169.23H166.684V163.274H283.356Z" fill="#E3E3E2"/>
<path d="M196.779 174.768V187.186H176.756V174.768H196.779Z" fill="#C4C2C1"/>
<path d="M233.884 174.768V187.186H213.862V174.768H233.884Z" fill="#C4C2C1"/>
<path d="M233.884 201.599V214.013H213.862V201.599H233.884Z" fill="#C4C2C1"/>
<path d="M283.356 190.803V196.761H166.684V190.803H283.356Z" fill="#E3E3E2"/>
<path d="M283.356 218.335V224.29H166.684V218.335H283.356Z" fill="#E3E3E2"/>
<path d="M283.356 245.861V251.814H169.091V245.861H283.356Z" fill="#E3E3E2"/>
<path d="M140.197 124.109C140.19 119.512 136.243 115.756 131.418 115.761L102.974 115.802L74.5176 115.848C69.6979 115.852 65.7594 119.625 65.7691 124.22L65.9462 191.552C65.9551 196.153 69.9045 199.908 74.7306 199.895L103.176 199.855L131.627 199.809C136.445 199.803 140.388 196.039 140.378 191.435L140.197 124.109Z" fill="#2A09A9"/>
<path d="M131.291 152.813H124.829C121.369 152.813 118.572 155.614 118.572 159.07V180.303V186.068V186.767C118.572 190.223 121.369 193.025 124.829 193.025H131.291C134.742 193.025 137.549 190.223 137.549 186.767V186.068V180.303V159.07C137.549 155.614 134.742 152.813 131.291 152.813Z" fill="#C4C2C1"/>
<path d="M90.1834 165.531C90.1834 168.986 87.3792 171.788 83.9281 171.788H77.4632C74.0102 171.788 71.2065 168.986 71.2065 165.531V159.07C71.2065 155.614 74.0102 152.813 77.4632 152.813H83.9281C87.3792 152.813 90.1834 155.614 90.1834 159.07V165.531Z" fill="#C4C2C1"/>
<path d="M90.1834 186.767C90.1834 190.223 87.3792 193.025 83.9281 193.025H77.4632C74.0102 193.025 71.2065 190.223 71.2065 186.767V180.303C71.2065 176.852 74.0102 174.054 77.4632 174.054H83.9281C87.3792 174.054 90.1834 176.852 90.1834 180.303V186.767Z" fill="#C4C2C1"/>
<path d="M113.744 165.531C113.744 168.986 110.945 171.788 107.493 171.788H101.024C97.5733 171.788 94.7656 168.986 94.7656 165.531V159.07C94.7656 155.614 97.5733 152.813 101.024 152.813H107.493C110.945 152.813 113.744 155.614 113.744 159.07V165.531Z" fill="#C4C2C1"/>
<path d="M113.744 186.767C113.744 190.223 110.945 193.025 107.493 193.025H101.024C97.5733 193.025 94.7656 190.223 94.7656 186.767V180.303C94.7656 176.852 97.5733 174.054 101.024 174.054H107.493C110.945 174.054 113.744 176.852 113.744 180.303V186.767Z" fill="#C4C2C1"/>
<path d="M128.877 152.813H122.415C118.964 152.813 116.165 155.614 116.165 159.07V180.303V186.068V186.767C116.165 190.223 118.964 193.025 122.415 193.025H128.877C132.331 193.025 135.134 190.223 135.134 186.767V186.068V180.303V159.07C135.134 155.614 132.331 152.813 128.877 152.813Z" fill="white"/>
<path d="M87.774 165.531C87.774 168.986 84.9707 171.788 81.5169 171.788H75.0569C71.5974 171.788 68.8003 168.986 68.8003 165.531V159.07C68.8003 155.614 71.5974 152.813 75.0569 152.813H81.5169C84.9707 152.813 87.774 155.614 87.774 159.07V165.531Z" fill="white"/>
<path d="M87.774 186.767C87.774 190.223 84.9707 193.025 81.5169 193.025H75.0569C71.5974 193.025 68.8003 190.223 68.8003 186.767V180.303C68.8003 176.852 71.5974 174.054 75.0569 174.054H81.5169C84.9707 174.054 87.774 176.852 87.774 180.303V186.767Z" fill="white"/>
<path d="M111.331 165.531C111.331 168.986 108.535 171.788 105.079 171.788H98.6168C95.1586 171.788 92.3618 168.986 92.3618 165.531V159.07C92.3618 155.614 95.1586 152.813 98.6168 152.813H105.079C108.535 152.813 111.331 155.614 111.331 159.07V165.531Z" fill="white"/>
<path d="M111.331 186.767C111.331 190.223 108.535 193.025 105.079 193.025H98.6168C95.1586 193.025 92.3618 190.223 92.3618 186.767V180.303C92.3618 176.852 95.1586 174.054 98.6168 174.054H105.079C108.535 174.054 111.331 176.852 111.331 180.303V186.767Z" fill="white"/>
<path d="M72.1958 160.34H76.294V156.21H80.2181V160.34H84.3749V164.262H80.2181V168.39H76.294V164.262H72.1958V160.34Z" fill="#222D40"/>
<path d="M72.603 186.444L75.499 183.546L72.5811 180.626L75.3546 177.852L78.276 180.773L81.2114 177.835L83.985 180.608L81.0453 183.546L83.9662 186.465L81.1926 189.242L78.276 186.325L75.3774 189.221L72.603 186.444Z" fill="#222D40"/>
<path d="M95.9438 160.34H107.751V164.262H95.9438V160.34Z" fill="#222D40"/>
<path d="M120.327 173.949H130.964V177.287H120.327V173.949ZM120.327 168.554H130.964V171.893H120.327V168.554Z" fill="#EC733C"/>
<path d="M95.9438 181.575H107.751V185.501H95.9438V181.575Z" fill="#222D40"/>
<path d="M136.258 135.767C136.258 139.272 133.419 142.112 129.916 142.112H76.2317C72.7254 142.112 69.8828 139.272 69.8828 135.767V128.053C69.8828 124.553 72.7254 121.712 76.2317 121.712H129.916C133.419 121.712 136.258 124.553 136.258 128.053V135.767Z" fill="#5DC7A3"/>
<path d="M119.056 136.526H119.354C119.93 136.526 120.104 136.369 120.104 135.723V135.374C120.104 134.623 120.087 134.413 119.442 134.413H117.66C117.66 136.265 117.921 136.526 119.056 136.526ZM117.274 126.747C119.022 126.467 121.449 126.764 123.073 127.113V129.698H119.249C117.66 129.698 117.66 130.641 117.66 131.916C118.306 131.584 118.865 131.549 120.332 131.549C122.881 131.549 123.492 132.947 123.492 134.849V136.44C123.492 138.709 122.183 139.565 120.156 139.565H117.747C115.616 139.565 114.272 138.342 114.272 132.841C114.272 128.213 115.72 126.99 117.274 126.747Z" fill="white"/>
<path d="M124.35 126.764H132.75L133.571 128.125L129.572 139.547H125.975L129.432 129.802H124.35V126.764Z" fill="white"/>
<path d="M135.314 124.723C134.166 123.62 132.645 122.92 130.915 122.92H77.2285C73.7288 122.92 70.8787 125.771 70.8787 129.267V136.986C70.8787 138.215 71.2309 139.361 71.8049 140.309C70.6294 139.158 69.877 137.538 69.877 135.764V128.046C69.877 124.547 72.7284 121.696 76.2254 121.696H129.916C132.189 121.696 134.187 122.896 135.314 124.723Z" fill="#3CAA82"/>
<path d="M72.3042 140.713C72.1108 140.56 71.9267 140.395 71.753 140.221C71.2096 139.29 70.8789 138.177 70.8789 136.986V135.969L83.9277 122.92H90.0969L72.3042 140.713Z" fill="#8CD8C4"/>
<path d="M103.239 142.112H78.1753L97.3691 122.92H122.432L118.715 126.636C118.207 126.642 117.718 126.675 117.274 126.747C115.952 126.954 114.706 127.87 114.363 130.988L112.625 132.726C112.172 131.894 111.355 131.341 110.129 131.235C109.998 131.224 109.727 131.214 109.434 131.214C109.219 131.214 108.993 131.22 108.802 131.235C108.575 131.252 108.12 131.305 107.666 131.584L107.737 129.802H112.521V126.764H104.435L104.051 134.884H107.3C107.3 134.343 107.508 134.099 108.067 134.099H108.836C109.501 134.099 109.675 134.449 109.675 135.024V135.566C109.675 135.601 109.675 135.638 109.675 135.676L108.87 136.481C108.801 136.488 108.726 136.491 108.644 136.491H104.034V139.199C104.753 139.323 105.345 139.41 105.881 139.472L103.239 142.112Z" fill="#8CD8C4"/>
<path d="M312.283 185.065L336.743 180.883L347.841 243.406L319.878 257.443L310.739 232.346L298.431 218.631L314.003 193.924L312.283 185.065Z" fill="#FAB97E"/>
<path d="M312.283 185.065L336.743 180.883L341.18 226.204C339.014 225.408 336.933 225.843 334.496 225.869C329.969 225.903 325.549 226.016 321.071 226.751C316.089 227.571 314.429 227.051 309.513 227.461L300.736 218.468L302.052 195.917L316.252 191.741L312.283 185.065Z" fill="#FAB97E"/>
<path d="M336.744 180.883L308.966 160.512L289.938 158.957C289.938 158.957 274.005 163.002 270.968 165.055C269.436 166.095 268.436 170.604 274.415 172.191C278.101 173.172 285.898 169.468 285.898 169.468L296.12 172.187L306.639 180.063L313.504 191.338L333.359 186.538L336.744 180.883Z" fill="#FAB97E"/>
<path d="M335.504 186.53L333.191 195.074L329.535 194.084L331.854 185.54L335.504 186.53Z" fill="#31C5A1"/>
<path d="M311.012 179.889L308.695 188.435L261.231 175.568L263.546 167.023L311.012 179.889Z" fill="#EC733C"/>
<path d="M333.626 184.761L330.674 195.648L283.209 182.784L286.164 171.895L333.626 184.761Z" fill="#EC733C"/>
<path d="M261.245 175.572L254.02 169.029L263.56 167.028L261.245 175.572Z" fill="#31C5A1"/>
<path d="M322.17 194.401L321.283 194.16L309.705 191.023L309.111 190.862C309.111 190.862 307.685 190.473 306.467 190.485C304.419 190.51 302.173 192.071 303.185 193.494C304.302 195.054 305.952 192.81 307.669 193.47L308.951 193.816L320.527 196.954L322.925 197.603C323.628 197.794 324.366 197.375 324.559 196.666L324.619 196.442L328.186 183.286L325.388 182.527L322.17 194.401Z" fill="#31C5A1"/>
<path d="M281.543 199.831C281.543 199.831 273.243 185.351 271.768 182.715C268.587 177.027 272.894 173.33 277.477 175.444C279.636 176.443 287.804 188.014 287.804 188.014L298.432 196.047L305.269 194.969L322.297 228.643L309.307 230.74L281.543 199.831Z" fill="#FAB97E"/>
<path d="M308.57 235.583C309.356 238.799 315.596 251.513 316.323 254.739C328.501 249.996 340.234 241.975 353.359 239.199C352.923 235.865 347.929 227.226 347.435 223.892C334.018 226.767 321.031 230.707 308.57 235.583Z" fill="white"/>
<path d="M378.966 313.854H322.589L309.262 241.653L310.718 241.138L313.574 240.13L345.267 228.92L348.706 227.71L351.136 226.848L378.966 313.854Z" fill="#31C5A1"/>
<path d="M123.822 174.404C117.886 176.623 122.552 210.023 119.268 214.307C120.053 213.288 118.02 204.724 117.908 203.29C117.501 198.103 118.774 187.805 110.156 191.26C104.335 193.59 106.806 199.376 106.712 204.077C106.694 205.06 105.815 212.755 105.467 211.591C104.116 207.044 103.873 196.132 96.2726 199.759C93.4619 201.099 92.9268 204.027 92.7204 206.816C92.6526 207.694 92.0357 213.841 92.4054 214.376C87.7858 207.778 82.2977 208.188 81.0501 216.43C79.7307 225.11 79.2539 233.27 81.6393 241.859C82.1752 243.789 82.8634 245.543 83.6299 247.222C85.1755 250.619 87.0509 253.696 88.6796 257.268C90.0111 260.234 92.7161 262.408 93.8053 265.515C94.7122 268.081 94.9252 271.173 95.4567 273.827C95.728 275.201 95.9598 276.341 96.0635 276.82C96.1362 277.237 96.1261 277.745 96.4213 277.893C96.6925 278.021 97.5251 277.743 97.8016 277.705C98.7037 277.582 99.6019 277.468 100.501 277.359C103.244 277.052 103.093 278.237 105.81 277.972C111.439 277.419 116.872 276.073 122.505 276.09C127.618 276.111 129.172 272.079 131.542 267.589C136.55 258.008 145.495 252.217 145.941 233.62C146.003 231.266 145.721 229.013 145.879 226.692C145.916 226 147.162 220.912 147.301 220.213C147.693 218.222 149.159 215.005 148.388 213.33C147.38 211.144 142.001 212.625 140.592 213.908C134.43 219.535 138.177 232.439 132.931 236.41C124.613 222.593 137.173 169.409 123.822 174.404Z" fill="#FAB97E"/>
<path d="M91.9711 278.147C106.319 277.415 120.51 277.89 134.423 279.467C134.271 275.907 134.151 272.345 134.059 268.777C119.812 267.14 105.283 266.62 90.604 267.334C91.0327 270.945 91.4882 274.551 91.9711 278.147Z" fill="white"/>
<path d="M142.329 313.854H89.9728L87.9233 271.768H91.1378L95.1021 271.757L129.338 271.712L134.153 271.7H136.561L137.345 277.535L142.329 313.854Z" fill="#31C5A1"/>
<path d="M104.406 136.409H109.016C110.099 136.409 110.047 135.833 110.047 135.484V134.942C110.047 134.366 109.873 134.017 109.208 134.017H108.439C107.88 134.017 107.672 134.261 107.672 134.802H104.423L104.807 126.681H112.893V129.72H108.109L108.038 131.501C108.492 131.223 108.948 131.17 109.174 131.152C109.627 131.117 110.273 131.135 110.501 131.152C112.527 131.328 113.434 132.724 113.434 134.576V136.217C113.434 138.611 111.602 139.536 109.889 139.536C107.725 139.536 106.746 139.518 104.406 139.117V136.409Z" fill="white"/>
</svg>
