<svg width="371" height="267" viewBox="0 0 371 267" fill="none" xmlns="http://www.w3.org/2000/svg">
<path d="M22.7038 266.404C22.7038 266.404 -22.7825 204.721 15.0111 137.94C48.5439 78.6857 87.6417 82.7362 116.326 106.781C128.543 117.024 163.766 108.044 193.745 47.751C234.629 -34.471 376.347 15.3966 350.508 141.899C338.003 203.117 388.564 205.341 362.801 266.535L22.7038 266.404Z" fill="#F9F7FF"/>
<path d="M190.193 267C137.715 267 92.1709 264.852 92.1709 262.999C92.1709 262.09 103.175 261.422 120.595 260.977C120.917 261.178 121.25 261.361 121.592 261.528C123.056 262.295 124.698 262.785 126.449 262.922L126.835 262.951C127.739 263.062 128.649 263.125 129.54 263.16C129.556 263.16 129.571 263.162 129.588 263.162C129.865 263.179 130.146 263.19 130.427 263.19C130.464 263.19 130.499 263.19 130.535 263.188L130.69 263.192C130.836 263.195 130.98 263.197 131.124 263.197C134.349 263.197 136.902 262.293 138.96 260.762C138.963 260.76 138.965 260.759 138.969 260.757C139.045 260.71 139.121 260.664 139.194 260.618C154.229 260.402 171.786 260.296 190.193 260.296C202.552 260.296 214.359 260.38 225.191 260.531C227.44 262.585 230.425 263.824 233.663 263.824C233.936 263.824 234.212 263.815 234.489 263.798L234.676 263.785C234.681 263.785 234.685 263.785 234.689 263.785C234.798 263.787 234.905 263.789 235.014 263.789C235.924 263.789 236.837 263.72 237.736 263.584C237.741 263.582 237.747 263.582 237.754 263.58C240.235 263.356 242.491 262.423 244.331 260.992C244.338 260.986 244.347 260.98 244.355 260.975L244.371 260.96C244.401 260.94 244.428 260.918 244.456 260.897C269.092 261.502 285.21 262.509 285.21 263.648C285.21 265.499 242.67 267 190.193 267Z" fill="#DFC8A8"/>
<path d="M235.014 263.789C234.905 263.789 234.798 263.787 234.689 263.785C234.685 263.785 234.681 263.785 234.676 263.785L237.44 263.604C237.545 263.598 237.651 263.589 237.754 263.58C237.747 263.582 237.741 263.582 237.736 263.583C236.837 263.72 235.924 263.789 235.014 263.789ZM131.124 263.197C130.98 263.197 130.836 263.195 130.69 263.191L130.534 263.188C130.558 263.188 130.582 263.188 130.606 263.188C133.311 263.16 136.138 262.365 138.573 260.989L138.61 260.965C138.73 260.897 138.85 260.827 138.969 260.756C138.965 260.758 138.963 260.76 138.96 260.762C136.902 262.293 134.349 263.197 131.124 263.197ZM129.588 263.162C129.571 263.162 129.556 263.16 129.54 263.16C128.649 263.125 127.739 263.062 126.835 262.951L129.401 263.149C129.464 263.154 129.525 263.158 129.588 263.162ZM121.592 261.527C121.25 261.361 120.917 261.178 120.595 260.976C120.022 260.618 119.486 260.2 118.996 259.714C119.776 260.42 120.647 261.032 121.592 261.527ZM244.33 260.991C245.545 260.048 246.577 258.889 247.374 257.575C247.361 257.601 247.346 257.625 247.329 257.65C246.593 258.946 245.606 260.026 244.456 260.897C244.428 260.917 244.401 260.94 244.371 260.96L244.354 260.975C244.347 260.98 244.338 260.986 244.33 260.991ZM118.816 259.549C118.781 259.516 118.746 259.483 118.711 259.448C117.857 258.641 117.141 257.715 116.563 256.711L116.557 256.7C116.533 256.659 116.509 256.619 116.485 256.58C116.48 256.569 116.474 256.556 116.467 256.545C116.496 256.597 116.526 256.648 116.555 256.7C116.631 256.824 116.707 256.95 116.783 257.074C116.82 257.135 116.857 257.196 116.901 257.257C116.936 257.31 116.973 257.366 117.008 257.419C117.075 257.521 117.145 257.621 117.217 257.723C117.284 257.817 117.354 257.907 117.424 258C117.495 258.09 117.565 258.183 117.637 258.272C117.783 258.451 117.933 258.625 118.084 258.797L118.105 258.821C118.332 259.072 118.571 259.316 118.816 259.549ZM248.995 253.28C249.002 253.241 249.01 253.202 249.017 253.161C249.01 253.2 249.002 253.241 248.995 253.28ZM221.19 252.755C220.445 249.944 219.327 245.82 218.267 241.974L218.262 241.956C218.251 241.917 218.24 241.88 218.23 241.843L221.126 252.067C221.127 252.091 221.127 252.113 221.133 252.133C221.131 252.158 221.137 252.182 221.137 252.202C221.142 252.248 221.144 252.293 221.15 252.339C221.155 252.427 221.166 252.518 221.176 252.605L221.177 252.638C221.181 252.677 221.187 252.716 221.19 252.755ZM249.093 252.636C249.1 252.575 249.108 252.514 249.115 252.453C249.119 252.416 249.123 252.379 249.126 252.342C249.124 252.35 249.124 252.357 249.124 252.365C249.119 252.431 249.11 252.498 249.102 252.566C249.099 252.59 249.097 252.614 249.093 252.636ZM249.132 252.281C249.136 252.244 249.139 252.206 249.143 252.169C249.147 252.137 249.148 252.108 249.152 252.076L249.15 252.1C249.145 252.159 249.139 252.22 249.132 252.281ZM249.161 251.96C249.161 251.958 249.161 251.954 249.161 251.952C249.163 251.952 249.163 251.95 249.163 251.95C249.163 251.952 249.161 251.956 249.161 251.96ZM249.184 251.544C249.187 251.479 249.189 251.416 249.191 251.351C249.197 251.096 249.195 250.839 249.185 250.58C249.195 250.839 249.197 251.096 249.191 251.35C249.189 251.416 249.187 251.479 249.184 251.544ZM114.849 250.499C114.834 249.804 114.869 249.105 114.967 248.412L114.888 249.414C114.871 249.651 114.856 249.885 114.851 250.118C114.849 250.246 114.849 250.372 114.849 250.499ZM145.528 250.41L147.577 242.976C147.577 242.98 147.577 242.984 147.575 242.985C146.991 245.481 146.348 248.018 145.53 250.407C145.53 250.409 145.53 250.409 145.528 250.41ZM249.147 249.93V249.917C249.147 249.92 249.147 249.924 249.147 249.926V249.93ZM248.568 241.037L248.512 240.19C248.514 240.229 248.518 240.268 248.52 240.305L248.566 241.018C248.566 241.024 248.566 241.031 248.568 241.037ZM248.361 237.862L248.096 233.812L248.111 234.035L248.278 236.583L248.361 237.86V237.862ZM181.719 235.309C179.222 235.309 176.729 235.259 174.245 235.157C176.794 235.178 179.564 235.176 182.668 235.189C182.797 235.191 182.93 235.193 183.064 235.193C183.119 235.193 183.176 235.193 183.234 235.193C183.565 235.196 183.897 235.198 184.234 235.2C184.288 235.2 184.343 235.202 184.398 235.202C184.448 235.202 184.498 235.2 184.548 235.2C184.602 235.202 184.657 235.202 184.713 235.202C184.763 235.202 184.813 235.202 184.862 235.202C185.025 235.202 185.188 235.202 185.349 235.202C185.8 235.202 186.242 235.2 186.68 235.196C186.891 235.194 187.096 235.194 187.303 235.193C187.697 235.185 188.089 235.183 188.473 235.174C188.708 235.169 188.941 235.165 189.172 235.159C189.198 235.157 189.222 235.157 189.248 235.157C189.228 235.157 189.207 235.159 189.187 235.159H189.172C186.687 235.259 184.201 235.309 181.719 235.309ZM207.184 233.542C207.274 233.529 207.365 233.514 207.457 233.499C207.951 233.421 208.446 233.346 208.949 233.262C208.997 233.255 209.042 233.249 209.088 233.242C209.382 233.194 209.678 233.144 209.972 233.096C210.271 233.046 210.569 233 210.866 232.948C211.242 232.885 211.619 232.821 211.998 232.758C212.342 232.699 212.688 232.641 213.037 232.582C213.153 232.562 213.272 232.543 213.392 232.521C213.46 232.508 213.532 232.495 213.605 232.484C213.996 232.417 214.394 232.349 214.795 232.281C215.023 232.24 215.257 232.199 215.49 232.16V232.164H215.489C212.784 232.682 210.055 233.135 207.309 233.523C207.289 233.525 207.267 233.53 207.246 233.534C207.224 233.536 207.204 233.54 207.184 233.542ZM152.484 232.967C152.482 232.965 152.478 232.965 152.476 232.965L152.465 232.963C151.813 232.858 151.118 232.747 150.43 232.628L150.478 232.453C151.154 232.636 151.816 232.806 152.465 232.961L152.478 232.965C152.48 232.965 152.482 232.965 152.484 232.967ZM247.971 231.902L247.387 222.937V222.938L247.431 223.599C247.44 223.745 247.453 223.911 247.464 224.098C247.475 224.284 247.49 224.492 247.503 224.717L247.527 225.068C247.547 225.372 247.568 225.703 247.592 226.057L247.619 226.496L247.649 226.954L247.682 227.435L247.747 228.454L247.782 228.988C247.814 229.439 247.843 229.907 247.875 230.387L247.891 230.68L247.95 231.569L247.971 231.902ZM116.707 225.967C116.709 225.952 116.709 225.937 116.711 225.924L116.884 223.671L117.029 221.818L117.09 221.003L117.199 219.605L117.267 218.745L117.339 217.804L117.404 216.969V216.967H117.406L116.884 223.671L116.707 225.967ZM247.956 222.65C251.739 220.727 255.139 218.57 258.197 216.188L258.173 216.192C247.777 216.828 238.118 217.135 229.127 217.135C216.552 217.135 205.281 216.536 195.144 215.404C195.233 215.369 195.323 215.331 195.412 215.294C198.091 214.166 200.315 212.681 202.12 210.965C202.225 210.866 202.327 210.766 202.428 210.666C205.388 211.786 209.016 212.82 212.734 212.82C213.699 212.82 214.669 212.75 215.636 212.594C223.696 211.3 229.645 209.608 232.037 202.934C239.104 192.27 235.641 173.678 225.308 166.159C225.483 165.808 225.65 165.454 225.809 165.094C226.617 163.411 227.179 161.587 227.487 159.619C227.58 159.059 227.645 158.497 227.685 157.931C227.709 157.619 227.728 157.301 227.741 156.981C228.393 140.754 213.172 122.081 185.728 120.979C184.587 120.933 183.459 120.91 182.344 120.91C156.642 120.91 138.107 132.917 137.482 148.469C137.48 148.525 137.479 148.58 137.477 148.636C137.188 149.861 137.016 151.115 136.965 152.394C136.774 157.151 137.917 161.616 140.318 165.617C132.047 173.073 130.791 186.807 135.225 196.624C129.719 193.109 124.89 189.23 120.553 185.056C119.554 184.093 118.58 183.115 117.629 182.122C117.042 181.502 116.457 180.881 115.89 180.254L115.888 180.251C108.304 171.935 102.24 162.659 96.4067 152.888C95.4619 151.302 94.519 149.704 93.5833 148.098C91.4392 144.429 89.3027 140.71 87.1065 136.955C87.1048 136.169 87.0839 135.836 87.0499 135.836C86.8868 135.836 86.4233 143.503 86.3451 145.356L86.3438 145.409C86.3435 145.43 86.3429 145.45 86.3396 145.468L86.3346 145.696C86.3314 145.975 86.3312 146.251 86.3342 146.528C86.3331 146.713 86.332 146.899 86.3307 147.084C86.3318 147.175 86.3327 147.266 86.3338 147.352C86.3359 147.661 86.3383 147.966 86.3405 148.273C86.3449 148.746 86.3525 149.22 86.366 149.689C86.3656 149.845 86.3682 150 86.3738 150.157C86.3754 150.211 86.3743 150.264 86.3791 150.318C86.3834 150.531 86.3878 150.741 86.3982 150.952C86.403 151.137 86.4107 151.327 86.4157 151.512C86.4211 151.679 86.4263 151.845 86.4318 152.011C86.4424 152.348 86.4559 152.681 86.4725 153.01C86.4793 153.245 86.4921 153.479 86.505 153.711C86.5122 153.929 86.5254 154.149 86.5355 154.365C86.5611 154.835 86.5897 155.304 86.6213 155.772V155.776C86.6973 156.944 86.7887 158.103 86.8952 159.252C86.8948 159.268 86.8975 159.285 86.9001 159.3C86.9247 159.546 86.9493 159.791 86.9739 160.035C87.0052 160.385 87.0423 160.732 87.0798 161.078C87.1018 161.3 87.127 161.524 87.1519 161.746C87.1669 161.881 87.1821 162.014 87.2 162.149C87.2276 162.398 87.2581 162.648 87.2915 162.894C87.3603 163.445 87.4322 163.992 87.5069 164.539C87.5169 164.63 87.53 164.72 87.543 164.809C87.5896 165.144 87.6391 165.478 87.6918 165.809C87.7336 166.089 87.7756 166.366 87.8203 166.643C87.8782 167.013 87.9358 167.383 87.9996 167.753C88.0843 168.261 88.1751 168.771 88.2688 169.276C88.2932 169.4 88.3145 169.524 88.3385 169.646C88.3681 169.803 88.3977 169.956 88.4273 170.11C88.5539 170.761 88.6837 171.406 88.8224 172.047C88.825 172.062 88.8275 172.081 88.8331 172.099C88.8656 172.258 88.9011 172.417 88.9396 172.578C88.9581 172.683 88.9829 172.785 89.0076 172.89C89.0239 172.966 89.0402 173.042 89.0596 173.118C89.128 173.416 89.1962 173.711 89.2648 174.005C89.2672 174.029 89.2726 174.055 89.2811 174.079C89.3417 174.325 89.3992 174.577 89.4597 174.822C89.4872 174.935 89.5146 175.05 89.5451 175.161C89.6055 175.41 89.6691 175.656 89.7326 175.902L89.7411 175.934C89.8485 176.359 89.962 176.78 90.0788 177.2C90.109 177.32 90.1424 177.44 90.1787 177.559C90.2092 177.673 90.2395 177.788 90.2732 177.903H90.2761C90.3122 178.036 90.3482 178.169 90.3874 178.298C90.4235 178.424 90.4597 178.555 90.4989 178.681C90.5573 178.884 90.6187 179.086 90.6803 179.287L90.7308 179.452C90.862 179.881 90.9935 180.308 91.1312 180.735C91.2151 181.003 91.302 181.271 91.3891 181.541C91.4396 181.698 91.4993 181.85 91.5498 182.003C91.5696 182.064 91.5892 182.122 91.6089 182.179C91.6398 182.27 91.6738 182.356 91.7051 182.445C91.7981 182.713 91.8911 182.983 91.9841 183.251C92.0578 183.458 92.1318 183.664 92.2067 183.867C90.4605 179.158 89.1472 174.26 88.2659 169.276H88.2688C82.2658 139.116 89.7139 105.412 109.787 83.0055C115.871 76.3977 115.335 67.514 113.1 59.4272C111.249 45.683 118.805 33.3179 129.978 31.813C130.721 31.7557 131.437 31.7279 132.123 31.7279C133.422 31.7279 134.62 31.8277 135.731 32.0126C140.174 32.7503 143.188 34.8598 145.501 37.439C148.768 41.0867 150.637 45.6682 153.168 48.6374C154.455 50.1479 155.913 51.2406 157.82 51.5771C158.224 51.6492 158.652 51.688 159.101 51.688C159.731 51.688 160.408 51.6122 161.136 51.455C165.71 50.3217 170.41 49.5322 175.163 49.0811C175.385 49.0589 175.605 49.0386 175.829 49.0201C176.066 48.9998 176.301 48.9776 176.539 48.9591C176.778 48.9388 177.014 48.9203 177.253 48.9037C177.476 48.8889 177.704 48.8703 177.929 48.8555C177.953 48.8519 177.976 48.85 178 48.85C178.003 48.85 178.005 48.85 178.009 48.85C178.27 48.8315 178.532 48.8186 178.795 48.802C180.771 48.6873 182.753 48.63 184.733 48.63C185.979 48.63 187.223 48.6522 188.468 48.6984C191.415 48.8056 194.356 49.0441 197.274 49.4065C202.622 50.0739 207.892 51.1685 212.974 52.6882C213.471 52.8361 213.976 52.9064 214.477 52.9064C216.293 52.9064 218.027 51.9653 218.979 50.3402C220.491 47.1953 222.218 44.52 224.084 42.2885C227.709 37.953 231.862 35.2943 235.988 34.1277C237.649 33.6581 239.303 33.4289 240.919 33.4289C253.175 33.4289 263.128 46.6074 255.1 67.6841C251.65 74.5248 258.757 81.4617 266.698 93.0169C275.232 105.432 284.731 123.181 283.143 151.877C283.078 156.645 282.812 161.407 282.298 166.094C279.675 189.85 270.565 211.681 247.956 222.65ZM242.422 98.3305C240.914 98.3305 239.424 99.0182 238.451 100.318C236.813 102.509 237.262 105.613 239.451 107.251C242.437 109.483 245.042 112.058 247.272 114.82C250.615 118.96 253.105 123.528 254.734 127.886C255.549 130.064 256.148 132.186 256.54 134.161C256.932 136.132 257.113 137.957 257.113 139.515C257.113 139.682 257.111 139.842 257.108 140.001C257.041 142.736 259.202 145.008 261.937 145.075C261.978 145.077 262.02 145.077 262.061 145.077C264.74 145.077 266.944 142.939 267.01 140.245C267.016 140.003 267.019 139.761 267.019 139.515C267.017 136.435 266.557 133.122 265.672 129.67C265.006 127.084 264.094 124.421 262.933 121.748C261.19 117.736 258.884 113.694 255.973 109.865C253.061 106.04 249.542 102.427 245.384 99.3177C244.493 98.6522 243.452 98.3305 242.422 98.3305ZM223.466 85.6659C221.492 85.6659 219.626 86.8548 218.857 88.8016C217.853 91.3456 219.101 94.2224 221.645 95.2263C223.764 96.0638 225.879 97.1158 227.959 98.349C228.752 98.8204 229.623 99.0423 230.481 99.0423C232.172 99.0423 233.82 98.177 234.746 96.6166C236.142 94.263 235.365 91.2254 233.012 89.8295C230.523 88.3542 227.942 87.0637 225.284 86.0135C224.686 85.7787 224.071 85.6659 223.466 85.6659ZM115.962 215.937C112.484 213.434 109.33 210.616 106.494 207.543C109.328 210.586 112.479 213.387 115.962 215.937ZM184.35 213.936C180.07 213.241 176.014 212.441 172.165 211.54L172.159 211.539C170.408 211.13 168.702 210.699 167.036 210.25C166.315 209.764 165.659 209.242 165.06 208.689C165.002 208.636 164.943 208.582 164.886 208.529C165.871 208.346 166.786 208.266 167.642 208.266C173.524 208.266 176.713 212.003 181.529 212.058C181.599 212.06 181.671 212.06 181.742 212.06C185.354 212.06 188.373 211.013 190.718 209.967C193.06 208.921 194.73 207.874 195.639 207.874C195.711 207.874 195.78 207.88 195.843 207.894C196.335 208.002 197.322 208.473 198.671 209.085C197.03 210.438 195.007 211.594 192.487 212.454C190.207 213.228 187.517 213.757 184.35 213.936ZM208.74 197.654C208.99 196.04 209.095 194.459 209.095 192.956C209.095 192.834 209.093 192.712 209.093 192.59C209.944 193.05 210.524 193.975 210.524 195.041C210.524 196.252 209.779 197.278 208.74 197.654ZM205.276 195.592C205.24 195.413 205.222 195.23 205.222 195.041C205.222 194.716 205.276 194.404 205.375 194.115C205.355 194.601 205.322 195.095 205.276 195.592ZM159.321 194.921C159.304 194.531 159.297 194.145 159.297 193.76C159.297 192.296 159.411 190.883 159.602 189.587C160.626 189.931 161.377 190.906 161.434 192.072V192.105C161.434 192.159 161.436 192.211 161.436 192.263C161.416 193.573 160.513 194.664 159.321 194.921ZM212.499 192.521C211.042 192.521 209.759 191.747 209.006 190.573C208.907 189.218 208.727 187.958 208.496 186.831C209.034 185.061 210.622 183.776 212.499 183.776C214.817 183.776 216.696 185.734 216.696 188.151C216.696 190.562 214.817 192.521 212.499 192.521ZM154.159 189.695C151.84 189.695 149.96 187.735 149.96 185.32C149.96 182.904 151.84 180.95 154.159 180.95C155.599 180.95 156.871 181.706 157.627 182.858C157.468 183.209 157.319 183.584 157.174 183.985C156.723 185.23 156.335 186.712 156.054 188.365C156.002 188.67 155.954 188.981 155.91 189.295C155.377 189.55 154.784 189.695 154.159 189.695ZM92.8932 185.675C92.8634 185.601 92.8338 185.524 92.804 185.446C92.7051 185.191 92.6086 184.932 92.5099 184.675C92.5069 184.668 92.5041 184.658 92.5014 184.651C92.5043 184.66 92.5067 184.668 92.5099 184.675C92.6369 185.01 92.7645 185.344 92.8932 185.675ZM207.603 183.555C207.585 183.555 207.568 183.553 207.551 183.553C207.55 183.547 207.548 183.543 207.546 183.538C207.398 183.179 207.246 182.85 207.074 182.545C206.902 182.24 206.719 181.957 206.468 181.678C206.372 181.571 206.272 181.465 206.172 181.366C207.533 180.907 208.84 180.397 210.095 179.838C210.201 180.134 210.258 180.456 210.258 180.791C210.258 182.318 209.069 183.555 207.603 183.555ZM158.951 180.726C157.794 180.68 156.825 179.861 156.509 178.749C157.546 179.201 158.622 179.628 159.737 180.029C159.458 180.23 159.193 180.463 158.951 180.726Z" fill="#FFAD88"/>
<path d="M139.15 260.618C142.182 258.275 144.116 254.559 145.529 250.41L145.12 251.895V251.897C144.839 255.534 142.424 258.603 139.194 260.618C139.18 260.618 139.167 260.618 139.15 260.618ZM225.206 260.533C225.201 260.531 225.197 260.531 225.191 260.531C223.919 259.368 222.884 257.945 222.172 256.336C222.117 256.212 222.061 256.083 222.011 255.955C221.902 255.687 221.804 255.412 221.714 255.132C221.677 255.025 221.642 254.912 221.61 254.803C221.601 254.779 221.597 254.755 221.592 254.731C221.579 254.702 221.571 254.668 221.562 254.639C221.538 254.544 221.514 254.452 221.492 254.354C221.46 254.234 221.431 254.114 221.403 253.994L221.401 253.981C221.386 253.921 221.373 253.86 221.359 253.799C221.349 253.74 221.335 253.679 221.325 253.616C221.309 253.529 221.292 253.439 221.277 253.352C221.268 253.306 221.261 253.263 221.255 253.219C221.237 253.113 221.222 253.008 221.209 252.901C221.203 252.869 221.198 252.84 221.198 252.81C221.196 252.792 221.194 252.773 221.19 252.755C221.192 252.757 221.192 252.759 221.192 252.76C221.605 254.319 221.904 255.476 222.013 255.951L222.011 255.957C222.061 256.081 222.117 256.212 222.174 256.338C222.215 256.43 222.257 256.523 222.302 256.613C222.329 256.674 222.359 256.735 222.388 256.795C222.425 256.87 222.461 256.946 222.503 257.02C222.533 257.081 222.566 257.14 222.597 257.201C223.278 258.457 224.163 259.583 225.206 260.533ZM118.996 259.714C118.937 259.66 118.876 259.605 118.816 259.549C118.853 259.581 118.889 259.614 118.924 259.645H118.926C118.944 259.664 118.961 259.682 118.981 259.697C118.987 259.703 118.99 259.708 118.996 259.714ZM247.374 257.575C247.383 257.558 247.394 257.54 247.403 257.523C248.034 256.478 248.503 255.341 248.805 254.164C248.838 254.031 248.868 253.899 248.897 253.768C248.927 253.635 248.954 253.502 248.98 253.369C248.98 253.365 248.982 253.361 248.982 253.356C248.971 253.422 248.958 253.487 248.943 253.552C248.655 254.994 248.117 256.351 247.374 257.575ZM116.467 256.545C116.291 256.236 116.128 255.916 115.98 255.589C115.962 255.547 115.942 255.504 115.923 255.462C115.875 255.351 115.831 255.241 115.784 255.132C115.733 255.009 115.685 254.887 115.64 254.763C115.585 254.628 115.538 254.487 115.49 254.347C115.485 254.324 115.476 254.304 115.47 254.28C115.437 254.177 115.404 254.075 115.372 253.971L115.357 253.927C115.352 253.908 115.35 253.89 115.344 253.875C115.317 253.779 115.289 253.679 115.263 253.583C115.25 253.537 115.239 253.492 115.228 253.45C115.222 253.428 115.217 253.407 115.215 253.387C115.178 253.245 115.148 253.102 115.119 252.962C115.11 252.934 115.104 252.906 115.1 252.881C115.089 252.842 115.08 252.801 115.074 252.762C115.008 252.428 114.958 252.091 114.923 251.749C114.919 251.712 114.914 251.673 114.912 251.638C114.908 251.62 114.906 251.601 114.906 251.583C114.871 251.25 114.854 250.91 114.851 250.569C114.851 250.545 114.851 250.523 114.849 250.499C114.851 250.52 114.851 250.538 114.851 250.558V250.569C114.853 250.636 114.853 250.704 114.856 250.771C114.939 252.792 115.49 254.787 116.467 256.545ZM249.017 253.162C249.027 253.097 249.038 253.032 249.047 252.967C249.063 252.858 249.08 252.747 249.093 252.636C249.089 252.668 249.086 252.699 249.082 252.731C249.063 252.875 249.041 253.019 249.017 253.162ZM249.126 252.343C249.126 252.331 249.128 252.322 249.128 252.311C249.13 252.302 249.13 252.291 249.132 252.282C249.13 252.302 249.128 252.322 249.126 252.343ZM249.152 252.076L249.154 252.061C249.156 252.026 249.16 251.993 249.161 251.96C249.16 251.999 249.156 252.037 249.152 252.076ZM249.163 251.951C249.167 251.893 249.171 251.836 249.173 251.777C249.176 251.756 249.176 251.736 249.176 251.718C249.178 251.658 249.182 251.601 249.184 251.544C249.182 251.601 249.18 251.658 249.176 251.716C249.174 251.793 249.171 251.873 249.163 251.951ZM249.186 250.581C249.18 250.468 249.174 250.353 249.167 250.24L249.156 250.065C249.152 250.028 249.15 249.987 249.147 249.939V249.93L249.167 250.24C249.174 250.355 249.18 250.468 249.186 250.581ZM249.147 249.917C249.141 249.871 249.137 249.821 249.136 249.765L249.099 249.203C249.091 249.114 249.087 249.02 249.08 248.922L249.062 248.613C249.039 248.288 249.014 247.922 248.99 247.519L248.977 247.317C248.965 247.179 248.958 247.036 248.947 246.888C248.927 246.598 248.908 246.293 248.888 245.971C248.877 245.812 248.866 245.65 248.856 245.481L248.823 244.973C248.812 244.801 248.799 244.625 248.788 244.446C248.777 244.269 248.766 244.087 248.753 243.903L248.699 243.063C248.684 242.873 248.673 242.679 248.66 242.485L248.622 241.895C248.605 241.612 248.585 241.327 248.568 241.037L249.147 249.917ZM114.967 248.412V248.406L116.707 225.967C116.683 226.291 116.657 226.616 116.633 226.941L116.592 227.453C116.089 233.967 115.551 240.95 115.104 246.65L114.967 248.406C114.967 248.408 114.967 248.41 114.967 248.412ZM147.577 242.976C148.453 239.221 149.195 235.555 150.178 232.588C150.262 232.601 150.345 232.615 150.428 232.628C150.428 232.628 150.428 232.628 150.43 232.628L150.428 232.632L147.577 242.976ZM218.23 241.843L215.49 232.164H215.492C215.866 233.331 217.005 237.387 218.23 241.843ZM248.513 240.19C248.503 240.046 248.492 239.902 248.483 239.757L248.361 237.862L248.513 240.19ZM174.245 235.158C165.967 235.095 160.02 234.801 152.484 232.967C159.572 234.128 166.866 234.862 174.243 235.158H174.245ZM189.248 235.158C195.253 234.914 201.252 234.377 207.184 233.542C205.766 233.762 204.353 233.963 202.911 234.146C202.401 234.213 201.883 234.274 201.363 234.333C201.171 234.357 200.977 234.379 200.785 234.4C200.576 234.424 200.365 234.449 200.151 234.47C199.583 234.529 199.01 234.588 198.429 234.64C198.241 234.658 198.054 234.675 197.864 234.692L197.825 234.694C197.623 234.714 197.42 234.729 197.215 234.745C197.155 234.751 197.093 234.755 197.03 234.76C196.825 234.777 196.617 234.793 196.41 234.81L196.407 234.808C196.116 234.832 195.824 234.853 195.53 234.873C195.497 234.877 195.464 234.878 195.431 234.88C195.098 234.902 194.765 234.926 194.425 234.945C193.221 235.021 191.973 235.076 190.666 235.121C190.428 235.126 190.184 235.134 189.938 235.139C189.904 235.141 189.873 235.143 189.841 235.143C189.836 235.143 189.83 235.143 189.823 235.143C189.633 235.15 189.44 235.154 189.248 235.158ZM248.097 233.812L248.071 233.44L247.971 231.902L248.097 233.812ZM247.387 222.937L247.385 222.924C247.562 222.842 247.738 222.757 247.913 222.672C247.926 222.665 247.943 222.658 247.956 222.65C247.767 222.746 247.577 222.842 247.387 222.937ZM117.404 216.967H117.402V216.965C116.916 216.627 116.437 216.285 115.962 215.937C116.065 216.011 116.167 216.085 116.271 216.159C116.644 216.429 117.023 216.691 117.404 216.95V216.967ZM106.494 207.543C102.948 203.737 99.901 199.553 97.3293 195.014C97.1518 194.703 96.9799 194.391 96.8098 194.078C96.4659 193.453 96.1349 192.823 95.8114 192.185C95.6506 191.867 95.4897 191.545 95.3307 191.224C95.1643 190.878 94.9979 190.532 94.8352 190.188C94.6725 189.839 94.5098 189.491 94.3508 189.14C94.2454 188.907 94.1461 188.67 94.0406 188.434C93.9635 188.254 93.8834 188.077 93.8065 187.898C93.5956 187.404 93.3876 186.908 93.1827 186.409C93.1629 186.357 93.143 186.302 93.1202 186.252L93.103 186.211C93.0324 186.034 92.9625 185.855 92.8932 185.675C92.8971 185.686 92.9011 185.696 92.905 185.707C96.0665 193.631 100.5 200.982 106.252 207.281C106.333 207.37 106.413 207.456 106.494 207.543ZM92.5014 184.651C92.4742 184.579 92.4471 184.509 92.4191 184.437C92.4474 184.509 92.4748 184.579 92.5014 184.651ZM92.3618 184.289C92.3535 184.265 92.3448 184.241 92.3347 184.217C92.2916 184.1 92.2491 183.984 92.2067 183.867C92.2409 183.961 92.2755 184.054 92.3103 184.146C92.3186 184.168 92.3269 184.192 92.3354 184.215C92.3446 184.239 92.3537 184.263 92.3618 184.289Z" fill="#EFBCA4"/>
<path d="M233.663 263.824C230.425 263.824 227.439 262.585 225.191 260.531C225.197 260.531 225.201 260.531 225.206 260.533C227.452 262.576 230.429 263.811 233.655 263.811C233.931 263.811 234.21 263.802 234.489 263.783C234.543 263.783 234.598 263.785 234.652 263.785C234.661 263.785 234.668 263.785 234.676 263.785L234.489 263.798C234.212 263.815 233.936 263.824 233.663 263.824ZM237.754 263.58C240.15 263.218 242.452 262.373 244.33 260.992C242.491 262.423 240.235 263.356 237.754 263.58ZM130.427 263.19C130.146 263.19 129.865 263.179 129.588 263.162C129.904 263.175 130.218 263.184 130.529 263.188H130.534C130.499 263.19 130.464 263.19 130.427 263.19ZM126.835 262.951L126.449 262.922C124.698 262.785 123.056 262.295 121.592 261.528C121.606 261.535 121.621 261.543 121.636 261.548C121.656 261.561 121.677 261.57 121.695 261.579C123.27 262.328 125.042 262.733 126.829 262.951C126.831 262.951 126.833 262.951 126.835 262.951ZM138.969 260.757C139.03 260.711 139.091 260.664 139.15 260.618C139.167 260.618 139.18 260.618 139.194 260.618C139.12 260.664 139.045 260.711 138.969 260.757Z" fill="#E2B39D"/>
<path d="M233.655 263.811C230.429 263.811 227.453 262.576 225.206 260.533C224.164 259.582 223.278 258.457 222.598 257.201C222.566 257.14 222.533 257.081 222.503 257.02C222.461 256.946 222.426 256.87 222.389 256.794C222.359 256.735 222.329 256.674 222.302 256.613C222.257 256.523 222.215 256.43 222.174 256.338C222.117 256.212 222.061 256.081 222.011 255.957L222.013 255.951C221.904 255.476 221.605 254.319 221.192 252.76C221.192 252.758 221.192 252.757 221.191 252.755C221.187 252.716 221.181 252.677 221.178 252.638L221.176 252.605C221.167 252.518 221.155 252.427 221.15 252.339C221.144 252.293 221.143 252.248 221.137 252.202C221.137 252.182 221.131 252.158 221.133 252.134C221.128 252.113 221.128 252.091 221.126 252.067L218.231 241.843C217.005 237.387 215.866 233.331 215.492 232.164H215.491V232.161C215.258 232.199 215.023 232.24 214.795 232.281C214.394 232.349 213.997 232.418 213.605 232.484C213.533 232.495 213.461 232.508 213.392 232.521C213.272 232.543 213.154 232.562 213.037 232.582C212.688 232.641 212.342 232.699 211.998 232.758C211.619 232.821 211.242 232.885 210.867 232.948C210.569 233 210.271 233.046 209.972 233.096C209.678 233.144 209.382 233.194 209.088 233.242C209.042 233.249 208.997 233.255 208.949 233.262C208.447 233.346 207.951 233.421 207.457 233.499C207.365 233.514 207.274 233.529 207.184 233.542C201.253 234.377 195.253 234.913 189.248 235.157C189.222 235.157 189.198 235.157 189.172 235.159C188.941 235.165 188.708 235.169 188.474 235.174C188.089 235.183 187.697 235.185 187.303 235.193C187.096 235.194 186.891 235.194 186.68 235.196C186.242 235.2 185.8 235.202 185.349 235.202C185.188 235.202 185.025 235.202 184.863 235.202C184.813 235.202 184.763 235.202 184.713 235.202C184.658 235.202 184.602 235.202 184.548 235.2C184.499 235.2 184.449 235.202 184.399 235.202C184.343 235.202 184.288 235.2 184.234 235.2C183.898 235.198 183.565 235.196 183.234 235.193C183.177 235.193 183.119 235.193 183.064 235.193C182.931 235.193 182.798 235.191 182.668 235.189C179.564 235.176 176.794 235.178 174.245 235.157H174.243C166.866 234.862 159.572 234.128 152.484 232.967C152.482 232.965 152.48 232.965 152.479 232.965L152.466 232.961C151.817 232.806 151.155 232.636 150.478 232.453L150.43 232.628C150.428 232.628 150.428 232.628 150.428 232.628C150.345 232.615 150.262 232.601 150.179 232.588C149.195 235.555 148.454 239.221 147.577 242.976L145.529 250.41C144.116 254.559 142.182 258.275 139.15 260.618C139.091 260.664 139.03 260.71 138.969 260.757C138.851 260.827 138.731 260.897 138.61 260.965L138.573 260.989C136.138 262.365 133.312 263.16 130.607 263.188C130.583 263.188 130.559 263.188 130.535 263.188H130.529C130.218 263.184 129.904 263.175 129.588 263.162C129.525 263.158 129.464 263.154 129.401 263.149L126.835 262.951C126.833 262.951 126.831 262.951 126.83 262.951C125.042 262.733 123.271 262.328 121.695 261.579C121.677 261.57 121.657 261.561 121.636 261.548C121.621 261.542 121.607 261.535 121.592 261.527C120.647 261.032 119.776 260.42 118.996 259.714C118.991 259.708 118.987 259.703 118.981 259.697C118.961 259.682 118.944 259.664 118.926 259.645H118.924C118.889 259.614 118.854 259.581 118.817 259.549C118.571 259.316 118.332 259.072 118.105 258.821L118.085 258.797C117.933 258.625 117.783 258.451 117.637 258.272C117.565 258.183 117.495 258.09 117.425 258C117.354 257.907 117.284 257.817 117.217 257.723C117.145 257.621 117.075 257.521 117.009 257.419C116.973 257.366 116.936 257.31 116.901 257.257C116.857 257.196 116.82 257.135 116.783 257.074C116.707 256.95 116.631 256.824 116.556 256.7C116.526 256.648 116.496 256.597 116.467 256.545C115.491 254.787 114.94 252.792 114.856 250.771C114.853 250.704 114.853 250.636 114.851 250.569V250.558C114.851 250.538 114.851 250.519 114.849 250.499C114.849 250.372 114.849 250.246 114.851 250.118C114.856 249.885 114.871 249.651 114.888 249.414L114.967 248.412C114.967 248.41 114.967 248.408 114.967 248.406L115.104 246.65C115.552 240.95 116.09 233.967 116.593 227.453L116.633 226.941C116.657 226.616 116.683 226.29 116.707 225.967L116.885 223.671L117.406 216.967H117.404V216.95C117.023 216.691 116.644 216.429 116.271 216.159C116.167 216.085 116.066 216.011 115.962 215.937C112.479 213.387 109.328 210.586 106.494 207.543C106.413 207.456 106.333 207.369 106.252 207.281C100.5 200.982 96.0668 193.631 92.9052 185.707C92.9014 185.696 92.8973 185.686 92.8934 185.675C92.7647 185.344 92.6377 185.01 92.5107 184.675C92.5076 184.668 92.5046 184.66 92.5016 184.651C92.475 184.579 92.4476 184.509 92.4194 184.436C92.4036 184.396 92.3877 184.357 92.3717 184.316C92.3685 184.307 92.3654 184.298 92.3621 184.289C92.3539 184.263 92.3449 184.239 92.3356 184.215C92.3271 184.192 92.3188 184.168 92.3105 184.146C92.2757 184.054 92.2411 183.961 92.2069 183.867C92.1321 183.664 92.0581 183.458 91.9843 183.251C91.8913 182.983 91.7983 182.713 91.7053 182.445C91.6741 182.357 91.6401 182.27 91.6092 182.179C91.5894 182.122 91.5698 182.064 91.55 182.003C91.4996 181.85 91.4398 181.698 91.3894 181.541C91.3023 181.271 91.2154 181.003 91.1315 180.735C90.9937 180.308 90.8623 179.881 90.731 179.452L90.6805 179.287C90.619 179.086 90.5576 178.884 90.4992 178.681C90.46 178.555 90.4237 178.424 90.3877 178.298C90.3485 178.169 90.3124 178.036 90.2764 177.903H90.2734C90.2398 177.788 90.2094 177.673 90.1789 177.559C90.1427 177.44 90.1092 177.32 90.0791 177.2C89.9622 176.78 89.8487 176.359 89.7413 175.934L89.7328 175.902C89.6694 175.656 89.6058 175.41 89.5453 175.161C89.5148 175.05 89.4875 174.935 89.4599 174.822C89.3995 174.577 89.342 174.325 89.2813 174.079C89.2728 174.055 89.2675 174.029 89.2651 174.005C89.1965 173.711 89.1282 173.416 89.0598 173.118C89.0404 173.042 89.0242 172.966 89.0079 172.89C88.9831 172.785 88.9583 172.683 88.9398 172.578C88.9014 172.417 88.8659 172.258 88.8334 172.099C88.8278 172.081 88.8252 172.062 88.8226 172.047C88.684 171.406 88.5542 170.761 88.4275 170.11C88.3979 169.956 88.3684 169.803 88.3388 169.646C88.3148 169.524 88.2935 169.4 88.2691 169.276C88.1754 168.771 88.0846 168.261 87.9999 167.753C87.9361 167.383 87.8784 167.013 87.8206 166.643C87.7758 166.366 87.7339 166.089 87.6921 165.809C87.6394 165.478 87.5898 165.144 87.5432 164.809C87.5303 164.72 87.5172 164.63 87.5072 164.539C87.4325 163.992 87.3606 163.445 87.2918 162.894C87.2583 162.648 87.2278 162.398 87.2003 162.149C87.1823 162.014 87.1672 161.881 87.1522 161.746C87.1272 161.524 87.1021 161.3 87.0801 161.078C87.0426 160.732 87.0054 160.385 86.9742 160.035C86.9496 159.791 86.925 159.546 86.9004 159.3C86.8978 159.285 86.895 159.268 86.8954 159.252C86.7889 158.103 86.6976 156.944 86.6216 155.776V155.772C86.59 155.304 86.5613 154.835 86.5358 154.365C86.5256 154.149 86.5125 153.929 86.5053 153.711C86.4924 153.48 86.4796 153.245 86.4728 153.01C86.4561 152.681 86.4426 152.348 86.4321 152.012C86.4265 151.845 86.4214 151.679 86.416 151.512C86.411 151.327 86.4032 151.137 86.3984 150.952C86.3881 150.741 86.3836 150.531 86.3794 150.318C86.3746 150.264 86.3757 150.211 86.374 150.157C86.3685 150 86.3659 149.845 86.3663 149.689C86.3528 149.22 86.3452 148.746 86.3408 148.273C86.3385 147.966 86.3361 147.661 86.3341 147.352C86.333 147.266 86.3321 147.175 86.331 147.084C86.3322 146.899 86.3333 146.713 86.3345 146.528C86.3315 146.251 86.3317 145.975 86.3348 145.696L86.3398 145.468C86.3431 145.45 86.3437 145.43 86.3441 145.409L86.3454 145.356C86.4236 143.503 86.8871 135.836 87.0501 135.836C87.0842 135.836 87.1051 136.169 87.1067 136.955C89.303 140.71 91.4395 144.429 93.5836 148.098C94.5193 149.704 95.4622 151.302 96.4069 152.888C102.24 162.659 108.304 171.935 115.888 180.251L115.89 180.254C116.458 180.881 117.042 181.502 117.63 182.122C118.58 183.115 119.554 184.093 120.553 185.056C124.89 189.23 129.719 193.109 135.225 196.624C137.296 201.213 140.613 204.946 145.033 206.782C148.698 208.678 152.976 209.788 157.141 209.788C158.356 209.788 159.563 209.693 160.741 209.496C161.416 210.311 162.17 211.086 163.008 211.812C165.078 213.609 167.657 215.092 170.786 216.113C173.914 217.135 177.586 217.701 181.881 217.701C181.973 217.701 182.067 217.701 182.16 217.701C187.333 217.671 191.618 216.841 195.144 215.404C205.281 216.536 216.552 217.135 229.128 217.135C238.119 217.135 247.777 216.828 258.173 216.192L258.197 216.188C255.139 218.57 251.739 220.727 247.956 222.65C247.943 222.657 247.927 222.665 247.914 222.672C247.738 222.757 247.562 222.842 247.385 222.924L247.387 222.937C247.387 222.937 247.389 222.937 247.387 222.937L247.971 231.902L248.071 233.44L248.097 233.812L248.361 237.862L248.483 239.757C248.492 239.902 248.503 240.046 248.513 240.19L248.568 241.037C248.585 241.327 248.605 241.612 248.622 241.895L248.661 242.484C248.674 242.679 248.685 242.873 248.699 243.063L248.753 243.902C248.766 244.087 248.777 244.269 248.788 244.446C248.799 244.625 248.812 244.801 248.823 244.973L248.857 245.481C248.866 245.65 248.877 245.812 248.888 245.971C248.908 246.293 248.927 246.598 248.947 246.888C248.958 247.036 248.966 247.179 248.977 247.317L248.99 247.519C249.014 247.922 249.04 248.288 249.062 248.613L249.08 248.922C249.088 249.02 249.091 249.114 249.099 249.203L249.136 249.765C249.138 249.821 249.141 249.871 249.147 249.917V249.93V249.939C249.151 249.987 249.152 250.028 249.156 250.065L249.167 250.24C249.175 250.353 249.18 250.468 249.186 250.581C249.195 250.839 249.197 251.096 249.191 251.351C249.189 251.416 249.188 251.479 249.184 251.544C249.182 251.601 249.178 251.658 249.176 251.718C249.176 251.736 249.176 251.756 249.173 251.777C249.171 251.836 249.167 251.893 249.163 251.95C249.163 251.95 249.163 251.952 249.162 251.952C249.162 251.954 249.162 251.958 249.162 251.96C249.16 251.993 249.156 252.026 249.154 252.061L249.152 252.076C249.149 252.108 249.147 252.137 249.143 252.169C249.139 252.206 249.136 252.244 249.132 252.281C249.13 252.291 249.13 252.302 249.128 252.311C249.128 252.322 249.127 252.331 249.127 252.342C249.123 252.379 249.119 252.416 249.115 252.453C249.108 252.514 249.101 252.575 249.093 252.636C249.08 252.747 249.064 252.858 249.047 252.967C249.038 253.032 249.027 253.097 249.017 253.161C249.01 253.202 249.003 253.241 248.995 253.28C248.992 253.306 248.988 253.332 248.982 253.356C248.982 253.361 248.98 253.365 248.98 253.369C248.955 253.502 248.927 253.635 248.897 253.768C248.868 253.899 248.838 254.03 248.805 254.164C248.503 255.341 248.034 256.478 247.403 257.523C247.394 257.54 247.383 257.558 247.374 257.575C246.577 258.889 245.545 260.048 244.331 260.991C242.452 262.372 240.15 263.217 237.754 263.58C237.651 263.589 237.545 263.598 237.44 263.604L234.676 263.785C234.669 263.785 234.661 263.785 234.652 263.785C234.598 263.785 234.543 263.783 234.489 263.783C234.21 263.802 233.931 263.811 233.655 263.811ZM181.881 214.005C177.173 214.005 173.441 213.271 170.494 212.075C169.198 211.548 168.053 210.936 167.036 210.25C168.702 210.699 170.409 211.13 172.159 211.539L172.165 211.54C176.014 212.441 180.071 213.241 184.351 213.937C183.639 213.977 182.901 214.001 182.139 214.005C182.053 214.005 181.967 214.005 181.881 214.005Z" fill="#EF9065"/>
<path d="M183.092 72.0695C176.953 72.2895 175.779 61.2132 175.829 49.0201C176.948 48.9184 178.07 48.8389 179.196 48.776C181.241 48.6632 183.302 48.6096 185.382 48.6207C186.416 48.6281 187.44 48.654 188.468 48.6928C188.039 54.1044 191.361 71.7756 183.092 72.0695Z" fill="#FFD2BD"/>
<path d="M206.172 181.366C205.793 180.985 205.396 180.656 204.98 180.382C205.17 179.053 206.274 178.029 207.603 178.029C208.748 178.029 209.722 178.783 210.096 179.839C208.84 180.397 207.533 180.907 206.172 181.366ZM159.737 180.029C158.622 179.628 157.546 179.201 156.509 178.75C156.439 178.502 156.4 178.237 156.4 177.966C156.4 176.437 157.59 175.202 159.053 175.202C160.517 175.202 161.704 176.437 161.704 177.966C161.704 178.419 161.599 178.846 161.414 179.223C161.24 179.273 161.066 179.33 160.894 179.397C160.525 179.543 160.162 179.731 159.82 179.97C159.792 179.988 159.765 180.009 159.737 180.029ZM225.308 166.159C225.295 166.15 225.282 166.141 225.269 166.131C225.459 165.791 225.639 165.445 225.809 165.094C225.65 165.455 225.483 165.808 225.308 166.159ZM140.319 165.617C137.917 161.616 136.774 157.151 136.965 152.394C137.017 151.115 137.188 149.862 137.477 148.636C137.305 153.996 139.289 159.104 143.016 163.574C142.045 164.184 141.147 164.87 140.319 165.617ZM227.488 159.62C227.573 159.069 227.639 158.505 227.685 157.932C227.645 158.497 227.58 159.059 227.488 159.62Z" fill="url(#paint0_linear_2_9129)"/>
<path d="M227.741 156.981C227.09 173.209 210.809 180.844 183.365 179.742C155.923 178.639 136.83 164.697 137.483 148.469C138.135 132.242 158.284 119.875 185.728 120.979C213.172 122.081 228.394 140.754 227.741 156.981Z" fill="#FFC0A4"/>
<path d="M203.556 153.116C203.336 158.584 200.001 162.892 196.107 162.737C192.213 162.58 189.235 158.019 189.455 152.548C189.675 147.079 193.01 142.771 196.904 142.927C200.798 143.084 203.776 147.645 203.556 153.116Z" fill="#EB8F66"/>
<path d="M179.856 152.163C179.636 157.632 176.301 161.94 172.407 161.783C168.513 161.627 165.535 157.066 165.755 151.596C165.975 146.125 169.308 141.819 173.202 141.974C177.098 142.131 180.076 146.692 179.856 152.163Z" fill="#EB8F66"/>
<path d="M230.481 99.0427C229.623 99.0427 228.752 98.8209 227.959 98.3494C225.879 97.1162 223.764 96.0643 221.645 95.2267C219.101 94.2228 217.853 91.346 218.857 88.802C219.626 86.8552 221.492 85.6664 223.466 85.6664C224.071 85.6664 224.687 85.7792 225.284 86.014C227.942 87.0641 230.523 88.3546 233.012 89.83C235.366 91.2258 236.142 94.2635 234.746 96.6171C233.82 98.1775 232.173 99.0427 230.481 99.0427Z" fill="url(#paint1_linear_2_9129)"/>
<path d="M262.061 145.077C262.02 145.077 261.978 145.077 261.937 145.075C259.202 145.009 257.041 142.736 257.108 140.002C257.111 139.843 257.113 139.682 257.113 139.516C257.113 137.957 256.932 136.132 256.54 134.161C256.148 132.187 255.549 130.064 254.734 127.886C253.105 123.529 250.615 118.96 247.272 114.821C245.042 112.059 242.437 109.483 239.451 107.252C237.262 105.613 236.813 102.509 238.451 100.318C239.424 99.0186 240.914 98.3309 242.422 98.3309C243.452 98.3309 244.493 98.6526 245.384 99.3182C249.542 102.428 253.061 106.041 255.973 109.866C258.884 113.695 261.19 117.736 262.933 121.748C264.095 124.422 265.006 127.084 265.672 129.671C266.557 133.122 267.018 136.435 267.019 139.516C267.019 139.761 267.016 140.004 267.01 140.246C266.944 142.94 264.74 145.077 262.061 145.077Z" fill="#F8ECDC"/>
<path d="M233.141 69.596C243.905 68.0227 245.444 63.5023 247.44 49.4881C248.834 62.7849 250.615 67.8267 261.558 69.3428C252.013 73.1347 248.659 74.5102 246.956 89.8796C244.604 74.3143 242.508 72.9387 233.141 69.596Z" fill="white"/>
<path d="M84.504 72.4637C91.8087 71.3138 92.8524 68.0099 94.2078 57.7692C95.1535 67.4867 96.3626 71.1714 103.789 72.2789C97.3111 75.0484 95.0351 76.0542 93.8791 87.2859C92.2831 75.9118 90.8601 74.9061 84.504 72.4637Z" fill="white"/>
<path d="M152.107 18.788C161.447 17.3182 162.782 13.0936 164.516 0.0001297C165.725 12.4243 167.271 17.1352 176.768 18.5514C168.484 22.0938 165.572 23.3806 164.095 37.7405C162.054 23.1957 160.234 21.9107 152.107 18.788Z" fill="white"/>
<path d="M212.734 212.82C209.016 212.82 205.389 211.787 202.429 210.666C202.837 210.261 203.222 209.845 203.586 209.418C206.771 210.239 210.745 210.79 215.997 210.79C216.136 210.79 216.275 210.788 216.415 210.788C223.842 210.748 228.946 207.599 232.038 202.934C229.645 209.609 223.696 211.3 215.637 212.595C214.67 212.75 213.699 212.82 212.734 212.82ZM159.635 208.033C159.317 207.928 159.001 207.823 158.687 207.715C158.911 207.68 159.132 207.643 159.351 207.606C159.408 207.693 159.465 207.78 159.524 207.867C159.561 207.922 159.598 207.978 159.635 208.033Z" fill="url(#paint2_linear_2_9129)"/>
<path d="M157.141 209.788C152.976 209.788 148.697 208.679 145.033 206.782C146.551 207.414 148.2 207.819 149.975 207.961C151.197 208.058 152.341 208.102 153.423 208.102C155.364 208.102 157.097 207.958 158.687 207.716C159.001 207.823 159.317 207.928 159.635 208.034C159.977 208.533 160.345 209.021 160.741 209.496C159.563 209.694 158.356 209.788 157.141 209.788Z" fill="url(#paint3_linear_2_9129)"/>
<path d="M181.742 212.06C181.671 212.06 181.599 212.06 181.529 212.058C176.713 212.003 173.524 208.266 167.642 208.266C166.786 208.266 165.871 208.346 164.886 208.529C164.274 207.948 163.725 207.334 163.229 206.691C164.389 206.351 165.492 205.972 166.583 205.582C166.616 205.569 166.652 205.558 166.685 205.545C166.692 205.543 166.701 205.539 166.711 205.536C166.731 205.528 166.753 205.521 166.775 205.513C166.807 205.5 166.84 205.489 166.872 205.478C166.875 205.476 166.877 205.476 166.881 205.474C171.338 203.872 175.626 202.126 182.526 202.124C182.527 202.124 182.529 202.124 182.529 202.124C182.949 202.124 183.376 202.132 183.814 202.145C183.833 202.145 183.849 202.145 183.868 202.147C189.418 202.32 192.365 204.678 196.839 206.887C197.723 207.323 198.668 207.754 199.703 208.163C199.539 208.322 199.369 208.479 199.195 208.634C199.025 208.788 198.851 208.937 198.672 209.085C197.322 208.473 196.335 208.002 195.843 207.895C195.78 207.88 195.712 207.874 195.639 207.874C194.73 207.874 193.06 208.921 190.718 209.967C188.374 211.014 185.354 212.06 181.742 212.06Z" fill="url(#paint4_linear_2_9129)"/>
<path d="M159.053 175.202C160.517 175.202 161.704 176.437 161.704 177.966C161.704 179.489 160.517 180.728 159.053 180.728C157.59 180.728 156.4 179.489 156.4 177.966C156.4 176.437 157.59 175.202 159.053 175.202ZM149.96 185.32C149.96 182.904 151.841 180.95 154.159 180.95C156.476 180.95 158.358 182.904 158.358 185.32C158.358 187.735 156.476 189.695 154.159 189.695C151.841 189.695 149.96 187.735 149.96 185.32ZM161.436 192.263C161.412 193.764 160.231 194.979 158.783 194.979C157.319 194.979 156.132 193.74 156.132 192.217C156.132 190.688 157.319 189.453 158.783 189.453C160.203 189.453 161.362 190.612 161.434 192.072V192.106C161.438 192.143 161.438 192.178 161.438 192.217L161.436 192.263ZM208.302 188.151C208.302 185.735 210.182 183.777 212.499 183.777C214.818 183.777 216.696 185.735 216.696 188.151C216.696 190.562 214.818 192.522 212.499 192.522C210.182 192.522 208.302 190.562 208.302 188.151ZM207.873 192.283C209.338 192.283 210.525 193.518 210.525 195.042C210.525 196.569 209.338 197.804 207.873 197.804C206.409 197.804 205.222 196.569 205.222 195.042C205.222 193.518 206.409 192.283 207.873 192.283ZM207.603 183.555C206.141 183.555 204.952 182.318 204.952 180.791C204.952 179.267 206.141 178.029 207.603 178.029C209.069 178.029 210.258 179.267 210.258 180.791C210.258 182.318 209.069 183.555 207.603 183.555ZM215.55 162.868C208.637 162.776 204.307 164.713 200.006 166.651C195.51 168.677 191.045 170.703 183.7 170.41C168.09 169.779 167.267 159.413 153.394 160.354C125.129 162.273 127.639 206.19 149.975 207.961C157.529 208.558 162.17 207.161 166.583 205.582C171.433 203.848 176.007 201.899 183.868 202.147C189.418 202.32 192.365 204.678 196.839 206.887C200.973 208.928 206.411 210.844 216.415 210.788C245.381 210.631 239.041 163.181 215.55 162.868Z" fill="#91D9C6"/>
<path d="M212.499 192.522C210.182 192.522 208.302 190.562 208.302 188.151C208.302 185.735 210.182 183.777 212.499 183.777C214.817 183.777 216.696 185.735 216.696 188.151C216.696 190.562 214.817 192.522 212.499 192.522ZM207.873 197.804C206.409 197.804 205.222 196.569 205.222 195.042C205.222 193.518 206.409 192.283 207.873 192.283C209.337 192.283 210.524 193.518 210.524 195.042C210.524 196.569 209.337 197.804 207.873 197.804ZM207.603 178.029C209.069 178.029 210.258 179.267 210.258 180.791C210.258 182.318 209.069 183.555 207.603 183.555C206.141 183.555 204.952 182.318 204.952 180.791C204.952 179.267 206.141 178.029 207.603 178.029ZM158.783 194.979C157.318 194.979 156.131 193.74 156.131 192.217C156.131 190.688 157.318 189.453 158.783 189.453C160.203 189.453 161.362 190.612 161.434 192.072V192.106C161.438 192.143 161.438 192.178 161.438 192.217L161.436 192.263C161.412 193.764 160.23 194.979 158.783 194.979ZM154.159 189.695C151.84 189.695 149.96 187.735 149.96 185.32C149.96 182.904 151.84 180.95 154.159 180.95C156.475 180.95 158.358 182.904 158.358 185.32C158.358 187.735 156.475 189.695 154.159 189.695ZM159.053 175.202C160.517 175.202 161.704 176.437 161.704 177.966C161.704 179.489 160.517 180.728 159.053 180.728C157.59 180.728 156.4 179.489 156.4 177.966C156.4 176.437 157.59 175.202 159.053 175.202ZM213.677 165.379C203.626 165.508 198.973 170.833 191.191 172.911C189.006 173.495 186.571 173.824 183.7 173.708C180.54 173.58 177.939 172.939 175.67 172.027C167.739 168.84 163.834 162.356 154.011 163.025C128.275 164.774 132.705 204.341 153.04 205.952C158.48 206.384 162.233 205.51 165.529 204.277C170.98 202.232 175.182 199.209 183.7 199.475C189.446 199.656 192.848 202.616 198.579 204.992C202.552 206.639 207.642 208.002 215.405 207.961C241.781 207.815 237.667 165.079 213.677 165.379Z" fill="white"/>
<path d="M195.25 185.124C195.967 184.954 196.632 184.723 197.255 184.485C198.191 184.124 199.036 183.747 199.783 183.484C200.156 183.351 200.502 183.248 200.815 183.179C201.129 183.109 201.406 183.076 201.654 183.078C201.83 183.078 201.99 183.093 202.146 183.126C202.379 183.176 202.602 183.259 202.859 183.412C203.114 183.57 203.405 183.801 203.73 184.159L203.799 184.096L203.726 184.156L203.73 184.159L203.799 184.096L203.726 184.156C203.732 184.161 203.797 184.248 203.876 184.396C204.015 184.655 204.2 185.087 204.377 185.637C204.645 186.461 204.904 187.548 205.093 188.796C205.281 190.046 205.4 191.46 205.4 192.956C205.4 195.234 205.124 197.702 204.425 200.094C203.904 201.888 203.144 203.637 202.092 205.253C201.304 206.466 200.35 207.603 199.195 208.634C197.464 210.182 195.281 211.502 192.487 212.454C189.694 213.404 186.286 213.981 182.139 214.005C182.053 214.005 181.967 214.005 181.881 214.005C177.173 214.005 173.441 213.271 170.494 212.075C168.281 211.176 166.504 210.021 165.06 208.69C163.976 207.691 163.082 206.593 162.34 205.419C161.229 203.659 160.467 201.727 159.983 199.739C159.5 197.752 159.297 195.711 159.297 193.76C159.295 191.179 159.654 188.756 160.153 186.855C160.401 185.905 160.685 185.086 160.961 184.459C161.098 184.145 161.233 183.88 161.353 183.677C161.471 183.473 161.578 183.331 161.636 183.268C161.734 183.157 161.828 183.074 161.928 183.006C162.076 182.904 162.231 182.832 162.425 182.778C162.618 182.726 162.847 182.695 163.111 182.695C163.612 182.693 164.233 182.81 164.868 183.013C165.82 183.316 166.792 183.808 167.498 184.22C167.853 184.426 168.144 184.612 168.342 184.744C168.44 184.808 168.513 184.86 168.562 184.893C168.586 184.91 168.604 184.923 168.613 184.93L168.623 184.938L169.063 184.335L168.623 184.938L169.063 184.335L168.623 184.938L169.484 183.756L168.621 184.936L168.623 184.938L169.484 183.756L168.621 184.936C169.445 185.539 170.601 185.359 171.204 184.535C171.806 183.712 171.627 182.555 170.802 181.952C170.751 181.915 169.798 181.218 168.397 180.5C167.694 180.142 166.881 179.778 165.992 179.493C165.102 179.21 164.137 179.001 163.111 178.999C162.392 178.999 161.634 179.108 160.894 179.397C160.525 179.543 160.162 179.731 159.82 179.97C159.478 180.206 159.156 180.491 158.868 180.817C158.602 181.12 158.378 181.445 158.167 181.802C157.801 182.427 157.476 183.154 157.175 183.986C156.723 185.23 156.335 186.713 156.054 188.365C155.773 190.02 155.601 191.843 155.601 193.76C155.601 196.373 155.919 199.159 156.742 201.899C157.358 203.953 158.258 205.979 159.524 207.867C160.473 209.281 161.627 210.614 163.008 211.812C165.078 213.609 167.657 215.092 170.786 216.113C173.914 217.135 177.586 217.701 181.881 217.701C181.973 217.701 182.067 217.701 182.16 217.701C187.466 217.671 191.838 216.799 195.412 215.294C198.091 214.166 200.315 212.681 202.12 210.966C203.475 209.677 204.592 208.261 205.501 206.778C206.866 204.55 207.762 202.174 208.319 199.819C208.875 197.464 209.095 195.127 209.095 192.956C209.094 190.338 208.779 187.962 208.324 186.051C208.097 185.095 207.836 184.254 207.546 183.538C207.398 183.179 207.247 182.85 207.075 182.545C206.903 182.24 206.72 181.957 206.468 181.678C205.768 180.902 204.995 180.31 204.165 179.927C203.75 179.735 203.325 179.596 202.902 179.508C202.48 179.419 202.061 179.38 201.654 179.38C200.892 179.382 200.179 179.513 199.515 179.694C198.518 179.97 197.614 180.356 196.764 180.702C195.913 181.05 195.116 181.358 194.393 181.53C193.401 181.767 192.787 182.762 193.024 183.756C193.26 184.749 194.257 185.361 195.25 185.124Z" fill="#B5E6D9"/>
<path d="M161.436 192.263C161.436 192.211 161.434 192.159 161.434 192.105C161.438 192.142 161.438 192.177 161.438 192.216L161.436 192.263Z" fill="url(#paint5_linear_2_9129)"/>
<path d="M166.583 205.582C166.616 205.569 166.652 205.558 166.685 205.545C166.652 205.558 166.616 205.569 166.583 205.582ZM166.711 205.536C166.731 205.528 166.753 205.521 166.775 205.513C166.753 205.521 166.731 205.528 166.711 205.536ZM166.872 205.478C166.875 205.476 166.877 205.476 166.881 205.475C166.877 205.476 166.875 205.476 166.872 205.478ZM183.814 202.145C183.376 202.132 182.949 202.124 182.529 202.124C182.949 202.124 183.376 202.132 183.814 202.145ZM182.526 202.124C182.528 202.124 182.529 202.124 182.529 202.124C182.529 202.124 182.528 202.124 182.526 202.124Z" fill="url(#paint6_linear_2_9129)"/>
<path d="M196.839 206.887C192.365 204.678 189.418 202.321 183.868 202.147C183.849 202.145 183.833 202.145 183.814 202.145C183.376 202.132 182.949 202.125 182.529 202.125C182.529 202.125 182.527 202.125 182.525 202.125C175.626 202.125 171.34 203.87 166.881 205.475C166.877 205.477 166.875 205.477 166.871 205.478C166.84 205.489 166.807 205.501 166.775 205.514C166.753 205.521 166.731 205.528 166.71 205.536C166.701 205.539 166.692 205.543 166.685 205.545C166.651 205.558 166.616 205.569 166.583 205.582C166.211 205.16 165.862 204.724 165.529 204.277C170.752 202.317 174.831 199.459 182.659 199.459C182.999 199.459 183.344 199.464 183.699 199.475C189.446 199.656 192.848 202.616 198.579 204.992C198.039 205.66 197.457 206.294 196.839 206.887ZM184.833 173.732C184.463 173.732 184.086 173.723 183.699 173.708C180.54 173.58 177.938 172.939 175.67 172.027C177.763 171.323 180.002 170.942 182.331 170.942C185.498 170.942 188.503 171.646 191.191 172.911C189.298 173.418 187.22 173.732 184.833 173.732Z" fill="#87CAB8"/>
<path d="M198.579 204.992C192.848 202.616 189.446 199.656 183.7 199.475C183.345 199.464 182.999 199.459 182.659 199.459C174.831 199.459 170.752 202.317 165.529 204.277C163.031 200.906 161.523 196.759 161.436 192.263L161.438 192.217C161.438 192.178 161.438 192.143 161.434 192.106V192.073C161.432 191.997 161.432 191.919 161.432 191.843C161.432 188.571 162.183 185.476 163.523 182.717C163.936 182.76 164.398 182.863 164.867 183.013C165.82 183.316 166.792 183.808 167.498 184.22C167.853 184.426 168.144 184.612 168.341 184.744C168.439 184.808 168.513 184.86 168.561 184.893C168.585 184.91 168.604 184.923 168.613 184.93L168.622 184.938H168.624C168.951 185.176 169.332 185.293 169.709 185.293C170.281 185.293 170.841 185.03 171.203 184.535C171.806 183.712 171.627 182.555 170.802 181.952C170.75 181.915 169.798 181.218 168.397 180.501C167.694 180.142 166.881 179.778 165.991 179.493C165.851 179.449 165.709 179.406 165.564 179.365C168.081 175.988 171.595 173.397 175.67 172.027C177.939 172.939 180.54 173.58 183.7 173.708C184.086 173.723 184.463 173.732 184.833 173.732C187.22 173.732 189.298 173.418 191.191 172.911C194.473 174.448 197.287 176.812 199.369 179.735C198.429 180.007 197.573 180.373 196.764 180.702C195.913 181.05 195.116 181.358 194.393 181.53C193.4 181.767 192.787 182.762 193.023 183.756C193.227 184.605 193.985 185.176 194.82 185.176C194.961 185.176 195.105 185.16 195.249 185.125C195.967 184.954 196.632 184.723 197.255 184.485C198.191 184.124 199.036 183.747 199.783 183.485C200.156 183.352 200.502 183.248 200.814 183.18C200.994 183.139 201.162 183.111 201.319 183.095C202.547 185.757 203.233 188.721 203.233 191.843C203.233 196.826 201.489 201.402 198.579 204.992Z" fill="#E2E2E4"/>
<path d="M169.71 185.292C169.332 185.292 168.952 185.176 168.624 184.937H168.623L168.613 184.93C168.604 184.923 168.586 184.91 168.561 184.893C168.513 184.86 168.439 184.808 168.341 184.743C168.144 184.612 167.853 184.425 167.498 184.22C166.792 183.808 165.82 183.316 164.868 183.013C164.398 182.863 163.936 182.76 163.523 182.717C164.1 181.534 164.784 180.412 165.565 179.365C165.709 179.406 165.851 179.448 165.992 179.493C166.881 179.777 167.694 180.142 168.397 180.5C169.798 181.218 170.751 181.915 170.802 181.952C171.627 182.554 171.806 183.712 171.203 184.534C170.841 185.03 170.281 185.292 169.71 185.292ZM194.821 185.176C193.985 185.176 193.227 184.605 193.023 183.756C192.787 182.761 193.401 181.767 194.393 181.53C195.116 181.358 195.913 181.049 196.764 180.702C197.573 180.373 198.429 180.007 199.369 179.735C200.117 180.787 200.772 181.911 201.319 183.094C201.162 183.111 200.994 183.139 200.814 183.179C200.502 183.248 200.156 183.351 199.783 183.484C199.036 183.747 198.191 184.124 197.255 184.485C196.632 184.723 195.967 184.954 195.249 185.124C195.105 185.159 194.961 185.176 194.821 185.176Z" fill="#A2DACB"/>
<path d="M201.164 191.227C201.164 201.758 192.626 210.296 182.095 210.296C171.564 210.296 163.028 201.758 163.028 191.227C163.028 180.698 171.564 172.16 182.095 172.16C192.626 172.16 201.164 180.698 201.164 191.227Z" fill="white"/>
<path d="M290.507 118.967C290.507 118.967 288.096 123.381 287.214 123.131C286.333 122.883 284.373 121.696 283.073 120.071C282.672 119.57 282.064 119.28 281.368 119.106C280.307 118.842 279.048 118.849 278.018 118.784C276.802 118.707 275.907 118.531 276.038 117.699C276.221 116.527 278.225 115.597 273.539 112.498C272.646 111.908 274.583 110.514 276.465 110.143C276.617 110.113 276.769 110.091 276.918 110.074C277.95 109.967 279.076 110.465 280.072 111.154C281.245 111.966 282.239 113.042 282.694 113.707C283.635 115.094 284.892 115.384 286.686 116.338C288.542 117.326 289.237 118.036 290.507 118.967Z" fill="#E9BBA7"/>
<path d="M332.263 115.275L337.934 113.691C337.985 111.104 335.219 105.67 334.809 103.354C334.36 100.812 331.224 98.4711 331.224 98.4711L329.318 103.803L329.44 104.252C329.44 104.252 329.874 108.712 329.089 110.744C328.639 111.907 328.909 113.626 327.671 115.406C326.743 116.738 332.263 115.275 332.263 115.275Z" fill="#E9BBA7"/>
<path d="M329.351 109.766C329.351 109.764 329.351 109.76 329.353 109.758C329.353 109.76 329.351 109.764 329.351 109.766ZM329.551 107.597C329.573 106.336 329.481 105.206 329.481 105.206L329.508 105.193C329.543 105.82 329.575 106.693 329.551 107.597Z" fill="#CFBA9F"/>
<path d="M330.945 110.143C330.46 110.143 329.928 110.03 329.351 109.766C329.351 109.764 329.353 109.76 329.353 109.758C329.486 109.13 329.538 108.342 329.551 107.597C329.575 106.693 329.543 105.82 329.508 105.193L331.27 104.312C331.27 104.312 333.297 105.761 333.853 106.382C334.596 107.212 333.411 110.143 330.945 110.143Z" fill="#D9B09D"/>
<path d="M326.086 96.5816C324.921 101.422 322.947 101.901 324.587 102.331C325.853 102.664 323.455 106.419 324.816 106.717C328.112 107.44 331.886 105.866 332.616 104.275C333.347 102.681 333.955 97.9682 333.955 97.9682L326.086 96.5816Z" fill="#E9BBA7"/>
<path d="M329.634 99.2531C328.563 99.1884 328.486 99.4417 327.818 98.9369C327.153 98.4322 328.61 97.6095 327.286 97.1232C325.96 96.637 324.478 96.2746 324.627 94.6144C324.847 92.2146 326.787 92.9504 327.976 93.4496C328.741 93.7731 329.264 92.0001 330.845 92.3699C332.084 92.6601 331.801 93.3941 332.895 93.7047C333.555 93.8915 335.077 92.9763 335.975 94.0135C337.639 95.9381 335.667 97.5688 336.985 99.5378C338.521 101.836 333.396 105.199 332.98 104.604C332.494 103.907 333.731 102.045 333.219 101.461C332.444 100.579 332.187 101.363 331.296 101.967C330.344 102.614 328.843 102.389 330.078 101.03C331.313 99.6691 330.601 99.3104 329.634 99.2531Z" fill="#1F1F3B"/>
<path d="M317.128 257.562C316.875 255.044 317.064 248.665 317.064 248.665L324.019 248.423L323.646 258L319.047 261.047L317.128 257.562Z" fill="white"/>
<path d="M316.567 255.493C315.979 255.046 314.673 256.619 314.403 257.677C313.788 260.097 306.026 260.404 304.643 260.622C303.93 260.735 302.782 264.292 306.331 264.277C309.402 264.264 319.238 264.257 322.599 264.222C323.302 264.214 323.916 263.756 324.084 263.101C324.688 260.764 324.762 255.282 323.825 255.205C322.562 255.488 318.802 257.203 316.567 255.493Z" fill="#1F1F3B"/>
<path d="M343.855 257.604C343.586 255.088 343.737 248.71 343.737 248.71L350.692 248.429L350.374 258.007L345.795 261.078L343.855 257.604Z" fill="white"/>
<path d="M343.088 254.744C342.341 254.794 342.476 255.493 342.215 256.553C341.622 258.978 332.788 260.55 331.409 260.781C330.695 260.899 329.579 264.466 333.13 264.421C336.199 264.381 346.037 264.29 349.396 264.227C350.099 264.214 350.707 263.75 350.872 263.094C351.454 260.751 351.672 254.321 350.733 254.253C349.472 254.547 346.496 254.526 343.088 254.744Z" fill="#1F1F3B"/>
<path d="M353.809 174.366C353.721 175.505 353.602 176.743 353.443 178.1C352.844 183.186 351.58 200.342 351.888 211.241C352.197 222.084 351.238 247.454 351.238 251.338C347.943 252.782 345.904 252.333 341.198 251.338C341.198 251.338 340.363 230.408 339.435 212.082C338.682 197.202 338.464 198.694 335.731 179.748L335.73 179.751C335.698 179.84 335.032 181.685 334.062 184.525C331.987 190.585 328.521 201.177 326.859 208.846C324.267 220.81 325.62 251.993 324.535 253.069C321.303 254.971 315.836 255.156 314.375 252.512C314.375 252.512 313.756 213.949 314.906 207.909C315.684 203.803 322.263 163.557 323.731 152.745C323.731 152.745 352.7 146.43 353.587 156.325C353.709 157.678 353.745 158.872 353.728 160.013C353.706 161.549 353.791 162.973 353.874 164.535C354.009 167.087 354.144 169.999 353.809 174.366Z" fill="#3B3B4D"/>
<path d="M338.278 174.325C338.226 174.291 338.203 174.274 338.198 174.269L338.284 174.308L338.278 174.325Z" fill="#2E2E45"/>
<path d="M334.739 182.566C335.33 180.861 335.707 179.818 335.73 179.752L335.731 179.748L335.73 179.752C335.711 179.802 335.284 181.009 334.739 182.566Z" fill="#7E7477"/>
<path d="M333.456 186.263L334.593 174.813C334.593 174.817 334.556 175.51 335.732 179.748L335.73 179.752C335.708 179.818 335.33 180.861 334.739 182.566C334.334 183.715 333.868 185.056 333.456 186.263Z" fill="#2C2C43"/>
<path d="M353.978 171.393C354.009 170.507 354.02 169.688 354.018 168.923C354.018 168.921 354.02 168.919 354.02 168.917C354.031 169.91 354.018 170.779 353.978 171.393Z" fill="#B8A49B"/>
<path d="M353.978 171.395C353.93 171.384 353.455 171.282 352.711 171.082C352.789 171.053 352.85 171.007 352.891 170.944C352.994 170.785 353.405 170.054 354.018 168.923C354.02 169.688 354.009 170.507 353.978 171.393C353.978 171.393 353.978 171.393 353.978 171.395ZM347.285 169.139C344.504 167.841 341.759 165.946 341.062 163.371C341.271 163.962 341.598 164.513 342.095 165.038C343.497 166.514 345.185 167.386 346.96 167.743C346.671 168.366 346.503 168.72 346.503 168.72C346.503 168.72 346.808 168.89 347.285 169.139Z" fill="#313147"/>
<path d="M336.58 108.61C334.071 107.93 333.825 112.077 331.296 112.277C329.959 112.382 330.255 111.801 329.625 111.186C329.237 110.807 328.872 110.381 328.259 111.01C315.771 123.823 328.774 156.127 327.184 158.383C325.885 160.226 336.451 164.249 343.088 162.631C352.19 160.411 351.637 150.527 351.373 148.639C351.11 146.75 345.246 114.663 345.246 114.663C345.246 114.663 340.637 112.225 336.58 108.61Z" fill="white"/>
<path d="M284.872 113.861C285.846 112.338 305.618 131.408 308.45 129.495C313.435 126.126 318.151 114 328.259 111.01C328.259 111.01 328.569 113.157 327.844 118.747C326.89 126.137 331.05 131.395 330.205 140.336C329.115 151.903 331.962 163.715 329.115 166.322C327.456 167.841 325.156 168.134 322.377 165.249C318.009 160.712 320.882 145.822 321.279 142.287C321.435 140.909 321.777 139.055 322.069 137.132C322.429 134.742 323.123 131.898 321.919 131.026C321.573 130.774 314.498 139.334 308.853 139.231C304.651 139.153 285.43 123.8 284.826 123.127C283.106 121.212 284.872 113.861 284.872 113.861Z" fill="#2602B6"/>
<path d="M346.88 168.598C346.638 169.051 345.889 169.051 346.264 169.356C346.638 169.661 351.203 171.672 351.203 171.672C351.203 171.672 351.643 172.151 352.177 171.363C352.713 170.576 352.713 169.785 352.713 169.785L346.88 168.598Z" fill="#E7B29A"/>
<path d="M354.871 166.162C350.892 168.651 345.599 168.727 342.095 165.038C339.193 161.98 342.13 158.022 339.982 150.887C338.79 146.929 336.939 139.833 336.545 134.906C335.704 124.423 336.347 111.572 336.58 108.61C336.58 108.61 342.903 108.765 348.097 114.177C350.278 116.451 351.652 123.025 351.885 127.832C351.959 129.409 352.001 130.676 352.024 131.748C352.068 133.935 352.016 135.302 351.946 136.797C351.916 137.393 351.887 138.01 351.857 138.707V138.709C351.826 139.495 351.794 140.384 351.774 141.462C351.741 143.224 352.338 146.117 353.076 149.32H353.077C354.697 156.334 357.002 164.829 354.871 166.162Z" fill="#2602B6"/>
<path d="M340.666 121.131C354.618 144.008 355.383 140.976 355.73 144.718C356.08 148.46 346.503 168.72 346.503 168.72C346.503 168.72 352.253 171.927 352.891 170.944C353.529 169.96 365.84 147.301 365.352 142.427C364.812 137.06 349.809 116.218 348.043 114.172C346.277 112.125 338.651 111.245 338.732 114.907C338.814 118.572 340.666 121.131 340.666 121.131Z" fill="#2602B6"/>
<path d="M353.076 149.32C347.834 144.633 347.466 132.772 347.466 132.772L351.857 138.707V138.709C351.826 139.495 351.794 140.384 351.774 141.462C351.774 141.51 351.772 141.56 351.772 141.61C351.774 143.383 352.358 146.204 353.076 149.32Z" fill="#3311BA"/>
<path d="M353.383 150.626C353.383 150.624 353.381 150.621 353.381 150.617L353.383 150.626Z" fill="#CEBEA8"/>
<path d="M347.25 167.116L353.381 150.617C353.381 150.621 353.382 150.625 353.382 150.627L353.712 152.034C351.672 157.423 348.642 164.107 347.25 167.116Z" fill="#3311BA"/>
<path d="M347.057 167.636L347.25 167.117C348.642 164.107 351.672 157.423 353.711 152.034L353.917 152.91C353.556 154.57 347.057 167.636 347.057 167.636Z" fill="#3311BA"/>
<path d="M84.5227 109.15C84.5926 106.1 87.6199 103.128 89.7083 102.694C92.0586 102.204 94.9056 104.084 92.7051 105.012C90.5048 105.941 89.5885 108.714 89.0984 108.779C88.6038 108.845 84.5227 109.15 84.5227 109.15Z" fill="#E9BBA7"/>
<path d="M50.7266 191.73C52.2001 198.994 52.7755 205.271 51.4962 210.995C50.2172 216.719 41.6011 251.437 42.2097 252.448C42.8182 253.461 45.1945 257.752 45.692 258.834C46.1895 259.916 34.2863 255.536 34.334 253.348C34.3817 251.159 35.0495 252.293 36.3565 249.052C37.6631 245.811 39.2235 234.141 39.4309 231.699C39.6382 229.258 39.2305 205.024 40.0532 202.341C40.8761 199.656 50.7266 191.73 50.7266 191.73Z" fill="#EFBAA1"/>
<path d="M35.4517 248.998C35.7337 248.811 36.1031 248.833 36.3564 249.051C37.5659 250.09 38.0902 251.307 38.2091 251.797C38.4365 252.729 38.4415 254.287 40.5985 255.97C42.7558 257.654 45.1304 257.602 45.8426 258.395C46.5548 259.187 50.5993 262.198 49.1853 263.55C47.6951 264.691 42.7125 263.247 41.1129 261.72C39.5131 260.192 35.4638 256.197 35.3571 256.45C34.854 257.02 34.5728 256.798 34.5728 256.798C33.3237 255.587 31.4843 254.15 31.3675 253.622C31.2506 253.093 32.1175 251.451 32.9982 250.734C33.616 250.231 34.8006 249.43 35.4517 248.998Z" fill="#1F1E39"/>
<path d="M54.2415 195.456C54.294 196.526 55.1467 202.128 56.2303 208.86C56.5557 210.884 56.9018 213.014 57.2542 215.149C58.8728 224.978 60.6054 235.013 60.9456 236.261C61.608 238.685 64.2115 250.468 64.0736 254.051C63.9357 257.634 62.8746 256.782 63.6046 258.904C64.3345 261.026 79.6778 258.797 78.8024 257.932C77.9286 257.07 72.0142 255.998 71.0535 255.241C70.4016 254.726 68.7545 231.312 67.5224 214.473C67.3577 212.213 67.2002 210.071 67.0517 208.12C66.6831 203.2 66.3834 199.486 66.2049 198.116C65.436 192.155 62.8506 193.769 57.9 193.79C57.9 193.79 54.1006 192.581 54.2415 195.456Z" fill="#EFBAA1"/>
<path d="M62.9872 256.613C63.0815 256.275 63.3875 256.038 63.7363 256.033C65.4023 256.005 66.6479 256.582 67.0765 256.876C67.8944 257.438 68.9636 258.632 71.8169 258.449C74.67 258.266 76.6113 257.159 77.7154 257.279C78.8193 257.401 83.5709 258.288 83.3806 260.296C82.9848 262.193 78.6295 263.293 76.3228 263.214C74.0162 263.136 67.923 262.141 68.0125 262.409C68.0051 263.192 67.6315 263.214 67.6315 263.214C65.8181 263.138 63.3836 263.293 62.9297 262.966C62.4756 262.639 62.0361 260.783 62.2397 259.629C62.3826 258.817 62.7694 257.392 62.9872 256.613Z" fill="#1F1E39"/>
<path d="M50.5719 214.937C50.7019 214.391 50.8222 213.885 50.932 213.421C50.9326 213.421 50.9337 213.421 50.9343 213.421C50.837 213.829 50.7192 214.321 50.5719 214.937Z" fill="#EDD7BA"/>
<path d="M50.5036 215.222C47.9975 214.832 42.9017 215.035 39.5338 213.696C39.5387 213.062 39.5455 212.435 39.5544 211.822C42.9169 212.655 47.5426 213.395 50.9321 213.421C50.8223 213.885 50.7019 214.392 50.572 214.937C50.5498 215.029 50.527 215.124 50.5036 215.222Z" fill="#EFBAA1"/>
<path d="M57.1719 214.65C57.0219 213.741 56.8873 212.92 56.7572 212.121H56.7577C56.894 212.957 57.0323 213.802 57.1719 214.65Z" fill="#EDD7BA"/>
<path d="M57.1744 214.665C57.1735 214.659 57.1726 214.656 57.1718 214.65C57.0322 213.802 56.8939 212.957 56.7577 212.121C58.505 211.391 60.4517 210.614 62.9831 210.614C64.2547 210.614 65.6746 210.81 67.2901 211.306C67.3658 212.33 67.4432 213.387 67.5223 214.473C65.8057 214.21 63.7601 213.916 61.7577 213.916C60.1357 213.916 58.542 214.109 57.1744 214.665Z" fill="#EFBAA1"/>
<path d="M19.0228 207.608C20.848 209.849 24.9432 209.814 28.7769 209.777C31.5454 209.749 34.1772 209.723 35.7195 210.555C36.3071 210.871 37.3324 211.228 38.6152 211.577C43.1223 212.809 50.823 213.97 53.993 213.143C58.0651 212.082 62.061 207.954 71.8303 213.269C74.2657 204.319 68.1626 164.95 63.7518 154.626V154.624C63.5164 154.073 63.2855 153.605 63.0621 153.23C63.0621 153.23 52.1914 146.822 42.7251 151.671C41.1436 152.481 39.6015 153.605 38.155 155.125C38.1326 155.162 38.1086 155.199 38.0877 155.236C28.3783 170.768 36.0854 187.051 19.0228 207.608Z" fill="#4725D1"/>
<path d="M75.7003 151.359C76.0166 151.612 77.462 145.348 76.8939 144.727C76.3065 144.086 68.5077 142.435 67.6441 142.142C64.9321 141.222 56.068 139.044 52.1546 136.722C49.3066 135.03 47.2651 134.449 38.9003 129.411C42.9261 133.608 42.054 141.081 41.7009 144.71C41.3015 148.819 40.0417 152.503 38.1548 155.125C38.1322 155.16 38.1082 155.199 38.0873 155.234C37.4608 156.432 41.2377 156.944 46.0639 157.014C53.1803 157.116 62.5807 156.26 63.519 155.216C63.6373 155.084 63.7124 154.883 63.7512 154.624C64.2249 151.403 58.9237 139.112 59.0106 136.98C59.1051 134.681 63.3423 133.617 63.6958 131.846C64.0511 130.075 60.1122 126.196 61.0399 126.712C63.9417 128.324 74.5806 132.54 77.5168 131.856C81.4206 130.944 88.9681 110.904 89.6189 109.732C90.2695 108.562 84.3303 105.572 84.1533 107C83.9751 108.429 77.2564 123.397 74.3937 124.567C71.8035 125.627 57.6767 116.266 53.0468 113.903C53.0468 113.903 48.6479 113.256 46.5226 113.434C44.3987 113.611 38.7309 117.917 37.2426 119.829C35.586 121.959 37.4084 130.339 39.4971 137.202C40.7208 141.224 74.8145 150.649 75.7003 151.359Z" fill="white"/>
<path d="M51.412 109.215C50.6077 112.911 50.8044 114.826 51.412 115.867C52.0126 116.895 52.6869 119.41 51.4994 119.365C50.9122 119.343 47.4495 117.803 46.1875 116.895C44.9253 115.987 44.1721 114.225 44.1721 114.225C44.1721 114.225 46.8816 109.529 48.7445 105.602C50.6077 101.677 51.412 109.215 51.412 109.215Z" fill="#EFBAA1"/>
<path d="M50.9123 112.7C50.9073 112.696 50.9022 112.694 50.8972 112.69C50.9469 111.755 51.1079 110.612 51.4119 109.215C51.3714 109.444 51.1163 110.847 51.0861 111.06C50.9948 111.666 50.9378 112.212 50.9123 112.7Z" fill="#BFA497"/>
<path d="M50.8973 112.69C49.7327 112.067 48.6957 110.699 48.5473 110.341C48.2178 109.544 48.8163 108.266 49.2755 108.266C49.3513 108.266 49.4234 108.301 49.4868 108.379C49.7562 108.708 50.3491 108.641 50.6368 108.695C50.8467 108.734 51.2068 109.019 51.4121 109.215C51.1081 110.612 50.9471 111.755 50.8973 112.69Z" fill="#BA9686"/>
<path d="M73.4767 149.094C75.683 151.206 79.9235 151.167 81.7091 150C83.7186 148.686 84.3719 145.269 82.1911 146.242C78.7838 147.761 80.3827 145.308 79.5794 145.225C78.2406 145.086 75.9492 147.064 75.2529 146.667C74.8197 146.419 73.4767 149.094 73.4767 149.094Z" fill="#E9BBA7"/>
<path d="M38.0874 155.236C37.5853 156.193 39.9054 156.713 43.3257 156.918C44.1786 156.968 45.1003 157.001 46.0641 157.016C53.1802 157.118 62.5808 156.26 63.5191 155.217C63.6374 155.084 63.7125 154.885 63.7515 154.626V154.624C63.9656 153.158 62.9887 149.821 61.8644 146.413C68.4906 148.643 75.2128 150.969 75.6998 151.357C76.0162 151.61 77.4625 145.348 76.8943 144.727C76.307 144.087 68.5071 142.434 67.6437 142.142C66.1824 141.647 62.9362 140.787 59.6403 139.733C59.2431 138.448 58.9911 137.459 59.0107 136.98C59.1052 134.68 63.3422 133.617 63.6959 131.848C64.0512 130.077 60.1123 126.198 61.04 126.712C63.9418 128.324 57.6768 116.268 53.0469 113.903C53.0469 113.903 48.648 113.256 46.5226 113.435C44.399 113.611 38.8384 118.004 37.2421 119.829C36.5346 120.638 37.3006 124.92 39.132 129.55C39.0557 129.504 38.9778 129.457 38.8998 129.411C39.0091 129.524 39.1141 129.64 39.2145 129.759C39.8634 131.375 40.6397 133.026 41.5272 134.581C42.3889 138.271 41.9334 142.323 41.701 144.712C41.3009 148.818 40.0418 152.505 38.1547 155.125C38.1323 155.162 38.1083 155.199 38.0874 155.236Z" fill="white"/>
<path d="M56.2831 138.641C53.2388 137.286 47.3062 134.261 46.8496 133.507C46.3931 132.753 45.5909 131.604 46.5595 127.502C46.9571 132.475 48.0726 133.498 56.2831 138.641Z" fill="#C1C1C8"/>
<path d="M42.0123 140.595C42.0192 140.238 42.0195 139.827 42.0306 139.356C42.0327 139.778 42.0256 140.19 42.0123 140.595Z" fill="#BFA497"/>
<path d="M60.3209 146.497C59.9478 146.495 55.5977 145.18 51.2272 143.866C46.8564 142.551 42.4652 141.237 42.0107 141.237C42.0002 141.237 41.9919 141.238 41.9856 141.238C42.0006 141.046 42.0078 140.832 42.0122 140.595C42.0255 140.19 42.0326 139.778 42.0305 139.356C42.0307 139.347 42.0309 139.34 42.0313 139.33C42.0496 139.674 60.4427 146.449 60.342 146.493C60.3377 146.495 60.3309 146.497 60.3209 146.497Z" fill="#C1C1C8"/>
<path d="M60.9079 126.712C60.905 126.708 60.9024 126.703 60.8995 126.699C60.899 126.695 60.8988 126.693 60.8986 126.691C60.9018 126.697 60.9046 126.705 60.9079 126.712Z" fill="#BFA497"/>
<path d="M60.8996 126.699C59.3529 124.153 59.5812 124.101 55.9911 120.84C56.7869 120.89 59.0578 122.232 59.0578 122.232C59.0578 122.232 59.6681 123.768 60.8987 126.691C60.8989 126.693 60.8991 126.695 60.8996 126.699Z" fill="#C1C1C8"/>
<path d="M38.6152 211.577C37.3324 211.228 36.3071 210.871 35.7195 210.555C34.4486 209.869 32.4378 209.767 30.2201 209.767C29.7468 209.767 29.2639 209.771 28.7769 209.777C28.2898 209.78 27.7983 209.786 27.3079 209.786C23.9391 209.786 20.616 209.564 19.0228 207.608C36.0832 187.053 28.3802 170.772 38.084 155.241C38.0252 155.356 38.0073 155.465 38.0272 155.569C38.0272 155.569 38.0274 155.569 38.0276 155.571C38.0278 155.571 38.028 155.572 38.0282 155.572C38.1807 156.317 40.3318 156.739 43.326 156.918C45.0121 173.46 45.3808 196.52 38.6152 211.577Z" fill="#613AFA"/>
<path d="M38.028 155.573C38.0278 155.573 38.0276 155.571 38.0274 155.571C38.0276 155.571 38.0278 155.573 38.028 155.573ZM38.0271 155.569C38.0071 155.466 38.025 155.356 38.0838 155.242C38.0851 155.24 38.0864 155.238 38.0875 155.236C38.026 155.353 38.0067 155.464 38.0271 155.569Z" fill="#DBDBDF"/>
<path d="M43.3258 156.918C40.3316 156.739 38.1805 156.317 38.028 155.572C38.0278 155.572 38.0276 155.57 38.0274 155.57C38.0272 155.569 38.027 155.569 38.027 155.569C38.0067 155.463 38.0259 155.352 38.0875 155.236C38.1084 155.199 38.1324 155.162 38.1548 155.125C40.0419 152.505 41.301 148.818 41.701 144.712C42.0412 146.735 42.3936 149.079 42.7249 151.671C42.9361 153.326 43.1383 155.082 43.3258 156.918Z" fill="#DBDBDF"/>
<path d="M53.3567 99.9371C54.673 102.982 56.4873 104.23 55.376 104.642C54.5357 104.953 57.122 111.256 53.7911 110.742C50.4814 110.231 47.6197 108.836 47.0436 105.4C46.4673 101.965 46.0405 99.963 46.0405 99.963L53.3567 99.9371Z" fill="#EFBAA1"/>
<path d="M53.9467 100.514C52.9818 102.18 51.4175 102.973 50.826 103.62C50.4908 103.988 49.5538 103.888 49.2996 103.461C49.0156 102.982 48.2523 102.901 47.5234 103.337C46.648 103.862 47.5358 104.892 47.9792 105.593C48.3096 106.114 48.1985 106.944 47.8586 107.46C46.5632 109.429 49.2601 114.402 36.8791 116.826C33.7661 117.416 30.5237 117.449 27.5693 117.133C21.6107 116.493 16.8227 114.438 16.626 112.683C16.4827 111.402 19.1968 109.448 21.1585 108.824C23.1199 108.2 23.8149 109.49 25.323 108.954C27.0489 108.34 24.8118 104.26 29.8794 104.029C34.9469 103.797 35.2655 104.955 36.8704 104.193C38.4754 103.431 40.8079 94.5681 46.847 94.9304C51.0299 95.1819 52.8401 97.1028 53.5579 98.2583C53.8594 98.7464 54.2334 100.018 53.9467 100.514Z" fill="#1F1F39"/>
<path d="M50.4425 265.408C28.9305 265.408 10.2602 264.158 10.2602 263.081C10.2602 262.167 23.7076 261.672 40.9273 261.542C40.9922 261.605 41.0541 261.664 41.1127 261.72C42.3108 262.864 45.4065 263.961 47.5114 263.961C48.2167 263.961 48.8111 263.837 49.1851 263.55C49.7213 263.038 49.4726 262.287 48.9185 261.509C49.4245 261.509 49.9332 261.509 50.4425 261.509C54.5904 261.509 58.5874 261.54 62.3365 261.601C62.4777 262.252 62.7018 262.801 62.9296 262.966C63.3835 263.293 65.818 263.138 67.6313 263.214C67.6313 263.214 68.005 263.191 68.0124 262.409C68.0019 262.378 68.0778 262.363 68.2241 262.363C69.3127 262.363 74.2894 263.145 76.3227 263.214C76.4004 263.215 76.4799 263.217 76.5618 263.217C77.8765 263.217 79.7285 262.879 81.175 262.26C86.3261 262.591 89.3938 263.007 89.3938 263.458C89.3938 264.536 71.9549 265.408 50.4425 265.408Z" fill="#DFCEB7"/>
<path d="M47.5116 263.961C45.4067 263.961 42.311 262.864 41.113 261.72C41.0544 261.664 40.9924 261.605 40.9275 261.542C43.517 261.524 46.1917 261.513 48.9188 261.509C49.4729 262.287 49.7215 263.038 49.1854 263.55C48.8113 263.837 48.2169 263.961 47.5116 263.961Z" fill="#21203A"/>
<path d="M76.5622 263.217C76.4803 263.217 76.4008 263.215 76.3231 263.214C74.2898 263.145 69.3131 262.363 68.2245 262.363C68.0782 262.363 68.0022 262.378 68.0128 262.409C68.0054 263.191 67.6317 263.214 67.6317 263.214C65.8184 263.138 63.3839 263.293 62.93 262.966C62.7022 262.801 62.4781 262.252 62.3369 261.601C69.8755 261.722 76.4148 261.955 81.1754 262.26C79.7289 262.879 77.8769 263.217 76.5622 263.217Z" fill="#21203A"/>
<path d="M331.274 266.512C309.763 266.512 291.093 265.262 291.093 264.184C291.093 263.626 296.126 263.223 303.978 262.966C304.202 263.678 304.862 264.277 306.309 264.277C306.317 264.277 306.324 264.277 306.331 264.277C309.402 264.264 319.238 264.256 322.599 264.221C323.302 264.214 323.916 263.755 324.084 263.101C324.123 262.957 324.158 262.798 324.191 262.631C326.306 262.62 328.471 262.613 330.668 262.613C330.723 263.519 331.307 264.421 333.064 264.421C333.086 264.421 333.108 264.421 333.13 264.421C336.199 264.38 346.037 264.29 349.396 264.227C350.099 264.214 350.707 263.75 350.872 263.093C350.888 263.025 350.905 262.953 350.922 262.879C362.469 263.217 370.225 263.844 370.225 264.563C370.225 265.639 352.787 266.512 331.274 266.512Z" fill="#DFCEB7"/>
<path d="M306.309 264.277C304.861 264.277 304.201 263.678 303.978 262.966C309.557 262.783 316.561 262.672 324.191 262.631C324.158 262.798 324.123 262.957 324.084 263.101C323.916 263.755 323.302 264.214 322.599 264.221C319.238 264.257 309.402 264.264 306.331 264.277C306.324 264.277 306.316 264.277 306.309 264.277Z" fill="#21213B"/>
<path d="M333.064 264.421C331.307 264.421 330.723 263.519 330.667 262.613C330.869 262.613 331.07 262.613 331.274 262.613C338.44 262.613 345.153 262.709 350.921 262.879C350.905 262.953 350.888 263.025 350.872 263.093C350.707 263.75 350.099 264.214 349.396 264.227C346.037 264.29 336.199 264.38 333.13 264.421C333.108 264.421 333.086 264.421 333.064 264.421Z" fill="#21213B"/>
<defs>
<linearGradient id="paint0_linear_2_9129" x1="178.939" y1="282.579" x2="189.575" y2="37.4836" gradientUnits="userSpaceOnUse">
<stop stop-color="#DD9270"/>
<stop offset="0.270833" stop-color="#DB916F"/>
<stop offset="0.2985" stop-color="#EAAD92"/>
<stop offset="0.2986" stop-color="#DB6A7C"/>
<stop offset="0.2995" stop-color="#DE9472"/>
<stop offset="0.671845" stop-color="#CE977D"/>
<stop offset="0.907751" stop-color="#E2A082"/>
<stop offset="1" stop-color="#DEA082"/>
</linearGradient>
<linearGradient id="paint1_linear_2_9129" x1="178.939" y1="282.579" x2="189.575" y2="37.4838" gradientUnits="userSpaceOnUse">
<stop stop-color="#F5DEBF"/>
<stop offset="0.270833" stop-color="#F3D7B0"/>
<stop offset="0.2985" stop-color="#F3D0A1"/>
<stop offset="0.2986" stop-color="#F6BCC1"/>
<stop offset="0.2995" stop-color="#F4D9B4"/>
<stop offset="0.671845" stop-color="#F8ECDC"/>
<stop offset="0.907751" stop-color="#F4E4CF"/>
<stop offset="1" stop-color="#EFE4D4"/>
</linearGradient>
<linearGradient id="paint2_linear_2_9129" x1="178.939" y1="282.579" x2="189.575" y2="37.4836" gradientUnits="userSpaceOnUse">
<stop stop-color="#D9906F"/>
<stop offset="0.276042" stop-color="#E08D68"/>
<stop offset="0.2983" stop-color="#E08D68"/>
<stop offset="0.2984" stop-color="#E08B69"/>
<stop offset="0.2985" stop-color="#DF856C"/>
<stop offset="0.2986" stop-color="#DB6A7C"/>
<stop offset="0.2995" stop-color="#E69E78"/>
<stop offset="0.395833" stop-color="#E59D77"/>
<stop offset="0.671845" stop-color="#E49977"/>
<stop offset="0.907751" stop-color="#E19F81"/>
<stop offset="1" stop-color="#DEA185"/>
</linearGradient>
<linearGradient id="paint3_linear_2_9129" x1="178.939" y1="282.579" x2="189.575" y2="37.4837" gradientUnits="userSpaceOnUse">
<stop stop-color="#E0926E"/>
<stop offset="0.276042" stop-color="#E29877"/>
<stop offset="0.2984" stop-color="#E69E7E"/>
<stop offset="0.2985" stop-color="#DA6979"/>
<stop offset="0.2986" stop-color="#DA677A"/>
<stop offset="0.2995" stop-color="#DC8E6B"/>
<stop offset="0.671845" stop-color="#DE916E"/>
<stop offset="0.907751" stop-color="#EA9D7B"/>
<stop offset="1" stop-color="#EA926A"/>
</linearGradient>
<linearGradient id="paint4_linear_2_9129" x1="178.939" y1="282.578" x2="189.575" y2="37.4836" gradientUnits="userSpaceOnUse">
<stop stop-color="#E09472"/>
<stop offset="0.2985" stop-color="#E4936D"/>
<stop offset="0.2986" stop-color="#DB6A7C"/>
<stop offset="0.2995" stop-color="#DF9270"/>
<stop offset="0.671845" stop-color="#DF9C7E"/>
<stop offset="0.907751" stop-color="#E9A181"/>
<stop offset="1" stop-color="#E4A080"/>
</linearGradient>
<linearGradient id="paint5_linear_2_9129" x1="179.039" y1="283.008" x2="189.716" y2="36.7475" gradientUnits="userSpaceOnUse">
<stop stop-color="#D47F89"/>
<stop offset="0.2986" stop-color="#D47F89"/>
<stop offset="0.2995" stop-color="#D47F89"/>
<stop offset="0.671845" stop-color="#D9A3A3"/>
<stop offset="0.907751" stop-color="#DBB1AC"/>
<stop offset="1" stop-color="#DBB1AC"/>
</linearGradient>
<linearGradient id="paint6_linear_2_9129" x1="178.939" y1="282.579" x2="189.575" y2="37.4835" gradientUnits="userSpaceOnUse">
<stop stop-color="#C36273"/>
<stop offset="0.2986" stop-color="#C36273"/>
<stop offset="0.2995" stop-color="#C36273"/>
<stop offset="0.671845" stop-color="#C56E7B"/>
<stop offset="0.907751" stop-color="#C6727F"/>
<stop offset="1" stop-color="#C6727F"/>
</linearGradient>
</defs>
</svg>
