<svg width="430" height="301" viewBox="0 0 430 301" fill="none" xmlns="http://www.w3.org/2000/svg">
<path d="M26.3275 300.223C26.3275 300.223 -26.4188 228.694 17.4069 151.254C56.2919 82.5426 101.63 87.2396 134.893 115.122C149.06 127 189.905 116.587 224.668 46.6704C272.078 -48.675 436.415 9.15198 406.452 155.845C391.952 226.834 450.582 229.414 420.707 300.375L26.3275 300.223Z" fill="#F9F7FF"/>
<path d="M254.173 297.269C244.01 297.269 233.529 297.187 223.192 297.055C221.344 297.031 219.502 297.005 217.667 296.978C187.432 296.535 159.173 295.694 144.82 295.224C139.194 295.04 134.683 290.524 134.506 284.897C134.415 281.992 134.339 278.801 134.278 275.352C133.772 246.971 134.225 201.256 134.95 156.706L136.038 157.271L145.449 139.127C144.11 181.257 143.109 226.216 143.925 249.703C144.147 256.102 149.19 261.277 155.582 261.65C174.168 262.738 213.299 264.751 248.281 264.751C262.832 264.751 276.661 264.404 287.999 263.496C294.951 262.938 300.405 257.317 300.78 250.355C301.985 227.993 304.578 177.582 306.052 132.045C309.758 131.999 313.292 131.24 316.523 129.898C317.056 180.345 316.277 235.476 315.672 267.684C315.594 271.847 315.518 275.631 315.449 278.968C315.252 288.456 307.713 296.136 298.231 296.534C285.587 297.064 270.287 297.269 254.173 297.269ZM315.32 77.2883C312.744 76.3544 309.994 75.785 307.131 75.6421C307.117 70.0076 307.042 64.9198 306.894 60.5216C306.661 53.6157 301.312 47.976 294.43 47.3579C289.873 46.9489 284.177 46.4499 277.682 45.9073C272.519 40.2946 265.113 36.7764 256.885 36.7764C250.201 36.7764 244.059 39.0977 239.222 42.9793C229.668 42.3311 219.836 41.7317 210.287 41.2565C206.332 38.5075 201.644 36.7422 196.576 36.3136L189.561 24.908C227.202 26.1421 272.522 30.2235 296.149 32.5428C297.646 32.6898 299.054 32.8286 300.37 32.9611C307.045 33.6289 312.364 38.7167 313.394 45.2551C313.449 45.6029 313.491 45.956 313.521 46.3122C314.273 55.2184 314.863 65.7191 315.32 77.2883ZM212.851 30.0869C211.366 30.0869 209.938 30.1086 208.589 30.1573C207.246 30.2049 206.189 31.3179 206.189 32.6618C206.189 33.9954 207.228 35.0949 208.56 35.1643C215.132 35.5091 233.65 36.4834 241.925 36.9628C241.975 36.9659 242.025 36.968 242.075 36.968C243.634 36.968 244.828 35.5423 244.528 33.9861L244.476 33.7127C244.264 32.6173 243.356 31.7932 242.245 31.6917C237.326 31.2403 223.677 30.0869 212.851 30.0869Z" fill="url(#paint0_linear_2_9236)"/>
<path d="M148.717 51.946C147.197 87.5327 142.403 205.924 143.924 249.703C144.147 256.101 149.19 261.276 155.581 261.65C181.899 263.189 249.399 266.585 287.999 263.495C294.951 262.938 300.405 257.317 300.78 250.354C302.736 214.048 308.352 103.809 306.894 60.5209C306.661 53.615 301.312 47.9753 294.43 47.3572C265.959 44.8009 192.837 38.7191 160.036 40.5083C153.878 40.8447 148.98 45.7845 148.717 51.946Z" fill="#A897EE"/>
<path d="M242.074 36.968C242.025 36.968 241.975 36.9659 241.925 36.9628C233.65 36.4835 215.132 35.5092 208.56 35.1644C207.228 35.095 206.189 33.9955 206.189 32.6619C206.189 31.318 207.246 30.205 208.589 30.1573C209.938 30.1087 211.366 30.087 212.851 30.087C223.677 30.087 237.326 31.2404 242.245 31.6918C243.356 31.7932 244.264 32.6174 244.476 33.7128L244.528 33.9862C244.828 35.5423 243.634 36.968 242.074 36.968Z" fill="url(#paint1_linear_2_9236)"/>
<path d="M194.639 44.2834L136.038 157.27L83.3568 129.948L141.958 16.96L194.639 44.2834Z" fill="#9981F9"/>
<path d="M128.024 144.758L126.126 143.773L140.482 127.175C141.363 127.565 142.269 127.908 143.199 128.201L135.552 142.943C135.554 142.938 135.353 142.828 135.268 142.784C134.387 142.328 133.45 142.109 132.541 142.109C130.68 142.109 128.943 143.026 128.083 144.685C128.065 144.721 128.024 144.758 128.024 144.758ZM101.744 131.127L98.5594 129.476C98.7007 129.203 98.8218 128.941 98.9239 128.688L101.744 131.127ZM139.459 37.0418L142.649 30.8917C142.647 30.8959 142.661 30.9083 142.746 30.9518C143.241 31.2085 143.751 31.3856 144.263 31.4881L139.459 37.0418Z" fill="#BDADF0"/>
<path d="M147.479 70.4133C156.633 75.1605 160.205 86.4294 155.456 95.5821C150.709 104.736 139.441 108.307 130.288 103.56C121.135 98.8125 117.563 87.5435 122.31 78.3908C127.058 69.2371 138.326 65.6661 147.479 70.4133Z" fill="#49DDB9"/>
<path d="M149.195 94.4607L147.442 93.5516C146.421 95.3407 145.053 96.9238 143.825 97.9157C143.387 98.2698 142.752 98.2367 142.337 97.8546L140.936 96.5625C140.422 96.0893 140.45 95.2766 140.986 94.8293C142.18 93.8333 143.418 92.48 144.297 90.7851C145.21 89.025 145.293 87.4036 144.071 86.7689C142.968 86.1974 141.786 86.8704 139.861 88.9763C137.097 91.9706 134.276 93.6873 131.204 92.0938C128.431 90.6547 127.365 87.5289 128.624 83.7156L126.871 82.8066C126.307 82.5146 126.087 81.8199 126.38 81.2556L126.914 80.2264C127.206 79.6621 127.901 79.4426 128.465 79.7346L130.038 80.5505C130.983 78.896 131.91 77.815 132.759 77.0168C133.195 76.6068 133.875 76.613 134.315 77.0178L135.613 78.2095C136.113 78.6692 136.11 79.4571 135.603 79.9106C134.797 80.6333 133.783 81.7215 132.927 83.3739C131.844 85.4613 132.399 86.5059 133.174 86.9087C134.129 87.4036 135.435 86.4915 137.677 84.2105C140.852 80.9367 143.297 80.1612 146.19 81.6614C148.845 83.0385 150.209 86.244 148.826 90.371L150.788 91.3887C151.351 91.6807 151.572 92.3755 151.279 92.9387L150.745 93.9689C150.453 94.5332 149.758 94.7527 149.195 94.4607Z" fill="white"/>
<path d="M98.055 134.087C98.0459 134.087 98.0367 134.086 98.0275 134.085C97.9972 134.082 97.967 134.074 97.9385 134.058L88.0607 128.935C88.0009 128.904 87.9559 128.851 87.9355 128.787C87.9153 128.723 87.9212 128.654 87.9523 128.593L91.3157 122.108L91.7105 122.45L88.5198 128.602L98.1722 133.608C98.2968 133.672 98.3453 133.825 98.2807 133.949C98.2356 134.037 98.1468 134.087 98.055 134.087Z" fill="#D2C8FB"/>
<path d="M175.667 73.8536C175.635 73.8505 175.605 73.8423 175.577 73.8267C175.452 73.7625 175.405 73.6093 175.469 73.4851L189.643 46.1565L179.298 40.7912C179.172 40.7259 179.124 40.5737 179.189 40.4485C179.253 40.3242 179.406 40.2745 179.531 40.3398L190.102 45.8231C190.162 45.8541 190.206 45.908 190.227 45.9722C190.248 46.0353 190.241 46.1057 190.21 46.1647L175.919 73.719C175.869 73.8143 175.767 73.865 175.667 73.8536Z" fill="white"/>
<path d="M205.211 52.3341L121.949 148.602L76.7679 109.525L160.031 13.2572L205.211 52.3341Z" fill="#A897EE"/>
<path d="M124.828 134.531C124.536 134.271 124.558 134.283 124.485 134.221C123.365 133.252 121.981 132.762 120.648 132.762C119.258 132.762 117.922 133.294 116.994 134.367C116.975 134.389 116.915 134.392 116.881 134.392C116.867 134.392 116.858 134.392 116.858 134.392L111.411 129.681L129.723 118.417C131.065 120.289 132.646 121.978 134.422 123.438L124.828 134.531ZM96.8038 117.046L91.7527 112.678C92.3263 112.015 92.7189 111.391 92.9634 110.803L96.8038 117.046ZM149.597 36.0637L157.485 26.9442C157.482 26.9473 157.527 27.0136 157.6 27.0757C158.688 28.0168 160.007 28.4755 161.282 28.4755C161.53 28.4755 161.775 28.4589 162.017 28.4248L149.597 36.0637Z" fill="#CABDFE"/>
<path d="M153.084 66.5826C160.883 73.327 161.737 85.1178 154.992 92.9162C148.247 100.716 136.456 101.569 128.658 94.8244C120.859 88.0789 120.005 76.2881 126.75 68.4897C133.495 60.6913 145.286 59.8371 153.084 66.5826Z" fill="#50E1BE"/>
<path d="M149.162 90.3691L147.669 89.078C146.261 90.5804 144.561 91.8021 143.137 92.4813C142.628 92.7246 142.018 92.5444 141.704 92.0765L140.641 90.4944C140.251 89.9136 140.467 89.1308 141.093 88.8202C142.487 88.1286 144.004 87.1005 145.253 85.6561C146.55 84.1569 147.009 82.5987 145.966 81.6979C145.026 80.8851 143.721 81.2651 141.359 82.8658C137.974 85.1353 134.832 86.149 132.215 83.8857C129.852 81.8408 129.542 78.5525 131.652 75.1368L130.159 73.8446C129.679 73.4294 129.626 72.7037 130.042 72.2222L130.801 71.3452C131.217 70.8648 131.942 70.812 132.424 71.2283L133.764 72.3879C135.067 70.9974 136.221 70.1618 137.233 69.582C137.751 69.2859 138.412 69.4495 138.746 69.9454L139.73 71.4063C140.11 71.9706 139.923 72.7357 139.326 73.0588C138.373 73.5744 137.135 74.3965 135.917 75.8046C134.379 77.5834 134.676 78.7285 135.336 79.3C136.15 80.003 137.632 79.4201 140.343 77.7231C144.192 75.2765 146.75 75.0912 149.215 77.223C151.477 79.1789 152.06 82.6142 149.755 86.3063L151.426 87.7517C151.906 88.1679 151.959 88.8937 151.543 89.3741L150.784 90.2521C150.369 90.7326 149.642 90.7854 149.162 90.3691Z" fill="white"/>
<path d="M90.7104 116.935C90.6815 116.935 90.6525 116.93 90.6248 116.92C90.5963 116.91 90.569 116.894 90.5446 116.874L81.8334 109.338C81.7271 109.247 81.7155 109.087 81.8074 108.98L87.6718 102.2L87.9509 102.654L82.3574 109.121L90.8768 116.489C90.9828 116.581 90.9945 116.741 90.9028 116.847C90.8526 116.905 90.7817 116.935 90.7104 116.935Z" fill="#DFD7FD"/>
<path d="M179.588 76.4304C179.559 76.42 179.532 76.4045 179.509 76.3838C179.402 76.2917 179.391 76.1312 179.483 76.0255L199.621 52.7401L191.102 45.3724C190.995 45.2802 190.984 45.1198 191.076 45.0142C191.167 44.9075 191.327 44.8951 191.434 44.9883L200.146 52.5227C200.196 52.5672 200.227 52.6293 200.233 52.6966C200.237 52.7639 200.215 52.8291 200.171 52.8809L179.866 76.3569C179.795 76.4387 179.685 76.4646 179.588 76.4304Z" fill="white"/>
<path d="M214.865 66.0503L106.451 132.731L75.1556 81.85L183.57 15.168L214.865 66.0503Z" fill="#9981F9"/>
<path d="M184.229 29.655L202.019 58.5791C199.692 60.0111 199.09 63.4412 200.675 66.0183C200.726 66.1011 200.69 66.0597 200.899 66.39L113.39 120.213C113.19 119.878 113.222 119.921 113.171 119.839C111.586 117.261 108.384 116.262 106.017 117.717C105.982 117.738 105.912 117.697 105.912 117.697L88.523 89.4239C92.5135 86.969 91.2 84.0234 89.6145 81.4453C89.5641 81.3635 89.4627 81.3014 89.4585 81.3034L176.966 27.4808C176.962 27.4828 177.026 27.5688 177.076 27.6506C178.662 30.2286 181.902 31.087 184.229 29.655Z" fill="#C9BCFD"/>
<path d="M160.849 63.996C166.251 72.779 163.51 84.2778 154.727 89.6804C145.945 95.0819 134.445 92.3413 129.044 83.5583C123.642 74.7752 126.383 63.2764 135.165 57.8749C143.948 52.4723 155.447 55.2129 160.849 63.996Z" fill="#9981F9"/>
<path d="M149.939 85.4935L148.904 83.8121C147.108 84.8205 145.119 85.4728 143.557 85.6913C142.998 85.7689 142.47 85.4138 142.312 84.8733L141.776 83.0438C141.579 82.3729 142.021 81.6916 142.712 81.584C144.249 81.3448 146.006 80.8219 147.633 79.8218C149.321 78.7833 150.228 77.4363 149.507 76.2632C148.856 75.204 147.495 75.173 144.762 75.9868C140.85 77.1308 137.548 77.1495 135.735 74.2018C134.098 71.5398 134.795 68.3116 137.837 65.691L136.803 64.0096C136.469 63.4681 136.639 62.7599 137.18 62.4265L138.167 61.8187C138.709 61.4864 139.417 61.6552 139.751 62.1967L140.679 63.7062C142.341 62.7734 143.692 62.325 144.832 62.0776C145.416 61.9513 145.996 62.3064 146.165 62.88L146.663 64.5697C146.855 65.222 146.446 65.895 145.779 66.0234C144.716 66.2273 143.287 66.6384 141.701 67.6137C139.699 68.8458 139.637 70.0272 140.094 70.7716C140.658 71.6869 142.247 71.5771 145.344 70.7768C149.75 69.6047 152.245 70.2001 153.954 72.9759C155.52 75.5229 155.039 78.9738 151.729 81.7993L152.886 83.6806C153.219 84.2221 153.05 84.9303 152.508 85.2637L151.521 85.8714C150.979 86.2038 150.271 86.035 149.939 85.4935Z" fill="white"/>
<path d="M85.9597 93.3347C85.9303 93.3347 85.901 93.3306 85.8734 93.3202C85.821 93.3016 85.7748 93.2654 85.7432 93.2146L79.7093 83.4035C79.6741 83.3465 79.663 83.2771 79.6785 83.2119C79.6941 83.1467 79.735 83.0897 79.7925 83.0545L106.563 66.589C106.605 66.5632 106.651 66.5518 106.696 66.5518C106.781 66.5518 106.865 66.5942 106.913 66.6719C106.986 66.792 106.949 66.9473 106.83 67.0218L80.2747 83.3548L86.1758 92.9485C86.2493 93.0676 86.2121 93.2239 86.0925 93.2974C86.0511 93.3233 86.0051 93.3347 85.9597 93.3347Z" fill="#D2C8FB"/>
<path d="M183.239 81.3347C183.186 81.3161 183.139 81.2798 183.108 81.2281C183.035 81.109 183.072 80.9527 183.191 80.8791L209.414 64.7512L203.512 55.1564C203.439 55.0373 203.476 54.881 203.596 54.8075C203.715 54.735 203.871 54.7723 203.945 54.8914L209.979 64.7015C210.014 64.7584 210.026 64.8278 210.01 64.893C209.995 64.9583 209.953 65.0152 209.896 65.0504L183.457 81.3119C183.389 81.3534 183.308 81.3596 183.239 81.3347Z" fill="white"/>
<path d="M117.876 92.456C119.407 94.9439 118.63 98.2012 116.142 99.7305C113.655 101.261 110.397 100.485 108.867 97.9973C107.337 95.5093 108.113 92.252 110.601 90.7217C113.089 89.1914 116.346 89.968 117.876 92.456Z" fill="#9981F9"/>
<path d="M185.651 50.7714C187.181 53.2594 186.405 56.5156 183.917 58.0459C181.429 59.5762 178.171 58.8007 176.641 56.3127C175.111 53.8247 175.887 50.5674 178.375 49.0372C180.863 47.5069 184.121 48.2834 185.651 50.7714Z" fill="#31C5A1"/>
<path d="M256.885 93.2737C241.284 93.2737 228.637 80.6266 228.637 65.0257C228.637 56.1091 232.769 48.1564 239.222 42.9795C244.059 39.0979 250.201 36.7766 256.885 36.7766C265.112 36.7766 272.518 40.2948 277.682 45.9076C282.309 50.9374 285.133 57.6518 285.133 65.0257C285.133 80.6266 272.486 93.2737 256.885 93.2737ZM256.885 39.5587C247.215 39.5587 238.498 44.925 234.136 53.5652C234.073 53.6915 234.124 53.8468 234.251 53.911C234.287 53.9296 234.328 53.9389 234.366 53.9389C234.46 53.9389 234.551 53.8872 234.597 53.7971C238.87 45.3319 247.409 40.0733 256.885 40.0733C258.397 40.0733 259.912 40.2099 261.387 40.4781C261.403 40.4812 261.419 40.4833 261.435 40.4833C261.557 40.4833 261.664 40.3953 261.686 40.271C261.712 40.1312 261.62 39.9966 261.479 39.9718C259.974 39.6974 258.428 39.5587 256.885 39.5587Z" fill="#F78041"/>
<path d="M234.366 53.9387C234.328 53.9387 234.287 53.9294 234.251 53.9108C234.124 53.8466 234.073 53.6913 234.136 53.565C238.498 44.9248 247.215 39.5585 256.885 39.5585C258.428 39.5585 259.974 39.6972 261.479 39.9716C261.62 39.9964 261.712 40.131 261.686 40.2708C261.664 40.3951 261.557 40.4831 261.435 40.4831C261.419 40.4831 261.404 40.481 261.387 40.4779C259.912 40.2097 258.397 40.0731 256.885 40.0731C247.409 40.0731 238.87 45.3317 234.597 53.7969C234.551 53.887 234.46 53.9387 234.366 53.9387Z" fill="url(#paint2_linear_2_9236)"/>
<path d="M280.594 65.6195C280.594 78.3856 270.246 88.7341 257.481 88.7341C244.714 88.7341 234.367 78.3856 234.367 65.6195C234.367 52.8544 244.714 42.5059 257.481 42.5059C270.246 42.5059 280.594 52.8544 280.594 65.6195Z" fill="#FEA373"/>
<path d="M253.891 62.4004C253.891 67.9862 250.857 72.5149 247.117 72.5149C243.376 72.5149 240.343 67.9862 240.343 62.4004C240.343 56.8145 243.376 52.2858 247.117 52.2858C250.857 52.2858 253.891 56.8145 253.891 62.4004Z" fill="white"/>
<path d="M248.685 70.687C247.637 70.687 246.59 70.687 245.542 70.687C245.266 82.0616 244.992 93.3823 244.717 104.907C244.7 105.59 244.96 106.073 245.437 106.562C245.915 107.05 246.568 107.238 247.251 107.238C247.862 107.238 248.446 106.946 248.873 106.509C249.299 106.072 249.531 105.815 249.517 105.205C249.24 93.5884 248.963 82.0616 248.685 70.687Z" fill="white"/>
<path d="M273.058 52.6969L271.394 52.7083V65.0002H270.327V52.7186L268.551 52.73V65.0002H266.418V52.7279L264.64 52.7166V65.0002H262.862V52.7062L261.798 52.6969C261.798 52.6969 260.371 63.7432 260.632 68.8642C260.664 69.4937 261.053 70.0911 261.566 70.5384C262.519 71.3687 264.447 72.5149 267.587 72.5149C270.697 72.5149 272.59 71.3687 273.542 70.5384C274.056 70.0911 274.325 69.4937 274.357 68.8642C274.618 63.7432 273.058 52.6969 273.058 52.6969Z" fill="white"/>
<path d="M269.156 70.687C268.108 70.687 267.06 70.687 266.012 70.687C265.737 82.0616 265.462 93.3823 265.187 104.907C265.17 105.59 265.43 106.073 265.908 106.562C266.385 107.05 267.038 107.238 267.722 107.238C268.332 107.238 268.917 106.946 269.343 106.509C269.77 106.072 270.001 105.815 269.987 105.205C269.711 93.5884 269.433 82.0616 269.156 70.687Z" fill="white"/>
<path d="M305.7 132.048C290.113 132.048 277.479 119.413 277.479 103.828C277.479 88.2421 290.113 75.6065 305.7 75.6065C306.179 75.6065 306.657 75.6189 307.131 75.6427C309.994 75.7856 312.743 76.355 315.319 77.2889C326.169 81.2223 333.92 91.6195 333.92 103.828C333.92 115.579 326.736 125.652 316.523 129.898C313.292 131.241 309.757 132 306.052 132.046C305.934 132.048 305.818 132.048 305.7 132.048ZM305.7 78.3854C296.038 78.3854 287.33 83.7476 282.973 92.3784C282.909 92.5048 282.96 92.6601 283.087 92.7243C283.125 92.7429 283.164 92.7522 283.202 92.7522C283.297 92.7522 283.388 92.7004 283.433 92.6104C287.702 84.1535 296.233 78.9 305.7 78.9C307.21 78.9 308.723 79.0367 310.196 79.3048C310.213 79.3079 310.229 79.309 310.245 79.309C310.366 79.309 310.474 79.222 310.497 79.0978C310.522 78.958 310.429 78.8234 310.29 78.7985C308.785 78.5242 307.24 78.3854 305.7 78.3854Z" fill="#F78041"/>
<path d="M283.202 92.7511C283.164 92.7511 283.124 92.7418 283.087 92.7232C282.96 92.659 282.909 92.5036 282.973 92.3773C287.33 83.7465 296.038 78.3843 305.7 78.3843C307.24 78.3843 308.785 78.5231 310.289 78.7974C310.429 78.8223 310.521 78.9569 310.497 79.0967C310.474 79.2209 310.366 79.3079 310.245 79.3079C310.228 79.3079 310.213 79.3068 310.196 79.3037C308.723 79.0356 307.21 78.8989 305.7 78.8989C296.233 78.8989 287.702 84.1524 283.433 92.6093C283.387 92.6993 283.296 92.7511 283.202 92.7511Z" fill="url(#paint3_linear_2_9236)"/>
<path d="M329.385 104.421C329.385 117.174 319.047 127.512 306.294 127.512C293.542 127.512 283.203 117.174 283.203 104.421C283.203 91.6685 293.542 81.3303 306.294 81.3303C319.047 81.3303 329.385 91.6685 329.385 104.421Z" fill="#FEA373"/>
<path d="M311.476 120.229H299.752C299.294 120.229 298.924 119.859 298.924 119.401V90.0379C298.924 89.5802 299.294 89.2096 299.752 89.2096H311.476C311.934 89.2096 312.305 89.5802 312.305 90.0379V119.401C312.305 119.859 311.934 120.229 311.476 120.229Z" fill="white"/>
<path d="M290.104 111.189V99.4655C290.104 99.0079 290.476 98.6372 290.932 98.6372H320.295C320.753 98.6372 321.124 99.0079 321.124 99.4655V111.189C321.124 111.647 320.753 112.017 320.295 112.017H290.932C290.476 112.017 290.104 111.647 290.104 111.189Z" fill="white"/>
<path d="M151.298 130.251C151.09 130.251 150.882 130.249 150.674 130.243C148.139 130.184 145.692 129.767 143.383 129.039C142.453 128.746 141.547 128.404 140.666 128.013C138.472 127.042 136.435 125.78 134.606 124.276C132.83 122.816 131.249 121.127 129.907 119.255C128.545 117.355 127.43 115.266 126.609 113.034C125.567 110.203 124.998 107.143 124.998 103.951C124.998 97.5009 127.32 91.5942 131.173 87.0189C135.721 81.6194 142.401 78.0753 149.918 77.6871C150.375 77.6633 150.835 77.6508 151.298 77.6508C152.52 77.6508 153.722 77.7347 154.899 77.8952C157.736 78.2845 160.428 79.1242 162.902 80.3428C165.783 81.7613 168.367 83.6922 170.534 86.0166C172.135 87.7333 173.51 89.6642 174.608 91.7619C176.518 95.4053 177.598 99.552 177.598 103.951C177.598 118.477 165.823 130.251 151.298 130.251ZM151.298 80.2403C142.295 80.2403 134.178 85.237 130.119 93.2808C130.059 93.3988 130.106 93.5438 130.224 93.6028C130.259 93.6204 130.296 93.6287 130.332 93.6287C130.42 93.6287 130.505 93.581 130.546 93.4972C134.525 85.6159 142.476 80.7207 151.298 80.7207C152.705 80.7207 154.115 80.847 155.489 81.0976C155.504 81.0996 155.519 81.1017 155.534 81.1017C155.647 81.1017 155.747 81.0199 155.768 80.904C155.792 80.7735 155.706 80.6493 155.575 80.6254C154.173 80.3697 152.734 80.2403 151.298 80.2403Z" fill="#F78041"/>
<path d="M130.909 92.802C130.874 92.802 130.84 92.7938 130.806 92.7764C130.693 92.7179 130.647 92.5744 130.705 92.4575C134.597 84.4924 142.379 79.5446 151.011 79.5446C152.388 79.5446 153.768 79.6728 155.112 79.926C155.237 79.9496 155.32 80.0726 155.297 80.2018C155.277 80.3166 155.181 80.3976 155.072 80.3976C155.058 80.3976 155.044 80.3956 155.03 80.3935C153.712 80.1454 152.36 80.0204 151.011 80.0204C142.552 80.0204 134.93 84.8677 131.115 92.6718C131.075 92.7548 130.993 92.802 130.909 92.802Z" fill="url(#paint4_linear_2_9236)"/>
<path d="M173.187 103.667C173.187 115.552 163.553 125.186 151.668 125.186C139.783 125.186 130.148 115.552 130.148 103.667C130.148 91.7821 139.783 82.147 151.668 82.147C163.553 82.147 173.187 91.7821 173.187 103.667Z" fill="#FEA373"/>
<path d="M170.976 98.801L151.739 92.9377C151.306 92.8051 150.842 92.8051 150.409 92.9377L131.172 98.801C130.982 98.859 130.854 99.0329 130.854 99.2307C130.854 99.4284 130.982 99.6034 131.172 99.6614L150.409 105.525C150.842 105.656 151.306 105.656 151.739 105.525L170.976 99.6614C171.165 99.6034 171.294 99.4284 171.294 99.2307C171.294 99.0329 171.165 98.859 170.976 98.801Z" fill="white"/>
<path d="M151.073 108.042L137.66 103.954V113.294C137.66 114.826 138.732 116.152 140.232 116.47C147.435 117.997 154.362 118.045 160.993 116.52C162.462 116.182 163.499 114.866 163.499 113.359V104.255L151.073 108.042Z" fill="white"/>
<path d="M134.698 111.879C133.532 112.397 132.514 112.408 131.641 111.912C131.386 111.766 131.259 111.468 131.317 111.181L133.213 101.749L135.096 111.11C135.16 111.428 134.994 111.748 134.698 111.879Z" fill="white"/>
<path d="M151.074 98.2692L132.937 100.196V103.343H133.476L133.531 100.585L151.074 98.2692Z" fill="white"/>
<path d="M194.163 92.7673C188.498 92.7673 183.222 91.1025 178.799 88.2335C176.721 86.8864 174.829 85.2723 173.176 83.4418C168.644 78.4264 165.886 71.7814 165.886 64.4903C165.886 50.7769 175.646 39.3443 188.6 36.76C190.398 36.4008 192.259 36.2123 194.163 36.2123C194.975 36.2123 195.78 36.2465 196.576 36.3138C201.644 36.7424 206.332 38.5077 210.286 41.2566C217.631 46.3641 222.441 54.8655 222.441 64.4903C222.441 80.1068 209.78 92.7673 194.163 92.7673ZM194.163 38.9964C184.482 38.9964 175.756 44.369 171.391 53.0184C171.327 53.1448 171.377 53.3001 171.505 53.3643C171.542 53.3829 171.581 53.3922 171.621 53.3922C171.715 53.3922 171.806 53.3405 171.851 53.2504C176.129 44.7769 184.678 39.512 194.163 39.512C195.676 39.512 197.192 39.6487 198.669 39.9179C198.685 39.921 198.702 39.922 198.717 39.922C198.838 39.922 198.946 39.8341 198.969 39.7108C198.995 39.57 198.902 39.4365 198.762 39.4106C197.254 39.1362 195.707 38.9964 194.163 38.9964Z" fill="#F78041"/>
<path d="M171.621 53.3918C171.581 53.3918 171.542 53.3825 171.505 53.3639C171.377 53.2997 171.327 53.1444 171.391 53.0181C175.756 44.3686 184.482 38.9961 194.163 38.9961C195.707 38.9961 197.254 39.1359 198.762 39.4102C198.902 39.4361 198.995 39.5697 198.969 39.7105C198.946 39.8337 198.838 39.9217 198.717 39.9217C198.702 39.9217 198.685 39.9207 198.669 39.9176C197.192 39.6484 195.676 39.5117 194.163 39.5117C184.678 39.5117 176.129 44.7765 171.852 53.25C171.806 53.3401 171.715 53.3918 171.621 53.3918Z" fill="url(#paint5_linear_2_9236)"/>
<path d="M217.895 65.085C217.895 77.8635 207.536 88.2224 194.758 88.2224C181.979 88.2224 171.621 77.8635 171.621 65.085C171.621 52.3065 181.979 41.9476 194.758 41.9476C207.536 41.9476 217.895 52.3065 217.895 65.085Z" fill="#FEA373"/>
<path d="M199.415 73.5396H189.364V63.4882H199.415V73.5396ZM209.853 58.5733L194.39 46.6955L178.927 58.5733C178.177 59.15 178.585 60.35 179.531 60.35H181.717C181.691 60.4763 181.677 60.6078 181.677 60.7424V78.4762C181.677 79.5602 182.556 80.4382 183.639 80.4382H205.141C206.224 80.4382 207.102 79.5602 207.102 78.4762V60.7424C207.102 60.6078 207.088 60.4763 207.063 60.35H209.249C210.196 60.35 210.602 59.15 209.853 58.5733Z" fill="white"/>
<path d="M165.357 134.157C165.196 134.157 165.038 134.083 164.936 133.941L163.928 132.538C163.76 132.306 163.814 131.982 164.046 131.814C164.278 131.648 164.602 131.701 164.769 131.933L165.778 133.336C165.946 133.568 165.892 133.892 165.66 134.06C165.568 134.125 165.462 134.157 165.357 134.157Z" fill="white"/>
<path d="M169.327 139.68C169.165 139.68 169.007 139.606 168.905 139.465L166.921 136.704C166.754 136.471 166.807 136.147 167.039 135.98C167.272 135.813 167.596 135.865 167.762 136.098L169.747 138.859C169.915 139.092 169.862 139.416 169.629 139.583C169.538 139.649 169.431 139.68 169.327 139.68ZM173.296 145.204C173.136 145.204 172.977 145.129 172.875 144.988L170.89 142.226C170.724 141.995 170.776 141.67 171.008 141.503C171.241 141.337 171.565 141.389 171.732 141.621L173.717 144.383C173.885 144.615 173.832 144.939 173.599 145.107C173.508 145.172 173.401 145.204 173.296 145.204ZM177.266 150.727C177.106 150.727 176.946 150.652 176.845 150.511L174.86 147.749C174.693 147.517 174.746 147.193 174.979 147.026C175.211 146.86 175.535 146.911 175.703 147.144L177.686 149.906C177.854 150.139 177.801 150.463 177.568 150.63C177.477 150.696 177.372 150.727 177.266 150.727ZM181.237 156.251C181.075 156.251 180.917 156.176 180.815 156.034L178.829 153.273C178.663 153.041 178.716 152.717 178.949 152.549C179.18 152.382 179.505 152.435 179.672 152.668L181.657 155.429C181.824 155.661 181.771 155.985 181.538 156.153C181.447 156.218 181.341 156.251 181.237 156.251ZM185.206 161.773C185.045 161.773 184.886 161.699 184.785 161.558L182.8 158.797C182.632 158.564 182.685 158.239 182.918 158.073C183.151 157.906 183.474 157.959 183.642 158.191L185.627 160.952C185.793 161.185 185.741 161.509 185.509 161.676C185.416 161.742 185.311 161.773 185.206 161.773Z" fill="white"/>
<path d="M188.2 165.939C188.04 165.939 187.88 165.864 187.78 165.723L186.77 164.32C186.603 164.088 186.656 163.764 186.888 163.596C187.121 163.43 187.445 163.482 187.612 163.714L188.621 165.118C188.788 165.351 188.735 165.675 188.503 165.842C188.411 165.908 188.306 165.939 188.2 165.939Z" fill="white"/>
<path d="M283.619 131.263C283.531 131.263 283.442 131.24 283.36 131.194C283.113 131.051 283.027 130.734 283.17 130.485L284.031 128.987C284.174 128.739 284.491 128.654 284.74 128.796C284.988 128.939 285.073 129.255 284.931 129.504L284.069 131.003C283.973 131.17 283.798 131.263 283.619 131.263Z" fill="white"/>
<path d="M279.947 137.652C279.859 137.652 279.771 137.63 279.689 137.582C279.441 137.441 279.356 137.123 279.498 136.875L281.335 133.681C281.477 133.432 281.794 133.348 282.043 133.49C282.29 133.632 282.376 133.949 282.233 134.197L280.398 137.392C280.301 137.559 280.126 137.652 279.947 137.652ZM276.275 144.041C276.187 144.041 276.099 144.018 276.017 143.972C275.768 143.829 275.683 143.512 275.825 143.263L277.662 140.069C277.805 139.821 278.122 139.736 278.369 139.878C278.618 140.021 278.704 140.337 278.561 140.586L276.725 143.78C276.629 143.948 276.454 144.041 276.275 144.041ZM272.602 150.429C272.514 150.429 272.426 150.406 272.344 150.36C272.096 150.217 272.01 149.9 272.153 149.653L273.989 146.458C274.131 146.209 274.449 146.125 274.697 146.267C274.945 146.41 275.031 146.727 274.888 146.974L273.053 150.168C272.956 150.336 272.781 150.429 272.602 150.429ZM268.93 156.817C268.842 156.817 268.753 156.796 268.672 156.749C268.423 156.606 268.338 156.289 268.48 156.041L270.316 152.847C270.459 152.598 270.777 152.513 271.024 152.655C271.273 152.798 271.358 153.115 271.216 153.363L269.38 156.558C269.284 156.724 269.109 156.817 268.93 156.817ZM265.257 163.207C265.169 163.207 265.08 163.184 264.999 163.137C264.751 162.996 264.665 162.678 264.808 162.43L266.644 159.235C266.787 158.987 267.104 158.902 267.352 159.044C267.6 159.186 267.685 159.504 267.543 159.752L265.707 162.947C265.611 163.114 265.436 163.207 265.257 163.207ZM261.585 169.595C261.497 169.595 261.408 169.573 261.326 169.527C261.077 169.384 260.993 169.067 261.135 168.818L262.971 165.624C263.115 165.376 263.431 165.291 263.679 165.433C263.928 165.576 264.014 165.892 263.871 166.141L262.034 169.335C261.939 169.502 261.764 169.595 261.585 169.595Z" fill="white"/>
<path d="M258.887 174.288C258.799 174.288 258.711 174.267 258.629 174.22C258.38 174.077 258.294 173.759 258.437 173.512L259.299 172.013C259.442 171.764 259.759 171.68 260.007 171.822C260.255 171.965 260.34 172.282 260.197 172.529L259.337 174.028C259.241 174.195 259.066 174.288 258.887 174.288Z" fill="white"/>
<path d="M197.857 100.408C197.621 100.408 197.406 100.245 197.351 100.005L196.965 98.3207C196.901 98.0411 197.076 97.7636 197.355 97.6994C197.634 97.6342 197.913 97.8102 197.976 98.0887L198.362 99.7733C198.426 100.053 198.252 100.331 197.973 100.395C197.934 100.404 197.895 100.408 197.857 100.408Z" fill="white"/>
<path d="M199.347 106.901C199.111 106.901 198.897 106.739 198.842 106.499L198.097 103.252C198.033 102.973 198.207 102.695 198.487 102.63C198.766 102.566 199.044 102.741 199.108 103.021L199.852 106.267C199.916 106.545 199.742 106.824 199.463 106.888C199.424 106.897 199.385 106.901 199.347 106.901ZM200.837 113.393C200.6 113.393 200.386 113.232 200.332 112.99L199.587 109.744C199.523 109.466 199.697 109.187 199.976 109.123C200.257 109.059 200.534 109.234 200.598 109.512L201.342 112.759C201.406 113.038 201.232 113.316 200.953 113.381C200.913 113.389 200.875 113.393 200.837 113.393ZM202.327 119.886C202.09 119.886 201.876 119.723 201.821 119.483L201.077 116.237C201.013 115.958 201.187 115.68 201.466 115.616C201.746 115.551 202.023 115.726 202.088 116.005L202.832 119.251C202.896 119.531 202.721 119.808 202.443 119.872C202.403 119.882 202.364 119.886 202.327 119.886ZM203.816 126.379C203.58 126.379 203.366 126.216 203.311 125.976L202.566 122.73C202.502 122.45 202.677 122.172 202.955 122.108C203.238 122.044 203.513 122.219 203.576 122.497L204.322 125.744C204.386 126.022 204.211 126.301 203.933 126.365C203.893 126.374 203.854 126.379 203.816 126.379ZM205.306 132.87C205.069 132.87 204.856 132.709 204.801 132.469L204.056 129.222C203.992 128.943 204.167 128.665 204.445 128.601C204.727 128.535 205.002 128.711 205.066 128.99L205.812 132.236C205.876 132.515 205.701 132.794 205.423 132.858C205.383 132.867 205.344 132.87 205.306 132.87ZM206.795 139.363C206.559 139.363 206.345 139.201 206.29 138.96L205.546 135.715C205.482 135.435 205.655 135.158 205.935 135.093C206.215 135.028 206.492 135.203 206.556 135.483L207.301 138.729C207.365 139.008 207.191 139.286 206.911 139.35C206.872 139.359 206.834 139.363 206.795 139.363ZM208.285 145.856C208.048 145.856 207.835 145.693 207.78 145.453L207.036 142.206C206.971 141.928 207.145 141.649 207.425 141.586C207.704 141.521 207.982 141.696 208.046 141.975L208.791 145.221C208.855 145.5 208.681 145.778 208.401 145.843C208.362 145.852 208.324 145.856 208.285 145.856ZM209.775 152.348C209.538 152.348 209.325 152.186 209.27 151.945L208.526 148.699C208.461 148.421 208.635 148.142 208.915 148.078C209.194 148.014 209.472 148.189 209.536 148.467L210.28 151.714C210.345 151.993 210.17 152.271 209.891 152.335C209.852 152.345 209.812 152.348 209.775 152.348Z" fill="white"/>
<path d="M210.907 157.279C210.67 157.279 210.456 157.116 210.401 156.876L210.014 155.191C209.95 154.913 210.125 154.634 210.403 154.57C210.686 154.505 210.961 154.681 211.026 154.959L211.412 156.644C211.476 156.923 211.301 157.201 211.023 157.265C210.983 157.274 210.944 157.279 210.907 157.279Z" fill="white"/>
<path d="M249.971 100.757C249.943 100.757 249.915 100.755 249.887 100.751C249.604 100.705 249.413 100.439 249.458 100.157L249.733 98.4492C249.778 98.1666 250.048 97.973 250.327 98.0206C250.61 98.0661 250.802 98.3312 250.757 98.6139L250.481 100.321C250.441 100.576 250.22 100.757 249.971 100.757Z" fill="white"/>
<path d="M248.851 107.705C248.823 107.705 248.795 107.703 248.768 107.699C248.484 107.653 248.293 107.387 248.338 107.104L248.898 103.63C248.943 103.347 249.213 103.153 249.493 103.2C249.775 103.246 249.967 103.512 249.921 103.794L249.361 107.269C249.321 107.524 249.1 107.705 248.851 107.705ZM247.73 114.654C247.703 114.654 247.676 114.652 247.648 114.647C247.365 114.602 247.172 114.335 247.218 114.053L247.778 110.578C247.824 110.295 248.091 110.101 248.372 110.149C248.655 110.195 248.848 110.461 248.802 110.744L248.242 114.217C248.2 114.472 247.981 114.654 247.73 114.654ZM246.611 121.603C246.583 121.603 246.555 121.601 246.528 121.595C246.245 121.55 246.053 121.284 246.099 121.001L246.659 117.527C246.704 117.245 246.973 117.051 247.253 117.098C247.536 117.143 247.727 117.409 247.682 117.692L247.122 121.166C247.081 121.422 246.861 121.603 246.611 121.603ZM245.491 128.551C245.464 128.551 245.436 128.549 245.408 128.545C245.125 128.499 244.933 128.233 244.978 127.951L245.539 124.476C245.584 124.193 245.85 123.998 246.133 124.046C246.415 124.092 246.607 124.358 246.561 124.64L246.002 128.115C245.961 128.37 245.741 128.551 245.491 128.551ZM244.372 135.499C244.344 135.499 244.316 135.497 244.288 135.493C244.005 135.448 243.814 135.182 243.859 134.899L244.418 131.424C244.464 131.142 244.731 130.948 245.013 130.996C245.295 131.04 245.488 131.306 245.442 131.589L244.882 135.064C244.842 135.318 244.621 135.499 244.372 135.499ZM243.251 142.449C243.223 142.449 243.195 142.447 243.169 142.442C242.885 142.396 242.693 142.13 242.739 141.847L243.299 138.374C243.345 138.091 243.612 137.895 243.893 137.944C244.176 137.989 244.368 138.256 244.322 138.538L243.762 142.012C243.721 142.267 243.501 142.449 243.251 142.449ZM242.131 149.397C242.104 149.397 242.076 149.395 242.048 149.391C241.766 149.345 241.573 149.079 241.619 148.797L242.179 145.322C242.224 145.039 242.493 144.846 242.773 144.892C243.056 144.938 243.248 145.204 243.203 145.487L242.643 148.961C242.602 149.216 242.382 149.397 242.131 149.397Z" fill="white"/>
<path d="M241.297 154.579C241.27 154.579 241.241 154.577 241.214 154.572C240.931 154.526 240.738 154.26 240.784 153.977L241.059 152.271C241.104 151.988 241.374 151.796 241.654 151.841C241.936 151.887 242.128 152.153 242.082 152.436L241.808 154.142C241.767 154.398 241.546 154.579 241.297 154.579Z" fill="white"/>
<path d="M249.485 177.674C242.082 169.083 243.959 163.429 247.456 158.287L250.863 175.754L249.485 177.674Z" fill="#FFA67D"/>
<path d="M249.485 177.674C246.163 171.212 245.487 164.75 247.456 158.287C240.143 160.773 235.556 165.122 235.124 172.313L249.485 177.674Z" fill="#FFA379"/>
<path d="M248.778 253.682H240.29C239.606 253.682 239.047 253.123 239.047 252.439V245.491C242.964 244.223 246.644 242.616 250.02 240.72V252.439C250.02 253.123 249.461 253.682 248.778 253.682Z" fill="#F89968"/>
<path d="M200.137 255.231H191.649C190.966 255.231 190.407 254.672 190.407 253.989V243.284C193.842 244.788 197.52 246.018 201.379 246.931V253.989C201.379 254.672 200.82 255.231 200.137 255.231Z" fill="#F89968"/>
<path d="M217.637 248.798C211.972 248.798 206.513 248.145 201.379 246.93C197.519 246.018 193.842 244.788 190.406 243.284C174.224 236.196 163.344 222.983 163.344 207.853C163.344 185.24 187.651 166.909 217.637 166.909C244.749 166.909 267.218 181.896 271.276 201.483H275.216C277.931 201.483 280.134 203.685 280.134 206.402V217.042C280.134 219.758 277.931 221.961 275.216 221.961H268.621C264.95 229.504 258.42 236.006 250.02 240.72C246.644 242.616 242.964 244.223 239.047 245.491C232.478 247.62 225.24 248.798 217.637 248.798ZM187.265 235.272C187.142 235.272 187.023 235.338 186.961 235.454C186.871 235.623 186.934 235.833 187.103 235.922C196.908 241.162 209.123 244.107 220.903 244.107C221.539 244.107 222.176 244.098 222.809 244.081C235.73 243.728 246.777 239.896 253.918 233.292C254.058 233.163 254.067 232.943 253.938 232.804C253.869 232.73 253.776 232.693 253.684 232.693C253.599 232.693 253.515 232.723 253.449 232.785C246.431 239.275 235.543 243.04 222.791 243.389C222.164 243.407 221.539 243.415 220.911 243.415C209.243 243.415 197.137 240.501 187.429 235.312C187.376 235.285 187.32 235.272 187.265 235.272ZM214.989 183.599C200.823 183.599 189.099 194.829 188.6 209.099C188.091 223.682 199.5 235.918 214.084 236.426C214.398 236.438 214.711 236.443 215.022 236.443C229.188 236.443 240.913 225.212 241.412 210.943C241.921 196.36 230.512 184.125 215.928 183.615C215.614 183.604 215.301 183.599 214.989 183.599ZM168.168 216.884C168.115 216.884 168.062 216.895 168.011 216.921C167.842 217.007 167.773 217.216 167.86 217.386C170.31 222.219 173.951 226.598 178.682 230.4C178.746 230.451 178.822 230.476 178.898 230.476C179 230.476 179.099 230.432 179.168 230.347C179.288 230.198 179.264 229.98 179.115 229.861C174.461 226.12 170.881 221.818 168.476 217.073C168.415 216.953 168.294 216.884 168.168 216.884Z" fill="#FFB08C"/>
<path d="M192.845 174.206C202.936 170.934 208.701 169.978 217.802 170.074C218.096 170.077 218.343 169.846 218.354 169.552C218.367 169.244 218.122 168.986 217.815 168.983C208.569 168.888 202.705 169.856 192.503 173.158C192.197 173.256 192.042 173.598 192.168 173.892L192.174 173.904C192.285 174.162 192.576 174.292 192.845 174.206Z" fill="#E47E4F"/>
<path d="M240.202 175.865C230.205 164.264 232.74 156.629 237.462 149.686L242.063 173.272L240.202 175.865Z" fill="#FF9A6C"/>
<path d="M240.203 175.865C235.715 167.138 234.802 158.412 237.462 149.686C227.586 153.041 221.391 158.915 220.808 168.627L240.203 175.865Z" fill="#FFC7AD"/>
<path d="M169.325 201.656C169.325 201.656 169.305 201.483 169.267 201.159C169.257 201.079 169.246 200.987 169.235 200.888C169.208 200.743 169.179 200.585 169.147 200.414C169.112 200.244 169.073 200.06 169.033 199.865C168.988 199.673 168.926 199.507 168.867 199.311C168.638 198.547 168.235 197.653 167.615 196.741C166.997 195.832 166.141 194.912 165.032 194.158C163.927 193.404 162.567 192.823 161.067 192.586C160.692 192.536 160.309 192.499 159.924 192.48C159.731 192.481 159.537 192.483 159.342 192.484L159.049 192.488C159.064 192.487 158.85 192.498 158.934 192.494L158.919 192.496L158.89 192.499L158.832 192.507L158.715 192.52L158.48 192.548C158.399 192.558 158.341 192.562 158.209 192.586C157.978 192.629 157.747 192.674 157.516 192.725C157.096 192.845 156.699 192.962 156.307 193.145C155.526 193.487 154.784 193.951 154.145 194.539C153.505 195.126 152.959 195.821 152.539 196.59C152.122 197.36 151.819 198.202 151.69 199.073C151.632 199.508 151.586 199.946 151.602 200.383L151.607 200.71L151.612 200.807L151.614 200.824L151.618 200.856L151.625 200.921L151.641 201.051L151.673 201.316L151.745 201.695C151.772 201.817 151.795 201.953 151.829 202.062L151.933 202.389C151.995 202.609 152.093 202.816 152.183 203.025C152.267 203.236 152.392 203.428 152.499 203.627C152.611 203.823 152.749 204.003 152.875 204.189C153.414 204.908 154.108 205.495 154.876 205.916C155.646 206.337 156.495 206.588 157.34 206.654C157.551 206.681 157.762 206.674 157.971 206.672L158.128 206.67H158.168L158.186 206.669C158.18 206.67 158.319 206.662 158.267 206.664L158.329 206.657L158.577 206.628C158.641 206.624 158.788 206.595 158.901 206.573C159.019 206.548 159.144 206.526 159.253 206.496C159.458 206.427 159.668 206.376 159.862 206.284C161.455 205.634 162.551 204.198 162.85 202.709C162.889 202.524 162.923 202.339 162.935 202.152C162.943 202.059 162.953 201.967 162.957 201.875L162.955 201.599L162.954 201.463L162.953 201.43L162.95 201.346L162.944 201.292L162.918 201.078C162.894 200.917 162.85 200.663 162.797 200.496C162.697 200.138 162.541 199.808 162.362 199.504C162.171 199.207 161.962 198.929 161.714 198.7C160.748 197.752 159.402 197.462 158.401 197.631C157.212 197.834 156.489 198.542 156.101 199.217C155.905 199.556 155.798 199.891 155.744 200.186C155.683 200.481 155.684 200.737 155.689 200.941C155.697 201.152 155.731 201.317 155.756 201.424C155.782 201.532 155.801 201.587 155.801 201.587C155.91 201.914 156.263 202.091 156.59 201.982C156.888 201.883 157.061 201.582 157.008 201.281L157.004 201.259C157.004 201.259 156.999 201.229 156.988 201.172C156.981 201.115 156.971 201.031 156.977 200.917C156.99 200.678 157.044 200.313 157.298 199.951C157.423 199.772 157.594 199.596 157.813 199.458C157.924 199.394 158.041 199.33 158.173 199.289C158.298 199.239 158.454 199.22 158.549 199.208C158.575 199.202 158.648 199.202 158.696 199.2L158.776 199.197L158.817 199.195C158.739 199.199 158.8 199.197 158.785 199.198L158.792 199.199L158.808 199.2C158.888 199.211 158.971 199.209 159.053 199.224C159.217 199.252 159.383 199.289 159.543 199.356C159.863 199.482 160.173 199.685 160.413 199.97C160.541 200.104 160.636 200.269 160.726 200.435C160.805 200.606 160.873 200.786 160.907 200.976C160.922 201.028 160.918 201.059 160.924 201.097L160.932 201.152L160.937 201.179L160.939 201.23L160.947 201.445L160.949 201.499C160.944 201.403 160.947 201.478 160.946 201.459L160.945 201.469L160.942 201.49L160.935 201.57L160.924 201.732C160.917 201.786 160.904 201.839 160.895 201.892C160.881 202 160.849 202.105 160.818 202.208C160.576 203.044 159.877 203.78 159.012 204.039C158.908 204.082 158.792 204.091 158.685 204.122C158.634 204.131 158.595 204.13 158.552 204.137C158.502 204.141 158.488 204.154 158.386 204.154L158.138 204.163L158.076 204.165C158.013 204.168 158.142 204.162 158.124 204.162L158.113 204.161L158.09 204.158L157.997 204.15C157.873 204.139 157.748 204.137 157.628 204.107C157.141 204.024 156.674 203.839 156.264 203.566C155.855 203.291 155.5 202.933 155.244 202.518C155.188 202.408 155.119 202.309 155.07 202.198C155.027 202.084 154.961 201.981 154.932 201.863C154.898 201.748 154.849 201.638 154.832 201.519L154.792 201.345C154.777 201.286 154.783 201.248 154.775 201.201C154.77 201.155 154.762 201.111 154.754 201.066L154.744 200.811L154.74 200.681L154.738 200.617L154.736 200.584L154.735 200.567C154.734 200.544 154.743 200.707 154.74 200.632L154.757 200.439C154.766 200.18 154.822 199.928 154.873 199.681C154.988 199.186 155.209 198.726 155.48 198.316C155.754 197.906 156.092 197.549 156.468 197.259C156.844 196.967 157.267 196.761 157.692 196.617C157.9 196.536 158.134 196.499 158.33 196.457C158.415 196.45 158.498 196.44 158.579 196.427C158.603 196.417 158.703 196.416 158.778 196.413L159.014 196.405L159.132 196.401L159.19 196.399L159.22 196.398L159.234 196.397C159.327 196.392 159.123 196.403 159.148 196.402L159.322 196.418C159.437 196.427 159.551 196.436 159.665 196.444C159.89 196.477 160.109 196.519 160.322 196.564C161.173 196.78 161.907 197.177 162.485 197.65C163.065 198.125 163.486 198.672 163.774 199.191C164.06 199.711 164.236 200.195 164.313 200.607C164.332 200.706 164.366 200.812 164.373 200.887C164.378 200.959 164.384 201.026 164.392 201.087C164.403 201.149 164.411 201.206 164.42 201.258C164.423 201.358 164.427 201.449 164.43 201.531C164.441 201.857 164.447 202.031 164.447 202.031C164.496 203.382 165.63 204.438 166.981 204.39C168.332 204.342 169.389 203.207 169.34 201.856C169.338 201.791 169.332 201.72 169.325 201.656Z" fill="#FFC1A5"/>
<path d="M178.898 230.476C178.821 230.476 178.746 230.451 178.682 230.4C173.951 226.598 170.31 222.219 167.86 217.386C167.773 217.216 167.841 217.007 168.011 216.921C168.062 216.895 168.115 216.884 168.167 216.884C168.294 216.884 168.415 216.953 168.476 217.073C170.881 221.819 174.46 226.121 179.114 229.861C179.263 229.98 179.287 230.198 179.167 230.347C179.099 230.432 178.999 230.476 178.898 230.476Z" fill="url(#paint6_linear_2_9236)"/>
<path d="M220.903 244.107C209.122 244.107 196.907 241.163 187.102 235.923C186.933 235.834 186.87 235.623 186.96 235.455C187.022 235.339 187.142 235.272 187.265 235.272C187.32 235.272 187.376 235.286 187.428 235.313C197.137 240.501 209.243 243.416 220.91 243.416C221.539 243.416 222.164 243.407 222.79 243.39C235.543 243.041 246.431 239.275 253.449 232.785C253.515 232.723 253.599 232.693 253.684 232.693C253.776 232.693 253.869 232.731 253.937 232.804C254.067 232.944 254.057 233.163 253.918 233.293C246.777 239.896 235.729 243.728 222.809 244.081C222.175 244.098 221.539 244.107 220.903 244.107Z" fill="url(#paint7_linear_2_9236)"/>
<path d="M215.022 236.443C214.71 236.443 214.398 236.437 214.084 236.426C199.5 235.918 188.091 223.682 188.599 209.099C189.098 194.829 200.823 183.598 214.989 183.598C215.3 183.598 215.613 183.604 215.928 183.615C230.511 184.124 241.921 196.359 241.411 210.942C240.912 225.212 229.188 236.443 215.022 236.443ZM214.99 184.477C201.294 184.477 189.96 195.334 189.477 209.13C188.985 223.228 200.015 235.056 214.114 235.548C214.417 235.558 214.721 235.565 215.022 235.565C228.717 235.565 240.051 224.707 240.533 210.912C241.025 196.814 229.995 184.986 215.897 184.493C215.593 184.483 215.291 184.477 214.99 184.477Z" fill="#E76B33"/>
<path d="M215.022 235.565C214.721 235.565 214.417 235.559 214.114 235.549C200.015 235.057 188.985 223.229 189.477 209.13C189.96 195.335 201.294 184.478 214.99 184.478C215.291 184.478 215.593 184.483 215.897 184.493C229.995 184.986 241.025 196.814 240.533 210.913C240.051 224.707 228.717 235.565 215.022 235.565ZM215.528 188.978C203.937 188.978 194.344 198.167 193.937 209.842C193.519 221.775 202.855 231.786 214.788 232.203C215.045 232.212 215.3 232.217 215.556 232.217C227.147 232.217 236.741 223.027 237.148 211.351C237.565 199.418 228.229 189.407 216.296 188.991C216.04 188.982 215.784 188.978 215.528 188.978ZM214.986 185.965C206.191 185.965 198.171 190.692 193.908 198.452C193.781 198.683 193.865 198.973 194.096 199.099C194.164 199.137 194.237 199.156 194.308 199.158C194.315 199.158 194.32 199.158 194.326 199.158C194.494 199.158 194.657 199.069 194.744 198.911C198.838 191.458 206.54 186.918 214.987 186.918C215.261 186.918 215.537 186.923 215.812 186.933C217.211 186.981 218.608 187.156 219.965 187.454C220 187.461 220.035 187.465 220.069 187.465C220.289 187.465 220.484 187.312 220.532 187.089C220.588 186.832 220.426 186.578 220.168 186.522C218.757 186.213 217.302 186.031 215.845 185.98C215.557 185.97 215.272 185.965 214.986 185.965Z" fill="url(#paint8_linear_2_9236)"/>
<path d="M194.326 199.158C194.32 199.158 194.315 199.158 194.308 199.158C194.237 199.156 194.165 199.137 194.096 199.099C193.865 198.973 193.781 198.683 193.908 198.452C198.171 190.692 206.191 185.965 214.986 185.965C215.273 185.965 215.557 185.97 215.845 185.98C217.302 186.031 218.757 186.213 220.168 186.522C220.426 186.578 220.588 186.832 220.532 187.089C220.484 187.312 220.289 187.465 220.069 187.465C220.035 187.465 220 187.461 219.965 187.454C218.609 187.156 217.211 186.981 215.812 186.933C215.537 186.923 215.261 186.918 214.987 186.918C206.54 186.918 198.838 191.458 194.744 198.911C194.657 199.069 194.494 199.158 194.326 199.158Z" fill="url(#paint9_linear_2_9236)"/>
<path d="M215.556 232.217C215.301 232.217 215.045 232.212 214.788 232.204C202.856 231.786 193.52 221.775 193.937 209.843C194.344 198.167 203.938 188.978 215.529 188.978C215.784 188.978 216.04 188.982 216.297 188.991C228.229 189.408 237.565 199.419 237.148 211.351C236.741 223.027 227.147 232.217 215.556 232.217Z" fill="url(#paint10_linear_2_9236)"/>
<path d="M212.861 226.586L212.943 224.234C210.497 224.051 208.093 223.388 206.398 222.575C205.793 222.284 205.503 221.583 205.703 220.942L206.376 218.773C206.623 217.978 207.511 217.592 208.268 217.941C209.95 218.717 212.039 219.357 214.313 219.436C216.673 219.518 218.461 218.78 218.519 217.14C218.569 215.659 217.241 214.732 213.991 213.738C209.356 212.294 206.066 210.137 206.21 206.016C206.34 202.295 209.16 199.55 213.906 198.955L213.989 196.604C214.015 195.848 214.65 195.256 215.406 195.282L216.788 195.331C217.543 195.357 218.136 195.991 218.109 196.748L218.035 198.858C220.3 199.028 221.936 199.474 223.231 199.98C223.893 200.24 224.235 200.975 224.025 201.655L223.405 203.66C223.165 204.434 222.316 204.832 221.569 204.521C220.379 204.022 218.691 203.488 216.475 203.41C213.674 203.313 212.833 204.444 212.797 205.485C212.753 206.764 214.402 207.704 218.003 208.951C223.149 210.693 225.234 212.928 225.098 216.809C224.974 220.369 222.222 223.477 217.073 224.099L216.982 226.729C216.955 227.485 216.321 228.078 215.565 228.051L214.184 228.003C213.427 227.976 212.835 227.341 212.861 226.586Z" fill="url(#paint11_linear_2_9236)"/>
<path d="M254.6 196.444C254.6 197.822 255.717 198.939 257.094 198.939C258.472 198.939 259.59 197.822 259.59 196.444C259.59 195.067 258.472 193.95 257.094 193.95C255.717 193.95 254.6 195.067 254.6 196.444Z" fill="url(#paint12_linear_2_9236)"/>
<path d="M179.437 135.691C179.198 135.236 178.523 135.307 178.385 135.803C177.876 137.639 176.642 140.841 174.052 141.978C173.922 142.036 173.798 142.094 173.679 142.152C173.561 141.8 173.56 141.391 173.841 140.961C174.646 139.73 173.192 138.05 173.192 138.05C173.192 138.05 173.096 139.53 171.971 140.462C171.002 141.265 170.537 143.051 171.199 144.517C172.601 149.961 174.7 157.162 166.524 162.421C158.348 167.682 146.835 152.494 146.835 152.494L152.55 170.609C152.55 170.609 161.369 177.118 171.629 167.966C181.888 158.813 175.089 145.495 175.089 145.495C175.089 145.495 182.913 142.338 179.437 135.691Z" fill="#DE865C"/>
<path d="M145.403 125.877C145.403 125.877 147.772 115.252 135.602 118.066C135.602 118.066 129.694 117.1 129.394 122.675C129.394 122.675 125.586 125.185 128.374 130.011C128.374 130.011 117.057 125.639 112.126 135.559C107.195 145.478 111.727 150.936 116.479 152.358C116.479 152.358 112.629 154.291 114.451 158.655C116.274 163.019 125.501 166.096 130.952 160.789C130.952 160.789 146.463 162.838 146.153 151.883C146.153 151.883 153.367 147.224 145.79 138.169C138.212 129.115 145.403 125.877 145.403 125.877Z" fill="url(#paint13_linear_2_9236)"/>
<path d="M146.072 150.504C143.626 149.77 136.506 148.417 129.733 154.667C128.584 155.728 128.114 157.339 128.524 158.846C130.344 165.544 135.143 185.331 130.935 193.892C130.935 193.892 138.351 202.069 146.443 195.479C146.443 195.479 150.073 179.657 154.827 172.711C158.11 167.916 149.593 154.704 147.438 151.512C147.111 151.029 146.63 150.671 146.072 150.504Z" fill="#7654FF"/>
<path d="M139.319 137.198C139.319 137.198 135.702 147.428 135.43 151.941C135.43 151.941 139.428 153.76 143.194 150.692C143.194 150.692 143.59 140.473 144.16 138.643L139.319 137.198Z" fill="#FFCDB6"/>
<path d="M144.343 123.25C144.343 123.25 153.803 136.488 148.149 140.333C142.494 144.179 135.76 134.77 135.76 134.77C135.76 134.77 133.565 127.525 135.859 125.067C138.154 122.608 144.343 123.25 144.343 123.25Z" fill="#FFCFBA"/>
<path d="M139.964 120.085C139.964 120.085 144.31 121.115 144.919 123.081C145.528 125.047 138.757 126.871 136.859 126.96L135.33 134.895C135.33 134.895 130.81 127.431 132.6 123.12C134.391 118.808 139.964 120.085 139.964 120.085Z" fill="url(#paint14_linear_2_9236)"/>
<path d="M137.593 133.796C137.593 133.796 133.911 129.532 132.446 132.312C130.981 135.092 135.76 137.18 137.415 135.815L137.593 133.796Z" fill="#FDD4C1"/>
<path d="M155.887 228.698C155.859 229.417 157.12 235.114 157.806 238.153C158.083 239.376 157.89 240.656 157.268 241.744L133.499 281.749C133.211 282.232 133.002 282.756 132.875 283.305C132.44 285.182 131.536 289.783 132.008 293.968L133.237 296.522L127.919 295.315L126.762 281.034L128.268 280.116C129.568 279.323 130.581 278.137 131.161 276.729C133.311 271.508 138.648 258.219 140.023 251.741C141.586 244.381 149.761 238.403 149.761 238.403L148.325 235.008L155.887 228.698Z" fill="#FFCAB1"/>
<path d="M122.009 290.401C122.009 290.401 124.881 285.847 125.219 284.075C125.557 282.303 126.498 279.173 128.268 280.116C128.268 280.116 129.102 288.725 128.815 292.089C128.527 295.453 132.617 295.345 132.617 295.345C132.617 295.345 133.745 295.503 134.571 296.329C135.14 296.898 134.733 297.887 133.928 297.939C132.59 298.025 130.464 298.048 128.231 297.617C127.451 297.465 126.873 296.802 126.825 296.009L126.236 286.1L122.614 290.674L122.009 290.401Z" fill="#7957FF"/>
<path d="M141.688 235.071C141.688 235.071 140.849 270.855 140.736 275.937C140.622 281.02 141.539 292.283 146.634 295.649L144.416 297.29C144.416 297.29 141.645 294.935 138.939 290.404C135.898 285.313 134.979 284.382 134.979 284.382L135.988 282.316C136.43 281.411 136.56 280.388 136.356 279.402C135.257 274.074 131.584 256.349 130.582 252.533C129.399 248.027 129.315 242.01 133.43 236.973C137.544 231.937 141.688 235.071 141.688 235.071Z" fill="#FFC3A8"/>
<path d="M136.983 298.903C136.825 298.904 136.691 298.791 136.668 298.635C136.498 297.442 135.793 292.659 135.216 291.42C134.554 290.002 132.393 284.033 135.217 283.526C135.217 283.526 142.237 293.783 143.585 295.165C144.933 296.549 146.634 295.649 146.634 295.649C146.634 295.649 147.947 296.037 148.936 297.302C149.407 297.905 148.968 298.789 148.204 298.796L143.475 298.841C142.102 298.854 140.867 298.02 140.356 296.745C139.524 294.666 138.094 291.616 136.428 290.264L137.294 298.555C137.313 298.739 137.169 298.901 136.983 298.903Z" fill="#6B46FF"/>
<path d="M147.562 191.621C147.562 191.621 146.495 195.017 148.132 200.612L158.288 236.075C158.447 236.632 158.147 237.215 157.602 237.41C154.564 238.501 144.578 241.583 130.946 240.643C130.26 240.595 129.685 240.109 129.535 239.438C128.637 235.395 125.573 221.601 124.942 218.766C122.537 207.967 119.853 196.321 131.662 189.279C137.105 191.61 142.182 192.984 147.562 191.621Z" fill="#6842FF"/>
<path d="M104.461 290.621C104.461 290.621 101.193 291.347 101.193 292.073C101.193 292.8 103.372 297.156 105.913 297.882C108.455 298.609 108.092 296.793 107.003 295.704C105.913 294.615 105.55 290.258 104.461 290.621Z" fill="#6E49FF"/>
<path d="M119.093 254.143C119.093 254.143 122.808 264.46 123.146 268.662C123.484 272.865 109.299 280.507 109.299 280.507L108.286 277.069C108.286 277.069 116.729 270.191 116.391 268.28C116.053 266.37 112.338 255.29 112.338 255.29L119.093 254.143Z" fill="#FFC7AD"/>
<path d="M99.8421 257.583C99.8421 257.583 107.948 270.573 106.597 276.687C105.246 282.8 103.219 290.824 103.219 290.824C103.219 290.824 102.636 291.485 104.452 291.884C104.725 291.944 105.005 291.824 105.156 291.59C106.42 289.638 112.114 280.63 113.014 275.541C114.027 269.809 108.961 255.29 108.961 255.29L99.8421 257.583Z" fill="#FFCCB5"/>
<path fill-rule="evenodd" clip-rule="evenodd" d="M76.2689 219.093C77.6441 213.549 81.5695 209.461 86.0319 208.313C87.374 207.967 88.5794 207.163 89.4937 206.077C91.2177 204.03 93.8642 203.003 96.4588 203.647L96.4797 203.652C97.6643 203.95 98.9318 203.67 99.8343 202.793C102.501 200.203 106.201 196.692 112.597 198.074C118.429 199.335 121.336 207.238 119.652 214.028C117.968 220.818 109.255 225.866 103.464 224.429C102.656 224.229 101.897 223.927 101.192 223.536C100.254 223.017 99.1001 223.538 98.8362 224.621C98.8308 224.643 98.8254 224.665 98.82 224.686C96.9541 232.209 90.3931 237.056 84.1658 235.511C77.9388 233.966 74.403 226.615 76.2689 219.093Z" fill="url(#paint15_linear_2_9236)"/>
<path fill-rule="evenodd" clip-rule="evenodd" d="M114.194 239.155C114.194 239.155 120.388 250.868 122.338 258.634C122.439 259.034 122.139 259.43 121.669 259.522C120.78 259.697 119.226 260.098 117.175 260.996C113.848 262.451 110.903 262.512 108.187 262.224C106.055 261.998 100.858 262.245 98.7219 262.362C98.2128 262.39 97.7922 262.043 97.811 261.608C97.9399 258.621 98.5496 247.997 100.915 240.513L114.194 239.155Z" fill="#704BFF"/>
<path d="M128.486 199.458C119.982 207.305 117.905 221.226 111.946 221.481C112.062 221.648 112.123 221.865 112.093 222.126C112.063 222.389 112.032 222.651 112 222.914C112.188 223.149 112.297 223.462 112.248 223.833C111.991 225.771 111.813 227.72 111.556 229.656C132.844 228.474 130.558 199.229 130.558 199.229L128.486 199.458Z" fill="#FFB797"/>
<path d="M108.052 220.233C110.094 220.167 111.799 220.271 113.418 220.565C116.223 221.073 118.345 223.387 118.58 226.228L120.405 248.311C120.405 248.311 114.109 258.653 96.5539 253.494C95.2801 253.119 94.5475 251.784 94.9012 250.505L100.18 225.774C100.945 223.008 105.183 220.326 108.052 220.233Z" fill="url(#paint16_linear_2_9236)"/>
<path fill-rule="evenodd" clip-rule="evenodd" d="M108.346 213.46L106.241 220.451C106.073 221.007 106.345 221.6 106.875 221.835C108.089 222.374 110.32 223.165 112.387 222.832C112.908 222.748 113.311 222.329 113.362 221.803L114.079 214.341L108.346 213.46Z" fill="#FFD2BE"/>
<path fill-rule="evenodd" clip-rule="evenodd" d="M103.059 211.651C104.679 216.306 109.1 220.124 114.453 218.032C118.157 216.585 118.606 212.694 116.986 208.039C115.365 203.384 111.262 200.412 107.506 201.72C103.751 203.028 101.438 206.996 103.059 211.651Z" fill="#FFC7AD"/>
<path fill-rule="evenodd" clip-rule="evenodd" d="M104.678 212.524C104.678 212.524 103.281 209.994 102.359 211.412C101.437 212.831 104.718 215.106 105.609 214.91C106.499 214.714 104.678 212.524 104.678 212.524Z" fill="#FFC3A7"/>
<path d="M127.621 199.444C127.621 199.444 129.529 193.128 132.321 191.824C135.111 190.521 136.582 190.894 136.582 190.894C136.582 190.894 137.302 192.031 136.142 192.992C134.982 193.953 131.335 200.097 129.613 200.817C127.891 201.537 127.621 199.444 127.621 199.444Z" fill="#FFBC9E"/>
<path d="M84.6011 243.804C94.4348 237.704 98.4131 230.319 100.249 224.644C101.76 222.572 104.236 220.903 106.408 223.227C107.783 224.698 108.139 226.866 107.391 228.736C100.235 246.633 86.1706 246.418 86.1706 246.418L84.6011 243.804Z" fill="url(#paint17_linear_2_9236)"/>
<path d="M85.1447 243.952C85.1447 243.952 80.9986 243.386 79.7489 245.41C78.4993 247.433 79.2613 247.789 79.2613 247.789C79.7619 248.319 80.5515 249.546 81.3501 248.626C82.1453 247.711 85.7126 246.875 86.4052 245.618C87.0978 244.362 85.1447 243.952 85.1447 243.952Z" fill="#FFAC87"/>
<path fill-rule="evenodd" clip-rule="evenodd" d="M102.127 210.809C102.127 210.809 107.343 214.819 107.936 204.543C107.936 204.543 110.723 207.105 111.317 204.315C111.317 204.315 116.125 205.095 116.3 203.097C116.475 201.101 108.946 197.059 104.242 201.691C99.5372 206.323 102.127 210.809 102.127 210.809Z" fill="url(#paint18_linear_2_9236)"/>
<path d="M128.767 156.033C128.767 156.033 117.267 166.071 114.486 179.875C111.704 193.679 131.481 195.281 131.481 195.281C131.481 195.281 134.145 192.144 137.338 193.292C140.531 194.438 137.55 187.788 133.822 187.78C130.095 187.772 131.842 190.886 126.552 188.336C121.399 185.852 118.176 178.257 131.209 166.863C131.965 166.202 132.565 165.357 132.925 164.393C135.427 157.663 133.379 153.228 128.767 156.033Z" fill="#FFBA9A"/>
<path d="M285.93 175.732C285.93 175.732 293.889 194.097 298.786 191.649C303.684 189.2 307.357 168.998 307.357 168.998C307.357 168.998 292.052 165.324 285.93 175.732Z" fill="#FFC9B0"/>
<path d="M313.64 289.703C313.64 289.703 314.305 293.47 314.631 297.198C314.758 298.655 313.635 299.92 312.174 299.981C307.208 300.187 296.588 300.59 292.776 300.42C292.204 300.394 291.829 299.807 292.041 299.275C292.219 298.828 292.562 298.467 292.998 298.266L310.542 290.203L313.64 289.703Z" fill="#6F4AFF"/>
<path d="M314.185 287.489L313.651 291.995C313.651 291.995 310.578 293.425 308.479 291.814L309.752 286.793L314.185 287.489Z" fill="#FDCDB8"/>
<path d="M313.783 202.79C314.014 203.966 315.022 261.5 308.872 287.283C308.772 287.704 308.985 288.138 309.386 288.302C310.329 288.687 312.178 289.245 314.394 289.32C315.08 289.342 315.696 288.896 315.89 288.238C317.647 282.255 326.072 252.283 327.17 223.652C328.398 191.659 327.17 222.563 327.17 222.563L326.45 202.786L313.783 202.79Z" fill="#582EFF"/>
<path d="M333.82 291.668C333.82 291.668 334.88 293.569 335.905 298.621C336.09 299.534 335.452 300.407 334.525 300.499C332.886 300.66 330.362 300.867 328.34 300.853C327.408 300.846 326.681 300.035 326.793 299.11C327.017 297.266 327.715 294.24 329.87 291.881L333.82 291.668Z" fill="#7451FF"/>
<path d="M334.75 285.873L333.501 292.686C333.501 292.686 332.266 293.604 329.824 292.938L330.42 285.608L334.75 285.873Z" fill="#FFCBB3"/>
<path d="M338.125 204.555C343.155 234.911 337.033 279.582 334.97 288.325C334.844 288.86 334.411 289.27 333.868 289.361C332.947 289.513 331.43 289.638 329.935 289.203C329.419 289.054 329.057 288.589 329.036 288.053C328.759 280.984 329.258 237.59 324.571 220.44C324.334 219.571 323.802 218.814 323.068 218.292L313.972 211.825L313.275 201.372L338.125 204.555Z" fill="#6C47FF"/>
<path d="M305.52 148.183C323.886 146.346 337.78 150.994 337.78 150.994C342.273 177.211 338.565 207.452 338.565 207.452C326.896 210.512 313.732 205.581 313.732 205.581C311.792 194.622 302.743 163.782 302.743 163.782C295.378 162.868 300.894 148.646 305.52 148.183Z" fill="url(#paint19_linear_2_9236)"/>
<path d="M331.998 165.591L337.78 150.994C337.78 150.994 351.86 160.561 354.175 172.69C351.515 172.886 346.674 173.579 341.935 175.97C340.894 170.244 331.998 165.591 331.998 165.591Z" fill="url(#paint20_linear_2_9236)"/>
<path d="M318.47 179.324C318.47 179.324 334.73 188.39 340.064 180.761C341.171 179.177 342.118 177.151 341.845 175.649C346.583 173.257 351.422 172.671 354.082 172.474C354.78 176.131 353.83 180.316 351.681 184.246C342.338 201.337 316.377 183.222 316.377 183.222L318.47 179.324Z" fill="#FFCAB3"/>
<path d="M320.369 190.627L311.742 160.498C311.644 160.157 311.352 159.907 310.999 159.866C309.435 159.683 304.907 159.172 299.677 158.729C293.378 158.197 286.063 157.765 281.691 158.131C281.069 158.184 280.694 158.842 280.971 159.401C283.456 164.43 293.681 184.886 298.802 191.588C298.971 191.81 299.234 191.94 299.513 191.937L319.53 191.751C320.112 191.746 320.529 191.187 320.369 190.627Z" fill="url(#paint21_linear_2_9236)"/>
<path d="M298.781 156.117L292.527 155.074C292.193 155.018 291.921 155.337 292.027 155.657L292.646 157.534C292.7 157.697 292.843 157.816 293.012 157.839L299.032 158.642C299.344 158.684 299.6 158.401 299.529 158.096L299.145 156.457C299.104 156.281 298.961 156.146 298.781 156.117Z" fill="#6D48FF"/>
<path d="M303.466 161.412L302.95 158.728C302.898 158.459 302.677 158.255 302.404 158.227L289.77 156.945C289.345 156.903 289.005 157.292 289.104 157.707L289.908 161.052C289.972 161.32 290.205 161.513 290.48 161.527L302.825 162.148C303.227 162.169 303.541 161.807 303.466 161.412Z" fill="#7755FF"/>
<path d="M318.285 183.347C318.285 183.347 319.487 178.405 319.002 176.652C318.517 174.9 317.578 172.645 314.447 173.146C311.317 173.647 307.624 174.966 307.624 174.966C307.624 174.966 307.81 177.249 310.189 176.513L308.714 177.655C308.714 177.655 308.925 179.483 310.935 178.506L309.562 180.02C309.562 180.02 310.425 181.522 311.904 180.559C313.382 179.595 314.092 183.943 318.285 183.347Z" fill="#FDCAB3"/>
<path d="M286.208 175.995C286.208 175.995 282.565 172.447 282.044 170.703C281.523 168.961 281.121 166.551 284.04 165.313C286.959 164.075 290.788 163.23 290.788 163.23C290.788 163.23 291.844 165.263 289.436 165.903L291.293 166.088C291.293 166.088 292.085 167.748 289.863 167.988L291.83 168.542C291.83 168.542 291.896 170.273 290.132 170.242C288.368 170.211 290.076 174.271 286.208 175.995Z" fill="#FFD5C2"/>
<path d="M319.506 135.938L324.302 149.809C324.382 150.039 324.287 150.294 324.075 150.411C322.767 151.133 318.057 153.223 312.38 149.624C311.789 149.249 311.386 148.638 311.297 147.943L309.744 135.938H319.506Z" fill="#FFDBCB"/>
<path d="M309.07 123.095C309.07 123.095 303.803 133.009 304.479 137.013C305.153 141.018 311.681 140.731 317.381 137.478L321.364 126.774L309.07 123.095Z" fill="#FFD6C4"/>
<path d="M317.128 132.222C316.897 132.118 316.811 131.836 316.95 131.623C317.372 130.978 318.163 129.663 318.416 128.512C318.416 128.512 319.362 127.905 316.006 127.103C312.649 126.3 307.644 125.052 306.591 122.195C305.566 119.409 308.261 112.404 312.561 117.986C312.725 118.198 313.045 118.203 313.208 117.991C313.913 117.073 315.766 115.168 318.339 116.323C320.748 117.404 321.018 119.168 320.985 120.057C320.975 120.318 321.209 120.522 321.466 120.473C322.684 120.241 325.606 120.042 326.969 123.038C328.092 125.506 327.362 126.904 326.697 127.588C326.482 127.809 326.576 128.174 326.872 128.264C327.671 128.509 328.704 129.187 328.601 131.061C328.458 133.653 325.561 133.425 324.736 133.307C324.601 133.287 324.465 133.334 324.374 133.434C323.666 134.217 320.479 137.541 317.031 137.941C316.731 137.976 316.501 137.681 316.598 137.397L318.091 133.058C318.16 132.857 318.064 132.636 317.868 132.549L317.128 132.222Z" fill="url(#paint22_linear_2_9236)"/>
<path d="M316.529 132.837C316.529 132.837 320.279 130.264 320.553 132.431C320.827 134.598 317.176 135.57 315.368 134.762L316.529 132.837Z" fill="#FFCCB5"/>
<defs>
<linearGradient id="paint0_linear_2_9236" x1="134.063" y1="160.907" x2="316.701" y2="160.907" gradientUnits="userSpaceOnUse">
<stop stop-color="#09005D"/>
<stop offset="1" stop-color="#1A0F91"/>
</linearGradient>
<linearGradient id="paint1_linear_2_9236" x1="134.063" y1="160.907" x2="316.701" y2="160.907" gradientUnits="userSpaceOnUse">
<stop stop-color="#2434AB"/>
<stop offset="1" stop-color="#2D3BC5"/>
</linearGradient>
<linearGradient id="paint2_linear_2_9236" x1="265.583" y1="-88.6442" x2="263.509" y2="-52.0011" gradientUnits="userSpaceOnUse">
<stop stop-color="#FFDEDD"/>
<stop offset="1" stop-color="#FFD4D0"/>
</linearGradient>
<linearGradient id="paint3_linear_2_9236" x1="316.431" y1="-85.7663" x2="314.357" y2="-49.1232" gradientUnits="userSpaceOnUse">
<stop stop-color="#FFDEDD"/>
<stop offset="1" stop-color="#FFD4D0"/>
</linearGradient>
<linearGradient id="paint4_linear_2_9236" x1="161.735" y1="-92.6462" x2="159.615" y2="-56.3694" gradientUnits="userSpaceOnUse">
<stop stop-color="#FFDEDD"/>
<stop offset="1" stop-color="#FFD4D0"/>
</linearGradient>
<linearGradient id="paint5_linear_2_9236" x1="203.031" y1="-92.1841" x2="200.957" y2="-55.5411" gradientUnits="userSpaceOnUse">
<stop stop-color="#FFDEDD"/>
<stop offset="1" stop-color="#FFD4D0"/>
</linearGradient>
<linearGradient id="paint6_linear_2_9236" x1="246.451" y1="183.214" x2="168.674" y2="255.805" gradientUnits="userSpaceOnUse">
<stop stop-color="#FFEAEA"/>
<stop offset="1" stop-color="#FFDEDD"/>
</linearGradient>
<linearGradient id="paint7_linear_2_9236" x1="246.451" y1="183.214" x2="168.674" y2="255.805" gradientUnits="userSpaceOnUse">
<stop stop-color="#FFEAEA"/>
<stop offset="1" stop-color="#FFDEDD"/>
</linearGradient>
<linearGradient id="paint8_linear_2_9236" x1="285.442" y1="67.5329" x2="275.02" y2="88.6144" gradientUnits="userSpaceOnUse">
<stop stop-color="#FF928E"/>
<stop offset="1" stop-color="#FE7062"/>
</linearGradient>
<linearGradient id="paint9_linear_2_9236" x1="285.442" y1="67.5328" x2="275.021" y2="88.6143" gradientUnits="userSpaceOnUse">
<stop stop-color="#FFDEDD"/>
<stop offset="1" stop-color="#FFD4D0"/>
</linearGradient>
<linearGradient id="paint10_linear_2_9236" x1="285.442" y1="67.5332" x2="275.021" y2="88.6146" gradientUnits="userSpaceOnUse">
<stop stop-color="#FFE7E6"/>
<stop offset="1" stop-color="#FFE0DD"/>
</linearGradient>
<linearGradient id="paint11_linear_2_9236" x1="216.877" y1="168.84" x2="215.84" y2="203.409" gradientUnits="userSpaceOnUse">
<stop stop-color="#FF928E"/>
<stop offset="1" stop-color="#FE7062"/>
</linearGradient>
<linearGradient id="paint12_linear_2_9236" x1="254.2" y1="197.94" x2="261.943" y2="193.938" gradientUnits="userSpaceOnUse">
<stop stop-color="#2B3582"/>
<stop offset="0.650246" stop-color="#150E42"/>
<stop offset="1" stop-color="#150E42"/>
</linearGradient>
<linearGradient id="paint13_linear_2_9236" x1="97.6038" y1="118.404" x2="128.65" y2="139.103" gradientUnits="userSpaceOnUse">
<stop stop-color="#09005D"/>
<stop offset="1" stop-color="#1A0F91"/>
</linearGradient>
<linearGradient id="paint14_linear_2_9236" x1="105.947" y1="105.89" x2="136.994" y2="126.59" gradientUnits="userSpaceOnUse">
<stop stop-color="#09005D"/>
<stop offset="1" stop-color="#1A0F91"/>
</linearGradient>
<linearGradient id="paint15_linear_2_9236" x1="118.697" y1="186.656" x2="91.6357" y2="222.995" gradientUnits="userSpaceOnUse">
<stop stop-color="#09005D"/>
<stop offset="1" stop-color="#1A0F91"/>
</linearGradient>
<linearGradient id="paint16_linear_2_9236" x1="220.856" y1="-7.83471" x2="211.176" y2="13.5981" gradientUnits="userSpaceOnUse">
<stop stop-color="#FF928E"/>
<stop offset="1" stop-color="#FE7062"/>
</linearGradient>
<linearGradient id="paint17_linear_2_9236" x1="-825.302" y1="-715.093" x2="-808.926" y2="-698.214" gradientUnits="userSpaceOnUse">
<stop stop-color="#FF928E"/>
<stop offset="1" stop-color="#FE7062"/>
</linearGradient>
<linearGradient id="paint18_linear_2_9236" x1="124.292" y1="187.033" x2="94.4087" y2="220.094" gradientUnits="userSpaceOnUse">
<stop stop-color="#09005D"/>
<stop offset="1" stop-color="#1A0F91"/>
</linearGradient>
<linearGradient id="paint19_linear_2_9236" x1="392.891" y1="21.9888" x2="375.607" y2="59.3232" gradientUnits="userSpaceOnUse">
<stop stop-color="#FF928E"/>
<stop offset="1" stop-color="#FE7062"/>
</linearGradient>
<linearGradient id="paint20_linear_2_9236" x1="407.577" y1="28.7874" x2="390.293" y2="66.1218" gradientUnits="userSpaceOnUse">
<stop stop-color="#FF928E"/>
<stop offset="1" stop-color="#FE7062"/>
</linearGradient>
<linearGradient id="paint21_linear_2_9236" x1="313.12" y1="145.661" x2="296.968" y2="183.556" gradientUnits="userSpaceOnUse">
<stop stop-color="#09005D"/>
<stop offset="1" stop-color="#1A0F91"/>
</linearGradient>
<linearGradient id="paint22_linear_2_9236" x1="330.801" y1="114.433" x2="310.082" y2="130.798" gradientUnits="userSpaceOnUse">
<stop stop-color="#09005D"/>
<stop offset="1" stop-color="#1A0F91"/>
</linearGradient>
</defs>
</svg>
