<svg width="314" height="238" viewBox="0 0 314 238" fill="none" xmlns="http://www.w3.org/2000/svg">
<path d="M268.069 237.893L246.302 237.924L236.732 203.153L277.556 203.1L268.069 237.893Z" fill="#FF9362"/>
<path d="M261.157 181.112C261.157 181.112 275.877 176.79 268.259 151.575C268.259 151.575 248.588 166.613 261.157 181.112Z" fill="#31C5A1"/>
<path d="M237.309 178.454C237.309 178.454 223.441 168.345 209.192 166.454C209.185 166.454 232.122 149.555 237.309 178.454Z" fill="#31C5A1"/>
<path d="M282.515 191.335L313.822 208.629C313.814 208.637 309.462 184.105 282.515 191.335Z" fill="#31C5A1"/>
<path d="M234.514 189.452L204.126 208.311C204.118 208.303 207.232 183.589 234.514 189.452Z" fill="#31C5A1"/>
<path d="M302.46 163.849L272.072 182.707C272.064 182.7 275.178 157.986 302.46 163.849Z" fill="#31C5A1"/>
<path d="M266.899 190.348C266.899 190.348 278.459 208.812 294.546 210.004C294.546 210.004 294.796 188.404 266.899 190.348Z" fill="#31C5A1"/>
<path d="M257.779 193.318C257.779 193.318 246.067 189.794 243.044 181.264C243.044 181.264 254.703 177.93 257.779 193.318Z" fill="#31C5A1"/>
<path d="M236.884 189.003C236.884 189.003 233.11 200.631 224.512 203.48C224.512 203.472 221.428 191.745 236.884 189.003Z" fill="#31C5A1"/>
<path d="M252.059 179.533C252.059 179.533 249.037 157.962 234.841 150.307C234.841 150.307 225.796 169.932 252.059 179.533Z" fill="#31C5A1"/>
<path d="M253.502 203.161C247.092 191.221 235.616 175.051 235.486 174.876L234.909 175.287C235.038 175.469 246.279 191.305 252.697 203.161H253.502Z" fill="#31C5A1"/>
<path d="M256.677 203.161C257.71 196.682 260.983 177.581 264.933 168.725L264.287 168.436C260.284 177.413 256.981 196.766 255.963 203.161H256.677Z" fill="#31C5A1"/>
<path d="M258.256 194.009L257.55 193.978C258.013 182.32 246.226 175.165 246.112 175.097L246.476 174.489C246.598 174.558 258.735 181.917 258.256 194.009Z" fill="#31C5A1"/>
<path d="M227.352 192.626L226.98 192.026C227.102 191.95 239.109 184.644 246.902 191.95L246.416 192.467C239.018 185.525 227.466 192.55 227.352 192.626Z" fill="#31C5A1"/>
<path d="M262.509 203.161H263.352C266.808 197.928 275.535 188.776 292.874 192.672L293.026 191.981C274.874 187.903 265.904 197.844 262.509 203.161Z" fill="#31C5A1"/>
<path d="M262.844 203.161C263.657 199.652 267.522 185.639 279.561 175.014L279.09 174.482C266.71 185.404 262.859 199.857 262.115 203.161H262.844Z" fill="#31C5A1"/>
<path d="M250.821 198.558C250.821 198.558 236.177 203.138 244.228 228.217C244.228 228.217 263.634 212.837 250.821 198.558Z" fill="#31C5A1"/>
<path d="M263.019 200.836C263.019 200.836 254.269 213.444 276.037 228.285C276.037 228.293 281.908 204.239 263.019 200.836Z" fill="#31C5A1"/>
<path d="M112.826 177.884H107.244V223.607H112.826V177.884Z" fill="#180078"/>
<path d="M113.426 178.652H106.879V183.179H113.426V178.652Z" fill="#022F50"/>
<path d="M113.426 211.485H106.879V223.614H113.426V211.485Z" fill="#022F50"/>
<path d="M87.4124 233.921C87.4124 236.131 85.62 237.924 83.4098 237.924C81.1997 237.924 79.4072 236.131 79.4072 233.921C79.4072 231.711 81.1997 229.918 83.4098 229.918C85.62 229.918 87.4124 231.711 87.4124 233.921Z" fill="#022F50"/>
<path d="M83.4782 233.678L107 223.736V214.637L83.3491 229.675L83.4782 233.678Z" fill="#022F50"/>
<path d="M132.877 233.921C132.877 236.131 134.669 237.924 136.88 237.924C139.09 237.924 140.882 236.131 140.882 233.921C140.882 231.711 139.09 229.918 136.88 229.918C134.669 229.918 132.877 231.711 132.877 233.921Z" fill="#022F50"/>
<path d="M136.811 233.678L113.289 223.736V214.637L136.94 229.675L136.811 233.678Z" fill="#022F50"/>
<path d="M113.965 233.921C113.965 236.131 112.173 237.924 109.963 237.924C107.752 237.924 105.96 236.131 105.96 233.921C105.96 231.711 107.752 229.918 109.963 229.918C112.173 229.918 113.965 231.711 113.965 233.921Z" fill="#022F50"/>
<path d="M111.056 234.042H108.868L106.848 214.151H113.076L111.056 234.042Z" fill="#022F50"/>
<path d="M124.834 165.391L105.99 98.0908C105.086 94.8629 102.14 92.6147 98.775 92.6147H64.7338C64.7414 93.5489 64.5211 94.4907 64.0654 95.2882L87.7773 169.993L148.546 169.811L124.834 165.391Z" fill="#31C5A1"/>
<path d="M64.8776 92.6221C67.1409 92.6221 69.1156 94.1715 69.6625 96.3664L87.7767 170.001H81.5336C79.1867 170.001 77.6069 173.495 77.0449 171.216L60.1003 98.7133C59.3407 95.6145 61.6876 92.6221 64.8776 92.6221Z" fill="#0E9776"/>
<path d="M148.72 169.796V176.647C148.72 178.576 147.156 180.148 145.227 180.148H80.6229C78.6938 180.148 77.1216 178.576 77.1216 176.647V171.558C77.1216 170.586 77.9039 169.804 78.8912 169.804H148.72V169.796Z" fill="#0E9776"/>
<path d="M148.721 169.796V176.646C148.721 178.576 147.156 180.148 145.227 180.148H116.662C114.459 180.148 112.667 178.355 112.667 176.138V172.051C112.667 170.806 113.677 169.788 114.93 169.788H148.721V169.796Z" fill="#31C5A1"/>
<path d="M148.545 169.819L87.7769 169.758L124.833 165.391L148.545 169.819Z" fill="#0E9776"/>
<path d="M75.2073 92.5615C74.9263 97.8401 74.0984 132.777 74.0908 133.134L74.6529 133.15C74.6605 132.793 75.4883 97.7262 75.7693 92.5615H75.2073V92.5615Z" fill="#022F50"/>
<path d="M92.0609 92.5615H91.2026L118.203 121.833L118.613 121.446L92.0609 92.5615Z" fill="#022F50"/>
<path d="M120.074 120.661L73.8105 132.964L76.9336 144.708L123.197 132.405L120.074 120.661Z" fill="#FC5B00"/>
<path d="M86.7743 132.921L85.9009 138.884L84.4122 139.278L80.6982 134.532L82.3388 134.099L84.716 137.197L85.2705 133.316L86.7743 132.921Z" fill="white"/>
<path d="M91.6433 136.248L89.38 136.848L89.2356 138.002L87.6938 138.413L88.6356 132.428L90.1243 132.033L93.9218 136.757L92.3496 137.175L91.6433 136.248ZM90.899 135.245L89.7521 133.719L89.5167 135.618L90.899 135.245Z" fill="white"/>
<path d="M93.2835 134.06C92.8506 132.427 93.7924 130.946 95.4861 130.491C96.4735 130.225 97.3621 130.377 98.0608 130.886L97.3317 132.017C96.8836 131.698 96.4127 131.592 95.9038 131.729C95.0228 131.964 94.5747 132.739 94.8177 133.658C95.0608 134.577 95.8355 135.025 96.7165 134.79C97.2254 134.653 97.5823 134.319 97.8102 133.825L99.0026 134.44C98.6533 135.23 97.9545 135.8 96.9671 136.066C95.2658 136.514 93.7165 135.686 93.2835 134.06Z" fill="white"/>
<path d="M103.134 133.187L100.871 133.787L100.726 134.941L99.1846 135.352L100.126 129.367L101.615 128.972L105.413 133.696L103.84 134.114L103.134 133.187ZM102.397 132.192L101.25 130.665L101.015 132.564L102.397 132.192Z" fill="white"/>
<path d="M109.514 126.875L110.934 132.23L109.688 132.564L106.567 130.339L107.326 133.195L105.845 133.59L104.417 128.235L105.663 127.901L108.785 130.126L108.025 127.27L109.514 126.875Z" fill="white"/>
<path d="M112.043 127.483L110.395 127.924L110.076 126.724L114.876 125.448L115.195 126.648L113.555 127.081L114.656 131.235L113.145 131.638L112.043 127.483Z" fill="white"/>
<path d="M42.5103 225.764C42.2596 225.263 41.9862 224.739 41.7356 224.207H29.2037L22.4289 232.995L11.7122 236.883C11.1654 237.081 11.3097 237.886 11.8869 237.886H30.6543C31.0645 237.886 34.543 233.959 37.8545 233.314V237.916H41.0596C41.3178 236.982 41.8799 235.038 42.5027 233.306V225.764H42.5103Z" fill="#022F50"/>
<path d="M44.0068 225.764C44.2575 225.263 44.5309 224.739 44.7815 224.207H57.3134L64.0882 232.995L74.8049 236.883C75.3517 237.081 75.2074 237.886 74.6302 237.886H55.8552C55.445 237.886 51.9665 233.959 48.655 233.314V237.916H45.4499C45.1917 236.982 44.6296 235.038 44.0068 233.306V225.764Z" fill="#022F50"/>
<path d="M42.4874 225.392L41.295 143.691L43.7938 225.574H58.7561C59.7282 209.943 64.3992 140.274 63.6625 126.792C63.6625 126.792 62.9865 117.656 60.1991 108.982H22.5959C21.0921 112.772 18.7756 119.987 19.0566 127.916C19.4211 138.071 26.6593 209.207 27.9884 225.483L42.4874 225.392Z" fill="#582EFF"/>
<path d="M51.7005 48.4488C51.5562 46.8767 51.4955 45.1602 51.7385 43.8386V43.831C51.8524 43.1779 52.0347 42.6158 52.3233 42.2133L46.0498 38.355L38.9939 40.0183C39.2142 40.4588 39.3585 42.1905 39.3661 42.8513L39.3205 41.7044C39.3509 43.0487 39.0775 45.8893 38.6825 47.4159C38.1053 49.6489 37.3838 51.54 37.3838 51.54L44.7434 54.4186L52.3461 52.7173C52.3385 52.7249 51.9208 50.7426 51.7005 48.4488Z" fill="#FFB27D"/>
<path d="M39.3052 41.7119C39.3052 41.7119 43.5129 45.1981 51.951 42.9499C51.9586 42.9575 44.7964 51.7982 39.3052 41.7119Z" fill="#E27B56"/>
<path d="M37.7181 50.0059C37.7181 50.0059 44.379 56.0364 52.164 51.054C52.164 51.054 56.159 53.3705 59.7363 53.5756L58.4071 85.2015L57.2147 99.0169L61.7034 112.134C61.7034 112.134 35.6826 116.691 21.7305 109.399L27.3432 94.8093C27.3432 94.8093 26.1508 57.5706 24.89 53.0135C24.8824 53.0211 31.3383 52.254 37.7181 50.0059Z" fill="white"/>
<path d="M90.8989 88.3006L74.6758 88.012C74.6758 88.012 69.1998 60.5938 65.9794 56.8722C62.7971 53.2113 52.0349 48.5935 51.7007 48.4492L52.6121 49.4973C52.6653 49.5049 52.7184 49.5049 52.7716 49.5125C54.0628 49.7404 54.9666 50.4012 55.8324 51.2138C57.8375 51.586 59.8198 53.0746 60.7996 54.8974C61.4224 55.2544 62.0376 55.6266 62.6148 56.0595C64.3845 57.4038 64.4148 59.5684 62.6148 60.9052C61.9389 61.4064 61.2553 61.8773 60.5565 62.3406C60.2755 62.5229 60.0021 62.6976 59.7211 62.8875C59.6527 62.9634 59.5996 63.0166 59.5388 63.0622C59.7059 63.4191 59.873 63.8141 59.9717 64.1862C60.5186 66.2065 59.9186 68.2724 59.273 70.1788C58.4071 72.7003 58.4603 75.1232 58.1565 77.7435C57.9135 79.8625 57.359 82.0347 58.1033 84.1081C58.4831 85.1639 58.2249 86.0297 57.6552 86.6297C58.5287 89.4399 59.6224 92.2197 60.9895 94.5894C61.8553 93.4729 63.192 92.7286 64.7338 92.683V92.6754H92.2888L90.8989 88.3006Z" fill="#180078"/>
<path d="M74.4633 88.4141C74.6152 88.6951 74.6 88.9229 74.5468 89.1432C74.4785 89.3559 74.3645 89.5609 74.0911 89.7204C73.9392 89.4394 73.9544 89.2115 74.0076 88.9913C74.0759 88.771 74.1898 88.5736 74.4633 88.4141Z" fill="#82C5D9"/>
<path d="M100.18 91.4978C100.18 91.4978 99.0562 90.6547 98.3118 90.4724C98.3118 90.4724 94.8029 88.2015 90.899 88.3078C90.899 88.3078 90.8914 88.3078 90.8611 88.3078C90.7243 88.3154 90.2079 88.3382 89.3876 88.361C89.2357 89.7965 89.0079 91.2471 88.7876 92.6826H91.013C91.8256 93.351 95.1067 96.0092 96.2536 96.1763C97.5599 96.3662 95.8814 93.3737 95.8814 93.3737C95.8814 93.3737 97.3776 92.8117 98.403 93.0016C99.4283 93.1915 103.279 94.1332 103.279 94.1332C103.279 94.1332 101.957 91.9686 100.18 91.4978Z" fill="#E29579"/>
<path d="M52.0349 51.0923C52.0349 51.0923 51.7919 50.4695 51.7007 48.4492L64.3693 55.824L58.0578 96.2907L66.3364 127.355C66.3364 127.355 58.4831 130.233 49.5741 128.334L47.1133 88.012L52.0349 51.0923Z" fill="#180078"/>
<path d="M51.7462 48.3955C53.3639 49.5348 54.9513 50.712 56.5311 51.9044C58.1109 53.0969 59.6603 54.3273 61.1565 55.6412C61.5287 55.9678 61.8932 56.3096 62.2426 56.6666C62.4173 56.8488 62.592 57.0387 62.7515 57.2438C62.8274 57.3577 62.911 57.4564 62.9641 57.6311C63.0021 57.7071 62.9945 57.8058 62.9945 57.9046C62.9793 57.9881 62.9641 58.0716 62.9337 58.1476C62.6831 58.6944 62.2806 59.0134 61.9084 59.3552C61.5211 59.6818 61.1185 59.978 60.7084 60.2666C59.0678 61.3983 57.3438 62.3856 55.5893 63.3198L55.6197 62.8641C56.6678 63.6085 57.7083 64.3528 58.6501 65.2718C58.878 65.5224 59.1134 65.7275 59.2881 66.1376C59.3261 66.2439 59.3565 66.4186 59.2653 66.5933L59.159 66.806L58.9387 67.2313L58.0577 68.925L54.5412 75.6998C52.1639 80.2037 49.7942 84.7076 47.3486 89.1735C49.5588 84.5861 51.8525 80.029 54.131 75.472L57.602 68.6592L58.4678 66.9579L58.6881 66.5326L58.7944 66.3199C58.7716 66.3503 58.7868 66.3579 58.7716 66.3123C58.6957 66.1224 58.4678 65.8718 58.2628 65.6591C57.3817 64.8009 56.3488 64.0338 55.3311 63.2971C55.2095 63.2135 55.1792 63.0464 55.2703 62.9249C55.2931 62.8869 55.3311 62.8641 55.3614 62.8414C57.1007 61.9299 58.8248 60.9578 60.4426 59.8565C60.8451 59.5755 61.24 59.2945 61.6122 58.9831C61.9692 58.6717 62.3565 58.3299 62.5236 57.9729C62.5388 57.9349 62.5464 57.8894 62.5616 57.859C62.554 57.8286 62.5692 57.8058 62.5464 57.7678C62.5312 57.7071 62.4628 57.6007 62.4021 57.5096C62.2654 57.3273 62.1135 57.1374 61.9464 56.9628C61.6122 56.6058 61.2628 56.264 60.9059 55.9298C59.4628 54.5931 57.921 53.3475 56.3944 52.0943C54.8526 50.8411 53.2956 49.6183 51.7462 48.3955Z" fill="#82C5D9"/>
<path d="M37.9148 49.9677C37.9148 49.9677 38.4313 49.8917 38.6668 47.4233L24.5323 52.3905C24.5323 52.3905 23.0589 68.6592 23.5525 73.8466C24.0462 79.0341 26.9855 94.5356 26.9855 94.5356L15.9043 125.038C15.9043 125.038 28.2463 131.562 37.4364 128.546C37.4364 128.546 43.7479 92.0824 43.8846 88.6419C44.0213 85.2013 37.9148 49.9677 37.9148 49.9677Z" fill="#180078"/>
<path d="M38.4619 47.4614C37.0264 48.8285 35.5909 50.1881 34.1858 51.5704C32.7807 52.9527 31.3604 54.335 30.0313 55.7856C29.6971 56.1502 29.3781 56.5148 29.0743 56.8945C28.9224 57.0844 28.7781 57.2819 28.6566 57.4717C28.6034 57.5629 28.5351 57.6768 28.5199 57.7452C28.4971 57.7907 28.5123 57.8135 28.5047 57.8439C28.5123 57.8819 28.5275 57.9199 28.5351 57.9578C28.7022 58.3148 29.0895 58.6566 29.4465 58.968C29.8186 59.2794 30.2136 59.568 30.6161 59.8414C32.2339 60.9427 33.9656 61.9149 35.7048 62.8263C35.834 62.8946 35.8871 63.0541 35.8188 63.1908C35.796 63.2288 35.7732 63.2592 35.7352 63.282C34.7099 64.0111 33.6845 64.7782 32.8035 65.6441C32.5984 65.8491 32.363 66.1074 32.2946 66.2972C32.2795 66.3428 32.2946 66.3352 32.2719 66.3048L32.3782 66.5175L32.5984 66.9428L33.4643 68.6441L36.9352 75.4569C39.2214 80.014 41.5075 84.571 43.7176 89.1584C41.272 84.6925 38.9024 80.181 36.5251 75.6848L33.0086 68.9099L32.1276 67.2162L31.9073 66.7909L31.801 66.5782C31.7022 66.4036 31.7402 66.2289 31.7782 66.1225C31.9453 65.72 32.1883 65.5073 32.4162 65.2567C33.358 64.3377 34.3909 63.5934 35.4466 62.8491L35.477 63.3048C33.7225 62.363 32.006 61.3832 30.3579 60.244C29.9478 59.9553 29.5452 59.6591 29.1579 59.3325C28.7857 58.9908 28.3832 58.6718 28.1325 58.1249C28.1098 58.049 28.087 57.9654 28.0718 57.8819C28.0718 57.7907 28.0718 57.6844 28.1022 57.6161C28.1553 57.449 28.2313 57.3502 28.2996 57.2287C28.4439 57.0084 28.6034 56.811 28.7629 56.6211C29.0895 56.2337 29.4237 55.8692 29.7655 55.5122C31.1478 54.0843 32.5833 52.7172 34.0415 51.3881C35.4846 50.0589 36.958 48.7374 38.4619 47.4614Z" fill="#82C5D9"/>
<path d="M36.6772 69.9733C36.6772 69.9733 38.8039 66.1985 41.447 69.867L36.6772 69.9733Z" fill="#31C5A1"/>
<path d="M33.0703 76.794C33.0703 76.794 34.5438 72.442 35.9868 70.3838C35.9868 70.3838 37.7793 68.6673 40.7869 69.4647C41.6831 69.7002 42.3363 70.4901 42.4123 71.4167L42.8832 77.394C42.8832 77.3864 36.3286 74.7054 33.0703 76.794Z" fill="#022F50"/>
<path d="M37.9226 82.9682C40.6785 82.9682 42.9126 80.7341 42.9126 77.9783C42.9126 75.2224 40.6785 72.9883 37.9226 72.9883C35.1667 72.9883 32.9326 75.2224 32.9326 77.9783C32.9326 80.7341 35.1667 82.9682 37.9226 82.9682Z" fill="#31C5A1"/>
<path d="M42.1378 77.9789C42.1378 78.2903 42.1074 78.6017 42.0391 78.8904C41.8796 79.5967 41.553 80.2347 41.0821 80.7587C40.7251 81.1765 40.277 81.5183 39.7757 81.7537C39.2744 82.0119 38.7124 82.1562 38.12 82.179C38.0516 82.1866 37.9909 82.1866 37.9225 82.1866C35.5984 82.1866 33.7148 80.303 33.7148 77.9713C33.7148 77.9106 33.7148 77.8422 33.7224 77.7815C33.7452 77.1891 33.8895 76.627 34.1402 76.1181C34.3832 75.6169 34.725 75.1764 35.1351 74.8118C35.6592 74.3485 36.2972 74.0143 37.0035 73.8624C37.2921 73.7941 37.5959 73.7637 37.9149 73.7637C40.2542 73.7713 42.1378 75.6548 42.1378 77.9789Z" fill="#180078"/>
<path opacity="0.71" d="M39.7766 81.753C39.2754 82.0112 38.7133 82.1555 38.1209 82.1783L33.731 77.7883C33.7537 77.1959 33.898 76.6339 34.1487 76.125L39.7766 81.753Z" fill="white"/>
<path opacity="0.71" d="M42.0389 78.89C41.8794 79.5963 41.5528 80.2343 41.0819 80.7584L35.1426 74.819C35.6666 74.3557 36.3046 74.0215 37.011 73.8696L42.0389 78.89Z" fill="white"/>
<path d="M50.3561 69.9733C50.3561 69.9733 48.2295 66.1985 45.5864 69.867L50.3561 69.9733Z" fill="#31C5A1"/>
<path d="M53.9564 76.794C53.9564 76.794 52.483 72.442 51.0399 70.3838C51.0399 70.3838 49.2474 68.6673 46.2398 69.4647C45.3436 69.7002 44.6904 70.4901 44.6144 71.4167L44.1436 77.394C44.1511 77.3864 50.6981 74.7054 53.9564 76.794Z" fill="#022F50"/>
<path d="M49.1033 82.9682C51.8591 82.9682 54.0932 80.7341 54.0932 77.9783C54.0932 75.2224 51.8591 72.9883 49.1033 72.9883C46.3474 72.9883 44.1133 75.2224 44.1133 77.9783C44.1133 80.7341 46.3474 82.9682 49.1033 82.9682Z" fill="#31C5A1"/>
<path d="M53.3111 77.9782C53.3111 78.6769 53.144 79.3377 52.8326 79.9149C52.4681 80.6289 51.906 81.2213 51.2149 81.6162C50.5997 81.9884 49.8706 82.1935 49.1035 82.1935C46.7718 82.1935 44.8882 80.3099 44.8882 77.9782C44.8882 77.2111 45.0933 76.4895 45.4578 75.8668C45.8528 75.1756 46.4528 74.6136 47.1667 74.249C47.7439 73.9376 48.4047 73.7705 49.1035 73.7705C51.4276 73.7705 53.3111 75.6541 53.3111 77.9782Z" fill="#180078"/>
<path opacity="0.71" d="M52.8406 79.9081C52.4761 80.6221 51.914 81.2145 51.2229 81.6094L45.4658 75.8599C45.8608 75.1688 46.4608 74.6068 47.1747 74.2422L52.8406 79.9081Z" fill="white"/>
<path d="M41.7129 70.7477C41.7129 70.7477 43.3914 69.9882 45.4725 70.7477L44.5914 75.7529C44.5914 75.7529 43.6724 75.2744 42.6319 75.7529L41.7129 70.7477Z" fill="#022F50"/>
<path d="M37.551 69.1379C37.551 69.1379 36.1611 68.9404 35.4167 69.1379C35.4167 69.1379 31.961 68.8949 28.8014 70.3455C28.7103 70.3531 28.5964 70.3683 28.4976 70.3835C28.1406 71.7202 27.852 73.0798 27.5254 74.4013C27.1837 75.8216 26.8571 77.2495 26.5381 78.6697C28.4065 77.69 30.2749 76.6343 32.166 75.4646L33.3585 75.9127L34.0268 74.1962L34.004 74.1431C34.3382 73.4823 34.68 72.8519 34.68 72.8519C34.68 72.8519 35.7205 71.6367 36.7079 71.3025C37.6953 70.9683 41.5688 69.7075 41.5688 69.7075C41.5688 69.7075 39.3282 68.6898 37.551 69.1379Z" fill="#FFB27D"/>
<path d="M23.8341 52.2541C21.7987 53.1655 0.0615303 70.5582 0.410904 78.7609C0.760278 86.9636 9.10727 86.1965 10.9984 85.9155C12.8896 85.6345 32.2495 76.3077 32.2495 76.3077L31.1938 69.1531L27.4798 69.8519C27.4798 69.8519 28.0266 69.3506 28.8621 68.5531C28.7178 68.462 28.5811 68.3557 28.4444 68.2341C27.4494 67.3227 27.381 66.2063 27.8216 65.2872C27.4266 65.0062 27.0772 64.6493 26.819 64.2163C26.2418 63.2366 26.2342 62.1809 26.5836 61.2163C24.5481 59.7201 24.1379 56.9403 26.781 54.6541C28.3988 53.2566 29.0292 52.5655 31.133 51.9351C32.8723 49.7629 35.6825 48.6616 38.4015 47.7578L38.6749 47.416C38.6673 47.4236 25.8696 51.3351 23.8341 52.2541Z" fill="#180078"/>
<path d="M24.4414 79.8999C25.6414 79.0796 26.9098 78.4112 28.201 77.7808C29.4997 77.1656 30.8137 76.5884 32.2036 76.1631C31.0036 76.9834 29.7352 77.6517 28.444 78.2821C27.1453 78.9049 25.8313 79.4821 24.4414 79.8999Z" fill="#82C5D9"/>
<path d="M61.4525 29.9171C61.1563 28.6639 59.9335 27.5778 58.6044 27.7905C60.5335 10.7547 46.1029 11.9395 46.1029 11.9395C37.1103 12.0079 35.3406 21.4258 35.0292 26.2639C34.7558 26.074 34.49 25.9297 34.3457 25.8765C33.0621 25.4436 31.6722 26.3322 31.1785 27.5322C30.7912 28.4892 30.9127 29.6133 31.4064 30.5171C31.8165 31.269 32.5153 31.9982 33.2976 32.3703C33.4723 32.4539 34.2242 32.6437 34.8394 32.6741C35.3406 43.9452 45.5408 43.6414 45.5408 43.6414C54.2752 44.7655 57.0322 38.8185 57.8904 34.4438C58.217 34.4286 58.4981 34.3906 58.5968 34.3678C59.4247 34.1248 60.2373 33.5172 60.7614 32.8336C61.3918 32.0133 61.688 30.9197 61.4525 29.9171Z" fill="#FFB27D"/>
<path d="M49.5133 32.8257C49.1791 33.3574 48.7082 33.8055 48.1538 34.1397C47.5993 34.4738 46.931 34.6637 46.255 34.6106C45.5866 34.5422 44.9486 34.2612 44.4626 33.8283C44.2043 33.6308 44.0144 33.365 43.8018 33.1371C43.6271 32.8713 43.46 32.6055 43.3081 32.332C43.5511 32.5371 43.7638 32.7574 43.9841 32.97C44.2347 33.1447 44.4474 33.3574 44.698 33.5169C45.1917 33.851 45.7385 34.0561 46.293 34.1093C46.855 34.17 47.4246 34.0333 47.9639 33.7979C48.5183 33.5548 49.0348 33.2207 49.5133 32.8257Z" fill="#022F50"/>
<path d="M64.0877 48.6161C63.7308 46.8997 62.8649 45.3427 62.0143 43.8009C61.194 42.3122 60.3813 40.7856 60.0699 39.1223C62.5459 36.0615 64.0725 31.8082 63.6168 26.3246C63.2827 22.2992 61.87 19.1776 60.0396 16.7776C54.2065 9.10652 43.2241 7.32168 35.7353 13.3826C33.7074 15.0231 31.801 17.3244 30.3276 20.5219C27.7225 26.1803 28.2693 30.8816 30.358 34.6032C30.1833 35.2184 29.9402 35.8184 29.6364 36.3729C28.0263 39.2894 24.8591 41.1502 23.4768 44.173C22.3148 46.725 22.6566 49.6415 23.7123 52.2998C23.7579 52.2694 23.7958 52.2542 23.8338 52.239C25.8085 51.3504 37.8847 47.6516 38.6366 47.4161C38.667 47.4085 38.6746 47.4085 38.6746 47.4085C39.0392 45.9655 39.305 43.3528 39.305 41.9325C39.305 41.9325 39.305 41.9325 39.305 41.9249C39.2974 41.8565 39.2974 41.7882 39.2822 41.7198C37.0644 40.2084 35.0593 37.5045 34.8467 32.6589C34.2315 32.6285 33.4796 32.431 33.2973 32.3475C32.515 31.9753 31.8162 31.2462 31.4061 30.4943C31.0947 29.9171 30.9276 29.2487 30.9504 28.5955C30.9504 28.4132 30.9732 28.2385 31.0036 28.0639C31.0263 27.9727 31.0415 27.8816 31.0719 27.798C31.1023 27.6993 31.1327 27.6006 31.1707 27.5094C31.6567 26.3094 33.0542 25.4284 34.3378 25.8613C34.4669 25.8993 34.6796 26.0208 34.915 26.1727C35.5378 27.6689 36.3049 29.0208 36.3049 29.0208L36.4948 26.4005C38.9252 25.8841 38.6214 19.5498 41.143 17.9396C43.6646 16.3294 45.3507 18.2206 45.3507 18.2206C45.3507 18.2206 49.2621 24.8587 55.6496 25.0106C55.9914 26.0815 56.4091 27.1676 56.8116 27.593L55.8547 30.0386C55.8547 30.0386 57.3737 28.9753 58.6573 27.76C59.956 27.6006 61.1484 28.6639 61.4371 29.8943C61.6725 30.8968 61.3763 31.9905 60.7459 32.8108C60.67 32.9095 60.5864 33.0007 60.5029 33.0994C60.4193 33.1981 60.3206 33.2817 60.2294 33.3728C59.7585 33.8133 59.1737 34.1703 58.5889 34.345C58.4826 34.3754 58.2091 34.4133 57.875 34.4285C57.2825 37.4742 55.7635 41.2869 51.9432 42.935V42.9426C51.9432 42.9426 51.9432 42.9502 51.9356 42.9502C51.8445 43.216 51.7761 43.5047 51.7229 43.8161V43.8236C51.4799 45.1452 51.5407 46.8617 51.685 48.4339L51.6926 48.4415H51.7002C52.0268 48.5782 59.0826 51.6162 63.4498 54.6998C64.1637 52.7251 64.5131 50.6744 64.0877 48.6161Z" fill="#022F50"/>
<path opacity="0.5" d="M50.2269 23.2488C53.0522 23.0361 55.8852 23.0361 58.7485 23.4386C60.3663 23.6665 61.9157 24.0842 63.4043 24.6766C63.0625 22.6412 62.4322 20.8563 61.6271 19.2993C57.2675 19.6943 52.7104 21.669 48.1762 21.0842C47.9483 21.0538 47.7281 21.0158 47.5078 20.9778C48.2445 21.7373 49.1559 22.55 50.2269 23.2488Z" fill="#022F50"/>
<path opacity="0.5" d="M32.6142 23.6509C34.3382 24.4028 36.2218 24.6838 38.0978 24.6838C38.9712 22.6332 39.351 19.3749 40.946 18.1141C39.7763 17.4229 38.6143 16.7242 37.4067 16.1318C36.8826 15.8735 35.6674 15.2507 34.3003 14.6963C32.8192 16.1925 31.4445 18.1065 30.3204 20.5369C30.1002 21.0154 29.9103 21.4939 29.728 21.9572C30.6698 22.5648 31.5964 23.2028 32.6142 23.6509Z" fill="#022F50"/>
<path d="M166.059 235.19H191.032C185.184 234.4 179.115 230.131 179.115 230.131L179.146 224.67H165.983C166.295 227.503 166.507 229.357 166.568 229.934C166.029 231.825 165.976 233.845 166.059 235.19Z" fill="#724A32"/>
<path d="M166.333 230.351C166.333 230.351 165.14 235.888 166.196 237.924H169.842L170.054 236.313L171.102 237.924H195.224C195.224 237.924 195.012 235.888 194.245 235.045C193.47 234.202 183.794 233.291 179.237 229.227C179.237 229.227 173.837 228.809 173.275 229.227C172.713 229.645 172.5 232.379 171.171 232.242C169.842 232.106 168.019 230.07 168.019 230.07L166.333 230.351Z" fill="#022F50"/>
<path d="M203.063 235.19H228.036C221.906 234.392 214.919 230.002 214.919 230.002C214.835 228.969 214.691 227.139 214.493 224.67H202.463L203.617 229.812C203.033 231.741 202.972 233.815 203.063 235.19Z" fill="#724A32"/>
<path d="M203.078 230.351C203.078 230.351 201.885 235.888 202.941 237.924H206.587L206.799 236.313L207.855 237.924H231.97C231.97 237.924 231.757 235.888 230.99 235.045C230.215 234.202 220.539 233.291 215.982 229.227C215.982 229.227 210.582 228.809 210.02 229.227C209.458 229.645 209.245 232.379 207.916 232.242C206.587 232.106 204.764 230.07 204.764 230.07L203.078 230.351Z" fill="#022F50"/>
<path d="M215.42 227.966L200.974 118.149C200.974 118.149 198.992 109.286 197.336 105.944H157.888C157.227 108.503 156.399 112.529 156.239 117.162C155.958 125.159 165.635 228.521 165.635 228.521H179.944L179.807 123.048L202.949 227.959H215.42V227.966Z" fill="#022F50"/>
<path d="M167.169 50.067C167.161 50.067 167.154 50.067 167.146 50.067C168.164 51.4493 169.06 52.9531 169.933 54.4722C171.095 55.8165 172.341 57.0925 173.518 58.4216C173.89 58.8393 174.263 59.2647 174.635 59.6824C178.478 60.1381 182.359 60.4191 186.225 60.1837C186.764 59.3938 187.296 58.6039 187.827 57.814C188.777 56.4013 189.749 55.0038 190.698 53.5911C190.911 53.2266 191.124 52.8696 191.336 52.5126C189.498 51.5329 188.078 50.7809 186.984 49.4594C186.817 48.8442 186.4 47.2872 186.096 45.5327C185.83 43.9758 185.632 42.2745 185.769 40.9301V40.9225C185.83 40.2618 185.974 39.6921 186.225 39.2668L171.187 30.8135C171.194 30.8666 171.202 30.9122 171.217 30.9578C171.452 32.3553 173.268 43.315 171.407 49.1252C170.283 49.6417 168.885 50.0063 167.169 50.067Z" fill="#724A32"/>
<path d="M186.095 45.5322C177.923 46.5652 173.784 36.8055 173.632 36.4409C175.143 38.8334 177.331 40.0486 179.465 40.6258C182.093 41.3473 184.652 41.1043 185.723 40.9448C185.738 40.9372 185.754 40.9372 185.776 40.9372C185.64 42.2739 185.83 43.9752 186.095 45.5322Z" fill="#442817"/>
<path d="M193.402 51.2893C191.997 50.545 186.764 49.0488 186.764 49.0488L181.903 57.654C181.903 57.654 178.167 50.4539 177.043 49.2387C175.918 48.0235 171.339 48.3045 171.339 48.3045C171.339 48.3045 163.25 49.2842 159.604 51.1071C155.959 52.9299 146.7 63.3124 146.7 63.3124L158.321 74.3784L160.212 92.3408L156.376 108.146H178.911L179.845 106.559L180.407 108.146H198.172L195.263 77.7962L197.238 80.3785C197.359 80.3405 197.481 80.2874 197.602 80.2418C202.775 78.1076 204.719 68.8795 205.167 66.2289C205.243 65.7732 205.281 65.5073 205.281 65.5073C205.281 65.5073 194.8 52.0413 193.402 51.2893Z" fill="#FF9362"/>
<path d="M195.225 77.3333C195.02 75.0775 194.974 72.8218 194.982 70.566C195.005 68.3103 195.065 66.0546 195.301 63.7988C195.513 66.0546 195.551 68.3103 195.544 70.566C195.521 72.8218 195.453 75.0775 195.225 77.3333Z" fill="#DB4200"/>
<path d="M158.268 74.3178L158.571 74.6444H158.526C159.521 73.49 160.546 72.3659 161.579 71.2494C162.612 70.133 163.668 69.0393 164.731 67.9532C165.802 66.8747 166.873 65.7886 167.966 64.7404C169.06 63.6847 170.161 62.6366 171.308 61.6265C170.329 62.7961 169.303 63.9202 168.27 65.0367C167.245 66.1607 166.189 67.2544 165.126 68.3481C164.063 69.4342 162.992 70.5127 161.898 71.5684C160.804 72.6241 159.703 73.6799 158.571 74.6976C158.556 74.7052 158.541 74.7052 158.526 74.6976L158.268 74.3178Z" fill="#DB4200"/>
<path d="M166.143 108.23C165.255 106.787 163.979 105.177 163.515 104.6C162.961 103.4 158.138 92.9717 152.548 80.5917C154.515 78.3664 156.414 76.2246 158.199 74.2498L147.543 64.0952C147.011 64.6497 146.472 65.2193 145.925 65.8041C143.533 68.3485 140.996 71.189 138.436 74.2802C136.667 76.4144 136.439 79.4221 137.844 81.8145C139.614 84.8298 141.535 87.845 143.631 90.7995C147.96 96.9136 153.004 102.769 158.859 107.79C158.791 109.18 159.573 110.547 160.219 111.42C159.627 111.253 157.333 112.202 157.242 112.514C157.143 112.856 157.94 116.41 160.811 115.825C163.652 115.256 167.237 110.03 166.143 108.23ZM160.773 112.924L160.143 112.43C160.143 112.43 160.477 112.066 160.394 111.678C160.751 112.134 161.039 112.408 161.039 112.408L160.773 112.924Z" fill="#724A32"/>
<path d="M158.571 113.007C158.829 112.764 159.057 112.673 159.3 112.589C159.551 112.521 159.763 112.483 160.113 112.491C160.037 112.848 159.74 113.038 159.459 113.129C159.171 113.197 158.859 113.205 158.571 113.007Z" fill="#CC7D4E"/>
<path d="M159.224 112.863C159.657 113.06 160.014 113.22 160.257 113.151C160.386 113.129 160.523 113.045 160.682 112.939C160.834 112.817 160.986 112.68 161.191 112.536C161.199 112.779 161.138 113.007 161.009 113.22C160.88 113.425 160.667 113.622 160.371 113.698C160.067 113.759 159.771 113.653 159.589 113.486C159.391 113.318 159.262 113.106 159.224 112.863Z" fill="#CC7D4E"/>
<path d="M218.26 81.6698C218.055 82.7787 217.843 83.8876 217.615 84.9737C216.362 91.0194 208.805 93.0853 204.65 88.5054C203.875 87.6548 203.123 86.8041 202.394 85.9687C200.67 84.0015 199.075 82.0724 197.594 80.2344C202.766 78.1002 204.711 68.8721 205.159 66.2214C205.858 67.0645 206.587 67.9379 207.339 68.8417C210.893 56.3782 213.643 46.4438 213.643 46.4438L219.164 46.6261C221.139 58.4972 220.288 70.6418 218.26 81.6698Z" fill="#724A32"/>
<path d="M204.612 27.5244C204.612 27.5244 201.627 31.3827 206.693 33.0157L204.612 27.5244Z" fill="#022F50"/>
<path d="M210.961 32.8255C210.961 32.8255 212.23 44.408 216.946 50.3093C217.174 50.598 217.539 50.7423 217.903 50.6891C218.883 50.5524 220.995 50.1574 223.311 49.1397C223.865 48.8967 224.093 48.2283 223.805 47.6966C222.134 44.6054 217.805 34.0938 217.197 29.7646L210.961 32.8255Z" fill="#022F50"/>
<path d="M212.564 22.0938L204.908 24.9951C204.65 25.0938 204.468 25.3217 204.43 25.5951C204.232 27.0306 203.944 31.618 207.802 34.4813C208 34.6332 208.265 34.6712 208.501 34.5953L216.354 31.9142L212.564 22.0938Z" fill="#FC5B00"/>
<path d="M228.347 2.27832C228.347 2.27832 228.309 13.8304 212.473 21.7901C212.313 21.8736 212.192 22.0255 212.161 22.2078C211.918 23.461 211.189 28.3826 216.172 32.1878C216.346 32.3245 216.582 32.3397 216.779 32.2409C218.602 31.3447 223.865 29.2029 241.524 35.8942L237.468 17.1723L228.347 2.27832Z" fill="#582EFF"/>
<path d="M241.281 16.4812C244.859 25.9143 245.565 34.3904 242.869 35.4081C240.567 36.2816 236.527 31.4435 233.162 24.1522C232.585 22.899 232.031 21.5699 231.507 20.1876C230.967 18.7597 230.489 17.3546 230.079 15.9875C227.793 8.35443 227.625 2.11887 229.919 1.25303C232.615 0.235289 237.704 7.04808 241.281 16.4812Z" fill="white"/>
<path d="M235.942 18.4331C236.815 20.742 235.934 23.218 233.967 23.9623C233.701 24.061 233.436 24.1294 233.162 24.1522C232.585 22.899 232.031 21.5698 231.506 20.1875C230.967 18.7597 230.489 17.3546 230.079 15.9875C230.299 15.828 230.542 15.6988 230.8 15.6001C232.767 14.8634 235.069 16.1318 235.942 18.4331Z" fill="#31C5A1"/>
<path d="M243.036 35.8639C239.565 37.1778 234.272 28.8536 231.051 20.3623C227.831 11.8634 226.274 2.11894 229.745 0.804988C233.216 -0.508962 238.51 7.81525 241.73 16.3066C244.958 24.8055 246.507 34.5499 243.036 35.8639ZM230.087 1.7088C227.99 2.50629 228.241 10.2153 231.955 20.013C235.669 29.8106 240.598 35.75 242.694 34.9525C244.791 34.155 244.54 26.446 240.826 16.6483C237.112 6.85827 232.183 0.918914 230.087 1.7088Z" fill="#022F50"/>
<path d="M213.734 49.983C213.734 49.983 210.506 44.7955 210.225 44.0892C210.028 43.5879 211.311 41.1119 212.071 39.7144C212.367 39.1752 213.096 39.0916 213.514 39.5397C213.909 39.9726 214.288 40.5423 214.288 41.1347C214.288 42.3955 213.514 43.2233 213.514 43.2233C213.514 43.2233 216.901 46.4664 215.549 49.1323L213.734 49.983Z" fill="#724A32"/>
<path d="M221.944 44.302C221.944 44.302 219.977 45.4944 219.559 45.3501C219.142 45.2134 219.628 43.9451 219.628 43.9451C219.628 43.9451 218.018 44.7881 217.661 44.5754C217.311 44.3628 218.291 42.1906 218.291 42.1906C218.291 42.1906 217.03 42.7526 216.681 42.6843C216.332 42.6159 218.01 39.107 218.01 39.107C218.01 39.107 216.256 39.4564 216.043 38.5449C215.83 37.6335 218.709 35.2487 219.271 35.5297C219.833 35.8107 220.251 37.2842 220.251 37.2842C220.251 37.2842 221.162 38.4766 221.23 39.669C221.23 39.669 222.279 40.9298 222.354 41.7045C222.354 41.7045 222.772 43.1779 223.479 44.021C224.177 44.8641 223.319 46.7704 223.319 46.7704C223.319 46.7704 222.484 45.1603 221.944 44.302Z" fill="#724A32"/>
<path d="M218.048 39.0085C218.291 38.5528 218.633 38.2414 219.005 37.9604C219.385 37.6945 219.787 37.4591 220.296 37.3604C220.053 37.8161 219.711 38.1275 219.339 38.4085C218.959 38.6743 218.557 38.9097 218.048 39.0085Z" fill="#CC7D4E"/>
<path d="M218.397 42.1983C218.716 41.6363 219.141 41.1958 219.597 40.7932C220.06 40.3983 220.562 40.0413 221.162 39.8135C220.843 40.3831 220.417 40.816 219.962 41.2186C219.498 41.6059 219.005 41.9705 218.397 42.1983Z" fill="#CC7D4E"/>
<path d="M219.59 43.9528C219.977 43.4668 220.418 43.1098 220.851 42.7452L221.511 42.2288C221.732 42.0541 221.952 41.887 222.18 41.6743C222.165 41.9933 222.005 42.2819 221.83 42.5326C221.656 42.7832 221.428 42.9959 221.2 43.1857C220.737 43.5503 220.205 43.8465 219.59 43.9528Z" fill="#CC7D4E"/>
<path d="M222.043 44.3402C222.051 44.0516 222.119 43.8997 222.225 43.763C222.339 43.6339 222.461 43.5352 222.749 43.4668C222.871 43.7326 222.787 43.9605 222.666 44.12C222.529 44.2643 222.339 44.3858 222.043 44.3402Z" fill="#CC7D4E"/>
<path d="M191.557 14.3014C189.59 9.25065 180.339 7.29112 173.883 12.8963C170.883 15.5014 170.253 20.2255 170.427 24.5396C170.268 24.4636 170.139 24.4104 170.047 24.3877C168.733 24.0611 167.412 25.0484 167.025 26.2864C166.713 27.2662 166.926 28.3827 167.488 29.2485C167.951 29.97 168.711 30.6384 169.523 30.9498C169.728 31.0258 170.632 31.1777 171.278 31.1245C171.893 33.965 173.344 36.5854 175.577 38.4386C178.394 40.7778 182.002 41.7196 185.602 40.9753C188.397 40.3981 192.529 38.6056 193.554 35.7043C193.82 34.9524 193.843 34.1321 193.858 33.3347C193.919 27.2206 193.805 20.0736 191.557 14.3014Z" fill="#724A32"/>
<path d="M183.347 28.9448C183.347 28.9448 187.137 29.8334 188.58 29.2714C188.58 29.2714 188.064 31.5651 186.005 31.6107C183.955 31.6563 183.347 28.9448 183.347 28.9448Z" fill="#D9C3C3"/>
<path d="M184.319 18.5549C183.931 18.2131 183.499 18.0992 183.035 18.0764C182.58 18.0688 182.109 18.122 181.668 18.2739C181.22 18.4106 180.81 18.6612 180.468 18.965C180.111 19.2536 179.853 19.641 179.648 20.0207C179.541 20.2106 179.61 20.4536 179.8 20.56C179.952 20.6435 180.141 20.6207 180.263 20.5068L180.293 20.4764C180.567 20.2258 180.825 19.9979 181.114 19.8233C181.395 19.6334 181.706 19.5346 182.017 19.4511C182.329 19.3751 182.663 19.3372 182.997 19.36C183.331 19.3676 183.681 19.3903 184.045 19.2992L184.152 19.2764C184.372 19.2232 184.509 18.9954 184.456 18.7751C184.425 18.684 184.38 18.608 184.319 18.5549Z" fill="#022F50"/>
<path d="M188.458 18.5549C188.846 18.2131 189.279 18.0992 189.742 18.0764C190.198 18.0688 190.668 18.122 191.109 18.2739C191.557 18.4106 191.967 18.6612 192.309 18.965C192.666 19.2536 192.917 19.641 193.129 20.0207C193.236 20.2106 193.167 20.4536 192.977 20.56C192.825 20.6435 192.636 20.6207 192.514 20.5068L192.484 20.4764C192.21 20.2258 191.952 19.9979 191.663 19.8233C191.382 19.6334 191.071 19.5346 190.76 19.4511C190.448 19.3751 190.114 19.3372 189.78 19.36C189.446 19.3676 189.096 19.3903 188.732 19.2992L188.625 19.2764C188.405 19.2232 188.268 18.9954 188.322 18.7751C188.352 18.684 188.397 18.608 188.458 18.5549Z" fill="#022F50"/>
<path d="M197.61 15.471C197.07 14.2558 196.083 13.2837 194.936 12.6153C193.668 11.8786 192.202 11.4912 191.04 10.5874C190.068 9.83549 189.384 8.77218 188.45 7.98229C186.559 6.38732 183.817 6.08352 181.432 6.7367C179.047 7.38987 177.065 8.94686 175.257 10.633C174.315 10.3444 173.252 10.4887 172.417 11.0279C171.46 11.6583 170.89 12.7216 170.419 13.7697C169.956 14.8179 169.644 15.9951 168.855 16.8306C167.411 17.1192 166.379 18.7065 166.69 20.1496C166.827 20.78 167.176 21.342 167.32 21.9572C167.563 22.937 167.298 23.9623 167.244 24.9725C167.229 25.2231 167.237 25.4814 167.26 25.732C167.799 24.7978 168.87 24.1522 169.956 24.3725C170.989 25.1624 171.969 26.013 172.781 27.0232C174.004 27.0839 175.227 26.3016 175.69 25.1624C175.941 24.5472 175.979 23.8712 176.161 23.2332C176.457 22.2155 177.103 21.342 177.536 20.3699C177.961 19.3977 178.128 18.1901 177.498 17.3394C179.321 18.8964 181.257 20.3927 183.657 20.3471C184.5 20.3319 185.328 20.0964 186.164 19.9901C186.999 19.8762 187.903 19.899 188.617 20.3471C189.923 21.1598 190.318 23.1573 191.792 23.5978C192.369 23.7725 192.999 23.6434 193.523 23.3471C193.584 24.0003 193.645 24.6535 193.69 25.3143C194.625 25.0864 195.506 24.494 195.825 23.6054C196.03 23.0357 195.992 22.4054 196.159 21.8205C196.425 20.8939 197.169 20.18 197.594 19.3217C198.194 18.1293 198.149 16.6787 197.61 15.471Z" fill="#022F50"/>
<path opacity="0.5" d="M195.316 12.851C195.172 12.8282 195.028 12.7978 194.891 12.775C192.901 12.4332 191.116 12.0307 189.081 12.1294C185.929 12.2813 183.035 13.2459 180.004 13.9826C177.225 14.6586 173.488 14.894 170.283 14.1421C169.895 15.0915 169.569 16.0941 168.87 16.8384C167.678 17.0814 166.766 18.2131 166.667 19.4131C169.493 19.3372 172.318 19.565 175.121 19.9676C175.956 20.0891 176.769 20.2106 177.566 20.3321C177.984 19.3675 178.136 18.1751 177.513 17.3397C179.336 18.8967 181.273 20.3929 183.673 20.3473C184.516 20.3321 185.344 20.0967 186.179 19.9903C187.015 19.8764 187.919 19.8992 188.632 20.3473C188.663 20.3701 188.693 20.3929 188.724 20.4157C189.643 20.1802 190.569 19.8688 191.534 19.4435C193.843 18.4258 195.924 17.8713 198.02 17.7194C198.066 16.9523 197.921 16.17 197.61 15.4713C197.131 14.3928 196.296 13.5041 195.316 12.851Z" fill="#022F50"/>
</svg>
