<svg width="297" height="326" viewBox="0 0 297 326" fill="none" xmlns="http://www.w3.org/2000/svg">
<path d="M37.9375 324.086C-6.05609 311.878 -14.671 237.905 27.4144 187.76C60.7556 148.035 -18.0246 47.5127 70.8554 8.24814C155.484 -29.1368 283.719 64.7407 296.166 205.266C304.133 295.206 252.392 324.086 252.392 324.086H37.9375Z" fill="#F9F7FF"/>
<path d="M165.392 197.233H164.193V172.379L165.392 175.971V197.233Z" fill="#9277FF"/>
<path d="M170.627 202.157H169.065V192.901C169.065 191.919 168.269 191.123 167.286 191.123H162.303C161.317 191.123 160.523 191.919 160.523 192.901V202.157H159.317C158.116 202.157 157.143 202.953 157.143 203.936V256.255C157.143 257.238 158.116 258.036 159.317 258.036H170.627C171.828 258.036 172.803 257.238 172.803 256.255V203.936C172.803 202.953 171.828 202.157 170.627 202.157" fill="#C9BAB4"/>
<path d="M166.703 253.386C166.703 254.315 165.947 255.07 165.017 255.07C164.086 255.07 163.332 254.315 163.332 253.386V226.433C163.332 225.503 164.086 224.747 165.017 224.747C165.947 224.747 166.703 225.503 166.703 226.433V253.386Z" fill="#9479FF"/>
<path d="M169.396 228.003C169.396 228.997 168.589 229.802 167.597 229.802H162.434C161.442 229.802 160.636 228.997 160.636 228.003V221.264C160.636 220.273 161.442 219.469 162.434 219.469H167.597C168.589 219.469 169.396 220.273 169.396 221.264V228.003Z" fill="#9479FF"/>
<path d="M157.143 243.937V203.934C157.143 202.952 158.116 202.155 159.317 202.155H160.523V192.9C160.523 191.917 161.317 191.121 162.303 191.121H163.015C163.998 191.121 164.794 191.917 164.794 192.9V202.155H166.357C167.558 202.155 168.532 202.952 168.532 203.934V219.73C168.26 219.563 167.941 219.468 167.597 219.468H162.434C161.442 219.468 160.636 220.272 160.636 221.264V228.003C160.636 228.996 161.442 229.801 162.434 229.801H163.331V243.88H157.555C157.412 243.88 157.274 243.9 157.143 243.937V243.937ZM168.532 243.88H166.702V229.801H167.597C167.941 229.801 168.26 229.705 168.532 229.539V243.88Z" fill="#C9C0BB"/>
<path d="M163.332 243.88H166.703V229.802H163.332V243.88Z" fill="#A590FC"/>
<path d="M167.597 229.802H162.434C161.442 229.802 160.636 228.997 160.636 228.003V221.264C160.636 220.273 161.442 219.469 162.434 219.469H167.597C167.941 219.469 168.26 219.564 168.532 219.731V229.54C168.26 229.706 167.941 229.802 167.597 229.802Z" fill="#A590FC"/>
<path d="M172.005 323.24C172.005 324.224 171.523 325.018 170.924 325.018H159.289C158.69 325.018 158.207 324.224 158.207 323.24V312.919C158.207 311.936 158.69 311.138 159.289 311.138H170.924C171.523 311.138 172.005 311.936 172.005 312.919V323.24" fill="#634BC5"/>
<path d="M158.207 312.919V321.816H167.695C168.288 321.816 168.772 321.02 168.772 320.036V311.138H159.289C158.69 311.138 158.207 311.936 158.207 312.919Z" fill="#885DDE"/>
<path d="M173.893 314.351C173.893 315.334 173.165 316.131 172.262 316.131H157.556C156.653 316.131 155.921 315.334 155.921 314.351V245.661C155.921 244.678 156.653 243.88 157.556 243.88H172.262C173.165 243.88 173.893 244.678 173.893 245.661V314.351Z" fill="#9479FF"/>
<path d="M167.486 261.232H173.626V245.66H167.486V261.232Z" fill="#886FEB"/>
<path d="M165.855 316.131H157.995C158.015 316.13 158.034 316.128 158.054 316.125H158.982V316.124H159.897V316.125H161.726V316.121L162.639 316.119V316.125H164.466V316.117H165.381V316.125H165.989C165.944 316.13 165.901 316.131 165.855 316.131V316.131ZM167.487 294.936H155.921V261.232H167.487V294.936V294.936ZM167.487 245.661H155.921C155.921 244.678 156.653 243.88 157.556 243.88H165.855C166.755 243.88 167.487 244.678 167.487 245.661" fill="#9F88FD"/>
<path d="M155.921 261.232H167.487V245.66H155.921V261.232Z" fill="#917AEF"/>
<path d="M162.695 293.588L160.964 288.048H164.427L162.695 293.588Z" fill="#634BC5"/>
<path d="M158.054 316.125L171.943 316.107C173.327 316.275 174 315.245 174 314.253V294.935H155.807V314.253C155.807 315.245 156.297 316.31 158.054 316.125" fill="#C9BAB4"/>
<path d="M158.521 298.907H157.755V294.938H158.521V298.907Z" fill="#634BC5"/>
<path d="M163.134 298.907H162.365V294.938H163.134V298.907Z" fill="#634BC5"/>
<path d="M167.744 298.907H166.974V294.938H167.744V298.907Z" fill="#634BC5"/>
<path d="M172.354 298.907H171.588V294.938H172.354V298.907Z" fill="#634BC5"/>
<path d="M157.317 316.127H157.155V316.102C157.207 316.112 157.261 316.119 157.317 316.127Z" fill="#F2E4DE"/>
<path d="M158.982 316.127H158.053L158.982 316.126V316.127Z" fill="#C3BBE1"/>
<path d="M158.053 316.127H157.317C157.261 316.119 157.207 316.112 157.155 316.102V305.164C157.155 304.664 157.562 304.259 158.07 304.259C158.574 304.259 158.982 304.664 158.982 305.164V316.126L158.053 316.127" fill="#E0D5D0"/>
<path d="M161.726 316.127H159.897V316.126L161.726 316.122V316.127Z" fill="#C3BBE1"/>
<path d="M159.897 316.125V305.162C159.897 304.663 160.306 304.258 160.809 304.258C161.315 304.258 161.726 304.663 161.726 305.162V316.121L159.897 316.125" fill="#E0D5D0"/>
<path d="M164.466 316.127H162.64V316.121L164.466 316.118V316.127Z" fill="#C3BBE1"/>
<path d="M162.64 316.12V305.163C162.64 304.663 163.047 304.258 163.553 304.258C164.057 304.258 164.466 304.663 164.466 305.163V316.117L162.64 316.12" fill="#E0D5D0"/>
<path d="M167.207 316.127H165.989C166.019 316.124 166.05 316.121 166.08 316.116L167.207 316.115V316.127Z" fill="#C2BAE4"/>
<path d="M165.989 316.127H165.381V316.118L166.079 316.116C166.049 316.121 166.019 316.124 165.989 316.127Z" fill="#C3BBE1"/>
<path d="M165.381 316.118V305.164C165.381 304.664 165.79 304.259 166.293 304.259C166.797 304.259 167.206 304.664 167.206 305.164V316.115L166.079 316.116L165.381 316.118" fill="#E0D5D0"/>
<path d="M169.95 316.127H168.121V316.113L169.95 316.11V316.127Z" fill="#C2BAE4"/>
<path d="M168.121 316.113V305.164C168.121 304.664 168.53 304.259 169.035 304.259C169.54 304.259 169.95 304.664 169.95 305.164V316.11L168.121 316.113Z" fill="#E0D5D0"/>
<path d="M172.623 316.089H172.624C172.627 316.088 172.632 316.088 172.635 316.086V316.089H172.623Z" fill="#F2E4DE"/>
<path d="M170.862 316.127V316.11L171.729 316.109L170.862 316.127ZM172.623 316.089H172.625H172.623Z" fill="#C2BAE4"/>
<path d="M170.862 316.109V305.162C170.862 304.663 171.273 304.257 171.777 304.257C172.282 304.257 172.691 304.663 172.691 305.162L172.635 316.085C172.632 316.087 172.628 316.087 172.625 316.088H172.623L171.729 316.107L170.862 316.109" fill="#E0D5D0"/>
<path d="M106.913 309.083C106.913 309.083 104.066 316.386 106.339 318.205C108.602 320.019 111.227 320.028 115.538 319.697C119.852 319.369 124.019 320.528 126.32 321.524C128.622 322.517 135.334 321.593 137.246 320.031C138.534 318.982 137.864 317.998 131.641 316.711C127.47 315.852 119.242 311.266 117.517 305.455L106.913 309.083" fill="#E0B479"/>
<path d="M95.9367 81.2952C92.5882 82.001 86.8017 100.685 89.5557 134.415C89.5557 134.415 88.4737 141.117 116.469 144.875C116.469 144.875 124.334 147.039 129.368 148.112C131.392 148.542 133.079 143.024 130.886 141.776C128.69 140.518 116.616 135.451 113.2 132.983C109.782 130.506 102.214 129.556 100.002 128.697C97.7893 127.845 104.513 111.838 105.09 100.768C105.665 89.7018 107.388 78.8857 95.9367 81.2952" fill="#E0B479"/>
<path d="M109.943 93.074C109.943 93.074 113.851 85.8111 120.103 85.1279L117.171 71.5924C117.171 71.5924 100.564 80.2218 98.8049 81.6936C97.0486 83.1639 92.162 87.286 91.5766 88.1694C90.9897 89.0513 125.488 107.359 125.488 107.359L109.943 93.074" fill="#F7C582"/>
<path d="M107.714 74.079C107.714 74.079 106.798 82.0447 98.7931 84.9733C92.8139 87.1585 87.7423 102.595 86.6647 106.151C85.5797 109.703 94.0405 130.909 89.6912 133.467C89.6912 133.467 89.4248 121.524 86.8845 116.732C85.2471 113.641 76.9066 93.6749 99.1649 78.6992C101.09 77.4004 104.012 73.3401 105.767 70.6146L107.714 74.079Z" fill="#47342C"/>
<path d="M87.6066 113.81C87.6066 113.81 96.0689 111.859 98.8019 103.866C98.8019 103.866 99.279 101.32 99.0803 100.765C99.0803 100.765 104.587 113.3 90.5864 118.221L87.6066 113.81" fill="#F7C582"/>
<path d="M95.8948 88.3448C95.8948 88.3448 84.8108 101.78 91.1933 121.24C91.1933 121.24 107.492 141.849 93.821 154.811L125.148 166.799C125.148 166.799 125.836 150.496 126.293 129.195C126.293 129.195 140.423 116.712 120.857 103.11C120.857 103.11 110.88 95.4648 112.541 89.2975L95.8948 88.3448Z" fill="#F7C582"/>
<path d="M91.2235 89.441C95.1439 85.1368 102.976 84.8358 111.114 100.137C113.224 104.099 122.231 111.988 127.508 108.849C127.508 108.849 137.69 116.598 126.293 129.194L126.35 135.523C126.35 135.523 114.634 141.926 96.852 132.901C96.852 132.901 77.9528 104.028 91.2235 89.441" fill="#FF9362"/>
<path d="M106.684 76.4699C106.684 76.4699 106.252 77.9131 104.195 75.9793C101.352 73.3095 101.075 72.4216 103.317 71.8843C104.696 71.5547 107.23 74.4954 106.684 76.4699Z" fill="#E09E45"/>
<path d="M97.7136 133.397C97.1522 133.091 96.8512 132.901 96.8512 132.901C97.1311 133.043 97.4096 133.181 97.685 133.315C97.694 133.342 97.703 133.369 97.7136 133.397Z" fill="#DD9A7C"/>
<path d="M114.824 137.806C106.627 137.806 100.002 134.642 97.7142 133.398C97.7037 133.371 97.6947 133.344 97.6856 133.316C104.682 136.716 110.702 137.729 115.396 137.729C116.747 137.729 117.989 137.645 119.11 137.509C117.646 137.715 116.213 137.806 114.824 137.806" fill="#E3906A"/>
<path d="M115.395 137.729C110.701 137.729 104.681 136.716 97.685 133.316C97.4096 133.182 97.1311 133.044 96.8512 132.902C97.6413 133.045 98.3772 133.113 99.068 133.113C110.224 133.111 108.87 115.364 108.257 110.31C111.193 129.155 126.293 129.196 126.293 129.196L126.35 135.524C123.892 136.55 121.46 137.178 119.109 137.509C117.988 137.644 116.747 137.729 115.395 137.729V137.729ZM108.257 110.31C108.19 109.876 108.129 109.436 108.075 108.983C108.075 108.983 108.155 109.47 108.257 110.31Z" fill="#EA8558"/>
<path d="M137.021 149.638L139.764 150.228L141.998 151.293L139.212 150.563L137.021 149.638" fill="#ECC188"/>
<path d="M134.819 53.888C134.819 53.888 144.798 61.8913 141.722 69.2942C141.338 70.2167 137.928 74.0604 139.236 72.4215C139.559 72.0136 134.819 53.888 134.819 53.888" fill="#3F2C23"/>
<path d="M114.87 87.429C114.87 87.429 116.709 85.9662 117.415 86.0926C119.351 86.4403 122.904 96.7161 125.512 89.6955C125.698 89.1898 127.128 89.5961 128.228 89.0634C128.717 88.8256 127.738 87.4757 128.189 87.1747C128.541 86.9369 129.306 87.6186 129.878 87.4185C130.463 87.2153 130.438 85.4861 130.985 85.1957C131.661 84.836 132.811 85.3296 133.613 84.9338C134.898 84.2942 133.36 80.8855 134.621 79.1097C135.878 77.3338 136.486 77.6032 137.743 75.6121C139.633 72.6158 144.537 60.8365 126.332 56.6799C126.332 56.6799 113.26 59.2007 104.941 79.3008L114.87 87.429" fill="#F7C582"/>
<path d="M138.837 64.3755C138.837 64.3755 133.863 66.1634 129.646 69.2304C129.646 69.2304 124.675 72.6783 123.158 70.1379C122.595 69.1973 122.741 65.9722 120.157 66.952C118.461 67.5961 116.525 70.5172 116.871 73.4323C117.163 75.8703 101.478 86.1009 95.3544 86.9693L102.975 80.0435C102.975 80.0435 97.3485 71.7437 106.365 57.2089C111.656 48.6743 125.139 46.2032 131.365 50.6037C134.588 52.8807 140.28 57.1427 138.837 64.3755" fill="#47342C"/>
<path d="M140.082 67.6478C140.082 67.6478 137.952 64.8696 129.339 69.395C129.339 69.395 132.98 61.5407 139.102 62.5024L140.082 67.6478Z" fill="#3F2C23"/>
<path d="M138.189 149.552L140.856 150.455L141.932 151.289L139.912 150.535L138.189 149.552Z" fill="#ECC188"/>
<path d="M101.347 157.406C101.347 157.406 87.8367 174.817 103.795 192.324C103.795 192.324 102.706 211.947 105.427 231.859C105.427 231.859 108.032 243.923 103.523 254.079C99.6882 262.71 99.7137 271.103 105.697 292.17C105.697 292.17 108.691 306.599 105.427 313.234C105.427 313.234 119.028 312.657 118.485 310.926C117.94 309.197 111.83 278.568 118.756 256.965C120.866 250.388 124.998 244.568 125.557 230.126C126.041 217.608 122.407 194.011 122.292 183.091C122.178 172.17 101.347 157.406 101.347 157.406" fill="#E0B479"/>
<path d="M125.08 162.457L117.758 162.12C109.618 159.324 100.892 157.119 100.892 157.119C100.892 157.119 86.201 174.432 103.795 192.324C103.795 192.324 102.433 212.814 105.154 232.725C105.154 232.725 107.68 240.15 105.594 248.105C105.594 248.105 111.445 249.472 113.43 249.493C115.653 249.515 122.174 248.105 122.174 248.105C123.769 243.747 125.239 238.327 125.557 230.127C125.738 225.46 126.341 217.648 127.461 208.772C129.342 193.847 125.357 170.894 125.285 164.046C125.28 163.799 125.419 162.659 125.388 162.421L125.08 162.457" fill="#6D51DB"/>
<path d="M91.8249 157.406C91.8249 157.406 78.0411 174.817 94.0011 192.324C94.0011 192.324 92.9115 211.947 95.6339 231.859C95.6339 231.859 98.2375 243.923 93.7287 254.079C89.8955 262.71 89.9212 271.103 95.9063 292.17C95.9063 292.17 98.8982 306.599 95.6339 313.234C95.6339 313.234 108.561 311.568 108.017 309.838C107.472 308.106 102.036 278.568 108.963 256.965C111.072 250.388 115.204 244.568 115.764 230.126C116.246 217.608 122.293 180.493 122.178 169.572C122.062 158.651 91.8249 157.406 91.8249 157.406Z" fill="#F7C582"/>
<path d="M122.112 168.854L124.061 162.456L110.437 159.498C101.66 157.162 93.8206 154.81 93.8206 154.81C93.8206 154.81 76.5002 173.327 94.0012 192.324C94.0012 192.324 92.6423 212.813 95.3617 232.724C95.3617 232.724 96.2466 240.545 95.6867 247.844C95.6867 247.844 101.625 249.635 103.613 249.654C105.833 249.679 112.38 248.105 112.38 248.105C113.978 243.747 115.445 238.327 115.764 230.126C115.943 225.46 118.997 216.78 120.115 207.906C121.996 192.981 122.249 176.419 122.178 169.572C122.177 169.327 122.142 169.09 122.112 168.854Z" fill="#886AFF"/>
<path d="M95.6494 236.105C95.505 234.692 95.362 233.881 95.362 233.881C93.985 223.797 93.6539 213.27 93.6614 205.333C93.6704 212.912 94.0181 222.888 95.362 232.725C95.362 232.725 95.511 234.044 95.6494 236.105" fill="#A593E9"/>
<path d="M95.9055 155.429C94.5857 155.04 93.8211 154.812 93.8211 154.812C93.8211 154.812 94.5766 155.033 95.9055 155.429Z" fill="#9D96B9"/>
<path d="M103.671 249.654C103.651 249.654 103.632 249.654 103.614 249.654C101.626 249.636 95.6873 247.844 95.6873 247.844C95.6873 247.844 101.626 249.636 103.614 249.654C103.63 249.654 103.648 249.654 103.667 249.654C103.846 249.654 104.052 249.645 104.278 249.626C104.053 249.645 103.85 249.654 103.671 249.654" fill="#9D96B9"/>
<path d="M103.665 249.654C103.647 249.654 103.629 249.654 103.613 249.654C101.625 249.636 95.6862 247.844 95.6862 247.844C96.1573 242.842 95.8984 238.562 95.6486 236.105C95.5102 234.044 95.3612 232.724 95.3612 232.724C94.0173 222.888 93.6696 212.912 93.6606 205.332C93.6696 197.597 94.0007 192.324 94.0007 192.324C76.6818 173.231 93.8201 154.81 93.8201 154.81C93.8201 154.81 94.5847 155.039 95.9045 155.427C97.2785 155.835 99.2636 156.431 101.659 157.162C98.323 161.918 88.9938 178.141 103.795 193.797C103.795 193.797 104.337 215.714 107.059 236.427C107.059 236.427 107.556 242.201 106.135 249.387C105.447 249.497 104.805 249.584 104.277 249.626C104.051 249.645 103.845 249.654 103.665 249.654" fill="#775BEA"/>
<path d="M111.656 52.0436C111.656 52.0436 80.3196 76.5261 85.0481 111.79C85.0481 111.79 88.4809 102.195 91.6835 89.7034C93.2546 83.5813 100.412 76.8828 104.673 75.5524C116.669 71.8081 111.656 52.0436 111.656 52.0436Z" fill="#47342C"/>
<path d="M133.288 53.2369C133.288 53.2369 96.7658 48.6002 84.9083 104.903C84.9083 104.903 93.3766 43.6579 133.288 53.2369Z" fill="#564137"/>
<path d="M128.519 58.2924C128.519 58.2924 105.093 57.2841 96.202 83.3408C96.202 83.3408 105.94 62.0759 128.519 58.2924Z" fill="#564137"/>
<path d="M127.066 62.9763C127.066 62.9763 110.175 64.6769 103.541 80.9424C103.541 80.9424 114.87 64.1758 127.066 62.9763" fill="#564137"/>
<path d="M100.216 85.2662C100.216 85.2662 91.1203 87.513 88.2007 95.7105C88.2007 95.7105 89.6605 83.695 100.216 85.2662Z" fill="#47342C"/>
<path d="M96.2396 311.814C96.2396 311.814 93.1845 319.117 95.6225 320.937C98.056 322.752 100.873 322.76 105.506 322.432C110.138 322.101 114.615 323.258 117.086 324.254C119.557 325.25 126.768 324.323 128.822 322.761C130.205 321.714 129.484 320.731 122.8 319.443C118.32 318.582 109.485 313.995 107.631 308.19L96.2396 311.814" fill="#F7C582"/>
<path d="M123.701 155.366L123.846 155.54L120.273 158.51L120.645 157.908L123.701 155.366" fill="#9277FF"/>
<path d="M123.784 154.027L123.971 154.251L122.64 155.359C122.5 155.475 122.481 155.684 122.6 155.827L123.193 156.542C123.312 156.685 123.522 156.704 123.662 156.585L124.994 155.479L125.136 155.652C125.28 155.827 125.51 155.87 125.652 155.753L133.174 149.497C133.315 149.38 133.314 149.143 133.169 148.972L131.818 147.348C131.673 147.173 131.441 147.128 131.3 147.246L123.778 153.503C123.638 153.619 123.641 153.855 123.784 154.027Z" fill="#C9BAB4"/>
<path d="M131.617 148.467L132.063 148.508L132.02 148.95L128.145 152.172L127.701 152.132L127.745 151.691L131.617 148.467Z" fill="#9479FF"/>
<path d="M127.649 151.112C127.79 150.993 128.001 151.013 128.12 151.156L128.738 151.899C128.857 152.041 128.836 152.255 128.695 152.372L127.726 153.177C127.584 153.296 127.373 153.276 127.255 153.133L126.636 152.391C126.516 152.249 126.535 152.036 126.68 151.919L127.649 151.112Z" fill="#9479FF"/>
<path d="M123.45 156.663C123.356 156.663 123.259 156.621 123.193 156.541L123.109 156.44C123.104 156.434 123.098 156.428 123.094 156.422L123.193 156.541C123.259 156.621 123.356 156.663 123.45 156.663C123.526 156.663 123.601 156.637 123.663 156.585L124.995 155.479L125.136 155.652C125.226 155.76 125.35 155.817 125.464 155.817C125.496 155.817 125.526 155.813 125.556 155.804C125.526 155.813 125.496 155.817 125.464 155.817C125.35 155.817 125.226 155.76 125.136 155.652L124.995 155.479L123.663 156.585C123.601 156.637 123.526 156.663 123.45 156.663" fill="#F9CF96"/>
<path d="M123.45 156.663C123.355 156.663 123.259 156.621 123.192 156.541L123.093 156.422C122.992 156.281 123.016 156.085 123.15 155.971L124.482 154.866L124.295 154.64C124.149 154.467 124.149 154.231 124.289 154.115L126.56 152.226C126.569 152.285 126.594 152.342 126.636 152.392L127.254 153.134C127.32 153.214 127.415 153.256 127.512 153.256C127.587 153.256 127.664 153.23 127.725 153.178L128.694 152.372C128.836 152.255 128.857 152.041 128.738 151.9L128.63 151.77L130.654 150.086L131.345 150.917C131.351 150.923 131.357 150.929 131.363 150.935C131.375 150.949 131.388 150.959 131.402 150.97L125.651 155.753C125.623 155.777 125.59 155.793 125.555 155.804C125.525 155.813 125.495 155.817 125.463 155.817C125.349 155.817 125.226 155.76 125.135 155.652L124.994 155.479L123.662 156.585C123.6 156.637 123.525 156.663 123.45 156.663V156.663ZM128.228 151.287L128.12 151.156C128.079 151.107 128.026 151.074 127.971 151.054L130.032 149.34L130.252 149.603L128.228 151.287Z" fill="#C9C0BB"/>
<path d="M128.63 151.771L128.228 151.288L130.252 149.604L130.654 150.087L128.63 151.771Z" fill="#A590FC"/>
<path d="M127.512 153.257C127.415 153.257 127.32 153.215 127.254 153.135L126.636 152.393C126.594 152.343 126.569 152.286 126.56 152.227L127.971 151.055C128.026 151.075 128.079 151.108 128.12 151.157L128.228 151.288L128.63 151.772L128.738 151.901C128.857 152.042 128.836 152.256 128.694 152.373L127.725 153.179C127.664 153.231 127.587 153.257 127.512 153.257" fill="#A590FC"/>
<path d="M141.028 139.351C141.168 139.235 141.338 139.21 141.411 139.294L142.802 140.966C142.876 141.053 142.815 141.219 142.675 141.335L141.192 142.569C141.05 142.688 140.879 142.713 140.806 142.626L139.416 140.954C139.345 140.867 139.401 140.706 139.544 140.587L141.028 139.351Z" fill="#634BC5"/>
<path d="M141.192 142.569L142.47 141.505L141.338 140.141C141.264 140.056 141.093 140.083 140.951 140.202L139.675 141.264L140.807 142.626C140.879 142.713 141.051 142.688 141.192 142.569" fill="#885DDE"/>
<path d="M139.522 140.144C139.665 140.025 139.866 140.033 139.975 140.164L141.734 142.279C141.841 142.41 141.814 142.608 141.672 142.725L131.798 150.937C131.657 151.058 131.454 151.047 131.345 150.916L129.587 148.805C129.481 148.674 129.508 148.472 129.649 148.353L139.522 140.144Z" fill="#9479FF"/>
<path d="M130.413 149.278L129.679 148.396L131.917 146.534L132.651 147.416L130.415 149.276C130.415 149.276 130.415 149.278 130.413 149.278Z" fill="#886FEB"/>
<path d="M131.576 151.022C131.573 151.022 131.57 151.022 131.567 151.022C131.57 151.022 131.573 151.022 131.576 151.022ZM131.582 151.022C131.657 151.02 131.734 150.991 131.799 150.937L138.881 145.047L131.799 150.937C131.734 150.991 131.657 151.02 131.582 151.022Z" fill="white"/>
<path d="M131.575 151.022C131.572 151.022 131.569 151.022 131.566 151.022C131.489 151.019 131.417 150.99 131.363 150.934C131.357 150.928 131.351 150.922 131.345 150.916L130.353 149.723C130.246 149.595 130.272 149.395 130.413 149.276L131.798 150.937C131.733 150.991 131.656 151.02 131.581 151.022C131.579 151.022 131.576 151.022 131.575 151.022V151.022ZM131.798 150.937L134.036 149.076L132.651 147.414L137.497 143.384L138.569 144.672H138.567L138.66 144.784L138.88 145.047L131.798 150.937" fill="#9F88FD"/>
<path d="M131.798 150.938L130.414 149.277C130.415 149.277 130.415 149.275 130.415 149.275L132.652 147.415L134.036 149.076L131.798 150.938Z" fill="#917AEF"/>
<path d="M141.69 142.228L141.654 142.186L141.69 142.228Z" fill="white"/>
<path d="M141.654 142.184L140.729 141.071C140.733 141.076 140.738 141.081 140.742 141.087L141.654 142.184" fill="#7F66E2"/>
<path d="M141.69 142.228C141.684 142.222 141.679 142.218 141.673 142.212L141.589 142.111L141.45 141.944L141.232 141.68L141.231 141.682L141.122 141.551L141.124 141.549L140.906 141.287L140.904 141.289L140.793 141.157H140.794L140.715 141.059C140.719 141.063 140.724 141.068 140.728 141.072L141.654 142.184V142.186L141.69 142.228Z" fill="#9F88FD"/>
<path d="M137.877 144.235L137.288 145.147L136.873 144.648L137.877 144.235Z" fill="#634BC5"/>
<path d="M141.672 142.21L140.009 140.216C139.866 139.995 139.639 140.022 139.496 140.141L136.718 142.449L138.894 145.065L141.672 142.755C141.813 142.636 141.908 142.439 141.672 142.21" fill="#C9BAB4"/>
<path d="M139.139 144.2L139.231 144.311L138.661 144.785L138.567 144.674L139.139 144.2Z" fill="#634BC5"/>
<path d="M138.587 143.536L138.681 143.649L138.11 144.122L138.018 144.012L138.587 143.536Z" fill="#634BC5"/>
<path d="M138.038 142.873L138.128 142.984L137.561 143.46L137.467 143.349L138.038 142.873Z" fill="#634BC5"/>
<path d="M137.487 142.213L137.58 142.322L137.009 142.796L136.918 142.685L137.487 142.213" fill="#634BC5"/>
<path d="M141.775 142.34C141.77 142.331 141.764 142.322 141.758 142.312L141.779 142.337L141.775 142.34" fill="#F2E4DE"/>
<path d="M141.674 142.21L141.672 142.209L141.59 142.109L141.674 142.21Z" fill="#C3BBE1"/>
<path d="M140.202 143.648L139.963 143.624L139.987 143.384L141.561 142.075L141.59 142.11L141.672 142.209L141.674 142.21L141.758 142.311C141.764 142.322 141.77 142.331 141.775 142.34L140.202 143.648" fill="#E0D5D0"/>
<path d="M141.451 141.943L141.231 141.682L141.233 141.68L141.451 141.943Z" fill="#C3BBE1"/>
<path d="M139.874 143.255L139.638 143.231L139.657 142.993L141.231 141.682L141.451 141.944L139.874 143.255" fill="#E0D5D0"/>
<path d="M141.122 141.551L140.904 141.289L140.906 141.287L141.124 141.549L141.122 141.551Z" fill="#C3BBE1"/>
<path d="M139.548 142.86L139.306 142.838L139.328 142.599L140.904 141.289L141.122 141.551L139.548 142.86Z" fill="#E0D5D0"/>
<path d="M140.715 141.06C140.712 141.057 140.709 141.054 140.706 141.052L140.577 140.896L140.578 140.894L140.715 141.06Z" fill="#C2BAE4"/>
<path d="M140.793 141.156L140.706 141.051C140.709 141.052 140.712 141.055 140.715 141.058L140.794 141.156H140.793Z" fill="#C3BBE1"/>
<path d="M139.22 142.466L138.982 142.443L139.001 142.204L140.577 140.895L140.706 141.051L140.794 141.157L139.22 142.466Z" fill="#E0D5D0"/>
<path d="M140.465 140.762L140.248 140.502L140.25 140.499L140.468 140.76L140.465 140.762Z" fill="#C2BAE4"/>
<path d="M138.893 142.071L138.653 142.047L138.673 141.808L140.249 140.502L140.465 140.762L138.893 142.071Z" fill="#E0D5D0"/>
<path d="M139.926 140.12C139.926 140.12 139.925 140.119 139.923 140.117H139.925L139.926 140.12Z" fill="#F2E4DE"/>
<path d="M140.137 140.367L140.027 140.236L140.138 140.366L140.137 140.367ZM139.929 140.122C139.928 140.12 139.925 140.119 139.923 140.117V140.116C139.925 140.117 139.926 140.119 139.926 140.119L139.929 140.122" fill="#C2BAE4"/>
<path d="M138.564 141.679L138.325 141.655L138.346 141.414L139.923 140.118C139.925 140.12 139.928 140.121 139.929 140.123L140.027 140.237L140.137 140.368L138.564 141.679" fill="#E0D5D0"/>
<path d="M120.247 145.791C120.247 145.791 126.476 145.733 128.702 144.254C128.702 144.254 131.419 141.953 133.44 141.562C133.44 141.562 137.085 140.28 137.878 140.239C138.675 140.197 139.882 138.952 139.938 140.072C140.003 141.195 139.025 142.835 135.196 143.878C133.017 144.472 134.388 145.103 134.388 145.103C134.388 145.103 136.698 147.178 141.035 148.32C142.555 148.722 144.348 150.223 141.947 151.368C141.947 151.368 137.441 149.731 136.88 149.279C136.541 149.007 136.88 149.279 136.88 149.279C138.131 149.821 141.476 150.93 141.947 151.368C142.42 151.8 141.637 152.828 141.148 153.06C140.66 153.288 139.602 153.598 139.345 153.565C139.083 153.528 138.713 153.33 138.751 153.556C138.79 153.786 139.423 155.088 138.143 155.847C137.512 156.224 138.201 157.152 136.705 157.543C135.209 157.933 131.223 157.66 123.468 153.111C123.468 153.111 121.785 152.88 121.534 152.772C121.283 152.665 120.139 150.445 120.247 145.791" fill="#F2C17E"/>
<path d="M134.943 151.723L137.608 152.628L138.684 153.46L136.668 152.705L134.943 151.723Z" fill="#ECC188"/>
<path d="M137.947 156.061L134.987 154.916L133.233 153.871L134.905 155.34L135.914 155.656L137.947 156.061Z" fill="#ECC188"/>
<path d="M93.4654 88.5897C87.5509 89.8312 83.7374 108.308 86.7578 142.661C86.7578 142.661 85.6156 149.481 115.569 153.367C115.569 153.367 126.281 153.966 131.667 155.071C133.831 155.516 133.768 149.856 131.419 148.58C129.071 147.295 116.642 146.178 112.982 143.656C109.322 141.126 100.286 137.737 97.9185 136.862C95.5512 135.988 102.706 119.705 103.299 108.432C103.89 97.1679 106.057 85.9394 93.4654 88.5897" fill="#F2C17E"/>
<path d="M138.313 149.589L140.978 150.495L142.056 151.326L140.036 150.573L138.313 149.589Z" fill="#ECC188"/>
</svg>
