<svg width="386" height="270" viewBox="0 0 386 270" fill="none" xmlns="http://www.w3.org/2000/svg">
<path d="M293.773 28.5913C348.811 62.5601 385.497 123.456 385.497 192.926C385.497 217.408 380.942 240.823 372.634 262.369C371.803 264.521 370.937 266.655 370.033 268.77H15.4643C14.5603 266.655 13.6937 264.521 12.863 262.369C6.4237 245.671 2.23908 227.851 0.682342 209.281C0.409092 206.025 0.217036 202.745 0.107737 199.444C0.0359112 197.281 0 195.108 0 192.926C0 86.3765 86.2968 6.10352e-05 192.748 6.10352e-05C225.802 6.10352e-05 256.912 8.32712 284.1 23.0029L293.773 28.5913Z" fill="#F9F7FF"/>
<path d="M248.875 121.526C247.163 126.24 244.622 129.644 243.203 129.127C241.783 128.612 242.021 124.372 243.735 119.658C245.448 114.944 249.408 112.057 249.408 112.057C249.408 112.057 250.59 116.812 248.875 121.526Z" fill="#028D6B"/>
<path d="M246.454 120.147C244.407 127.006 241.071 132.065 239.006 131.449C236.94 130.832 236.926 124.772 238.974 117.914C241.021 111.055 246.422 106.613 246.422 106.613C246.422 106.613 248.502 113.289 246.454 120.147Z" fill="#1FAD8B"/>
<path d="M242.246 117.781C242.246 124.939 240.498 130.741 238.342 130.741C236.186 130.741 234.438 124.939 234.438 117.781C234.438 110.624 238.342 104.822 238.342 104.822C238.342 104.822 242.246 110.624 242.246 117.781Z" fill="#109A78"/>
<path d="M233.541 120.117C234.41 125.058 233.911 129.274 232.423 129.536C230.935 129.798 229.023 126.006 228.154 121.067C227.284 116.127 229.272 111.648 229.272 111.648C229.272 111.648 232.671 115.179 233.541 120.117Z" fill="#028D6B"/>
<path d="M236.784 117.48C237.488 123.132 236.845 127.865 235.346 128.051C233.847 128.238 232.059 123.809 231.355 118.158C230.65 112.507 232.793 107.587 232.793 107.587C232.793 107.587 236.078 111.829 236.784 117.48Z" fill="#1FAD8B"/>
<path d="M247.433 125.685V133.208C247.433 134.674 247.275 136.044 246.725 137.201C246.068 138.586 244.844 139.668 242.648 140.252C241.487 140.561 240.05 140.729 238.283 140.729C230.688 140.729 229.133 137.361 229.133 133.208V125.685H247.433Z" fill="#D1AC9B"/>
<path d="M247.433 125.685V133.208C247.433 134.674 247.275 136.044 246.725 137.201C246.436 137.311 246.127 137.411 245.795 137.499C244.633 137.808 243.196 137.977 241.427 137.977C233.834 137.977 232.279 134.61 232.279 130.455V125.685H247.433Z" fill="white"/>
<path d="M158.5 129.406L168.406 131.992L176.961 132.068L188.982 138.992L169.396 138.848L157.103 133.666L158.5 129.406Z" fill="#F2BAA0"/>
<path d="M111.291 95.6265L134.392 118.172L131.865 116.77L165.26 130.426L163.347 136.786L127.96 129.748L126.95 129.548L125.434 128.346L100.145 108.285L111.291 95.6265Z" fill="#9CCEC1"/>
<path d="M105.453 240.271H97.1798V188.18H105.453V240.271Z" fill="white"/>
<path d="M76.8658 197.347H110.701C116.335 197.347 120.901 192.177 120.901 185.8L122.38 102.621C122.38 96.2445 117.813 91.0746 112.18 91.0746L76.8658 86.2061C71.2321 86.2061 66.6653 91.3759 66.6653 97.7528V185.8C66.6653 192.177 71.2321 197.347 76.8658 197.347Z" fill="#41695F"/>
<path d="M78.3205 197.347H110.925C116.435 197.347 120.901 192.291 120.901 186.053L122.38 103.65C122.38 97.414 117.914 92.3581 112.404 92.3581L78.3205 87.641C72.8107 87.641 68.3442 92.6969 68.3442 98.9333V186.053C68.3442 192.291 72.8107 197.347 78.3205 197.347Z" fill="#7565B3"/>
<path d="M75.7144 197.865L134.67 198.32C139.68 198.359 143.768 194.973 143.801 190.759C143.834 186.545 139.797 183.097 134.788 183.058C129.676 183.166 124.566 183.274 119.455 183.381C109.939 183.581 100.423 183.781 90.9075 183.981C84.4688 184.117 77.9189 184.538 71.4893 184.367C69.7866 184.321 67.5347 184.178 66.6617 185.675C65.8975 186.987 66.348 188.723 66.5719 190.108C67.2424 194.257 70.3256 197.825 75.7144 197.865Z" fill="#41695F"/>
<path d="M77.6671 196.594L136.023 197.044C140.982 197.081 145.03 193.726 145.061 189.549C145.094 185.372 141.1 181.956 136.141 181.918C131.081 182.024 126.022 182.13 120.963 182.237C111.544 182.437 102.125 182.635 92.7058 182.833C86.3326 182.967 79.8493 183.384 73.4851 183.214C71.7997 183.17 69.5706 183.027 68.7065 184.512C67.9502 185.811 68.3961 187.533 68.6177 188.905C69.2811 193.017 72.3331 196.553 77.6671 196.594Z" fill="#7565B3"/>
<path d="M149.659 245.656L140.673 244.67L140.47 255.271L148.09 256.03L149.659 245.656Z" fill="#F2BAA0"/>
<path d="M138.414 260.033L156.718 263.232L157.003 261.457C157.384 259.085 155.989 256.787 153.711 256.026L140.049 249.556L138.414 260.033Z" fill="#9CCEC1"/>
<path d="M100.669 149.004L104.336 150.403C104.336 150.403 111.885 151.73 115.533 153.616C120.601 156.239 151.577 168.184 154.111 169.708C158.909 172.594 162.892 176.353 163.188 182.276C163.397 186.073 162.027 190.188 161.284 193.905C160.836 196.146 160.388 198.388 159.94 200.629L158.4 208.333C157.89 210.902 157.356 213.467 156.836 216.034L153.689 231.433L152.091 239.131L151.29 242.978L150.478 246.825L139.991 245.453L140.196 241.526L140.413 237.6L140.848 229.749L141.773 214.054C141.93 211.439 142.076 208.822 142.244 206.208L142.739 198.365L143.306 187.856L122.733 182.549L107.542 178.557L99.9568 176.531L96.1642 175.518L88.8605 172.834L100.669 149.004Z" fill="#402F84"/>
<path d="M124.485 171.49C124.485 171.49 104.853 185.393 102.295 185.528C99.7377 185.663 97.9027 155.763 97.9027 155.763C97.9027 155.763 99.808 153.472 102.467 150.64C102.471 150.638 102.475 150.634 102.477 150.629C103.117 149.95 103.798 149.238 104.508 148.523C105.189 147.834 105.895 147.139 106.611 146.46C111.557 141.776 117.035 137.814 118.432 141.601C118.732 142.413 119.041 143.415 119.352 144.555C119.733 145.953 120.119 147.558 120.5 149.274C122.586 158.712 124.485 171.49 124.485 171.49Z" fill="#569E8D"/>
<path d="M87.0822 154.796C87.0822 154.796 93.6613 148.294 93.9263 129.051C94.1911 109.808 121.043 137.617 121.043 137.617L115.948 157.628L87.0822 154.796Z" fill="#AAA0D2"/>
<path d="M120.161 169.09C120.779 180.771 112.744 187.284 102.91 187.803C93.0758 188.323 84.0761 180.732 83.4588 169.052C82.8416 157.373 89.4339 148.518 99.2679 147.998C109.102 147.48 119.544 157.41 120.161 169.09Z" fill="#68569F"/>
<path d="M168.823 249.21L159.795 249.68L161.295 260.175L168.938 259.701L168.823 249.21Z" fill="#F2BAA0"/>
<path d="M160.03 265.206L178.611 265.423L178.607 263.626C178.602 261.225 176.858 259.179 174.486 258.797L159.962 254.603L160.03 265.206Z" fill="#9CCEC1"/>
<path d="M126.518 105.932C125.134 103.128 124.285 100.088 123.944 96.9789C123.609 93.8997 123.118 91.5779 122.455 90.4599C119.012 84.6545 108.567 86.6329 108.567 86.6329L97.5773 86.5548C91.7225 98.6605 92.5866 117.583 91.4475 131.992C90.3832 145.458 87.1311 154.844 87.1311 154.844C87.1311 154.844 108.727 160.991 117.346 162.715C132.581 165.763 139.943 162.715 140.705 145.958C141.456 129.453 126.566 120.77 128.518 118.281C131.425 114.575 128.736 110.431 126.518 105.932Z" fill="white"/>
<path d="M118.71 77.0217L114.972 88.7574C114.972 88.7574 106.28 94.0881 102.9 83.4985C99.5202 72.909 116.139 72.0299 116.139 72.0299L118.71 77.0217Z" fill="#E29A79"/>
<path d="M194.272 140.139L149.488 140.128V137.567L192.831 137.578L213.69 103.133L215.881 104.461L194.272 140.139Z" fill="#41695F"/>
<path d="M128.082 52.3921C128.082 52.3921 125.712 46.5149 118.253 45.5859C114.303 45.094 109.302 44.7833 103.847 47.8452C93.9988 53.3758 90.6015 68.6684 89.2389 78.3336C88.8621 81.0052 88.1636 83.5972 87.5202 85.6145C86.8891 87.5928 88.3292 89.6242 90.4044 89.6929L104.011 91.5073L111.859 66.7447L128.082 52.3921Z" fill="#504379"/>
<path d="M129.745 67.9064C128.675 80.8787 122.376 85.7988 115.041 84.1406C107.706 82.4823 103.401 73.8773 105.425 64.921C107.449 55.9631 115.036 50.0469 122.372 51.7035C129.707 53.3618 130.501 58.7534 129.745 67.9064Z" fill="#F2BAA0"/>
<path d="M130.209 60.3028C130.209 60.3028 128.82 55.7388 122.305 55.5421C115.132 55.3235 111.654 57.4985 104.264 66.8452L99.6531 54.5506C99.6531 54.5506 129.313 37.0189 130.209 60.3028Z" fill="#635492"/>
<path d="M109.701 68.1142C109.265 70.0425 107.35 71.2511 105.423 70.8154C103.496 70.3798 102.194 68.5014 102.63 66.5746C103.065 64.6478 105.073 63.4018 107 63.8375C108.927 64.2731 110.137 66.1874 109.701 68.1142Z" fill="#F2BAA0"/>
<path d="M110.49 103.048L115.314 119.805L139.943 121.582L116.076 128.184C116.076 128.184 104.904 119.552 104.904 119.043C104.904 118.536 104.904 108.126 104.904 108.126L110.49 103.048Z" fill="#9CCEC1"/>
<path d="M95.256 105.587C95.256 105.587 96.5255 140.118 108.459 138.594C120.392 137.071 134.61 132.754 140.705 127.931C146.799 123.106 111.932 129.345 111.932 129.345L101.857 111.426L95.256 105.587Z" fill="#9CCEC1"/>
<path d="M124.349 68.273C123.448 70.3512 123.929 72.7558 125.423 73.6427C126.917 74.5312 128.86 73.5662 129.761 71.488C130.662 69.4097 130.181 67.0051 128.686 66.1182C127.192 65.2298 125.25 66.1947 124.349 68.273Z" stroke="white" stroke-width="0.444834" stroke-miterlimit="10"/>
<path d="M115.506 66.4322C114.484 68.6353 115.166 71.2445 117.029 72.2594C118.89 73.2727 121.229 72.3078 122.25 70.1046C123.273 67.9014 122.59 65.2923 120.728 64.2789C118.865 63.264 116.527 64.229 115.506 66.4322Z" stroke="white" stroke-width="0.440504" stroke-miterlimit="10"/>
<path d="M115 66.7524C115.089 66.754 115.174 66.7196 115.21 66.6603C115.256 66.5822 115.202 66.4932 115.089 66.4588L105.976 63.7669C105.863 63.7326 105.733 63.7685 105.686 63.8466C105.639 63.9231 105.693 64.0136 105.807 64.048L114.919 66.7399C114.946 66.7477 114.974 66.7524 115 66.7524Z" fill="white"/>
<path d="M122.487 69.2677L124.004 69.555C124.061 69.566 124.118 69.5238 124.128 69.4629C124.141 69.402 124.104 69.3427 124.046 69.3317L122.528 69.046C122.472 69.0351 122.416 69.0757 122.405 69.1366C122.392 69.199 122.43 69.2568 122.487 69.2677Z" fill="white"/>
<path d="M172.921 131.322L170.728 123.858C170.859 123.164 170.617 122.578 169.628 122.348C169.625 122.348 159.848 119.956 159.848 119.956C159.765 119.938 159.681 119.93 159.596 119.928L159.598 119.899L149.427 120.696L151.264 126.378L156.843 126.369C156.881 126.594 156.959 126.811 157.099 127.014C157.29 127.287 157.569 127.478 157.86 127.645C157.915 127.676 157.968 127.707 158.022 127.737C158.83 128.187 159.654 128.607 160.494 128.994C161.651 129.529 162.867 130.01 164.142 130.038C166.307 130.085 167.427 128.588 168.723 127.1C168.849 126.955 169.013 126.764 169.193 126.546L171.894 131.617C171.924 131.673 171.966 131.725 172.016 131.77C172.422 132.123 173.063 131.806 172.921 131.322Z" fill="#F2BAA0"/>
<path d="M111.719 122.425L111.111 122.569C111.335 122.456 111.627 122.391 111.91 122.403C111.846 122.411 111.783 122.417 111.719 122.425ZM123.584 121.006C120.241 121.43 116.893 121.822 113.546 122.211C112.982 122.273 112.124 108.004 112.042 106.787C111.918 104.948 111.981 102.985 111.425 101.243C110.38 97.9667 107.716 95.6027 104.604 95.1936C101.805 94.8267 98.9275 96.0712 97.0246 98.4695C94.5447 101.594 94.5763 105.241 95.5261 108.969C96.7193 113.65 97.8854 118.34 99.1356 123.001C99.7699 125.365 100.304 127.863 101.14 130.143C101.819 131.996 103.264 133.656 104.731 134.779C106.063 135.802 107.595 136.487 109.202 136.768C110.806 137.054 112.483 136.926 114.022 136.428L113.413 136.571C125.081 133.689 141.507 129.359 153.26 126.841C152.845 123.37 153.255 122.87 152.882 119.394C152.871 119.396 131.475 119.93 123.584 121.006Z" fill="white"/>
<path d="M104.949 161.676C104.949 161.676 138.092 165.448 143.499 167.277C146.58 168.32 149.675 169.322 152.748 170.393C155.538 171.366 158.277 172.434 161.022 173.532C166.221 175.609 170.756 178.681 171.999 184.479C172.815 188.194 172.125 192.475 171.988 196.263C171.905 198.547 171.822 200.832 171.739 203.116L171.457 210.967C171.365 213.584 171.251 216.201 171.149 218.819L170.517 234.524L170.173 242.378L170.002 246.305L169.817 250.232L159.245 250.56L158.817 246.652L158.402 242.742L157.571 234.924L155.964 219.285C155.7 216.677 155.423 214.071 155.17 211.464L154.398 203.642L153.271 193.181L132.112 191.243L116.477 189.741L108.666 188.96L104.76 188.568L97.1202 187.094L104.949 161.676Z" fill="#68569F"/>
<path d="M145.273 260.147C145.273 264.128 142.046 267.355 138.066 267.355C134.084 267.355 130.858 264.128 130.858 260.147C130.858 256.166 134.084 252.938 138.066 252.938C142.046 252.938 145.273 256.166 145.273 260.147Z" fill="#41695F"/>
<path d="M139.63 257.39C141.053 257.39 142.424 256.614 143.119 255.261C144.107 253.338 143.35 250.975 141.424 249.987L106.896 232.24C104.972 231.251 102.61 232.009 101.621 233.932C100.632 235.858 101.39 238.218 103.315 239.208L137.843 256.956C138.416 257.249 139.028 257.39 139.63 257.39Z" fill="white"/>
<path d="M138.066 248.88C133.619 248.88 129.96 252.991 129.506 258.266C129.458 258.819 129.957 259.26 130.496 259.134L131.18 258.973C135.933 257.86 140.886 257.905 145.617 259.109C146.16 259.246 146.672 258.805 146.622 258.246C146.16 252.98 142.505 248.88 138.066 248.88Z" fill="white"/>
<path d="M58.4998 260.147C58.4998 264.128 61.7269 267.355 65.7076 267.355C69.6884 267.355 72.9154 264.128 72.9154 260.147C72.9154 256.166 69.6884 252.938 65.7076 252.938C61.7269 252.938 58.4998 256.166 58.4998 260.147Z" fill="#41695F"/>
<path d="M64.1418 257.39C64.7447 257.39 65.3563 257.249 65.9294 256.956L100.458 239.208C102.382 238.218 103.14 235.858 102.151 233.934C101.162 232.009 98.8005 231.251 96.8766 232.24L62.3479 249.987C60.4236 250.975 59.6656 253.338 60.6546 255.261C61.3489 256.612 62.7205 257.39 64.1418 257.39Z" fill="white"/>
<path d="M65.7075 248.88C70.1538 248.88 73.8125 252.991 74.2672 258.266C74.3148 258.819 73.8161 259.26 73.2762 259.134L72.5926 258.973C67.8391 257.86 62.8874 257.905 58.1557 259.109C57.612 259.246 57.1005 258.805 57.1496 258.246C57.6123 252.98 61.2673 248.88 65.7075 248.88Z" fill="white"/>
<path d="M114.045 268.467C113.914 268.467 113.781 268.443 113.651 268.397C113.058 268.178 112.755 267.522 112.973 266.929L158.93 142.009C159.147 141.417 159.804 141.112 160.396 141.331C160.988 141.548 161.292 142.205 161.073 142.797L115.118 267.717C114.947 268.179 114.51 268.467 114.045 268.467Z" fill="#41695F"/>
<path d="M326.562 268.467C326.097 268.467 325.66 268.179 325.49 267.717L279.534 142.797C279.315 142.205 279.62 141.548 280.211 141.331C280.803 141.112 281.461 141.415 281.678 142.009L327.635 266.929C327.852 267.522 327.549 268.178 326.957 268.397C326.826 268.443 326.693 268.467 326.562 268.467Z" fill="#41695F"/>
<path d="M300.722 146.68H146.383C144.93 146.68 143.751 145.503 143.751 144.049V142.706C143.751 141.253 144.93 140.074 146.383 140.074H300.724C302.178 140.074 303.355 141.253 303.355 142.706V144.049C303.355 145.503 302.178 146.68 300.722 146.68Z" fill="#8B77D9"/>
<path d="M277.023 64.6338L269.88 57.8494L270.415 57.2857L277.559 64.0701L277.023 64.6338Z" fill="#553DAB"/>
<path d="M264.126 60.2788L265.864 61.9058L268.515 59.0733L266.777 57.4463L264.126 60.2788Z" fill="#5C4AA7"/>
<path d="M245.395 68.5747C244.82 69.1868 247.362 72.4986 251.072 75.9697C254.781 79.4407 258.253 81.7563 258.826 81.1442C259.267 80.6727 257.88 78.6225 255.541 76.1289C254.824 75.367 254.022 74.5613 253.151 73.7478C252.243 72.8983 251.347 72.1161 250.507 71.429C247.914 69.318 245.827 68.111 245.395 68.5747Z" fill="#CD612E"/>
<path d="M253.151 73.7493C249.953 70.7545 246.931 68.6216 245.792 68.4842L245.678 68.378L253.088 60.4585C256.533 56.7782 262.308 56.5862 265.989 60.0307C269.669 63.4752 269.861 69.2493 266.416 72.9311L259.006 80.8491L258.89 80.7429C258.678 79.6156 256.35 76.7426 253.151 73.7493Z" fill="#FF9362"/>
<path d="M250.507 71.4287C250.021 72.6747 250.402 74.2471 251.566 75.3354C252.731 76.4252 254.331 76.7016 255.541 76.1286C254.824 75.3666 254.022 74.5609 253.151 73.7474C252.243 72.898 251.347 72.1157 250.507 71.4287Z" fill="white"/>
<path d="M266.558 53.9799C265.184 55.4492 265.261 57.7554 266.73 59.131C268.199 60.5066 270.506 60.4301 271.881 58.9608C273.255 57.4915 273.18 55.1853 271.71 53.8097C270.24 52.434 267.934 52.5106 266.558 53.9799Z" fill="#FF9362"/>
<path d="M282.986 137.124L282.485 136.993L296.864 82.1166L275.707 62.0726L276.063 61.6963L297.442 81.9511L297.404 82.0994L282.986 137.124Z" fill="#553DAB"/>
<path d="M280.054 137.697L279.553 137.566L294.057 82.4229L275.181 64.5399L275.537 64.1636L294.636 82.2574L280.054 137.697Z" fill="#553DAB"/>
<path d="M274.035 61.2689C272.659 62.7382 272.736 65.0444 274.205 66.4201C275.674 67.7957 277.98 67.7192 279.356 66.2499C280.732 64.7806 280.655 62.4744 279.186 61.0987C277.717 59.7231 275.41 59.7996 274.035 61.2689Z" fill="#FF9362"/>
<path d="M292.553 80.0511C291.177 81.5204 291.254 83.8267 292.723 85.2023C294.193 86.5779 296.499 86.5014 297.874 85.0321C299.25 83.5628 299.173 81.2566 297.704 79.881C296.235 78.5053 293.929 78.5818 292.553 80.0511Z" fill="#FF9362"/>
<path d="M262.277 137.985V140.166H285.16V137.985C285.16 135.757 283.355 133.948 281.126 133.948H266.313C265.859 133.948 265.422 134.025 265.016 134.164C263.425 134.703 262.277 136.211 262.277 137.985Z" fill="#CD612E"/>
<path d="M263.917 136.926V139.109H285.16V137.985C285.16 135.757 283.355 133.948 281.127 133.948H266.313C265.859 133.948 265.422 134.025 265.016 134.164C264.333 134.887 263.917 135.855 263.917 136.926Z" fill="#FF9362"/>
<path d="M378.558 266.974C378.558 267.797 377.734 268.543 376.4 269.082C375.067 269.62 373.226 269.955 371.191 269.955H12.432C8.3645 269.955 5.06537 268.62 5.06537 266.974C5.06537 266.151 5.8898 265.406 7.22372 264.866C8.55624 264.329 10.397 263.995 12.432 263.995H371.191C375.259 263.995 378.558 265.33 378.558 266.974Z" fill="#8B77D9"/>
<path d="M231.139 70.9414H151.016V67.9263H231.139V70.9414Z" stroke="white" stroke-width="0.754101" stroke-miterlimit="10"/>
<path d="M187.906 67.4097L181.982 65.511L193.493 29.606L199.417 31.5047L187.906 67.4097Z" stroke="white" stroke-width="0.565576" stroke-miterlimit="10"/>
<path d="M205.971 67.8315H199.75V30.1263H205.971V67.8315Z" stroke="white" stroke-width="0.565576" stroke-miterlimit="10"/>
<path d="M212.287 67.9266H206.066V30.2214H212.287V67.9266Z" stroke="white" stroke-width="0.565576" stroke-miterlimit="10"/>
<path d="M218.602 68.0205H212.38V30.3153H218.602V68.0205Z" stroke="white" stroke-width="0.565576" stroke-miterlimit="10"/>
<path d="M224.917 68.1139H218.696V30.4086H224.917V68.1139Z" stroke="white" stroke-width="0.565576" stroke-miterlimit="10"/>
<path d="M231.233 68.209H225.012V30.5037H231.233V68.209Z" stroke="white" stroke-width="0.565576" stroke-miterlimit="10"/>
<path d="M41.6027 178.208H11.9356V168.372H41.6027V178.208Z" fill="#E6CDC1"/>
<path d="M57.2168 190.7H27.5497V180.863H57.2168V190.7Z" fill="#E6CDC1"/>
<path d="M41.6027 203.191H11.9356V193.354H41.6027V203.191Z" fill="#E6CDC1"/>
<path d="M237.093 185.703H207.426V175.866H237.093V185.703Z" fill="#E6CDC1"/>
<path d="M258.016 198.195H228.349V188.358H258.016V198.195Z" fill="#E6CDC1"/>
<path d="M237.093 210.686H207.426V200.849H237.093V210.686Z" fill="#E6CDC1"/>
<path d="M272.381 210.686H242.714V200.849H272.381V210.686Z" fill="#E6CDC1"/>
<path d="M258.016 223.177H228.349V213.34H258.016V223.177Z" fill="#E6CDC1"/>
<path d="M327.187 126.057H297.52V116.22H327.187V126.057Z" fill="#E6CDC1"/>
<path d="M362.475 126.057H332.808V116.22H362.475V126.057Z" fill="#E6CDC1"/>
<path d="M348.11 138.548H318.443V128.711H348.11V138.548Z" fill="#E6CDC1"/>
<path d="M362.475 151.04H332.808V141.203H362.475V151.04Z" fill="#E6CDC1"/>
<path d="M348.11 163.531H318.443V153.694H348.11V163.531Z" fill="#E6CDC1"/>
<path d="M275.66 39.3979H245.993V29.561H275.66V39.3979Z" fill="#E6CDC1"/>
<path d="M174.167 21.5977H144.5V11.7607H174.167V21.5977Z" fill="#E6CDC1"/>
<path d="M161.988 34.4014H132.321V24.5644H161.988V34.4014Z" fill="#E6CDC1"/>
</svg>
