<svg width="24" height="25" viewBox="0 0 24 25" fill="none" xmlns="http://www.w3.org/2000/svg">
<path fill-rule="evenodd" clip-rule="evenodd" d="M11.9871 23.253C13.4368 23.253 14.6121 22.0777 14.6121 20.628C14.6121 19.1782 13.4368 18.003 11.9871 18.003C10.5373 18.003 9.36206 19.1782 9.36206 20.628C9.36206 22.0777 10.5373 23.253 11.9871 23.253Z" stroke="black" stroke-width="1.5" stroke-linecap="round" stroke-linejoin="round"/>
<path fill-rule="evenodd" clip-rule="evenodd" d="M11.9871 6.00299C13.4368 6.00299 14.6121 4.82774 14.6121 3.37799C14.6121 1.92824 13.4368 0.752991 11.9871 0.752991C10.5373 0.752991 9.36206 1.92824 9.36206 3.37799C9.36206 4.82774 10.5373 6.00299 11.9871 6.00299Z" stroke="black" stroke-width="1.5" stroke-linecap="round" stroke-linejoin="round"/>
<path fill-rule="evenodd" clip-rule="evenodd" d="M11.9871 14.628C13.4368 14.628 14.6121 13.4527 14.6121 12.003C14.6121 10.5532 13.4368 9.37799 11.9871 9.37799C10.5373 9.37799 9.36206 10.5532 9.36206 12.003C9.36206 13.4527 10.5373 14.628 11.9871 14.628Z" stroke="black" stroke-width="1.5" stroke-linecap="round" stroke-linejoin="round"/>
</svg>
