<svg width="24" height="24" viewBox="0 0 24 24" fill="none" xmlns="http://www.w3.org/2000/svg">
<path d="M5.08561 12.6256C4.51393 12.0261 3.56445 12.0035 2.96489 12.5751C2.36532 13.1468 2.34272 14.0963 2.91439 14.6959L5.08561 12.6256ZM9.09091 19L8.0053 20.0351C8.30634 20.3508 8.72992 20.5199 9.16562 20.4981C9.60132 20.4764 10.006 20.2661 10.2741 19.922L9.09091 19ZM21.1832 5.92197C21.6924 5.26851 21.5754 4.32599 20.922 3.8168C20.2685 3.30761 19.326 3.42456 18.8168 4.07803L21.1832 5.92197ZM2.91439 14.6959L8.0053 20.0351L10.1765 17.9649L5.08561 12.6256L2.91439 14.6959ZM10.2741 19.922L21.1832 5.92197L18.8168 4.07803L7.90771 18.078L10.2741 19.922Z" fill="black"/>
</svg>
