<svg width="24" height="24" viewBox="0 0 24 24" fill="none" xmlns="http://www.w3.org/2000/svg">
<path fill-rule="evenodd" clip-rule="evenodd" d="M15 6.75C16.6569 6.75 18 5.40685 18 3.75C18 2.09315 16.6569 0.75 15 0.75C13.3431 0.75 12 2.09315 12 3.75C12 5.40685 13.3431 6.75 15 6.75Z" stroke="black" stroke-width="1.5" stroke-linecap="round" stroke-linejoin="round"/>
<path d="M15 8.25V14.25" stroke="black" stroke-width="1.5" stroke-linecap="round" stroke-linejoin="round"/>
<path fill-rule="evenodd" clip-rule="evenodd" d="M17.25 23.25L18 15.75H19.5V12.75C19.5 10.2647 17.4853 8.25 15 8.25C12.5147 8.25 10.5 10.2647 10.5 12.75V15.75H12L12.75 23.25H17.25Z" stroke="black" stroke-width="1.5" stroke-linecap="round" stroke-linejoin="round"/>
<path d="M4.5 15V14.25C4.5 13.4216 5.17157 12.75 6 12.75V12.75C6.82843 12.75 7.5 13.4216 7.5 14.25V23.25" stroke="black" stroke-width="1.5" stroke-linecap="round" stroke-linejoin="round"/>
</svg>
