<svg width="25" height="24" viewBox="0 0 25 24" fill="none" xmlns="http://www.w3.org/2000/svg">
<path fill-rule="evenodd" clip-rule="evenodd" d="M5.25903 6.75C6.91589 6.75 8.25903 5.40685 8.25903 3.75C8.25903 2.09315 6.91589 0.75 5.25903 0.75C3.60218 0.75 2.25903 2.09315 2.25903 3.75C2.25903 5.40685 3.60218 6.75 5.25903 6.75Z" stroke="black" stroke-width="1.5" stroke-linecap="round" stroke-linejoin="round"/>
<path d="M5.25903 8.25V14.25" stroke="black" stroke-width="1.5" stroke-linecap="round" stroke-linejoin="round"/>
<path fill-rule="evenodd" clip-rule="evenodd" d="M7.50903 23.25L8.25903 15.75H9.75903V12.75C9.75903 10.2647 7.74431 8.25 5.25903 8.25C2.77375 8.25 0.759033 10.2647 0.759033 12.75V15.75H2.25903L3.00903 23.25H7.50903Z" stroke="black" stroke-width="1.5" stroke-linecap="round" stroke-linejoin="round"/>
<path fill-rule="evenodd" clip-rule="evenodd" d="M14.259 12.75C15.5017 12.75 16.509 11.7426 16.509 10.5C16.509 9.25736 15.5017 8.25 14.259 8.25C13.0164 8.25 12.009 9.25736 12.009 10.5C12.009 11.7426 13.0164 12.75 14.259 12.75Z" stroke="black" stroke-width="1.5" stroke-linecap="round" stroke-linejoin="round"/>
<path d="M13.0571 14.447C14.2018 14.0606 15.4626 14.2491 16.4443 14.9534C17.426 15.6578 18.0084 16.7917 18.0091 18V18.75H16.5091L15.7591 23.25H12.7591L12.3831 20.994" stroke="black" stroke-width="1.5" stroke-linecap="round" stroke-linejoin="round"/>
<path fill-rule="evenodd" clip-rule="evenodd" d="M22.69 1.33901C22.3314 0.962377 21.8341 0.749207 21.314 0.749207C20.794 0.749207 20.2967 0.962377 19.938 1.33901L18.759 2.55801L17.581 1.33901C17.2224 0.962377 16.7251 0.749207 16.205 0.749207C15.685 0.749207 15.1877 0.962377 14.829 1.33901C14.069 2.13507 14.069 3.38794 14.829 4.18401L18.341 7.81501C18.4501 7.92952 18.6014 7.99433 18.7595 7.99433C18.9177 7.99433 19.0689 7.92952 19.178 7.81501L22.69 4.18401C23.449 3.38753 23.449 2.13548 22.69 1.33901V1.33901Z" stroke="black" stroke-width="1.5" stroke-linecap="round" stroke-linejoin="round"/>
</svg>
