<svg width="25" height="24" viewBox="0 0 25 24" fill="none" xmlns="http://www.w3.org/2000/svg">
<path fill-rule="evenodd" clip-rule="evenodd" d="M5.25903 12C6.91589 12 8.25903 10.6569 8.25903 9C8.25903 7.34315 6.91589 6 5.25903 6C3.60218 6 2.25903 7.34315 2.25903 9C2.25903 10.6569 3.60218 12 5.25903 12Z" stroke="black" stroke-width="1.5" stroke-linecap="round" stroke-linejoin="round"/>
<path d="M7.74703 14.25C6.36559 13.3334 4.59204 13.2506 3.1312 14.0345C1.67037 14.8184 0.758903 16.3421 0.759033 18" stroke="black" stroke-width="1.5" stroke-linecap="round" stroke-linejoin="round"/>
<path d="M22.509 18C22.5091 16.3421 21.5977 14.8184 20.1368 14.0345C18.676 13.2506 16.9024 13.3334 15.521 14.25" stroke="black" stroke-width="1.5" stroke-linecap="round" stroke-linejoin="round"/>
<path fill-rule="evenodd" clip-rule="evenodd" d="M18.009 12C19.6659 12 21.009 10.6569 21.009 9C21.009 7.34315 19.6659 6 18.009 6C16.3522 6 15.009 7.34315 15.009 9C15.009 10.6569 16.3522 12 18.009 12Z" stroke="black" stroke-width="1.5" stroke-linecap="round" stroke-linejoin="round"/>
<path d="M15.009 9C15.009 9 15.009 12.75 12.759 12.75" stroke="black" stroke-width="1.5" stroke-linecap="round" stroke-linejoin="round"/>
<path d="M21.009 9C21.009 9 21.009 12.75 23.259 12.75" stroke="black" stroke-width="1.5" stroke-linecap="round" stroke-linejoin="round"/>
<path fill-rule="evenodd" clip-rule="evenodd" d="M11.259 20.25C12.5017 20.25 13.509 19.2426 13.509 18C13.509 16.7574 12.5017 15.75 11.259 15.75C10.0164 15.75 9.00903 16.7574 9.00903 18C9.00903 19.2426 10.0164 20.25 11.259 20.25Z" stroke="black" stroke-width="1.5" stroke-linecap="round" stroke-linejoin="round"/>
<path d="M15.156 23.25C14.352 21.8583 12.8668 21.001 11.2595 21.001C9.65228 21.001 8.16705 21.8583 7.36304 23.25" stroke="black" stroke-width="1.5" stroke-linecap="round" stroke-linejoin="round"/>
<path d="M8.25903 3.75H14.259" stroke="black" stroke-width="1.5" stroke-linecap="round" stroke-linejoin="round"/>
<path d="M11.259 0.75V6.75" stroke="black" stroke-width="1.5" stroke-linecap="round" stroke-linejoin="round"/>
</svg>
