<svg width="25" height="24" viewBox="0 0 25 24" fill="none" xmlns="http://www.w3.org/2000/svg">
<path d="M23.259 9L12.009 0.75L0.758972 9" stroke="black" stroke-width="1.5" stroke-linecap="round" stroke-linejoin="round"/>
<path fill-rule="evenodd" clip-rule="evenodd" d="M6.00897 15.75C7.66583 15.75 9.00897 14.4069 9.00897 12.75C9.00897 11.0931 7.66583 9.75 6.00897 9.75C4.35212 9.75 3.00897 11.0931 3.00897 12.75C3.00897 14.4069 4.35212 15.75 6.00897 15.75Z" stroke="black" stroke-width="1.5" stroke-linecap="round" stroke-linejoin="round"/>
<path d="M7.50897 17.506C6.13144 17.019 4.60319 17.231 3.41034 18.0748C2.21749 18.9185 1.50853 20.2889 1.50897 21.75" stroke="black" stroke-width="1.5" stroke-linecap="round" stroke-linejoin="round"/>
<path d="M22.509 21.75C22.5094 20.2889 21.8005 18.9185 20.6076 18.0748C19.4148 17.231 17.8865 17.019 16.509 17.506" stroke="black" stroke-width="1.5" stroke-linecap="round" stroke-linejoin="round"/>
<path fill-rule="evenodd" clip-rule="evenodd" d="M18.009 15.75C19.6658 15.75 21.009 14.4069 21.009 12.75C21.009 11.0931 19.6658 9.75 18.009 9.75C16.3521 9.75 15.009 11.0931 15.009 12.75C15.009 14.4069 16.3521 15.75 18.009 15.75Z" stroke="black" stroke-width="1.5" stroke-linecap="round" stroke-linejoin="round"/>
<path d="M21.009 12.75C21.009 12.75 21.009 16.5 23.259 16.5" stroke="black" stroke-width="1.5" stroke-linecap="round" stroke-linejoin="round"/>
<path fill-rule="evenodd" clip-rule="evenodd" d="M12.009 20.25C13.2516 20.25 14.259 19.2426 14.259 18C14.259 16.7574 13.2516 15.75 12.009 15.75C10.7663 15.75 9.75897 16.7574 9.75897 18C9.75897 19.2426 10.7663 20.25 12.009 20.25Z" stroke="black" stroke-width="1.5" stroke-linecap="round" stroke-linejoin="round"/>
<path d="M15.906 23.25C15.102 21.8583 13.6167 21.001 12.0095 21.001C10.4022 21.001 8.91698 21.8583 8.11298 23.25" stroke="black" stroke-width="1.5" stroke-linecap="round" stroke-linejoin="round"/>
</svg>
