<svg width="25" height="24" viewBox="0 0 25 24" fill="none" xmlns="http://www.w3.org/2000/svg">
<path fill-rule="evenodd" clip-rule="evenodd" d="M6.75897 6.75C8.41583 6.75 9.75897 5.40685 9.75897 3.75C9.75897 2.09315 8.41583 0.75 6.75897 0.75C5.10212 0.75 3.75897 2.09315 3.75897 3.75C3.75897 5.40685 5.10212 6.75 6.75897 6.75Z" stroke="black" stroke-width="1.5" stroke-linecap="round" stroke-linejoin="round"/>
<path fill-rule="evenodd" clip-rule="evenodd" d="M10.509 12C10.2442 11.0966 9.82828 10.2445 9.27897 9.47998L6.75897 12L4.23897 9.47998C3.69042 10.245 3.27461 11.0969 3.00897 12L0.758972 18.75H3.75897L4.50897 23.25H9.00897L9.75897 18.75H12.759L10.509 12Z" stroke="black" stroke-width="1.5" stroke-linecap="round" stroke-linejoin="round"/>
<path fill-rule="evenodd" clip-rule="evenodd" d="M15.009 12.75C16.2516 12.75 17.259 11.7426 17.259 10.5C17.259 9.25736 16.2516 8.25 15.009 8.25C13.7663 8.25 12.759 9.25736 12.759 10.5C12.759 11.7426 13.7663 12.75 15.009 12.75Z" stroke="black" stroke-width="1.5" stroke-linecap="round" stroke-linejoin="round"/>
<path d="M15.009 14.25C17.08 14.25 18.759 15.9289 18.759 18V18.75H17.259L16.509 23.25H13.509L13.259 21.75" stroke="black" stroke-width="1.5" stroke-linecap="round" stroke-linejoin="round"/>
<path fill-rule="evenodd" clip-rule="evenodd" d="M22.69 1.33901C22.3314 0.962377 21.834 0.749207 21.314 0.749207C20.7939 0.749207 20.2966 0.962377 19.938 1.33901L18.759 2.55801L17.581 1.33901C17.2224 0.962377 16.725 0.749207 16.205 0.749207C15.6849 0.749207 15.1876 0.962377 14.829 1.33901C14.069 2.13507 14.069 3.38794 14.829 4.18401L18.341 7.81501C18.4501 7.92952 18.6013 7.99433 18.7595 7.99433C18.9176 7.99433 19.0689 7.92952 19.178 7.81501L22.69 4.18401C23.449 3.38753 23.449 2.13548 22.69 1.33901V1.33901Z" stroke="black" stroke-width="1.5" stroke-linecap="round" stroke-linejoin="round"/>
</svg>
