<svg width="24" height="24" viewBox="0 0 24 24" fill="none" xmlns="http://www.w3.org/2000/svg">
<path d="M23.25 9.75L12 1.5L0.75 9.75" stroke="black" stroke-width="1.5" stroke-linecap="round" stroke-linejoin="round"/>
<path fill-rule="evenodd" clip-rule="evenodd" d="M3.375 19.017C4.82475 19.017 6 17.8418 6 16.392C6 14.9423 4.82475 13.767 3.375 13.767C1.92525 13.767 0.75 14.9423 0.75 16.392C0.75 17.8418 1.92525 19.017 3.375 19.017Z" stroke="black" stroke-width="1.5" stroke-linecap="round" stroke-linejoin="round"/>
<path fill-rule="evenodd" clip-rule="evenodd" d="M20.625 19.017C22.0747 19.017 23.25 17.8418 23.25 16.392C23.25 14.9423 22.0747 13.767 20.625 13.767C19.1753 13.767 18 14.9423 18 16.392C18 17.8418 19.1753 19.017 20.625 19.017Z" stroke="black" stroke-width="1.5" stroke-linecap="round" stroke-linejoin="round"/>
<path fill-rule="evenodd" clip-rule="evenodd" d="M12 19.017C13.4497 19.017 14.625 17.8418 14.625 16.392C14.625 14.9423 13.4497 13.767 12 13.767C10.5503 13.767 9.375 14.9423 9.375 16.392C9.375 17.8418 10.5503 19.017 12 19.017Z" stroke="black" stroke-width="1.5" stroke-linecap="round" stroke-linejoin="round"/>
<path d="M0.75 20.613C1.85894 19.8163 3.26965 19.5662 4.5849 19.9331C5.90015 20.3 6.97765 21.2443 7.514 22.5H7.861C8.56847 20.8419 10.1972 19.766 12 19.766C13.8028 19.766 15.4315 20.8419 16.139 22.5H16.486C17.0223 21.2443 18.0999 20.3 19.4151 19.9331C20.7304 19.5662 22.1411 19.8163 23.25 20.613" stroke="black" stroke-width="1.5" stroke-linecap="round" stroke-linejoin="round"/>
</svg>
