<svg width="25" height="24" viewBox="0 0 25 24" fill="none" xmlns="http://www.w3.org/2000/svg">
<path fill-rule="evenodd" clip-rule="evenodd" d="M2.08295 12C2.13758 6.55659 6.56579 2.17261 12.0094 2.17261C17.4531 2.17261 21.8813 6.55659 21.9359 12L21.2199 11.4C20.3618 10.6879 19.2536 10.3504 18.1442 10.4632C17.0348 10.576 16.0172 11.1297 15.3199 12C14.4425 11.1214 13.2517 10.6277 12.0099 10.6277C10.7682 10.6277 9.57742 11.1214 8.69995 12C8.00333 11.1288 6.98562 10.5744 5.87589 10.4615C4.76616 10.3487 3.65768 10.6869 2.79995 11.4L2.08295 12Z" stroke="black" stroke-width="1.5" stroke-linecap="round" stroke-linejoin="round"/>
<path d="M12.009 2.074V0.75" stroke="black" stroke-width="1.5" stroke-linecap="round" stroke-linejoin="round"/>
<path fill-rule="evenodd" clip-rule="evenodd" d="M3.38397 19.767C4.83372 19.767 6.00897 18.5918 6.00897 17.142C6.00897 15.6923 4.83372 14.517 3.38397 14.517C1.93422 14.517 0.758972 15.6923 0.758972 17.142C0.758972 18.5918 1.93422 19.767 3.38397 19.767Z" stroke="black" stroke-width="1.5" stroke-linecap="round" stroke-linejoin="round"/>
<path fill-rule="evenodd" clip-rule="evenodd" d="M20.634 19.767C22.0837 19.767 23.259 18.5918 23.259 17.142C23.259 15.6923 22.0837 14.517 20.634 14.517C19.1842 14.517 18.009 15.6923 18.009 17.142C18.009 18.5918 19.1842 19.767 20.634 19.767Z" stroke="black" stroke-width="1.5" stroke-linecap="round" stroke-linejoin="round"/>
<path fill-rule="evenodd" clip-rule="evenodd" d="M12.009 19.767C13.4587 19.767 14.634 18.5918 14.634 17.142C14.634 15.6923 13.4587 14.517 12.009 14.517C10.5592 14.517 9.38397 15.6923 9.38397 17.142C9.38397 18.5918 10.5592 19.767 12.009 19.767Z" stroke="black" stroke-width="1.5" stroke-linecap="round" stroke-linejoin="round"/>
<path d="M0.758972 21.363C1.86796 20.5659 3.27894 20.3156 4.59447 20.6825C5.91 21.0495 6.98769 21.994 7.52397 23.25H7.86997C8.57716 21.5913 10.2063 20.5148 12.0095 20.5148C13.8127 20.5148 15.4418 21.5913 16.149 23.25H16.5C17.0363 21.9943 18.1138 21.05 19.4291 20.6831C20.7443 20.3162 22.155 20.5663 23.264 21.363" stroke="black" stroke-width="1.5" stroke-linecap="round" stroke-linejoin="round"/>
</svg>
