<svg width="24" height="24" viewBox="0 0 24 24" fill="none" xmlns="http://www.w3.org/2000/svg">
<path d="M3 15V14.25C3 13.4216 3.67157 12.75 4.5 12.75V12.75C5.32843 12.75 6 13.4216 6 14.25V23.25" stroke="black" stroke-width="1.5" stroke-linecap="round" stroke-linejoin="round"/>
<path fill-rule="evenodd" clip-rule="evenodd" d="M15 6.75C16.6569 6.75 18 5.40685 18 3.75C18 2.09315 16.6569 0.75 15 0.75C13.3431 0.75 12 2.09315 12 3.75C12 5.40685 13.3431 6.75 15 6.75Z" stroke="black" stroke-width="1.5" stroke-linecap="round" stroke-linejoin="round"/>
<path fill-rule="evenodd" clip-rule="evenodd" d="M18.75 12C18.4848 11.0967 18.0689 10.2448 17.52 9.47998L15 12L12.48 9.47998C11.9311 10.2448 11.5152 11.0967 11.25 12L9 18.75H12L12.75 23.25H17.25L18 18.75H21L18.75 12Z" stroke="black" stroke-width="1.5" stroke-linecap="round" stroke-linejoin="round"/>
</svg>
