<svg width="24" height="24" viewBox="0 0 24 24" fill="none" xmlns="http://www.w3.org/2000/svg">
<path fill-rule="evenodd" clip-rule="evenodd" d="M19.5 8.25C21.1569 8.25 22.5 6.90685 22.5 5.25C22.5 3.59315 21.1569 2.25 19.5 2.25C17.8431 2.25 16.5 3.59315 16.5 5.25C16.5 6.90685 17.8431 8.25 19.5 8.25Z" stroke="black" stroke-width="1.5" stroke-linecap="round" stroke-linejoin="round"/>
<path d="M17.812 20.25L18 21.75H21L21.75 15.75H23.25V13.5C23.25 12.0796 22.4475 10.7811 21.1771 10.1459C19.9066 9.5107 18.3863 9.64778 17.25 10.5" stroke="black" stroke-width="1.5" stroke-linecap="round" stroke-linejoin="round"/>
<path fill-rule="evenodd" clip-rule="evenodd" d="M4.5 8.25C6.15685 8.25 7.5 6.90685 7.5 5.25C7.5 3.59315 6.15685 2.25 4.5 2.25C2.84315 2.25 1.5 3.59315 1.5 5.25C1.5 6.90685 2.84315 8.25 4.5 8.25Z" stroke="black" stroke-width="1.5" stroke-linecap="round" stroke-linejoin="round"/>
<path d="M6.188 20.25L6 21.75H3L2.25 15.75H0.75V13.5C0.75 12.0796 1.55251 10.7811 2.82295 10.1459C4.09339 9.5107 5.61368 9.64778 6.75 10.5" stroke="black" stroke-width="1.5" stroke-linecap="round" stroke-linejoin="round"/>
<path fill-rule="evenodd" clip-rule="evenodd" d="M12 11.25C13.2426 11.25 14.25 10.2426 14.25 9C14.25 7.75736 13.2426 6.75 12 6.75C10.7574 6.75 9.75 7.75736 9.75 9C9.75 10.2426 10.7574 11.25 12 11.25Z" stroke="black" stroke-width="1.5" stroke-linecap="round" stroke-linejoin="round"/>
<path d="M12 12.75C9.92893 12.75 8.25 14.4289 8.25 16.5V17.25H9.75L10.5 21.75H12" stroke="black" stroke-width="1.5" stroke-linecap="round" stroke-linejoin="round"/>
<path d="M12 12.75C14.0711 12.75 15.75 14.4289 15.75 16.5V17.25H14.25L13.5 21.75H12" stroke="black" stroke-width="1.5" stroke-linecap="round" stroke-linejoin="round"/>
</svg>
