<svg width="25" height="24" viewBox="0 0 25 24" fill="none" xmlns="http://www.w3.org/2000/svg">
<path fill-rule="evenodd" clip-rule="evenodd" d="M5.25897 9C6.91583 9 8.25897 7.65685 8.25897 6C8.25897 4.34315 6.91583 3 5.25897 3C3.60212 3 2.25897 4.34315 2.25897 6C2.25897 7.65685 3.60212 9 5.25897 9Z" stroke="black" stroke-width="1.5" stroke-linecap="round" stroke-linejoin="round"/>
<path d="M7.74697 11.25C6.36553 10.3334 4.59198 10.2506 3.13114 11.0345C1.67031 11.8184 0.758842 13.3421 0.758972 15" stroke="black" stroke-width="1.5" stroke-linecap="round" stroke-linejoin="round"/>
<path d="M22.509 15C22.5091 13.3421 21.5977 11.8184 20.1368 11.0345C18.676 10.2506 16.9024 10.3334 15.521 11.25" stroke="black" stroke-width="1.5" stroke-linecap="round" stroke-linejoin="round"/>
<path fill-rule="evenodd" clip-rule="evenodd" d="M18.009 9C19.6658 9 21.009 7.65685 21.009 6C21.009 4.34315 19.6658 3 18.009 3C16.3521 3 15.009 4.34315 15.009 6C15.009 7.65685 16.3521 9 18.009 9Z" stroke="black" stroke-width="1.5" stroke-linecap="round" stroke-linejoin="round"/>
<path d="M15.009 6C15.009 6 15.009 9.75 12.759 9.75" stroke="black" stroke-width="1.5" stroke-linecap="round" stroke-linejoin="round"/>
<path d="M21.009 6C21.009 6 21.009 9.75 23.259 9.75" stroke="black" stroke-width="1.5" stroke-linecap="round" stroke-linejoin="round"/>
<path fill-rule="evenodd" clip-rule="evenodd" d="M11.259 17.25C12.5016 17.25 13.509 16.2426 13.509 15C13.509 13.7574 12.5016 12.75 11.259 12.75C10.0163 12.75 9.00897 13.7574 9.00897 15C9.00897 16.2426 10.0163 17.25 11.259 17.25Z" stroke="black" stroke-width="1.5" stroke-linecap="round" stroke-linejoin="round"/>
<path d="M15.156 20.25C14.352 18.8583 12.8667 18.001 11.2595 18.001C9.65222 18.001 8.16698 18.8583 7.36298 20.25" stroke="black" stroke-width="1.5" stroke-linecap="round" stroke-linejoin="round"/>
</svg>
