<svg width="25" height="24" viewBox="0 0 25 24" fill="none" xmlns="http://www.w3.org/2000/svg">
<path d="M0.758972 14.25V23.25" stroke="black" stroke-width="1.5" stroke-linecap="round" stroke-linejoin="round"/>
<path d="M0.758972 21.75H15.759C15.759 20.0931 14.4158 18.75 12.759 18.75H9.00897C9.00897 17.0931 7.66583 15.75 6.00897 15.75H0.758972" stroke="black" stroke-width="1.5" stroke-linecap="round" stroke-linejoin="round"/>
<path d="M6.00897 18.75H9.00897" stroke="black" stroke-width="1.5" stroke-linecap="round" stroke-linejoin="round"/>
<path fill-rule="evenodd" clip-rule="evenodd" d="M19.509 6.75C21.1658 6.75 22.509 5.40685 22.509 3.75C22.509 2.09315 21.1658 0.75 19.509 0.75C17.8521 0.75 16.509 2.09315 16.509 3.75C16.509 5.40685 17.8521 6.75 19.509 6.75Z" stroke="black" stroke-width="1.5" stroke-linecap="round" stroke-linejoin="round"/>
<path d="M23.259 12C23.259 10.5796 22.4565 9.28114 21.186 8.64592C19.9156 8.0107 18.3953 8.14778 17.259 9.00002" stroke="black" stroke-width="1.5" stroke-linecap="round" stroke-linejoin="round"/>
<path fill-rule="evenodd" clip-rule="evenodd" d="M6.00897 6.75C7.66583 6.75 9.00897 5.40685 9.00897 3.75C9.00897 2.09315 7.66583 0.75 6.00897 0.75C4.35212 0.75 3.00897 2.09315 3.00897 3.75C3.00897 5.40685 4.35212 6.75 6.00897 6.75Z" stroke="black" stroke-width="1.5" stroke-linecap="round" stroke-linejoin="round"/>
<path d="M2.25897 12C2.25973 10.5799 3.06234 9.28207 4.33247 8.647C5.60261 8.01193 7.12248 8.14857 8.25897 9" stroke="black" stroke-width="1.5" stroke-linecap="round" stroke-linejoin="round"/>
<path fill-rule="evenodd" clip-rule="evenodd" d="M12.759 9.75C14.0016 9.75 15.009 8.74264 15.009 7.5C15.009 6.25736 14.0016 5.25 12.759 5.25C11.5163 5.25 10.509 6.25736 10.509 7.5C10.509 8.74264 11.5163 9.75 12.759 9.75Z" stroke="black" stroke-width="1.5" stroke-linecap="round" stroke-linejoin="round"/>
<path d="M12.759 11.25C11.2678 11.2497 9.9182 12.1332 9.32196 13.5" stroke="black" stroke-width="1.5" stroke-linecap="round" stroke-linejoin="round"/>
<path d="M12.759 11.25C14.83 11.25 16.509 12.9289 16.509 15" stroke="black" stroke-width="1.5" stroke-linecap="round" stroke-linejoin="round"/>
</svg>
